ISO-10303-21;
HEADER;
/* Generated by software containing ST-Developer
 * from STEP Tools, Inc. (www.steptools.com) 
 */
/* OPTION: using custom renumber hook */

FILE_DESCRIPTION(
/* description */ ('STEP AP242 Edition 2',
'CAx-IF Rec.Pracs.---Representation and Presentation of Product Manufa
cturing Information (PMI)---4.0---2014-10-13',
'CAx-IF Rec.Pracs.---3D Tessellated Geometry---0.4---2014-09-14','2;1',
'CAx-IF Rec.Pracs.---User Defined Attributes---1.5---2016-08-15'),
/* implementation_level */ '2;1');

FILE_NAME(
/* name */ 'v2 - Part 2',
/* time_stamp */ '2026-07-31T04:32:16Z',
/* author */ (''),
/* organization */ (''),
/* preprocessor_version */ 'ST-DEVELOPER v20',
/* originating_system */ 'ONSHAPE BY PTC INC, 1.218',
/* authorisation */ '  ');

FILE_SCHEMA (('AP242_MANAGED_MODEL_BASED_3D_ENGINEERING_MIM_LF { 1 0 10303 442 3 1 4 }'));
ENDSEC;

DATA;
#10=SHAPE_REPRESENTATION_RELATIONSHIP('','',#535,#11);
#11=ADVANCED_BREP_SHAPE_REPRESENTATION('',(#533),#837);
#12=ORIENTED_EDGE('',*,*,#156,.F.);
#13=ORIENTED_EDGE('',*,*,#157,.F.);
#14=ORIENTED_EDGE('',*,*,#158,.F.);
#15=ORIENTED_EDGE('',*,*,#159,.T.);
#16=ORIENTED_EDGE('',*,*,#160,.F.);
#17=ORIENTED_EDGE('',*,*,#161,.T.);
#18=ORIENTED_EDGE('',*,*,#162,.F.);
#19=ORIENTED_EDGE('',*,*,#163,.F.);
#20=ORIENTED_EDGE('',*,*,#164,.T.);
#21=ORIENTED_EDGE('',*,*,#165,.T.);
#22=ORIENTED_EDGE('',*,*,#159,.F.);
#23=ORIENTED_EDGE('',*,*,#166,.T.);
#24=ORIENTED_EDGE('',*,*,#167,.T.);
#25=ORIENTED_EDGE('',*,*,#168,.F.);
#26=ORIENTED_EDGE('',*,*,#169,.F.);
#27=ORIENTED_EDGE('',*,*,#170,.T.);
#28=ORIENTED_EDGE('',*,*,#171,.T.);
#29=ORIENTED_EDGE('',*,*,#172,.F.);
#30=ORIENTED_EDGE('',*,*,#173,.T.);
#31=ORIENTED_EDGE('',*,*,#174,.T.);
#32=ORIENTED_EDGE('',*,*,#175,.T.);
#33=ORIENTED_EDGE('',*,*,#176,.F.);
#34=ORIENTED_EDGE('',*,*,#177,.T.);
#35=ORIENTED_EDGE('',*,*,#178,.T.);
#36=ORIENTED_EDGE('',*,*,#179,.F.);
#37=ORIENTED_EDGE('',*,*,#180,.F.);
#38=ORIENTED_EDGE('',*,*,#181,.F.);
#39=ORIENTED_EDGE('',*,*,#182,.F.);
#40=ORIENTED_EDGE('',*,*,#183,.F.);
#41=ORIENTED_EDGE('',*,*,#184,.T.);
#42=ORIENTED_EDGE('',*,*,#161,.F.);
#43=ORIENTED_EDGE('',*,*,#185,.F.);
#44=ORIENTED_EDGE('',*,*,#186,.T.);
#45=ORIENTED_EDGE('',*,*,#187,.T.);
#46=ORIENTED_EDGE('',*,*,#167,.F.);
#47=ORIENTED_EDGE('',*,*,#188,.T.);
#48=ORIENTED_EDGE('',*,*,#171,.F.);
#49=ORIENTED_EDGE('',*,*,#189,.T.);
#50=ORIENTED_EDGE('',*,*,#190,.T.);
#51=ORIENTED_EDGE('',*,*,#191,.T.);
#52=ORIENTED_EDGE('',*,*,#192,.F.);
#53=ORIENTED_EDGE('',*,*,#193,.F.);
#54=ORIENTED_EDGE('',*,*,#194,.F.);
#55=ORIENTED_EDGE('',*,*,#180,.T.);
#56=ORIENTED_EDGE('',*,*,#166,.F.);
#57=ORIENTED_EDGE('',*,*,#158,.T.);
#58=ORIENTED_EDGE('',*,*,#195,.T.);
#59=ORIENTED_EDGE('',*,*,#188,.F.);
#60=ORIENTED_EDGE('',*,*,#196,.F.);
#61=ORIENTED_EDGE('',*,*,#197,.T.);
#62=ORIENTED_EDGE('',*,*,#176,.T.);
#63=ORIENTED_EDGE('',*,*,#198,.T.);
#64=ORIENTED_EDGE('',*,*,#199,.F.);
#65=ORIENTED_EDGE('',*,*,#200,.T.);
#66=ORIENTED_EDGE('',*,*,#163,.T.);
#67=ORIENTED_EDGE('',*,*,#201,.F.);
#68=ORIENTED_EDGE('',*,*,#202,.F.);
#69=ORIENTED_EDGE('',*,*,#203,.T.);
#70=ORIENTED_EDGE('',*,*,#204,.T.);
#71=ORIENTED_EDGE('',*,*,#193,.T.);
#72=ORIENTED_EDGE('',*,*,#205,.T.);
#73=ORIENTED_EDGE('',*,*,#206,.F.);
#74=ORIENTED_EDGE('',*,*,#207,.F.);
#75=ORIENTED_EDGE('',*,*,#196,.T.);
#76=ORIENTED_EDGE('',*,*,#208,.F.);
#77=ORIENTED_EDGE('',*,*,#209,.F.);
#78=ORIENTED_EDGE('',*,*,#210,.T.);
#79=ORIENTED_EDGE('',*,*,#211,.T.);
#80=ORIENTED_EDGE('',*,*,#190,.F.);
#81=ORIENTED_EDGE('',*,*,#212,.F.);
#82=ORIENTED_EDGE('',*,*,#213,.T.);
#83=ORIENTED_EDGE('',*,*,#214,.T.);
#84=ORIENTED_EDGE('',*,*,#186,.F.);
#85=ORIENTED_EDGE('',*,*,#195,.F.);
#86=ORIENTED_EDGE('',*,*,#157,.T.);
#87=ORIENTED_EDGE('',*,*,#215,.F.);
#88=ORIENTED_EDGE('',*,*,#177,.F.);
#89=ORIENTED_EDGE('',*,*,#197,.F.);
#90=ORIENTED_EDGE('',*,*,#207,.T.);
#91=ORIENTED_EDGE('',*,*,#216,.T.);
#92=ORIENTED_EDGE('',*,*,#178,.F.);
#93=ORIENTED_EDGE('',*,*,#216,.F.);
#94=ORIENTED_EDGE('',*,*,#206,.T.);
#95=ORIENTED_EDGE('',*,*,#217,.T.);
#96=ORIENTED_EDGE('',*,*,#179,.T.);
#97=ORIENTED_EDGE('',*,*,#217,.F.);
#98=ORIENTED_EDGE('',*,*,#205,.F.);
#99=ORIENTED_EDGE('',*,*,#192,.T.);
#100=ORIENTED_EDGE('',*,*,#204,.F.);
#101=ORIENTED_EDGE('',*,*,#218,.T.);
#102=ORIENTED_EDGE('',*,*,#181,.T.);
#103=ORIENTED_EDGE('',*,*,#194,.T.);
#104=ORIENTED_EDGE('',*,*,#219,.F.);
#105=ORIENTED_EDGE('',*,*,#208,.T.);
#106=ORIENTED_EDGE('',*,*,#198,.F.);
#107=ORIENTED_EDGE('',*,*,#175,.F.);
#108=ORIENTED_EDGE('',*,*,#191,.F.);
#109=ORIENTED_EDGE('',*,*,#211,.F.);
#110=ORIENTED_EDGE('',*,*,#220,.T.);
#111=ORIENTED_EDGE('',*,*,#172,.T.);
#112=ORIENTED_EDGE('',*,*,#219,.T.);
#113=ORIENTED_EDGE('',*,*,#174,.F.);
#114=ORIENTED_EDGE('',*,*,#221,.F.);
#115=ORIENTED_EDGE('',*,*,#209,.T.);
#116=ORIENTED_EDGE('',*,*,#220,.F.);
#117=ORIENTED_EDGE('',*,*,#210,.F.);
#118=ORIENTED_EDGE('',*,*,#221,.T.);
#119=ORIENTED_EDGE('',*,*,#173,.F.);
#120=ORIENTED_EDGE('',*,*,#187,.F.);
#121=ORIENTED_EDGE('',*,*,#214,.F.);
#122=ORIENTED_EDGE('',*,*,#222,.T.);
#123=ORIENTED_EDGE('',*,*,#168,.T.);
#124=ORIENTED_EDGE('',*,*,#189,.F.);
#125=ORIENTED_EDGE('',*,*,#170,.F.);
#126=ORIENTED_EDGE('',*,*,#223,.T.);
#127=ORIENTED_EDGE('',*,*,#212,.T.);
#128=ORIENTED_EDGE('',*,*,#222,.F.);
#129=ORIENTED_EDGE('',*,*,#213,.F.);
#130=ORIENTED_EDGE('',*,*,#223,.F.);
#131=ORIENTED_EDGE('',*,*,#169,.T.);
#132=ORIENTED_EDGE('',*,*,#162,.T.);
#133=ORIENTED_EDGE('',*,*,#184,.F.);
#134=ORIENTED_EDGE('',*,*,#224,.F.);
#135=ORIENTED_EDGE('',*,*,#201,.T.);
#136=ORIENTED_EDGE('',*,*,#218,.F.);
#137=ORIENTED_EDGE('',*,*,#203,.F.);
#138=ORIENTED_EDGE('',*,*,#225,.T.);
#139=ORIENTED_EDGE('',*,*,#182,.T.);
#140=ORIENTED_EDGE('',*,*,#202,.T.);
#141=ORIENTED_EDGE('',*,*,#224,.T.);
#142=ORIENTED_EDGE('',*,*,#183,.T.);
#143=ORIENTED_EDGE('',*,*,#225,.F.);
#144=ORIENTED_EDGE('',*,*,#156,.T.);
#145=ORIENTED_EDGE('',*,*,#165,.F.);
#146=ORIENTED_EDGE('',*,*,#226,.F.);
#147=ORIENTED_EDGE('',*,*,#215,.T.);
#148=ORIENTED_EDGE('',*,*,#160,.T.);
#149=ORIENTED_EDGE('',*,*,#200,.F.);
#150=ORIENTED_EDGE('',*,*,#227,.F.);
#151=ORIENTED_EDGE('',*,*,#185,.T.);
#152=ORIENTED_EDGE('',*,*,#199,.T.);
#153=ORIENTED_EDGE('',*,*,#226,.T.);
#154=ORIENTED_EDGE('',*,*,#164,.F.);
#155=ORIENTED_EDGE('',*,*,#227,.T.);
#156=EDGE_CURVE('',#228,#229,#276,.T.);
#157=EDGE_CURVE('',#230,#228,#277,.T.);
#158=EDGE_CURVE('',#231,#230,#278,.T.);
#159=EDGE_CURVE('',#231,#229,#279,.T.);
#160=EDGE_CURVE('',#232,#233,#280,.T.);
#161=EDGE_CURVE('',#232,#234,#281,.T.);
#162=EDGE_CURVE('',#235,#234,#282,.T.);
#163=EDGE_CURVE('',#233,#235,#283,.T.);
#164=EDGE_CURVE('',#236,#237,#284,.T.);
#165=EDGE_CURVE('',#237,#229,#285,.T.);
#166=EDGE_CURVE('',#231,#238,#286,.T.);
#167=EDGE_CURVE('',#238,#239,#287,.T.);
#168=EDGE_CURVE('',#240,#239,#288,.T.);
#169=EDGE_CURVE('',#241,#240,#289,.T.);
#170=EDGE_CURVE('',#241,#242,#290,.T.);
#171=EDGE_CURVE('',#242,#243,#291,.T.);
#172=EDGE_CURVE('',#244,#243,#292,.T.);
#173=EDGE_CURVE('',#244,#245,#293,.T.);
#174=EDGE_CURVE('',#245,#246,#294,.T.);
#175=EDGE_CURVE('',#246,#247,#295,.T.);
#176=EDGE_CURVE('',#248,#247,#296,.T.);
#177=EDGE_CURVE('',#248,#249,#297,.T.);
#178=EDGE_CURVE('',#249,#250,#298,.T.);
#179=EDGE_CURVE('',#251,#250,#299,.T.);
#180=EDGE_CURVE('',#252,#251,#300,.T.);
#181=EDGE_CURVE('',#253,#252,#301,.T.);
#182=EDGE_CURVE('',#254,#253,#302,.T.);
#183=EDGE_CURVE('',#255,#254,#303,.T.);
#184=EDGE_CURVE('',#255,#234,#304,.T.);
#185=EDGE_CURVE('',#236,#232,#305,.T.);
#186=EDGE_CURVE('',#256,#257,#306,.T.);
#187=EDGE_CURVE('',#257,#239,#307,.T.);
#188=EDGE_CURVE('',#238,#256,#308,.T.);
#189=EDGE_CURVE('',#242,#258,#309,.T.);
#190=EDGE_CURVE('',#258,#259,#310,.T.);
#191=EDGE_CURVE('',#259,#243,#311,.T.);
#192=EDGE_CURVE('',#260,#251,#312,.T.);
#193=EDGE_CURVE('',#261,#260,#313,.T.);
#194=EDGE_CURVE('',#252,#261,#314,.T.);
#195=EDGE_CURVE('',#230,#256,#315,.T.);
#196=EDGE_CURVE('',#262,#263,#316,.T.);
#197=EDGE_CURVE('',#262,#248,#317,.T.);
#198=EDGE_CURVE('',#247,#263,#318,.T.);
#199=EDGE_CURVE('',#264,#265,#319,.T.);
#200=EDGE_CURVE('',#264,#233,#320,.T.);
#201=EDGE_CURVE('',#266,#235,#321,.T.);
#202=EDGE_CURVE('',#267,#266,#322,.T.);
#203=EDGE_CURVE('',#267,#268,#323,.T.);
#204=EDGE_CURVE('',#268,#261,#324,.T.);
#205=EDGE_CURVE('',#260,#269,#325,.T.);
#206=EDGE_CURVE('',#270,#269,#326,.T.);
#207=EDGE_CURVE('',#262,#270,#327,.T.);
#208=EDGE_CURVE('',#271,#263,#328,.T.);
#209=EDGE_CURVE('',#272,#271,#329,.T.);
#210=EDGE_CURVE('',#272,#273,#330,.T.);
#211=EDGE_CURVE('',#273,#259,#331,.T.);
#212=EDGE_CURVE('',#274,#258,#332,.T.);
#213=EDGE_CURVE('',#274,#275,#333,.T.);
#214=EDGE_CURVE('',#275,#257,#334,.T.);
#215=EDGE_CURVE('',#265,#228,#335,.T.);
#216=EDGE_CURVE('',#270,#249,#336,.T.);
#217=EDGE_CURVE('',#269,#250,#337,.T.);
#218=EDGE_CURVE('',#268,#253,#338,.T.);
#219=EDGE_CURVE('',#271,#246,#339,.T.);
#220=EDGE_CURVE('',#273,#244,#340,.T.);
#221=EDGE_CURVE('',#272,#245,#341,.T.);
#222=EDGE_CURVE('',#275,#240,#342,.T.);
#223=EDGE_CURVE('',#241,#274,#343,.T.);
#224=EDGE_CURVE('',#266,#255,#344,.T.);
#225=EDGE_CURVE('',#267,#254,#345,.T.);
#226=EDGE_CURVE('',#265,#237,#346,.T.);
#227=EDGE_CURVE('',#236,#264,#347,.T.);
#228=VERTEX_POINT('',#692);
#229=VERTEX_POINT('',#693);
#230=VERTEX_POINT('',#695);
#231=VERTEX_POINT('',#697);
#232=VERTEX_POINT('',#701);
#233=VERTEX_POINT('',#702);
#234=VERTEX_POINT('',#704);
#235=VERTEX_POINT('',#706);
#236=VERTEX_POINT('',#710);
#237=VERTEX_POINT('',#711);
#238=VERTEX_POINT('',#714);
#239=VERTEX_POINT('',#716);
#240=VERTEX_POINT('',#718);
#241=VERTEX_POINT('',#720);
#242=VERTEX_POINT('',#722);
#243=VERTEX_POINT('',#724);
#244=VERTEX_POINT('',#726);
#245=VERTEX_POINT('',#728);
#246=VERTEX_POINT('',#730);
#247=VERTEX_POINT('',#732);
#248=VERTEX_POINT('',#734);
#249=VERTEX_POINT('',#736);
#250=VERTEX_POINT('',#738);
#251=VERTEX_POINT('',#740);
#252=VERTEX_POINT('',#742);
#253=VERTEX_POINT('',#744);
#254=VERTEX_POINT('',#746);
#255=VERTEX_POINT('',#748);
#256=VERTEX_POINT('',#753);
#257=VERTEX_POINT('',#754);
#258=VERTEX_POINT('',#759);
#259=VERTEX_POINT('',#761);
#260=VERTEX_POINT('',#765);
#261=VERTEX_POINT('',#767);
#262=VERTEX_POINT('',#773);
#263=VERTEX_POINT('',#774);
#264=VERTEX_POINT('',#779);
#265=VERTEX_POINT('',#780);
#266=VERTEX_POINT('',#783);
#267=VERTEX_POINT('',#785);
#268=VERTEX_POINT('',#787);
#269=VERTEX_POINT('',#790);
#270=VERTEX_POINT('',#792);
#271=VERTEX_POINT('',#795);
#272=VERTEX_POINT('',#797);
#273=VERTEX_POINT('',#799);
#274=VERTEX_POINT('',#802);
#275=VERTEX_POINT('',#804);
#276=LINE('',#691,#348);
#277=LINE('',#694,#349);
#278=LINE('',#696,#350);
#279=LINE('',#698,#351);
#280=LINE('',#700,#352);
#281=LINE('',#703,#353);
#282=LINE('',#705,#354);
#283=LINE('',#707,#355);
#284=LINE('',#709,#356);
#285=LINE('',#712,#357);
#286=LINE('',#713,#358);
#287=LINE('',#715,#359);
#288=LINE('',#717,#360);
#289=LINE('',#719,#361);
#290=LINE('',#721,#362);
#291=LINE('',#723,#363);
#292=LINE('',#725,#364);
#293=LINE('',#727,#365);
#294=LINE('',#729,#366);
#295=LINE('',#731,#367);
#296=LINE('',#733,#368);
#297=LINE('',#735,#369);
#298=LINE('',#737,#370);
#299=LINE('',#739,#371);
#300=LINE('',#741,#372);
#301=LINE('',#743,#373);
#302=LINE('',#745,#374);
#303=LINE('',#747,#375);
#304=LINE('',#749,#376);
#305=LINE('',#750,#377);
#306=LINE('',#752,#378);
#307=LINE('',#755,#379);
#308=LINE('',#756,#380);
#309=LINE('',#758,#381);
#310=LINE('',#760,#382);
#311=LINE('',#762,#383);
#312=LINE('',#764,#384);
#313=LINE('',#766,#385);
#314=LINE('',#768,#386);
#315=LINE('',#770,#387);
#316=LINE('',#772,#388);
#317=LINE('',#775,#389);
#318=LINE('',#776,#390);
#319=LINE('',#778,#391);
#320=LINE('',#781,#392);
#321=LINE('',#782,#393);
#322=LINE('',#784,#394);
#323=LINE('',#786,#395);
#324=LINE('',#788,#396);
#325=LINE('',#789,#397);
#326=LINE('',#791,#398);
#327=LINE('',#793,#399);
#328=LINE('',#794,#400);
#329=LINE('',#796,#401);
#330=LINE('',#798,#402);
#331=LINE('',#800,#403);
#332=LINE('',#801,#404);
#333=LINE('',#803,#405);
#334=LINE('',#805,#406);
#335=LINE('',#806,#407);
#336=LINE('',#808,#408);
#337=LINE('',#810,#409);
#338=LINE('',#813,#410);
#339=LINE('',#815,#411);
#340=LINE('',#817,#412);
#341=LINE('',#819,#413);
#342=LINE('',#822,#414);
#343=LINE('',#824,#415);
#344=LINE('',#827,#416);
#345=LINE('',#829,#417);
#346=LINE('',#832,#418);
#347=LINE('',#834,#419);
#348=VECTOR('',#567,1.);
#349=VECTOR('',#568,1.);
#350=VECTOR('',#569,1.);
#351=VECTOR('',#570,1.);
#352=VECTOR('',#573,1.);
#353=VECTOR('',#574,1.);
#354=VECTOR('',#575,1.);
#355=VECTOR('',#576,1.);
#356=VECTOR('',#579,1.);
#357=VECTOR('',#580,1.);
#358=VECTOR('',#581,1.);
#359=VECTOR('',#582,1.);
#360=VECTOR('',#583,1.);
#361=VECTOR('',#584,1.);
#362=VECTOR('',#585,1.);
#363=VECTOR('',#586,1.);
#364=VECTOR('',#587,1.);
#365=VECTOR('',#588,1.);
#366=VECTOR('',#589,1.);
#367=VECTOR('',#590,1.);
#368=VECTOR('',#591,1.);
#369=VECTOR('',#592,1.);
#370=VECTOR('',#593,1.);
#371=VECTOR('',#594,1.);
#372=VECTOR('',#595,1.);
#373=VECTOR('',#596,1.);
#374=VECTOR('',#597,1.);
#375=VECTOR('',#598,1.);
#376=VECTOR('',#599,1.);
#377=VECTOR('',#600,1.);
#378=VECTOR('',#603,1.);
#379=VECTOR('',#604,1.);
#380=VECTOR('',#605,1.);
#381=VECTOR('',#608,1.);
#382=VECTOR('',#609,1.);
#383=VECTOR('',#610,1.);
#384=VECTOR('',#613,1.);
#385=VECTOR('',#614,1.);
#386=VECTOR('',#615,1.);
#387=VECTOR('',#618,1.);
#388=VECTOR('',#621,1.);
#389=VECTOR('',#622,1.);
#390=VECTOR('',#623,1.);
#391=VECTOR('',#626,1.);
#392=VECTOR('',#627,1.);
#393=VECTOR('',#628,1.);
#394=VECTOR('',#629,1.);
#395=VECTOR('',#630,1.);
#396=VECTOR('',#631,1.);
#397=VECTOR('',#632,1.);
#398=VECTOR('',#633,1.);
#399=VECTOR('',#634,1.);
#400=VECTOR('',#635,1.);
#401=VECTOR('',#636,1.);
#402=VECTOR('',#637,1.);
#403=VECTOR('',#638,1.);
#404=VECTOR('',#639,1.);
#405=VECTOR('',#640,1.);
#406=VECTOR('',#641,1.);
#407=VECTOR('',#642,1.);
#408=VECTOR('',#645,1.);
#409=VECTOR('',#648,1.);
#410=VECTOR('',#653,1.);
#411=VECTOR('',#656,1.);
#412=VECTOR('',#659,1.);
#413=VECTOR('',#662,1.);
#414=VECTOR('',#667,1.);
#415=VECTOR('',#670,1.);
#416=VECTOR('',#675,1.);
#417=VECTOR('',#678,1.);
#418=VECTOR('',#683,1.);
#419=VECTOR('',#686,1.);
#420=EDGE_LOOP('',(#12,#13,#14,#15));
#421=EDGE_LOOP('',(#16,#17,#18,#19));
#422=EDGE_LOOP('',(#20,#21,#22,#23,#24,#25,#26,#27,#28,#29,#30,#31,#32,
#33,#34,#35,#36,#37,#38,#39,#40,#41,#42,#43));
#423=EDGE_LOOP('',(#44,#45,#46,#47));
#424=EDGE_LOOP('',(#48,#49,#50,#51));
#425=EDGE_LOOP('',(#52,#53,#54,#55));
#426=EDGE_LOOP('',(#56,#57,#58,#59));
#427=EDGE_LOOP('',(#60,#61,#62,#63));
#428=EDGE_LOOP('',(#64,#65,#66,#67,#68,#69,#70,#71,#72,#73,#74,#75,#76,
#77,#78,#79,#80,#81,#82,#83,#84,#85,#86,#87));
#429=EDGE_LOOP('',(#88,#89,#90,#91));
#430=EDGE_LOOP('',(#92,#93,#94,#95));
#431=EDGE_LOOP('',(#96,#97,#98,#99));
#432=EDGE_LOOP('',(#100,#101,#102,#103));
#433=EDGE_LOOP('',(#104,#105,#106,#107));
#434=EDGE_LOOP('',(#108,#109,#110,#111));
#435=EDGE_LOOP('',(#112,#113,#114,#115));
#436=EDGE_LOOP('',(#116,#117,#118,#119));
#437=EDGE_LOOP('',(#120,#121,#122,#123));
#438=EDGE_LOOP('',(#124,#125,#126,#127));
#439=EDGE_LOOP('',(#128,#129,#130,#131));
#440=EDGE_LOOP('',(#132,#133,#134,#135));
#441=EDGE_LOOP('',(#136,#137,#138,#139));
#442=EDGE_LOOP('',(#140,#141,#142,#143));
#443=EDGE_LOOP('',(#144,#145,#146,#147));
#444=EDGE_LOOP('',(#148,#149,#150,#151));
#445=EDGE_LOOP('',(#152,#153,#154,#155));
#446=FACE_BOUND('',#420,.T.);
#447=FACE_BOUND('',#421,.T.);
#448=FACE_BOUND('',#422,.T.);
#449=FACE_BOUND('',#423,.T.);
#450=FACE_BOUND('',#424,.T.);
#451=FACE_BOUND('',#425,.T.);
#452=FACE_BOUND('',#426,.T.);
#453=FACE_BOUND('',#427,.T.);
#454=FACE_BOUND('',#428,.T.);
#455=FACE_BOUND('',#429,.T.);
#456=FACE_BOUND('',#430,.T.);
#457=FACE_BOUND('',#431,.T.);
#458=FACE_BOUND('',#432,.T.);
#459=FACE_BOUND('',#433,.T.);
#460=FACE_BOUND('',#434,.T.);
#461=FACE_BOUND('',#435,.T.);
#462=FACE_BOUND('',#436,.T.);
#463=FACE_BOUND('',#437,.T.);
#464=FACE_BOUND('',#438,.T.);
#465=FACE_BOUND('',#439,.T.);
#466=FACE_BOUND('',#440,.T.);
#467=FACE_BOUND('',#441,.T.);
#468=FACE_BOUND('',#442,.T.);
#469=FACE_BOUND('',#443,.T.);
#470=FACE_BOUND('',#444,.T.);
#471=FACE_BOUND('',#445,.T.);
#472=PLANE('',#537);
#473=PLANE('',#538);
#474=PLANE('',#539);
#475=PLANE('',#540);
#476=PLANE('',#541);
#477=PLANE('',#542);
#478=PLANE('',#543);
#479=PLANE('',#544);
#480=PLANE('',#545);
#481=PLANE('',#546);
#482=PLANE('',#547);
#483=PLANE('',#548);
#484=PLANE('',#549);
#485=PLANE('',#550);
#486=PLANE('',#551);
#487=PLANE('',#552);
#488=PLANE('',#553);
#489=PLANE('',#554);
#490=PLANE('',#555);
#491=PLANE('',#556);
#492=PLANE('',#557);
#493=PLANE('',#558);
#494=PLANE('',#559);
#495=PLANE('',#560);
#496=PLANE('',#561);
#497=PLANE('',#562);
#498=ADVANCED_FACE('',(#446),#472,.F.);
#499=ADVANCED_FACE('',(#447),#473,.F.);
#500=ADVANCED_FACE('',(#448),#474,.T.);
#501=ADVANCED_FACE('',(#449),#475,.T.);
#502=ADVANCED_FACE('',(#450),#476,.T.);
#503=ADVANCED_FACE('',(#451),#477,.F.);
#504=ADVANCED_FACE('',(#452),#478,.T.);
#505=ADVANCED_FACE('',(#453),#479,.F.);
#506=ADVANCED_FACE('',(#454),#480,.F.);
#507=ADVANCED_FACE('',(#455),#481,.T.);
#508=ADVANCED_FACE('',(#456),#482,.T.);
#509=ADVANCED_FACE('',(#457),#483,.F.);
#510=ADVANCED_FACE('',(#458),#484,.F.);
#511=ADVANCED_FACE('',(#459),#485,.T.);
#512=ADVANCED_FACE('',(#460),#486,.T.);
#513=ADVANCED_FACE('',(#461),#487,.F.);
#514=ADVANCED_FACE('',(#462),#488,.T.);
#515=ADVANCED_FACE('',(#463),#489,.T.);
#516=ADVANCED_FACE('',(#464),#490,.T.);
#517=ADVANCED_FACE('',(#465),#491,.T.);
#518=ADVANCED_FACE('',(#466),#492,.F.);
#519=ADVANCED_FACE('',(#467),#493,.T.);
#520=ADVANCED_FACE('',(#468),#494,.T.);
#521=ADVANCED_FACE('',(#469),#495,.F.);
#522=ADVANCED_FACE('',(#470),#496,.F.);
#523=ADVANCED_FACE('',(#471),#497,.T.);
#524=CLOSED_SHELL('',(#498,#499,#500,#501,#502,#503,#504,#505,#506,#507,
#508,#509,#510,#511,#512,#513,#514,#515,#516,#517,#518,#519,#520,#521,#522,
#523));
#525=STYLED_ITEM('',(#526),#533);
#526=PRESENTATION_STYLE_ASSIGNMENT((#527));
#527=SURFACE_STYLE_USAGE(.BOTH.,#528);
#528=SURFACE_SIDE_STYLE('',(#529));
#529=SURFACE_STYLE_FILL_AREA(#530);
#530=FILL_AREA_STYLE('',(#531));
#531=FILL_AREA_STYLE_COLOUR('',#532);
#532=COLOUR_RGB('',0.498039215686275,0.498039215686275,0.498039215686275);
#533=MANIFOLD_SOLID_BREP('Part 2',#524);
#534=SHAPE_DEFINITION_REPRESENTATION(#842,#535);
#535=SHAPE_REPRESENTATION('Part 2',(#536),#837);
#536=AXIS2_PLACEMENT_3D('',#689,#563,#564);
#537=AXIS2_PLACEMENT_3D('',#690,#565,#566);
#538=AXIS2_PLACEMENT_3D('',#699,#571,#572);
#539=AXIS2_PLACEMENT_3D('',#708,#577,#578);
#540=AXIS2_PLACEMENT_3D('',#751,#601,#602);
#541=AXIS2_PLACEMENT_3D('',#757,#606,#607);
#542=AXIS2_PLACEMENT_3D('',#763,#611,#612);
#543=AXIS2_PLACEMENT_3D('',#769,#616,#617);
#544=AXIS2_PLACEMENT_3D('',#771,#619,#620);
#545=AXIS2_PLACEMENT_3D('',#777,#624,#625);
#546=AXIS2_PLACEMENT_3D('',#807,#643,#644);
#547=AXIS2_PLACEMENT_3D('',#809,#646,#647);
#548=AXIS2_PLACEMENT_3D('',#811,#649,#650);
#549=AXIS2_PLACEMENT_3D('',#812,#651,#652);
#550=AXIS2_PLACEMENT_3D('',#814,#654,#655);
#551=AXIS2_PLACEMENT_3D('',#816,#657,#658);
#552=AXIS2_PLACEMENT_3D('',#818,#660,#661);
#553=AXIS2_PLACEMENT_3D('',#820,#663,#664);
#554=AXIS2_PLACEMENT_3D('',#821,#665,#666);
#555=AXIS2_PLACEMENT_3D('',#823,#668,#669);
#556=AXIS2_PLACEMENT_3D('',#825,#671,#672);
#557=AXIS2_PLACEMENT_3D('',#826,#673,#674);
#558=AXIS2_PLACEMENT_3D('',#828,#676,#677);
#559=AXIS2_PLACEMENT_3D('',#830,#679,#680);
#560=AXIS2_PLACEMENT_3D('',#831,#681,#682);
#561=AXIS2_PLACEMENT_3D('',#833,#684,#685);
#562=AXIS2_PLACEMENT_3D('',#835,#687,#688);
#563=DIRECTION('',(0.,0.,1.));
#564=DIRECTION('',(1.,0.,0.));
#565=DIRECTION('',(1.,-2.1350442781253E-16,0.));
#566=DIRECTION('',(2.1350442781253E-16,1.,0.));
#567=DIRECTION('',(0.,1.,0.));
#568=DIRECTION('',(0.,0.,-1.));
#569=DIRECTION('',(-2.1350442781253E-16,-1.,0.));
#570=DIRECTION('',(0.,0.,-1.));
#571=DIRECTION('',(1.,-2.1350442781253E-16,0.));
#572=DIRECTION('',(2.1350442781253E-16,1.,0.));
#573=DIRECTION('',(0.,-1.,0.));
#574=DIRECTION('',(0.,0.,-1.));
#575=DIRECTION('',(0.,1.,0.));
#576=DIRECTION('',(0.,0.,-1.));
#577=DIRECTION('',(0.,1.,0.));
#578=DIRECTION('',(0.,0.,1.));
#579=DIRECTION('',(0.,0.,1.));
#580=DIRECTION('',(-1.,0.,0.));
#581=DIRECTION('',(1.,0.,0.));
#582=DIRECTION('',(0.,0.,-1.));
#583=DIRECTION('',(1.,0.,0.));
#584=DIRECTION('',(0.,0.,1.));
#585=DIRECTION('',(1.,0.,0.));
#586=DIRECTION('',(0.,0.,-1.));
#587=DIRECTION('',(1.,0.,0.));
#588=DIRECTION('',(0.,0.,-1.));
#589=DIRECTION('',(1.,0.,0.));
#590=DIRECTION('',(0.,0.,-1.));
#591=DIRECTION('',(1.,0.,0.));
#592=DIRECTION('',(0.,0.,-1.));
#593=DIRECTION('',(-1.,0.,0.));
#594=DIRECTION('',(0.,0.,-1.));
#595=DIRECTION('',(1.,0.,0.));
#596=DIRECTION('',(0.,0.,-1.));
#597=DIRECTION('',(-1.,0.,0.));
#598=DIRECTION('',(0.,0.,-1.));
#599=DIRECTION('',(-1.,0.,0.));
#600=DIRECTION('',(-1.,0.,0.));
#601=DIRECTION('',(1.,-2.1350442781253E-16,0.));
#602=DIRECTION('',(2.1350442781253E-16,1.,0.));
#603=DIRECTION('',(0.,0.,-1.));
#604=DIRECTION('',(0.,1.,0.));
#605=DIRECTION('',(-2.1350442781253E-16,-1.,0.));
#606=DIRECTION('',(1.,-2.1350442781253E-16,0.));
#607=DIRECTION('',(2.1350442781253E-16,1.,0.));
#608=DIRECTION('',(0.,-1.,0.));
#609=DIRECTION('',(0.,0.,-1.));
#610=DIRECTION('',(0.,1.,0.));
#611=DIRECTION('',(0.,0.,1.));
#612=DIRECTION('',(1.,0.,0.));
#613=DIRECTION('',(0.,1.,0.));
#614=DIRECTION('',(1.,0.,0.));
#615=DIRECTION('',(-2.1350442781253E-16,-1.,0.));
#616=DIRECTION('',(0.,0.,1.));
#617=DIRECTION('',(1.,0.,0.));
#618=DIRECTION('',(1.,0.,0.));
#619=DIRECTION('',(0.,0.,1.));
#620=DIRECTION('',(1.,0.,0.));
#621=DIRECTION('',(1.,0.,0.));
#622=DIRECTION('',(0.,1.,0.));
#623=DIRECTION('',(-2.1350442781253E-16,-1.,0.));
#624=DIRECTION('',(0.,1.,0.));
#625=DIRECTION('',(0.,0.,1.));
#626=DIRECTION('',(0.,0.,1.));
#627=DIRECTION('',(-1.,0.,0.));
#628=DIRECTION('',(-1.,0.,0.));
#629=DIRECTION('',(0.,0.,1.));
#630=DIRECTION('',(-1.,0.,0.));
#631=DIRECTION('',(0.,0.,-1.));
#632=DIRECTION('',(0.,0.,-1.));
#633=DIRECTION('',(-1.,0.,0.));
#634=DIRECTION('',(0.,0.,-1.));
#635=DIRECTION('',(0.,0.,-1.));
#636=DIRECTION('',(1.,0.,0.));
#637=DIRECTION('',(0.,0.,1.));
#638=DIRECTION('',(1.,0.,0.));
#639=DIRECTION('',(1.,0.,0.));
#640=DIRECTION('',(0.,0.,1.));
#641=DIRECTION('',(1.,0.,0.));
#642=DIRECTION('',(-1.,0.,0.));
#643=DIRECTION('',(1.,0.,0.));
#644=DIRECTION('',(0.,0.,-1.));
#645=DIRECTION('',(0.,1.,0.));
#646=DIRECTION('',(0.,0.,-1.));
#647=DIRECTION('',(-1.,0.,0.));
#648=DIRECTION('',(0.,1.,0.));
#649=DIRECTION('',(1.,0.,0.));
#650=DIRECTION('',(0.,0.,-1.));
#651=DIRECTION('',(1.,-2.1350442781253E-16,0.));
#652=DIRECTION('',(2.1350442781253E-16,1.,0.));
#653=DIRECTION('',(0.,1.,0.));
#654=DIRECTION('',(1.,-2.1350442781253E-16,0.));
#655=DIRECTION('',(2.1350442781253E-16,1.,0.));
#656=DIRECTION('',(0.,1.,0.));
#657=DIRECTION('',(0.,0.,-1.));
#658=DIRECTION('',(-1.,0.,0.));
#659=DIRECTION('',(0.,1.,0.));
#660=DIRECTION('',(0.,0.,-1.));
#661=DIRECTION('',(-1.,0.,0.));
#662=DIRECTION('',(0.,1.,0.));
#663=DIRECTION('',(1.,0.,0.));
#664=DIRECTION('',(0.,1.,0.));
#665=DIRECTION('',(0.,0.,-1.));
#666=DIRECTION('',(-1.,0.,0.));
#667=DIRECTION('',(0.,1.,0.));
#668=DIRECTION('',(0.,0.,1.));
#669=DIRECTION('',(1.,0.,0.));
#670=DIRECTION('',(0.,-1.,0.));
#671=DIRECTION('',(1.,0.,0.));
#672=DIRECTION('',(0.,1.,0.));
#673=DIRECTION('',(0.,0.,1.));
#674=DIRECTION('',(1.,0.,0.));
#675=DIRECTION('',(0.,1.,0.));
#676=DIRECTION('',(0.,0.,1.));
#677=DIRECTION('',(1.,0.,0.));
#678=DIRECTION('',(0.,1.,0.));
#679=DIRECTION('',(-1.,0.,0.));
#680=DIRECTION('',(0.,0.,1.));
#681=DIRECTION('',(0.,0.,1.));
#682=DIRECTION('',(1.,0.,0.));
#683=DIRECTION('',(0.,1.,0.));
#684=DIRECTION('',(0.,0.,-1.));
#685=DIRECTION('',(-1.,0.,0.));
#686=DIRECTION('',(0.,-1.,0.));
#687=DIRECTION('',(-1.,0.,0.));
#688=DIRECTION('',(0.,0.,1.));
#689=CARTESIAN_POINT('',(0.,0.,0.));
#690=CARTESIAN_POINT('',(-0.068,6.4051328343759E-19,0.143));
#691=CARTESIAN_POINT('',(-0.068,0.0665,0.113));
#692=CARTESIAN_POINT('',(-0.068,0.065,0.113));
#693=CARTESIAN_POINT('',(-0.068,0.068,0.113));
#694=CARTESIAN_POINT('',(-0.068,0.065,0.143));
#695=CARTESIAN_POINT('',(-0.068,0.065,0.143));
#696=CARTESIAN_POINT('',(-0.068,6.4051328343759E-19,0.143));
#697=CARTESIAN_POINT('',(-0.068,0.068,0.143));
#698=CARTESIAN_POINT('',(-0.068,0.068,0.143));
#699=CARTESIAN_POINT('',(-0.068,6.4051328343759E-19,0.143));
#700=CARTESIAN_POINT('',(-0.068,0.0665,0.093));
#701=CARTESIAN_POINT('',(-0.068,0.068,0.093));
#702=CARTESIAN_POINT('',(-0.068,0.065,0.093));
#703=CARTESIAN_POINT('',(-0.068,0.068,0.143));
#704=CARTESIAN_POINT('',(-0.068,0.068,0.053));
#705=CARTESIAN_POINT('',(-0.068,0.0665,0.053));
#706=CARTESIAN_POINT('',(-0.068,0.065,0.053));
#707=CARTESIAN_POINT('',(-0.068,0.065,0.143));
#708=CARTESIAN_POINT('',(1.38777878078145E-17,0.068,0.143));
#709=CARTESIAN_POINT('',(-0.065,0.068,0.103));
#710=CARTESIAN_POINT('',(-0.065,0.068,0.093));
#711=CARTESIAN_POINT('',(-0.065,0.068,0.113));
#712=CARTESIAN_POINT('',(-0.065,0.068,0.113));
#713=CARTESIAN_POINT('',(1.38777878078145E-17,0.068,0.143));
#714=CARTESIAN_POINT('',(0.068,0.068,0.143));
#715=CARTESIAN_POINT('',(0.068,0.068,0.143));
#716=CARTESIAN_POINT('',(0.068,0.068,0.113));
#717=CARTESIAN_POINT('',(0.065,0.068,0.113));
#718=CARTESIAN_POINT('',(0.065,0.068,0.113));
#719=CARTESIAN_POINT('',(0.065,0.068,0.103));
#720=CARTESIAN_POINT('',(0.065,0.068,0.093));
#721=CARTESIAN_POINT('',(0.065,0.068,0.093));
#722=CARTESIAN_POINT('',(0.068,0.068,0.093));
#723=CARTESIAN_POINT('',(0.068,0.068,0.143));
#724=CARTESIAN_POINT('',(0.068,0.068,0.053));
#725=CARTESIAN_POINT('',(0.065,0.068,0.053));
#726=CARTESIAN_POINT('',(0.065,0.068,0.053));
#727=CARTESIAN_POINT('',(0.065,0.068,0.043));
#728=CARTESIAN_POINT('',(0.065,0.068,0.033));
#729=CARTESIAN_POINT('',(0.065,0.068,0.033));
#730=CARTESIAN_POINT('',(0.068,0.068,0.033));
#731=CARTESIAN_POINT('',(0.068,0.068,0.143));
#732=CARTESIAN_POINT('',(0.068,0.068,0.003));
#733=CARTESIAN_POINT('',(1.38777878078145E-17,0.068,0.003));
#734=CARTESIAN_POINT('',(-0.02,0.068,0.003));
#735=CARTESIAN_POINT('',(-0.02,0.068,0.0015));
#736=CARTESIAN_POINT('',(-0.02,0.068,0.));
#737=CARTESIAN_POINT('',(-0.03,0.068,0.));
#738=CARTESIAN_POINT('',(-0.04,0.068,0.));
#739=CARTESIAN_POINT('',(-0.04,0.068,0.0015));
#740=CARTESIAN_POINT('',(-0.04,0.068,0.003));
#741=CARTESIAN_POINT('',(1.38777878078145E-17,0.068,0.003));
#742=CARTESIAN_POINT('',(-0.068,0.068,0.003));
#743=CARTESIAN_POINT('',(-0.068,0.068,0.143));
#744=CARTESIAN_POINT('',(-0.068,0.068,0.033));
#745=CARTESIAN_POINT('',(-0.065,0.068,0.033));
#746=CARTESIAN_POINT('',(-0.065,0.068,0.033));
#747=CARTESIAN_POINT('',(-0.065,0.068,0.043));
#748=CARTESIAN_POINT('',(-0.065,0.068,0.053));
#749=CARTESIAN_POINT('',(-0.065,0.068,0.053));
#750=CARTESIAN_POINT('',(-0.065,0.068,0.093));
#751=CARTESIAN_POINT('',(0.068,-6.4051328343759E-19,0.143));
#752=CARTESIAN_POINT('',(0.068,0.065,0.143));
#753=CARTESIAN_POINT('',(0.068,0.065,0.143));
#754=CARTESIAN_POINT('',(0.068,0.065,0.113));
#755=CARTESIAN_POINT('',(0.068,0.0665,0.113));
#756=CARTESIAN_POINT('',(0.068,-6.4051328343759E-19,0.143));
#757=CARTESIAN_POINT('',(0.068,-6.4051328343759E-19,0.143));
#758=CARTESIAN_POINT('',(0.068,0.0665,0.093));
#759=CARTESIAN_POINT('',(0.068,0.065,0.093));
#760=CARTESIAN_POINT('',(0.068,0.065,0.143));
#761=CARTESIAN_POINT('',(0.068,0.065,0.053));
#762=CARTESIAN_POINT('',(0.068,0.0665,0.053));
#763=CARTESIAN_POINT('',(0.,0.,0.003));
#764=CARTESIAN_POINT('',(-0.04,0.065,0.003));
#765=CARTESIAN_POINT('',(-0.04,0.065,0.003));
#766=CARTESIAN_POINT('',(1.38777878078145E-17,0.065,0.003));
#767=CARTESIAN_POINT('',(-0.068,0.065,0.003));
#768=CARTESIAN_POINT('',(-0.068,6.4051328343759E-19,0.003));
#769=CARTESIAN_POINT('',(0.,0.,0.143));
#770=CARTESIAN_POINT('',(1.38777878078145E-17,0.065,0.143));
#771=CARTESIAN_POINT('',(0.,0.,0.003));
#772=CARTESIAN_POINT('',(1.38777878078145E-17,0.065,0.003));
#773=CARTESIAN_POINT('',(-0.02,0.065,0.003));
#774=CARTESIAN_POINT('',(0.068,0.065,0.003));
#775=CARTESIAN_POINT('',(-0.02,0.065,0.003));
#776=CARTESIAN_POINT('',(0.068,-6.4051328343759E-19,0.003));
#777=CARTESIAN_POINT('',(1.38777878078145E-17,0.065,0.143));
#778=CARTESIAN_POINT('',(-0.065,0.065,0.003));
#779=CARTESIAN_POINT('',(-0.065,0.065,0.093));
#780=CARTESIAN_POINT('',(-0.065,0.065,0.113));
#781=CARTESIAN_POINT('',(-0.065,0.065,0.093));
#782=CARTESIAN_POINT('',(-0.065,0.065,0.053));
#783=CARTESIAN_POINT('',(-0.065,0.065,0.053));
#784=CARTESIAN_POINT('',(-0.065,0.065,0.003));
#785=CARTESIAN_POINT('',(-0.065,0.065,0.033));
#786=CARTESIAN_POINT('',(-0.065,0.065,0.033));
#787=CARTESIAN_POINT('',(-0.068,0.065,0.033));
#788=CARTESIAN_POINT('',(-0.068,0.065,0.143));
#789=CARTESIAN_POINT('',(-0.04,0.065,0.0015));
#790=CARTESIAN_POINT('',(-0.04,0.065,0.));
#791=CARTESIAN_POINT('',(-0.03,0.065,0.));
#792=CARTESIAN_POINT('',(-0.02,0.065,0.));
#793=CARTESIAN_POINT('',(-0.02,0.065,0.0015));
#794=CARTESIAN_POINT('',(0.068,0.065,0.143));
#795=CARTESIAN_POINT('',(0.068,0.065,0.033));
#796=CARTESIAN_POINT('',(0.065,0.065,0.033));
#797=CARTESIAN_POINT('',(0.065,0.065,0.033));
#798=CARTESIAN_POINT('',(0.065,0.065,0.003));
#799=CARTESIAN_POINT('',(0.065,0.065,0.053));
#800=CARTESIAN_POINT('',(0.065,0.065,0.053));
#801=CARTESIAN_POINT('',(0.065,0.065,0.093));
#802=CARTESIAN_POINT('',(0.065,0.065,0.093));
#803=CARTESIAN_POINT('',(0.065,0.065,0.003));
#804=CARTESIAN_POINT('',(0.065,0.065,0.113));
#805=CARTESIAN_POINT('',(0.065,0.065,0.113));
#806=CARTESIAN_POINT('',(-0.065,0.065,0.113));
#807=CARTESIAN_POINT('',(-0.02,0.065,0.0015));
#808=CARTESIAN_POINT('',(-0.02,0.065,0.));
#809=CARTESIAN_POINT('',(-0.03,0.065,0.));
#810=CARTESIAN_POINT('',(-0.04,0.065,0.));
#811=CARTESIAN_POINT('',(-0.04,0.065,0.0015));
#812=CARTESIAN_POINT('',(-0.068,6.4051328343759E-19,0.143));
#813=CARTESIAN_POINT('',(-0.068,0.0665,0.033));
#814=CARTESIAN_POINT('',(0.068,-6.4051328343759E-19,0.143));
#815=CARTESIAN_POINT('',(0.068,0.0665,0.033));
#816=CARTESIAN_POINT('',(0.065,0.0665,0.053));
#817=CARTESIAN_POINT('',(0.065,0.0665,0.053));
#818=CARTESIAN_POINT('',(0.065,0.0665,0.033));
#819=CARTESIAN_POINT('',(0.065,0.0665,0.033));
#820=CARTESIAN_POINT('',(0.065,-0.025,0.0715));
#821=CARTESIAN_POINT('',(0.065,0.0665,0.113));
#822=CARTESIAN_POINT('',(0.065,0.0665,0.113));
#823=CARTESIAN_POINT('',(0.065,0.0665,0.093));
#824=CARTESIAN_POINT('',(0.065,0.0665,0.093));
#825=CARTESIAN_POINT('',(0.065,-0.025,0.0715));
#826=CARTESIAN_POINT('',(-0.065,0.0665,0.053));
#827=CARTESIAN_POINT('',(-0.065,0.0665,0.053));
#828=CARTESIAN_POINT('',(-0.065,0.0665,0.033));
#829=CARTESIAN_POINT('',(-0.065,0.0665,0.033));
#830=CARTESIAN_POINT('',(-0.065,-0.11,0.143));
#831=CARTESIAN_POINT('',(-0.065,0.0665,0.113));
#832=CARTESIAN_POINT('',(-0.065,0.0665,0.113));
#833=CARTESIAN_POINT('',(-0.065,0.0665,0.093));
#834=CARTESIAN_POINT('',(-0.065,0.0665,0.093));
#835=CARTESIAN_POINT('',(-0.065,-0.11,0.143));
#836=MECHANICAL_DESIGN_GEOMETRIC_PRESENTATION_REPRESENTATION('',(#525),
#837);
#837=(
GEOMETRIC_REPRESENTATION_CONTEXT(3)
GLOBAL_UNCERTAINTY_ASSIGNED_CONTEXT((#838))
GLOBAL_UNIT_ASSIGNED_CONTEXT((#841,#840,#839))
REPRESENTATION_CONTEXT('Part 2','TOP_LEVEL_ASSEMBLY_PART')
);
#838=UNCERTAINTY_MEASURE_WITH_UNIT(LENGTH_MEASURE(1.E-8),#841,
'DISTANCE_ACCURACY_VALUE','Maximum Tolerance applied to model');
#839=(
NAMED_UNIT(*)
SI_UNIT($,.STERADIAN.)
SOLID_ANGLE_UNIT()
);
#840=(
NAMED_UNIT(*)
PLANE_ANGLE_UNIT()
SI_UNIT($,.RADIAN.)
);
#841=(
LENGTH_UNIT()
NAMED_UNIT(*)
SI_UNIT($,.METRE.)
);
#842=PRODUCT_DEFINITION_SHAPE('','',#843);
#843=PRODUCT_DEFINITION('','',#845,#844);
#844=PRODUCT_DEFINITION_CONTEXT('',#851,'design');
#845=PRODUCT_DEFINITION_FORMATION_WITH_SPECIFIED_SOURCE('','',#847,
 .NOT_KNOWN.);
#846=PRODUCT_RELATED_PRODUCT_CATEGORY('','',(#847));
#847=PRODUCT('Part 2','Part 2','Part 2',(#849));
#848=PRODUCT_CATEGORY('','');
#849=PRODUCT_CONTEXT('',#851,'mechanical');
#850=APPLICATION_PROTOCOL_DEFINITION('international standard',
'ap242_managed_model_based_3d_engineering',2020,#851);
#851=APPLICATION_CONTEXT('managed model based 3d engineering');
ENDSEC;
END-ISO-10303-21;
