ISO-10303-21;
HEADER;
/* Generated by software containing ST-Developer
 * from STEP Tools, Inc. (www.steptools.com) 
 */
/* OPTION: using custom renumber hook */

FILE_DESCRIPTION(
/* description */ ('STEP AP242 Edition 2',
'CAx-IF Rec.Pracs.---Representation and Presentation of Product Manufa
cturing Information (PMI)---4.0---2014-10-13',
'CAx-IF Rec.Pracs.---3D Tessellated Geometry---0.4---2014-09-14','2;1',
'CAx-IF Rec.Pracs.---User Defined Attributes---1.5---2016-08-15'),
/* implementation_level */ '2;1');

FILE_NAME(
/* name */ 'v2 - Part 4',
/* time_stamp */ '2026-07-31T04:33:44Z',
/* author */ (''),
/* organization */ (''),
/* preprocessor_version */ 'ST-DEVELOPER v20',
/* originating_system */ 'ONSHAPE BY PTC INC, 1.218',
/* authorisation */ '  ');

FILE_SCHEMA (('AP242_MANAGED_MODEL_BASED_3D_ENGINEERING_MIM_LF { 1 0 10303 442 3 1 4 }'));
ENDSEC;

DATA;
#10=SHAPE_REPRESENTATION_RELATIONSHIP('','',#1247,#11);
#11=ADVANCED_BREP_SHAPE_REPRESENTATION('',(#1245),#1933);
#12=ORIENTED_EDGE('',*,*,#348,.T.);
#13=ORIENTED_EDGE('',*,*,#349,.T.);
#14=ORIENTED_EDGE('',*,*,#350,.T.);
#15=ORIENTED_EDGE('',*,*,#351,.F.);
#16=ORIENTED_EDGE('',*,*,#352,.T.);
#17=ORIENTED_EDGE('',*,*,#353,.T.);
#18=ORIENTED_EDGE('',*,*,#354,.F.);
#19=ORIENTED_EDGE('',*,*,#355,.F.);
#20=ORIENTED_EDGE('',*,*,#356,.T.);
#21=ORIENTED_EDGE('',*,*,#357,.T.);
#22=ORIENTED_EDGE('',*,*,#358,.T.);
#23=ORIENTED_EDGE('',*,*,#359,.F.);
#24=ORIENTED_EDGE('',*,*,#360,.T.);
#25=ORIENTED_EDGE('',*,*,#361,.T.);
#26=ORIENTED_EDGE('',*,*,#362,.T.);
#27=ORIENTED_EDGE('',*,*,#363,.F.);
#28=ORIENTED_EDGE('',*,*,#364,.T.);
#29=ORIENTED_EDGE('',*,*,#365,.T.);
#30=ORIENTED_EDGE('',*,*,#366,.T.);
#31=ORIENTED_EDGE('',*,*,#367,.F.);
#32=ORIENTED_EDGE('',*,*,#368,.T.);
#33=ORIENTED_EDGE('',*,*,#369,.T.);
#34=ORIENTED_EDGE('',*,*,#370,.T.);
#35=ORIENTED_EDGE('',*,*,#371,.F.);
#36=ORIENTED_EDGE('',*,*,#372,.T.);
#37=ORIENTED_EDGE('',*,*,#373,.T.);
#38=ORIENTED_EDGE('',*,*,#374,.T.);
#39=ORIENTED_EDGE('',*,*,#375,.F.);
#40=ORIENTED_EDGE('',*,*,#376,.T.);
#41=ORIENTED_EDGE('',*,*,#377,.T.);
#42=ORIENTED_EDGE('',*,*,#378,.T.);
#43=ORIENTED_EDGE('',*,*,#379,.F.);
#44=ORIENTED_EDGE('',*,*,#380,.T.);
#45=ORIENTED_EDGE('',*,*,#381,.T.);
#46=ORIENTED_EDGE('',*,*,#382,.T.);
#47=ORIENTED_EDGE('',*,*,#383,.F.);
#48=ORIENTED_EDGE('',*,*,#384,.T.);
#49=ORIENTED_EDGE('',*,*,#385,.T.);
#50=ORIENTED_EDGE('',*,*,#386,.T.);
#51=ORIENTED_EDGE('',*,*,#387,.F.);
#52=ORIENTED_EDGE('',*,*,#388,.T.);
#53=ORIENTED_EDGE('',*,*,#389,.T.);
#54=ORIENTED_EDGE('',*,*,#390,.T.);
#55=ORIENTED_EDGE('',*,*,#391,.F.);
#56=ORIENTED_EDGE('',*,*,#392,.T.);
#57=ORIENTED_EDGE('',*,*,#393,.T.);
#58=ORIENTED_EDGE('',*,*,#394,.T.);
#59=ORIENTED_EDGE('',*,*,#395,.F.);
#60=ORIENTED_EDGE('',*,*,#396,.T.);
#61=ORIENTED_EDGE('',*,*,#397,.T.);
#62=ORIENTED_EDGE('',*,*,#398,.T.);
#63=ORIENTED_EDGE('',*,*,#399,.F.);
#64=ORIENTED_EDGE('',*,*,#400,.T.);
#65=ORIENTED_EDGE('',*,*,#401,.T.);
#66=ORIENTED_EDGE('',*,*,#402,.T.);
#67=ORIENTED_EDGE('',*,*,#403,.F.);
#68=ORIENTED_EDGE('',*,*,#404,.F.);
#69=ORIENTED_EDGE('',*,*,#405,.F.);
#70=ORIENTED_EDGE('',*,*,#406,.T.);
#71=ORIENTED_EDGE('',*,*,#407,.F.);
#72=ORIENTED_EDGE('',*,*,#408,.F.);
#73=ORIENTED_EDGE('',*,*,#409,.F.);
#74=ORIENTED_EDGE('',*,*,#410,.T.);
#75=ORIENTED_EDGE('',*,*,#411,.F.);
#76=ORIENTED_EDGE('',*,*,#412,.F.);
#77=ORIENTED_EDGE('',*,*,#413,.F.);
#78=ORIENTED_EDGE('',*,*,#414,.T.);
#79=ORIENTED_EDGE('',*,*,#415,.F.);
#80=ORIENTED_EDGE('',*,*,#416,.F.);
#81=ORIENTED_EDGE('',*,*,#417,.F.);
#82=ORIENTED_EDGE('',*,*,#418,.T.);
#83=ORIENTED_EDGE('',*,*,#419,.F.);
#84=ORIENTED_EDGE('',*,*,#420,.F.);
#85=ORIENTED_EDGE('',*,*,#421,.F.);
#86=ORIENTED_EDGE('',*,*,#422,.T.);
#87=ORIENTED_EDGE('',*,*,#423,.F.);
#88=ORIENTED_EDGE('',*,*,#424,.F.);
#89=ORIENTED_EDGE('',*,*,#425,.F.);
#90=ORIENTED_EDGE('',*,*,#426,.T.);
#91=ORIENTED_EDGE('',*,*,#427,.T.);
#92=ORIENTED_EDGE('',*,*,#428,.F.);
#93=ORIENTED_EDGE('',*,*,#429,.F.);
#94=ORIENTED_EDGE('',*,*,#430,.T.);
#95=ORIENTED_EDGE('',*,*,#431,.F.);
#96=ORIENTED_EDGE('',*,*,#432,.F.);
#97=ORIENTED_EDGE('',*,*,#433,.F.);
#98=ORIENTED_EDGE('',*,*,#434,.T.);
#99=ORIENTED_EDGE('',*,*,#435,.F.);
#100=ORIENTED_EDGE('',*,*,#436,.F.);
#101=ORIENTED_EDGE('',*,*,#437,.F.);
#102=ORIENTED_EDGE('',*,*,#438,.T.);
#103=ORIENTED_EDGE('',*,*,#439,.F.);
#104=ORIENTED_EDGE('',*,*,#440,.F.);
#105=ORIENTED_EDGE('',*,*,#441,.F.);
#106=ORIENTED_EDGE('',*,*,#442,.T.);
#107=ORIENTED_EDGE('',*,*,#443,.F.);
#108=ORIENTED_EDGE('',*,*,#444,.F.);
#109=ORIENTED_EDGE('',*,*,#445,.F.);
#110=ORIENTED_EDGE('',*,*,#446,.T.);
#111=ORIENTED_EDGE('',*,*,#447,.F.);
#112=ORIENTED_EDGE('',*,*,#448,.F.);
#113=ORIENTED_EDGE('',*,*,#449,.F.);
#114=ORIENTED_EDGE('',*,*,#450,.T.);
#115=ORIENTED_EDGE('',*,*,#451,.F.);
#116=ORIENTED_EDGE('',*,*,#452,.F.);
#117=ORIENTED_EDGE('',*,*,#453,.F.);
#118=ORIENTED_EDGE('',*,*,#454,.T.);
#119=ORIENTED_EDGE('',*,*,#455,.F.);
#120=ORIENTED_EDGE('',*,*,#456,.F.);
#121=ORIENTED_EDGE('',*,*,#457,.F.);
#122=ORIENTED_EDGE('',*,*,#458,.T.);
#123=ORIENTED_EDGE('',*,*,#459,.F.);
#124=ORIENTED_EDGE('',*,*,#358,.F.);
#125=ORIENTED_EDGE('',*,*,#460,.T.);
#126=ORIENTED_EDGE('',*,*,#439,.T.);
#127=ORIENTED_EDGE('',*,*,#461,.F.);
#128=ORIENTED_EDGE('',*,*,#350,.F.);
#129=ORIENTED_EDGE('',*,*,#462,.T.);
#130=ORIENTED_EDGE('',*,*,#431,.T.);
#131=ORIENTED_EDGE('',*,*,#463,.F.);
#132=ORIENTED_EDGE('',*,*,#464,.F.);
#133=ORIENTED_EDGE('',*,*,#362,.F.);
#134=ORIENTED_EDGE('',*,*,#465,.T.);
#135=ORIENTED_EDGE('',*,*,#435,.T.);
#136=ORIENTED_EDGE('',*,*,#353,.F.);
#137=ORIENTED_EDGE('',*,*,#466,.T.);
#138=ORIENTED_EDGE('',*,*,#428,.T.);
#139=ORIENTED_EDGE('',*,*,#467,.F.);
#140=ORIENTED_EDGE('',*,*,#426,.F.);
#141=ORIENTED_EDGE('',*,*,#468,.T.);
#142=ORIENTED_EDGE('',*,*,#355,.T.);
#143=ORIENTED_EDGE('',*,*,#469,.F.);
#144=ORIENTED_EDGE('',*,*,#467,.T.);
#145=ORIENTED_EDGE('',*,*,#427,.F.);
#146=ORIENTED_EDGE('',*,*,#469,.T.);
#147=ORIENTED_EDGE('',*,*,#354,.T.);
#148=ORIENTED_EDGE('',*,*,#470,.F.);
#149=ORIENTED_EDGE('',*,*,#359,.T.);
#150=ORIENTED_EDGE('',*,*,#461,.T.);
#151=ORIENTED_EDGE('',*,*,#438,.F.);
#152=ORIENTED_EDGE('',*,*,#436,.T.);
#153=ORIENTED_EDGE('',*,*,#465,.F.);
#154=ORIENTED_EDGE('',*,*,#361,.F.);
#155=ORIENTED_EDGE('',*,*,#471,.T.);
#156=ORIENTED_EDGE('',*,*,#437,.T.);
#157=ORIENTED_EDGE('',*,*,#471,.F.);
#158=ORIENTED_EDGE('',*,*,#360,.F.);
#159=ORIENTED_EDGE('',*,*,#470,.T.);
#160=ORIENTED_EDGE('',*,*,#472,.F.);
#161=ORIENTED_EDGE('',*,*,#351,.T.);
#162=ORIENTED_EDGE('',*,*,#463,.T.);
#163=ORIENTED_EDGE('',*,*,#430,.F.);
#164=ORIENTED_EDGE('',*,*,#352,.F.);
#165=ORIENTED_EDGE('',*,*,#472,.T.);
#166=ORIENTED_EDGE('',*,*,#429,.T.);
#167=ORIENTED_EDGE('',*,*,#466,.F.);
#168=ORIENTED_EDGE('',*,*,#473,.F.);
#169=ORIENTED_EDGE('',*,*,#363,.T.);
#170=ORIENTED_EDGE('',*,*,#464,.T.);
#171=ORIENTED_EDGE('',*,*,#434,.F.);
#172=ORIENTED_EDGE('',*,*,#432,.T.);
#173=ORIENTED_EDGE('',*,*,#462,.F.);
#174=ORIENTED_EDGE('',*,*,#349,.F.);
#175=ORIENTED_EDGE('',*,*,#474,.T.);
#176=ORIENTED_EDGE('',*,*,#433,.T.);
#177=ORIENTED_EDGE('',*,*,#474,.F.);
#178=ORIENTED_EDGE('',*,*,#348,.F.);
#179=ORIENTED_EDGE('',*,*,#473,.T.);
#180=ORIENTED_EDGE('',*,*,#424,.T.);
#181=ORIENTED_EDGE('',*,*,#460,.F.);
#182=ORIENTED_EDGE('',*,*,#357,.F.);
#183=ORIENTED_EDGE('',*,*,#475,.T.);
#184=ORIENTED_EDGE('',*,*,#425,.T.);
#185=ORIENTED_EDGE('',*,*,#475,.F.);
#186=ORIENTED_EDGE('',*,*,#356,.F.);
#187=ORIENTED_EDGE('',*,*,#468,.F.);
#188=ORIENTED_EDGE('',*,*,#476,.T.);
#189=ORIENTED_EDGE('',*,*,#420,.T.);
#190=ORIENTED_EDGE('',*,*,#477,.F.);
#191=ORIENTED_EDGE('',*,*,#365,.F.);
#192=ORIENTED_EDGE('',*,*,#477,.T.);
#193=ORIENTED_EDGE('',*,*,#423,.T.);
#194=ORIENTED_EDGE('',*,*,#478,.F.);
#195=ORIENTED_EDGE('',*,*,#366,.F.);
#196=ORIENTED_EDGE('',*,*,#367,.T.);
#197=ORIENTED_EDGE('',*,*,#478,.T.);
#198=ORIENTED_EDGE('',*,*,#422,.F.);
#199=ORIENTED_EDGE('',*,*,#479,.F.);
#200=ORIENTED_EDGE('',*,*,#479,.T.);
#201=ORIENTED_EDGE('',*,*,#421,.T.);
#202=ORIENTED_EDGE('',*,*,#476,.F.);
#203=ORIENTED_EDGE('',*,*,#364,.F.);
#204=ORIENTED_EDGE('',*,*,#480,.T.);
#205=ORIENTED_EDGE('',*,*,#440,.T.);
#206=ORIENTED_EDGE('',*,*,#481,.F.);
#207=ORIENTED_EDGE('',*,*,#369,.F.);
#208=ORIENTED_EDGE('',*,*,#481,.T.);
#209=ORIENTED_EDGE('',*,*,#443,.T.);
#210=ORIENTED_EDGE('',*,*,#482,.F.);
#211=ORIENTED_EDGE('',*,*,#370,.F.);
#212=ORIENTED_EDGE('',*,*,#371,.T.);
#213=ORIENTED_EDGE('',*,*,#482,.T.);
#214=ORIENTED_EDGE('',*,*,#442,.F.);
#215=ORIENTED_EDGE('',*,*,#483,.F.);
#216=ORIENTED_EDGE('',*,*,#483,.T.);
#217=ORIENTED_EDGE('',*,*,#441,.T.);
#218=ORIENTED_EDGE('',*,*,#480,.F.);
#219=ORIENTED_EDGE('',*,*,#368,.F.);
#220=ORIENTED_EDGE('',*,*,#484,.T.);
#221=ORIENTED_EDGE('',*,*,#416,.T.);
#222=ORIENTED_EDGE('',*,*,#485,.F.);
#223=ORIENTED_EDGE('',*,*,#373,.F.);
#224=ORIENTED_EDGE('',*,*,#485,.T.);
#225=ORIENTED_EDGE('',*,*,#419,.T.);
#226=ORIENTED_EDGE('',*,*,#486,.F.);
#227=ORIENTED_EDGE('',*,*,#374,.F.);
#228=ORIENTED_EDGE('',*,*,#375,.T.);
#229=ORIENTED_EDGE('',*,*,#486,.T.);
#230=ORIENTED_EDGE('',*,*,#418,.F.);
#231=ORIENTED_EDGE('',*,*,#487,.F.);
#232=ORIENTED_EDGE('',*,*,#487,.T.);
#233=ORIENTED_EDGE('',*,*,#417,.T.);
#234=ORIENTED_EDGE('',*,*,#484,.F.);
#235=ORIENTED_EDGE('',*,*,#372,.F.);
#236=ORIENTED_EDGE('',*,*,#488,.T.);
#237=ORIENTED_EDGE('',*,*,#444,.T.);
#238=ORIENTED_EDGE('',*,*,#489,.F.);
#239=ORIENTED_EDGE('',*,*,#377,.F.);
#240=ORIENTED_EDGE('',*,*,#489,.T.);
#241=ORIENTED_EDGE('',*,*,#447,.T.);
#242=ORIENTED_EDGE('',*,*,#490,.F.);
#243=ORIENTED_EDGE('',*,*,#378,.F.);
#244=ORIENTED_EDGE('',*,*,#379,.T.);
#245=ORIENTED_EDGE('',*,*,#490,.T.);
#246=ORIENTED_EDGE('',*,*,#446,.F.);
#247=ORIENTED_EDGE('',*,*,#491,.F.);
#248=ORIENTED_EDGE('',*,*,#491,.T.);
#249=ORIENTED_EDGE('',*,*,#445,.T.);
#250=ORIENTED_EDGE('',*,*,#488,.F.);
#251=ORIENTED_EDGE('',*,*,#376,.F.);
#252=ORIENTED_EDGE('',*,*,#492,.T.);
#253=ORIENTED_EDGE('',*,*,#412,.T.);
#254=ORIENTED_EDGE('',*,*,#493,.F.);
#255=ORIENTED_EDGE('',*,*,#381,.F.);
#256=ORIENTED_EDGE('',*,*,#493,.T.);
#257=ORIENTED_EDGE('',*,*,#415,.T.);
#258=ORIENTED_EDGE('',*,*,#494,.F.);
#259=ORIENTED_EDGE('',*,*,#382,.F.);
#260=ORIENTED_EDGE('',*,*,#383,.T.);
#261=ORIENTED_EDGE('',*,*,#494,.T.);
#262=ORIENTED_EDGE('',*,*,#414,.F.);
#263=ORIENTED_EDGE('',*,*,#495,.F.);
#264=ORIENTED_EDGE('',*,*,#495,.T.);
#265=ORIENTED_EDGE('',*,*,#413,.T.);
#266=ORIENTED_EDGE('',*,*,#492,.F.);
#267=ORIENTED_EDGE('',*,*,#380,.F.);
#268=ORIENTED_EDGE('',*,*,#496,.T.);
#269=ORIENTED_EDGE('',*,*,#448,.T.);
#270=ORIENTED_EDGE('',*,*,#497,.F.);
#271=ORIENTED_EDGE('',*,*,#385,.F.);
#272=ORIENTED_EDGE('',*,*,#497,.T.);
#273=ORIENTED_EDGE('',*,*,#451,.T.);
#274=ORIENTED_EDGE('',*,*,#498,.F.);
#275=ORIENTED_EDGE('',*,*,#386,.F.);
#276=ORIENTED_EDGE('',*,*,#387,.T.);
#277=ORIENTED_EDGE('',*,*,#498,.T.);
#278=ORIENTED_EDGE('',*,*,#450,.F.);
#279=ORIENTED_EDGE('',*,*,#499,.F.);
#280=ORIENTED_EDGE('',*,*,#499,.T.);
#281=ORIENTED_EDGE('',*,*,#449,.T.);
#282=ORIENTED_EDGE('',*,*,#496,.F.);
#283=ORIENTED_EDGE('',*,*,#384,.F.);
#284=ORIENTED_EDGE('',*,*,#500,.T.);
#285=ORIENTED_EDGE('',*,*,#408,.T.);
#286=ORIENTED_EDGE('',*,*,#501,.F.);
#287=ORIENTED_EDGE('',*,*,#389,.F.);
#288=ORIENTED_EDGE('',*,*,#501,.T.);
#289=ORIENTED_EDGE('',*,*,#411,.T.);
#290=ORIENTED_EDGE('',*,*,#502,.F.);
#291=ORIENTED_EDGE('',*,*,#390,.F.);
#292=ORIENTED_EDGE('',*,*,#391,.T.);
#293=ORIENTED_EDGE('',*,*,#502,.T.);
#294=ORIENTED_EDGE('',*,*,#410,.F.);
#295=ORIENTED_EDGE('',*,*,#503,.F.);
#296=ORIENTED_EDGE('',*,*,#503,.T.);
#297=ORIENTED_EDGE('',*,*,#409,.T.);
#298=ORIENTED_EDGE('',*,*,#500,.F.);
#299=ORIENTED_EDGE('',*,*,#388,.F.);
#300=ORIENTED_EDGE('',*,*,#504,.T.);
#301=ORIENTED_EDGE('',*,*,#452,.T.);
#302=ORIENTED_EDGE('',*,*,#505,.F.);
#303=ORIENTED_EDGE('',*,*,#393,.F.);
#304=ORIENTED_EDGE('',*,*,#505,.T.);
#305=ORIENTED_EDGE('',*,*,#455,.T.);
#306=ORIENTED_EDGE('',*,*,#506,.F.);
#307=ORIENTED_EDGE('',*,*,#394,.F.);
#308=ORIENTED_EDGE('',*,*,#395,.T.);
#309=ORIENTED_EDGE('',*,*,#506,.T.);
#310=ORIENTED_EDGE('',*,*,#454,.F.);
#311=ORIENTED_EDGE('',*,*,#507,.F.);
#312=ORIENTED_EDGE('',*,*,#507,.T.);
#313=ORIENTED_EDGE('',*,*,#453,.T.);
#314=ORIENTED_EDGE('',*,*,#504,.F.);
#315=ORIENTED_EDGE('',*,*,#392,.F.);
#316=ORIENTED_EDGE('',*,*,#508,.T.);
#317=ORIENTED_EDGE('',*,*,#404,.T.);
#318=ORIENTED_EDGE('',*,*,#509,.F.);
#319=ORIENTED_EDGE('',*,*,#397,.F.);
#320=ORIENTED_EDGE('',*,*,#509,.T.);
#321=ORIENTED_EDGE('',*,*,#407,.T.);
#322=ORIENTED_EDGE('',*,*,#510,.F.);
#323=ORIENTED_EDGE('',*,*,#398,.F.);
#324=ORIENTED_EDGE('',*,*,#399,.T.);
#325=ORIENTED_EDGE('',*,*,#510,.T.);
#326=ORIENTED_EDGE('',*,*,#406,.F.);
#327=ORIENTED_EDGE('',*,*,#511,.F.);
#328=ORIENTED_EDGE('',*,*,#511,.T.);
#329=ORIENTED_EDGE('',*,*,#405,.T.);
#330=ORIENTED_EDGE('',*,*,#508,.F.);
#331=ORIENTED_EDGE('',*,*,#396,.F.);
#332=ORIENTED_EDGE('',*,*,#512,.T.);
#333=ORIENTED_EDGE('',*,*,#456,.T.);
#334=ORIENTED_EDGE('',*,*,#513,.F.);
#335=ORIENTED_EDGE('',*,*,#401,.F.);
#336=ORIENTED_EDGE('',*,*,#513,.T.);
#337=ORIENTED_EDGE('',*,*,#459,.T.);
#338=ORIENTED_EDGE('',*,*,#514,.F.);
#339=ORIENTED_EDGE('',*,*,#402,.F.);
#340=ORIENTED_EDGE('',*,*,#403,.T.);
#341=ORIENTED_EDGE('',*,*,#514,.T.);
#342=ORIENTED_EDGE('',*,*,#458,.F.);
#343=ORIENTED_EDGE('',*,*,#515,.F.);
#344=ORIENTED_EDGE('',*,*,#515,.T.);
#345=ORIENTED_EDGE('',*,*,#457,.T.);
#346=ORIENTED_EDGE('',*,*,#512,.F.);
#347=ORIENTED_EDGE('',*,*,#400,.F.);
#348=EDGE_CURVE('',#516,#517,#628,.T.);
#349=EDGE_CURVE('',#517,#518,#629,.T.);
#350=EDGE_CURVE('',#518,#519,#630,.T.);
#351=EDGE_CURVE('',#520,#519,#631,.T.);
#352=EDGE_CURVE('',#520,#521,#632,.T.);
#353=EDGE_CURVE('',#521,#522,#633,.T.);
#354=EDGE_CURVE('',#523,#522,#634,.T.);
#355=EDGE_CURVE('',#524,#523,#635,.T.);
#356=EDGE_CURVE('',#524,#525,#636,.T.);
#357=EDGE_CURVE('',#525,#526,#637,.T.);
#358=EDGE_CURVE('',#526,#527,#638,.T.);
#359=EDGE_CURVE('',#528,#527,#639,.T.);
#360=EDGE_CURVE('',#528,#529,#640,.T.);
#361=EDGE_CURVE('',#529,#530,#641,.T.);
#362=EDGE_CURVE('',#530,#531,#642,.T.);
#363=EDGE_CURVE('',#516,#531,#643,.T.);
#364=EDGE_CURVE('',#532,#533,#644,.T.);
#365=EDGE_CURVE('',#533,#534,#645,.T.);
#366=EDGE_CURVE('',#534,#535,#646,.T.);
#367=EDGE_CURVE('',#532,#535,#647,.T.);
#368=EDGE_CURVE('',#536,#537,#648,.T.);
#369=EDGE_CURVE('',#537,#538,#649,.T.);
#370=EDGE_CURVE('',#538,#539,#650,.T.);
#371=EDGE_CURVE('',#536,#539,#651,.T.);
#372=EDGE_CURVE('',#540,#541,#652,.T.);
#373=EDGE_CURVE('',#541,#542,#653,.T.);
#374=EDGE_CURVE('',#542,#543,#654,.T.);
#375=EDGE_CURVE('',#540,#543,#655,.T.);
#376=EDGE_CURVE('',#544,#545,#656,.T.);
#377=EDGE_CURVE('',#545,#546,#657,.T.);
#378=EDGE_CURVE('',#546,#547,#658,.T.);
#379=EDGE_CURVE('',#544,#547,#659,.T.);
#380=EDGE_CURVE('',#548,#549,#660,.T.);
#381=EDGE_CURVE('',#549,#550,#661,.T.);
#382=EDGE_CURVE('',#550,#551,#662,.T.);
#383=EDGE_CURVE('',#548,#551,#663,.T.);
#384=EDGE_CURVE('',#552,#553,#664,.T.);
#385=EDGE_CURVE('',#553,#554,#665,.T.);
#386=EDGE_CURVE('',#554,#555,#666,.T.);
#387=EDGE_CURVE('',#552,#555,#667,.T.);
#388=EDGE_CURVE('',#556,#557,#668,.T.);
#389=EDGE_CURVE('',#557,#558,#669,.T.);
#390=EDGE_CURVE('',#558,#559,#670,.T.);
#391=EDGE_CURVE('',#556,#559,#671,.T.);
#392=EDGE_CURVE('',#560,#561,#672,.T.);
#393=EDGE_CURVE('',#561,#562,#673,.T.);
#394=EDGE_CURVE('',#562,#563,#674,.T.);
#395=EDGE_CURVE('',#560,#563,#675,.T.);
#396=EDGE_CURVE('',#564,#565,#676,.T.);
#397=EDGE_CURVE('',#565,#566,#677,.T.);
#398=EDGE_CURVE('',#566,#567,#678,.T.);
#399=EDGE_CURVE('',#564,#567,#679,.T.);
#400=EDGE_CURVE('',#568,#569,#680,.T.);
#401=EDGE_CURVE('',#569,#570,#681,.T.);
#402=EDGE_CURVE('',#570,#571,#682,.T.);
#403=EDGE_CURVE('',#568,#571,#683,.T.);
#404=EDGE_CURVE('',#572,#573,#684,.T.);
#405=EDGE_CURVE('',#574,#572,#685,.T.);
#406=EDGE_CURVE('',#574,#575,#686,.T.);
#407=EDGE_CURVE('',#573,#575,#687,.T.);
#408=EDGE_CURVE('',#576,#577,#688,.T.);
#409=EDGE_CURVE('',#578,#576,#689,.T.);
#410=EDGE_CURVE('',#578,#579,#690,.T.);
#411=EDGE_CURVE('',#577,#579,#691,.T.);
#412=EDGE_CURVE('',#580,#581,#692,.T.);
#413=EDGE_CURVE('',#582,#580,#693,.T.);
#414=EDGE_CURVE('',#582,#583,#694,.T.);
#415=EDGE_CURVE('',#581,#583,#695,.T.);
#416=EDGE_CURVE('',#584,#585,#696,.T.);
#417=EDGE_CURVE('',#586,#584,#697,.T.);
#418=EDGE_CURVE('',#586,#587,#698,.T.);
#419=EDGE_CURVE('',#585,#587,#699,.T.);
#420=EDGE_CURVE('',#588,#589,#700,.T.);
#421=EDGE_CURVE('',#590,#588,#701,.T.);
#422=EDGE_CURVE('',#590,#591,#702,.T.);
#423=EDGE_CURVE('',#589,#591,#703,.T.);
#424=EDGE_CURVE('',#592,#593,#704,.T.);
#425=EDGE_CURVE('',#594,#592,#705,.T.);
#426=EDGE_CURVE('',#594,#595,#706,.T.);
#427=EDGE_CURVE('',#595,#596,#707,.T.);
#428=EDGE_CURVE('',#597,#596,#708,.T.);
#429=EDGE_CURVE('',#598,#597,#709,.T.);
#430=EDGE_CURVE('',#598,#599,#710,.T.);
#431=EDGE_CURVE('',#600,#599,#711,.T.);
#432=EDGE_CURVE('',#601,#600,#712,.T.);
#433=EDGE_CURVE('',#602,#601,#713,.T.);
#434=EDGE_CURVE('',#602,#603,#714,.T.);
#435=EDGE_CURVE('',#604,#603,#715,.T.);
#436=EDGE_CURVE('',#605,#604,#716,.T.);
#437=EDGE_CURVE('',#606,#605,#717,.T.);
#438=EDGE_CURVE('',#606,#607,#718,.T.);
#439=EDGE_CURVE('',#593,#607,#719,.T.);
#440=EDGE_CURVE('',#608,#609,#720,.T.);
#441=EDGE_CURVE('',#610,#608,#721,.T.);
#442=EDGE_CURVE('',#610,#611,#722,.T.);
#443=EDGE_CURVE('',#609,#611,#723,.T.);
#444=EDGE_CURVE('',#612,#613,#724,.T.);
#445=EDGE_CURVE('',#614,#612,#725,.T.);
#446=EDGE_CURVE('',#614,#615,#726,.T.);
#447=EDGE_CURVE('',#613,#615,#727,.T.);
#448=EDGE_CURVE('',#616,#617,#728,.T.);
#449=EDGE_CURVE('',#618,#616,#729,.T.);
#450=EDGE_CURVE('',#618,#619,#730,.T.);
#451=EDGE_CURVE('',#617,#619,#731,.T.);
#452=EDGE_CURVE('',#620,#621,#732,.T.);
#453=EDGE_CURVE('',#622,#620,#733,.T.);
#454=EDGE_CURVE('',#622,#623,#734,.T.);
#455=EDGE_CURVE('',#621,#623,#735,.T.);
#456=EDGE_CURVE('',#624,#625,#736,.T.);
#457=EDGE_CURVE('',#626,#624,#737,.T.);
#458=EDGE_CURVE('',#626,#627,#738,.T.);
#459=EDGE_CURVE('',#625,#627,#739,.T.);
#460=EDGE_CURVE('',#526,#593,#740,.T.);
#461=EDGE_CURVE('',#527,#607,#741,.T.);
#462=EDGE_CURVE('',#518,#600,#742,.T.);
#463=EDGE_CURVE('',#519,#599,#743,.T.);
#464=EDGE_CURVE('',#531,#603,#744,.T.);
#465=EDGE_CURVE('',#530,#604,#745,.T.);
#466=EDGE_CURVE('',#521,#597,#746,.T.);
#467=EDGE_CURVE('',#522,#596,#747,.T.);
#468=EDGE_CURVE('',#594,#524,#748,.T.);
#469=EDGE_CURVE('',#595,#523,#749,.T.);
#470=EDGE_CURVE('',#528,#606,#750,.T.);
#471=EDGE_CURVE('',#529,#605,#751,.T.);
#472=EDGE_CURVE('',#520,#598,#752,.T.);
#473=EDGE_CURVE('',#516,#602,#753,.T.);
#474=EDGE_CURVE('',#517,#601,#754,.T.);
#475=EDGE_CURVE('',#525,#592,#755,.T.);
#476=EDGE_CURVE('',#533,#588,#756,.T.);
#477=EDGE_CURVE('',#534,#589,#757,.T.);
#478=EDGE_CURVE('',#535,#591,#758,.T.);
#479=EDGE_CURVE('',#532,#590,#759,.T.);
#480=EDGE_CURVE('',#537,#608,#760,.T.);
#481=EDGE_CURVE('',#538,#609,#761,.T.);
#482=EDGE_CURVE('',#539,#611,#762,.T.);
#483=EDGE_CURVE('',#536,#610,#763,.T.);
#484=EDGE_CURVE('',#541,#584,#764,.T.);
#485=EDGE_CURVE('',#542,#585,#765,.T.);
#486=EDGE_CURVE('',#543,#587,#766,.T.);
#487=EDGE_CURVE('',#540,#586,#767,.T.);
#488=EDGE_CURVE('',#545,#612,#768,.T.);
#489=EDGE_CURVE('',#546,#613,#769,.T.);
#490=EDGE_CURVE('',#547,#615,#770,.T.);
#491=EDGE_CURVE('',#544,#614,#771,.T.);
#492=EDGE_CURVE('',#549,#580,#772,.T.);
#493=EDGE_CURVE('',#550,#581,#773,.T.);
#494=EDGE_CURVE('',#551,#583,#774,.T.);
#495=EDGE_CURVE('',#548,#582,#775,.T.);
#496=EDGE_CURVE('',#553,#616,#776,.T.);
#497=EDGE_CURVE('',#554,#617,#777,.T.);
#498=EDGE_CURVE('',#555,#619,#778,.T.);
#499=EDGE_CURVE('',#552,#618,#779,.T.);
#500=EDGE_CURVE('',#557,#576,#780,.T.);
#501=EDGE_CURVE('',#558,#577,#781,.T.);
#502=EDGE_CURVE('',#559,#579,#782,.T.);
#503=EDGE_CURVE('',#556,#578,#783,.T.);
#504=EDGE_CURVE('',#561,#620,#784,.T.);
#505=EDGE_CURVE('',#562,#621,#785,.T.);
#506=EDGE_CURVE('',#563,#623,#786,.T.);
#507=EDGE_CURVE('',#560,#622,#787,.T.);
#508=EDGE_CURVE('',#565,#572,#788,.T.);
#509=EDGE_CURVE('',#566,#573,#789,.T.);
#510=EDGE_CURVE('',#567,#575,#790,.T.);
#511=EDGE_CURVE('',#564,#574,#791,.T.);
#512=EDGE_CURVE('',#569,#624,#792,.T.);
#513=EDGE_CURVE('',#570,#625,#793,.T.);
#514=EDGE_CURVE('',#571,#627,#794,.T.);
#515=EDGE_CURVE('',#568,#626,#795,.T.);
#516=VERTEX_POINT('',#1596);
#517=VERTEX_POINT('',#1597);
#518=VERTEX_POINT('',#1599);
#519=VERTEX_POINT('',#1601);
#520=VERTEX_POINT('',#1603);
#521=VERTEX_POINT('',#1605);
#522=VERTEX_POINT('',#1607);
#523=VERTEX_POINT('',#1609);
#524=VERTEX_POINT('',#1611);
#525=VERTEX_POINT('',#1613);
#526=VERTEX_POINT('',#1615);
#527=VERTEX_POINT('',#1617);
#528=VERTEX_POINT('',#1619);
#529=VERTEX_POINT('',#1621);
#530=VERTEX_POINT('',#1623);
#531=VERTEX_POINT('',#1625);
#532=VERTEX_POINT('',#1628);
#533=VERTEX_POINT('',#1629);
#534=VERTEX_POINT('',#1631);
#535=VERTEX_POINT('',#1633);
#536=VERTEX_POINT('',#1636);
#537=VERTEX_POINT('',#1637);
#538=VERTEX_POINT('',#1639);
#539=VERTEX_POINT('',#1641);
#540=VERTEX_POINT('',#1644);
#541=VERTEX_POINT('',#1645);
#542=VERTEX_POINT('',#1647);
#543=VERTEX_POINT('',#1649);
#544=VERTEX_POINT('',#1652);
#545=VERTEX_POINT('',#1653);
#546=VERTEX_POINT('',#1655);
#547=VERTEX_POINT('',#1657);
#548=VERTEX_POINT('',#1660);
#549=VERTEX_POINT('',#1661);
#550=VERTEX_POINT('',#1663);
#551=VERTEX_POINT('',#1665);
#552=VERTEX_POINT('',#1668);
#553=VERTEX_POINT('',#1669);
#554=VERTEX_POINT('',#1671);
#555=VERTEX_POINT('',#1673);
#556=VERTEX_POINT('',#1676);
#557=VERTEX_POINT('',#1677);
#558=VERTEX_POINT('',#1679);
#559=VERTEX_POINT('',#1681);
#560=VERTEX_POINT('',#1684);
#561=VERTEX_POINT('',#1685);
#562=VERTEX_POINT('',#1687);
#563=VERTEX_POINT('',#1689);
#564=VERTEX_POINT('',#1692);
#565=VERTEX_POINT('',#1693);
#566=VERTEX_POINT('',#1695);
#567=VERTEX_POINT('',#1697);
#568=VERTEX_POINT('',#1700);
#569=VERTEX_POINT('',#1701);
#570=VERTEX_POINT('',#1703);
#571=VERTEX_POINT('',#1705);
#572=VERTEX_POINT('',#1709);
#573=VERTEX_POINT('',#1710);
#574=VERTEX_POINT('',#1712);
#575=VERTEX_POINT('',#1714);
#576=VERTEX_POINT('',#1717);
#577=VERTEX_POINT('',#1718);
#578=VERTEX_POINT('',#1720);
#579=VERTEX_POINT('',#1722);
#580=VERTEX_POINT('',#1725);
#581=VERTEX_POINT('',#1726);
#582=VERTEX_POINT('',#1728);
#583=VERTEX_POINT('',#1730);
#584=VERTEX_POINT('',#1733);
#585=VERTEX_POINT('',#1734);
#586=VERTEX_POINT('',#1736);
#587=VERTEX_POINT('',#1738);
#588=VERTEX_POINT('',#1741);
#589=VERTEX_POINT('',#1742);
#590=VERTEX_POINT('',#1744);
#591=VERTEX_POINT('',#1746);
#592=VERTEX_POINT('',#1749);
#593=VERTEX_POINT('',#1750);
#594=VERTEX_POINT('',#1752);
#595=VERTEX_POINT('',#1754);
#596=VERTEX_POINT('',#1756);
#597=VERTEX_POINT('',#1758);
#598=VERTEX_POINT('',#1760);
#599=VERTEX_POINT('',#1762);
#600=VERTEX_POINT('',#1764);
#601=VERTEX_POINT('',#1766);
#602=VERTEX_POINT('',#1768);
#603=VERTEX_POINT('',#1770);
#604=VERTEX_POINT('',#1772);
#605=VERTEX_POINT('',#1774);
#606=VERTEX_POINT('',#1776);
#607=VERTEX_POINT('',#1778);
#608=VERTEX_POINT('',#1781);
#609=VERTEX_POINT('',#1782);
#610=VERTEX_POINT('',#1784);
#611=VERTEX_POINT('',#1786);
#612=VERTEX_POINT('',#1789);
#613=VERTEX_POINT('',#1790);
#614=VERTEX_POINT('',#1792);
#615=VERTEX_POINT('',#1794);
#616=VERTEX_POINT('',#1797);
#617=VERTEX_POINT('',#1798);
#618=VERTEX_POINT('',#1800);
#619=VERTEX_POINT('',#1802);
#620=VERTEX_POINT('',#1805);
#621=VERTEX_POINT('',#1806);
#622=VERTEX_POINT('',#1808);
#623=VERTEX_POINT('',#1810);
#624=VERTEX_POINT('',#1813);
#625=VERTEX_POINT('',#1814);
#626=VERTEX_POINT('',#1816);
#627=VERTEX_POINT('',#1818);
#628=LINE('',#1595,#796);
#629=LINE('',#1598,#797);
#630=LINE('',#1600,#798);
#631=LINE('',#1602,#799);
#632=LINE('',#1604,#800);
#633=LINE('',#1606,#801);
#634=LINE('',#1608,#802);
#635=LINE('',#1610,#803);
#636=LINE('',#1612,#804);
#637=LINE('',#1614,#805);
#638=LINE('',#1616,#806);
#639=LINE('',#1618,#807);
#640=LINE('',#1620,#808);
#641=LINE('',#1622,#809);
#642=LINE('',#1624,#810);
#643=LINE('',#1626,#811);
#644=LINE('',#1627,#812);
#645=LINE('',#1630,#813);
#646=LINE('',#1632,#814);
#647=LINE('',#1634,#815);
#648=LINE('',#1635,#816);
#649=LINE('',#1638,#817);
#650=LINE('',#1640,#818);
#651=LINE('',#1642,#819);
#652=LINE('',#1643,#820);
#653=LINE('',#1646,#821);
#654=LINE('',#1648,#822);
#655=LINE('',#1650,#823);
#656=LINE('',#1651,#824);
#657=LINE('',#1654,#825);
#658=LINE('',#1656,#826);
#659=LINE('',#1658,#827);
#660=LINE('',#1659,#828);
#661=LINE('',#1662,#829);
#662=LINE('',#1664,#830);
#663=LINE('',#1666,#831);
#664=LINE('',#1667,#832);
#665=LINE('',#1670,#833);
#666=LINE('',#1672,#834);
#667=LINE('',#1674,#835);
#668=LINE('',#1675,#836);
#669=LINE('',#1678,#837);
#670=LINE('',#1680,#838);
#671=LINE('',#1682,#839);
#672=LINE('',#1683,#840);
#673=LINE('',#1686,#841);
#674=LINE('',#1688,#842);
#675=LINE('',#1690,#843);
#676=LINE('',#1691,#844);
#677=LINE('',#1694,#845);
#678=LINE('',#1696,#846);
#679=LINE('',#1698,#847);
#680=LINE('',#1699,#848);
#681=LINE('',#1702,#849);
#682=LINE('',#1704,#850);
#683=LINE('',#1706,#851);
#684=LINE('',#1708,#852);
#685=LINE('',#1711,#853);
#686=LINE('',#1713,#854);
#687=LINE('',#1715,#855);
#688=LINE('',#1716,#856);
#689=LINE('',#1719,#857);
#690=LINE('',#1721,#858);
#691=LINE('',#1723,#859);
#692=LINE('',#1724,#860);
#693=LINE('',#1727,#861);
#694=LINE('',#1729,#862);
#695=LINE('',#1731,#863);
#696=LINE('',#1732,#864);
#697=LINE('',#1735,#865);
#698=LINE('',#1737,#866);
#699=LINE('',#1739,#867);
#700=LINE('',#1740,#868);
#701=LINE('',#1743,#869);
#702=LINE('',#1745,#870);
#703=LINE('',#1747,#871);
#704=LINE('',#1748,#872);
#705=LINE('',#1751,#873);
#706=LINE('',#1753,#874);
#707=LINE('',#1755,#875);
#708=LINE('',#1757,#876);
#709=LINE('',#1759,#877);
#710=LINE('',#1761,#878);
#711=LINE('',#1763,#879);
#712=LINE('',#1765,#880);
#713=LINE('',#1767,#881);
#714=LINE('',#1769,#882);
#715=LINE('',#1771,#883);
#716=LINE('',#1773,#884);
#717=LINE('',#1775,#885);
#718=LINE('',#1777,#886);
#719=LINE('',#1779,#887);
#720=LINE('',#1780,#888);
#721=LINE('',#1783,#889);
#722=LINE('',#1785,#890);
#723=LINE('',#1787,#891);
#724=LINE('',#1788,#892);
#725=LINE('',#1791,#893);
#726=LINE('',#1793,#894);
#727=LINE('',#1795,#895);
#728=LINE('',#1796,#896);
#729=LINE('',#1799,#897);
#730=LINE('',#1801,#898);
#731=LINE('',#1803,#899);
#732=LINE('',#1804,#900);
#733=LINE('',#1807,#901);
#734=LINE('',#1809,#902);
#735=LINE('',#1811,#903);
#736=LINE('',#1812,#904);
#737=LINE('',#1815,#905);
#738=LINE('',#1817,#906);
#739=LINE('',#1819,#907);
#740=LINE('',#1821,#908);
#741=LINE('',#1822,#909);
#742=LINE('',#1824,#910);
#743=LINE('',#1825,#911);
#744=LINE('',#1827,#912);
#745=LINE('',#1828,#913);
#746=LINE('',#1830,#914);
#747=LINE('',#1831,#915);
#748=LINE('',#1833,#916);
#749=LINE('',#1834,#917);
#750=LINE('',#1837,#918);
#751=LINE('',#1839,#919);
#752=LINE('',#1842,#920);
#753=LINE('',#1845,#921);
#754=LINE('',#1847,#922);
#755=LINE('',#1850,#923);
#756=LINE('',#1853,#924);
#757=LINE('',#1854,#925);
#758=LINE('',#1856,#926);
#759=LINE('',#1858,#927);
#760=LINE('',#1861,#928);
#761=LINE('',#1862,#929);
#762=LINE('',#1864,#930);
#763=LINE('',#1866,#931);
#764=LINE('',#1869,#932);
#765=LINE('',#1870,#933);
#766=LINE('',#1872,#934);
#767=LINE('',#1874,#935);
#768=LINE('',#1877,#936);
#769=LINE('',#1878,#937);
#770=LINE('',#1880,#938);
#771=LINE('',#1882,#939);
#772=LINE('',#1885,#940);
#773=LINE('',#1886,#941);
#774=LINE('',#1888,#942);
#775=LINE('',#1890,#943);
#776=LINE('',#1893,#944);
#777=LINE('',#1894,#945);
#778=LINE('',#1896,#946);
#779=LINE('',#1898,#947);
#780=LINE('',#1901,#948);
#781=LINE('',#1902,#949);
#782=LINE('',#1904,#950);
#783=LINE('',#1906,#951);
#784=LINE('',#1909,#952);
#785=LINE('',#1910,#953);
#786=LINE('',#1912,#954);
#787=LINE('',#1914,#955);
#788=LINE('',#1917,#956);
#789=LINE('',#1918,#957);
#790=LINE('',#1920,#958);
#791=LINE('',#1922,#959);
#792=LINE('',#1925,#960);
#793=LINE('',#1926,#961);
#794=LINE('',#1928,#962);
#795=LINE('',#1930,#963);
#796=VECTOR('',#1311,1.);
#797=VECTOR('',#1312,1.);
#798=VECTOR('',#1313,1.);
#799=VECTOR('',#1314,1.);
#800=VECTOR('',#1315,1.);
#801=VECTOR('',#1316,1.);
#802=VECTOR('',#1317,1.);
#803=VECTOR('',#1318,1.);
#804=VECTOR('',#1319,1.);
#805=VECTOR('',#1320,1.);
#806=VECTOR('',#1321,1.);
#807=VECTOR('',#1322,1.);
#808=VECTOR('',#1323,1.);
#809=VECTOR('',#1324,1.);
#810=VECTOR('',#1325,1.);
#811=VECTOR('',#1326,1.);
#812=VECTOR('',#1327,1.);
#813=VECTOR('',#1328,1.);
#814=VECTOR('',#1329,1.);
#815=VECTOR('',#1330,1.);
#816=VECTOR('',#1331,1.);
#817=VECTOR('',#1332,1.);
#818=VECTOR('',#1333,1.);
#819=VECTOR('',#1334,1.);
#820=VECTOR('',#1335,1.);
#821=VECTOR('',#1336,1.);
#822=VECTOR('',#1337,1.);
#823=VECTOR('',#1338,1.);
#824=VECTOR('',#1339,1.);
#825=VECTOR('',#1340,1.);
#826=VECTOR('',#1341,1.);
#827=VECTOR('',#1342,1.);
#828=VECTOR('',#1343,1.);
#829=VECTOR('',#1344,1.);
#830=VECTOR('',#1345,1.);
#831=VECTOR('',#1346,1.);
#832=VECTOR('',#1347,1.);
#833=VECTOR('',#1348,1.);
#834=VECTOR('',#1349,1.);
#835=VECTOR('',#1350,1.);
#836=VECTOR('',#1351,1.);
#837=VECTOR('',#1352,1.);
#838=VECTOR('',#1353,1.);
#839=VECTOR('',#1354,1.);
#840=VECTOR('',#1355,1.);
#841=VECTOR('',#1356,1.);
#842=VECTOR('',#1357,1.);
#843=VECTOR('',#1358,1.);
#844=VECTOR('',#1359,1.);
#845=VECTOR('',#1360,1.);
#846=VECTOR('',#1361,1.);
#847=VECTOR('',#1362,1.);
#848=VECTOR('',#1363,1.);
#849=VECTOR('',#1364,1.);
#850=VECTOR('',#1365,1.);
#851=VECTOR('',#1366,1.);
#852=VECTOR('',#1369,1.);
#853=VECTOR('',#1370,1.);
#854=VECTOR('',#1371,1.);
#855=VECTOR('',#1372,1.);
#856=VECTOR('',#1373,1.);
#857=VECTOR('',#1374,1.);
#858=VECTOR('',#1375,1.);
#859=VECTOR('',#1376,1.);
#860=VECTOR('',#1377,1.);
#861=VECTOR('',#1378,1.);
#862=VECTOR('',#1379,1.);
#863=VECTOR('',#1380,1.);
#864=VECTOR('',#1381,1.);
#865=VECTOR('',#1382,1.);
#866=VECTOR('',#1383,1.);
#867=VECTOR('',#1384,1.);
#868=VECTOR('',#1385,1.);
#869=VECTOR('',#1386,1.);
#870=VECTOR('',#1387,1.);
#871=VECTOR('',#1388,1.);
#872=VECTOR('',#1389,1.);
#873=VECTOR('',#1390,1.);
#874=VECTOR('',#1391,1.);
#875=VECTOR('',#1392,1.);
#876=VECTOR('',#1393,1.);
#877=VECTOR('',#1394,1.);
#878=VECTOR('',#1395,1.);
#879=VECTOR('',#1396,1.);
#880=VECTOR('',#1397,1.);
#881=VECTOR('',#1398,1.);
#882=VECTOR('',#1399,1.);
#883=VECTOR('',#1400,1.);
#884=VECTOR('',#1401,1.);
#885=VECTOR('',#1402,1.);
#886=VECTOR('',#1403,1.);
#887=VECTOR('',#1404,1.);
#888=VECTOR('',#1405,1.);
#889=VECTOR('',#1406,1.);
#890=VECTOR('',#1407,1.);
#891=VECTOR('',#1408,1.);
#892=VECTOR('',#1409,1.);
#893=VECTOR('',#1410,1.);
#894=VECTOR('',#1411,1.);
#895=VECTOR('',#1412,1.);
#896=VECTOR('',#1413,1.);
#897=VECTOR('',#1414,1.);
#898=VECTOR('',#1415,1.);
#899=VECTOR('',#1416,1.);
#900=VECTOR('',#1417,1.);
#901=VECTOR('',#1418,1.);
#902=VECTOR('',#1419,1.);
#903=VECTOR('',#1420,1.);
#904=VECTOR('',#1421,1.);
#905=VECTOR('',#1422,1.);
#906=VECTOR('',#1423,1.);
#907=VECTOR('',#1424,1.);
#908=VECTOR('',#1427,1.);
#909=VECTOR('',#1428,1.);
#910=VECTOR('',#1431,1.);
#911=VECTOR('',#1432,1.);
#912=VECTOR('',#1435,1.);
#913=VECTOR('',#1436,1.);
#914=VECTOR('',#1439,1.);
#915=VECTOR('',#1440,1.);
#916=VECTOR('',#1443,1.);
#917=VECTOR('',#1444,1.);
#918=VECTOR('',#1449,1.);
#919=VECTOR('',#1452,1.);
#920=VECTOR('',#1457,1.);
#921=VECTOR('',#1462,1.);
#922=VECTOR('',#1465,1.);
#923=VECTOR('',#1470,1.);
#924=VECTOR('',#1475,1.);
#925=VECTOR('',#1476,1.);
#926=VECTOR('',#1479,1.);
#927=VECTOR('',#1482,1.);
#928=VECTOR('',#1487,1.);
#929=VECTOR('',#1488,1.);
#930=VECTOR('',#1491,1.);
#931=VECTOR('',#1494,1.);
#932=VECTOR('',#1499,1.);
#933=VECTOR('',#1500,1.);
#934=VECTOR('',#1503,1.);
#935=VECTOR('',#1506,1.);
#936=VECTOR('',#1511,1.);
#937=VECTOR('',#1512,1.);
#938=VECTOR('',#1515,1.);
#939=VECTOR('',#1518,1.);
#940=VECTOR('',#1523,1.);
#941=VECTOR('',#1524,1.);
#942=VECTOR('',#1527,1.);
#943=VECTOR('',#1530,1.);
#944=VECTOR('',#1535,1.);
#945=VECTOR('',#1536,1.);
#946=VECTOR('',#1539,1.);
#947=VECTOR('',#1542,1.);
#948=VECTOR('',#1547,1.);
#949=VECTOR('',#1548,1.);
#950=VECTOR('',#1551,1.);
#951=VECTOR('',#1554,1.);
#952=VECTOR('',#1559,1.);
#953=VECTOR('',#1560,1.);
#954=VECTOR('',#1563,1.);
#955=VECTOR('',#1566,1.);
#956=VECTOR('',#1571,1.);
#957=VECTOR('',#1572,1.);
#958=VECTOR('',#1575,1.);
#959=VECTOR('',#1578,1.);
#960=VECTOR('',#1583,1.);
#961=VECTOR('',#1584,1.);
#962=VECTOR('',#1587,1.);
#963=VECTOR('',#1590,1.);
#964=EDGE_LOOP('',(#12,#13,#14,#15,#16,#17,#18,#19,#20,#21,#22,#23,#24,
#25,#26,#27));
#965=EDGE_LOOP('',(#28,#29,#30,#31));
#966=EDGE_LOOP('',(#32,#33,#34,#35));
#967=EDGE_LOOP('',(#36,#37,#38,#39));
#968=EDGE_LOOP('',(#40,#41,#42,#43));
#969=EDGE_LOOP('',(#44,#45,#46,#47));
#970=EDGE_LOOP('',(#48,#49,#50,#51));
#971=EDGE_LOOP('',(#52,#53,#54,#55));
#972=EDGE_LOOP('',(#56,#57,#58,#59));
#973=EDGE_LOOP('',(#60,#61,#62,#63));
#974=EDGE_LOOP('',(#64,#65,#66,#67));
#975=EDGE_LOOP('',(#68,#69,#70,#71));
#976=EDGE_LOOP('',(#72,#73,#74,#75));
#977=EDGE_LOOP('',(#76,#77,#78,#79));
#978=EDGE_LOOP('',(#80,#81,#82,#83));
#979=EDGE_LOOP('',(#84,#85,#86,#87));
#980=EDGE_LOOP('',(#88,#89,#90,#91,#92,#93,#94,#95,#96,#97,#98,#99,#100,
#101,#102,#103));
#981=EDGE_LOOP('',(#104,#105,#106,#107));
#982=EDGE_LOOP('',(#108,#109,#110,#111));
#983=EDGE_LOOP('',(#112,#113,#114,#115));
#984=EDGE_LOOP('',(#116,#117,#118,#119));
#985=EDGE_LOOP('',(#120,#121,#122,#123));
#986=EDGE_LOOP('',(#124,#125,#126,#127));
#987=EDGE_LOOP('',(#128,#129,#130,#131));
#988=EDGE_LOOP('',(#132,#133,#134,#135));
#989=EDGE_LOOP('',(#136,#137,#138,#139));
#990=EDGE_LOOP('',(#140,#141,#142,#143));
#991=EDGE_LOOP('',(#144,#145,#146,#147));
#992=EDGE_LOOP('',(#148,#149,#150,#151));
#993=EDGE_LOOP('',(#152,#153,#154,#155));
#994=EDGE_LOOP('',(#156,#157,#158,#159));
#995=EDGE_LOOP('',(#160,#161,#162,#163));
#996=EDGE_LOOP('',(#164,#165,#166,#167));
#997=EDGE_LOOP('',(#168,#169,#170,#171));
#998=EDGE_LOOP('',(#172,#173,#174,#175));
#999=EDGE_LOOP('',(#176,#177,#178,#179));
#1000=EDGE_LOOP('',(#180,#181,#182,#183));
#1001=EDGE_LOOP('',(#184,#185,#186,#187));
#1002=EDGE_LOOP('',(#188,#189,#190,#191));
#1003=EDGE_LOOP('',(#192,#193,#194,#195));
#1004=EDGE_LOOP('',(#196,#197,#198,#199));
#1005=EDGE_LOOP('',(#200,#201,#202,#203));
#1006=EDGE_LOOP('',(#204,#205,#206,#207));
#1007=EDGE_LOOP('',(#208,#209,#210,#211));
#1008=EDGE_LOOP('',(#212,#213,#214,#215));
#1009=EDGE_LOOP('',(#216,#217,#218,#219));
#1010=EDGE_LOOP('',(#220,#221,#222,#223));
#1011=EDGE_LOOP('',(#224,#225,#226,#227));
#1012=EDGE_LOOP('',(#228,#229,#230,#231));
#1013=EDGE_LOOP('',(#232,#233,#234,#235));
#1014=EDGE_LOOP('',(#236,#237,#238,#239));
#1015=EDGE_LOOP('',(#240,#241,#242,#243));
#1016=EDGE_LOOP('',(#244,#245,#246,#247));
#1017=EDGE_LOOP('',(#248,#249,#250,#251));
#1018=EDGE_LOOP('',(#252,#253,#254,#255));
#1019=EDGE_LOOP('',(#256,#257,#258,#259));
#1020=EDGE_LOOP('',(#260,#261,#262,#263));
#1021=EDGE_LOOP('',(#264,#265,#266,#267));
#1022=EDGE_LOOP('',(#268,#269,#270,#271));
#1023=EDGE_LOOP('',(#272,#273,#274,#275));
#1024=EDGE_LOOP('',(#276,#277,#278,#279));
#1025=EDGE_LOOP('',(#280,#281,#282,#283));
#1026=EDGE_LOOP('',(#284,#285,#286,#287));
#1027=EDGE_LOOP('',(#288,#289,#290,#291));
#1028=EDGE_LOOP('',(#292,#293,#294,#295));
#1029=EDGE_LOOP('',(#296,#297,#298,#299));
#1030=EDGE_LOOP('',(#300,#301,#302,#303));
#1031=EDGE_LOOP('',(#304,#305,#306,#307));
#1032=EDGE_LOOP('',(#308,#309,#310,#311));
#1033=EDGE_LOOP('',(#312,#313,#314,#315));
#1034=EDGE_LOOP('',(#316,#317,#318,#319));
#1035=EDGE_LOOP('',(#320,#321,#322,#323));
#1036=EDGE_LOOP('',(#324,#325,#326,#327));
#1037=EDGE_LOOP('',(#328,#329,#330,#331));
#1038=EDGE_LOOP('',(#332,#333,#334,#335));
#1039=EDGE_LOOP('',(#336,#337,#338,#339));
#1040=EDGE_LOOP('',(#340,#341,#342,#343));
#1041=EDGE_LOOP('',(#344,#345,#346,#347));
#1042=FACE_BOUND('',#964,.T.);
#1043=FACE_BOUND('',#965,.T.);
#1044=FACE_BOUND('',#966,.T.);
#1045=FACE_BOUND('',#967,.T.);
#1046=FACE_BOUND('',#968,.T.);
#1047=FACE_BOUND('',#969,.T.);
#1048=FACE_BOUND('',#970,.T.);
#1049=FACE_BOUND('',#971,.T.);
#1050=FACE_BOUND('',#972,.T.);
#1051=FACE_BOUND('',#973,.T.);
#1052=FACE_BOUND('',#974,.T.);
#1053=FACE_BOUND('',#975,.T.);
#1054=FACE_BOUND('',#976,.T.);
#1055=FACE_BOUND('',#977,.T.);
#1056=FACE_BOUND('',#978,.T.);
#1057=FACE_BOUND('',#979,.T.);
#1058=FACE_BOUND('',#980,.T.);
#1059=FACE_BOUND('',#981,.T.);
#1060=FACE_BOUND('',#982,.T.);
#1061=FACE_BOUND('',#983,.T.);
#1062=FACE_BOUND('',#984,.T.);
#1063=FACE_BOUND('',#985,.T.);
#1064=FACE_BOUND('',#986,.T.);
#1065=FACE_BOUND('',#987,.T.);
#1066=FACE_BOUND('',#988,.T.);
#1067=FACE_BOUND('',#989,.T.);
#1068=FACE_BOUND('',#990,.T.);
#1069=FACE_BOUND('',#991,.T.);
#1070=FACE_BOUND('',#992,.T.);
#1071=FACE_BOUND('',#993,.T.);
#1072=FACE_BOUND('',#994,.T.);
#1073=FACE_BOUND('',#995,.T.);
#1074=FACE_BOUND('',#996,.T.);
#1075=FACE_BOUND('',#997,.T.);
#1076=FACE_BOUND('',#998,.T.);
#1077=FACE_BOUND('',#999,.T.);
#1078=FACE_BOUND('',#1000,.T.);
#1079=FACE_BOUND('',#1001,.T.);
#1080=FACE_BOUND('',#1002,.T.);
#1081=FACE_BOUND('',#1003,.T.);
#1082=FACE_BOUND('',#1004,.T.);
#1083=FACE_BOUND('',#1005,.T.);
#1084=FACE_BOUND('',#1006,.T.);
#1085=FACE_BOUND('',#1007,.T.);
#1086=FACE_BOUND('',#1008,.T.);
#1087=FACE_BOUND('',#1009,.T.);
#1088=FACE_BOUND('',#1010,.T.);
#1089=FACE_BOUND('',#1011,.T.);
#1090=FACE_BOUND('',#1012,.T.);
#1091=FACE_BOUND('',#1013,.T.);
#1092=FACE_BOUND('',#1014,.T.);
#1093=FACE_BOUND('',#1015,.T.);
#1094=FACE_BOUND('',#1016,.T.);
#1095=FACE_BOUND('',#1017,.T.);
#1096=FACE_BOUND('',#1018,.T.);
#1097=FACE_BOUND('',#1019,.T.);
#1098=FACE_BOUND('',#1020,.T.);
#1099=FACE_BOUND('',#1021,.T.);
#1100=FACE_BOUND('',#1022,.T.);
#1101=FACE_BOUND('',#1023,.T.);
#1102=FACE_BOUND('',#1024,.T.);
#1103=FACE_BOUND('',#1025,.T.);
#1104=FACE_BOUND('',#1026,.T.);
#1105=FACE_BOUND('',#1027,.T.);
#1106=FACE_BOUND('',#1028,.T.);
#1107=FACE_BOUND('',#1029,.T.);
#1108=FACE_BOUND('',#1030,.T.);
#1109=FACE_BOUND('',#1031,.T.);
#1110=FACE_BOUND('',#1032,.T.);
#1111=FACE_BOUND('',#1033,.T.);
#1112=FACE_BOUND('',#1034,.T.);
#1113=FACE_BOUND('',#1035,.T.);
#1114=FACE_BOUND('',#1036,.T.);
#1115=FACE_BOUND('',#1037,.T.);
#1116=FACE_BOUND('',#1038,.T.);
#1117=FACE_BOUND('',#1039,.T.);
#1118=FACE_BOUND('',#1040,.T.);
#1119=FACE_BOUND('',#1041,.T.);
#1120=PLANE('',#1249);
#1121=PLANE('',#1250);
#1122=PLANE('',#1251);
#1123=PLANE('',#1252);
#1124=PLANE('',#1253);
#1125=PLANE('',#1254);
#1126=PLANE('',#1255);
#1127=PLANE('',#1256);
#1128=PLANE('',#1257);
#1129=PLANE('',#1258);
#1130=PLANE('',#1259);
#1131=PLANE('',#1260);
#1132=PLANE('',#1261);
#1133=PLANE('',#1262);
#1134=PLANE('',#1263);
#1135=PLANE('',#1264);
#1136=PLANE('',#1265);
#1137=PLANE('',#1266);
#1138=PLANE('',#1267);
#1139=PLANE('',#1268);
#1140=PLANE('',#1269);
#1141=PLANE('',#1270);
#1142=PLANE('',#1271);
#1143=PLANE('',#1272);
#1144=PLANE('',#1273);
#1145=PLANE('',#1274);
#1146=PLANE('',#1275);
#1147=PLANE('',#1276);
#1148=PLANE('',#1277);
#1149=PLANE('',#1278);
#1150=PLANE('',#1279);
#1151=PLANE('',#1280);
#1152=PLANE('',#1281);
#1153=PLANE('',#1282);
#1154=PLANE('',#1283);
#1155=PLANE('',#1284);
#1156=PLANE('',#1285);
#1157=PLANE('',#1286);
#1158=PLANE('',#1287);
#1159=PLANE('',#1288);
#1160=PLANE('',#1289);
#1161=PLANE('',#1290);
#1162=PLANE('',#1291);
#1163=PLANE('',#1292);
#1164=PLANE('',#1293);
#1165=PLANE('',#1294);
#1166=PLANE('',#1295);
#1167=PLANE('',#1296);
#1168=PLANE('',#1297);
#1169=PLANE('',#1298);
#1170=PLANE('',#1299);
#1171=PLANE('',#1300);
#1172=PLANE('',#1301);
#1173=PLANE('',#1302);
#1174=PLANE('',#1303);
#1175=PLANE('',#1304);
#1176=PLANE('',#1305);
#1177=PLANE('',#1306);
#1178=ADVANCED_FACE('',(#1042,#1043,#1044,#1045,#1046,#1047,#1048,#1049,
#1050,#1051,#1052),#1120,.T.);
#1179=ADVANCED_FACE('',(#1053,#1054,#1055,#1056,#1057,#1058,#1059,#1060,
#1061,#1062,#1063),#1121,.F.);
#1180=ADVANCED_FACE('',(#1064),#1122,.T.);
#1181=ADVANCED_FACE('',(#1065),#1123,.T.);
#1182=ADVANCED_FACE('',(#1066),#1124,.T.);
#1183=ADVANCED_FACE('',(#1067),#1125,.T.);
#1184=ADVANCED_FACE('',(#1068),#1126,.T.);
#1185=ADVANCED_FACE('',(#1069),#1127,.F.);
#1186=ADVANCED_FACE('',(#1070),#1128,.F.);
#1187=ADVANCED_FACE('',(#1071),#1129,.T.);
#1188=ADVANCED_FACE('',(#1072),#1130,.T.);
#1189=ADVANCED_FACE('',(#1073),#1131,.F.);
#1190=ADVANCED_FACE('',(#1074),#1132,.T.);
#1191=ADVANCED_FACE('',(#1075),#1133,.F.);
#1192=ADVANCED_FACE('',(#1076),#1134,.T.);
#1193=ADVANCED_FACE('',(#1077),#1135,.T.);
#1194=ADVANCED_FACE('',(#1078),#1136,.T.);
#1195=ADVANCED_FACE('',(#1079),#1137,.T.);
#1196=ADVANCED_FACE('',(#1080),#1138,.T.);
#1197=ADVANCED_FACE('',(#1081),#1139,.T.);
#1198=ADVANCED_FACE('',(#1082),#1140,.F.);
#1199=ADVANCED_FACE('',(#1083),#1141,.T.);
#1200=ADVANCED_FACE('',(#1084),#1142,.T.);
#1201=ADVANCED_FACE('',(#1085),#1143,.T.);
#1202=ADVANCED_FACE('',(#1086),#1144,.F.);
#1203=ADVANCED_FACE('',(#1087),#1145,.T.);
#1204=ADVANCED_FACE('',(#1088),#1146,.T.);
#1205=ADVANCED_FACE('',(#1089),#1147,.T.);
#1206=ADVANCED_FACE('',(#1090),#1148,.F.);
#1207=ADVANCED_FACE('',(#1091),#1149,.T.);
#1208=ADVANCED_FACE('',(#1092),#1150,.T.);
#1209=ADVANCED_FACE('',(#1093),#1151,.T.);
#1210=ADVANCED_FACE('',(#1094),#1152,.F.);
#1211=ADVANCED_FACE('',(#1095),#1153,.T.);
#1212=ADVANCED_FACE('',(#1096),#1154,.T.);
#1213=ADVANCED_FACE('',(#1097),#1155,.T.);
#1214=ADVANCED_FACE('',(#1098),#1156,.F.);
#1215=ADVANCED_FACE('',(#1099),#1157,.T.);
#1216=ADVANCED_FACE('',(#1100),#1158,.T.);
#1217=ADVANCED_FACE('',(#1101),#1159,.T.);
#1218=ADVANCED_FACE('',(#1102),#1160,.F.);
#1219=ADVANCED_FACE('',(#1103),#1161,.T.);
#1220=ADVANCED_FACE('',(#1104),#1162,.T.);
#1221=ADVANCED_FACE('',(#1105),#1163,.T.);
#1222=ADVANCED_FACE('',(#1106),#1164,.F.);
#1223=ADVANCED_FACE('',(#1107),#1165,.T.);
#1224=ADVANCED_FACE('',(#1108),#1166,.T.);
#1225=ADVANCED_FACE('',(#1109),#1167,.T.);
#1226=ADVANCED_FACE('',(#1110),#1168,.F.);
#1227=ADVANCED_FACE('',(#1111),#1169,.T.);
#1228=ADVANCED_FACE('',(#1112),#1170,.T.);
#1229=ADVANCED_FACE('',(#1113),#1171,.T.);
#1230=ADVANCED_FACE('',(#1114),#1172,.F.);
#1231=ADVANCED_FACE('',(#1115),#1173,.T.);
#1232=ADVANCED_FACE('',(#1116),#1174,.T.);
#1233=ADVANCED_FACE('',(#1117),#1175,.T.);
#1234=ADVANCED_FACE('',(#1118),#1176,.F.);
#1235=ADVANCED_FACE('',(#1119),#1177,.T.);
#1236=CLOSED_SHELL('',(#1178,#1179,#1180,#1181,#1182,#1183,#1184,#1185,
#1186,#1187,#1188,#1189,#1190,#1191,#1192,#1193,#1194,#1195,#1196,#1197,
#1198,#1199,#1200,#1201,#1202,#1203,#1204,#1205,#1206,#1207,#1208,#1209,
#1210,#1211,#1212,#1213,#1214,#1215,#1216,#1217,#1218,#1219,#1220,#1221,
#1222,#1223,#1224,#1225,#1226,#1227,#1228,#1229,#1230,#1231,#1232,#1233,
#1234,#1235));
#1237=STYLED_ITEM('',(#1238),#1245);
#1238=PRESENTATION_STYLE_ASSIGNMENT((#1239));
#1239=SURFACE_STYLE_USAGE(.BOTH.,#1240);
#1240=SURFACE_SIDE_STYLE('',(#1241));
#1241=SURFACE_STYLE_FILL_AREA(#1242);
#1242=FILL_AREA_STYLE('',(#1243));
#1243=FILL_AREA_STYLE_COLOUR('',#1244);
#1244=COLOUR_RGB('',0.92156862745098,0.8,0.654901960784314);
#1245=MANIFOLD_SOLID_BREP('Part 4',#1236);
#1246=SHAPE_DEFINITION_REPRESENTATION(#1938,#1247);
#1247=SHAPE_REPRESENTATION('Part 4',(#1248),#1933);
#1248=AXIS2_PLACEMENT_3D('',#1593,#1307,#1308);
#1249=AXIS2_PLACEMENT_3D('',#1594,#1309,#1310);
#1250=AXIS2_PLACEMENT_3D('',#1707,#1367,#1368);
#1251=AXIS2_PLACEMENT_3D('',#1820,#1425,#1426);
#1252=AXIS2_PLACEMENT_3D('',#1823,#1429,#1430);
#1253=AXIS2_PLACEMENT_3D('',#1826,#1433,#1434);
#1254=AXIS2_PLACEMENT_3D('',#1829,#1437,#1438);
#1255=AXIS2_PLACEMENT_3D('',#1832,#1441,#1442);
#1256=AXIS2_PLACEMENT_3D('',#1835,#1445,#1446);
#1257=AXIS2_PLACEMENT_3D('',#1836,#1447,#1448);
#1258=AXIS2_PLACEMENT_3D('',#1838,#1450,#1451);
#1259=AXIS2_PLACEMENT_3D('',#1840,#1453,#1454);
#1260=AXIS2_PLACEMENT_3D('',#1841,#1455,#1456);
#1261=AXIS2_PLACEMENT_3D('',#1843,#1458,#1459);
#1262=AXIS2_PLACEMENT_3D('',#1844,#1460,#1461);
#1263=AXIS2_PLACEMENT_3D('',#1846,#1463,#1464);
#1264=AXIS2_PLACEMENT_3D('',#1848,#1466,#1467);
#1265=AXIS2_PLACEMENT_3D('',#1849,#1468,#1469);
#1266=AXIS2_PLACEMENT_3D('',#1851,#1471,#1472);
#1267=AXIS2_PLACEMENT_3D('',#1852,#1473,#1474);
#1268=AXIS2_PLACEMENT_3D('',#1855,#1477,#1478);
#1269=AXIS2_PLACEMENT_3D('',#1857,#1480,#1481);
#1270=AXIS2_PLACEMENT_3D('',#1859,#1483,#1484);
#1271=AXIS2_PLACEMENT_3D('',#1860,#1485,#1486);
#1272=AXIS2_PLACEMENT_3D('',#1863,#1489,#1490);
#1273=AXIS2_PLACEMENT_3D('',#1865,#1492,#1493);
#1274=AXIS2_PLACEMENT_3D('',#1867,#1495,#1496);
#1275=AXIS2_PLACEMENT_3D('',#1868,#1497,#1498);
#1276=AXIS2_PLACEMENT_3D('',#1871,#1501,#1502);
#1277=AXIS2_PLACEMENT_3D('',#1873,#1504,#1505);
#1278=AXIS2_PLACEMENT_3D('',#1875,#1507,#1508);
#1279=AXIS2_PLACEMENT_3D('',#1876,#1509,#1510);
#1280=AXIS2_PLACEMENT_3D('',#1879,#1513,#1514);
#1281=AXIS2_PLACEMENT_3D('',#1881,#1516,#1517);
#1282=AXIS2_PLACEMENT_3D('',#1883,#1519,#1520);
#1283=AXIS2_PLACEMENT_3D('',#1884,#1521,#1522);
#1284=AXIS2_PLACEMENT_3D('',#1887,#1525,#1526);
#1285=AXIS2_PLACEMENT_3D('',#1889,#1528,#1529);
#1286=AXIS2_PLACEMENT_3D('',#1891,#1531,#1532);
#1287=AXIS2_PLACEMENT_3D('',#1892,#1533,#1534);
#1288=AXIS2_PLACEMENT_3D('',#1895,#1537,#1538);
#1289=AXIS2_PLACEMENT_3D('',#1897,#1540,#1541);
#1290=AXIS2_PLACEMENT_3D('',#1899,#1543,#1544);
#1291=AXIS2_PLACEMENT_3D('',#1900,#1545,#1546);
#1292=AXIS2_PLACEMENT_3D('',#1903,#1549,#1550);
#1293=AXIS2_PLACEMENT_3D('',#1905,#1552,#1553);
#1294=AXIS2_PLACEMENT_3D('',#1907,#1555,#1556);
#1295=AXIS2_PLACEMENT_3D('',#1908,#1557,#1558);
#1296=AXIS2_PLACEMENT_3D('',#1911,#1561,#1562);
#1297=AXIS2_PLACEMENT_3D('',#1913,#1564,#1565);
#1298=AXIS2_PLACEMENT_3D('',#1915,#1567,#1568);
#1299=AXIS2_PLACEMENT_3D('',#1916,#1569,#1570);
#1300=AXIS2_PLACEMENT_3D('',#1919,#1573,#1574);
#1301=AXIS2_PLACEMENT_3D('',#1921,#1576,#1577);
#1302=AXIS2_PLACEMENT_3D('',#1923,#1579,#1580);
#1303=AXIS2_PLACEMENT_3D('',#1924,#1581,#1582);
#1304=AXIS2_PLACEMENT_3D('',#1927,#1585,#1586);
#1305=AXIS2_PLACEMENT_3D('',#1929,#1588,#1589);
#1306=AXIS2_PLACEMENT_3D('',#1931,#1591,#1592);
#1307=DIRECTION('',(0.,0.,1.));
#1308=DIRECTION('',(1.,0.,0.));
#1309=DIRECTION('',(0.,-1.,0.));
#1310=DIRECTION('',(0.,0.,-1.));
#1311=DIRECTION('',(1.,0.,0.));
#1312=DIRECTION('',(0.,0.,-1.));
#1313=DIRECTION('',(1.,0.,0.));
#1314=DIRECTION('',(0.,0.,-1.));
#1315=DIRECTION('',(1.,0.,0.));
#1316=DIRECTION('',(0.,0.,1.));
#1317=DIRECTION('',(1.,0.,0.));
#1318=DIRECTION('',(0.,0.,1.));
#1319=DIRECTION('',(1.,0.,0.));
#1320=DIRECTION('',(0.,0.,-1.));
#1321=DIRECTION('',(1.,0.,0.));
#1322=DIRECTION('',(0.,0.,-1.));
#1323=DIRECTION('',(1.,0.,0.));
#1324=DIRECTION('',(0.,0.,-1.));
#1325=DIRECTION('',(1.,0.,0.));
#1326=DIRECTION('',(0.,0.,-1.));
#1327=DIRECTION('',(-1.,0.,0.));
#1328=DIRECTION('',(0.,0.,1.));
#1329=DIRECTION('',(1.,0.,0.));
#1330=DIRECTION('',(0.,0.,1.));
#1331=DIRECTION('',(-1.,0.,0.));
#1332=DIRECTION('',(0.,0.,1.));
#1333=DIRECTION('',(1.,0.,0.));
#1334=DIRECTION('',(0.,0.,1.));
#1335=DIRECTION('',(-1.,0.,0.));
#1336=DIRECTION('',(0.,0.,1.));
#1337=DIRECTION('',(1.,0.,0.));
#1338=DIRECTION('',(0.,0.,1.));
#1339=DIRECTION('',(-1.,0.,0.));
#1340=DIRECTION('',(0.,0.,1.));
#1341=DIRECTION('',(1.,0.,0.));
#1342=DIRECTION('',(0.,0.,1.));
#1343=DIRECTION('',(-1.,0.,0.));
#1344=DIRECTION('',(0.,0.,1.));
#1345=DIRECTION('',(1.,0.,0.));
#1346=DIRECTION('',(0.,0.,1.));
#1347=DIRECTION('',(-1.,0.,0.));
#1348=DIRECTION('',(0.,0.,1.));
#1349=DIRECTION('',(1.,0.,0.));
#1350=DIRECTION('',(0.,0.,1.));
#1351=DIRECTION('',(-1.,0.,0.));
#1352=DIRECTION('',(0.,0.,1.));
#1353=DIRECTION('',(1.,0.,0.));
#1354=DIRECTION('',(0.,0.,1.));
#1355=DIRECTION('',(-1.,0.,0.));
#1356=DIRECTION('',(0.,0.,1.));
#1357=DIRECTION('',(1.,0.,0.));
#1358=DIRECTION('',(0.,0.,1.));
#1359=DIRECTION('',(-1.,0.,0.));
#1360=DIRECTION('',(0.,0.,1.));
#1361=DIRECTION('',(1.,0.,0.));
#1362=DIRECTION('',(0.,0.,1.));
#1363=DIRECTION('',(-1.,0.,0.));
#1364=DIRECTION('',(0.,0.,1.));
#1365=DIRECTION('',(1.,0.,0.));
#1366=DIRECTION('',(0.,0.,1.));
#1367=DIRECTION('',(0.,-1.,0.));
#1368=DIRECTION('',(0.,0.,-1.));
#1369=DIRECTION('',(0.,0.,1.));
#1370=DIRECTION('',(-1.,0.,0.));
#1371=DIRECTION('',(0.,0.,1.));
#1372=DIRECTION('',(1.,0.,0.));
#1373=DIRECTION('',(0.,0.,1.));
#1374=DIRECTION('',(-1.,0.,0.));
#1375=DIRECTION('',(0.,0.,1.));
#1376=DIRECTION('',(1.,0.,0.));
#1377=DIRECTION('',(0.,0.,1.));
#1378=DIRECTION('',(-1.,0.,0.));
#1379=DIRECTION('',(0.,0.,1.));
#1380=DIRECTION('',(1.,0.,0.));
#1381=DIRECTION('',(0.,0.,1.));
#1382=DIRECTION('',(-1.,0.,0.));
#1383=DIRECTION('',(0.,0.,1.));
#1384=DIRECTION('',(1.,0.,0.));
#1385=DIRECTION('',(0.,0.,1.));
#1386=DIRECTION('',(-1.,0.,0.));
#1387=DIRECTION('',(0.,0.,1.));
#1388=DIRECTION('',(1.,0.,0.));
#1389=DIRECTION('',(0.,0.,-1.));
#1390=DIRECTION('',(1.,0.,0.));
#1391=DIRECTION('',(0.,0.,1.));
#1392=DIRECTION('',(1.,0.,0.));
#1393=DIRECTION('',(0.,0.,1.));
#1394=DIRECTION('',(1.,0.,0.));
#1395=DIRECTION('',(0.,0.,-1.));
#1396=DIRECTION('',(1.,0.,0.));
#1397=DIRECTION('',(0.,0.,-1.));
#1398=DIRECTION('',(1.,0.,0.));
#1399=DIRECTION('',(0.,0.,-1.));
#1400=DIRECTION('',(1.,0.,0.));
#1401=DIRECTION('',(0.,0.,-1.));
#1402=DIRECTION('',(1.,0.,0.));
#1403=DIRECTION('',(0.,0.,-1.));
#1404=DIRECTION('',(1.,0.,0.));
#1405=DIRECTION('',(0.,0.,1.));
#1406=DIRECTION('',(-1.,0.,0.));
#1407=DIRECTION('',(0.,0.,1.));
#1408=DIRECTION('',(1.,0.,0.));
#1409=DIRECTION('',(0.,0.,1.));
#1410=DIRECTION('',(-1.,0.,0.));
#1411=DIRECTION('',(0.,0.,1.));
#1412=DIRECTION('',(1.,0.,0.));
#1413=DIRECTION('',(0.,0.,1.));
#1414=DIRECTION('',(-1.,0.,0.));
#1415=DIRECTION('',(0.,0.,1.));
#1416=DIRECTION('',(1.,0.,0.));
#1417=DIRECTION('',(0.,0.,1.));
#1418=DIRECTION('',(-1.,0.,0.));
#1419=DIRECTION('',(0.,0.,1.));
#1420=DIRECTION('',(1.,0.,0.));
#1421=DIRECTION('',(0.,0.,1.));
#1422=DIRECTION('',(-1.,0.,0.));
#1423=DIRECTION('',(0.,0.,1.));
#1424=DIRECTION('',(1.,0.,0.));
#1425=DIRECTION('',(0.,0.,-1.));
#1426=DIRECTION('',(1.,0.,0.));
#1427=DIRECTION('',(0.,1.,0.));
#1428=DIRECTION('',(0.,1.,0.));
#1429=DIRECTION('',(0.,0.,-1.));
#1430=DIRECTION('',(1.,0.,0.));
#1431=DIRECTION('',(0.,1.,0.));
#1432=DIRECTION('',(0.,1.,0.));
#1433=DIRECTION('',(0.,0.,-1.));
#1434=DIRECTION('',(1.,0.,0.));
#1435=DIRECTION('',(0.,1.,0.));
#1436=DIRECTION('',(0.,1.,0.));
#1437=DIRECTION('',(1.,0.,0.));
#1438=DIRECTION('',(0.,0.,-1.));
#1439=DIRECTION('',(0.,1.,0.));
#1440=DIRECTION('',(0.,1.,0.));
#1441=DIRECTION('',(-1.,0.,0.));
#1442=DIRECTION('',(0.,0.,1.));
#1443=DIRECTION('',(0.,-1.,0.));
#1444=DIRECTION('',(0.,-1.,0.));
#1445=DIRECTION('',(0.,0.,-1.));
#1446=DIRECTION('',(1.,0.,0.));
#1447=DIRECTION('',(-1.,0.,0.));
#1448=DIRECTION('',(0.,0.,1.));
#1449=DIRECTION('',(0.,1.,0.));
#1450=DIRECTION('',(-1.,0.,0.));
#1451=DIRECTION('',(0.,0.,1.));
#1452=DIRECTION('',(0.,1.,0.));
#1453=DIRECTION('',(0.,0.,-1.));
#1454=DIRECTION('',(1.,0.,0.));
#1455=DIRECTION('',(-1.,0.,0.));
#1456=DIRECTION('',(0.,0.,1.));
#1457=DIRECTION('',(0.,1.,0.));
#1458=DIRECTION('',(0.,0.,-1.));
#1459=DIRECTION('',(1.,0.,0.));
#1460=DIRECTION('',(-1.,0.,0.));
#1461=DIRECTION('',(0.,0.,1.));
#1462=DIRECTION('',(0.,1.,0.));
#1463=DIRECTION('',(-1.,0.,0.));
#1464=DIRECTION('',(0.,0.,1.));
#1465=DIRECTION('',(0.,1.,0.));
#1466=DIRECTION('',(0.,0.,-1.));
#1467=DIRECTION('',(1.,0.,0.));
#1468=DIRECTION('',(-1.,0.,0.));
#1469=DIRECTION('',(0.,0.,1.));
#1470=DIRECTION('',(0.,1.,0.));
#1471=DIRECTION('',(0.,0.,-1.));
#1472=DIRECTION('',(1.,0.,0.));
#1473=DIRECTION('',(1.,0.,0.));
#1474=DIRECTION('',(0.,0.,-1.));
#1475=DIRECTION('',(0.,1.,0.));
#1476=DIRECTION('',(0.,1.,0.));
#1477=DIRECTION('',(0.,0.,-1.));
#1478=DIRECTION('',(-1.,0.,0.));
#1479=DIRECTION('',(0.,1.,0.));
#1480=DIRECTION('',(1.,0.,0.));
#1481=DIRECTION('',(0.,0.,-1.));
#1482=DIRECTION('',(0.,1.,0.));
#1483=DIRECTION('',(0.,0.,1.));
#1484=DIRECTION('',(1.,0.,0.));
#1485=DIRECTION('',(1.,0.,0.));
#1486=DIRECTION('',(0.,0.,-1.));
#1487=DIRECTION('',(0.,1.,0.));
#1488=DIRECTION('',(0.,1.,0.));
#1489=DIRECTION('',(0.,0.,-1.));
#1490=DIRECTION('',(-1.,0.,0.));
#1491=DIRECTION('',(0.,1.,0.));
#1492=DIRECTION('',(1.,0.,0.));
#1493=DIRECTION('',(0.,0.,-1.));
#1494=DIRECTION('',(0.,1.,0.));
#1495=DIRECTION('',(0.,0.,1.));
#1496=DIRECTION('',(1.,0.,0.));
#1497=DIRECTION('',(1.,0.,0.));
#1498=DIRECTION('',(0.,0.,-1.));
#1499=DIRECTION('',(0.,1.,0.));
#1500=DIRECTION('',(0.,1.,0.));
#1501=DIRECTION('',(0.,0.,-1.));
#1502=DIRECTION('',(-1.,0.,0.));
#1503=DIRECTION('',(0.,1.,0.));
#1504=DIRECTION('',(1.,0.,0.));
#1505=DIRECTION('',(0.,0.,-1.));
#1506=DIRECTION('',(0.,1.,0.));
#1507=DIRECTION('',(0.,0.,1.));
#1508=DIRECTION('',(1.,0.,0.));
#1509=DIRECTION('',(1.,0.,0.));
#1510=DIRECTION('',(0.,0.,-1.));
#1511=DIRECTION('',(0.,1.,0.));
#1512=DIRECTION('',(0.,1.,0.));
#1513=DIRECTION('',(0.,0.,-1.));
#1514=DIRECTION('',(-1.,0.,0.));
#1515=DIRECTION('',(0.,1.,0.));
#1516=DIRECTION('',(1.,0.,0.));
#1517=DIRECTION('',(0.,0.,-1.));
#1518=DIRECTION('',(0.,1.,0.));
#1519=DIRECTION('',(0.,0.,1.));
#1520=DIRECTION('',(1.,0.,0.));
#1521=DIRECTION('',(1.,0.,0.));
#1522=DIRECTION('',(0.,0.,-1.));
#1523=DIRECTION('',(0.,1.,0.));
#1524=DIRECTION('',(0.,1.,0.));
#1525=DIRECTION('',(0.,0.,-1.));
#1526=DIRECTION('',(-1.,0.,0.));
#1527=DIRECTION('',(0.,1.,0.));
#1528=DIRECTION('',(1.,0.,0.));
#1529=DIRECTION('',(0.,0.,-1.));
#1530=DIRECTION('',(0.,1.,0.));
#1531=DIRECTION('',(0.,0.,1.));
#1532=DIRECTION('',(1.,0.,0.));
#1533=DIRECTION('',(1.,0.,0.));
#1534=DIRECTION('',(0.,0.,-1.));
#1535=DIRECTION('',(0.,1.,0.));
#1536=DIRECTION('',(0.,1.,0.));
#1537=DIRECTION('',(0.,0.,-1.));
#1538=DIRECTION('',(-1.,0.,0.));
#1539=DIRECTION('',(0.,1.,0.));
#1540=DIRECTION('',(1.,0.,0.));
#1541=DIRECTION('',(0.,0.,-1.));
#1542=DIRECTION('',(0.,1.,0.));
#1543=DIRECTION('',(0.,0.,1.));
#1544=DIRECTION('',(1.,0.,0.));
#1545=DIRECTION('',(1.,0.,0.));
#1546=DIRECTION('',(0.,0.,-1.));
#1547=DIRECTION('',(0.,1.,0.));
#1548=DIRECTION('',(0.,1.,0.));
#1549=DIRECTION('',(0.,0.,-1.));
#1550=DIRECTION('',(-1.,0.,0.));
#1551=DIRECTION('',(0.,1.,0.));
#1552=DIRECTION('',(1.,0.,0.));
#1553=DIRECTION('',(0.,0.,-1.));
#1554=DIRECTION('',(0.,1.,0.));
#1555=DIRECTION('',(0.,0.,1.));
#1556=DIRECTION('',(1.,0.,0.));
#1557=DIRECTION('',(1.,0.,0.));
#1558=DIRECTION('',(0.,0.,-1.));
#1559=DIRECTION('',(0.,1.,0.));
#1560=DIRECTION('',(0.,1.,0.));
#1561=DIRECTION('',(0.,0.,-1.));
#1562=DIRECTION('',(-1.,0.,0.));
#1563=DIRECTION('',(0.,1.,0.));
#1564=DIRECTION('',(1.,0.,0.));
#1565=DIRECTION('',(0.,0.,-1.));
#1566=DIRECTION('',(0.,1.,0.));
#1567=DIRECTION('',(0.,0.,1.));
#1568=DIRECTION('',(1.,0.,0.));
#1569=DIRECTION('',(1.,0.,0.));
#1570=DIRECTION('',(0.,0.,-1.));
#1571=DIRECTION('',(0.,1.,0.));
#1572=DIRECTION('',(0.,1.,0.));
#1573=DIRECTION('',(0.,0.,-1.));
#1574=DIRECTION('',(-1.,0.,0.));
#1575=DIRECTION('',(0.,1.,0.));
#1576=DIRECTION('',(1.,0.,0.));
#1577=DIRECTION('',(0.,0.,-1.));
#1578=DIRECTION('',(0.,1.,0.));
#1579=DIRECTION('',(0.,0.,1.));
#1580=DIRECTION('',(1.,0.,0.));
#1581=DIRECTION('',(1.,0.,0.));
#1582=DIRECTION('',(0.,0.,-1.));
#1583=DIRECTION('',(0.,1.,0.));
#1584=DIRECTION('',(0.,1.,0.));
#1585=DIRECTION('',(0.,0.,-1.));
#1586=DIRECTION('',(-1.,0.,0.));
#1587=DIRECTION('',(0.,1.,0.));
#1588=DIRECTION('',(1.,0.,0.));
#1589=DIRECTION('',(0.,0.,-1.));
#1590=DIRECTION('',(0.,1.,0.));
#1591=DIRECTION('',(0.,0.,1.));
#1592=DIRECTION('',(1.,0.,0.));
#1593=CARTESIAN_POINT('',(0.,0.,0.));
#1594=CARTESIAN_POINT('',(3.46944695195361E-17,0.062,-0.05));
#1595=CARTESIAN_POINT('',(0.021,0.062,-0.067));
#1596=CARTESIAN_POINT('',(0.01,0.062,-0.067));
#1597=CARTESIAN_POINT('',(0.032,0.062,-0.067));
#1598=CARTESIAN_POINT('',(0.032,0.062,-0.067));
#1599=CARTESIAN_POINT('',(0.032,0.062,-0.07));
#1600=CARTESIAN_POINT('',(3.46944695195361E-17,0.062,-0.07));
#1601=CARTESIAN_POINT('',(0.052,0.062,-0.07));
#1602=CARTESIAN_POINT('',(0.052,0.062,-0.067));
#1603=CARTESIAN_POINT('',(0.052,0.062,-0.067));
#1604=CARTESIAN_POINT('',(0.057,0.062,-0.067));
#1605=CARTESIAN_POINT('',(0.062,0.062,-0.067));
#1606=CARTESIAN_POINT('',(0.062,0.062,-0.05));
#1607=CARTESIAN_POINT('',(0.062,0.062,0.));
#1608=CARTESIAN_POINT('',(3.46944695195361E-17,0.062,0.));
#1609=CARTESIAN_POINT('',(-0.062,0.062,0.));
#1610=CARTESIAN_POINT('',(-0.062,0.062,-0.05));
#1611=CARTESIAN_POINT('',(-0.062,0.062,-0.067));
#1612=CARTESIAN_POINT('',(-0.057,0.062,-0.067));
#1613=CARTESIAN_POINT('',(-0.052,0.062,-0.067));
#1614=CARTESIAN_POINT('',(-0.052,0.062,-0.067));
#1615=CARTESIAN_POINT('',(-0.052,0.062,-0.07));
#1616=CARTESIAN_POINT('',(3.46944695195361E-17,0.062,-0.07));
#1617=CARTESIAN_POINT('',(-0.032,0.062,-0.07));
#1618=CARTESIAN_POINT('',(-0.032,0.062,-0.067));
#1619=CARTESIAN_POINT('',(-0.032,0.062,-0.067));
#1620=CARTESIAN_POINT('',(-0.021,0.062,-0.067));
#1621=CARTESIAN_POINT('',(-0.01,0.062,-0.067));
#1622=CARTESIAN_POINT('',(-0.01,0.062,-0.067));
#1623=CARTESIAN_POINT('',(-0.01,0.062,-0.07));
#1624=CARTESIAN_POINT('',(3.46944695195361E-17,0.062,-0.07));
#1625=CARTESIAN_POINT('',(0.01,0.062,-0.07));
#1626=CARTESIAN_POINT('',(0.01,0.062,-0.067));
#1627=CARTESIAN_POINT('',(3.46944695195361E-17,0.062,-0.060008));
#1628=CARTESIAN_POINT('',(0.058,0.062,-0.060008));
#1629=CARTESIAN_POINT('',(-0.058,0.062,-0.060008));
#1630=CARTESIAN_POINT('',(-0.058,0.062,-0.05));
#1631=CARTESIAN_POINT('',(-0.058,0.062,-0.057508));
#1632=CARTESIAN_POINT('',(3.46944695195361E-17,0.062,-0.057508));
#1633=CARTESIAN_POINT('',(0.058,0.062,-0.057508));
#1634=CARTESIAN_POINT('',(0.058,0.062,-0.05));
#1635=CARTESIAN_POINT('',(3.46944695195361E-17,0.062,-0.054396));
#1636=CARTESIAN_POINT('',(0.058,0.062,-0.054396));
#1637=CARTESIAN_POINT('',(-0.058,0.062,-0.054396));
#1638=CARTESIAN_POINT('',(-0.058,0.062,-0.05));
#1639=CARTESIAN_POINT('',(-0.058,0.062,-0.051896));
#1640=CARTESIAN_POINT('',(3.46944695195361E-17,0.062,-0.051896));
#1641=CARTESIAN_POINT('',(0.058,0.062,-0.051896));
#1642=CARTESIAN_POINT('',(0.058,0.062,-0.05));
#1643=CARTESIAN_POINT('',(3.46944695195361E-17,0.062,-0.048784));
#1644=CARTESIAN_POINT('',(0.058,0.062,-0.048784));
#1645=CARTESIAN_POINT('',(-0.058,0.062,-0.048784));
#1646=CARTESIAN_POINT('',(-0.058,0.062,-0.05));
#1647=CARTESIAN_POINT('',(-0.058,0.062,-0.046284));
#1648=CARTESIAN_POINT('',(3.46944695195361E-17,0.062,-0.046284));
#1649=CARTESIAN_POINT('',(0.058,0.062,-0.046284));
#1650=CARTESIAN_POINT('',(0.058,0.062,-0.05));
#1651=CARTESIAN_POINT('',(3.46944695195361E-17,0.062,-0.043172));
#1652=CARTESIAN_POINT('',(0.058,0.062,-0.043172));
#1653=CARTESIAN_POINT('',(-0.058,0.062,-0.043172));
#1654=CARTESIAN_POINT('',(-0.058,0.062,-0.05));
#1655=CARTESIAN_POINT('',(-0.058,0.062,-0.040672));
#1656=CARTESIAN_POINT('',(3.46944695195361E-17,0.062,-0.040672));
#1657=CARTESIAN_POINT('',(0.058,0.062,-0.040672));
#1658=CARTESIAN_POINT('',(0.058,0.062,-0.05));
#1659=CARTESIAN_POINT('',(3.46944695195361E-17,0.062,-0.03756));
#1660=CARTESIAN_POINT('',(0.058,0.062,-0.03756));
#1661=CARTESIAN_POINT('',(-0.058,0.062,-0.03756));
#1662=CARTESIAN_POINT('',(-0.058,0.062,-0.05));
#1663=CARTESIAN_POINT('',(-0.058,0.062,-0.03506));
#1664=CARTESIAN_POINT('',(3.46944695195361E-17,0.062,-0.03506));
#1665=CARTESIAN_POINT('',(0.058,0.062,-0.03506));
#1666=CARTESIAN_POINT('',(0.058,0.062,-0.05));
#1667=CARTESIAN_POINT('',(3.46944695195361E-17,0.062,-0.031948));
#1668=CARTESIAN_POINT('',(0.058,0.062,-0.031948));
#1669=CARTESIAN_POINT('',(-0.058,0.062,-0.031948));
#1670=CARTESIAN_POINT('',(-0.058,0.062,-0.05));
#1671=CARTESIAN_POINT('',(-0.058,0.062,-0.029448));
#1672=CARTESIAN_POINT('',(3.46944695195361E-17,0.062,-0.029448));
#1673=CARTESIAN_POINT('',(0.058,0.062,-0.029448));
#1674=CARTESIAN_POINT('',(0.058,0.062,-0.05));
#1675=CARTESIAN_POINT('',(3.46944695195361E-17,0.062,-0.026336));
#1676=CARTESIAN_POINT('',(0.058,0.062,-0.026336));
#1677=CARTESIAN_POINT('',(-0.058,0.062,-0.026336));
#1678=CARTESIAN_POINT('',(-0.058,0.062,-0.05));
#1679=CARTESIAN_POINT('',(-0.058,0.062,-0.023836));
#1680=CARTESIAN_POINT('',(3.46944695195361E-17,0.062,-0.023836));
#1681=CARTESIAN_POINT('',(0.058,0.062,-0.023836));
#1682=CARTESIAN_POINT('',(0.058,0.062,-0.05));
#1683=CARTESIAN_POINT('',(3.46944695195361E-17,0.062,-0.020724));
#1684=CARTESIAN_POINT('',(0.058,0.062,-0.020724));
#1685=CARTESIAN_POINT('',(-0.058,0.062,-0.020724));
#1686=CARTESIAN_POINT('',(-0.058,0.062,-0.05));
#1687=CARTESIAN_POINT('',(-0.058,0.062,-0.018224));
#1688=CARTESIAN_POINT('',(3.46944695195361E-17,0.062,-0.018224));
#1689=CARTESIAN_POINT('',(0.058,0.062,-0.018224));
#1690=CARTESIAN_POINT('',(0.058,0.062,-0.05));
#1691=CARTESIAN_POINT('',(3.46944695195361E-17,0.062,-0.015112));
#1692=CARTESIAN_POINT('',(0.058,0.062,-0.015112));
#1693=CARTESIAN_POINT('',(-0.058,0.062,-0.015112));
#1694=CARTESIAN_POINT('',(-0.058,0.062,-0.05));
#1695=CARTESIAN_POINT('',(-0.058,0.062,-0.012612));
#1696=CARTESIAN_POINT('',(3.46944695195361E-17,0.062,-0.012612));
#1697=CARTESIAN_POINT('',(0.058,0.062,-0.012612));
#1698=CARTESIAN_POINT('',(0.058,0.062,-0.05));
#1699=CARTESIAN_POINT('',(3.46944695195361E-17,0.062,-0.0095));
#1700=CARTESIAN_POINT('',(0.058,0.062,-0.0095));
#1701=CARTESIAN_POINT('',(-0.058,0.062,-0.0095));
#1702=CARTESIAN_POINT('',(-0.058,0.062,-0.05));
#1703=CARTESIAN_POINT('',(-0.058,0.062,-0.007));
#1704=CARTESIAN_POINT('',(3.46944695195361E-17,0.062,-0.007));
#1705=CARTESIAN_POINT('',(0.058,0.062,-0.007));
#1706=CARTESIAN_POINT('',(0.058,0.062,-0.05));
#1707=CARTESIAN_POINT('',(1.38777878078145E-17,0.065,-0.05));
#1708=CARTESIAN_POINT('',(-0.058,0.065,-0.05));
#1709=CARTESIAN_POINT('',(-0.058,0.065,-0.015112));
#1710=CARTESIAN_POINT('',(-0.058,0.065,-0.012612));
#1711=CARTESIAN_POINT('',(1.38777878078145E-17,0.065,-0.015112));
#1712=CARTESIAN_POINT('',(0.058,0.065,-0.015112));
#1713=CARTESIAN_POINT('',(0.058,0.065,-0.05));
#1714=CARTESIAN_POINT('',(0.058,0.065,-0.012612));
#1715=CARTESIAN_POINT('',(1.38777878078145E-17,0.065,-0.012612));
#1716=CARTESIAN_POINT('',(-0.058,0.065,-0.05));
#1717=CARTESIAN_POINT('',(-0.058,0.065,-0.026336));
#1718=CARTESIAN_POINT('',(-0.058,0.065,-0.023836));
#1719=CARTESIAN_POINT('',(1.38777878078145E-17,0.065,-0.026336));
#1720=CARTESIAN_POINT('',(0.058,0.065,-0.026336));
#1721=CARTESIAN_POINT('',(0.058,0.065,-0.05));
#1722=CARTESIAN_POINT('',(0.058,0.065,-0.023836));
#1723=CARTESIAN_POINT('',(1.38777878078145E-17,0.065,-0.023836));
#1724=CARTESIAN_POINT('',(-0.058,0.065,-0.05));
#1725=CARTESIAN_POINT('',(-0.058,0.065,-0.03756));
#1726=CARTESIAN_POINT('',(-0.058,0.065,-0.03506));
#1727=CARTESIAN_POINT('',(1.38777878078145E-17,0.065,-0.03756));
#1728=CARTESIAN_POINT('',(0.058,0.065,-0.03756));
#1729=CARTESIAN_POINT('',(0.058,0.065,-0.05));
#1730=CARTESIAN_POINT('',(0.058,0.065,-0.03506));
#1731=CARTESIAN_POINT('',(1.38777878078145E-17,0.065,-0.03506));
#1732=CARTESIAN_POINT('',(-0.058,0.065,-0.05));
#1733=CARTESIAN_POINT('',(-0.058,0.065,-0.048784));
#1734=CARTESIAN_POINT('',(-0.058,0.065,-0.046284));
#1735=CARTESIAN_POINT('',(1.38777878078145E-17,0.065,-0.048784));
#1736=CARTESIAN_POINT('',(0.058,0.065,-0.048784));
#1737=CARTESIAN_POINT('',(0.058,0.065,-0.05));
#1738=CARTESIAN_POINT('',(0.058,0.065,-0.046284));
#1739=CARTESIAN_POINT('',(1.38777878078145E-17,0.065,-0.046284));
#1740=CARTESIAN_POINT('',(-0.058,0.065,-0.05));
#1741=CARTESIAN_POINT('',(-0.058,0.065,-0.060008));
#1742=CARTESIAN_POINT('',(-0.058,0.065,-0.057508));
#1743=CARTESIAN_POINT('',(1.38777878078145E-17,0.065,-0.060008));
#1744=CARTESIAN_POINT('',(0.058,0.065,-0.060008));
#1745=CARTESIAN_POINT('',(0.058,0.065,-0.05));
#1746=CARTESIAN_POINT('',(0.058,0.065,-0.057508));
#1747=CARTESIAN_POINT('',(1.38777878078145E-17,0.065,-0.057508));
#1748=CARTESIAN_POINT('',(-0.052,0.065,-0.05));
#1749=CARTESIAN_POINT('',(-0.052,0.065,-0.067));
#1750=CARTESIAN_POINT('',(-0.052,0.065,-0.07));
#1751=CARTESIAN_POINT('',(1.38777878078145E-17,0.065,-0.067));
#1752=CARTESIAN_POINT('',(-0.062,0.065,-0.067));
#1753=CARTESIAN_POINT('',(-0.062,0.065,-0.05));
#1754=CARTESIAN_POINT('',(-0.062,0.065,0.));
#1755=CARTESIAN_POINT('',(1.38777878078145E-17,0.065,0.));
#1756=CARTESIAN_POINT('',(0.062,0.065,0.));
#1757=CARTESIAN_POINT('',(0.062,0.065,-0.05));
#1758=CARTESIAN_POINT('',(0.062,0.065,-0.067));
#1759=CARTESIAN_POINT('',(1.38777878078145E-17,0.065,-0.067));
#1760=CARTESIAN_POINT('',(0.052,0.065,-0.067));
#1761=CARTESIAN_POINT('',(0.052,0.065,-0.05));
#1762=CARTESIAN_POINT('',(0.052,0.065,-0.07));
#1763=CARTESIAN_POINT('',(1.38777878078145E-17,0.065,-0.07));
#1764=CARTESIAN_POINT('',(0.032,0.065,-0.07));
#1765=CARTESIAN_POINT('',(0.032,0.065,-0.05));
#1766=CARTESIAN_POINT('',(0.032,0.065,-0.067));
#1767=CARTESIAN_POINT('',(1.38777878078145E-17,0.065,-0.067));
#1768=CARTESIAN_POINT('',(0.01,0.065,-0.067));
#1769=CARTESIAN_POINT('',(0.01,0.065,-0.05));
#1770=CARTESIAN_POINT('',(0.01,0.065,-0.07));
#1771=CARTESIAN_POINT('',(1.38777878078145E-17,0.065,-0.07));
#1772=CARTESIAN_POINT('',(-0.01,0.065,-0.07));
#1773=CARTESIAN_POINT('',(-0.01,0.065,-0.05));
#1774=CARTESIAN_POINT('',(-0.01,0.065,-0.067));
#1775=CARTESIAN_POINT('',(1.38777878078145E-17,0.065,-0.067));
#1776=CARTESIAN_POINT('',(-0.032,0.065,-0.067));
#1777=CARTESIAN_POINT('',(-0.032,0.065,-0.05));
#1778=CARTESIAN_POINT('',(-0.032,0.065,-0.07));
#1779=CARTESIAN_POINT('',(1.38777878078145E-17,0.065,-0.07));
#1780=CARTESIAN_POINT('',(-0.058,0.065,-0.05));
#1781=CARTESIAN_POINT('',(-0.058,0.065,-0.054396));
#1782=CARTESIAN_POINT('',(-0.058,0.065,-0.051896));
#1783=CARTESIAN_POINT('',(1.38777878078145E-17,0.065,-0.054396));
#1784=CARTESIAN_POINT('',(0.058,0.065,-0.054396));
#1785=CARTESIAN_POINT('',(0.058,0.065,-0.05));
#1786=CARTESIAN_POINT('',(0.058,0.065,-0.051896));
#1787=CARTESIAN_POINT('',(1.38777878078145E-17,0.065,-0.051896));
#1788=CARTESIAN_POINT('',(-0.058,0.065,-0.05));
#1789=CARTESIAN_POINT('',(-0.058,0.065,-0.043172));
#1790=CARTESIAN_POINT('',(-0.058,0.065,-0.040672));
#1791=CARTESIAN_POINT('',(1.38777878078145E-17,0.065,-0.043172));
#1792=CARTESIAN_POINT('',(0.058,0.065,-0.043172));
#1793=CARTESIAN_POINT('',(0.058,0.065,-0.05));
#1794=CARTESIAN_POINT('',(0.058,0.065,-0.040672));
#1795=CARTESIAN_POINT('',(1.38777878078145E-17,0.065,-0.040672));
#1796=CARTESIAN_POINT('',(-0.058,0.065,-0.05));
#1797=CARTESIAN_POINT('',(-0.058,0.065,-0.031948));
#1798=CARTESIAN_POINT('',(-0.058,0.065,-0.029448));
#1799=CARTESIAN_POINT('',(1.38777878078145E-17,0.065,-0.031948));
#1800=CARTESIAN_POINT('',(0.058,0.065,-0.031948));
#1801=CARTESIAN_POINT('',(0.058,0.065,-0.05));
#1802=CARTESIAN_POINT('',(0.058,0.065,-0.029448));
#1803=CARTESIAN_POINT('',(1.38777878078145E-17,0.065,-0.029448));
#1804=CARTESIAN_POINT('',(-0.058,0.065,-0.05));
#1805=CARTESIAN_POINT('',(-0.058,0.065,-0.020724));
#1806=CARTESIAN_POINT('',(-0.058,0.065,-0.018224));
#1807=CARTESIAN_POINT('',(1.38777878078145E-17,0.065,-0.020724));
#1808=CARTESIAN_POINT('',(0.058,0.065,-0.020724));
#1809=CARTESIAN_POINT('',(0.058,0.065,-0.05));
#1810=CARTESIAN_POINT('',(0.058,0.065,-0.018224));
#1811=CARTESIAN_POINT('',(1.38777878078145E-17,0.065,-0.018224));
#1812=CARTESIAN_POINT('',(-0.058,0.065,-0.05));
#1813=CARTESIAN_POINT('',(-0.058,0.065,-0.0095));
#1814=CARTESIAN_POINT('',(-0.058,0.065,-0.007));
#1815=CARTESIAN_POINT('',(1.38777878078145E-17,0.065,-0.0095));
#1816=CARTESIAN_POINT('',(0.058,0.065,-0.0095));
#1817=CARTESIAN_POINT('',(0.058,0.065,-0.05));
#1818=CARTESIAN_POINT('',(0.058,0.065,-0.007));
#1819=CARTESIAN_POINT('',(1.38777878078145E-17,0.065,-0.007));
#1820=CARTESIAN_POINT('',(0.,-0.025,-0.07));
#1821=CARTESIAN_POINT('',(-0.052,0.065,-0.07));
#1822=CARTESIAN_POINT('',(-0.032,0.065,-0.07));
#1823=CARTESIAN_POINT('',(0.,-0.025,-0.07));
#1824=CARTESIAN_POINT('',(0.032,0.065,-0.07));
#1825=CARTESIAN_POINT('',(0.052,0.065,-0.07));
#1826=CARTESIAN_POINT('',(0.,-0.025,-0.07));
#1827=CARTESIAN_POINT('',(0.01,0.065,-0.07));
#1828=CARTESIAN_POINT('',(-0.01,0.065,-0.07));
#1829=CARTESIAN_POINT('',(0.062,0.0638860830169454,-0.05));
#1830=CARTESIAN_POINT('',(0.062,0.0638860830169454,-0.067));
#1831=CARTESIAN_POINT('',(0.062,0.0638860830169454,0.));
#1832=CARTESIAN_POINT('',(-0.062,0.0635,-0.05));
#1833=CARTESIAN_POINT('',(-0.062,0.0635,-0.067));
#1834=CARTESIAN_POINT('',(-0.062,0.0635,0.));
#1835=CARTESIAN_POINT('',(0.,-0.025,0.));
#1836=CARTESIAN_POINT('',(-0.032,0.065,-0.067));
#1837=CARTESIAN_POINT('',(-0.032,0.065,-0.067));
#1838=CARTESIAN_POINT('',(-0.01,0.065,-0.067));
#1839=CARTESIAN_POINT('',(-0.01,0.065,-0.067));
#1840=CARTESIAN_POINT('',(0.,-0.025,-0.067));
#1841=CARTESIAN_POINT('',(0.052,0.065,-0.067));
#1842=CARTESIAN_POINT('',(0.052,0.065,-0.067));
#1843=CARTESIAN_POINT('',(0.,-0.025,-0.067));
#1844=CARTESIAN_POINT('',(0.01,0.065,-0.067));
#1845=CARTESIAN_POINT('',(0.01,0.065,-0.067));
#1846=CARTESIAN_POINT('',(0.032,0.065,-0.067));
#1847=CARTESIAN_POINT('',(0.032,0.065,-0.067));
#1848=CARTESIAN_POINT('',(0.,-0.025,-0.067));
#1849=CARTESIAN_POINT('',(-0.052,0.065,-0.067));
#1850=CARTESIAN_POINT('',(-0.052,0.065,-0.067));
#1851=CARTESIAN_POINT('',(0.,-0.025,-0.067));
#1852=CARTESIAN_POINT('',(-0.058,0.043,-0.058758));
#1853=CARTESIAN_POINT('',(-0.058,0.043,-0.060008));
#1854=CARTESIAN_POINT('',(-0.058,0.043,-0.057508));
#1855=CARTESIAN_POINT('',(1.38777878078145E-17,0.043,-0.057508));
#1856=CARTESIAN_POINT('',(0.058,0.043,-0.057508));
#1857=CARTESIAN_POINT('',(0.058,0.043,-0.058758));
#1858=CARTESIAN_POINT('',(0.058,0.043,-0.060008));
#1859=CARTESIAN_POINT('',(6.93889390390723E-18,0.043,-0.060008));
#1860=CARTESIAN_POINT('',(-0.058,0.043,-0.053146));
#1861=CARTESIAN_POINT('',(-0.058,0.043,-0.054396));
#1862=CARTESIAN_POINT('',(-0.058,0.043,-0.051896));
#1863=CARTESIAN_POINT('',(1.38777878078145E-17,0.043,-0.051896));
#1864=CARTESIAN_POINT('',(0.058,0.043,-0.051896));
#1865=CARTESIAN_POINT('',(0.058,0.043,-0.053146));
#1866=CARTESIAN_POINT('',(0.058,0.043,-0.054396));
#1867=CARTESIAN_POINT('',(6.93889390390723E-18,0.043,-0.054396));
#1868=CARTESIAN_POINT('',(-0.058,0.043,-0.047534));
#1869=CARTESIAN_POINT('',(-0.058,0.043,-0.048784));
#1870=CARTESIAN_POINT('',(-0.058,0.043,-0.046284));
#1871=CARTESIAN_POINT('',(1.38777878078145E-17,0.043,-0.046284));
#1872=CARTESIAN_POINT('',(0.058,0.043,-0.046284));
#1873=CARTESIAN_POINT('',(0.058,0.043,-0.047534));
#1874=CARTESIAN_POINT('',(0.058,0.043,-0.048784));
#1875=CARTESIAN_POINT('',(6.93889390390723E-18,0.043,-0.048784));
#1876=CARTESIAN_POINT('',(-0.058,0.043,-0.041922));
#1877=CARTESIAN_POINT('',(-0.058,0.043,-0.043172));
#1878=CARTESIAN_POINT('',(-0.058,0.043,-0.040672));
#1879=CARTESIAN_POINT('',(1.38777878078145E-17,0.043,-0.040672));
#1880=CARTESIAN_POINT('',(0.058,0.043,-0.040672));
#1881=CARTESIAN_POINT('',(0.058,0.043,-0.041922));
#1882=CARTESIAN_POINT('',(0.058,0.043,-0.043172));
#1883=CARTESIAN_POINT('',(6.93889390390723E-18,0.043,-0.043172));
#1884=CARTESIAN_POINT('',(-0.058,0.043,-0.03631));
#1885=CARTESIAN_POINT('',(-0.058,0.043,-0.03756));
#1886=CARTESIAN_POINT('',(-0.058,0.043,-0.03506));
#1887=CARTESIAN_POINT('',(1.38777878078145E-17,0.043,-0.03506));
#1888=CARTESIAN_POINT('',(0.058,0.043,-0.03506));
#1889=CARTESIAN_POINT('',(0.058,0.043,-0.03631));
#1890=CARTESIAN_POINT('',(0.058,0.043,-0.03756));
#1891=CARTESIAN_POINT('',(6.93889390390723E-18,0.043,-0.03756));
#1892=CARTESIAN_POINT('',(-0.058,0.043,-0.030698));
#1893=CARTESIAN_POINT('',(-0.058,0.043,-0.031948));
#1894=CARTESIAN_POINT('',(-0.058,0.043,-0.029448));
#1895=CARTESIAN_POINT('',(1.38777878078145E-17,0.043,-0.029448));
#1896=CARTESIAN_POINT('',(0.058,0.043,-0.029448));
#1897=CARTESIAN_POINT('',(0.058,0.043,-0.030698));
#1898=CARTESIAN_POINT('',(0.058,0.043,-0.031948));
#1899=CARTESIAN_POINT('',(6.93889390390723E-18,0.043,-0.031948));
#1900=CARTESIAN_POINT('',(-0.058,0.043,-0.025086));
#1901=CARTESIAN_POINT('',(-0.058,0.043,-0.026336));
#1902=CARTESIAN_POINT('',(-0.058,0.043,-0.023836));
#1903=CARTESIAN_POINT('',(1.38777878078145E-17,0.043,-0.023836));
#1904=CARTESIAN_POINT('',(0.058,0.043,-0.023836));
#1905=CARTESIAN_POINT('',(0.058,0.043,-0.025086));
#1906=CARTESIAN_POINT('',(0.058,0.043,-0.026336));
#1907=CARTESIAN_POINT('',(6.93889390390723E-18,0.043,-0.026336));
#1908=CARTESIAN_POINT('',(-0.058,0.043,-0.019474));
#1909=CARTESIAN_POINT('',(-0.058,0.043,-0.020724));
#1910=CARTESIAN_POINT('',(-0.058,0.043,-0.018224));
#1911=CARTESIAN_POINT('',(1.38777878078145E-17,0.043,-0.018224));
#1912=CARTESIAN_POINT('',(0.058,0.043,-0.018224));
#1913=CARTESIAN_POINT('',(0.058,0.043,-0.019474));
#1914=CARTESIAN_POINT('',(0.058,0.043,-0.020724));
#1915=CARTESIAN_POINT('',(6.93889390390723E-18,0.043,-0.020724));
#1916=CARTESIAN_POINT('',(-0.058,0.043,-0.013862));
#1917=CARTESIAN_POINT('',(-0.058,0.043,-0.015112));
#1918=CARTESIAN_POINT('',(-0.058,0.043,-0.012612));
#1919=CARTESIAN_POINT('',(1.38777878078145E-17,0.043,-0.012612));
#1920=CARTESIAN_POINT('',(0.058,0.043,-0.012612));
#1921=CARTESIAN_POINT('',(0.058,0.043,-0.013862));
#1922=CARTESIAN_POINT('',(0.058,0.043,-0.015112));
#1923=CARTESIAN_POINT('',(6.93889390390723E-18,0.043,-0.015112));
#1924=CARTESIAN_POINT('',(-0.058,0.043,-0.00825));
#1925=CARTESIAN_POINT('',(-0.058,0.043,-0.0095));
#1926=CARTESIAN_POINT('',(-0.058,0.043,-0.007));
#1927=CARTESIAN_POINT('',(1.38777878078145E-17,0.043,-0.007));
#1928=CARTESIAN_POINT('',(0.058,0.043,-0.007));
#1929=CARTESIAN_POINT('',(0.058,0.043,-0.00825));
#1930=CARTESIAN_POINT('',(0.058,0.043,-0.0095));
#1931=CARTESIAN_POINT('',(6.93889390390723E-18,0.043,-0.0095));
#1932=MECHANICAL_DESIGN_GEOMETRIC_PRESENTATION_REPRESENTATION('',(#1237),
#1933);
#1933=(
GEOMETRIC_REPRESENTATION_CONTEXT(3)
GLOBAL_UNCERTAINTY_ASSIGNED_CONTEXT((#1934))
GLOBAL_UNIT_ASSIGNED_CONTEXT((#1937,#1936,#1935))
REPRESENTATION_CONTEXT('Part 4','TOP_LEVEL_ASSEMBLY_PART')
);
#1934=UNCERTAINTY_MEASURE_WITH_UNIT(LENGTH_MEASURE(1.E-8),#1937,
'DISTANCE_ACCURACY_VALUE','Maximum Tolerance applied to model');
#1935=(
NAMED_UNIT(*)
SI_UNIT($,.STERADIAN.)
SOLID_ANGLE_UNIT()
);
#1936=(
NAMED_UNIT(*)
PLANE_ANGLE_UNIT()
SI_UNIT($,.RADIAN.)
);
#1937=(
LENGTH_UNIT()
NAMED_UNIT(*)
SI_UNIT($,.METRE.)
);
#1938=PRODUCT_DEFINITION_SHAPE('','',#1939);
#1939=PRODUCT_DEFINITION('','',#1941,#1940);
#1940=PRODUCT_DEFINITION_CONTEXT('',#1947,'design');
#1941=PRODUCT_DEFINITION_FORMATION_WITH_SPECIFIED_SOURCE('','',#1943,
 .NOT_KNOWN.);
#1942=PRODUCT_RELATED_PRODUCT_CATEGORY('','',(#1943));
#1943=PRODUCT('Part 4','Part 4','Part 4',(#1945));
#1944=PRODUCT_CATEGORY('','');
#1945=PRODUCT_CONTEXT('',#1947,'mechanical');
#1946=APPLICATION_PROTOCOL_DEFINITION('international standard',
'ap242_managed_model_based_3d_engineering',2020,#1947);
#1947=APPLICATION_CONTEXT('managed model based 3d engineering');
ENDSEC;
END-ISO-10303-21;
