ISO-10303-21;
HEADER;
/* Generated by software containing ST-Developer
 * from STEP Tools, Inc. (www.steptools.com) 
 */
/* OPTION: using custom renumber hook */

FILE_DESCRIPTION(
/* description */ ('STEP AP242 Edition 2',
'CAx-IF Rec.Pracs.---Representation and Presentation of Product Manufa
cturing Information (PMI)---4.0---2014-10-13',
'CAx-IF Rec.Pracs.---3D Tessellated Geometry---0.4---2014-09-14','2;1',
'CAx-IF Rec.Pracs.---User Defined Attributes---1.5---2016-08-15'),
/* implementation_level */ '2;1');

FILE_NAME(
/* name */ 'v2 - Part 18',
/* time_stamp */ '2026-07-31T04:41:42Z',
/* author */ (''),
/* organization */ (''),
/* preprocessor_version */ 'ST-DEVELOPER v20',
/* originating_system */ 'ONSHAPE BY PTC INC, 1.218',
/* authorisation */ '  ');

FILE_SCHEMA (('AP242_MANAGED_MODEL_BASED_3D_ENGINEERING_MIM_LF { 1 0 10303 442 3 1 4 }'));
ENDSEC;

DATA;
#10=SHAPE_REPRESENTATION_RELATIONSHIP('','',#1299,#11);
#11=ADVANCED_BREP_SHAPE_REPRESENTATION('',(#1297),#2033);
#12=ORIENTED_EDGE('',*,*,#372,.T.);
#13=ORIENTED_EDGE('',*,*,#373,.T.);
#14=ORIENTED_EDGE('',*,*,#374,.F.);
#15=ORIENTED_EDGE('',*,*,#375,.F.);
#16=ORIENTED_EDGE('',*,*,#376,.T.);
#17=ORIENTED_EDGE('',*,*,#377,.T.);
#18=ORIENTED_EDGE('',*,*,#378,.F.);
#19=ORIENTED_EDGE('',*,*,#379,.T.);
#20=ORIENTED_EDGE('',*,*,#380,.F.);
#21=ORIENTED_EDGE('',*,*,#381,.F.);
#22=ORIENTED_EDGE('',*,*,#382,.T.);
#23=ORIENTED_EDGE('',*,*,#383,.T.);
#24=ORIENTED_EDGE('',*,*,#384,.T.);
#25=ORIENTED_EDGE('',*,*,#385,.F.);
#26=ORIENTED_EDGE('',*,*,#386,.F.);
#27=ORIENTED_EDGE('',*,*,#387,.T.);
#28=ORIENTED_EDGE('',*,*,#388,.F.);
#29=ORIENTED_EDGE('',*,*,#389,.F.);
#30=ORIENTED_EDGE('',*,*,#390,.T.);
#31=ORIENTED_EDGE('',*,*,#391,.T.);
#32=ORIENTED_EDGE('',*,*,#392,.T.);
#33=ORIENTED_EDGE('',*,*,#393,.T.);
#34=ORIENTED_EDGE('',*,*,#394,.F.);
#35=ORIENTED_EDGE('',*,*,#395,.F.);
#36=ORIENTED_EDGE('',*,*,#396,.T.);
#37=ORIENTED_EDGE('',*,*,#397,.F.);
#38=ORIENTED_EDGE('',*,*,#398,.F.);
#39=ORIENTED_EDGE('',*,*,#399,.T.);
#40=ORIENTED_EDGE('',*,*,#400,.T.);
#41=ORIENTED_EDGE('',*,*,#401,.T.);
#42=ORIENTED_EDGE('',*,*,#402,.F.);
#43=ORIENTED_EDGE('',*,*,#403,.F.);
#44=ORIENTED_EDGE('',*,*,#404,.T.);
#45=ORIENTED_EDGE('',*,*,#405,.F.);
#46=ORIENTED_EDGE('',*,*,#406,.F.);
#47=ORIENTED_EDGE('',*,*,#407,.T.);
#48=ORIENTED_EDGE('',*,*,#408,.T.);
#49=ORIENTED_EDGE('',*,*,#409,.F.);
#50=ORIENTED_EDGE('',*,*,#410,.T.);
#51=ORIENTED_EDGE('',*,*,#411,.T.);
#52=ORIENTED_EDGE('',*,*,#412,.F.);
#53=ORIENTED_EDGE('',*,*,#413,.F.);
#54=ORIENTED_EDGE('',*,*,#414,.T.);
#55=ORIENTED_EDGE('',*,*,#415,.T.);
#56=ORIENTED_EDGE('',*,*,#416,.T.);
#57=ORIENTED_EDGE('',*,*,#417,.F.);
#58=ORIENTED_EDGE('',*,*,#418,.F.);
#59=ORIENTED_EDGE('',*,*,#419,.F.);
#60=ORIENTED_EDGE('',*,*,#420,.T.);
#61=ORIENTED_EDGE('',*,*,#421,.T.);
#62=ORIENTED_EDGE('',*,*,#422,.F.);
#63=ORIENTED_EDGE('',*,*,#423,.F.);
#64=ORIENTED_EDGE('',*,*,#424,.F.);
#65=ORIENTED_EDGE('',*,*,#425,.T.);
#66=ORIENTED_EDGE('',*,*,#426,.T.);
#67=ORIENTED_EDGE('',*,*,#427,.F.);
#68=ORIENTED_EDGE('',*,*,#428,.T.);
#69=ORIENTED_EDGE('',*,*,#429,.T.);
#70=ORIENTED_EDGE('',*,*,#430,.F.);
#71=ORIENTED_EDGE('',*,*,#431,.T.);
#72=ORIENTED_EDGE('',*,*,#432,.F.);
#73=ORIENTED_EDGE('',*,*,#433,.T.);
#74=ORIENTED_EDGE('',*,*,#434,.T.);
#75=ORIENTED_EDGE('',*,*,#435,.F.);
#76=ORIENTED_EDGE('',*,*,#436,.T.);
#77=ORIENTED_EDGE('',*,*,#437,.T.);
#78=ORIENTED_EDGE('',*,*,#438,.F.);
#79=ORIENTED_EDGE('',*,*,#439,.T.);
#80=ORIENTED_EDGE('',*,*,#440,.F.);
#81=ORIENTED_EDGE('',*,*,#441,.F.);
#82=ORIENTED_EDGE('',*,*,#442,.T.);
#83=ORIENTED_EDGE('',*,*,#443,.T.);
#84=ORIENTED_EDGE('',*,*,#444,.F.);
#85=ORIENTED_EDGE('',*,*,#445,.F.);
#86=ORIENTED_EDGE('',*,*,#446,.T.);
#87=ORIENTED_EDGE('',*,*,#447,.T.);
#88=ORIENTED_EDGE('',*,*,#448,.F.);
#89=ORIENTED_EDGE('',*,*,#449,.F.);
#90=ORIENTED_EDGE('',*,*,#450,.T.);
#91=ORIENTED_EDGE('',*,*,#451,.T.);
#92=ORIENTED_EDGE('',*,*,#452,.T.);
#93=ORIENTED_EDGE('',*,*,#453,.F.);
#94=ORIENTED_EDGE('',*,*,#454,.F.);
#95=ORIENTED_EDGE('',*,*,#455,.F.);
#96=ORIENTED_EDGE('',*,*,#456,.T.);
#97=ORIENTED_EDGE('',*,*,#457,.T.);
#98=ORIENTED_EDGE('',*,*,#458,.F.);
#99=ORIENTED_EDGE('',*,*,#459,.F.);
#100=ORIENTED_EDGE('',*,*,#460,.T.);
#101=ORIENTED_EDGE('',*,*,#461,.F.);
#102=ORIENTED_EDGE('',*,*,#462,.F.);
#103=ORIENTED_EDGE('',*,*,#463,.T.);
#104=ORIENTED_EDGE('',*,*,#464,.T.);
#105=ORIENTED_EDGE('',*,*,#465,.F.);
#106=ORIENTED_EDGE('',*,*,#466,.T.);
#107=ORIENTED_EDGE('',*,*,#467,.T.);
#108=ORIENTED_EDGE('',*,*,#468,.F.);
#109=ORIENTED_EDGE('',*,*,#469,.F.);
#110=ORIENTED_EDGE('',*,*,#470,.F.);
#111=ORIENTED_EDGE('',*,*,#471,.T.);
#112=ORIENTED_EDGE('',*,*,#472,.T.);
#113=ORIENTED_EDGE('',*,*,#473,.F.);
#114=ORIENTED_EDGE('',*,*,#474,.T.);
#115=ORIENTED_EDGE('',*,*,#475,.T.);
#116=ORIENTED_EDGE('',*,*,#476,.F.);
#117=ORIENTED_EDGE('',*,*,#477,.F.);
#118=ORIENTED_EDGE('',*,*,#478,.F.);
#119=ORIENTED_EDGE('',*,*,#479,.F.);
#120=ORIENTED_EDGE('',*,*,#480,.T.);
#121=ORIENTED_EDGE('',*,*,#481,.T.);
#122=ORIENTED_EDGE('',*,*,#482,.F.);
#123=ORIENTED_EDGE('',*,*,#483,.T.);
#124=ORIENTED_EDGE('',*,*,#484,.T.);
#125=ORIENTED_EDGE('',*,*,#485,.F.);
#126=ORIENTED_EDGE('',*,*,#486,.F.);
#127=ORIENTED_EDGE('',*,*,#487,.F.);
#128=ORIENTED_EDGE('',*,*,#488,.F.);
#129=ORIENTED_EDGE('',*,*,#489,.F.);
#130=ORIENTED_EDGE('',*,*,#490,.F.);
#131=ORIENTED_EDGE('',*,*,#491,.T.);
#132=ORIENTED_EDGE('',*,*,#441,.T.);
#133=ORIENTED_EDGE('',*,*,#492,.T.);
#134=ORIENTED_EDGE('',*,*,#376,.F.);
#135=ORIENTED_EDGE('',*,*,#493,.F.);
#136=ORIENTED_EDGE('',*,*,#445,.T.);
#137=ORIENTED_EDGE('',*,*,#494,.T.);
#138=ORIENTED_EDGE('',*,*,#372,.F.);
#139=ORIENTED_EDGE('',*,*,#495,.F.);
#140=ORIENTED_EDGE('',*,*,#496,.F.);
#141=ORIENTED_EDGE('',*,*,#436,.F.);
#142=ORIENTED_EDGE('',*,*,#497,.T.);
#143=ORIENTED_EDGE('',*,*,#381,.T.);
#144=ORIENTED_EDGE('',*,*,#447,.F.);
#145=ORIENTED_EDGE('',*,*,#498,.T.);
#146=ORIENTED_EDGE('',*,*,#422,.T.);
#147=ORIENTED_EDGE('',*,*,#499,.F.);
#148=ORIENTED_EDGE('',*,*,#500,.F.);
#149=ORIENTED_EDGE('',*,*,#486,.T.);
#150=ORIENTED_EDGE('',*,*,#501,.T.);
#151=ORIENTED_EDGE('',*,*,#383,.F.);
#152=ORIENTED_EDGE('',*,*,#502,.F.);
#153=ORIENTED_EDGE('',*,*,#482,.T.);
#154=ORIENTED_EDGE('',*,*,#503,.T.);
#155=ORIENTED_EDGE('',*,*,#387,.F.);
#156=ORIENTED_EDGE('',*,*,#469,.T.);
#157=ORIENTED_EDGE('',*,*,#504,.T.);
#158=ORIENTED_EDGE('',*,*,#400,.F.);
#159=ORIENTED_EDGE('',*,*,#505,.F.);
#160=ORIENTED_EDGE('',*,*,#473,.T.);
#161=ORIENTED_EDGE('',*,*,#506,.T.);
#162=ORIENTED_EDGE('',*,*,#396,.F.);
#163=ORIENTED_EDGE('',*,*,#507,.F.);
#164=ORIENTED_EDGE('',*,*,#477,.T.);
#165=ORIENTED_EDGE('',*,*,#508,.T.);
#166=ORIENTED_EDGE('',*,*,#392,.F.);
#167=ORIENTED_EDGE('',*,*,#509,.F.);
#168=ORIENTED_EDGE('',*,*,#510,.F.);
#169=ORIENTED_EDGE('',*,*,#452,.F.);
#170=ORIENTED_EDGE('',*,*,#511,.T.);
#171=ORIENTED_EDGE('',*,*,#417,.T.);
#172=ORIENTED_EDGE('',*,*,#456,.F.);
#173=ORIENTED_EDGE('',*,*,#512,.T.);
#174=ORIENTED_EDGE('',*,*,#413,.T.);
#175=ORIENTED_EDGE('',*,*,#513,.F.);
#176=ORIENTED_EDGE('',*,*,#460,.F.);
#177=ORIENTED_EDGE('',*,*,#514,.T.);
#178=ORIENTED_EDGE('',*,*,#409,.T.);
#179=ORIENTED_EDGE('',*,*,#515,.F.);
#180=ORIENTED_EDGE('',*,*,#451,.F.);
#181=ORIENTED_EDGE('',*,*,#516,.T.);
#182=ORIENTED_EDGE('',*,*,#418,.T.);
#183=ORIENTED_EDGE('',*,*,#511,.F.);
#184=ORIENTED_EDGE('',*,*,#517,.F.);
#185=ORIENTED_EDGE('',*,*,#478,.T.);
#186=ORIENTED_EDGE('',*,*,#509,.T.);
#187=ORIENTED_EDGE('',*,*,#391,.F.);
#188=ORIENTED_EDGE('',*,*,#518,.F.);
#189=ORIENTED_EDGE('',*,*,#465,.T.);
#190=ORIENTED_EDGE('',*,*,#519,.T.);
#191=ORIENTED_EDGE('',*,*,#404,.F.);
#192=ORIENTED_EDGE('',*,*,#464,.F.);
#193=ORIENTED_EDGE('',*,*,#520,.T.);
#194=ORIENTED_EDGE('',*,*,#405,.T.);
#195=ORIENTED_EDGE('',*,*,#519,.F.);
#196=ORIENTED_EDGE('',*,*,#390,.F.);
#197=ORIENTED_EDGE('',*,*,#521,.F.);
#198=ORIENTED_EDGE('',*,*,#479,.T.);
#199=ORIENTED_EDGE('',*,*,#517,.T.);
#200=ORIENTED_EDGE('',*,*,#389,.T.);
#201=ORIENTED_EDGE('',*,*,#522,.F.);
#202=ORIENTED_EDGE('',*,*,#480,.F.);
#203=ORIENTED_EDGE('',*,*,#521,.T.);
#204=ORIENTED_EDGE('',*,*,#388,.T.);
#205=ORIENTED_EDGE('',*,*,#503,.F.);
#206=ORIENTED_EDGE('',*,*,#481,.F.);
#207=ORIENTED_EDGE('',*,*,#522,.T.);
#208=ORIENTED_EDGE('',*,*,#395,.T.);
#209=ORIENTED_EDGE('',*,*,#523,.F.);
#210=ORIENTED_EDGE('',*,*,#474,.F.);
#211=ORIENTED_EDGE('',*,*,#507,.T.);
#212=ORIENTED_EDGE('',*,*,#394,.T.);
#213=ORIENTED_EDGE('',*,*,#524,.F.);
#214=ORIENTED_EDGE('',*,*,#475,.F.);
#215=ORIENTED_EDGE('',*,*,#523,.T.);
#216=ORIENTED_EDGE('',*,*,#393,.F.);
#217=ORIENTED_EDGE('',*,*,#508,.F.);
#218=ORIENTED_EDGE('',*,*,#476,.T.);
#219=ORIENTED_EDGE('',*,*,#524,.T.);
#220=ORIENTED_EDGE('',*,*,#398,.T.);
#221=ORIENTED_EDGE('',*,*,#525,.F.);
#222=ORIENTED_EDGE('',*,*,#471,.F.);
#223=ORIENTED_EDGE('',*,*,#526,.T.);
#224=ORIENTED_EDGE('',*,*,#397,.T.);
#225=ORIENTED_EDGE('',*,*,#506,.F.);
#226=ORIENTED_EDGE('',*,*,#472,.F.);
#227=ORIENTED_EDGE('',*,*,#525,.T.);
#228=ORIENTED_EDGE('',*,*,#399,.F.);
#229=ORIENTED_EDGE('',*,*,#526,.F.);
#230=ORIENTED_EDGE('',*,*,#470,.T.);
#231=ORIENTED_EDGE('',*,*,#505,.T.);
#232=ORIENTED_EDGE('',*,*,#403,.T.);
#233=ORIENTED_EDGE('',*,*,#527,.F.);
#234=ORIENTED_EDGE('',*,*,#466,.F.);
#235=ORIENTED_EDGE('',*,*,#518,.T.);
#236=ORIENTED_EDGE('',*,*,#402,.T.);
#237=ORIENTED_EDGE('',*,*,#528,.F.);
#238=ORIENTED_EDGE('',*,*,#467,.F.);
#239=ORIENTED_EDGE('',*,*,#527,.T.);
#240=ORIENTED_EDGE('',*,*,#401,.F.);
#241=ORIENTED_EDGE('',*,*,#504,.F.);
#242=ORIENTED_EDGE('',*,*,#468,.T.);
#243=ORIENTED_EDGE('',*,*,#528,.T.);
#244=ORIENTED_EDGE('',*,*,#407,.F.);
#245=ORIENTED_EDGE('',*,*,#529,.F.);
#246=ORIENTED_EDGE('',*,*,#462,.T.);
#247=ORIENTED_EDGE('',*,*,#530,.T.);
#248=ORIENTED_EDGE('',*,*,#406,.T.);
#249=ORIENTED_EDGE('',*,*,#520,.F.);
#250=ORIENTED_EDGE('',*,*,#463,.F.);
#251=ORIENTED_EDGE('',*,*,#529,.T.);
#252=ORIENTED_EDGE('',*,*,#408,.F.);
#253=ORIENTED_EDGE('',*,*,#530,.F.);
#254=ORIENTED_EDGE('',*,*,#461,.T.);
#255=ORIENTED_EDGE('',*,*,#515,.T.);
#256=ORIENTED_EDGE('',*,*,#410,.F.);
#257=ORIENTED_EDGE('',*,*,#514,.F.);
#258=ORIENTED_EDGE('',*,*,#459,.T.);
#259=ORIENTED_EDGE('',*,*,#531,.T.);
#260=ORIENTED_EDGE('',*,*,#412,.T.);
#261=ORIENTED_EDGE('',*,*,#532,.F.);
#262=ORIENTED_EDGE('',*,*,#457,.F.);
#263=ORIENTED_EDGE('',*,*,#513,.T.);
#264=ORIENTED_EDGE('',*,*,#411,.F.);
#265=ORIENTED_EDGE('',*,*,#531,.F.);
#266=ORIENTED_EDGE('',*,*,#458,.T.);
#267=ORIENTED_EDGE('',*,*,#532,.T.);
#268=ORIENTED_EDGE('',*,*,#415,.F.);
#269=ORIENTED_EDGE('',*,*,#533,.F.);
#270=ORIENTED_EDGE('',*,*,#454,.T.);
#271=ORIENTED_EDGE('',*,*,#534,.T.);
#272=ORIENTED_EDGE('',*,*,#414,.F.);
#273=ORIENTED_EDGE('',*,*,#512,.F.);
#274=ORIENTED_EDGE('',*,*,#455,.T.);
#275=ORIENTED_EDGE('',*,*,#533,.T.);
#276=ORIENTED_EDGE('',*,*,#416,.F.);
#277=ORIENTED_EDGE('',*,*,#534,.F.);
#278=ORIENTED_EDGE('',*,*,#453,.T.);
#279=ORIENTED_EDGE('',*,*,#510,.T.);
#280=ORIENTED_EDGE('',*,*,#420,.F.);
#281=ORIENTED_EDGE('',*,*,#535,.F.);
#282=ORIENTED_EDGE('',*,*,#449,.T.);
#283=ORIENTED_EDGE('',*,*,#536,.T.);
#284=ORIENTED_EDGE('',*,*,#419,.T.);
#285=ORIENTED_EDGE('',*,*,#516,.F.);
#286=ORIENTED_EDGE('',*,*,#450,.F.);
#287=ORIENTED_EDGE('',*,*,#535,.T.);
#288=ORIENTED_EDGE('',*,*,#421,.F.);
#289=ORIENTED_EDGE('',*,*,#536,.F.);
#290=ORIENTED_EDGE('',*,*,#448,.T.);
#291=ORIENTED_EDGE('',*,*,#499,.T.);
#292=ORIENTED_EDGE('',*,*,#423,.T.);
#293=ORIENTED_EDGE('',*,*,#498,.F.);
#294=ORIENTED_EDGE('',*,*,#446,.F.);
#295=ORIENTED_EDGE('',*,*,#495,.T.);
#296=ORIENTED_EDGE('',*,*,#386,.T.);
#297=ORIENTED_EDGE('',*,*,#537,.F.);
#298=ORIENTED_EDGE('',*,*,#483,.F.);
#299=ORIENTED_EDGE('',*,*,#502,.T.);
#300=ORIENTED_EDGE('',*,*,#385,.T.);
#301=ORIENTED_EDGE('',*,*,#538,.F.);
#302=ORIENTED_EDGE('',*,*,#484,.F.);
#303=ORIENTED_EDGE('',*,*,#537,.T.);
#304=ORIENTED_EDGE('',*,*,#384,.F.);
#305=ORIENTED_EDGE('',*,*,#501,.F.);
#306=ORIENTED_EDGE('',*,*,#485,.T.);
#307=ORIENTED_EDGE('',*,*,#538,.T.);
#308=ORIENTED_EDGE('',*,*,#382,.F.);
#309=ORIENTED_EDGE('',*,*,#497,.F.);
#310=ORIENTED_EDGE('',*,*,#487,.T.);
#311=ORIENTED_EDGE('',*,*,#500,.T.);
#312=ORIENTED_EDGE('',*,*,#377,.F.);
#313=ORIENTED_EDGE('',*,*,#492,.F.);
#314=ORIENTED_EDGE('',*,*,#440,.T.);
#315=ORIENTED_EDGE('',*,*,#539,.T.);
#316=ORIENTED_EDGE('',*,*,#378,.T.);
#317=ORIENTED_EDGE('',*,*,#539,.F.);
#318=ORIENTED_EDGE('',*,*,#439,.F.);
#319=ORIENTED_EDGE('',*,*,#540,.T.);
#320=ORIENTED_EDGE('',*,*,#379,.F.);
#321=ORIENTED_EDGE('',*,*,#540,.F.);
#322=ORIENTED_EDGE('',*,*,#438,.T.);
#323=ORIENTED_EDGE('',*,*,#541,.T.);
#324=ORIENTED_EDGE('',*,*,#380,.T.);
#325=ORIENTED_EDGE('',*,*,#541,.F.);
#326=ORIENTED_EDGE('',*,*,#437,.F.);
#327=ORIENTED_EDGE('',*,*,#496,.T.);
#328=ORIENTED_EDGE('',*,*,#373,.F.);
#329=ORIENTED_EDGE('',*,*,#494,.F.);
#330=ORIENTED_EDGE('',*,*,#444,.T.);
#331=ORIENTED_EDGE('',*,*,#542,.T.);
#332=ORIENTED_EDGE('',*,*,#374,.T.);
#333=ORIENTED_EDGE('',*,*,#542,.F.);
#334=ORIENTED_EDGE('',*,*,#443,.F.);
#335=ORIENTED_EDGE('',*,*,#543,.T.);
#336=ORIENTED_EDGE('',*,*,#375,.T.);
#337=ORIENTED_EDGE('',*,*,#543,.F.);
#338=ORIENTED_EDGE('',*,*,#442,.F.);
#339=ORIENTED_EDGE('',*,*,#493,.T.);
#340=ORIENTED_EDGE('',*,*,#432,.T.);
#341=ORIENTED_EDGE('',*,*,#544,.T.);
#342=ORIENTED_EDGE('',*,*,#425,.F.);
#343=ORIENTED_EDGE('',*,*,#545,.F.);
#344=ORIENTED_EDGE('',*,*,#545,.T.);
#345=ORIENTED_EDGE('',*,*,#424,.T.);
#346=ORIENTED_EDGE('',*,*,#546,.F.);
#347=ORIENTED_EDGE('',*,*,#433,.F.);
#348=ORIENTED_EDGE('',*,*,#546,.T.);
#349=ORIENTED_EDGE('',*,*,#427,.T.);
#350=ORIENTED_EDGE('',*,*,#547,.F.);
#351=ORIENTED_EDGE('',*,*,#434,.F.);
#352=ORIENTED_EDGE('',*,*,#435,.T.);
#353=ORIENTED_EDGE('',*,*,#547,.T.);
#354=ORIENTED_EDGE('',*,*,#426,.F.);
#355=ORIENTED_EDGE('',*,*,#544,.F.);
#356=ORIENTED_EDGE('',*,*,#488,.T.);
#357=ORIENTED_EDGE('',*,*,#548,.T.);
#358=ORIENTED_EDGE('',*,*,#429,.F.);
#359=ORIENTED_EDGE('',*,*,#549,.F.);
#360=ORIENTED_EDGE('',*,*,#489,.T.);
#361=ORIENTED_EDGE('',*,*,#549,.T.);
#362=ORIENTED_EDGE('',*,*,#428,.F.);
#363=ORIENTED_EDGE('',*,*,#550,.F.);
#364=ORIENTED_EDGE('',*,*,#490,.T.);
#365=ORIENTED_EDGE('',*,*,#550,.T.);
#366=ORIENTED_EDGE('',*,*,#431,.F.);
#367=ORIENTED_EDGE('',*,*,#551,.F.);
#368=ORIENTED_EDGE('',*,*,#551,.T.);
#369=ORIENTED_EDGE('',*,*,#430,.T.);
#370=ORIENTED_EDGE('',*,*,#548,.F.);
#371=ORIENTED_EDGE('',*,*,#491,.F.);
#372=EDGE_CURVE('',#552,#553,#672,.T.);
#373=EDGE_CURVE('',#553,#554,#673,.T.);
#374=EDGE_CURVE('',#555,#554,#674,.T.);
#375=EDGE_CURVE('',#556,#555,#675,.T.);
#376=EDGE_CURVE('',#556,#557,#676,.T.);
#377=EDGE_CURVE('',#557,#558,#677,.T.);
#378=EDGE_CURVE('',#559,#558,#678,.T.);
#379=EDGE_CURVE('',#559,#560,#679,.T.);
#380=EDGE_CURVE('',#561,#560,#680,.T.);
#381=EDGE_CURVE('',#562,#561,#681,.T.);
#382=EDGE_CURVE('',#562,#563,#682,.T.);
#383=EDGE_CURVE('',#563,#564,#683,.T.);
#384=EDGE_CURVE('',#564,#565,#684,.T.);
#385=EDGE_CURVE('',#566,#565,#685,.T.);
#386=EDGE_CURVE('',#567,#566,#686,.T.);
#387=EDGE_CURVE('',#567,#568,#687,.T.);
#388=EDGE_CURVE('',#569,#568,#688,.T.);
#389=EDGE_CURVE('',#570,#569,#689,.T.);
#390=EDGE_CURVE('',#570,#571,#690,.T.);
#391=EDGE_CURVE('',#571,#572,#691,.T.);
#392=EDGE_CURVE('',#572,#573,#692,.T.);
#393=EDGE_CURVE('',#573,#574,#693,.T.);
#394=EDGE_CURVE('',#575,#574,#694,.T.);
#395=EDGE_CURVE('',#576,#575,#695,.T.);
#396=EDGE_CURVE('',#576,#577,#696,.T.);
#397=EDGE_CURVE('',#578,#577,#697,.T.);
#398=EDGE_CURVE('',#579,#578,#698,.T.);
#399=EDGE_CURVE('',#579,#580,#699,.T.);
#400=EDGE_CURVE('',#580,#581,#700,.T.);
#401=EDGE_CURVE('',#581,#582,#701,.T.);
#402=EDGE_CURVE('',#583,#582,#702,.T.);
#403=EDGE_CURVE('',#584,#583,#703,.T.);
#404=EDGE_CURVE('',#584,#585,#704,.T.);
#405=EDGE_CURVE('',#586,#585,#705,.T.);
#406=EDGE_CURVE('',#587,#586,#706,.T.);
#407=EDGE_CURVE('',#587,#588,#707,.T.);
#408=EDGE_CURVE('',#588,#589,#708,.T.);
#409=EDGE_CURVE('',#590,#589,#709,.T.);
#410=EDGE_CURVE('',#590,#591,#710,.T.);
#411=EDGE_CURVE('',#591,#592,#711,.T.);
#412=EDGE_CURVE('',#593,#592,#712,.T.);
#413=EDGE_CURVE('',#594,#593,#713,.T.);
#414=EDGE_CURVE('',#594,#595,#714,.T.);
#415=EDGE_CURVE('',#595,#596,#715,.T.);
#416=EDGE_CURVE('',#596,#597,#716,.T.);
#417=EDGE_CURVE('',#598,#597,#717,.T.);
#418=EDGE_CURVE('',#599,#598,#718,.T.);
#419=EDGE_CURVE('',#600,#599,#719,.T.);
#420=EDGE_CURVE('',#600,#601,#720,.T.);
#421=EDGE_CURVE('',#601,#602,#721,.T.);
#422=EDGE_CURVE('',#603,#602,#722,.T.);
#423=EDGE_CURVE('',#552,#603,#723,.T.);
#424=EDGE_CURVE('',#604,#605,#724,.T.);
#425=EDGE_CURVE('',#604,#606,#725,.T.);
#426=EDGE_CURVE('',#606,#607,#726,.T.);
#427=EDGE_CURVE('',#605,#607,#727,.T.);
#428=EDGE_CURVE('',#608,#609,#728,.T.);
#429=EDGE_CURVE('',#609,#610,#729,.T.);
#430=EDGE_CURVE('',#611,#610,#730,.T.);
#431=EDGE_CURVE('',#611,#608,#731,.T.);
#432=EDGE_CURVE('',#612,#613,#732,.T.);
#433=EDGE_CURVE('',#612,#614,#733,.T.);
#434=EDGE_CURVE('',#614,#615,#734,.T.);
#435=EDGE_CURVE('',#613,#615,#735,.T.);
#436=EDGE_CURVE('',#616,#617,#736,.T.);
#437=EDGE_CURVE('',#617,#618,#737,.T.);
#438=EDGE_CURVE('',#619,#618,#738,.T.);
#439=EDGE_CURVE('',#619,#620,#739,.T.);
#440=EDGE_CURVE('',#621,#620,#740,.T.);
#441=EDGE_CURVE('',#622,#621,#741,.T.);
#442=EDGE_CURVE('',#622,#623,#742,.T.);
#443=EDGE_CURVE('',#623,#624,#743,.T.);
#444=EDGE_CURVE('',#625,#624,#744,.T.);
#445=EDGE_CURVE('',#626,#625,#745,.T.);
#446=EDGE_CURVE('',#626,#627,#746,.T.);
#447=EDGE_CURVE('',#627,#628,#747,.T.);
#448=EDGE_CURVE('',#629,#628,#748,.T.);
#449=EDGE_CURVE('',#630,#629,#749,.T.);
#450=EDGE_CURVE('',#630,#631,#750,.T.);
#451=EDGE_CURVE('',#631,#632,#751,.T.);
#452=EDGE_CURVE('',#632,#633,#752,.T.);
#453=EDGE_CURVE('',#634,#633,#753,.T.);
#454=EDGE_CURVE('',#635,#634,#754,.T.);
#455=EDGE_CURVE('',#636,#635,#755,.T.);
#456=EDGE_CURVE('',#636,#637,#756,.T.);
#457=EDGE_CURVE('',#637,#638,#757,.T.);
#458=EDGE_CURVE('',#639,#638,#758,.T.);
#459=EDGE_CURVE('',#640,#639,#759,.T.);
#460=EDGE_CURVE('',#640,#641,#760,.T.);
#461=EDGE_CURVE('',#642,#641,#761,.T.);
#462=EDGE_CURVE('',#643,#642,#762,.T.);
#463=EDGE_CURVE('',#643,#644,#763,.T.);
#464=EDGE_CURVE('',#644,#645,#764,.T.);
#465=EDGE_CURVE('',#646,#645,#765,.T.);
#466=EDGE_CURVE('',#646,#647,#766,.T.);
#467=EDGE_CURVE('',#647,#648,#767,.T.);
#468=EDGE_CURVE('',#649,#648,#768,.T.);
#469=EDGE_CURVE('',#650,#649,#769,.T.);
#470=EDGE_CURVE('',#651,#650,#770,.T.);
#471=EDGE_CURVE('',#651,#652,#771,.T.);
#472=EDGE_CURVE('',#652,#653,#772,.T.);
#473=EDGE_CURVE('',#654,#653,#773,.T.);
#474=EDGE_CURVE('',#654,#655,#774,.T.);
#475=EDGE_CURVE('',#655,#656,#775,.T.);
#476=EDGE_CURVE('',#657,#656,#776,.T.);
#477=EDGE_CURVE('',#658,#657,#777,.T.);
#478=EDGE_CURVE('',#659,#658,#778,.T.);
#479=EDGE_CURVE('',#660,#659,#779,.T.);
#480=EDGE_CURVE('',#660,#661,#780,.T.);
#481=EDGE_CURVE('',#661,#662,#781,.T.);
#482=EDGE_CURVE('',#663,#662,#782,.T.);
#483=EDGE_CURVE('',#663,#664,#783,.T.);
#484=EDGE_CURVE('',#664,#665,#784,.T.);
#485=EDGE_CURVE('',#666,#665,#785,.T.);
#486=EDGE_CURVE('',#667,#666,#786,.T.);
#487=EDGE_CURVE('',#616,#667,#787,.T.);
#488=EDGE_CURVE('',#668,#669,#788,.T.);
#489=EDGE_CURVE('',#670,#668,#789,.T.);
#490=EDGE_CURVE('',#671,#670,#790,.T.);
#491=EDGE_CURVE('',#671,#669,#791,.T.);
#492=EDGE_CURVE('',#621,#557,#792,.T.);
#493=EDGE_CURVE('',#622,#556,#793,.T.);
#494=EDGE_CURVE('',#625,#553,#794,.T.);
#495=EDGE_CURVE('',#626,#552,#795,.T.);
#496=EDGE_CURVE('',#617,#561,#796,.T.);
#497=EDGE_CURVE('',#616,#562,#797,.T.);
#498=EDGE_CURVE('',#627,#603,#798,.T.);
#499=EDGE_CURVE('',#628,#602,#799,.T.);
#500=EDGE_CURVE('',#667,#563,#800,.T.);
#501=EDGE_CURVE('',#666,#564,#801,.T.);
#502=EDGE_CURVE('',#663,#567,#802,.T.);
#503=EDGE_CURVE('',#662,#568,#803,.T.);
#504=EDGE_CURVE('',#649,#581,#804,.T.);
#505=EDGE_CURVE('',#650,#580,#805,.T.);
#506=EDGE_CURVE('',#653,#577,#806,.T.);
#507=EDGE_CURVE('',#654,#576,#807,.T.);
#508=EDGE_CURVE('',#657,#573,#808,.T.);
#509=EDGE_CURVE('',#658,#572,#809,.T.);
#510=EDGE_CURVE('',#633,#597,#810,.T.);
#511=EDGE_CURVE('',#632,#598,#811,.T.);
#512=EDGE_CURVE('',#636,#594,#812,.T.);
#513=EDGE_CURVE('',#637,#593,#813,.T.);
#514=EDGE_CURVE('',#640,#590,#814,.T.);
#515=EDGE_CURVE('',#641,#589,#815,.T.);
#516=EDGE_CURVE('',#631,#599,#816,.T.);
#517=EDGE_CURVE('',#659,#571,#817,.T.);
#518=EDGE_CURVE('',#646,#584,#818,.T.);
#519=EDGE_CURVE('',#645,#585,#819,.T.);
#520=EDGE_CURVE('',#644,#586,#820,.T.);
#521=EDGE_CURVE('',#660,#570,#821,.T.);
#522=EDGE_CURVE('',#661,#569,#822,.T.);
#523=EDGE_CURVE('',#655,#575,#823,.T.);
#524=EDGE_CURVE('',#656,#574,#824,.T.);
#525=EDGE_CURVE('',#652,#578,#825,.T.);
#526=EDGE_CURVE('',#651,#579,#826,.T.);
#527=EDGE_CURVE('',#647,#583,#827,.T.);
#528=EDGE_CURVE('',#648,#582,#828,.T.);
#529=EDGE_CURVE('',#643,#587,#829,.T.);
#530=EDGE_CURVE('',#642,#588,#830,.T.);
#531=EDGE_CURVE('',#639,#591,#831,.T.);
#532=EDGE_CURVE('',#638,#592,#832,.T.);
#533=EDGE_CURVE('',#635,#595,#833,.T.);
#534=EDGE_CURVE('',#634,#596,#834,.T.);
#535=EDGE_CURVE('',#630,#600,#835,.T.);
#536=EDGE_CURVE('',#629,#601,#836,.T.);
#537=EDGE_CURVE('',#664,#566,#837,.T.);
#538=EDGE_CURVE('',#665,#565,#838,.T.);
#539=EDGE_CURVE('',#620,#558,#839,.T.);
#540=EDGE_CURVE('',#619,#559,#840,.T.);
#541=EDGE_CURVE('',#618,#560,#841,.T.);
#542=EDGE_CURVE('',#624,#554,#842,.T.);
#543=EDGE_CURVE('',#623,#555,#843,.T.);
#544=EDGE_CURVE('',#613,#606,#844,.T.);
#545=EDGE_CURVE('',#612,#604,#845,.T.);
#546=EDGE_CURVE('',#614,#605,#846,.T.);
#547=EDGE_CURVE('',#615,#607,#847,.T.);
#548=EDGE_CURVE('',#669,#610,#848,.T.);
#549=EDGE_CURVE('',#668,#609,#849,.T.);
#550=EDGE_CURVE('',#670,#608,#850,.T.);
#551=EDGE_CURVE('',#671,#611,#851,.T.);
#552=VERTEX_POINT('',#1672);
#553=VERTEX_POINT('',#1673);
#554=VERTEX_POINT('',#1675);
#555=VERTEX_POINT('',#1677);
#556=VERTEX_POINT('',#1679);
#557=VERTEX_POINT('',#1681);
#558=VERTEX_POINT('',#1683);
#559=VERTEX_POINT('',#1685);
#560=VERTEX_POINT('',#1687);
#561=VERTEX_POINT('',#1689);
#562=VERTEX_POINT('',#1691);
#563=VERTEX_POINT('',#1693);
#564=VERTEX_POINT('',#1695);
#565=VERTEX_POINT('',#1697);
#566=VERTEX_POINT('',#1699);
#567=VERTEX_POINT('',#1701);
#568=VERTEX_POINT('',#1703);
#569=VERTEX_POINT('',#1705);
#570=VERTEX_POINT('',#1707);
#571=VERTEX_POINT('',#1709);
#572=VERTEX_POINT('',#1711);
#573=VERTEX_POINT('',#1713);
#574=VERTEX_POINT('',#1715);
#575=VERTEX_POINT('',#1717);
#576=VERTEX_POINT('',#1719);
#577=VERTEX_POINT('',#1721);
#578=VERTEX_POINT('',#1723);
#579=VERTEX_POINT('',#1725);
#580=VERTEX_POINT('',#1727);
#581=VERTEX_POINT('',#1729);
#582=VERTEX_POINT('',#1731);
#583=VERTEX_POINT('',#1733);
#584=VERTEX_POINT('',#1735);
#585=VERTEX_POINT('',#1737);
#586=VERTEX_POINT('',#1739);
#587=VERTEX_POINT('',#1741);
#588=VERTEX_POINT('',#1743);
#589=VERTEX_POINT('',#1745);
#590=VERTEX_POINT('',#1747);
#591=VERTEX_POINT('',#1749);
#592=VERTEX_POINT('',#1751);
#593=VERTEX_POINT('',#1753);
#594=VERTEX_POINT('',#1755);
#595=VERTEX_POINT('',#1757);
#596=VERTEX_POINT('',#1759);
#597=VERTEX_POINT('',#1761);
#598=VERTEX_POINT('',#1763);
#599=VERTEX_POINT('',#1765);
#600=VERTEX_POINT('',#1767);
#601=VERTEX_POINT('',#1769);
#602=VERTEX_POINT('',#1771);
#603=VERTEX_POINT('',#1773);
#604=VERTEX_POINT('',#1776);
#605=VERTEX_POINT('',#1777);
#606=VERTEX_POINT('',#1779);
#607=VERTEX_POINT('',#1781);
#608=VERTEX_POINT('',#1784);
#609=VERTEX_POINT('',#1785);
#610=VERTEX_POINT('',#1787);
#611=VERTEX_POINT('',#1789);
#612=VERTEX_POINT('',#1793);
#613=VERTEX_POINT('',#1794);
#614=VERTEX_POINT('',#1796);
#615=VERTEX_POINT('',#1798);
#616=VERTEX_POINT('',#1801);
#617=VERTEX_POINT('',#1802);
#618=VERTEX_POINT('',#1804);
#619=VERTEX_POINT('',#1806);
#620=VERTEX_POINT('',#1808);
#621=VERTEX_POINT('',#1810);
#622=VERTEX_POINT('',#1812);
#623=VERTEX_POINT('',#1814);
#624=VERTEX_POINT('',#1816);
#625=VERTEX_POINT('',#1818);
#626=VERTEX_POINT('',#1820);
#627=VERTEX_POINT('',#1822);
#628=VERTEX_POINT('',#1824);
#629=VERTEX_POINT('',#1826);
#630=VERTEX_POINT('',#1828);
#631=VERTEX_POINT('',#1830);
#632=VERTEX_POINT('',#1832);
#633=VERTEX_POINT('',#1834);
#634=VERTEX_POINT('',#1836);
#635=VERTEX_POINT('',#1838);
#636=VERTEX_POINT('',#1840);
#637=VERTEX_POINT('',#1842);
#638=VERTEX_POINT('',#1844);
#639=VERTEX_POINT('',#1846);
#640=VERTEX_POINT('',#1848);
#641=VERTEX_POINT('',#1850);
#642=VERTEX_POINT('',#1852);
#643=VERTEX_POINT('',#1854);
#644=VERTEX_POINT('',#1856);
#645=VERTEX_POINT('',#1858);
#646=VERTEX_POINT('',#1860);
#647=VERTEX_POINT('',#1862);
#648=VERTEX_POINT('',#1864);
#649=VERTEX_POINT('',#1866);
#650=VERTEX_POINT('',#1868);
#651=VERTEX_POINT('',#1870);
#652=VERTEX_POINT('',#1872);
#653=VERTEX_POINT('',#1874);
#654=VERTEX_POINT('',#1876);
#655=VERTEX_POINT('',#1878);
#656=VERTEX_POINT('',#1880);
#657=VERTEX_POINT('',#1882);
#658=VERTEX_POINT('',#1884);
#659=VERTEX_POINT('',#1886);
#660=VERTEX_POINT('',#1888);
#661=VERTEX_POINT('',#1890);
#662=VERTEX_POINT('',#1892);
#663=VERTEX_POINT('',#1894);
#664=VERTEX_POINT('',#1896);
#665=VERTEX_POINT('',#1898);
#666=VERTEX_POINT('',#1900);
#667=VERTEX_POINT('',#1902);
#668=VERTEX_POINT('',#1905);
#669=VERTEX_POINT('',#1906);
#670=VERTEX_POINT('',#1908);
#671=VERTEX_POINT('',#1910);
#672=LINE('',#1671,#852);
#673=LINE('',#1674,#853);
#674=LINE('',#1676,#854);
#675=LINE('',#1678,#855);
#676=LINE('',#1680,#856);
#677=LINE('',#1682,#857);
#678=LINE('',#1684,#858);
#679=LINE('',#1686,#859);
#680=LINE('',#1688,#860);
#681=LINE('',#1690,#861);
#682=LINE('',#1692,#862);
#683=LINE('',#1694,#863);
#684=LINE('',#1696,#864);
#685=LINE('',#1698,#865);
#686=LINE('',#1700,#866);
#687=LINE('',#1702,#867);
#688=LINE('',#1704,#868);
#689=LINE('',#1706,#869);
#690=LINE('',#1708,#870);
#691=LINE('',#1710,#871);
#692=LINE('',#1712,#872);
#693=LINE('',#1714,#873);
#694=LINE('',#1716,#874);
#695=LINE('',#1718,#875);
#696=LINE('',#1720,#876);
#697=LINE('',#1722,#877);
#698=LINE('',#1724,#878);
#699=LINE('',#1726,#879);
#700=LINE('',#1728,#880);
#701=LINE('',#1730,#881);
#702=LINE('',#1732,#882);
#703=LINE('',#1734,#883);
#704=LINE('',#1736,#884);
#705=LINE('',#1738,#885);
#706=LINE('',#1740,#886);
#707=LINE('',#1742,#887);
#708=LINE('',#1744,#888);
#709=LINE('',#1746,#889);
#710=LINE('',#1748,#890);
#711=LINE('',#1750,#891);
#712=LINE('',#1752,#892);
#713=LINE('',#1754,#893);
#714=LINE('',#1756,#894);
#715=LINE('',#1758,#895);
#716=LINE('',#1760,#896);
#717=LINE('',#1762,#897);
#718=LINE('',#1764,#898);
#719=LINE('',#1766,#899);
#720=LINE('',#1768,#900);
#721=LINE('',#1770,#901);
#722=LINE('',#1772,#902);
#723=LINE('',#1774,#903);
#724=LINE('',#1775,#904);
#725=LINE('',#1778,#905);
#726=LINE('',#1780,#906);
#727=LINE('',#1782,#907);
#728=LINE('',#1783,#908);
#729=LINE('',#1786,#909);
#730=LINE('',#1788,#910);
#731=LINE('',#1790,#911);
#732=LINE('',#1792,#912);
#733=LINE('',#1795,#913);
#734=LINE('',#1797,#914);
#735=LINE('',#1799,#915);
#736=LINE('',#1800,#916);
#737=LINE('',#1803,#917);
#738=LINE('',#1805,#918);
#739=LINE('',#1807,#919);
#740=LINE('',#1809,#920);
#741=LINE('',#1811,#921);
#742=LINE('',#1813,#922);
#743=LINE('',#1815,#923);
#744=LINE('',#1817,#924);
#745=LINE('',#1819,#925);
#746=LINE('',#1821,#926);
#747=LINE('',#1823,#927);
#748=LINE('',#1825,#928);
#749=LINE('',#1827,#929);
#750=LINE('',#1829,#930);
#751=LINE('',#1831,#931);
#752=LINE('',#1833,#932);
#753=LINE('',#1835,#933);
#754=LINE('',#1837,#934);
#755=LINE('',#1839,#935);
#756=LINE('',#1841,#936);
#757=LINE('',#1843,#937);
#758=LINE('',#1845,#938);
#759=LINE('',#1847,#939);
#760=LINE('',#1849,#940);
#761=LINE('',#1851,#941);
#762=LINE('',#1853,#942);
#763=LINE('',#1855,#943);
#764=LINE('',#1857,#944);
#765=LINE('',#1859,#945);
#766=LINE('',#1861,#946);
#767=LINE('',#1863,#947);
#768=LINE('',#1865,#948);
#769=LINE('',#1867,#949);
#770=LINE('',#1869,#950);
#771=LINE('',#1871,#951);
#772=LINE('',#1873,#952);
#773=LINE('',#1875,#953);
#774=LINE('',#1877,#954);
#775=LINE('',#1879,#955);
#776=LINE('',#1881,#956);
#777=LINE('',#1883,#957);
#778=LINE('',#1885,#958);
#779=LINE('',#1887,#959);
#780=LINE('',#1889,#960);
#781=LINE('',#1891,#961);
#782=LINE('',#1893,#962);
#783=LINE('',#1895,#963);
#784=LINE('',#1897,#964);
#785=LINE('',#1899,#965);
#786=LINE('',#1901,#966);
#787=LINE('',#1903,#967);
#788=LINE('',#1904,#968);
#789=LINE('',#1907,#969);
#790=LINE('',#1909,#970);
#791=LINE('',#1911,#971);
#792=LINE('',#1913,#972);
#793=LINE('',#1914,#973);
#794=LINE('',#1916,#974);
#795=LINE('',#1917,#975);
#796=LINE('',#1919,#976);
#797=LINE('',#1920,#977);
#798=LINE('',#1922,#978);
#799=LINE('',#1923,#979);
#800=LINE('',#1925,#980);
#801=LINE('',#1926,#981);
#802=LINE('',#1928,#982);
#803=LINE('',#1929,#983);
#804=LINE('',#1931,#984);
#805=LINE('',#1932,#985);
#806=LINE('',#1934,#986);
#807=LINE('',#1935,#987);
#808=LINE('',#1937,#988);
#809=LINE('',#1938,#989);
#810=LINE('',#1940,#990);
#811=LINE('',#1941,#991);
#812=LINE('',#1943,#992);
#813=LINE('',#1944,#993);
#814=LINE('',#1946,#994);
#815=LINE('',#1947,#995);
#816=LINE('',#1949,#996);
#817=LINE('',#1951,#997);
#818=LINE('',#1953,#998);
#819=LINE('',#1954,#999);
#820=LINE('',#1956,#1000);
#821=LINE('',#1958,#1001);
#822=LINE('',#1960,#1002);
#823=LINE('',#1963,#1003);
#824=LINE('',#1965,#1004);
#825=LINE('',#1968,#1005);
#826=LINE('',#1969,#1006);
#827=LINE('',#1973,#1007);
#828=LINE('',#1975,#1008);
#829=LINE('',#1978,#1009);
#830=LINE('',#1979,#1010);
#831=LINE('',#1983,#1011);
#832=LINE('',#1985,#1012);
#833=LINE('',#1988,#1013);
#834=LINE('',#1989,#1014);
#835=LINE('',#1993,#1015);
#836=LINE('',#1994,#1016);
#837=LINE('',#1999,#1017);
#838=LINE('',#2001,#1018);
#839=LINE('',#2005,#1019);
#840=LINE('',#2007,#1020);
#841=LINE('',#2009,#1021);
#842=LINE('',#2012,#1022);
#843=LINE('',#2014,#1023);
#844=LINE('',#2017,#1024);
#845=LINE('',#2018,#1025);
#846=LINE('',#2020,#1026);
#847=LINE('',#2022,#1027);
#848=LINE('',#2025,#1028);
#849=LINE('',#2026,#1029);
#850=LINE('',#2028,#1030);
#851=LINE('',#2030,#1031);
#852=VECTOR('',#1367,1.);
#853=VECTOR('',#1368,1.);
#854=VECTOR('',#1369,1.);
#855=VECTOR('',#1370,1.);
#856=VECTOR('',#1371,1.);
#857=VECTOR('',#1372,1.);
#858=VECTOR('',#1373,1.);
#859=VECTOR('',#1374,1.);
#860=VECTOR('',#1375,1.);
#861=VECTOR('',#1376,1.);
#862=VECTOR('',#1377,1.);
#863=VECTOR('',#1378,1.);
#864=VECTOR('',#1379,1.);
#865=VECTOR('',#1380,1.);
#866=VECTOR('',#1381,1.);
#867=VECTOR('',#1382,1.);
#868=VECTOR('',#1383,1.);
#869=VECTOR('',#1384,1.);
#870=VECTOR('',#1385,1.);
#871=VECTOR('',#1386,1.);
#872=VECTOR('',#1387,1.);
#873=VECTOR('',#1388,1.);
#874=VECTOR('',#1389,1.);
#875=VECTOR('',#1390,1.);
#876=VECTOR('',#1391,1.);
#877=VECTOR('',#1392,1.);
#878=VECTOR('',#1393,1.);
#879=VECTOR('',#1394,1.);
#880=VECTOR('',#1395,1.);
#881=VECTOR('',#1396,1.);
#882=VECTOR('',#1397,1.);
#883=VECTOR('',#1398,1.);
#884=VECTOR('',#1399,1.);
#885=VECTOR('',#1400,1.);
#886=VECTOR('',#1401,1.);
#887=VECTOR('',#1402,1.);
#888=VECTOR('',#1403,1.);
#889=VECTOR('',#1404,1.);
#890=VECTOR('',#1405,1.);
#891=VECTOR('',#1406,1.);
#892=VECTOR('',#1407,1.);
#893=VECTOR('',#1408,1.);
#894=VECTOR('',#1409,1.);
#895=VECTOR('',#1410,1.);
#896=VECTOR('',#1411,1.);
#897=VECTOR('',#1412,1.);
#898=VECTOR('',#1413,1.);
#899=VECTOR('',#1414,1.);
#900=VECTOR('',#1415,1.);
#901=VECTOR('',#1416,1.);
#902=VECTOR('',#1417,1.);
#903=VECTOR('',#1418,1.);
#904=VECTOR('',#1419,1.);
#905=VECTOR('',#1420,1.);
#906=VECTOR('',#1421,1.);
#907=VECTOR('',#1422,1.);
#908=VECTOR('',#1423,1.);
#909=VECTOR('',#1424,1.);
#910=VECTOR('',#1425,1.);
#911=VECTOR('',#1426,1.);
#912=VECTOR('',#1429,1.);
#913=VECTOR('',#1430,1.);
#914=VECTOR('',#1431,1.);
#915=VECTOR('',#1432,1.);
#916=VECTOR('',#1433,1.);
#917=VECTOR('',#1434,1.);
#918=VECTOR('',#1435,1.);
#919=VECTOR('',#1436,1.);
#920=VECTOR('',#1437,1.);
#921=VECTOR('',#1438,1.);
#922=VECTOR('',#1439,1.);
#923=VECTOR('',#1440,1.);
#924=VECTOR('',#1441,1.);
#925=VECTOR('',#1442,1.);
#926=VECTOR('',#1443,1.);
#927=VECTOR('',#1444,1.);
#928=VECTOR('',#1445,1.);
#929=VECTOR('',#1446,1.);
#930=VECTOR('',#1447,1.);
#931=VECTOR('',#1448,1.);
#932=VECTOR('',#1449,1.);
#933=VECTOR('',#1450,1.);
#934=VECTOR('',#1451,1.);
#935=VECTOR('',#1452,1.);
#936=VECTOR('',#1453,1.);
#937=VECTOR('',#1454,1.);
#938=VECTOR('',#1455,1.);
#939=VECTOR('',#1456,1.);
#940=VECTOR('',#1457,1.);
#941=VECTOR('',#1458,1.);
#942=VECTOR('',#1459,1.);
#943=VECTOR('',#1460,1.);
#944=VECTOR('',#1461,1.);
#945=VECTOR('',#1462,1.);
#946=VECTOR('',#1463,1.);
#947=VECTOR('',#1464,1.);
#948=VECTOR('',#1465,1.);
#949=VECTOR('',#1466,1.);
#950=VECTOR('',#1467,1.);
#951=VECTOR('',#1468,1.);
#952=VECTOR('',#1469,1.);
#953=VECTOR('',#1470,1.);
#954=VECTOR('',#1471,1.);
#955=VECTOR('',#1472,1.);
#956=VECTOR('',#1473,1.);
#957=VECTOR('',#1474,1.);
#958=VECTOR('',#1475,1.);
#959=VECTOR('',#1476,1.);
#960=VECTOR('',#1477,1.);
#961=VECTOR('',#1478,1.);
#962=VECTOR('',#1479,1.);
#963=VECTOR('',#1480,1.);
#964=VECTOR('',#1481,1.);
#965=VECTOR('',#1482,1.);
#966=VECTOR('',#1483,1.);
#967=VECTOR('',#1484,1.);
#968=VECTOR('',#1485,1.);
#969=VECTOR('',#1486,1.);
#970=VECTOR('',#1487,1.);
#971=VECTOR('',#1488,1.);
#972=VECTOR('',#1491,1.);
#973=VECTOR('',#1492,1.);
#974=VECTOR('',#1495,1.);
#975=VECTOR('',#1496,1.);
#976=VECTOR('',#1499,1.);
#977=VECTOR('',#1500,1.);
#978=VECTOR('',#1503,1.);
#979=VECTOR('',#1504,1.);
#980=VECTOR('',#1507,1.);
#981=VECTOR('',#1508,1.);
#982=VECTOR('',#1511,1.);
#983=VECTOR('',#1512,1.);
#984=VECTOR('',#1515,1.);
#985=VECTOR('',#1516,1.);
#986=VECTOR('',#1519,1.);
#987=VECTOR('',#1520,1.);
#988=VECTOR('',#1523,1.);
#989=VECTOR('',#1524,1.);
#990=VECTOR('',#1527,1.);
#991=VECTOR('',#1528,1.);
#992=VECTOR('',#1531,1.);
#993=VECTOR('',#1532,1.);
#994=VECTOR('',#1535,1.);
#995=VECTOR('',#1536,1.);
#996=VECTOR('',#1539,1.);
#997=VECTOR('',#1542,1.);
#998=VECTOR('',#1545,1.);
#999=VECTOR('',#1546,1.);
#1000=VECTOR('',#1549,1.);
#1001=VECTOR('',#1552,1.);
#1002=VECTOR('',#1555,1.);
#1003=VECTOR('',#1560,1.);
#1004=VECTOR('',#1563,1.);
#1005=VECTOR('',#1568,1.);
#1006=VECTOR('',#1569,1.);
#1007=VECTOR('',#1576,1.);
#1008=VECTOR('',#1579,1.);
#1009=VECTOR('',#1584,1.);
#1010=VECTOR('',#1585,1.);
#1011=VECTOR('',#1592,1.);
#1012=VECTOR('',#1595,1.);
#1013=VECTOR('',#1600,1.);
#1014=VECTOR('',#1601,1.);
#1015=VECTOR('',#1608,1.);
#1016=VECTOR('',#1609,1.);
#1017=VECTOR('',#1618,1.);
#1018=VECTOR('',#1621,1.);
#1019=VECTOR('',#1628,1.);
#1020=VECTOR('',#1631,1.);
#1021=VECTOR('',#1634,1.);
#1022=VECTOR('',#1639,1.);
#1023=VECTOR('',#1642,1.);
#1024=VECTOR('',#1647,1.);
#1025=VECTOR('',#1648,1.);
#1026=VECTOR('',#1651,1.);
#1027=VECTOR('',#1654,1.);
#1028=VECTOR('',#1659,1.);
#1029=VECTOR('',#1660,1.);
#1030=VECTOR('',#1663,1.);
#1031=VECTOR('',#1666,1.);
#1032=EDGE_LOOP('',(#12,#13,#14,#15,#16,#17,#18,#19,#20,#21,#22,#23,#24,
#25,#26,#27,#28,#29,#30,#31,#32,#33,#34,#35,#36,#37,#38,#39,#40,#41,#42,
#43,#44,#45,#46,#47,#48,#49,#50,#51,#52,#53,#54,#55,#56,#57,#58,#59,#60,
#61,#62,#63));
#1033=EDGE_LOOP('',(#64,#65,#66,#67));
#1034=EDGE_LOOP('',(#68,#69,#70,#71));
#1035=EDGE_LOOP('',(#72,#73,#74,#75));
#1036=EDGE_LOOP('',(#76,#77,#78,#79,#80,#81,#82,#83,#84,#85,#86,#87,#88,
#89,#90,#91,#92,#93,#94,#95,#96,#97,#98,#99,#100,#101,#102,#103,#104,#105,
#106,#107,#108,#109,#110,#111,#112,#113,#114,#115,#116,#117,#118,#119,#120,
#121,#122,#123,#124,#125,#126,#127));
#1037=EDGE_LOOP('',(#128,#129,#130,#131));
#1038=EDGE_LOOP('',(#132,#133,#134,#135));
#1039=EDGE_LOOP('',(#136,#137,#138,#139));
#1040=EDGE_LOOP('',(#140,#141,#142,#143));
#1041=EDGE_LOOP('',(#144,#145,#146,#147));
#1042=EDGE_LOOP('',(#148,#149,#150,#151));
#1043=EDGE_LOOP('',(#152,#153,#154,#155));
#1044=EDGE_LOOP('',(#156,#157,#158,#159));
#1045=EDGE_LOOP('',(#160,#161,#162,#163));
#1046=EDGE_LOOP('',(#164,#165,#166,#167));
#1047=EDGE_LOOP('',(#168,#169,#170,#171));
#1048=EDGE_LOOP('',(#172,#173,#174,#175));
#1049=EDGE_LOOP('',(#176,#177,#178,#179));
#1050=EDGE_LOOP('',(#180,#181,#182,#183));
#1051=EDGE_LOOP('',(#184,#185,#186,#187));
#1052=EDGE_LOOP('',(#188,#189,#190,#191));
#1053=EDGE_LOOP('',(#192,#193,#194,#195));
#1054=EDGE_LOOP('',(#196,#197,#198,#199));
#1055=EDGE_LOOP('',(#200,#201,#202,#203));
#1056=EDGE_LOOP('',(#204,#205,#206,#207));
#1057=EDGE_LOOP('',(#208,#209,#210,#211));
#1058=EDGE_LOOP('',(#212,#213,#214,#215));
#1059=EDGE_LOOP('',(#216,#217,#218,#219));
#1060=EDGE_LOOP('',(#220,#221,#222,#223));
#1061=EDGE_LOOP('',(#224,#225,#226,#227));
#1062=EDGE_LOOP('',(#228,#229,#230,#231));
#1063=EDGE_LOOP('',(#232,#233,#234,#235));
#1064=EDGE_LOOP('',(#236,#237,#238,#239));
#1065=EDGE_LOOP('',(#240,#241,#242,#243));
#1066=EDGE_LOOP('',(#244,#245,#246,#247));
#1067=EDGE_LOOP('',(#248,#249,#250,#251));
#1068=EDGE_LOOP('',(#252,#253,#254,#255));
#1069=EDGE_LOOP('',(#256,#257,#258,#259));
#1070=EDGE_LOOP('',(#260,#261,#262,#263));
#1071=EDGE_LOOP('',(#264,#265,#266,#267));
#1072=EDGE_LOOP('',(#268,#269,#270,#271));
#1073=EDGE_LOOP('',(#272,#273,#274,#275));
#1074=EDGE_LOOP('',(#276,#277,#278,#279));
#1075=EDGE_LOOP('',(#280,#281,#282,#283));
#1076=EDGE_LOOP('',(#284,#285,#286,#287));
#1077=EDGE_LOOP('',(#288,#289,#290,#291));
#1078=EDGE_LOOP('',(#292,#293,#294,#295));
#1079=EDGE_LOOP('',(#296,#297,#298,#299));
#1080=EDGE_LOOP('',(#300,#301,#302,#303));
#1081=EDGE_LOOP('',(#304,#305,#306,#307));
#1082=EDGE_LOOP('',(#308,#309,#310,#311));
#1083=EDGE_LOOP('',(#312,#313,#314,#315));
#1084=EDGE_LOOP('',(#316,#317,#318,#319));
#1085=EDGE_LOOP('',(#320,#321,#322,#323));
#1086=EDGE_LOOP('',(#324,#325,#326,#327));
#1087=EDGE_LOOP('',(#328,#329,#330,#331));
#1088=EDGE_LOOP('',(#332,#333,#334,#335));
#1089=EDGE_LOOP('',(#336,#337,#338,#339));
#1090=EDGE_LOOP('',(#340,#341,#342,#343));
#1091=EDGE_LOOP('',(#344,#345,#346,#347));
#1092=EDGE_LOOP('',(#348,#349,#350,#351));
#1093=EDGE_LOOP('',(#352,#353,#354,#355));
#1094=EDGE_LOOP('',(#356,#357,#358,#359));
#1095=EDGE_LOOP('',(#360,#361,#362,#363));
#1096=EDGE_LOOP('',(#364,#365,#366,#367));
#1097=EDGE_LOOP('',(#368,#369,#370,#371));
#1098=FACE_BOUND('',#1032,.T.);
#1099=FACE_BOUND('',#1033,.T.);
#1100=FACE_BOUND('',#1034,.T.);
#1101=FACE_BOUND('',#1035,.T.);
#1102=FACE_BOUND('',#1036,.T.);
#1103=FACE_BOUND('',#1037,.T.);
#1104=FACE_BOUND('',#1038,.T.);
#1105=FACE_BOUND('',#1039,.T.);
#1106=FACE_BOUND('',#1040,.T.);
#1107=FACE_BOUND('',#1041,.T.);
#1108=FACE_BOUND('',#1042,.T.);
#1109=FACE_BOUND('',#1043,.T.);
#1110=FACE_BOUND('',#1044,.T.);
#1111=FACE_BOUND('',#1045,.T.);
#1112=FACE_BOUND('',#1046,.T.);
#1113=FACE_BOUND('',#1047,.T.);
#1114=FACE_BOUND('',#1048,.T.);
#1115=FACE_BOUND('',#1049,.T.);
#1116=FACE_BOUND('',#1050,.T.);
#1117=FACE_BOUND('',#1051,.T.);
#1118=FACE_BOUND('',#1052,.T.);
#1119=FACE_BOUND('',#1053,.T.);
#1120=FACE_BOUND('',#1054,.T.);
#1121=FACE_BOUND('',#1055,.T.);
#1122=FACE_BOUND('',#1056,.T.);
#1123=FACE_BOUND('',#1057,.T.);
#1124=FACE_BOUND('',#1058,.T.);
#1125=FACE_BOUND('',#1059,.T.);
#1126=FACE_BOUND('',#1060,.T.);
#1127=FACE_BOUND('',#1061,.T.);
#1128=FACE_BOUND('',#1062,.T.);
#1129=FACE_BOUND('',#1063,.T.);
#1130=FACE_BOUND('',#1064,.T.);
#1131=FACE_BOUND('',#1065,.T.);
#1132=FACE_BOUND('',#1066,.T.);
#1133=FACE_BOUND('',#1067,.T.);
#1134=FACE_BOUND('',#1068,.T.);
#1135=FACE_BOUND('',#1069,.T.);
#1136=FACE_BOUND('',#1070,.T.);
#1137=FACE_BOUND('',#1071,.T.);
#1138=FACE_BOUND('',#1072,.T.);
#1139=FACE_BOUND('',#1073,.T.);
#1140=FACE_BOUND('',#1074,.T.);
#1141=FACE_BOUND('',#1075,.T.);
#1142=FACE_BOUND('',#1076,.T.);
#1143=FACE_BOUND('',#1077,.T.);
#1144=FACE_BOUND('',#1078,.T.);
#1145=FACE_BOUND('',#1079,.T.);
#1146=FACE_BOUND('',#1080,.T.);
#1147=FACE_BOUND('',#1081,.T.);
#1148=FACE_BOUND('',#1082,.T.);
#1149=FACE_BOUND('',#1083,.T.);
#1150=FACE_BOUND('',#1084,.T.);
#1151=FACE_BOUND('',#1085,.T.);
#1152=FACE_BOUND('',#1086,.T.);
#1153=FACE_BOUND('',#1087,.T.);
#1154=FACE_BOUND('',#1088,.T.);
#1155=FACE_BOUND('',#1089,.T.);
#1156=FACE_BOUND('',#1090,.T.);
#1157=FACE_BOUND('',#1091,.T.);
#1158=FACE_BOUND('',#1092,.T.);
#1159=FACE_BOUND('',#1093,.T.);
#1160=FACE_BOUND('',#1094,.T.);
#1161=FACE_BOUND('',#1095,.T.);
#1162=FACE_BOUND('',#1096,.T.);
#1163=FACE_BOUND('',#1097,.T.);
#1164=PLANE('',#1301);
#1165=PLANE('',#1302);
#1166=PLANE('',#1303);
#1167=PLANE('',#1304);
#1168=PLANE('',#1305);
#1169=PLANE('',#1306);
#1170=PLANE('',#1307);
#1171=PLANE('',#1308);
#1172=PLANE('',#1309);
#1173=PLANE('',#1310);
#1174=PLANE('',#1311);
#1175=PLANE('',#1312);
#1176=PLANE('',#1313);
#1177=PLANE('',#1314);
#1178=PLANE('',#1315);
#1179=PLANE('',#1316);
#1180=PLANE('',#1317);
#1181=PLANE('',#1318);
#1182=PLANE('',#1319);
#1183=PLANE('',#1320);
#1184=PLANE('',#1321);
#1185=PLANE('',#1322);
#1186=PLANE('',#1323);
#1187=PLANE('',#1324);
#1188=PLANE('',#1325);
#1189=PLANE('',#1326);
#1190=PLANE('',#1327);
#1191=PLANE('',#1328);
#1192=PLANE('',#1329);
#1193=PLANE('',#1330);
#1194=PLANE('',#1331);
#1195=PLANE('',#1332);
#1196=PLANE('',#1333);
#1197=PLANE('',#1334);
#1198=PLANE('',#1335);
#1199=PLANE('',#1336);
#1200=PLANE('',#1337);
#1201=PLANE('',#1338);
#1202=PLANE('',#1339);
#1203=PLANE('',#1340);
#1204=PLANE('',#1341);
#1205=PLANE('',#1342);
#1206=PLANE('',#1343);
#1207=PLANE('',#1344);
#1208=PLANE('',#1345);
#1209=PLANE('',#1346);
#1210=PLANE('',#1347);
#1211=PLANE('',#1348);
#1212=PLANE('',#1349);
#1213=PLANE('',#1350);
#1214=PLANE('',#1351);
#1215=PLANE('',#1352);
#1216=PLANE('',#1353);
#1217=PLANE('',#1354);
#1218=PLANE('',#1355);
#1219=PLANE('',#1356);
#1220=PLANE('',#1357);
#1221=PLANE('',#1358);
#1222=PLANE('',#1359);
#1223=PLANE('',#1360);
#1224=PLANE('',#1361);
#1225=PLANE('',#1362);
#1226=ADVANCED_FACE('',(#1098,#1099,#1100),#1164,.T.);
#1227=ADVANCED_FACE('',(#1101,#1102,#1103),#1165,.F.);
#1228=ADVANCED_FACE('',(#1104),#1166,.T.);
#1229=ADVANCED_FACE('',(#1105),#1167,.T.);
#1230=ADVANCED_FACE('',(#1106),#1168,.F.);
#1231=ADVANCED_FACE('',(#1107),#1169,.F.);
#1232=ADVANCED_FACE('',(#1108),#1170,.T.);
#1233=ADVANCED_FACE('',(#1109),#1171,.T.);
#1234=ADVANCED_FACE('',(#1110),#1172,.T.);
#1235=ADVANCED_FACE('',(#1111),#1173,.T.);
#1236=ADVANCED_FACE('',(#1112),#1174,.T.);
#1237=ADVANCED_FACE('',(#1113),#1175,.F.);
#1238=ADVANCED_FACE('',(#1114),#1176,.F.);
#1239=ADVANCED_FACE('',(#1115),#1177,.F.);
#1240=ADVANCED_FACE('',(#1116),#1178,.F.);
#1241=ADVANCED_FACE('',(#1117),#1179,.T.);
#1242=ADVANCED_FACE('',(#1118),#1180,.T.);
#1243=ADVANCED_FACE('',(#1119),#1181,.F.);
#1244=ADVANCED_FACE('',(#1120),#1182,.T.);
#1245=ADVANCED_FACE('',(#1121),#1183,.F.);
#1246=ADVANCED_FACE('',(#1122),#1184,.F.);
#1247=ADVANCED_FACE('',(#1123),#1185,.F.);
#1248=ADVANCED_FACE('',(#1124),#1186,.F.);
#1249=ADVANCED_FACE('',(#1125),#1187,.T.);
#1250=ADVANCED_FACE('',(#1126),#1188,.F.);
#1251=ADVANCED_FACE('',(#1127),#1189,.F.);
#1252=ADVANCED_FACE('',(#1128),#1190,.T.);
#1253=ADVANCED_FACE('',(#1129),#1191,.F.);
#1254=ADVANCED_FACE('',(#1130),#1192,.F.);
#1255=ADVANCED_FACE('',(#1131),#1193,.T.);
#1256=ADVANCED_FACE('',(#1132),#1194,.T.);
#1257=ADVANCED_FACE('',(#1133),#1195,.F.);
#1258=ADVANCED_FACE('',(#1134),#1196,.T.);
#1259=ADVANCED_FACE('',(#1135),#1197,.T.);
#1260=ADVANCED_FACE('',(#1136),#1198,.F.);
#1261=ADVANCED_FACE('',(#1137),#1199,.T.);
#1262=ADVANCED_FACE('',(#1138),#1200,.T.);
#1263=ADVANCED_FACE('',(#1139),#1201,.T.);
#1264=ADVANCED_FACE('',(#1140),#1202,.T.);
#1265=ADVANCED_FACE('',(#1141),#1203,.T.);
#1266=ADVANCED_FACE('',(#1142),#1204,.F.);
#1267=ADVANCED_FACE('',(#1143),#1205,.T.);
#1268=ADVANCED_FACE('',(#1144),#1206,.F.);
#1269=ADVANCED_FACE('',(#1145),#1207,.F.);
#1270=ADVANCED_FACE('',(#1146),#1208,.F.);
#1271=ADVANCED_FACE('',(#1147),#1209,.T.);
#1272=ADVANCED_FACE('',(#1148),#1210,.T.);
#1273=ADVANCED_FACE('',(#1149),#1211,.T.);
#1274=ADVANCED_FACE('',(#1150),#1212,.F.);
#1275=ADVANCED_FACE('',(#1151),#1213,.T.);
#1276=ADVANCED_FACE('',(#1152),#1214,.F.);
#1277=ADVANCED_FACE('',(#1153),#1215,.T.);
#1278=ADVANCED_FACE('',(#1154),#1216,.F.);
#1279=ADVANCED_FACE('',(#1155),#1217,.F.);
#1280=ADVANCED_FACE('',(#1156),#1218,.T.);
#1281=ADVANCED_FACE('',(#1157),#1219,.F.);
#1282=ADVANCED_FACE('',(#1158),#1220,.F.);
#1283=ADVANCED_FACE('',(#1159),#1221,.T.);
#1284=ADVANCED_FACE('',(#1160),#1222,.T.);
#1285=ADVANCED_FACE('',(#1161),#1223,.T.);
#1286=ADVANCED_FACE('',(#1162),#1224,.T.);
#1287=ADVANCED_FACE('',(#1163),#1225,.F.);
#1288=CLOSED_SHELL('',(#1226,#1227,#1228,#1229,#1230,#1231,#1232,#1233,
#1234,#1235,#1236,#1237,#1238,#1239,#1240,#1241,#1242,#1243,#1244,#1245,
#1246,#1247,#1248,#1249,#1250,#1251,#1252,#1253,#1254,#1255,#1256,#1257,
#1258,#1259,#1260,#1261,#1262,#1263,#1264,#1265,#1266,#1267,#1268,#1269,
#1270,#1271,#1272,#1273,#1274,#1275,#1276,#1277,#1278,#1279,#1280,#1281,
#1282,#1283,#1284,#1285,#1286,#1287));
#1289=STYLED_ITEM('',(#1290),#1297);
#1290=PRESENTATION_STYLE_ASSIGNMENT((#1291));
#1291=SURFACE_STYLE_USAGE(.BOTH.,#1292);
#1292=SURFACE_SIDE_STYLE('',(#1293));
#1293=SURFACE_STYLE_FILL_AREA(#1294);
#1294=FILL_AREA_STYLE('',(#1295));
#1295=FILL_AREA_STYLE_COLOUR('',#1296);
#1296=DRAUGHTING_PRE_DEFINED_COLOUR('black');
#1297=MANIFOLD_SOLID_BREP('Part 18',#1288);
#1298=SHAPE_DEFINITION_REPRESENTATION(#2038,#1299);
#1299=SHAPE_REPRESENTATION('Part 18',(#1300),#2033);
#1300=AXIS2_PLACEMENT_3D('',#1669,#1363,#1364);
#1301=AXIS2_PLACEMENT_3D('',#1670,#1365,#1366);
#1302=AXIS2_PLACEMENT_3D('',#1791,#1427,#1428);
#1303=AXIS2_PLACEMENT_3D('',#1912,#1489,#1490);
#1304=AXIS2_PLACEMENT_3D('',#1915,#1493,#1494);
#1305=AXIS2_PLACEMENT_3D('',#1918,#1497,#1498);
#1306=AXIS2_PLACEMENT_3D('',#1921,#1501,#1502);
#1307=AXIS2_PLACEMENT_3D('',#1924,#1505,#1506);
#1308=AXIS2_PLACEMENT_3D('',#1927,#1509,#1510);
#1309=AXIS2_PLACEMENT_3D('',#1930,#1513,#1514);
#1310=AXIS2_PLACEMENT_3D('',#1933,#1517,#1518);
#1311=AXIS2_PLACEMENT_3D('',#1936,#1521,#1522);
#1312=AXIS2_PLACEMENT_3D('',#1939,#1525,#1526);
#1313=AXIS2_PLACEMENT_3D('',#1942,#1529,#1530);
#1314=AXIS2_PLACEMENT_3D('',#1945,#1533,#1534);
#1315=AXIS2_PLACEMENT_3D('',#1948,#1537,#1538);
#1316=AXIS2_PLACEMENT_3D('',#1950,#1540,#1541);
#1317=AXIS2_PLACEMENT_3D('',#1952,#1543,#1544);
#1318=AXIS2_PLACEMENT_3D('',#1955,#1547,#1548);
#1319=AXIS2_PLACEMENT_3D('',#1957,#1550,#1551);
#1320=AXIS2_PLACEMENT_3D('',#1959,#1553,#1554);
#1321=AXIS2_PLACEMENT_3D('',#1961,#1556,#1557);
#1322=AXIS2_PLACEMENT_3D('',#1962,#1558,#1559);
#1323=AXIS2_PLACEMENT_3D('',#1964,#1561,#1562);
#1324=AXIS2_PLACEMENT_3D('',#1966,#1564,#1565);
#1325=AXIS2_PLACEMENT_3D('',#1967,#1566,#1567);
#1326=AXIS2_PLACEMENT_3D('',#1970,#1570,#1571);
#1327=AXIS2_PLACEMENT_3D('',#1971,#1572,#1573);
#1328=AXIS2_PLACEMENT_3D('',#1972,#1574,#1575);
#1329=AXIS2_PLACEMENT_3D('',#1974,#1577,#1578);
#1330=AXIS2_PLACEMENT_3D('',#1976,#1580,#1581);
#1331=AXIS2_PLACEMENT_3D('',#1977,#1582,#1583);
#1332=AXIS2_PLACEMENT_3D('',#1980,#1586,#1587);
#1333=AXIS2_PLACEMENT_3D('',#1981,#1588,#1589);
#1334=AXIS2_PLACEMENT_3D('',#1982,#1590,#1591);
#1335=AXIS2_PLACEMENT_3D('',#1984,#1593,#1594);
#1336=AXIS2_PLACEMENT_3D('',#1986,#1596,#1597);
#1337=AXIS2_PLACEMENT_3D('',#1987,#1598,#1599);
#1338=AXIS2_PLACEMENT_3D('',#1990,#1602,#1603);
#1339=AXIS2_PLACEMENT_3D('',#1991,#1604,#1605);
#1340=AXIS2_PLACEMENT_3D('',#1992,#1606,#1607);
#1341=AXIS2_PLACEMENT_3D('',#1995,#1610,#1611);
#1342=AXIS2_PLACEMENT_3D('',#1996,#1612,#1613);
#1343=AXIS2_PLACEMENT_3D('',#1997,#1614,#1615);
#1344=AXIS2_PLACEMENT_3D('',#1998,#1616,#1617);
#1345=AXIS2_PLACEMENT_3D('',#2000,#1619,#1620);
#1346=AXIS2_PLACEMENT_3D('',#2002,#1622,#1623);
#1347=AXIS2_PLACEMENT_3D('',#2003,#1624,#1625);
#1348=AXIS2_PLACEMENT_3D('',#2004,#1626,#1627);
#1349=AXIS2_PLACEMENT_3D('',#2006,#1629,#1630);
#1350=AXIS2_PLACEMENT_3D('',#2008,#1632,#1633);
#1351=AXIS2_PLACEMENT_3D('',#2010,#1635,#1636);
#1352=AXIS2_PLACEMENT_3D('',#2011,#1637,#1638);
#1353=AXIS2_PLACEMENT_3D('',#2013,#1640,#1641);
#1354=AXIS2_PLACEMENT_3D('',#2015,#1643,#1644);
#1355=AXIS2_PLACEMENT_3D('',#2016,#1645,#1646);
#1356=AXIS2_PLACEMENT_3D('',#2019,#1649,#1650);
#1357=AXIS2_PLACEMENT_3D('',#2021,#1652,#1653);
#1358=AXIS2_PLACEMENT_3D('',#2023,#1655,#1656);
#1359=AXIS2_PLACEMENT_3D('',#2024,#1657,#1658);
#1360=AXIS2_PLACEMENT_3D('',#2027,#1661,#1662);
#1361=AXIS2_PLACEMENT_3D('',#2029,#1664,#1665);
#1362=AXIS2_PLACEMENT_3D('',#2031,#1667,#1668);
#1363=DIRECTION('',(0.,0.,1.));
#1364=DIRECTION('',(1.,0.,0.));
#1365=DIRECTION('',(0.,0.,-1.));
#1366=DIRECTION('',(1.,0.,0.));
#1367=DIRECTION('',(1.,0.,0.));
#1368=DIRECTION('',(0.,1.,0.));
#1369=DIRECTION('',(-1.,0.,0.));
#1370=DIRECTION('',(0.,1.,0.));
#1371=DIRECTION('',(1.,0.,0.));
#1372=DIRECTION('',(0.,1.,0.));
#1373=DIRECTION('',(-1.,0.,0.));
#1374=DIRECTION('',(0.,-1.,0.));
#1375=DIRECTION('',(1.,0.,0.));
#1376=DIRECTION('',(0.,1.,0.));
#1377=DIRECTION('',(1.,0.,0.));
#1378=DIRECTION('',(0.,-1.,0.));
#1379=DIRECTION('',(-1.,0.,0.));
#1380=DIRECTION('',(0.,1.,0.));
#1381=DIRECTION('',(-1.,0.,0.));
#1382=DIRECTION('',(0.,-1.,0.));
#1383=DIRECTION('',(1.,0.,0.));
#1384=DIRECTION('',(0.,1.,0.));
#1385=DIRECTION('',(1.,0.,0.));
#1386=DIRECTION('',(0.,-1.,0.));
#1387=DIRECTION('',(-1.,0.,0.));
#1388=DIRECTION('',(0.,1.,0.));
#1389=DIRECTION('',(1.,0.,0.));
#1390=DIRECTION('',(0.,1.,0.));
#1391=DIRECTION('',(-1.,0.,0.));
#1392=DIRECTION('',(0.,-1.,0.));
#1393=DIRECTION('',(1.,0.,0.));
#1394=DIRECTION('',(0.,-1.,0.));
#1395=DIRECTION('',(-1.,0.,0.));
#1396=DIRECTION('',(0.,1.,0.));
#1397=DIRECTION('',(1.,0.,0.));
#1398=DIRECTION('',(0.,1.,0.));
#1399=DIRECTION('',(-1.,0.,0.));
#1400=DIRECTION('',(0.,-1.,0.));
#1401=DIRECTION('',(-1.,0.,0.));
#1402=DIRECTION('',(0.,1.,0.));
#1403=DIRECTION('',(-1.,0.,0.));
#1404=DIRECTION('',(0.,-1.,0.));
#1405=DIRECTION('',(1.,0.,0.));
#1406=DIRECTION('',(0.,1.,0.));
#1407=DIRECTION('',(1.,0.,0.));
#1408=DIRECTION('',(0.,-1.,0.));
#1409=DIRECTION('',(1.,0.,0.));
#1410=DIRECTION('',(0.,1.,0.));
#1411=DIRECTION('',(-1.,0.,0.));
#1412=DIRECTION('',(0.,-1.,0.));
#1413=DIRECTION('',(-1.,0.,0.));
#1414=DIRECTION('',(0.,1.,0.));
#1415=DIRECTION('',(1.,0.,0.));
#1416=DIRECTION('',(0.,1.,0.));
#1417=DIRECTION('',(-1.,0.,0.));
#1418=DIRECTION('',(0.,1.,0.));
#1419=DIRECTION('',(1.,0.,5.18666414572693E-48));
#1420=DIRECTION('',(0.,-1.,0.));
#1421=DIRECTION('',(1.,0.,5.18666414572693E-48));
#1422=DIRECTION('',(-1.73457130805952E-16,-1.,-8.99663881171901E-64));
#1423=DIRECTION('',(0.,-1.,0.));
#1424=DIRECTION('',(1.,0.,5.18666414572693E-48));
#1425=DIRECTION('',(-1.73457130805952E-16,-1.,-8.99663881171901E-64));
#1426=DIRECTION('',(-1.,0.,-5.18666414572693E-48));
#1427=DIRECTION('',(0.,0.,-1.));
#1428=DIRECTION('',(1.,0.,0.));
#1429=DIRECTION('',(0.,-1.,0.));
#1430=DIRECTION('',(1.,0.,0.));
#1431=DIRECTION('',(-1.73457130805952E-16,-1.,0.));
#1432=DIRECTION('',(1.,0.,0.));
#1433=DIRECTION('',(0.,1.,0.));
#1434=DIRECTION('',(1.,0.,0.));
#1435=DIRECTION('',(0.,-1.,0.));
#1436=DIRECTION('',(-1.,0.,0.));
#1437=DIRECTION('',(0.,1.,0.));
#1438=DIRECTION('',(1.,0.,0.));
#1439=DIRECTION('',(0.,1.,0.));
#1440=DIRECTION('',(-1.,0.,0.));
#1441=DIRECTION('',(0.,1.,0.));
#1442=DIRECTION('',(1.,0.,0.));
#1443=DIRECTION('',(0.,1.,0.));
#1444=DIRECTION('',(-1.,0.,0.));
#1445=DIRECTION('',(0.,1.,0.));
#1446=DIRECTION('',(1.,0.,0.));
#1447=DIRECTION('',(0.,1.,0.));
#1448=DIRECTION('',(-1.,0.,0.));
#1449=DIRECTION('',(0.,-1.,0.));
#1450=DIRECTION('',(-1.,0.,0.));
#1451=DIRECTION('',(0.,1.,0.));
#1452=DIRECTION('',(1.,0.,0.));
#1453=DIRECTION('',(0.,-1.,0.));
#1454=DIRECTION('',(1.,0.,0.));
#1455=DIRECTION('',(0.,1.,0.));
#1456=DIRECTION('',(1.,0.,0.));
#1457=DIRECTION('',(0.,-1.,0.));
#1458=DIRECTION('',(-1.,0.,0.));
#1459=DIRECTION('',(0.,1.,0.));
#1460=DIRECTION('',(-1.,0.,0.));
#1461=DIRECTION('',(0.,-1.,0.));
#1462=DIRECTION('',(-1.,0.,0.));
#1463=DIRECTION('',(0.,1.,0.));
#1464=DIRECTION('',(1.,0.,0.));
#1465=DIRECTION('',(0.,1.,0.));
#1466=DIRECTION('',(-1.,0.,0.));
#1467=DIRECTION('',(0.,-1.,0.));
#1468=DIRECTION('',(1.,0.,0.));
#1469=DIRECTION('',(0.,-1.,0.));
#1470=DIRECTION('',(-1.,0.,0.));
#1471=DIRECTION('',(0.,1.,0.));
#1472=DIRECTION('',(1.,0.,0.));
#1473=DIRECTION('',(0.,1.,0.));
#1474=DIRECTION('',(-1.,0.,0.));
#1475=DIRECTION('',(0.,-1.,0.));
#1476=DIRECTION('',(1.,0.,0.));
#1477=DIRECTION('',(0.,1.,0.));
#1478=DIRECTION('',(1.,0.,0.));
#1479=DIRECTION('',(0.,-1.,0.));
#1480=DIRECTION('',(-1.,0.,0.));
#1481=DIRECTION('',(0.,1.,0.));
#1482=DIRECTION('',(-1.,0.,0.));
#1483=DIRECTION('',(0.,-1.,0.));
#1484=DIRECTION('',(1.,0.,0.));
#1485=DIRECTION('',(1.,0.,0.));
#1486=DIRECTION('',(0.,-1.,0.));
#1487=DIRECTION('',(-1.,0.,0.));
#1488=DIRECTION('',(-1.73457130805952E-16,-1.,0.));
#1489=DIRECTION('',(0.,1.,0.));
#1490=DIRECTION('',(0.,0.,1.));
#1491=DIRECTION('',(0.,0.,-1.));
#1492=DIRECTION('',(0.,0.,-1.));
#1493=DIRECTION('',(0.,1.,0.));
#1494=DIRECTION('',(0.,0.,1.));
#1495=DIRECTION('',(0.,0.,-1.));
#1496=DIRECTION('',(0.,0.,-1.));
#1497=DIRECTION('',(-1.,0.,0.));
#1498=DIRECTION('',(0.,0.,1.));
#1499=DIRECTION('',(0.,0.,-1.));
#1500=DIRECTION('',(0.,0.,-1.));
#1501=DIRECTION('',(0.,-1.,0.));
#1502=DIRECTION('',(0.,0.,-1.));
#1503=DIRECTION('',(0.,0.,-1.));
#1504=DIRECTION('',(0.,0.,-1.));
#1505=DIRECTION('',(1.,0.,0.));
#1506=DIRECTION('',(0.,0.,-1.));
#1507=DIRECTION('',(0.,0.,-1.));
#1508=DIRECTION('',(0.,0.,-1.));
#1509=DIRECTION('',(1.,0.,0.));
#1510=DIRECTION('',(0.,0.,-1.));
#1511=DIRECTION('',(0.,0.,-1.));
#1512=DIRECTION('',(0.,0.,-1.));
#1513=DIRECTION('',(0.,-1.,0.));
#1514=DIRECTION('',(0.,0.,-1.));
#1515=DIRECTION('',(0.,0.,-1.));
#1516=DIRECTION('',(0.,0.,-1.));
#1517=DIRECTION('',(0.,-1.,0.));
#1518=DIRECTION('',(0.,0.,-1.));
#1519=DIRECTION('',(0.,0.,-1.));
#1520=DIRECTION('',(0.,0.,-1.));
#1521=DIRECTION('',(0.,-1.,0.));
#1522=DIRECTION('',(0.,0.,-1.));
#1523=DIRECTION('',(0.,0.,-1.));
#1524=DIRECTION('',(0.,0.,-1.));
#1525=DIRECTION('',(1.,0.,0.));
#1526=DIRECTION('',(0.,0.,-1.));
#1527=DIRECTION('',(0.,0.,-1.));
#1528=DIRECTION('',(0.,0.,-1.));
#1529=DIRECTION('',(1.,0.,0.));
#1530=DIRECTION('',(0.,0.,-1.));
#1531=DIRECTION('',(0.,0.,-1.));
#1532=DIRECTION('',(0.,0.,-1.));
#1533=DIRECTION('',(1.,0.,0.));
#1534=DIRECTION('',(0.,0.,-1.));
#1535=DIRECTION('',(0.,0.,-1.));
#1536=DIRECTION('',(0.,0.,-1.));
#1537=DIRECTION('',(0.,-1.,0.));
#1538=DIRECTION('',(0.,0.,-1.));
#1539=DIRECTION('',(0.,0.,-1.));
#1540=DIRECTION('',(1.,0.,0.));
#1541=DIRECTION('',(0.,0.,-1.));
#1542=DIRECTION('',(0.,0.,-1.));
#1543=DIRECTION('',(0.,-1.,0.));
#1544=DIRECTION('',(0.,0.,-1.));
#1545=DIRECTION('',(0.,0.,-1.));
#1546=DIRECTION('',(0.,0.,-1.));
#1547=DIRECTION('',(1.,0.,0.));
#1548=DIRECTION('',(0.,0.,-1.));
#1549=DIRECTION('',(0.,0.,-1.));
#1550=DIRECTION('',(0.,1.,0.));
#1551=DIRECTION('',(0.,0.,1.));
#1552=DIRECTION('',(0.,0.,-1.));
#1553=DIRECTION('',(-1.,0.,0.));
#1554=DIRECTION('',(0.,0.,1.));
#1555=DIRECTION('',(0.,0.,-1.));
#1556=DIRECTION('',(0.,1.,0.));
#1557=DIRECTION('',(0.,0.,1.));
#1558=DIRECTION('',(-1.,0.,0.));
#1559=DIRECTION('',(0.,0.,1.));
#1560=DIRECTION('',(0.,0.,-1.));
#1561=DIRECTION('',(0.,1.,0.));
#1562=DIRECTION('',(0.,0.,1.));
#1563=DIRECTION('',(0.,0.,-1.));
#1564=DIRECTION('',(-1.,0.,0.));
#1565=DIRECTION('',(0.,0.,1.));
#1566=DIRECTION('',(0.,1.,0.));
#1567=DIRECTION('',(0.,0.,1.));
#1568=DIRECTION('',(0.,0.,-1.));
#1569=DIRECTION('',(0.,0.,-1.));
#1570=DIRECTION('',(1.,0.,0.));
#1571=DIRECTION('',(0.,0.,-1.));
#1572=DIRECTION('',(1.,0.,0.));
#1573=DIRECTION('',(0.,0.,-1.));
#1574=DIRECTION('',(-1.,0.,0.));
#1575=DIRECTION('',(0.,0.,1.));
#1576=DIRECTION('',(0.,0.,-1.));
#1577=DIRECTION('',(0.,1.,0.));
#1578=DIRECTION('',(0.,0.,1.));
#1579=DIRECTION('',(0.,0.,-1.));
#1580=DIRECTION('',(-1.,0.,0.));
#1581=DIRECTION('',(0.,0.,1.));
#1582=DIRECTION('',(-1.,0.,0.));
#1583=DIRECTION('',(0.,0.,1.));
#1584=DIRECTION('',(0.,0.,-1.));
#1585=DIRECTION('',(0.,0.,-1.));
#1586=DIRECTION('',(0.,-1.,0.));
#1587=DIRECTION('',(0.,0.,-1.));
#1588=DIRECTION('',(0.,-1.,0.));
#1589=DIRECTION('',(0.,0.,-1.));
#1590=DIRECTION('',(0.,1.,0.));
#1591=DIRECTION('',(0.,0.,1.));
#1592=DIRECTION('',(0.,0.,-1.));
#1593=DIRECTION('',(0.,1.,0.));
#1594=DIRECTION('',(0.,0.,1.));
#1595=DIRECTION('',(0.,0.,-1.));
#1596=DIRECTION('',(-1.,0.,0.));
#1597=DIRECTION('',(0.,0.,1.));
#1598=DIRECTION('',(-1.,0.,0.));
#1599=DIRECTION('',(0.,0.,1.));
#1600=DIRECTION('',(0.,0.,-1.));
#1601=DIRECTION('',(0.,0.,-1.));
#1602=DIRECTION('',(0.,1.,0.));
#1603=DIRECTION('',(0.,0.,1.));
#1604=DIRECTION('',(0.,-1.,0.));
#1605=DIRECTION('',(0.,0.,-1.));
#1606=DIRECTION('',(0.,1.,0.));
#1607=DIRECTION('',(0.,0.,1.));
#1608=DIRECTION('',(0.,0.,-1.));
#1609=DIRECTION('',(0.,0.,-1.));
#1610=DIRECTION('',(-1.,0.,0.));
#1611=DIRECTION('',(0.,0.,1.));
#1612=DIRECTION('',(-1.,0.,0.));
#1613=DIRECTION('',(0.,0.,1.));
#1614=DIRECTION('',(-1.,0.,0.));
#1615=DIRECTION('',(0.,0.,1.));
#1616=DIRECTION('',(0.,-1.,0.));
#1617=DIRECTION('',(0.,0.,-1.));
#1618=DIRECTION('',(0.,0.,-1.));
#1619=DIRECTION('',(-1.,0.,0.));
#1620=DIRECTION('',(0.,0.,1.));
#1621=DIRECTION('',(0.,0.,-1.));
#1622=DIRECTION('',(0.,-1.,0.));
#1623=DIRECTION('',(0.,0.,-1.));
#1624=DIRECTION('',(0.,1.,0.));
#1625=DIRECTION('',(0.,0.,1.));
#1626=DIRECTION('',(-1.,0.,0.));
#1627=DIRECTION('',(0.,0.,1.));
#1628=DIRECTION('',(0.,0.,-1.));
#1629=DIRECTION('',(0.,-1.,0.));
#1630=DIRECTION('',(0.,0.,-1.));
#1631=DIRECTION('',(0.,0.,-1.));
#1632=DIRECTION('',(1.,0.,0.));
#1633=DIRECTION('',(0.,0.,-1.));
#1634=DIRECTION('',(0.,0.,-1.));
#1635=DIRECTION('',(0.,1.,0.));
#1636=DIRECTION('',(0.,0.,1.));
#1637=DIRECTION('',(-1.,0.,0.));
#1638=DIRECTION('',(0.,0.,1.));
#1639=DIRECTION('',(0.,0.,-1.));
#1640=DIRECTION('',(0.,-1.,0.));
#1641=DIRECTION('',(0.,0.,-1.));
#1642=DIRECTION('',(0.,0.,-1.));
#1643=DIRECTION('',(-1.,0.,0.));
#1644=DIRECTION('',(0.,0.,1.));
#1645=DIRECTION('',(1.,0.,5.18666414572693E-48));
#1646=DIRECTION('',(5.18666414572693E-48,0.,-1.));
#1647=DIRECTION('',(5.18666414572693E-48,0.,-1.));
#1648=DIRECTION('',(5.18666414572693E-48,0.,-1.));
#1649=DIRECTION('',(0.,1.,0.));
#1650=DIRECTION('',(0.,0.,1.));
#1651=DIRECTION('',(5.18666414572693E-48,0.,-1.));
#1652=DIRECTION('',(1.,-1.73457130805952E-16,5.18666414572693E-48));
#1653=DIRECTION('',(1.73457130805952E-16,1.,0.));
#1654=DIRECTION('',(5.18666414572693E-48,0.,-1.));
#1655=DIRECTION('',(0.,1.,0.));
#1656=DIRECTION('',(0.,0.,1.));
#1657=DIRECTION('',(0.,1.,0.));
#1658=DIRECTION('',(0.,0.,1.));
#1659=DIRECTION('',(5.18666414572693E-48,0.,-1.));
#1660=DIRECTION('',(5.18666414572693E-48,0.,-1.));
#1661=DIRECTION('',(1.,0.,5.18666414572693E-48));
#1662=DIRECTION('',(5.18666414572693E-48,0.,-1.));
#1663=DIRECTION('',(5.18666414572693E-48,0.,-1.));
#1664=DIRECTION('',(0.,-1.,0.));
#1665=DIRECTION('',(0.,0.,-1.));
#1666=DIRECTION('',(5.18666414572693E-48,0.,-1.));
#1667=DIRECTION('',(1.,-1.73457130805952E-16,5.18666414572693E-48));
#1668=DIRECTION('',(1.73457130805952E-16,1.,0.));
#1669=CARTESIAN_POINT('',(0.,0.,0.));
#1670=CARTESIAN_POINT('',(0.,-0.025,-0.07));
#1671=CARTESIAN_POINT('',(0.005,0.062,-0.07));
#1672=CARTESIAN_POINT('',(-0.01,0.062,-0.07));
#1673=CARTESIAN_POINT('',(0.01,0.062,-0.07));
#1674=CARTESIAN_POINT('',(0.01,0.065,-0.07));
#1675=CARTESIAN_POINT('',(0.01,0.068,-0.07));
#1676=CARTESIAN_POINT('',(0.,0.068,-0.07));
#1677=CARTESIAN_POINT('',(0.032,0.068,-0.07));
#1678=CARTESIAN_POINT('',(0.032,0.065,-0.07));
#1679=CARTESIAN_POINT('',(0.032,0.062,-0.07));
#1680=CARTESIAN_POINT('',(0.005,0.062,-0.07));
#1681=CARTESIAN_POINT('',(0.052,0.062,-0.07));
#1682=CARTESIAN_POINT('',(0.052,0.065,-0.07));
#1683=CARTESIAN_POINT('',(0.052,0.068,-0.07));
#1684=CARTESIAN_POINT('',(0.,0.068,-0.07));
#1685=CARTESIAN_POINT('',(0.068,0.068,-0.07));
#1686=CARTESIAN_POINT('',(0.068,-0.025,-0.07));
#1687=CARTESIAN_POINT('',(0.068,0.052,-0.07));
#1688=CARTESIAN_POINT('',(0.065,0.052,-0.07));
#1689=CARTESIAN_POINT('',(0.062,0.052,-0.07));
#1690=CARTESIAN_POINT('',(0.062,0.042,-0.07));
#1691=CARTESIAN_POINT('',(0.062,0.032,-0.07));
#1692=CARTESIAN_POINT('',(0.065,0.032,-0.07));
#1693=CARTESIAN_POINT('',(0.068,0.032,-0.07));
#1694=CARTESIAN_POINT('',(0.068,-0.025,-0.07));
#1695=CARTESIAN_POINT('',(0.068,-0.015,-0.07));
#1696=CARTESIAN_POINT('',(0.065,-0.015,-0.07));
#1697=CARTESIAN_POINT('',(0.062,-0.015,-0.07));
#1698=CARTESIAN_POINT('',(0.062,-0.03,-0.07));
#1699=CARTESIAN_POINT('',(0.062,-0.035,-0.07));
#1700=CARTESIAN_POINT('',(0.065,-0.035,-0.07));
#1701=CARTESIAN_POINT('',(0.068,-0.035,-0.07));
#1702=CARTESIAN_POINT('',(0.068,-0.025,-0.07));
#1703=CARTESIAN_POINT('',(0.068,-0.082,-0.07));
#1704=CARTESIAN_POINT('',(0.065,-0.082,-0.07));
#1705=CARTESIAN_POINT('',(0.062,-0.082,-0.07));
#1706=CARTESIAN_POINT('',(0.062,-0.092,-0.07));
#1707=CARTESIAN_POINT('',(0.062,-0.102,-0.07));
#1708=CARTESIAN_POINT('',(0.065,-0.102,-0.07));
#1709=CARTESIAN_POINT('',(0.068,-0.102,-0.07));
#1710=CARTESIAN_POINT('',(0.068,-0.025,-0.07));
#1711=CARTESIAN_POINT('',(0.068,-0.118,-0.07));
#1712=CARTESIAN_POINT('',(0.,-0.118,-0.07));
#1713=CARTESIAN_POINT('',(0.052,-0.118,-0.07));
#1714=CARTESIAN_POINT('',(0.052,-0.115,-0.07));
#1715=CARTESIAN_POINT('',(0.052,-0.112,-0.07));
#1716=CARTESIAN_POINT('',(0.042,-0.112,-0.07));
#1717=CARTESIAN_POINT('',(0.032,-0.112,-0.07));
#1718=CARTESIAN_POINT('',(0.032,-0.115,-0.07));
#1719=CARTESIAN_POINT('',(0.032,-0.118,-0.07));
#1720=CARTESIAN_POINT('',(0.,-0.118,-0.07));
#1721=CARTESIAN_POINT('',(0.01,-0.118,-0.07));
#1722=CARTESIAN_POINT('',(0.01,-0.115,-0.07));
#1723=CARTESIAN_POINT('',(0.01,-0.112,-0.07));
#1724=CARTESIAN_POINT('',(-0.005,-0.112,-0.07));
#1725=CARTESIAN_POINT('',(-0.01,-0.112,-0.07));
#1726=CARTESIAN_POINT('',(-0.01,-0.115,-0.07));
#1727=CARTESIAN_POINT('',(-0.01,-0.118,-0.07));
#1728=CARTESIAN_POINT('',(0.,-0.118,-0.07));
#1729=CARTESIAN_POINT('',(-0.032,-0.118,-0.07));
#1730=CARTESIAN_POINT('',(-0.032,-0.115,-0.07));
#1731=CARTESIAN_POINT('',(-0.032,-0.112,-0.07));
#1732=CARTESIAN_POINT('',(-0.042,-0.112,-0.07));
#1733=CARTESIAN_POINT('',(-0.052,-0.112,-0.07));
#1734=CARTESIAN_POINT('',(-0.052,-0.115,-0.07));
#1735=CARTESIAN_POINT('',(-0.052,-0.118,-0.07));
#1736=CARTESIAN_POINT('',(0.,-0.118,-0.07));
#1737=CARTESIAN_POINT('',(-0.068,-0.118,-0.07));
#1738=CARTESIAN_POINT('',(-0.068,-0.025,-0.07));
#1739=CARTESIAN_POINT('',(-0.068,-0.102,-0.07));
#1740=CARTESIAN_POINT('',(-0.065,-0.102,-0.07));
#1741=CARTESIAN_POINT('',(-0.062,-0.102,-0.07));
#1742=CARTESIAN_POINT('',(-0.062,-0.092,-0.07));
#1743=CARTESIAN_POINT('',(-0.062,-0.082,-0.07));
#1744=CARTESIAN_POINT('',(-0.065,-0.082,-0.07));
#1745=CARTESIAN_POINT('',(-0.068,-0.082,-0.07));
#1746=CARTESIAN_POINT('',(-0.068,-0.025,-0.07));
#1747=CARTESIAN_POINT('',(-0.068,-0.035,-0.07));
#1748=CARTESIAN_POINT('',(-0.065,-0.035,-0.07));
#1749=CARTESIAN_POINT('',(-0.062,-0.035,-0.07));
#1750=CARTESIAN_POINT('',(-0.062,-0.02,-0.07));
#1751=CARTESIAN_POINT('',(-0.062,-0.015,-0.07));
#1752=CARTESIAN_POINT('',(-0.065,-0.015,-0.07));
#1753=CARTESIAN_POINT('',(-0.068,-0.015,-0.07));
#1754=CARTESIAN_POINT('',(-0.068,-0.025,-0.07));
#1755=CARTESIAN_POINT('',(-0.068,0.032,-0.07));
#1756=CARTESIAN_POINT('',(-0.065,0.032,-0.07));
#1757=CARTESIAN_POINT('',(-0.062,0.032,-0.07));
#1758=CARTESIAN_POINT('',(-0.062,0.042,-0.07));
#1759=CARTESIAN_POINT('',(-0.062,0.052,-0.07));
#1760=CARTESIAN_POINT('',(-0.065,0.052,-0.07));
#1761=CARTESIAN_POINT('',(-0.068,0.052,-0.07));
#1762=CARTESIAN_POINT('',(-0.068,-0.025,-0.07));
#1763=CARTESIAN_POINT('',(-0.068,0.068,-0.07));
#1764=CARTESIAN_POINT('',(0.,0.068,-0.07));
#1765=CARTESIAN_POINT('',(-0.052,0.068,-0.07));
#1766=CARTESIAN_POINT('',(-0.052,0.065,-0.07));
#1767=CARTESIAN_POINT('',(-0.052,0.062,-0.07));
#1768=CARTESIAN_POINT('',(-0.042,0.062,-0.07));
#1769=CARTESIAN_POINT('',(-0.032,0.062,-0.07));
#1770=CARTESIAN_POINT('',(-0.032,0.065,-0.07));
#1771=CARTESIAN_POINT('',(-0.032,0.068,-0.07));
#1772=CARTESIAN_POINT('',(0.,0.068,-0.07));
#1773=CARTESIAN_POINT('',(-0.01,0.068,-0.07));
#1774=CARTESIAN_POINT('',(-0.01,0.065,-0.07));
#1775=CARTESIAN_POINT('',(0.0160008673451602,-0.091239854001556,-0.07));
#1776=CARTESIAN_POINT('',(0.00750086734516021,-0.091239854001556,-0.07));
#1777=CARTESIAN_POINT('',(0.0245008673451602,-0.091239854001556,-0.07));
#1778=CARTESIAN_POINT('',(0.00750086734516021,-0.091239854001556,-0.07));
#1779=CARTESIAN_POINT('',(0.00750086734516021,-0.094239854001556,-0.07));
#1780=CARTESIAN_POINT('',(0.0160008673451602,-0.094239854001556,-0.07));
#1781=CARTESIAN_POINT('',(0.0245008673451602,-0.094239854001556,-0.07));
#1782=CARTESIAN_POINT('',(0.0245008673451602,-0.091239854001556,-0.07));
#1783=CARTESIAN_POINT('',(0.00750086734516021,-0.091239854001556,-0.07));
#1784=CARTESIAN_POINT('',(0.00750086734516021,-0.0712380994710092,-0.07));
#1785=CARTESIAN_POINT('',(0.00750086734516021,-0.0742380994710093,-0.07));
#1786=CARTESIAN_POINT('',(0.0160008673451602,-0.0742380994710093,-0.07));
#1787=CARTESIAN_POINT('',(0.0245008673451602,-0.0742380994710093,-0.07));
#1788=CARTESIAN_POINT('',(0.0245008673451602,-0.091239854001556,-0.07));
#1789=CARTESIAN_POINT('',(0.0245008673451602,-0.0712380994710092,-0.07));
#1790=CARTESIAN_POINT('',(0.0160008673451602,-0.0712380994710092,-0.07));
#1791=CARTESIAN_POINT('',(0.,-0.025,-0.067));
#1792=CARTESIAN_POINT('',(0.00750086734516021,-0.025,-0.067));
#1793=CARTESIAN_POINT('',(0.00750086734516021,-0.091239854001556,-0.067));
#1794=CARTESIAN_POINT('',(0.00750086734516021,-0.094239854001556,-0.067));
#1795=CARTESIAN_POINT('',(0.,-0.091239854001556,-0.067));
#1796=CARTESIAN_POINT('',(0.0245008673451602,-0.091239854001556,-0.067));
#1797=CARTESIAN_POINT('',(0.0245008673451602,-0.025,-0.067));
#1798=CARTESIAN_POINT('',(0.0245008673451602,-0.094239854001556,-0.067));
#1799=CARTESIAN_POINT('',(0.,-0.094239854001556,-0.067));
#1800=CARTESIAN_POINT('',(0.062,0.042,-0.067));
#1801=CARTESIAN_POINT('',(0.062,0.032,-0.067));
#1802=CARTESIAN_POINT('',(0.062,0.052,-0.067));
#1803=CARTESIAN_POINT('',(0.065,0.052,-0.067));
#1804=CARTESIAN_POINT('',(0.068,0.052,-0.067));
#1805=CARTESIAN_POINT('',(0.068,-0.025,-0.067));
#1806=CARTESIAN_POINT('',(0.068,0.068,-0.067));
#1807=CARTESIAN_POINT('',(0.,0.068,-0.067));
#1808=CARTESIAN_POINT('',(0.052,0.068,-0.067));
#1809=CARTESIAN_POINT('',(0.052,0.065,-0.067));
#1810=CARTESIAN_POINT('',(0.052,0.062,-0.067));
#1811=CARTESIAN_POINT('',(0.005,0.062,-0.067));
#1812=CARTESIAN_POINT('',(0.032,0.062,-0.067));
#1813=CARTESIAN_POINT('',(0.032,0.065,-0.067));
#1814=CARTESIAN_POINT('',(0.032,0.068,-0.067));
#1815=CARTESIAN_POINT('',(0.,0.068,-0.067));
#1816=CARTESIAN_POINT('',(0.01,0.068,-0.067));
#1817=CARTESIAN_POINT('',(0.01,0.065,-0.067));
#1818=CARTESIAN_POINT('',(0.01,0.062,-0.067));
#1819=CARTESIAN_POINT('',(0.005,0.062,-0.067));
#1820=CARTESIAN_POINT('',(-0.01,0.062,-0.067));
#1821=CARTESIAN_POINT('',(-0.01,0.065,-0.067));
#1822=CARTESIAN_POINT('',(-0.01,0.068,-0.067));
#1823=CARTESIAN_POINT('',(0.,0.068,-0.067));
#1824=CARTESIAN_POINT('',(-0.032,0.068,-0.067));
#1825=CARTESIAN_POINT('',(-0.032,0.065,-0.067));
#1826=CARTESIAN_POINT('',(-0.032,0.062,-0.067));
#1827=CARTESIAN_POINT('',(-0.042,0.062,-0.067));
#1828=CARTESIAN_POINT('',(-0.052,0.062,-0.067));
#1829=CARTESIAN_POINT('',(-0.052,0.065,-0.067));
#1830=CARTESIAN_POINT('',(-0.052,0.068,-0.067));
#1831=CARTESIAN_POINT('',(0.,0.068,-0.067));
#1832=CARTESIAN_POINT('',(-0.068,0.068,-0.067));
#1833=CARTESIAN_POINT('',(-0.068,-0.025,-0.067));
#1834=CARTESIAN_POINT('',(-0.068,0.052,-0.067));
#1835=CARTESIAN_POINT('',(-0.065,0.052,-0.067));
#1836=CARTESIAN_POINT('',(-0.062,0.052,-0.067));
#1837=CARTESIAN_POINT('',(-0.062,0.042,-0.067));
#1838=CARTESIAN_POINT('',(-0.062,0.032,-0.067));
#1839=CARTESIAN_POINT('',(-0.065,0.032,-0.067));
#1840=CARTESIAN_POINT('',(-0.068,0.032,-0.067));
#1841=CARTESIAN_POINT('',(-0.068,-0.025,-0.067));
#1842=CARTESIAN_POINT('',(-0.068,-0.015,-0.067));
#1843=CARTESIAN_POINT('',(-0.065,-0.015,-0.067));
#1844=CARTESIAN_POINT('',(-0.062,-0.015,-0.067));
#1845=CARTESIAN_POINT('',(-0.062,-0.02,-0.067));
#1846=CARTESIAN_POINT('',(-0.062,-0.035,-0.067));
#1847=CARTESIAN_POINT('',(-0.065,-0.035,-0.067));
#1848=CARTESIAN_POINT('',(-0.068,-0.035,-0.067));
#1849=CARTESIAN_POINT('',(-0.068,-0.025,-0.067));
#1850=CARTESIAN_POINT('',(-0.068,-0.082,-0.067));
#1851=CARTESIAN_POINT('',(-0.065,-0.082,-0.067));
#1852=CARTESIAN_POINT('',(-0.062,-0.082,-0.067));
#1853=CARTESIAN_POINT('',(-0.062,-0.092,-0.067));
#1854=CARTESIAN_POINT('',(-0.062,-0.102,-0.067));
#1855=CARTESIAN_POINT('',(-0.065,-0.102,-0.067));
#1856=CARTESIAN_POINT('',(-0.068,-0.102,-0.067));
#1857=CARTESIAN_POINT('',(-0.068,-0.025,-0.067));
#1858=CARTESIAN_POINT('',(-0.068,-0.118,-0.067));
#1859=CARTESIAN_POINT('',(0.,-0.118,-0.067));
#1860=CARTESIAN_POINT('',(-0.052,-0.118,-0.067));
#1861=CARTESIAN_POINT('',(-0.052,-0.115,-0.067));
#1862=CARTESIAN_POINT('',(-0.052,-0.112,-0.067));
#1863=CARTESIAN_POINT('',(-0.042,-0.112,-0.067));
#1864=CARTESIAN_POINT('',(-0.032,-0.112,-0.067));
#1865=CARTESIAN_POINT('',(-0.032,-0.115,-0.067));
#1866=CARTESIAN_POINT('',(-0.032,-0.118,-0.067));
#1867=CARTESIAN_POINT('',(0.,-0.118,-0.067));
#1868=CARTESIAN_POINT('',(-0.01,-0.118,-0.067));
#1869=CARTESIAN_POINT('',(-0.01,-0.115,-0.067));
#1870=CARTESIAN_POINT('',(-0.01,-0.112,-0.067));
#1871=CARTESIAN_POINT('',(-0.005,-0.112,-0.067));
#1872=CARTESIAN_POINT('',(0.01,-0.112,-0.067));
#1873=CARTESIAN_POINT('',(0.01,-0.115,-0.067));
#1874=CARTESIAN_POINT('',(0.01,-0.118,-0.067));
#1875=CARTESIAN_POINT('',(0.,-0.118,-0.067));
#1876=CARTESIAN_POINT('',(0.032,-0.118,-0.067));
#1877=CARTESIAN_POINT('',(0.032,-0.115,-0.067));
#1878=CARTESIAN_POINT('',(0.032,-0.112,-0.067));
#1879=CARTESIAN_POINT('',(0.042,-0.112,-0.067));
#1880=CARTESIAN_POINT('',(0.052,-0.112,-0.067));
#1881=CARTESIAN_POINT('',(0.052,-0.115,-0.067));
#1882=CARTESIAN_POINT('',(0.052,-0.118,-0.067));
#1883=CARTESIAN_POINT('',(0.,-0.118,-0.067));
#1884=CARTESIAN_POINT('',(0.068,-0.118,-0.067));
#1885=CARTESIAN_POINT('',(0.068,-0.025,-0.067));
#1886=CARTESIAN_POINT('',(0.068,-0.102,-0.067));
#1887=CARTESIAN_POINT('',(0.065,-0.102,-0.067));
#1888=CARTESIAN_POINT('',(0.062,-0.102,-0.067));
#1889=CARTESIAN_POINT('',(0.062,-0.092,-0.067));
#1890=CARTESIAN_POINT('',(0.062,-0.082,-0.067));
#1891=CARTESIAN_POINT('',(0.065,-0.082,-0.067));
#1892=CARTESIAN_POINT('',(0.068,-0.082,-0.067));
#1893=CARTESIAN_POINT('',(0.068,-0.025,-0.067));
#1894=CARTESIAN_POINT('',(0.068,-0.035,-0.067));
#1895=CARTESIAN_POINT('',(0.065,-0.035,-0.067));
#1896=CARTESIAN_POINT('',(0.062,-0.035,-0.067));
#1897=CARTESIAN_POINT('',(0.062,-0.03,-0.067));
#1898=CARTESIAN_POINT('',(0.062,-0.015,-0.067));
#1899=CARTESIAN_POINT('',(0.065,-0.015,-0.067));
#1900=CARTESIAN_POINT('',(0.068,-0.015,-0.067));
#1901=CARTESIAN_POINT('',(0.068,-0.025,-0.067));
#1902=CARTESIAN_POINT('',(0.068,0.032,-0.067));
#1903=CARTESIAN_POINT('',(0.065,0.032,-0.067));
#1904=CARTESIAN_POINT('',(0.,-0.0742380994710093,-0.067));
#1905=CARTESIAN_POINT('',(0.00750086734516021,-0.0742380994710093,-0.067));
#1906=CARTESIAN_POINT('',(0.0245008673451602,-0.0742380994710093,-0.067));
#1907=CARTESIAN_POINT('',(0.00750086734516021,-0.025,-0.067));
#1908=CARTESIAN_POINT('',(0.00750086734516021,-0.0712380994710092,-0.067));
#1909=CARTESIAN_POINT('',(0.,-0.0712380994710092,-0.067));
#1910=CARTESIAN_POINT('',(0.0245008673451602,-0.0712380994710092,-0.067));
#1911=CARTESIAN_POINT('',(0.0245008673451602,-0.025,-0.067));
#1912=CARTESIAN_POINT('',(0.005,0.062,-0.067));
#1913=CARTESIAN_POINT('',(0.052,0.062,-0.067));
#1914=CARTESIAN_POINT('',(0.032,0.062,-0.067));
#1915=CARTESIAN_POINT('',(0.005,0.062,-0.067));
#1916=CARTESIAN_POINT('',(0.01,0.062,-0.067));
#1917=CARTESIAN_POINT('',(-0.01,0.062,-0.067));
#1918=CARTESIAN_POINT('',(0.062,0.042,-0.067));
#1919=CARTESIAN_POINT('',(0.062,0.052,-0.067));
#1920=CARTESIAN_POINT('',(0.062,0.032,-0.067));
#1921=CARTESIAN_POINT('',(0.,0.068,-0.067));
#1922=CARTESIAN_POINT('',(-0.01,0.068,-0.067));
#1923=CARTESIAN_POINT('',(-0.032,0.068,-0.067));
#1924=CARTESIAN_POINT('',(0.068,-0.025,-0.067));
#1925=CARTESIAN_POINT('',(0.068,0.032,-0.067));
#1926=CARTESIAN_POINT('',(0.068,-0.015,-0.067));
#1927=CARTESIAN_POINT('',(0.068,-0.025,-0.067));
#1928=CARTESIAN_POINT('',(0.068,-0.035,-0.067));
#1929=CARTESIAN_POINT('',(0.068,-0.082,-0.067));
#1930=CARTESIAN_POINT('',(0.,-0.118,-0.067));
#1931=CARTESIAN_POINT('',(-0.032,-0.118,-0.067));
#1932=CARTESIAN_POINT('',(-0.01,-0.118,-0.067));
#1933=CARTESIAN_POINT('',(0.,-0.118,-0.067));
#1934=CARTESIAN_POINT('',(0.01,-0.118,-0.067));
#1935=CARTESIAN_POINT('',(0.032,-0.118,-0.067));
#1936=CARTESIAN_POINT('',(0.,-0.118,-0.067));
#1937=CARTESIAN_POINT('',(0.052,-0.118,-0.067));
#1938=CARTESIAN_POINT('',(0.068,-0.118,-0.067));
#1939=CARTESIAN_POINT('',(-0.068,-0.025,-0.067));
#1940=CARTESIAN_POINT('',(-0.068,0.052,-0.067));
#1941=CARTESIAN_POINT('',(-0.068,0.068,-0.067));
#1942=CARTESIAN_POINT('',(-0.068,-0.025,-0.067));
#1943=CARTESIAN_POINT('',(-0.068,0.032,-0.067));
#1944=CARTESIAN_POINT('',(-0.068,-0.015,-0.067));
#1945=CARTESIAN_POINT('',(-0.068,-0.025,-0.067));
#1946=CARTESIAN_POINT('',(-0.068,-0.035,-0.067));
#1947=CARTESIAN_POINT('',(-0.068,-0.082,-0.067));
#1948=CARTESIAN_POINT('',(0.,0.068,-0.067));
#1949=CARTESIAN_POINT('',(-0.052,0.068,-0.067));
#1950=CARTESIAN_POINT('',(0.068,-0.025,-0.067));
#1951=CARTESIAN_POINT('',(0.068,-0.102,-0.067));
#1952=CARTESIAN_POINT('',(0.,-0.118,-0.067));
#1953=CARTESIAN_POINT('',(-0.052,-0.118,-0.067));
#1954=CARTESIAN_POINT('',(-0.068,-0.118,-0.067));
#1955=CARTESIAN_POINT('',(-0.068,-0.025,-0.067));
#1956=CARTESIAN_POINT('',(-0.068,-0.102,-0.067));
#1957=CARTESIAN_POINT('',(0.065,-0.102,-0.067));
#1958=CARTESIAN_POINT('',(0.062,-0.102,-0.067));
#1959=CARTESIAN_POINT('',(0.062,-0.092,-0.067));
#1960=CARTESIAN_POINT('',(0.062,-0.082,-0.067));
#1961=CARTESIAN_POINT('',(0.065,-0.082,-0.067));
#1962=CARTESIAN_POINT('',(0.032,-0.115,-0.067));
#1963=CARTESIAN_POINT('',(0.032,-0.112,-0.067));
#1964=CARTESIAN_POINT('',(0.042,-0.112,-0.067));
#1965=CARTESIAN_POINT('',(0.052,-0.112,-0.067));
#1966=CARTESIAN_POINT('',(0.052,-0.115,-0.067));
#1967=CARTESIAN_POINT('',(-0.005,-0.112,-0.067));
#1968=CARTESIAN_POINT('',(0.01,-0.112,-0.067));
#1969=CARTESIAN_POINT('',(-0.01,-0.112,-0.067));
#1970=CARTESIAN_POINT('',(0.01,-0.115,-0.067));
#1971=CARTESIAN_POINT('',(-0.01,-0.115,-0.067));
#1972=CARTESIAN_POINT('',(-0.052,-0.115,-0.067));
#1973=CARTESIAN_POINT('',(-0.052,-0.112,-0.067));
#1974=CARTESIAN_POINT('',(-0.042,-0.112,-0.067));
#1975=CARTESIAN_POINT('',(-0.032,-0.112,-0.067));
#1976=CARTESIAN_POINT('',(-0.032,-0.115,-0.067));
#1977=CARTESIAN_POINT('',(-0.062,-0.092,-0.067));
#1978=CARTESIAN_POINT('',(-0.062,-0.102,-0.067));
#1979=CARTESIAN_POINT('',(-0.062,-0.082,-0.067));
#1980=CARTESIAN_POINT('',(-0.065,-0.102,-0.067));
#1981=CARTESIAN_POINT('',(-0.065,-0.082,-0.067));
#1982=CARTESIAN_POINT('',(-0.065,-0.035,-0.067));
#1983=CARTESIAN_POINT('',(-0.062,-0.035,-0.067));
#1984=CARTESIAN_POINT('',(-0.065,-0.015,-0.067));
#1985=CARTESIAN_POINT('',(-0.062,-0.015,-0.067));
#1986=CARTESIAN_POINT('',(-0.062,-0.02,-0.067));
#1987=CARTESIAN_POINT('',(-0.062,0.042,-0.067));
#1988=CARTESIAN_POINT('',(-0.062,0.032,-0.067));
#1989=CARTESIAN_POINT('',(-0.062,0.052,-0.067));
#1990=CARTESIAN_POINT('',(-0.065,0.032,-0.067));
#1991=CARTESIAN_POINT('',(-0.065,0.052,-0.067));
#1992=CARTESIAN_POINT('',(-0.042,0.062,-0.067));
#1993=CARTESIAN_POINT('',(-0.052,0.062,-0.067));
#1994=CARTESIAN_POINT('',(-0.032,0.062,-0.067));
#1995=CARTESIAN_POINT('',(-0.052,0.065,-0.067));
#1996=CARTESIAN_POINT('',(-0.032,0.065,-0.067));
#1997=CARTESIAN_POINT('',(-0.01,0.065,-0.067));
#1998=CARTESIAN_POINT('',(0.065,-0.035,-0.067));
#1999=CARTESIAN_POINT('',(0.062,-0.035,-0.067));
#2000=CARTESIAN_POINT('',(0.062,-0.03,-0.067));
#2001=CARTESIAN_POINT('',(0.062,-0.015,-0.067));
#2002=CARTESIAN_POINT('',(0.065,-0.015,-0.067));
#2003=CARTESIAN_POINT('',(0.065,0.032,-0.067));
#2004=CARTESIAN_POINT('',(0.052,0.065,-0.067));
#2005=CARTESIAN_POINT('',(0.052,0.068,-0.067));
#2006=CARTESIAN_POINT('',(0.,0.068,-0.067));
#2007=CARTESIAN_POINT('',(0.068,0.068,-0.067));
#2008=CARTESIAN_POINT('',(0.068,-0.025,-0.067));
#2009=CARTESIAN_POINT('',(0.068,0.052,-0.067));
#2010=CARTESIAN_POINT('',(0.065,0.052,-0.067));
#2011=CARTESIAN_POINT('',(0.01,0.065,-0.067));
#2012=CARTESIAN_POINT('',(0.01,0.068,-0.067));
#2013=CARTESIAN_POINT('',(0.,0.068,-0.067));
#2014=CARTESIAN_POINT('',(0.032,0.068,-0.067));
#2015=CARTESIAN_POINT('',(0.032,0.065,-0.067));
#2016=CARTESIAN_POINT('',(0.00750086734516021,-0.091239854001556,-0.045));
#2017=CARTESIAN_POINT('',(0.00750086734516021,-0.094239854001556,-0.045));
#2018=CARTESIAN_POINT('',(0.00750086734516021,-0.091239854001556,-0.045));
#2019=CARTESIAN_POINT('',(0.0160008673451602,-0.091239854001556,-0.045));
#2020=CARTESIAN_POINT('',(0.0245008673451602,-0.091239854001556,-0.045));
#2021=CARTESIAN_POINT('',(0.0245008673451602,-0.091239854001556,-0.045));
#2022=CARTESIAN_POINT('',(0.0245008673451602,-0.094239854001556,-0.045));
#2023=CARTESIAN_POINT('',(0.0160008673451602,-0.094239854001556,-0.045));
#2024=CARTESIAN_POINT('',(0.0160008673451602,-0.0742380994710093,-0.045));
#2025=CARTESIAN_POINT('',(0.0245008673451602,-0.0742380994710093,-0.045));
#2026=CARTESIAN_POINT('',(0.00750086734516021,-0.0742380994710093,-0.045));
#2027=CARTESIAN_POINT('',(0.00750086734516021,-0.091239854001556,-0.045));
#2028=CARTESIAN_POINT('',(0.00750086734516021,-0.0712380994710092,-0.045));
#2029=CARTESIAN_POINT('',(0.0160008673451602,-0.0712380994710092,-0.045));
#2030=CARTESIAN_POINT('',(0.0245008673451602,-0.0712380994710092,-0.045));
#2031=CARTESIAN_POINT('',(0.0245008673451602,-0.091239854001556,-0.045));
#2032=MECHANICAL_DESIGN_GEOMETRIC_PRESENTATION_REPRESENTATION('',(#1289),
#2033);
#2033=(
GEOMETRIC_REPRESENTATION_CONTEXT(3)
GLOBAL_UNCERTAINTY_ASSIGNED_CONTEXT((#2034))
GLOBAL_UNIT_ASSIGNED_CONTEXT((#2037,#2036,#2035))
REPRESENTATION_CONTEXT('Part 18','TOP_LEVEL_ASSEMBLY_PART')
);
#2034=UNCERTAINTY_MEASURE_WITH_UNIT(LENGTH_MEASURE(1.E-8),#2037,
'DISTANCE_ACCURACY_VALUE','Maximum Tolerance applied to model');
#2035=(
NAMED_UNIT(*)
SI_UNIT($,.STERADIAN.)
SOLID_ANGLE_UNIT()
);
#2036=(
NAMED_UNIT(*)
PLANE_ANGLE_UNIT()
SI_UNIT($,.RADIAN.)
);
#2037=(
LENGTH_UNIT()
NAMED_UNIT(*)
SI_UNIT($,.METRE.)
);
#2038=PRODUCT_DEFINITION_SHAPE('','',#2039);
#2039=PRODUCT_DEFINITION('','',#2041,#2040);
#2040=PRODUCT_DEFINITION_CONTEXT('',#2047,'design');
#2041=PRODUCT_DEFINITION_FORMATION_WITH_SPECIFIED_SOURCE('','',#2043,
 .NOT_KNOWN.);
#2042=PRODUCT_RELATED_PRODUCT_CATEGORY('','',(#2043));
#2043=PRODUCT('Part 18','Part 18','Part 18',(#2045));
#2044=PRODUCT_CATEGORY('','');
#2045=PRODUCT_CONTEXT('',#2047,'mechanical');
#2046=APPLICATION_PROTOCOL_DEFINITION('international standard',
'ap242_managed_model_based_3d_engineering',2020,#2047);
#2047=APPLICATION_CONTEXT('managed model based 3d engineering');
ENDSEC;
END-ISO-10303-21;
