ISO-10303-21;
HEADER;
/* Generated by software containing ST-Developer
 * from STEP Tools, Inc. (www.steptools.com) 
 */
/* OPTION: using custom renumber hook */

FILE_DESCRIPTION(
/* description */ ('STEP AP242 Edition 2',
'CAx-IF Rec.Pracs.---Representation and Presentation of Product Manufa
cturing Information (PMI)---4.0---2014-10-13',
'CAx-IF Rec.Pracs.---3D Tessellated Geometry---0.4---2014-09-14','2;1',
'CAx-IF Rec.Pracs.---User Defined Attributes---1.5---2016-08-15'),
/* implementation_level */ '2;1');

FILE_NAME(
/* name */ 'v2 - Part 125',
/* time_stamp */ '2026-07-31T04:45:53Z',
/* author */ (''),
/* organization */ (''),
/* preprocessor_version */ 'ST-DEVELOPER v20',
/* originating_system */ 'ONSHAPE BY PTC INC, 1.218',
/* authorisation */ '  ');

FILE_SCHEMA (('AP242_MANAGED_MODEL_BASED_3D_ENGINEERING_MIM_LF { 1 0 10303 442 3 1 4 }'));
ENDSEC;

DATA;
#10=SHAPE_REPRESENTATION_RELATIONSHIP('','',#265,#11);
#11=ADVANCED_BREP_SHAPE_REPRESENTATION('',(#263),#429);
#12=CYLINDRICAL_SURFACE('',#276,0.00235);
#13=CYLINDRICAL_SURFACE('',#279,0.00235);
#14=CYLINDRICAL_SURFACE('',#282,0.00235);
#15=CIRCLE('',#273,0.00235);
#16=CIRCLE('',#274,0.00235);
#17=CIRCLE('',#275,0.00235);
#18=CIRCLE('',#277,0.00235);
#19=CIRCLE('',#280,0.00235);
#20=CIRCLE('',#283,0.00235);
#21=ORIENTED_EDGE('',*,*,#81,.F.);
#22=ORIENTED_EDGE('',*,*,#82,.T.);
#23=ORIENTED_EDGE('',*,*,#83,.F.);
#24=ORIENTED_EDGE('',*,*,#84,.F.);
#25=ORIENTED_EDGE('',*,*,#85,.F.);
#26=ORIENTED_EDGE('',*,*,#86,.F.);
#27=ORIENTED_EDGE('',*,*,#87,.F.);
#28=ORIENTED_EDGE('',*,*,#88,.T.);
#29=ORIENTED_EDGE('',*,*,#89,.T.);
#30=ORIENTED_EDGE('',*,*,#90,.F.);
#31=ORIENTED_EDGE('',*,*,#82,.F.);
#32=ORIENTED_EDGE('',*,*,#91,.F.);
#33=ORIENTED_EDGE('',*,*,#87,.T.);
#34=ORIENTED_EDGE('',*,*,#92,.T.);
#35=ORIENTED_EDGE('',*,*,#93,.F.);
#36=ORIENTED_EDGE('',*,*,#94,.F.);
#37=ORIENTED_EDGE('',*,*,#95,.T.);
#38=ORIENTED_EDGE('',*,*,#96,.T.);
#39=ORIENTED_EDGE('',*,*,#84,.T.);
#40=ORIENTED_EDGE('',*,*,#97,.T.);
#41=ORIENTED_EDGE('',*,*,#98,.F.);
#42=ORIENTED_EDGE('',*,*,#99,.F.);
#43=ORIENTED_EDGE('',*,*,#93,.T.);
#44=ORIENTED_EDGE('',*,*,#100,.T.);
#45=ORIENTED_EDGE('',*,*,#101,.F.);
#46=ORIENTED_EDGE('',*,*,#89,.F.);
#47=ORIENTED_EDGE('',*,*,#102,.T.);
#48=ORIENTED_EDGE('',*,*,#98,.T.);
#49=ORIENTED_EDGE('',*,*,#103,.F.);
#50=ORIENTED_EDGE('',*,*,#104,.F.);
#51=ORIENTED_EDGE('',*,*,#105,.F.);
#52=ORIENTED_EDGE('',*,*,#88,.F.);
#53=ORIENTED_EDGE('',*,*,#94,.T.);
#54=ORIENTED_EDGE('',*,*,#99,.T.);
#55=ORIENTED_EDGE('',*,*,#102,.F.);
#56=ORIENTED_EDGE('',*,*,#106,.F.);
#57=ORIENTED_EDGE('',*,*,#105,.T.);
#58=ORIENTED_EDGE('',*,*,#106,.T.);
#59=ORIENTED_EDGE('',*,*,#107,.F.);
#60=ORIENTED_EDGE('',*,*,#104,.T.);
#61=ORIENTED_EDGE('',*,*,#107,.T.);
#62=ORIENTED_EDGE('',*,*,#108,.F.);
#63=ORIENTED_EDGE('',*,*,#103,.T.);
#64=ORIENTED_EDGE('',*,*,#108,.T.);
#65=ORIENTED_EDGE('',*,*,#86,.T.);
#66=ORIENTED_EDGE('',*,*,#109,.T.);
#67=ORIENTED_EDGE('',*,*,#100,.F.);
#68=ORIENTED_EDGE('',*,*,#92,.F.);
#69=ORIENTED_EDGE('',*,*,#97,.F.);
#70=ORIENTED_EDGE('',*,*,#83,.T.);
#71=ORIENTED_EDGE('',*,*,#90,.T.);
#72=ORIENTED_EDGE('',*,*,#101,.T.);
#73=ORIENTED_EDGE('',*,*,#85,.T.);
#74=ORIENTED_EDGE('',*,*,#110,.T.);
#75=ORIENTED_EDGE('',*,*,#95,.F.);
#76=ORIENTED_EDGE('',*,*,#109,.F.);
#77=ORIENTED_EDGE('',*,*,#81,.T.);
#78=ORIENTED_EDGE('',*,*,#96,.F.);
#79=ORIENTED_EDGE('',*,*,#110,.F.);
#80=ORIENTED_EDGE('',*,*,#91,.T.);
#81=EDGE_CURVE('',#111,#112,#133,.T.);
#82=EDGE_CURVE('',#111,#113,#134,.T.);
#83=EDGE_CURVE('',#114,#113,#135,.T.);
#84=EDGE_CURVE('',#112,#114,#136,.T.);
#85=EDGE_CURVE('',#115,#116,#137,.T.);
#86=EDGE_CURVE('',#117,#115,#138,.T.);
#87=EDGE_CURVE('',#118,#117,#139,.T.);
#88=EDGE_CURVE('',#118,#119,#140,.T.);
#89=EDGE_CURVE('',#119,#120,#141,.T.);
#90=EDGE_CURVE('',#113,#120,#142,.T.);
#91=EDGE_CURVE('',#116,#111,#143,.T.);
#92=EDGE_CURVE('',#117,#121,#144,.T.);
#93=EDGE_CURVE('',#122,#121,#145,.T.);
#94=EDGE_CURVE('',#118,#122,#146,.T.);
#95=EDGE_CURVE('',#123,#124,#147,.T.);
#96=EDGE_CURVE('',#124,#112,#148,.T.);
#97=EDGE_CURVE('',#114,#125,#149,.T.);
#98=EDGE_CURVE('',#126,#125,#150,.T.);
#99=EDGE_CURVE('',#122,#126,#151,.T.);
#100=EDGE_CURVE('',#121,#123,#152,.T.);
#101=EDGE_CURVE('',#120,#125,#153,.T.);
#102=EDGE_CURVE('',#119,#126,#154,.T.);
#103=EDGE_CURVE('',#127,#127,#15,.T.);
#104=EDGE_CURVE('',#128,#128,#16,.T.);
#105=EDGE_CURVE('',#129,#129,#17,.T.);
#106=EDGE_CURVE('',#130,#130,#18,.T.);
#107=EDGE_CURVE('',#131,#131,#19,.T.);
#108=EDGE_CURVE('',#132,#132,#20,.T.);
#109=EDGE_CURVE('',#115,#123,#155,.T.);
#110=EDGE_CURVE('',#116,#124,#156,.T.);
#111=VERTEX_POINT('',#362);
#112=VERTEX_POINT('',#363);
#113=VERTEX_POINT('',#365);
#114=VERTEX_POINT('',#367);
#115=VERTEX_POINT('',#371);
#116=VERTEX_POINT('',#372);
#117=VERTEX_POINT('',#374);
#118=VERTEX_POINT('',#376);
#119=VERTEX_POINT('',#378);
#120=VERTEX_POINT('',#380);
#121=VERTEX_POINT('',#385);
#122=VERTEX_POINT('',#387);
#123=VERTEX_POINT('',#391);
#124=VERTEX_POINT('',#392);
#125=VERTEX_POINT('',#395);
#126=VERTEX_POINT('',#397);
#127=VERTEX_POINT('',#405);
#128=VERTEX_POINT('',#407);
#129=VERTEX_POINT('',#409);
#130=VERTEX_POINT('',#412);
#131=VERTEX_POINT('',#416);
#132=VERTEX_POINT('',#420);
#133=LINE('',#361,#157);
#134=LINE('',#364,#158);
#135=LINE('',#366,#159);
#136=LINE('',#368,#160);
#137=LINE('',#370,#161);
#138=LINE('',#373,#162);
#139=LINE('',#375,#163);
#140=LINE('',#377,#164);
#141=LINE('',#379,#165);
#142=LINE('',#381,#166);
#143=LINE('',#382,#167);
#144=LINE('',#384,#168);
#145=LINE('',#386,#169);
#146=LINE('',#388,#170);
#147=LINE('',#390,#171);
#148=LINE('',#393,#172);
#149=LINE('',#394,#173);
#150=LINE('',#396,#174);
#151=LINE('',#398,#175);
#152=LINE('',#399,#176);
#153=LINE('',#401,#177);
#154=LINE('',#402,#178);
#155=LINE('',#423,#179);
#156=LINE('',#426,#180);
#157=VECTOR('',#293,1.);
#158=VECTOR('',#294,1.);
#159=VECTOR('',#295,1.);
#160=VECTOR('',#296,1.);
#161=VECTOR('',#299,1.);
#162=VECTOR('',#300,1.);
#163=VECTOR('',#301,1.);
#164=VECTOR('',#302,1.);
#165=VECTOR('',#303,1.);
#166=VECTOR('',#304,1.);
#167=VECTOR('',#305,1.);
#168=VECTOR('',#308,1.);
#169=VECTOR('',#309,1.);
#170=VECTOR('',#310,1.);
#171=VECTOR('',#313,1.);
#172=VECTOR('',#314,1.);
#173=VECTOR('',#315,1.);
#174=VECTOR('',#316,1.);
#175=VECTOR('',#317,1.);
#176=VECTOR('',#318,1.);
#177=VECTOR('',#321,1.);
#178=VECTOR('',#322,1.);
#179=VECTOR('',#351,1.);
#180=VECTOR('',#356,1.);
#181=EDGE_LOOP('',(#21,#22,#23,#24));
#182=EDGE_LOOP('',(#25,#26,#27,#28,#29,#30,#31,#32));
#183=EDGE_LOOP('',(#33,#34,#35,#36));
#184=EDGE_LOOP('',(#37,#38,#39,#40,#41,#42,#43,#44));
#185=EDGE_LOOP('',(#45,#46,#47,#48));
#186=EDGE_LOOP('',(#49));
#187=EDGE_LOOP('',(#50));
#188=EDGE_LOOP('',(#51));
#189=EDGE_LOOP('',(#52,#53,#54,#55));
#190=EDGE_LOOP('',(#56));
#191=EDGE_LOOP('',(#57));
#192=EDGE_LOOP('',(#58));
#193=EDGE_LOOP('',(#59));
#194=EDGE_LOOP('',(#60));
#195=EDGE_LOOP('',(#61));
#196=EDGE_LOOP('',(#62));
#197=EDGE_LOOP('',(#63));
#198=EDGE_LOOP('',(#64));
#199=EDGE_LOOP('',(#65,#66,#67,#68));
#200=EDGE_LOOP('',(#69,#70,#71,#72));
#201=EDGE_LOOP('',(#73,#74,#75,#76));
#202=EDGE_LOOP('',(#77,#78,#79,#80));
#203=FACE_BOUND('',#181,.T.);
#204=FACE_BOUND('',#182,.T.);
#205=FACE_BOUND('',#183,.T.);
#206=FACE_BOUND('',#184,.T.);
#207=FACE_BOUND('',#185,.T.);
#208=FACE_BOUND('',#186,.T.);
#209=FACE_BOUND('',#187,.T.);
#210=FACE_BOUND('',#188,.T.);
#211=FACE_BOUND('',#189,.T.);
#212=FACE_BOUND('',#190,.T.);
#213=FACE_BOUND('',#191,.T.);
#214=FACE_BOUND('',#192,.T.);
#215=FACE_BOUND('',#193,.T.);
#216=FACE_BOUND('',#194,.T.);
#217=FACE_BOUND('',#195,.T.);
#218=FACE_BOUND('',#196,.T.);
#219=FACE_BOUND('',#197,.T.);
#220=FACE_BOUND('',#198,.T.);
#221=FACE_BOUND('',#199,.T.);
#222=FACE_BOUND('',#200,.T.);
#223=FACE_BOUND('',#201,.T.);
#224=FACE_BOUND('',#202,.T.);
#225=PLANE('',#267);
#226=PLANE('',#268);
#227=PLANE('',#269);
#228=PLANE('',#270);
#229=PLANE('',#271);
#230=PLANE('',#272);
#231=PLANE('',#278);
#232=PLANE('',#281);
#233=PLANE('',#284);
#234=PLANE('',#285);
#235=PLANE('',#286);
#236=PLANE('',#287);
#237=PLANE('',#288);
#238=ADVANCED_FACE('',(#203),#225,.F.);
#239=ADVANCED_FACE('',(#204),#226,.T.);
#240=ADVANCED_FACE('',(#205),#227,.F.);
#241=ADVANCED_FACE('',(#206),#228,.F.);
#242=ADVANCED_FACE('',(#207),#229,.T.);
#243=ADVANCED_FACE('',(#208,#209,#210,#211),#230,.T.);
#244=ADVANCED_FACE('',(#212,#213),#12,.F.);
#245=ADVANCED_FACE('',(#214),#231,.T.);
#246=ADVANCED_FACE('',(#215,#216),#13,.F.);
#247=ADVANCED_FACE('',(#217),#232,.T.);
#248=ADVANCED_FACE('',(#218,#219),#14,.F.);
#249=ADVANCED_FACE('',(#220),#233,.T.);
#250=ADVANCED_FACE('',(#221),#234,.F.);
#251=ADVANCED_FACE('',(#222),#235,.F.);
#252=ADVANCED_FACE('',(#223),#236,.F.);
#253=ADVANCED_FACE('',(#224),#237,.F.);
#254=CLOSED_SHELL('',(#238,#239,#240,#241,#242,#243,#244,#245,#246,#247,
#248,#249,#250,#251,#252,#253));
#255=STYLED_ITEM('',(#256),#263);
#256=PRESENTATION_STYLE_ASSIGNMENT((#257));
#257=SURFACE_STYLE_USAGE(.BOTH.,#258);
#258=SURFACE_SIDE_STYLE('',(#259));
#259=SURFACE_STYLE_FILL_AREA(#260);
#260=FILL_AREA_STYLE('',(#261));
#261=FILL_AREA_STYLE_COLOUR('',#262);
#262=COLOUR_RGB('',0.498039215686275,0.498039215686275,0.498039215686275);
#263=MANIFOLD_SOLID_BREP('Part 125',#254);
#264=SHAPE_DEFINITION_REPRESENTATION(#434,#265);
#265=SHAPE_REPRESENTATION('Part 125',(#266),#429);
#266=AXIS2_PLACEMENT_3D('',#359,#289,#290);
#267=AXIS2_PLACEMENT_3D('',#360,#291,#292);
#268=AXIS2_PLACEMENT_3D('',#369,#297,#298);
#269=AXIS2_PLACEMENT_3D('',#383,#306,#307);
#270=AXIS2_PLACEMENT_3D('',#389,#311,#312);
#271=AXIS2_PLACEMENT_3D('',#400,#319,#320);
#272=AXIS2_PLACEMENT_3D('',#403,#323,#324);
#273=AXIS2_PLACEMENT_3D('',#404,#325,#326);
#274=AXIS2_PLACEMENT_3D('',#406,#327,#328);
#275=AXIS2_PLACEMENT_3D('',#408,#329,#330);
#276=AXIS2_PLACEMENT_3D('',#410,#331,#332);
#277=AXIS2_PLACEMENT_3D('',#411,#333,#334);
#278=AXIS2_PLACEMENT_3D('',#413,#335,#336);
#279=AXIS2_PLACEMENT_3D('',#414,#337,#338);
#280=AXIS2_PLACEMENT_3D('',#415,#339,#340);
#281=AXIS2_PLACEMENT_3D('',#417,#341,#342);
#282=AXIS2_PLACEMENT_3D('',#418,#343,#344);
#283=AXIS2_PLACEMENT_3D('',#419,#345,#346);
#284=AXIS2_PLACEMENT_3D('',#421,#347,#348);
#285=AXIS2_PLACEMENT_3D('',#422,#349,#350);
#286=AXIS2_PLACEMENT_3D('',#424,#352,#353);
#287=AXIS2_PLACEMENT_3D('',#425,#354,#355);
#288=AXIS2_PLACEMENT_3D('',#427,#357,#358);
#289=DIRECTION('',(0.,0.,1.));
#290=DIRECTION('',(1.,0.,0.));
#291=DIRECTION('',(-1.,2.16840434497101E-16,0.));
#292=DIRECTION('',(-2.16840434497101E-16,-1.,0.));
#293=DIRECTION('',(-2.16840434497101E-16,-1.,0.));
#294=DIRECTION('',(0.,0.,1.));
#295=DIRECTION('',(2.16840434497101E-16,1.,0.));
#296=DIRECTION('',(0.,0.,1.));
#297=DIRECTION('',(0.,1.,0.));
#298=DIRECTION('',(0.,0.,1.));
#299=DIRECTION('',(0.,0.,1.));
#300=DIRECTION('',(1.,0.,0.));
#301=DIRECTION('',(0.,0.,-1.));
#302=DIRECTION('',(1.,0.,0.));
#303=DIRECTION('',(0.,0.,-1.));
#304=DIRECTION('',(-1.,0.,0.));
#305=DIRECTION('',(1.,-2.16840434497101E-16,0.));
#306=DIRECTION('',(1.,4.33680868994202E-16,0.));
#307=DIRECTION('',(-4.33680868994202E-16,1.,0.));
#308=DIRECTION('',(4.33680868994202E-16,-1.,0.));
#309=DIRECTION('',(0.,0.,-1.));
#310=DIRECTION('',(4.33680868994202E-16,-1.,0.));
#311=DIRECTION('',(0.,1.,0.));
#312=DIRECTION('',(0.,0.,1.));
#313=DIRECTION('',(0.,0.,1.));
#314=DIRECTION('',(1.,-2.16840434497101E-16,0.));
#315=DIRECTION('',(-1.,0.,0.));
#316=DIRECTION('',(0.,0.,-1.));
#317=DIRECTION('',(1.,0.,0.));
#318=DIRECTION('',(1.,0.,0.));
#319=DIRECTION('',(1.,0.,0.));
#320=DIRECTION('',(0.,0.,-1.));
#321=DIRECTION('',(0.,-1.,0.));
#322=DIRECTION('',(0.,-1.,0.));
#323=DIRECTION('',(0.,0.,1.));
#324=DIRECTION('',(1.,0.,0.));
#325=DIRECTION('',(0.,0.,1.));
#326=DIRECTION('',(1.,0.,0.));
#327=DIRECTION('',(0.,0.,1.));
#328=DIRECTION('',(1.,0.,0.));
#329=DIRECTION('',(0.,0.,1.));
#330=DIRECTION('',(1.,0.,0.));
#331=DIRECTION('',(0.,0.,1.));
#332=DIRECTION('',(1.,0.,0.));
#333=DIRECTION('',(0.,0.,1.));
#334=DIRECTION('',(1.,0.,0.));
#335=DIRECTION('',(0.,0.,1.));
#336=DIRECTION('',(1.,0.,0.));
#337=DIRECTION('',(0.,0.,1.));
#338=DIRECTION('',(1.,0.,0.));
#339=DIRECTION('',(0.,0.,1.));
#340=DIRECTION('',(1.,0.,0.));
#341=DIRECTION('',(0.,0.,1.));
#342=DIRECTION('',(1.,0.,0.));
#343=DIRECTION('',(0.,0.,1.));
#344=DIRECTION('',(1.,0.,0.));
#345=DIRECTION('',(0.,0.,1.));
#346=DIRECTION('',(1.,0.,0.));
#347=DIRECTION('',(0.,0.,1.));
#348=DIRECTION('',(1.,0.,0.));
#349=DIRECTION('',(0.,0.,1.));
#350=DIRECTION('',(1.,0.,0.));
#351=DIRECTION('',(-2.16840434497101E-16,-1.,0.));
#352=DIRECTION('',(0.,0.,-1.));
#353=DIRECTION('',(-1.,0.,0.));
#354=DIRECTION('',(-1.,2.16840434497101E-16,0.));
#355=DIRECTION('',(-2.16840434497101E-16,-1.,0.));
#356=DIRECTION('',(-2.16840434497101E-16,-1.,0.));
#357=DIRECTION('',(0.,0.,1.));
#358=DIRECTION('',(1.,0.,0.));
#359=CARTESIAN_POINT('',(0.,0.,0.));
#360=CARTESIAN_POINT('',(0.052,-0.106,-0.067002));
#361=CARTESIAN_POINT('',(0.052,-0.106,0.008));
#362=CARTESIAN_POINT('',(0.052,-0.102,0.008));
#363=CARTESIAN_POINT('',(0.052,-0.11,0.008));
#364=CARTESIAN_POINT('',(0.052,-0.102,0.033));
#365=CARTESIAN_POINT('',(0.052,-0.102,0.0111));
#366=CARTESIAN_POINT('',(0.052,-0.106,0.0111));
#367=CARTESIAN_POINT('',(0.052,-0.11,0.0111));
#368=CARTESIAN_POINT('',(0.052,-0.11,0.033));
#369=CARTESIAN_POINT('',(0.006,-0.102,0.033));
#370=CARTESIAN_POINT('',(0.0519,-0.102,-0.067002));
#371=CARTESIAN_POINT('',(0.0519,-0.102,0.0031));
#372=CARTESIAN_POINT('',(0.0519,-0.102,0.008));
#373=CARTESIAN_POINT('',(0.006,-0.102,0.0031));
#374=CARTESIAN_POINT('',(-0.012,-0.102,0.0031));
#375=CARTESIAN_POINT('',(-0.012,-0.102,0.033));
#376=CARTESIAN_POINT('',(-0.012,-0.102,0.033));
#377=CARTESIAN_POINT('',(0.006,-0.102,0.033));
#378=CARTESIAN_POINT('',(0.012,-0.102,0.033));
#379=CARTESIAN_POINT('',(0.012,-0.102,0.033));
#380=CARTESIAN_POINT('',(0.012,-0.102,0.0111));
#381=CARTESIAN_POINT('',(0.052002,-0.102,0.0111));
#382=CARTESIAN_POINT('',(0.0519,-0.102,0.008));
#383=CARTESIAN_POINT('',(-0.012,-0.106,0.033));
#384=CARTESIAN_POINT('',(-0.012,-0.106,0.0031));
#385=CARTESIAN_POINT('',(-0.012,-0.11,0.0031));
#386=CARTESIAN_POINT('',(-0.012,-0.11,0.033));
#387=CARTESIAN_POINT('',(-0.012,-0.11,0.033));
#388=CARTESIAN_POINT('',(-0.012,-0.106,0.033));
#389=CARTESIAN_POINT('',(0.006,-0.11,0.033));
#390=CARTESIAN_POINT('',(0.0519,-0.11,-0.067002));
#391=CARTESIAN_POINT('',(0.0519,-0.11,0.0031));
#392=CARTESIAN_POINT('',(0.0519,-0.11,0.008));
#393=CARTESIAN_POINT('',(0.0519,-0.11,0.008));
#394=CARTESIAN_POINT('',(0.052002,-0.11,0.0111));
#395=CARTESIAN_POINT('',(0.012,-0.11,0.0111));
#396=CARTESIAN_POINT('',(0.012,-0.11,0.033));
#397=CARTESIAN_POINT('',(0.012,-0.11,0.033));
#398=CARTESIAN_POINT('',(0.006,-0.11,0.033));
#399=CARTESIAN_POINT('',(0.006,-0.11,0.0031));
#400=CARTESIAN_POINT('',(0.012,-0.106,0.033));
#401=CARTESIAN_POINT('',(0.012,-0.106,0.0111));
#402=CARTESIAN_POINT('',(0.012,-0.106,0.033));
#403=CARTESIAN_POINT('',(-1.38777878078145E-17,-0.09,0.033));
#404=CARTESIAN_POINT('',(-0.008,-0.106,0.033));
#405=CARTESIAN_POINT('',(-0.00565,-0.106,0.033));
#406=CARTESIAN_POINT('',(0.008,-0.106,0.033));
#407=CARTESIAN_POINT('',(0.01035,-0.106,0.033));
#408=CARTESIAN_POINT('',(-6.21542816481864E-18,-0.106,0.033));
#409=CARTESIAN_POINT('',(0.00234999999999999,-0.106,0.033));
#410=CARTESIAN_POINT('',(-6.21542816481864E-18,-0.106,0.026));
#411=CARTESIAN_POINT('',(-6.21542816481864E-18,-0.106,0.026));
#412=CARTESIAN_POINT('',(0.00234999999999999,-0.106,0.026));
#413=CARTESIAN_POINT('',(-6.93889390390723E-18,-0.106,0.026));
#414=CARTESIAN_POINT('',(0.008,-0.106,0.026));
#415=CARTESIAN_POINT('',(0.008,-0.106,0.026));
#416=CARTESIAN_POINT('',(0.01035,-0.106,0.026));
#417=CARTESIAN_POINT('',(-6.93889390390723E-18,-0.106,0.026));
#418=CARTESIAN_POINT('',(-0.008,-0.106,0.026));
#419=CARTESIAN_POINT('',(-0.008,-0.106,0.026));
#420=CARTESIAN_POINT('',(-0.00565,-0.106,0.026));
#421=CARTESIAN_POINT('',(-6.93889390390723E-18,-0.106,0.026));
#422=CARTESIAN_POINT('',(-1.38777878078145E-17,-0.09,0.0031));
#423=CARTESIAN_POINT('',(0.0519,-0.09,0.0031));
#424=CARTESIAN_POINT('',(0.052002,-0.106,0.0111));
#425=CARTESIAN_POINT('',(0.0519,-0.106,-0.067002));
#426=CARTESIAN_POINT('',(0.0519,-0.106,0.008));
#427=CARTESIAN_POINT('',(0.0519,-0.106,0.008));
#428=MECHANICAL_DESIGN_GEOMETRIC_PRESENTATION_REPRESENTATION('',(#255),
#429);
#429=(
GEOMETRIC_REPRESENTATION_CONTEXT(3)
GLOBAL_UNCERTAINTY_ASSIGNED_CONTEXT((#430))
GLOBAL_UNIT_ASSIGNED_CONTEXT((#433,#432,#431))
REPRESENTATION_CONTEXT('Part 125','TOP_LEVEL_ASSEMBLY_PART')
);
#430=UNCERTAINTY_MEASURE_WITH_UNIT(LENGTH_MEASURE(1.E-8),#433,
'DISTANCE_ACCURACY_VALUE','Maximum Tolerance applied to model');
#431=(
NAMED_UNIT(*)
SI_UNIT($,.STERADIAN.)
SOLID_ANGLE_UNIT()
);
#432=(
NAMED_UNIT(*)
PLANE_ANGLE_UNIT()
SI_UNIT($,.RADIAN.)
);
#433=(
LENGTH_UNIT()
NAMED_UNIT(*)
SI_UNIT($,.METRE.)
);
#434=PRODUCT_DEFINITION_SHAPE('','',#435);
#435=PRODUCT_DEFINITION('','',#437,#436);
#436=PRODUCT_DEFINITION_CONTEXT('',#443,'design');
#437=PRODUCT_DEFINITION_FORMATION_WITH_SPECIFIED_SOURCE('','',#439,
 .NOT_KNOWN.);
#438=PRODUCT_RELATED_PRODUCT_CATEGORY('','',(#439));
#439=PRODUCT('Part 125','Part 125','Part 125',(#441));
#440=PRODUCT_CATEGORY('','');
#441=PRODUCT_CONTEXT('',#443,'mechanical');
#442=APPLICATION_PROTOCOL_DEFINITION('international standard',
'ap242_managed_model_based_3d_engineering',2020,#443);
#443=APPLICATION_CONTEXT('managed model based 3d engineering');
ENDSEC;
END-ISO-10303-21;
