ISO-10303-21;
HEADER;
/* Generated by software containing ST-Developer
 * from STEP Tools, Inc. (www.steptools.com) 
 */
/* OPTION: using custom renumber hook */

FILE_DESCRIPTION(
/* description */ ('STEP AP242 Edition 2',
'CAx-IF Rec.Pracs.---Representation and Presentation of Product Manufa
cturing Information (PMI)---4.0---2014-10-13',
'CAx-IF Rec.Pracs.---3D Tessellated Geometry---0.4---2014-09-14','2;1',
'CAx-IF Rec.Pracs.---User Defined Attributes---1.5---2016-08-15'),
/* implementation_level */ '2;1');

FILE_NAME(
/* name */ 'v2 - Part 135',
/* time_stamp */ '2026-07-31T05:41:11Z',
/* author */ (''),
/* organization */ (''),
/* preprocessor_version */ 'ST-DEVELOPER v20',
/* originating_system */ 'ONSHAPE BY PTC INC, 1.218',
/* authorisation */ '  ');

FILE_SCHEMA (('AP242_MANAGED_MODEL_BASED_3D_ENGINEERING_MIM_LF { 1 0 10303 442 3 1 4 }'));
ENDSEC;

DATA;
#10=SHAPE_REPRESENTATION_RELATIONSHIP('','',#495,#11);
#11=ADVANCED_BREP_SHAPE_REPRESENTATION('',(#493),#777);
#12=CYLINDRICAL_SURFACE('',#519,0.00275);
#13=CYLINDRICAL_SURFACE('',#520,0.00275);
#14=CIRCLE('',#498,0.00275);
#15=CIRCLE('',#499,0.00275);
#16=CIRCLE('',#504,0.00275);
#17=CIRCLE('',#505,0.00275);
#18=ORIENTED_EDGE('',*,*,#146,.T.);
#19=ORIENTED_EDGE('',*,*,#147,.T.);
#20=ORIENTED_EDGE('',*,*,#148,.T.);
#21=ORIENTED_EDGE('',*,*,#149,.T.);
#22=ORIENTED_EDGE('',*,*,#150,.T.);
#23=ORIENTED_EDGE('',*,*,#151,.F.);
#24=ORIENTED_EDGE('',*,*,#152,.T.);
#25=ORIENTED_EDGE('',*,*,#153,.F.);
#26=ORIENTED_EDGE('',*,*,#154,.F.);
#27=ORIENTED_EDGE('',*,*,#155,.F.);
#28=ORIENTED_EDGE('',*,*,#156,.T.);
#29=ORIENTED_EDGE('',*,*,#157,.F.);
#30=ORIENTED_EDGE('',*,*,#158,.F.);
#31=ORIENTED_EDGE('',*,*,#159,.F.);
#32=ORIENTED_EDGE('',*,*,#160,.T.);
#33=ORIENTED_EDGE('',*,*,#161,.F.);
#34=ORIENTED_EDGE('',*,*,#162,.F.);
#35=ORIENTED_EDGE('',*,*,#163,.F.);
#36=ORIENTED_EDGE('',*,*,#164,.T.);
#37=ORIENTED_EDGE('',*,*,#165,.T.);
#38=ORIENTED_EDGE('',*,*,#166,.F.);
#39=ORIENTED_EDGE('',*,*,#167,.T.);
#40=ORIENTED_EDGE('',*,*,#168,.F.);
#41=ORIENTED_EDGE('',*,*,#169,.T.);
#42=ORIENTED_EDGE('',*,*,#161,.T.);
#43=ORIENTED_EDGE('',*,*,#170,.F.);
#44=ORIENTED_EDGE('',*,*,#157,.T.);
#45=ORIENTED_EDGE('',*,*,#171,.T.);
#46=ORIENTED_EDGE('',*,*,#172,.F.);
#47=ORIENTED_EDGE('',*,*,#173,.F.);
#48=ORIENTED_EDGE('',*,*,#174,.F.);
#49=ORIENTED_EDGE('',*,*,#175,.F.);
#50=ORIENTED_EDGE('',*,*,#176,.T.);
#51=ORIENTED_EDGE('',*,*,#153,.T.);
#52=ORIENTED_EDGE('',*,*,#177,.T.);
#53=ORIENTED_EDGE('',*,*,#178,.T.);
#54=ORIENTED_EDGE('',*,*,#179,.F.);
#55=ORIENTED_EDGE('',*,*,#180,.F.);
#56=ORIENTED_EDGE('',*,*,#181,.F.);
#57=ORIENTED_EDGE('',*,*,#182,.F.);
#58=ORIENTED_EDGE('',*,*,#183,.T.);
#59=ORIENTED_EDGE('',*,*,#184,.T.);
#60=ORIENTED_EDGE('',*,*,#168,.T.);
#61=ORIENTED_EDGE('',*,*,#185,.F.);
#62=ORIENTED_EDGE('',*,*,#186,.T.);
#63=ORIENTED_EDGE('',*,*,#187,.F.);
#64=ORIENTED_EDGE('',*,*,#172,.T.);
#65=ORIENTED_EDGE('',*,*,#188,.T.);
#66=ORIENTED_EDGE('',*,*,#189,.T.);
#67=ORIENTED_EDGE('',*,*,#190,.T.);
#68=ORIENTED_EDGE('',*,*,#175,.T.);
#69=ORIENTED_EDGE('',*,*,#191,.F.);
#70=ORIENTED_EDGE('',*,*,#192,.T.);
#71=ORIENTED_EDGE('',*,*,#193,.T.);
#72=ORIENTED_EDGE('',*,*,#194,.F.);
#73=ORIENTED_EDGE('',*,*,#195,.F.);
#74=ORIENTED_EDGE('',*,*,#164,.F.);
#75=ORIENTED_EDGE('',*,*,#196,.T.);
#76=ORIENTED_EDGE('',*,*,#195,.T.);
#77=ORIENTED_EDGE('',*,*,#197,.F.);
#78=ORIENTED_EDGE('',*,*,#193,.F.);
#79=ORIENTED_EDGE('',*,*,#198,.T.);
#80=ORIENTED_EDGE('',*,*,#166,.T.);
#81=ORIENTED_EDGE('',*,*,#199,.F.);
#82=ORIENTED_EDGE('',*,*,#165,.F.);
#83=ORIENTED_EDGE('',*,*,#197,.T.);
#84=ORIENTED_EDGE('',*,*,#194,.T.);
#85=ORIENTED_EDGE('',*,*,#199,.T.);
#86=ORIENTED_EDGE('',*,*,#151,.T.);
#87=ORIENTED_EDGE('',*,*,#198,.F.);
#88=ORIENTED_EDGE('',*,*,#192,.F.);
#89=ORIENTED_EDGE('',*,*,#200,.T.);
#90=ORIENTED_EDGE('',*,*,#191,.T.);
#91=ORIENTED_EDGE('',*,*,#174,.T.);
#92=ORIENTED_EDGE('',*,*,#152,.F.);
#93=ORIENTED_EDGE('',*,*,#200,.F.);
#94=ORIENTED_EDGE('',*,*,#196,.F.);
#95=ORIENTED_EDGE('',*,*,#163,.T.);
#96=ORIENTED_EDGE('',*,*,#201,.F.);
#97=ORIENTED_EDGE('',*,*,#183,.F.);
#98=ORIENTED_EDGE('',*,*,#201,.T.);
#99=ORIENTED_EDGE('',*,*,#162,.T.);
#100=ORIENTED_EDGE('',*,*,#169,.F.);
#101=ORIENTED_EDGE('',*,*,#184,.F.);
#102=ORIENTED_EDGE('',*,*,#185,.T.);
#103=ORIENTED_EDGE('',*,*,#170,.T.);
#104=ORIENTED_EDGE('',*,*,#160,.F.);
#105=ORIENTED_EDGE('',*,*,#202,.F.);
#106=ORIENTED_EDGE('',*,*,#187,.T.);
#107=ORIENTED_EDGE('',*,*,#203,.F.);
#108=ORIENTED_EDGE('',*,*,#158,.T.);
#109=ORIENTED_EDGE('',*,*,#173,.T.);
#110=ORIENTED_EDGE('',*,*,#202,.T.);
#111=ORIENTED_EDGE('',*,*,#159,.T.);
#112=ORIENTED_EDGE('',*,*,#203,.T.);
#113=ORIENTED_EDGE('',*,*,#186,.F.);
#114=ORIENTED_EDGE('',*,*,#171,.F.);
#115=ORIENTED_EDGE('',*,*,#156,.F.);
#116=ORIENTED_EDGE('',*,*,#204,.T.);
#117=ORIENTED_EDGE('',*,*,#188,.F.);
#118=ORIENTED_EDGE('',*,*,#205,.T.);
#119=ORIENTED_EDGE('',*,*,#154,.T.);
#120=ORIENTED_EDGE('',*,*,#176,.F.);
#121=ORIENTED_EDGE('',*,*,#190,.F.);
#122=ORIENTED_EDGE('',*,*,#204,.F.);
#123=ORIENTED_EDGE('',*,*,#155,.T.);
#124=ORIENTED_EDGE('',*,*,#205,.F.);
#125=ORIENTED_EDGE('',*,*,#189,.F.);
#126=ORIENTED_EDGE('',*,*,#150,.F.);
#127=ORIENTED_EDGE('',*,*,#177,.F.);
#128=ORIENTED_EDGE('',*,*,#167,.F.);
#129=ORIENTED_EDGE('',*,*,#178,.F.);
#130=ORIENTED_EDGE('',*,*,#206,.T.);
#131=ORIENTED_EDGE('',*,*,#179,.T.);
#132=ORIENTED_EDGE('',*,*,#207,.F.);
#133=ORIENTED_EDGE('',*,*,#147,.F.);
#134=ORIENTED_EDGE('',*,*,#208,.T.);
#135=ORIENTED_EDGE('',*,*,#180,.T.);
#136=ORIENTED_EDGE('',*,*,#206,.F.);
#137=ORIENTED_EDGE('',*,*,#146,.F.);
#138=ORIENTED_EDGE('',*,*,#209,.T.);
#139=ORIENTED_EDGE('',*,*,#181,.T.);
#140=ORIENTED_EDGE('',*,*,#208,.F.);
#141=ORIENTED_EDGE('',*,*,#149,.F.);
#142=ORIENTED_EDGE('',*,*,#207,.T.);
#143=ORIENTED_EDGE('',*,*,#182,.T.);
#144=ORIENTED_EDGE('',*,*,#209,.F.);
#145=ORIENTED_EDGE('',*,*,#148,.F.);
#146=EDGE_CURVE('',#210,#211,#254,.T.);
#147=EDGE_CURVE('',#211,#212,#255,.T.);
#148=EDGE_CURVE('',#212,#213,#256,.T.);
#149=EDGE_CURVE('',#213,#210,#257,.T.);
#150=EDGE_CURVE('',#214,#214,#14,.T.);
#151=EDGE_CURVE('',#215,#216,#258,.T.);
#152=EDGE_CURVE('',#215,#217,#259,.T.);
#153=EDGE_CURVE('',#218,#217,#260,.T.);
#154=EDGE_CURVE('',#219,#218,#261,.T.);
#155=EDGE_CURVE('',#220,#219,#262,.T.);
#156=EDGE_CURVE('',#220,#221,#263,.T.);
#157=EDGE_CURVE('',#222,#221,#264,.T.);
#158=EDGE_CURVE('',#223,#222,#265,.T.);
#159=EDGE_CURVE('',#224,#223,#266,.T.);
#160=EDGE_CURVE('',#224,#225,#267,.T.);
#161=EDGE_CURVE('',#226,#225,#268,.T.);
#162=EDGE_CURVE('',#227,#226,#269,.T.);
#163=EDGE_CURVE('',#228,#227,#270,.T.);
#164=EDGE_CURVE('',#228,#229,#271,.T.);
#165=EDGE_CURVE('',#229,#230,#272,.T.);
#166=EDGE_CURVE('',#216,#230,#273,.T.);
#167=EDGE_CURVE('',#231,#231,#15,.T.);
#168=EDGE_CURVE('',#232,#233,#274,.T.);
#169=EDGE_CURVE('',#232,#226,#275,.T.);
#170=EDGE_CURVE('',#233,#225,#276,.T.);
#171=EDGE_CURVE('',#221,#234,#277,.T.);
#172=EDGE_CURVE('',#235,#234,#278,.T.);
#173=EDGE_CURVE('',#222,#235,#279,.T.);
#174=EDGE_CURVE('',#236,#217,#280,.T.);
#175=EDGE_CURVE('',#237,#236,#281,.T.);
#176=EDGE_CURVE('',#237,#218,#282,.T.);
#177=EDGE_CURVE('',#238,#238,#16,.F.);
#178=EDGE_CURVE('',#239,#239,#17,.F.);
#179=EDGE_CURVE('',#240,#241,#283,.T.);
#180=EDGE_CURVE('',#242,#240,#284,.T.);
#181=EDGE_CURVE('',#243,#242,#285,.T.);
#182=EDGE_CURVE('',#241,#243,#286,.T.);
#183=EDGE_CURVE('',#244,#245,#287,.T.);
#184=EDGE_CURVE('',#245,#232,#288,.T.);
#185=EDGE_CURVE('',#246,#233,#289,.T.);
#186=EDGE_CURVE('',#246,#247,#290,.T.);
#187=EDGE_CURVE('',#235,#247,#291,.T.);
#188=EDGE_CURVE('',#234,#248,#292,.T.);
#189=EDGE_CURVE('',#248,#249,#293,.T.);
#190=EDGE_CURVE('',#249,#237,#294,.T.);
#191=EDGE_CURVE('',#250,#236,#295,.T.);
#192=EDGE_CURVE('',#250,#251,#296,.T.);
#193=EDGE_CURVE('',#251,#252,#297,.T.);
#194=EDGE_CURVE('',#253,#252,#298,.T.);
#195=EDGE_CURVE('',#244,#253,#299,.T.);
#196=EDGE_CURVE('',#228,#244,#300,.T.);
#197=EDGE_CURVE('',#229,#253,#301,.T.);
#198=EDGE_CURVE('',#251,#216,#302,.T.);
#199=EDGE_CURVE('',#252,#230,#303,.T.);
#200=EDGE_CURVE('',#250,#215,#304,.T.);
#201=EDGE_CURVE('',#245,#227,#305,.T.);
#202=EDGE_CURVE('',#246,#224,#306,.T.);
#203=EDGE_CURVE('',#223,#247,#307,.T.);
#204=EDGE_CURVE('',#220,#248,#308,.T.);
#205=EDGE_CURVE('',#249,#219,#309,.T.);
#206=EDGE_CURVE('',#211,#240,#310,.T.);
#207=EDGE_CURVE('',#212,#241,#311,.T.);
#208=EDGE_CURVE('',#210,#242,#312,.T.);
#209=EDGE_CURVE('',#213,#243,#313,.T.);
#210=VERTEX_POINT('',#646);
#211=VERTEX_POINT('',#647);
#212=VERTEX_POINT('',#649);
#213=VERTEX_POINT('',#651);
#214=VERTEX_POINT('',#654);
#215=VERTEX_POINT('',#656);
#216=VERTEX_POINT('',#657);
#217=VERTEX_POINT('',#659);
#218=VERTEX_POINT('',#661);
#219=VERTEX_POINT('',#663);
#220=VERTEX_POINT('',#665);
#221=VERTEX_POINT('',#667);
#222=VERTEX_POINT('',#669);
#223=VERTEX_POINT('',#671);
#224=VERTEX_POINT('',#673);
#225=VERTEX_POINT('',#675);
#226=VERTEX_POINT('',#677);
#227=VERTEX_POINT('',#679);
#228=VERTEX_POINT('',#681);
#229=VERTEX_POINT('',#683);
#230=VERTEX_POINT('',#685);
#231=VERTEX_POINT('',#688);
#232=VERTEX_POINT('',#691);
#233=VERTEX_POINT('',#692);
#234=VERTEX_POINT('',#697);
#235=VERTEX_POINT('',#699);
#236=VERTEX_POINT('',#703);
#237=VERTEX_POINT('',#705);
#238=VERTEX_POINT('',#709);
#239=VERTEX_POINT('',#711);
#240=VERTEX_POINT('',#713);
#241=VERTEX_POINT('',#714);
#242=VERTEX_POINT('',#716);
#243=VERTEX_POINT('',#718);
#244=VERTEX_POINT('',#721);
#245=VERTEX_POINT('',#722);
#246=VERTEX_POINT('',#725);
#247=VERTEX_POINT('',#727);
#248=VERTEX_POINT('',#730);
#249=VERTEX_POINT('',#732);
#250=VERTEX_POINT('',#735);
#251=VERTEX_POINT('',#737);
#252=VERTEX_POINT('',#739);
#253=VERTEX_POINT('',#741);
#254=LINE('',#645,#314);
#255=LINE('',#648,#315);
#256=LINE('',#650,#316);
#257=LINE('',#652,#317);
#258=LINE('',#655,#318);
#259=LINE('',#658,#319);
#260=LINE('',#660,#320);
#261=LINE('',#662,#321);
#262=LINE('',#664,#322);
#263=LINE('',#666,#323);
#264=LINE('',#668,#324);
#265=LINE('',#670,#325);
#266=LINE('',#672,#326);
#267=LINE('',#674,#327);
#268=LINE('',#676,#328);
#269=LINE('',#678,#329);
#270=LINE('',#680,#330);
#271=LINE('',#682,#331);
#272=LINE('',#684,#332);
#273=LINE('',#686,#333);
#274=LINE('',#690,#334);
#275=LINE('',#693,#335);
#276=LINE('',#694,#336);
#277=LINE('',#696,#337);
#278=LINE('',#698,#338);
#279=LINE('',#700,#339);
#280=LINE('',#702,#340);
#281=LINE('',#704,#341);
#282=LINE('',#706,#342);
#283=LINE('',#712,#343);
#284=LINE('',#715,#344);
#285=LINE('',#717,#345);
#286=LINE('',#719,#346);
#287=LINE('',#720,#347);
#288=LINE('',#723,#348);
#289=LINE('',#724,#349);
#290=LINE('',#726,#350);
#291=LINE('',#728,#351);
#292=LINE('',#729,#352);
#293=LINE('',#731,#353);
#294=LINE('',#733,#354);
#295=LINE('',#734,#355);
#296=LINE('',#736,#356);
#297=LINE('',#738,#357);
#298=LINE('',#740,#358);
#299=LINE('',#742,#359);
#300=LINE('',#744,#360);
#301=LINE('',#745,#361);
#302=LINE('',#747,#362);
#303=LINE('',#748,#363);
#304=LINE('',#751,#364);
#305=LINE('',#754,#365);
#306=LINE('',#757,#366);
#307=LINE('',#759,#367);
#308=LINE('',#762,#368);
#309=LINE('',#764,#369);
#310=LINE('',#769,#370);
#311=LINE('',#770,#371);
#312=LINE('',#772,#372);
#313=LINE('',#774,#373);
#314=VECTOR('',#529,1.);
#315=VECTOR('',#530,1.);
#316=VECTOR('',#531,1.);
#317=VECTOR('',#532,1.);
#318=VECTOR('',#535,1.);
#319=VECTOR('',#536,1.);
#320=VECTOR('',#537,1.);
#321=VECTOR('',#538,1.);
#322=VECTOR('',#539,1.);
#323=VECTOR('',#540,1.);
#324=VECTOR('',#541,1.);
#325=VECTOR('',#542,1.);
#326=VECTOR('',#543,1.);
#327=VECTOR('',#544,1.);
#328=VECTOR('',#545,1.);
#329=VECTOR('',#546,1.);
#330=VECTOR('',#547,1.);
#331=VECTOR('',#548,1.);
#332=VECTOR('',#549,1.);
#333=VECTOR('',#550,1.);
#334=VECTOR('',#555,1.);
#335=VECTOR('',#556,1.);
#336=VECTOR('',#557,1.);
#337=VECTOR('',#560,1.);
#338=VECTOR('',#561,1.);
#339=VECTOR('',#562,1.);
#340=VECTOR('',#565,1.);
#341=VECTOR('',#566,1.);
#342=VECTOR('',#567,1.);
#343=VECTOR('',#574,1.);
#344=VECTOR('',#575,1.);
#345=VECTOR('',#576,1.);
#346=VECTOR('',#577,1.);
#347=VECTOR('',#578,1.);
#348=VECTOR('',#579,1.);
#349=VECTOR('',#580,1.);
#350=VECTOR('',#581,1.);
#351=VECTOR('',#582,1.);
#352=VECTOR('',#583,1.);
#353=VECTOR('',#584,1.);
#354=VECTOR('',#585,1.);
#355=VECTOR('',#586,1.);
#356=VECTOR('',#587,1.);
#357=VECTOR('',#588,1.);
#358=VECTOR('',#589,1.);
#359=VECTOR('',#590,1.);
#360=VECTOR('',#593,1.);
#361=VECTOR('',#594,1.);
#362=VECTOR('',#597,1.);
#363=VECTOR('',#598,1.);
#364=VECTOR('',#603,1.);
#365=VECTOR('',#608,1.);
#366=VECTOR('',#613,1.);
#367=VECTOR('',#616,1.);
#368=VECTOR('',#621,1.);
#369=VECTOR('',#624,1.);
#370=VECTOR('',#633,1.);
#371=VECTOR('',#634,1.);
#372=VECTOR('',#637,1.);
#373=VECTOR('',#640,1.);
#374=EDGE_LOOP('',(#18,#19,#20,#21));
#375=EDGE_LOOP('',(#22));
#376=EDGE_LOOP('',(#23,#24,#25,#26,#27,#28,#29,#30,#31,#32,#33,#34,#35,
#36,#37,#38));
#377=EDGE_LOOP('',(#39));
#378=EDGE_LOOP('',(#40,#41,#42,#43));
#379=EDGE_LOOP('',(#44,#45,#46,#47));
#380=EDGE_LOOP('',(#48,#49,#50,#51));
#381=EDGE_LOOP('',(#52));
#382=EDGE_LOOP('',(#53));
#383=EDGE_LOOP('',(#54,#55,#56,#57));
#384=EDGE_LOOP('',(#58,#59,#60,#61,#62,#63,#64,#65,#66,#67,#68,#69,#70,
#71,#72,#73));
#385=EDGE_LOOP('',(#74,#75,#76,#77));
#386=EDGE_LOOP('',(#78,#79,#80,#81));
#387=EDGE_LOOP('',(#82,#83,#84,#85));
#388=EDGE_LOOP('',(#86,#87,#88,#89));
#389=EDGE_LOOP('',(#90,#91,#92,#93));
#390=EDGE_LOOP('',(#94,#95,#96,#97));
#391=EDGE_LOOP('',(#98,#99,#100,#101));
#392=EDGE_LOOP('',(#102,#103,#104,#105));
#393=EDGE_LOOP('',(#106,#107,#108,#109));
#394=EDGE_LOOP('',(#110,#111,#112,#113));
#395=EDGE_LOOP('',(#114,#115,#116,#117));
#396=EDGE_LOOP('',(#118,#119,#120,#121));
#397=EDGE_LOOP('',(#122,#123,#124,#125));
#398=EDGE_LOOP('',(#126));
#399=EDGE_LOOP('',(#127));
#400=EDGE_LOOP('',(#128));
#401=EDGE_LOOP('',(#129));
#402=EDGE_LOOP('',(#130,#131,#132,#133));
#403=EDGE_LOOP('',(#134,#135,#136,#137));
#404=EDGE_LOOP('',(#138,#139,#140,#141));
#405=EDGE_LOOP('',(#142,#143,#144,#145));
#406=FACE_BOUND('',#374,.T.);
#407=FACE_BOUND('',#375,.T.);
#408=FACE_BOUND('',#376,.T.);
#409=FACE_BOUND('',#377,.T.);
#410=FACE_BOUND('',#378,.T.);
#411=FACE_BOUND('',#379,.T.);
#412=FACE_BOUND('',#380,.T.);
#413=FACE_BOUND('',#381,.T.);
#414=FACE_BOUND('',#382,.T.);
#415=FACE_BOUND('',#383,.T.);
#416=FACE_BOUND('',#384,.T.);
#417=FACE_BOUND('',#385,.T.);
#418=FACE_BOUND('',#386,.T.);
#419=FACE_BOUND('',#387,.T.);
#420=FACE_BOUND('',#388,.T.);
#421=FACE_BOUND('',#389,.T.);
#422=FACE_BOUND('',#390,.T.);
#423=FACE_BOUND('',#391,.T.);
#424=FACE_BOUND('',#392,.T.);
#425=FACE_BOUND('',#393,.T.);
#426=FACE_BOUND('',#394,.T.);
#427=FACE_BOUND('',#395,.T.);
#428=FACE_BOUND('',#396,.T.);
#429=FACE_BOUND('',#397,.T.);
#430=FACE_BOUND('',#398,.T.);
#431=FACE_BOUND('',#399,.T.);
#432=FACE_BOUND('',#400,.T.);
#433=FACE_BOUND('',#401,.T.);
#434=FACE_BOUND('',#402,.T.);
#435=FACE_BOUND('',#403,.T.);
#436=FACE_BOUND('',#404,.T.);
#437=FACE_BOUND('',#405,.T.);
#438=PLANE('',#497);
#439=PLANE('',#500);
#440=PLANE('',#501);
#441=PLANE('',#502);
#442=PLANE('',#503);
#443=PLANE('',#506);
#444=PLANE('',#507);
#445=PLANE('',#508);
#446=PLANE('',#509);
#447=PLANE('',#510);
#448=PLANE('',#511);
#449=PLANE('',#512);
#450=PLANE('',#513);
#451=PLANE('',#514);
#452=PLANE('',#515);
#453=PLANE('',#516);
#454=PLANE('',#517);
#455=PLANE('',#518);
#456=PLANE('',#521);
#457=PLANE('',#522);
#458=PLANE('',#523);
#459=PLANE('',#524);
#460=ADVANCED_FACE('',(#406,#407,#408,#409),#438,.F.);
#461=ADVANCED_FACE('',(#410),#439,.T.);
#462=ADVANCED_FACE('',(#411),#440,.T.);
#463=ADVANCED_FACE('',(#412),#441,.T.);
#464=ADVANCED_FACE('',(#413,#414,#415,#416),#442,.T.);
#465=ADVANCED_FACE('',(#417),#443,.T.);
#466=ADVANCED_FACE('',(#418),#444,.T.);
#467=ADVANCED_FACE('',(#419),#445,.F.);
#468=ADVANCED_FACE('',(#420),#446,.T.);
#469=ADVANCED_FACE('',(#421),#447,.F.);
#470=ADVANCED_FACE('',(#422),#448,.T.);
#471=ADVANCED_FACE('',(#423),#449,.T.);
#472=ADVANCED_FACE('',(#424),#450,.F.);
#473=ADVANCED_FACE('',(#425),#451,.F.);
#474=ADVANCED_FACE('',(#426),#452,.T.);
#475=ADVANCED_FACE('',(#427),#453,.T.);
#476=ADVANCED_FACE('',(#428),#454,.T.);
#477=ADVANCED_FACE('',(#429),#455,.T.);
#478=ADVANCED_FACE('',(#430,#431),#12,.F.);
#479=ADVANCED_FACE('',(#432,#433),#13,.F.);
#480=ADVANCED_FACE('',(#434),#456,.F.);
#481=ADVANCED_FACE('',(#435),#457,.F.);
#482=ADVANCED_FACE('',(#436),#458,.F.);
#483=ADVANCED_FACE('',(#437),#459,.F.);
#484=CLOSED_SHELL('',(#460,#461,#462,#463,#464,#465,#466,#467,#468,#469,
#470,#471,#472,#473,#474,#475,#476,#477,#478,#479,#480,#481,#482,#483));
#485=STYLED_ITEM('',(#486),#493);
#486=PRESENTATION_STYLE_ASSIGNMENT((#487));
#487=SURFACE_STYLE_USAGE(.BOTH.,#488);
#488=SURFACE_SIDE_STYLE('',(#489));
#489=SURFACE_STYLE_FILL_AREA(#490);
#490=FILL_AREA_STYLE('',(#491));
#491=FILL_AREA_STYLE_COLOUR('',#492);
#492=COLOUR_RGB('',0.92156862745098,0.8,0.654901960784314);
#493=MANIFOLD_SOLID_BREP('Part 135',#484);
#494=SHAPE_DEFINITION_REPRESENTATION(#782,#495);
#495=SHAPE_REPRESENTATION('Part 135',(#496),#777);
#496=AXIS2_PLACEMENT_3D('',#643,#525,#526);
#497=AXIS2_PLACEMENT_3D('',#644,#527,#528);
#498=AXIS2_PLACEMENT_3D('',#653,#533,#534);
#499=AXIS2_PLACEMENT_3D('',#687,#551,#552);
#500=AXIS2_PLACEMENT_3D('',#689,#553,#554);
#501=AXIS2_PLACEMENT_3D('',#695,#558,#559);
#502=AXIS2_PLACEMENT_3D('',#701,#563,#564);
#503=AXIS2_PLACEMENT_3D('',#707,#568,#569);
#504=AXIS2_PLACEMENT_3D('',#708,#570,#571);
#505=AXIS2_PLACEMENT_3D('',#710,#572,#573);
#506=AXIS2_PLACEMENT_3D('',#743,#591,#592);
#507=AXIS2_PLACEMENT_3D('',#746,#595,#596);
#508=AXIS2_PLACEMENT_3D('',#749,#599,#600);
#509=AXIS2_PLACEMENT_3D('',#750,#601,#602);
#510=AXIS2_PLACEMENT_3D('',#752,#604,#605);
#511=AXIS2_PLACEMENT_3D('',#753,#606,#607);
#512=AXIS2_PLACEMENT_3D('',#755,#609,#610);
#513=AXIS2_PLACEMENT_3D('',#756,#611,#612);
#514=AXIS2_PLACEMENT_3D('',#758,#614,#615);
#515=AXIS2_PLACEMENT_3D('',#760,#617,#618);
#516=AXIS2_PLACEMENT_3D('',#761,#619,#620);
#517=AXIS2_PLACEMENT_3D('',#763,#622,#623);
#518=AXIS2_PLACEMENT_3D('',#765,#625,#626);
#519=AXIS2_PLACEMENT_3D('',#766,#627,#628);
#520=AXIS2_PLACEMENT_3D('',#767,#629,#630);
#521=AXIS2_PLACEMENT_3D('',#768,#631,#632);
#522=AXIS2_PLACEMENT_3D('',#771,#635,#636);
#523=AXIS2_PLACEMENT_3D('',#773,#638,#639);
#524=AXIS2_PLACEMENT_3D('',#775,#641,#642);
#525=DIRECTION('',(0.,0.,1.));
#526=DIRECTION('',(1.,0.,0.));
#527=DIRECTION('',(0.,-1.,0.));
#528=DIRECTION('',(0.,0.,-1.));
#529=DIRECTION('',(1.,0.,0.));
#530=DIRECTION('',(0.,0.,1.));
#531=DIRECTION('',(-1.,0.,0.));
#532=DIRECTION('',(0.,0.,-1.));
#533=DIRECTION('',(0.,-1.,0.));
#534=DIRECTION('',(0.,0.,-1.));
#535=DIRECTION('',(1.,0.,0.));
#536=DIRECTION('',(0.,0.,-1.));
#537=DIRECTION('',(1.,0.,0.));
#538=DIRECTION('',(0.,0.,-1.));
#539=DIRECTION('',(1.,0.,0.));
#540=DIRECTION('',(0.,0.,-1.));
#541=DIRECTION('',(1.,0.,0.));
#542=DIRECTION('',(0.,0.,-1.));
#543=DIRECTION('',(1.,0.,0.));
#544=DIRECTION('',(0.,0.,-1.));
#545=DIRECTION('',(1.,0.,0.));
#546=DIRECTION('',(0.,0.,-1.));
#547=DIRECTION('',(1.,0.,0.));
#548=DIRECTION('',(0.,0.,1.));
#549=DIRECTION('',(1.,0.,0.));
#550=DIRECTION('',(0.,0.,1.));
#551=DIRECTION('',(0.,-1.,0.));
#552=DIRECTION('',(0.,0.,-1.));
#553=DIRECTION('',(0.,0.,-1.));
#554=DIRECTION('',(1.,0.,0.));
#555=DIRECTION('',(1.,0.,0.));
#556=DIRECTION('',(0.,1.,0.));
#557=DIRECTION('',(0.,1.,0.));
#558=DIRECTION('',(0.,0.,-1.));
#559=DIRECTION('',(1.,0.,0.));
#560=DIRECTION('',(0.,-1.,0.));
#561=DIRECTION('',(1.,0.,0.));
#562=DIRECTION('',(0.,-1.,0.));
#563=DIRECTION('',(0.,0.,-1.));
#564=DIRECTION('',(1.,0.,0.));
#565=DIRECTION('',(0.,1.,0.));
#566=DIRECTION('',(1.,0.,0.));
#567=DIRECTION('',(0.,1.,0.));
#568=DIRECTION('',(0.,-1.,0.));
#569=DIRECTION('',(0.,0.,-1.));
#570=DIRECTION('',(0.,-1.,0.));
#571=DIRECTION('',(0.,0.,-1.));
#572=DIRECTION('',(0.,-1.,0.));
#573=DIRECTION('',(0.,0.,-1.));
#574=DIRECTION('',(0.,0.,1.));
#575=DIRECTION('',(1.,0.,0.));
#576=DIRECTION('',(0.,0.,-1.));
#577=DIRECTION('',(-1.,0.,0.));
#578=DIRECTION('',(1.,0.,0.));
#579=DIRECTION('',(0.,0.,-1.));
#580=DIRECTION('',(0.,0.,-1.));
#581=DIRECTION('',(1.,0.,0.));
#582=DIRECTION('',(0.,0.,1.));
#583=DIRECTION('',(0.,0.,1.));
#584=DIRECTION('',(1.,0.,0.));
#585=DIRECTION('',(0.,0.,-1.));
#586=DIRECTION('',(0.,0.,-1.));
#587=DIRECTION('',(1.,0.,0.));
#588=DIRECTION('',(0.,0.,1.));
#589=DIRECTION('',(1.,0.,0.));
#590=DIRECTION('',(0.,0.,1.));
#591=DIRECTION('',(-1.,0.,0.));
#592=DIRECTION('',(0.,0.,1.));
#593=DIRECTION('',(0.,-1.,0.));
#594=DIRECTION('',(0.,-1.,0.));
#595=DIRECTION('',(1.,0.,0.));
#596=DIRECTION('',(0.,0.,-1.));
#597=DIRECTION('',(0.,1.,0.));
#598=DIRECTION('',(0.,1.,0.));
#599=DIRECTION('',(0.,0.,-1.));
#600=DIRECTION('',(1.,0.,0.));
#601=DIRECTION('',(0.,0.,-1.));
#602=DIRECTION('',(1.,0.,0.));
#603=DIRECTION('',(0.,1.,0.));
#604=DIRECTION('',(-1.,0.,0.));
#605=DIRECTION('',(0.,0.,1.));
#606=DIRECTION('',(0.,0.,-1.));
#607=DIRECTION('',(1.,0.,0.));
#608=DIRECTION('',(0.,1.,0.));
#609=DIRECTION('',(-1.,0.,0.));
#610=DIRECTION('',(0.,0.,1.));
#611=DIRECTION('',(-1.,0.,0.));
#612=DIRECTION('',(0.,0.,1.));
#613=DIRECTION('',(0.,1.,0.));
#614=DIRECTION('',(1.,0.,0.));
#615=DIRECTION('',(0.,0.,-1.));
#616=DIRECTION('',(0.,-1.,0.));
#617=DIRECTION('',(0.,0.,-1.));
#618=DIRECTION('',(1.,0.,0.));
#619=DIRECTION('',(1.,0.,0.));
#620=DIRECTION('',(0.,0.,-1.));
#621=DIRECTION('',(0.,-1.,0.));
#622=DIRECTION('',(-1.,0.,0.));
#623=DIRECTION('',(0.,0.,1.));
#624=DIRECTION('',(0.,1.,0.));
#625=DIRECTION('',(0.,0.,-1.));
#626=DIRECTION('',(1.,0.,0.));
#627=DIRECTION('',(3.85185988877447E-34,-1.,-6.93889390390723E-18));
#628=DIRECTION('',(0.,6.93889390390723E-18,-1.));
#629=DIRECTION('',(3.85185988877447E-34,-1.,-6.93889390390723E-18));
#630=DIRECTION('',(0.,6.93889390390723E-18,-1.));
#631=DIRECTION('',(1.,0.,0.));
#632=DIRECTION('',(0.,0.,-1.));
#633=DIRECTION('',(0.,-1.,0.));
#634=DIRECTION('',(0.,-1.,0.));
#635=DIRECTION('',(0.,0.,-1.));
#636=DIRECTION('',(-1.,0.,0.));
#637=DIRECTION('',(0.,-1.,0.));
#638=DIRECTION('',(-1.,0.,0.));
#639=DIRECTION('',(0.,0.,1.));
#640=DIRECTION('',(0.,-1.,0.));
#641=DIRECTION('',(0.,0.,1.));
#642=DIRECTION('',(1.,0.,0.));
#643=CARTESIAN_POINT('',(0.,0.,0.));
#644=CARTESIAN_POINT('',(-1.38777878078145E-17,-0.112,-0.05));
#645=CARTESIAN_POINT('',(-1.38777878078145E-17,-0.112,-0.0472750420508008));
#646=CARTESIAN_POINT('',(-0.0566804587859144,-0.112,-0.0472750420508008));
#647=CARTESIAN_POINT('',(0.0450024479396568,-0.112,-0.0472750420508008));
#648=CARTESIAN_POINT('',(0.0450024479396568,-0.112,-0.05));
#649=CARTESIAN_POINT('',(0.0450024479396568,-0.112,-0.00430534988113411));
#650=CARTESIAN_POINT('',(-1.38777878078145E-17,-0.112,-0.00430534988113411));
#651=CARTESIAN_POINT('',(-0.0566804587859144,-0.112,-0.00430534988113411));
#652=CARTESIAN_POINT('',(-0.0566804587859144,-0.112,-0.05));
#653=CARTESIAN_POINT('',(0.05555,-0.112,-0.05793));
#654=CARTESIAN_POINT('',(0.05555,-0.112,-0.06068));
#655=CARTESIAN_POINT('',(0.057,-0.112,-0.067));
#656=CARTESIAN_POINT('',(0.052,-0.112,-0.067));
#657=CARTESIAN_POINT('',(0.065,-0.112,-0.067));
#658=CARTESIAN_POINT('',(0.052,-0.112,-0.067));
#659=CARTESIAN_POINT('',(0.052,-0.112,-0.07));
#660=CARTESIAN_POINT('',(-1.38777878078145E-17,-0.112,-0.07));
#661=CARTESIAN_POINT('',(0.032,-0.112,-0.07));
#662=CARTESIAN_POINT('',(0.032,-0.112,-0.067));
#663=CARTESIAN_POINT('',(0.032,-0.112,-0.067));
#664=CARTESIAN_POINT('',(0.021,-0.112,-0.067));
#665=CARTESIAN_POINT('',(0.01,-0.112,-0.067));
#666=CARTESIAN_POINT('',(0.01,-0.112,-0.067));
#667=CARTESIAN_POINT('',(0.01,-0.112,-0.07));
#668=CARTESIAN_POINT('',(-1.38777878078145E-17,-0.112,-0.07));
#669=CARTESIAN_POINT('',(-0.01,-0.112,-0.07));
#670=CARTESIAN_POINT('',(-0.01,-0.112,-0.067));
#671=CARTESIAN_POINT('',(-0.01,-0.112,-0.067));
#672=CARTESIAN_POINT('',(-0.021,-0.112,-0.067));
#673=CARTESIAN_POINT('',(-0.032,-0.112,-0.067));
#674=CARTESIAN_POINT('',(-0.032,-0.112,-0.067));
#675=CARTESIAN_POINT('',(-0.032,-0.112,-0.07));
#676=CARTESIAN_POINT('',(-1.38777878078145E-17,-0.112,-0.07));
#677=CARTESIAN_POINT('',(-0.052,-0.112,-0.07));
#678=CARTESIAN_POINT('',(-0.052,-0.112,-0.067));
#679=CARTESIAN_POINT('',(-0.052,-0.112,-0.067));
#680=CARTESIAN_POINT('',(-0.057,-0.112,-0.067));
#681=CARTESIAN_POINT('',(-0.065,-0.112,-0.067));
#682=CARTESIAN_POINT('',(-0.065,-0.112,-0.05));
#683=CARTESIAN_POINT('',(-0.065,-0.112,0.));
#684=CARTESIAN_POINT('',(-1.38777878078145E-17,-0.112,0.));
#685=CARTESIAN_POINT('',(0.065,-0.112,0.));
#686=CARTESIAN_POINT('',(0.065,-0.112,-0.05));
#687=CARTESIAN_POINT('',(-0.05556,-0.112,-0.05793));
#688=CARTESIAN_POINT('',(-0.05556,-0.112,-0.06068));
#689=CARTESIAN_POINT('',(0.,-0.025,-0.07));
#690=CARTESIAN_POINT('',(-1.38777878078145E-17,-0.115,-0.07));
#691=CARTESIAN_POINT('',(-0.052,-0.115,-0.07));
#692=CARTESIAN_POINT('',(-0.032,-0.115,-0.07));
#693=CARTESIAN_POINT('',(-0.052,-0.115,-0.07));
#694=CARTESIAN_POINT('',(-0.032,-0.115,-0.07));
#695=CARTESIAN_POINT('',(0.,-0.025,-0.07));
#696=CARTESIAN_POINT('',(0.01,-0.115,-0.07));
#697=CARTESIAN_POINT('',(0.01,-0.115,-0.07));
#698=CARTESIAN_POINT('',(-1.38777878078145E-17,-0.115,-0.07));
#699=CARTESIAN_POINT('',(-0.01,-0.115,-0.07));
#700=CARTESIAN_POINT('',(-0.01,-0.115,-0.07));
#701=CARTESIAN_POINT('',(0.,-0.025,-0.07));
#702=CARTESIAN_POINT('',(0.052,-0.115,-0.07));
#703=CARTESIAN_POINT('',(0.052,-0.115,-0.07));
#704=CARTESIAN_POINT('',(-1.38777878078145E-17,-0.115,-0.07));
#705=CARTESIAN_POINT('',(0.032,-0.115,-0.07));
#706=CARTESIAN_POINT('',(0.032,-0.115,-0.07));
#707=CARTESIAN_POINT('',(-1.38777878078145E-17,-0.115,-0.05));
#708=CARTESIAN_POINT('',(0.05555,-0.115,-0.05793));
#709=CARTESIAN_POINT('',(0.05555,-0.115,-0.06068));
#710=CARTESIAN_POINT('',(-0.05556,-0.115,-0.05793));
#711=CARTESIAN_POINT('',(-0.05556,-0.115,-0.06068));
#712=CARTESIAN_POINT('',(0.0450024479396568,-0.115,-0.05));
#713=CARTESIAN_POINT('',(0.0450024479396568,-0.115,-0.0472750420508008));
#714=CARTESIAN_POINT('',(0.0450024479396568,-0.115,-0.00430534988113411));
#715=CARTESIAN_POINT('',(-1.38777878078145E-17,-0.115,-0.0472750420508008));
#716=CARTESIAN_POINT('',(-0.0566804587859144,-0.115,-0.0472750420508008));
#717=CARTESIAN_POINT('',(-0.0566804587859144,-0.115,-0.05));
#718=CARTESIAN_POINT('',(-0.0566804587859144,-0.115,-0.00430534988113411));
#719=CARTESIAN_POINT('',(-1.38777878078145E-17,-0.115,-0.00430534988113411));
#720=CARTESIAN_POINT('',(-1.38777878078145E-17,-0.115,-0.067));
#721=CARTESIAN_POINT('',(-0.065,-0.115,-0.067));
#722=CARTESIAN_POINT('',(-0.052,-0.115,-0.067));
#723=CARTESIAN_POINT('',(-0.052,-0.115,-0.05));
#724=CARTESIAN_POINT('',(-0.032,-0.115,-0.05));
#725=CARTESIAN_POINT('',(-0.032,-0.115,-0.067));
#726=CARTESIAN_POINT('',(-1.38777878078145E-17,-0.115,-0.067));
#727=CARTESIAN_POINT('',(-0.01,-0.115,-0.067));
#728=CARTESIAN_POINT('',(-0.01,-0.115,-0.05));
#729=CARTESIAN_POINT('',(0.01,-0.115,-0.05));
#730=CARTESIAN_POINT('',(0.01,-0.115,-0.067));
#731=CARTESIAN_POINT('',(-1.38777878078145E-17,-0.115,-0.067));
#732=CARTESIAN_POINT('',(0.032,-0.115,-0.067));
#733=CARTESIAN_POINT('',(0.032,-0.115,-0.05));
#734=CARTESIAN_POINT('',(0.052,-0.115,-0.05));
#735=CARTESIAN_POINT('',(0.052,-0.115,-0.067));
#736=CARTESIAN_POINT('',(-1.38777878078145E-17,-0.115,-0.067));
#737=CARTESIAN_POINT('',(0.065,-0.115,-0.067));
#738=CARTESIAN_POINT('',(0.065,-0.115,-0.05));
#739=CARTESIAN_POINT('',(0.065,-0.115,0.));
#740=CARTESIAN_POINT('',(-1.38777878078145E-17,-0.115,0.));
#741=CARTESIAN_POINT('',(-0.065,-0.115,0.));
#742=CARTESIAN_POINT('',(-0.065,-0.115,-0.05));
#743=CARTESIAN_POINT('',(-0.065,-0.1135,-0.05));
#744=CARTESIAN_POINT('',(-0.065,-0.1135,-0.067));
#745=CARTESIAN_POINT('',(-0.065,-0.1135,0.));
#746=CARTESIAN_POINT('',(0.065,-0.1135,-0.05));
#747=CARTESIAN_POINT('',(0.065,-0.1135,-0.067));
#748=CARTESIAN_POINT('',(0.065,-0.1135,0.));
#749=CARTESIAN_POINT('',(0.,-0.025,0.));
#750=CARTESIAN_POINT('',(0.,-0.025,-0.067));
#751=CARTESIAN_POINT('',(0.052,-0.115,-0.067));
#752=CARTESIAN_POINT('',(0.052,-0.115,-0.067));
#753=CARTESIAN_POINT('',(0.,-0.025,-0.067));
#754=CARTESIAN_POINT('',(-0.052,-0.115,-0.067));
#755=CARTESIAN_POINT('',(-0.052,-0.115,-0.067));
#756=CARTESIAN_POINT('',(-0.032,-0.115,-0.067));
#757=CARTESIAN_POINT('',(-0.032,-0.115,-0.067));
#758=CARTESIAN_POINT('',(-0.01,-0.115,-0.067));
#759=CARTESIAN_POINT('',(-0.01,-0.115,-0.067));
#760=CARTESIAN_POINT('',(0.,-0.025,-0.067));
#761=CARTESIAN_POINT('',(0.01,-0.115,-0.067));
#762=CARTESIAN_POINT('',(0.01,-0.115,-0.067));
#763=CARTESIAN_POINT('',(0.032,-0.115,-0.067));
#764=CARTESIAN_POINT('',(0.032,-0.115,-0.067));
#765=CARTESIAN_POINT('',(0.,-0.025,-0.067));
#766=CARTESIAN_POINT('',(0.05555,-0.089,-0.05793));
#767=CARTESIAN_POINT('',(-0.05556,-0.089,-0.05793));
#768=CARTESIAN_POINT('',(0.0450024479396568,-0.093,-0.0257901959659675));
#769=CARTESIAN_POINT('',(0.0450024479396568,-0.093,-0.0472750420508008));
#770=CARTESIAN_POINT('',(0.0450024479396568,-0.093,-0.00430534988113411));
#771=CARTESIAN_POINT('',(-0.00449877603017162,-0.093,-0.0472750420508008));
#772=CARTESIAN_POINT('',(-0.0566804587859144,-0.093,-0.0472750420508008));
#773=CARTESIAN_POINT('',(-0.0566804587859144,-0.093,-0.0257901959659675));
#774=CARTESIAN_POINT('',(-0.0566804587859144,-0.093,-0.00430534988113411));
#775=CARTESIAN_POINT('',(-0.0553402293929572,-0.093,-0.00430534988113411));
#776=MECHANICAL_DESIGN_GEOMETRIC_PRESENTATION_REPRESENTATION('',(#485),
#777);
#777=(
GEOMETRIC_REPRESENTATION_CONTEXT(3)
GLOBAL_UNCERTAINTY_ASSIGNED_CONTEXT((#778))
GLOBAL_UNIT_ASSIGNED_CONTEXT((#781,#780,#779))
REPRESENTATION_CONTEXT('Part 135','TOP_LEVEL_ASSEMBLY_PART')
);
#778=UNCERTAINTY_MEASURE_WITH_UNIT(LENGTH_MEASURE(1.E-8),#781,
'DISTANCE_ACCURACY_VALUE','Maximum Tolerance applied to model');
#779=(
NAMED_UNIT(*)
SI_UNIT($,.STERADIAN.)
SOLID_ANGLE_UNIT()
);
#780=(
NAMED_UNIT(*)
PLANE_ANGLE_UNIT()
SI_UNIT($,.RADIAN.)
);
#781=(
LENGTH_UNIT()
NAMED_UNIT(*)
SI_UNIT($,.METRE.)
);
#782=PRODUCT_DEFINITION_SHAPE('','',#783);
#783=PRODUCT_DEFINITION('','',#785,#784);
#784=PRODUCT_DEFINITION_CONTEXT('',#791,'design');
#785=PRODUCT_DEFINITION_FORMATION_WITH_SPECIFIED_SOURCE('','',#787,
 .NOT_KNOWN.);
#786=PRODUCT_RELATED_PRODUCT_CATEGORY('','',(#787));
#787=PRODUCT('Part 135','Part 135','Part 135',(#789));
#788=PRODUCT_CATEGORY('','');
#789=PRODUCT_CONTEXT('',#791,'mechanical');
#790=APPLICATION_PROTOCOL_DEFINITION('international standard',
'ap242_managed_model_based_3d_engineering',2020,#791);
#791=APPLICATION_CONTEXT('managed model based 3d engineering');
ENDSEC;
END-ISO-10303-21;
