ISO-10303-21;
HEADER;
/* Generated by software containing ST-Developer
 * from STEP Tools, Inc. (www.steptools.com) 
 */
/* OPTION: using custom renumber hook */

FILE_DESCRIPTION(
/* description */ ('STEP AP242 Edition 2',
'CAx-IF Rec.Pracs.---Representation and Presentation of Product Manufa
cturing Information (PMI)---4.0---2014-10-13',
'CAx-IF Rec.Pracs.---3D Tessellated Geometry---0.4---2014-09-14','2;1',
'CAx-IF Rec.Pracs.---User Defined Attributes---1.5---2016-08-15'),
/* implementation_level */ '2;1');

FILE_NAME(
/* name */ 'v2 - Part 132',
/* time_stamp */ '2026-07-31T04:46:41Z',
/* author */ (''),
/* organization */ (''),
/* preprocessor_version */ 'ST-DEVELOPER v20',
/* originating_system */ 'ONSHAPE BY PTC INC, 1.218',
/* authorisation */ '  ');

FILE_SCHEMA (('AP242_MANAGED_MODEL_BASED_3D_ENGINEERING_MIM_LF { 1 0 10303 442 3 1 4 }'));
ENDSEC;

DATA;
#10=SHAPE_REPRESENTATION_RELATIONSHIP('','',#915,#11);
#11=ADVANCED_BREP_SHAPE_REPRESENTATION('',(#913),#1437);
#12=CYLINDRICAL_SURFACE('',#963,0.00275);
#13=CYLINDRICAL_SURFACE('',#964,0.00275);
#14=CIRCLE('',#957,0.00275);
#15=CIRCLE('',#958,0.00275);
#16=CIRCLE('',#961,0.00275);
#17=CIRCLE('',#962,0.00275);
#18=ORIENTED_EDGE('',*,*,#266,.T.);
#19=ORIENTED_EDGE('',*,*,#267,.F.);
#20=ORIENTED_EDGE('',*,*,#268,.F.);
#21=ORIENTED_EDGE('',*,*,#269,.T.);
#22=ORIENTED_EDGE('',*,*,#266,.F.);
#23=ORIENTED_EDGE('',*,*,#270,.T.);
#24=ORIENTED_EDGE('',*,*,#271,.F.);
#25=ORIENTED_EDGE('',*,*,#272,.F.);
#26=ORIENTED_EDGE('',*,*,#273,.F.);
#27=ORIENTED_EDGE('',*,*,#274,.T.);
#28=ORIENTED_EDGE('',*,*,#275,.T.);
#29=ORIENTED_EDGE('',*,*,#271,.T.);
#30=ORIENTED_EDGE('',*,*,#276,.T.);
#31=ORIENTED_EDGE('',*,*,#274,.F.);
#32=ORIENTED_EDGE('',*,*,#277,.F.);
#33=ORIENTED_EDGE('',*,*,#278,.T.);
#34=ORIENTED_EDGE('',*,*,#279,.T.);
#35=ORIENTED_EDGE('',*,*,#278,.F.);
#36=ORIENTED_EDGE('',*,*,#280,.F.);
#37=ORIENTED_EDGE('',*,*,#281,.T.);
#38=ORIENTED_EDGE('',*,*,#282,.F.);
#39=ORIENTED_EDGE('',*,*,#281,.F.);
#40=ORIENTED_EDGE('',*,*,#283,.T.);
#41=ORIENTED_EDGE('',*,*,#284,.T.);
#42=ORIENTED_EDGE('',*,*,#284,.F.);
#43=ORIENTED_EDGE('',*,*,#285,.F.);
#44=ORIENTED_EDGE('',*,*,#286,.F.);
#45=ORIENTED_EDGE('',*,*,#287,.T.);
#46=ORIENTED_EDGE('',*,*,#288,.F.);
#47=ORIENTED_EDGE('',*,*,#289,.T.);
#48=ORIENTED_EDGE('',*,*,#290,.T.);
#49=ORIENTED_EDGE('',*,*,#286,.T.);
#50=ORIENTED_EDGE('',*,*,#289,.F.);
#51=ORIENTED_EDGE('',*,*,#291,.F.);
#52=ORIENTED_EDGE('',*,*,#292,.T.);
#53=ORIENTED_EDGE('',*,*,#293,.T.);
#54=ORIENTED_EDGE('',*,*,#294,.T.);
#55=ORIENTED_EDGE('',*,*,#295,.T.);
#56=ORIENTED_EDGE('',*,*,#292,.F.);
#57=ORIENTED_EDGE('',*,*,#296,.F.);
#58=ORIENTED_EDGE('',*,*,#297,.T.);
#59=ORIENTED_EDGE('',*,*,#298,.F.);
#60=ORIENTED_EDGE('',*,*,#294,.F.);
#61=ORIENTED_EDGE('',*,*,#299,.T.);
#62=ORIENTED_EDGE('',*,*,#297,.F.);
#63=ORIENTED_EDGE('',*,*,#300,.F.);
#64=ORIENTED_EDGE('',*,*,#301,.T.);
#65=ORIENTED_EDGE('',*,*,#302,.T.);
#66=ORIENTED_EDGE('',*,*,#301,.F.);
#67=ORIENTED_EDGE('',*,*,#303,.F.);
#68=ORIENTED_EDGE('',*,*,#304,.T.);
#69=ORIENTED_EDGE('',*,*,#305,.T.);
#70=ORIENTED_EDGE('',*,*,#304,.F.);
#71=ORIENTED_EDGE('',*,*,#306,.F.);
#72=ORIENTED_EDGE('',*,*,#307,.T.);
#73=ORIENTED_EDGE('',*,*,#308,.F.);
#74=ORIENTED_EDGE('',*,*,#309,.T.);
#75=ORIENTED_EDGE('',*,*,#310,.F.);
#76=ORIENTED_EDGE('',*,*,#307,.F.);
#77=ORIENTED_EDGE('',*,*,#311,.T.);
#78=ORIENTED_EDGE('',*,*,#309,.F.);
#79=ORIENTED_EDGE('',*,*,#312,.F.);
#80=ORIENTED_EDGE('',*,*,#313,.T.);
#81=ORIENTED_EDGE('',*,*,#314,.T.);
#82=ORIENTED_EDGE('',*,*,#315,.T.);
#83=ORIENTED_EDGE('',*,*,#316,.F.);
#84=ORIENTED_EDGE('',*,*,#317,.T.);
#85=ORIENTED_EDGE('',*,*,#313,.F.);
#86=ORIENTED_EDGE('',*,*,#318,.T.);
#87=ORIENTED_EDGE('',*,*,#319,.F.);
#88=ORIENTED_EDGE('',*,*,#320,.F.);
#89=ORIENTED_EDGE('',*,*,#316,.T.);
#90=ORIENTED_EDGE('',*,*,#321,.F.);
#91=ORIENTED_EDGE('',*,*,#319,.T.);
#92=ORIENTED_EDGE('',*,*,#322,.T.);
#93=ORIENTED_EDGE('',*,*,#323,.F.);
#94=ORIENTED_EDGE('',*,*,#324,.F.);
#95=ORIENTED_EDGE('',*,*,#325,.T.);
#96=ORIENTED_EDGE('',*,*,#323,.T.);
#97=ORIENTED_EDGE('',*,*,#326,.F.);
#98=ORIENTED_EDGE('',*,*,#327,.T.);
#99=ORIENTED_EDGE('',*,*,#328,.T.);
#100=ORIENTED_EDGE('',*,*,#329,.T.);
#101=ORIENTED_EDGE('',*,*,#324,.T.);
#102=ORIENTED_EDGE('',*,*,#330,.T.);
#103=ORIENTED_EDGE('',*,*,#331,.F.);
#104=ORIENTED_EDGE('',*,*,#328,.F.);
#105=ORIENTED_EDGE('',*,*,#332,.F.);
#106=ORIENTED_EDGE('',*,*,#333,.T.);
#107=ORIENTED_EDGE('',*,*,#334,.T.);
#108=ORIENTED_EDGE('',*,*,#335,.F.);
#109=ORIENTED_EDGE('',*,*,#330,.F.);
#110=ORIENTED_EDGE('',*,*,#336,.T.);
#111=ORIENTED_EDGE('',*,*,#337,.T.);
#112=ORIENTED_EDGE('',*,*,#338,.T.);
#113=ORIENTED_EDGE('',*,*,#334,.F.);
#114=ORIENTED_EDGE('',*,*,#339,.T.);
#115=ORIENTED_EDGE('',*,*,#340,.F.);
#116=ORIENTED_EDGE('',*,*,#341,.T.);
#117=ORIENTED_EDGE('',*,*,#337,.F.);
#118=ORIENTED_EDGE('',*,*,#342,.T.);
#119=ORIENTED_EDGE('',*,*,#343,.F.);
#120=ORIENTED_EDGE('',*,*,#344,.F.);
#121=ORIENTED_EDGE('',*,*,#340,.T.);
#122=ORIENTED_EDGE('',*,*,#345,.F.);
#123=ORIENTED_EDGE('',*,*,#346,.F.);
#124=ORIENTED_EDGE('',*,*,#343,.T.);
#125=ORIENTED_EDGE('',*,*,#347,.T.);
#126=ORIENTED_EDGE('',*,*,#348,.F.);
#127=ORIENTED_EDGE('',*,*,#349,.T.);
#128=ORIENTED_EDGE('',*,*,#345,.T.);
#129=ORIENTED_EDGE('',*,*,#350,.F.);
#130=ORIENTED_EDGE('',*,*,#351,.T.);
#131=ORIENTED_EDGE('',*,*,#352,.T.);
#132=ORIENTED_EDGE('',*,*,#353,.T.);
#133=ORIENTED_EDGE('',*,*,#348,.T.);
#134=ORIENTED_EDGE('',*,*,#354,.T.);
#135=ORIENTED_EDGE('',*,*,#355,.T.);
#136=ORIENTED_EDGE('',*,*,#356,.F.);
#137=ORIENTED_EDGE('',*,*,#352,.F.);
#138=ORIENTED_EDGE('',*,*,#355,.F.);
#139=ORIENTED_EDGE('',*,*,#357,.F.);
#140=ORIENTED_EDGE('',*,*,#358,.T.);
#141=ORIENTED_EDGE('',*,*,#359,.T.);
#142=ORIENTED_EDGE('',*,*,#360,.T.);
#143=ORIENTED_EDGE('',*,*,#361,.T.);
#144=ORIENTED_EDGE('',*,*,#358,.F.);
#145=ORIENTED_EDGE('',*,*,#362,.T.);
#146=ORIENTED_EDGE('',*,*,#363,.T.);
#147=ORIENTED_EDGE('',*,*,#364,.F.);
#148=ORIENTED_EDGE('',*,*,#360,.F.);
#149=ORIENTED_EDGE('',*,*,#365,.T.);
#150=ORIENTED_EDGE('',*,*,#366,.T.);
#151=ORIENTED_EDGE('',*,*,#367,.T.);
#152=ORIENTED_EDGE('',*,*,#368,.F.);
#153=ORIENTED_EDGE('',*,*,#363,.F.);
#154=ORIENTED_EDGE('',*,*,#367,.F.);
#155=ORIENTED_EDGE('',*,*,#369,.F.);
#156=ORIENTED_EDGE('',*,*,#370,.T.);
#157=ORIENTED_EDGE('',*,*,#371,.T.);
#158=ORIENTED_EDGE('',*,*,#372,.T.);
#159=ORIENTED_EDGE('',*,*,#268,.T.);
#160=ORIENTED_EDGE('',*,*,#373,.F.);
#161=ORIENTED_EDGE('',*,*,#370,.F.);
#162=ORIENTED_EDGE('',*,*,#374,.T.);
#163=ORIENTED_EDGE('',*,*,#375,.T.);
#164=ORIENTED_EDGE('',*,*,#376,.F.);
#165=ORIENTED_EDGE('',*,*,#377,.F.);
#166=ORIENTED_EDGE('',*,*,#378,.T.);
#167=ORIENTED_EDGE('',*,*,#379,.T.);
#168=ORIENTED_EDGE('',*,*,#374,.F.);
#169=ORIENTED_EDGE('',*,*,#380,.F.);
#170=ORIENTED_EDGE('',*,*,#381,.T.);
#171=ORIENTED_EDGE('',*,*,#382,.T.);
#172=ORIENTED_EDGE('',*,*,#378,.F.);
#173=ORIENTED_EDGE('',*,*,#383,.F.);
#174=ORIENTED_EDGE('',*,*,#384,.T.);
#175=ORIENTED_EDGE('',*,*,#385,.T.);
#176=ORIENTED_EDGE('',*,*,#382,.F.);
#177=ORIENTED_EDGE('',*,*,#386,.F.);
#178=ORIENTED_EDGE('',*,*,#375,.F.);
#179=ORIENTED_EDGE('',*,*,#379,.F.);
#180=ORIENTED_EDGE('',*,*,#373,.T.);
#181=ORIENTED_EDGE('',*,*,#267,.T.);
#182=ORIENTED_EDGE('',*,*,#272,.T.);
#183=ORIENTED_EDGE('',*,*,#275,.F.);
#184=ORIENTED_EDGE('',*,*,#276,.F.);
#185=ORIENTED_EDGE('',*,*,#279,.F.);
#186=ORIENTED_EDGE('',*,*,#282,.T.);
#187=ORIENTED_EDGE('',*,*,#287,.F.);
#188=ORIENTED_EDGE('',*,*,#290,.F.);
#189=ORIENTED_EDGE('',*,*,#293,.F.);
#190=ORIENTED_EDGE('',*,*,#295,.F.);
#191=ORIENTED_EDGE('',*,*,#298,.T.);
#192=ORIENTED_EDGE('',*,*,#302,.F.);
#193=ORIENTED_EDGE('',*,*,#305,.F.);
#194=ORIENTED_EDGE('',*,*,#308,.T.);
#195=ORIENTED_EDGE('',*,*,#310,.T.);
#196=ORIENTED_EDGE('',*,*,#314,.F.);
#197=ORIENTED_EDGE('',*,*,#317,.F.);
#198=ORIENTED_EDGE('',*,*,#320,.T.);
#199=ORIENTED_EDGE('',*,*,#321,.T.);
#200=ORIENTED_EDGE('',*,*,#325,.F.);
#201=ORIENTED_EDGE('',*,*,#329,.F.);
#202=ORIENTED_EDGE('',*,*,#331,.T.);
#203=ORIENTED_EDGE('',*,*,#335,.T.);
#204=ORIENTED_EDGE('',*,*,#338,.F.);
#205=ORIENTED_EDGE('',*,*,#341,.F.);
#206=ORIENTED_EDGE('',*,*,#344,.T.);
#207=ORIENTED_EDGE('',*,*,#346,.T.);
#208=ORIENTED_EDGE('',*,*,#349,.F.);
#209=ORIENTED_EDGE('',*,*,#353,.F.);
#210=ORIENTED_EDGE('',*,*,#356,.T.);
#211=ORIENTED_EDGE('',*,*,#359,.F.);
#212=ORIENTED_EDGE('',*,*,#361,.F.);
#213=ORIENTED_EDGE('',*,*,#364,.T.);
#214=ORIENTED_EDGE('',*,*,#368,.T.);
#215=ORIENTED_EDGE('',*,*,#371,.F.);
#216=ORIENTED_EDGE('',*,*,#376,.T.);
#217=ORIENTED_EDGE('',*,*,#386,.T.);
#218=ORIENTED_EDGE('',*,*,#381,.F.);
#219=ORIENTED_EDGE('',*,*,#387,.F.);
#220=ORIENTED_EDGE('',*,*,#388,.F.);
#221=ORIENTED_EDGE('',*,*,#389,.F.);
#222=ORIENTED_EDGE('',*,*,#387,.T.);
#223=ORIENTED_EDGE('',*,*,#383,.T.);
#224=ORIENTED_EDGE('',*,*,#380,.T.);
#225=ORIENTED_EDGE('',*,*,#377,.T.);
#226=ORIENTED_EDGE('',*,*,#372,.F.);
#227=ORIENTED_EDGE('',*,*,#369,.T.);
#228=ORIENTED_EDGE('',*,*,#366,.F.);
#229=ORIENTED_EDGE('',*,*,#365,.F.);
#230=ORIENTED_EDGE('',*,*,#362,.F.);
#231=ORIENTED_EDGE('',*,*,#357,.T.);
#232=ORIENTED_EDGE('',*,*,#354,.F.);
#233=ORIENTED_EDGE('',*,*,#351,.F.);
#234=ORIENTED_EDGE('',*,*,#350,.T.);
#235=ORIENTED_EDGE('',*,*,#347,.F.);
#236=ORIENTED_EDGE('',*,*,#342,.F.);
#237=ORIENTED_EDGE('',*,*,#339,.F.);
#238=ORIENTED_EDGE('',*,*,#336,.F.);
#239=ORIENTED_EDGE('',*,*,#333,.F.);
#240=ORIENTED_EDGE('',*,*,#332,.T.);
#241=ORIENTED_EDGE('',*,*,#327,.F.);
#242=ORIENTED_EDGE('',*,*,#326,.T.);
#243=ORIENTED_EDGE('',*,*,#322,.F.);
#244=ORIENTED_EDGE('',*,*,#318,.F.);
#245=ORIENTED_EDGE('',*,*,#315,.F.);
#246=ORIENTED_EDGE('',*,*,#312,.T.);
#247=ORIENTED_EDGE('',*,*,#311,.F.);
#248=ORIENTED_EDGE('',*,*,#306,.T.);
#249=ORIENTED_EDGE('',*,*,#303,.T.);
#250=ORIENTED_EDGE('',*,*,#300,.T.);
#251=ORIENTED_EDGE('',*,*,#299,.F.);
#252=ORIENTED_EDGE('',*,*,#296,.T.);
#253=ORIENTED_EDGE('',*,*,#291,.T.);
#254=ORIENTED_EDGE('',*,*,#288,.T.);
#255=ORIENTED_EDGE('',*,*,#285,.T.);
#256=ORIENTED_EDGE('',*,*,#283,.F.);
#257=ORIENTED_EDGE('',*,*,#280,.T.);
#258=ORIENTED_EDGE('',*,*,#277,.T.);
#259=ORIENTED_EDGE('',*,*,#273,.T.);
#260=ORIENTED_EDGE('',*,*,#270,.F.);
#261=ORIENTED_EDGE('',*,*,#269,.F.);
#262=ORIENTED_EDGE('',*,*,#385,.F.);
#263=ORIENTED_EDGE('',*,*,#389,.T.);
#264=ORIENTED_EDGE('',*,*,#384,.F.);
#265=ORIENTED_EDGE('',*,*,#388,.T.);
#266=EDGE_CURVE('',#390,#391,#474,.T.);
#267=EDGE_CURVE('',#392,#391,#475,.T.);
#268=EDGE_CURVE('',#393,#392,#476,.T.);
#269=EDGE_CURVE('',#393,#390,#477,.T.);
#270=EDGE_CURVE('',#390,#394,#478,.T.);
#271=EDGE_CURVE('',#395,#394,#479,.T.);
#272=EDGE_CURVE('',#391,#395,#480,.T.);
#273=EDGE_CURVE('',#396,#394,#481,.T.);
#274=EDGE_CURVE('',#396,#397,#482,.T.);
#275=EDGE_CURVE('',#397,#395,#483,.T.);
#276=EDGE_CURVE('',#398,#397,#484,.T.);
#277=EDGE_CURVE('',#399,#396,#485,.T.);
#278=EDGE_CURVE('',#399,#398,#486,.T.);
#279=EDGE_CURVE('',#400,#398,#487,.T.);
#280=EDGE_CURVE('',#401,#399,#488,.T.);
#281=EDGE_CURVE('',#401,#400,#489,.T.);
#282=EDGE_CURVE('',#400,#402,#490,.T.);
#283=EDGE_CURVE('',#401,#403,#491,.T.);
#284=EDGE_CURVE('',#403,#402,#492,.T.);
#285=EDGE_CURVE('',#404,#403,#493,.T.);
#286=EDGE_CURVE('',#405,#404,#494,.T.);
#287=EDGE_CURVE('',#405,#402,#495,.T.);
#288=EDGE_CURVE('',#406,#404,#496,.T.);
#289=EDGE_CURVE('',#406,#407,#497,.T.);
#290=EDGE_CURVE('',#407,#405,#498,.T.);
#291=EDGE_CURVE('',#408,#406,#499,.T.);
#292=EDGE_CURVE('',#408,#409,#500,.T.);
#293=EDGE_CURVE('',#409,#407,#501,.T.);
#294=EDGE_CURVE('',#410,#411,#502,.T.);
#295=EDGE_CURVE('',#411,#409,#503,.T.);
#296=EDGE_CURVE('',#410,#408,#504,.T.);
#297=EDGE_CURVE('',#412,#413,#505,.T.);
#298=EDGE_CURVE('',#411,#413,#506,.T.);
#299=EDGE_CURVE('',#410,#412,#507,.T.);
#300=EDGE_CURVE('',#414,#412,#508,.T.);
#301=EDGE_CURVE('',#414,#415,#509,.T.);
#302=EDGE_CURVE('',#415,#413,#510,.T.);
#303=EDGE_CURVE('',#416,#414,#511,.T.);
#304=EDGE_CURVE('',#416,#417,#512,.T.);
#305=EDGE_CURVE('',#417,#415,#513,.T.);
#306=EDGE_CURVE('',#418,#416,#514,.T.);
#307=EDGE_CURVE('',#418,#419,#515,.T.);
#308=EDGE_CURVE('',#417,#419,#516,.T.);
#309=EDGE_CURVE('',#420,#421,#517,.T.);
#310=EDGE_CURVE('',#419,#421,#518,.T.);
#311=EDGE_CURVE('',#418,#420,#519,.T.);
#312=EDGE_CURVE('',#422,#420,#520,.T.);
#313=EDGE_CURVE('',#422,#423,#521,.T.);
#314=EDGE_CURVE('',#423,#421,#522,.T.);
#315=EDGE_CURVE('',#422,#424,#523,.T.);
#316=EDGE_CURVE('',#425,#424,#524,.T.);
#317=EDGE_CURVE('',#425,#423,#525,.T.);
#318=EDGE_CURVE('',#424,#426,#526,.T.);
#319=EDGE_CURVE('',#427,#426,#527,.T.);
#320=EDGE_CURVE('',#425,#427,#528,.T.);
#321=EDGE_CURVE('',#427,#428,#529,.T.);
#322=EDGE_CURVE('',#426,#429,#530,.T.);
#323=EDGE_CURVE('',#428,#429,#531,.T.);
#324=EDGE_CURVE('',#430,#431,#532,.T.);
#325=EDGE_CURVE('',#430,#428,#533,.T.);
#326=EDGE_CURVE('',#431,#429,#534,.T.);
#327=EDGE_CURVE('',#431,#432,#535,.T.);
#328=EDGE_CURVE('',#432,#433,#536,.T.);
#329=EDGE_CURVE('',#433,#430,#537,.T.);
#330=EDGE_CURVE('',#434,#435,#538,.T.);
#331=EDGE_CURVE('',#433,#435,#539,.T.);
#332=EDGE_CURVE('',#434,#432,#540,.T.);
#333=EDGE_CURVE('',#434,#436,#541,.T.);
#334=EDGE_CURVE('',#436,#437,#542,.T.);
#335=EDGE_CURVE('',#435,#437,#543,.T.);
#336=EDGE_CURVE('',#436,#438,#544,.T.);
#337=EDGE_CURVE('',#438,#439,#545,.T.);
#338=EDGE_CURVE('',#439,#437,#546,.T.);
#339=EDGE_CURVE('',#438,#440,#547,.T.);
#340=EDGE_CURVE('',#441,#440,#548,.T.);
#341=EDGE_CURVE('',#441,#439,#549,.T.);
#342=EDGE_CURVE('',#440,#442,#550,.T.);
#343=EDGE_CURVE('',#443,#442,#551,.T.);
#344=EDGE_CURVE('',#441,#443,#552,.T.);
#345=EDGE_CURVE('',#444,#445,#553,.T.);
#346=EDGE_CURVE('',#443,#444,#554,.T.);
#347=EDGE_CURVE('',#442,#445,#555,.T.);
#348=EDGE_CURVE('',#446,#447,#556,.T.);
#349=EDGE_CURVE('',#446,#444,#557,.T.);
#350=EDGE_CURVE('',#447,#445,#558,.T.);
#351=EDGE_CURVE('',#447,#448,#559,.T.);
#352=EDGE_CURVE('',#448,#449,#560,.T.);
#353=EDGE_CURVE('',#449,#446,#561,.T.);
#354=EDGE_CURVE('',#448,#450,#562,.T.);
#355=EDGE_CURVE('',#450,#451,#563,.T.);
#356=EDGE_CURVE('',#449,#451,#564,.T.);
#357=EDGE_CURVE('',#452,#450,#565,.T.);
#358=EDGE_CURVE('',#452,#453,#566,.T.);
#359=EDGE_CURVE('',#453,#451,#567,.T.);
#360=EDGE_CURVE('',#454,#455,#568,.T.);
#361=EDGE_CURVE('',#455,#453,#569,.T.);
#362=EDGE_CURVE('',#452,#454,#570,.T.);
#363=EDGE_CURVE('',#456,#457,#571,.T.);
#364=EDGE_CURVE('',#455,#457,#572,.T.);
#365=EDGE_CURVE('',#454,#456,#573,.T.);
#366=EDGE_CURVE('',#456,#458,#574,.T.);
#367=EDGE_CURVE('',#458,#459,#575,.T.);
#368=EDGE_CURVE('',#457,#459,#576,.T.);
#369=EDGE_CURVE('',#460,#458,#577,.T.);
#370=EDGE_CURVE('',#460,#461,#578,.T.);
#371=EDGE_CURVE('',#461,#459,#579,.T.);
#372=EDGE_CURVE('',#460,#393,#580,.T.);
#373=EDGE_CURVE('',#461,#392,#581,.T.);
#374=EDGE_CURVE('',#462,#463,#582,.T.);
#375=EDGE_CURVE('',#463,#464,#583,.T.);
#376=EDGE_CURVE('',#465,#464,#584,.T.);
#377=EDGE_CURVE('',#462,#465,#585,.T.);
#378=EDGE_CURVE('',#466,#467,#586,.T.);
#379=EDGE_CURVE('',#467,#463,#587,.T.);
#380=EDGE_CURVE('',#466,#462,#588,.T.);
#381=EDGE_CURVE('',#468,#469,#589,.T.);
#382=EDGE_CURVE('',#469,#467,#590,.T.);
#383=EDGE_CURVE('',#468,#466,#591,.T.);
#384=EDGE_CURVE('',#470,#470,#14,.F.);
#385=EDGE_CURVE('',#471,#471,#15,.F.);
#386=EDGE_CURVE('',#464,#469,#592,.T.);
#387=EDGE_CURVE('',#465,#468,#593,.T.);
#388=EDGE_CURVE('',#472,#472,#16,.F.);
#389=EDGE_CURVE('',#473,#473,#17,.F.);
#390=VERTEX_POINT('',#1186);
#391=VERTEX_POINT('',#1187);
#392=VERTEX_POINT('',#1189);
#393=VERTEX_POINT('',#1191);
#394=VERTEX_POINT('',#1195);
#395=VERTEX_POINT('',#1197);
#396=VERTEX_POINT('',#1201);
#397=VERTEX_POINT('',#1203);
#398=VERTEX_POINT('',#1207);
#399=VERTEX_POINT('',#1209);
#400=VERTEX_POINT('',#1213);
#401=VERTEX_POINT('',#1215);
#402=VERTEX_POINT('',#1219);
#403=VERTEX_POINT('',#1221);
#404=VERTEX_POINT('',#1225);
#405=VERTEX_POINT('',#1227);
#406=VERTEX_POINT('',#1231);
#407=VERTEX_POINT('',#1233);
#408=VERTEX_POINT('',#1237);
#409=VERTEX_POINT('',#1239);
#410=VERTEX_POINT('',#1243);
#411=VERTEX_POINT('',#1244);
#412=VERTEX_POINT('',#1249);
#413=VERTEX_POINT('',#1250);
#414=VERTEX_POINT('',#1255);
#415=VERTEX_POINT('',#1257);
#416=VERTEX_POINT('',#1261);
#417=VERTEX_POINT('',#1263);
#418=VERTEX_POINT('',#1267);
#419=VERTEX_POINT('',#1269);
#420=VERTEX_POINT('',#1273);
#421=VERTEX_POINT('',#1274);
#422=VERTEX_POINT('',#1279);
#423=VERTEX_POINT('',#1281);
#424=VERTEX_POINT('',#1285);
#425=VERTEX_POINT('',#1287);
#426=VERTEX_POINT('',#1291);
#427=VERTEX_POINT('',#1293);
#428=VERTEX_POINT('',#1297);
#429=VERTEX_POINT('',#1299);
#430=VERTEX_POINT('',#1303);
#431=VERTEX_POINT('',#1304);
#432=VERTEX_POINT('',#1309);
#433=VERTEX_POINT('',#1311);
#434=VERTEX_POINT('',#1315);
#435=VERTEX_POINT('',#1316);
#436=VERTEX_POINT('',#1321);
#437=VERTEX_POINT('',#1323);
#438=VERTEX_POINT('',#1327);
#439=VERTEX_POINT('',#1329);
#440=VERTEX_POINT('',#1333);
#441=VERTEX_POINT('',#1335);
#442=VERTEX_POINT('',#1339);
#443=VERTEX_POINT('',#1341);
#444=VERTEX_POINT('',#1345);
#445=VERTEX_POINT('',#1346);
#446=VERTEX_POINT('',#1351);
#447=VERTEX_POINT('',#1352);
#448=VERTEX_POINT('',#1357);
#449=VERTEX_POINT('',#1359);
#450=VERTEX_POINT('',#1363);
#451=VERTEX_POINT('',#1365);
#452=VERTEX_POINT('',#1369);
#453=VERTEX_POINT('',#1371);
#454=VERTEX_POINT('',#1375);
#455=VERTEX_POINT('',#1376);
#456=VERTEX_POINT('',#1381);
#457=VERTEX_POINT('',#1382);
#458=VERTEX_POINT('',#1387);
#459=VERTEX_POINT('',#1389);
#460=VERTEX_POINT('',#1393);
#461=VERTEX_POINT('',#1395);
#462=VERTEX_POINT('',#1402);
#463=VERTEX_POINT('',#1403);
#464=VERTEX_POINT('',#1405);
#465=VERTEX_POINT('',#1407);
#466=VERTEX_POINT('',#1411);
#467=VERTEX_POINT('',#1412);
#468=VERTEX_POINT('',#1417);
#469=VERTEX_POINT('',#1418);
#470=VERTEX_POINT('',#1423);
#471=VERTEX_POINT('',#1425);
#472=VERTEX_POINT('',#1431);
#473=VERTEX_POINT('',#1433);
#474=LINE('',#1185,#594);
#475=LINE('',#1188,#595);
#476=LINE('',#1190,#596);
#477=LINE('',#1192,#597);
#478=LINE('',#1194,#598);
#479=LINE('',#1196,#599);
#480=LINE('',#1198,#600);
#481=LINE('',#1200,#601);
#482=LINE('',#1202,#602);
#483=LINE('',#1204,#603);
#484=LINE('',#1206,#604);
#485=LINE('',#1208,#605);
#486=LINE('',#1210,#606);
#487=LINE('',#1212,#607);
#488=LINE('',#1214,#608);
#489=LINE('',#1216,#609);
#490=LINE('',#1218,#610);
#491=LINE('',#1220,#611);
#492=LINE('',#1222,#612);
#493=LINE('',#1224,#613);
#494=LINE('',#1226,#614);
#495=LINE('',#1228,#615);
#496=LINE('',#1230,#616);
#497=LINE('',#1232,#617);
#498=LINE('',#1234,#618);
#499=LINE('',#1236,#619);
#500=LINE('',#1238,#620);
#501=LINE('',#1240,#621);
#502=LINE('',#1242,#622);
#503=LINE('',#1245,#623);
#504=LINE('',#1246,#624);
#505=LINE('',#1248,#625);
#506=LINE('',#1251,#626);
#507=LINE('',#1252,#627);
#508=LINE('',#1254,#628);
#509=LINE('',#1256,#629);
#510=LINE('',#1258,#630);
#511=LINE('',#1260,#631);
#512=LINE('',#1262,#632);
#513=LINE('',#1264,#633);
#514=LINE('',#1266,#634);
#515=LINE('',#1268,#635);
#516=LINE('',#1270,#636);
#517=LINE('',#1272,#637);
#518=LINE('',#1275,#638);
#519=LINE('',#1276,#639);
#520=LINE('',#1278,#640);
#521=LINE('',#1280,#641);
#522=LINE('',#1282,#642);
#523=LINE('',#1284,#643);
#524=LINE('',#1286,#644);
#525=LINE('',#1288,#645);
#526=LINE('',#1290,#646);
#527=LINE('',#1292,#647);
#528=LINE('',#1294,#648);
#529=LINE('',#1296,#649);
#530=LINE('',#1298,#650);
#531=LINE('',#1300,#651);
#532=LINE('',#1302,#652);
#533=LINE('',#1305,#653);
#534=LINE('',#1306,#654);
#535=LINE('',#1308,#655);
#536=LINE('',#1310,#656);
#537=LINE('',#1312,#657);
#538=LINE('',#1314,#658);
#539=LINE('',#1317,#659);
#540=LINE('',#1318,#660);
#541=LINE('',#1320,#661);
#542=LINE('',#1322,#662);
#543=LINE('',#1324,#663);
#544=LINE('',#1326,#664);
#545=LINE('',#1328,#665);
#546=LINE('',#1330,#666);
#547=LINE('',#1332,#667);
#548=LINE('',#1334,#668);
#549=LINE('',#1336,#669);
#550=LINE('',#1338,#670);
#551=LINE('',#1340,#671);
#552=LINE('',#1342,#672);
#553=LINE('',#1344,#673);
#554=LINE('',#1347,#674);
#555=LINE('',#1348,#675);
#556=LINE('',#1350,#676);
#557=LINE('',#1353,#677);
#558=LINE('',#1354,#678);
#559=LINE('',#1356,#679);
#560=LINE('',#1358,#680);
#561=LINE('',#1360,#681);
#562=LINE('',#1362,#682);
#563=LINE('',#1364,#683);
#564=LINE('',#1366,#684);
#565=LINE('',#1368,#685);
#566=LINE('',#1370,#686);
#567=LINE('',#1372,#687);
#568=LINE('',#1374,#688);
#569=LINE('',#1377,#689);
#570=LINE('',#1378,#690);
#571=LINE('',#1380,#691);
#572=LINE('',#1383,#692);
#573=LINE('',#1384,#693);
#574=LINE('',#1386,#694);
#575=LINE('',#1388,#695);
#576=LINE('',#1390,#696);
#577=LINE('',#1392,#697);
#578=LINE('',#1394,#698);
#579=LINE('',#1396,#699);
#580=LINE('',#1398,#700);
#581=LINE('',#1399,#701);
#582=LINE('',#1401,#702);
#583=LINE('',#1404,#703);
#584=LINE('',#1406,#704);
#585=LINE('',#1408,#705);
#586=LINE('',#1410,#706);
#587=LINE('',#1413,#707);
#588=LINE('',#1414,#708);
#589=LINE('',#1416,#709);
#590=LINE('',#1419,#710);
#591=LINE('',#1420,#711);
#592=LINE('',#1426,#712);
#593=LINE('',#1428,#713);
#594=VECTOR('',#969,1.);
#595=VECTOR('',#970,1.);
#596=VECTOR('',#971,1.);
#597=VECTOR('',#972,1.);
#598=VECTOR('',#975,1.);
#599=VECTOR('',#976,1.);
#600=VECTOR('',#977,1.);
#601=VECTOR('',#980,1.);
#602=VECTOR('',#981,1.);
#603=VECTOR('',#982,1.);
#604=VECTOR('',#985,1.);
#605=VECTOR('',#986,1.);
#606=VECTOR('',#987,1.);
#607=VECTOR('',#990,1.);
#608=VECTOR('',#991,1.);
#609=VECTOR('',#992,1.);
#610=VECTOR('',#995,1.);
#611=VECTOR('',#996,1.);
#612=VECTOR('',#997,1.);
#613=VECTOR('',#1000,1.);
#614=VECTOR('',#1001,1.);
#615=VECTOR('',#1002,1.);
#616=VECTOR('',#1005,1.);
#617=VECTOR('',#1006,1.);
#618=VECTOR('',#1007,1.);
#619=VECTOR('',#1010,1.);
#620=VECTOR('',#1011,1.);
#621=VECTOR('',#1012,1.);
#622=VECTOR('',#1015,1.);
#623=VECTOR('',#1016,1.);
#624=VECTOR('',#1017,1.);
#625=VECTOR('',#1020,1.);
#626=VECTOR('',#1021,1.);
#627=VECTOR('',#1022,1.);
#628=VECTOR('',#1025,1.);
#629=VECTOR('',#1026,1.);
#630=VECTOR('',#1027,1.);
#631=VECTOR('',#1030,1.);
#632=VECTOR('',#1031,1.);
#633=VECTOR('',#1032,1.);
#634=VECTOR('',#1035,1.);
#635=VECTOR('',#1036,1.);
#636=VECTOR('',#1037,1.);
#637=VECTOR('',#1040,1.);
#638=VECTOR('',#1041,1.);
#639=VECTOR('',#1042,1.);
#640=VECTOR('',#1045,1.);
#641=VECTOR('',#1046,1.);
#642=VECTOR('',#1047,1.);
#643=VECTOR('',#1050,1.);
#644=VECTOR('',#1051,1.);
#645=VECTOR('',#1052,1.);
#646=VECTOR('',#1055,1.);
#647=VECTOR('',#1056,1.);
#648=VECTOR('',#1057,1.);
#649=VECTOR('',#1060,1.);
#650=VECTOR('',#1061,1.);
#651=VECTOR('',#1062,1.);
#652=VECTOR('',#1065,1.);
#653=VECTOR('',#1066,1.);
#654=VECTOR('',#1067,1.);
#655=VECTOR('',#1070,1.);
#656=VECTOR('',#1071,1.);
#657=VECTOR('',#1072,1.);
#658=VECTOR('',#1075,1.);
#659=VECTOR('',#1076,1.);
#660=VECTOR('',#1077,1.);
#661=VECTOR('',#1080,1.);
#662=VECTOR('',#1081,1.);
#663=VECTOR('',#1082,1.);
#664=VECTOR('',#1085,1.);
#665=VECTOR('',#1086,1.);
#666=VECTOR('',#1087,1.);
#667=VECTOR('',#1090,1.);
#668=VECTOR('',#1091,1.);
#669=VECTOR('',#1092,1.);
#670=VECTOR('',#1095,1.);
#671=VECTOR('',#1096,1.);
#672=VECTOR('',#1097,1.);
#673=VECTOR('',#1100,1.);
#674=VECTOR('',#1101,1.);
#675=VECTOR('',#1102,1.);
#676=VECTOR('',#1105,1.);
#677=VECTOR('',#1106,1.);
#678=VECTOR('',#1107,1.);
#679=VECTOR('',#1110,1.);
#680=VECTOR('',#1111,1.);
#681=VECTOR('',#1112,1.);
#682=VECTOR('',#1115,1.);
#683=VECTOR('',#1116,1.);
#684=VECTOR('',#1117,1.);
#685=VECTOR('',#1120,1.);
#686=VECTOR('',#1121,1.);
#687=VECTOR('',#1122,1.);
#688=VECTOR('',#1125,1.);
#689=VECTOR('',#1126,1.);
#690=VECTOR('',#1127,1.);
#691=VECTOR('',#1130,1.);
#692=VECTOR('',#1131,1.);
#693=VECTOR('',#1132,1.);
#694=VECTOR('',#1135,1.);
#695=VECTOR('',#1136,1.);
#696=VECTOR('',#1137,1.);
#697=VECTOR('',#1140,1.);
#698=VECTOR('',#1141,1.);
#699=VECTOR('',#1142,1.);
#700=VECTOR('',#1145,1.);
#701=VECTOR('',#1146,1.);
#702=VECTOR('',#1149,1.);
#703=VECTOR('',#1150,1.);
#704=VECTOR('',#1151,1.);
#705=VECTOR('',#1152,1.);
#706=VECTOR('',#1155,1.);
#707=VECTOR('',#1156,1.);
#708=VECTOR('',#1157,1.);
#709=VECTOR('',#1160,1.);
#710=VECTOR('',#1161,1.);
#711=VECTOR('',#1162,1.);
#712=VECTOR('',#1169,1.);
#713=VECTOR('',#1172,1.);
#714=EDGE_LOOP('',(#18,#19,#20,#21));
#715=EDGE_LOOP('',(#22,#23,#24,#25));
#716=EDGE_LOOP('',(#26,#27,#28,#29));
#717=EDGE_LOOP('',(#30,#31,#32,#33));
#718=EDGE_LOOP('',(#34,#35,#36,#37));
#719=EDGE_LOOP('',(#38,#39,#40,#41));
#720=EDGE_LOOP('',(#42,#43,#44,#45));
#721=EDGE_LOOP('',(#46,#47,#48,#49));
#722=EDGE_LOOP('',(#50,#51,#52,#53));
#723=EDGE_LOOP('',(#54,#55,#56,#57));
#724=EDGE_LOOP('',(#58,#59,#60,#61));
#725=EDGE_LOOP('',(#62,#63,#64,#65));
#726=EDGE_LOOP('',(#66,#67,#68,#69));
#727=EDGE_LOOP('',(#70,#71,#72,#73));
#728=EDGE_LOOP('',(#74,#75,#76,#77));
#729=EDGE_LOOP('',(#78,#79,#80,#81));
#730=EDGE_LOOP('',(#82,#83,#84,#85));
#731=EDGE_LOOP('',(#86,#87,#88,#89));
#732=EDGE_LOOP('',(#90,#91,#92,#93));
#733=EDGE_LOOP('',(#94,#95,#96,#97));
#734=EDGE_LOOP('',(#98,#99,#100,#101));
#735=EDGE_LOOP('',(#102,#103,#104,#105));
#736=EDGE_LOOP('',(#106,#107,#108,#109));
#737=EDGE_LOOP('',(#110,#111,#112,#113));
#738=EDGE_LOOP('',(#114,#115,#116,#117));
#739=EDGE_LOOP('',(#118,#119,#120,#121));
#740=EDGE_LOOP('',(#122,#123,#124,#125));
#741=EDGE_LOOP('',(#126,#127,#128,#129));
#742=EDGE_LOOP('',(#130,#131,#132,#133));
#743=EDGE_LOOP('',(#134,#135,#136,#137));
#744=EDGE_LOOP('',(#138,#139,#140,#141));
#745=EDGE_LOOP('',(#142,#143,#144,#145));
#746=EDGE_LOOP('',(#146,#147,#148,#149));
#747=EDGE_LOOP('',(#150,#151,#152,#153));
#748=EDGE_LOOP('',(#154,#155,#156,#157));
#749=EDGE_LOOP('',(#158,#159,#160,#161));
#750=EDGE_LOOP('',(#162,#163,#164,#165));
#751=EDGE_LOOP('',(#166,#167,#168,#169));
#752=EDGE_LOOP('',(#170,#171,#172,#173));
#753=EDGE_LOOP('',(#174));
#754=EDGE_LOOP('',(#175));
#755=EDGE_LOOP('',(#176,#177,#178,#179));
#756=EDGE_LOOP('',(#180,#181,#182,#183,#184,#185,#186,#187,#188,#189,#190,
#191,#192,#193,#194,#195,#196,#197,#198,#199,#200,#201,#202,#203,#204,#205,
#206,#207,#208,#209,#210,#211,#212,#213,#214,#215));
#757=EDGE_LOOP('',(#216,#217,#218,#219));
#758=EDGE_LOOP('',(#220));
#759=EDGE_LOOP('',(#221));
#760=EDGE_LOOP('',(#222,#223,#224,#225));
#761=EDGE_LOOP('',(#226,#227,#228,#229,#230,#231,#232,#233,#234,#235,#236,
#237,#238,#239,#240,#241,#242,#243,#244,#245,#246,#247,#248,#249,#250,#251,
#252,#253,#254,#255,#256,#257,#258,#259,#260,#261));
#762=EDGE_LOOP('',(#262));
#763=EDGE_LOOP('',(#263));
#764=EDGE_LOOP('',(#264));
#765=EDGE_LOOP('',(#265));
#766=FACE_BOUND('',#714,.T.);
#767=FACE_BOUND('',#715,.T.);
#768=FACE_BOUND('',#716,.T.);
#769=FACE_BOUND('',#717,.T.);
#770=FACE_BOUND('',#718,.T.);
#771=FACE_BOUND('',#719,.T.);
#772=FACE_BOUND('',#720,.T.);
#773=FACE_BOUND('',#721,.T.);
#774=FACE_BOUND('',#722,.T.);
#775=FACE_BOUND('',#723,.T.);
#776=FACE_BOUND('',#724,.T.);
#777=FACE_BOUND('',#725,.T.);
#778=FACE_BOUND('',#726,.T.);
#779=FACE_BOUND('',#727,.T.);
#780=FACE_BOUND('',#728,.T.);
#781=FACE_BOUND('',#729,.T.);
#782=FACE_BOUND('',#730,.T.);
#783=FACE_BOUND('',#731,.T.);
#784=FACE_BOUND('',#732,.T.);
#785=FACE_BOUND('',#733,.T.);
#786=FACE_BOUND('',#734,.T.);
#787=FACE_BOUND('',#735,.T.);
#788=FACE_BOUND('',#736,.T.);
#789=FACE_BOUND('',#737,.T.);
#790=FACE_BOUND('',#738,.T.);
#791=FACE_BOUND('',#739,.T.);
#792=FACE_BOUND('',#740,.T.);
#793=FACE_BOUND('',#741,.T.);
#794=FACE_BOUND('',#742,.T.);
#795=FACE_BOUND('',#743,.T.);
#796=FACE_BOUND('',#744,.T.);
#797=FACE_BOUND('',#745,.T.);
#798=FACE_BOUND('',#746,.T.);
#799=FACE_BOUND('',#747,.T.);
#800=FACE_BOUND('',#748,.T.);
#801=FACE_BOUND('',#749,.T.);
#802=FACE_BOUND('',#750,.T.);
#803=FACE_BOUND('',#751,.T.);
#804=FACE_BOUND('',#752,.T.);
#805=FACE_BOUND('',#753,.T.);
#806=FACE_BOUND('',#754,.T.);
#807=FACE_BOUND('',#755,.T.);
#808=FACE_BOUND('',#756,.T.);
#809=FACE_BOUND('',#757,.T.);
#810=FACE_BOUND('',#758,.T.);
#811=FACE_BOUND('',#759,.T.);
#812=FACE_BOUND('',#760,.T.);
#813=FACE_BOUND('',#761,.T.);
#814=FACE_BOUND('',#762,.T.);
#815=FACE_BOUND('',#763,.T.);
#816=FACE_BOUND('',#764,.T.);
#817=FACE_BOUND('',#765,.T.);
#818=PLANE('',#917);
#819=PLANE('',#918);
#820=PLANE('',#919);
#821=PLANE('',#920);
#822=PLANE('',#921);
#823=PLANE('',#922);
#824=PLANE('',#923);
#825=PLANE('',#924);
#826=PLANE('',#925);
#827=PLANE('',#926);
#828=PLANE('',#927);
#829=PLANE('',#928);
#830=PLANE('',#929);
#831=PLANE('',#930);
#832=PLANE('',#931);
#833=PLANE('',#932);
#834=PLANE('',#933);
#835=PLANE('',#934);
#836=PLANE('',#935);
#837=PLANE('',#936);
#838=PLANE('',#937);
#839=PLANE('',#938);
#840=PLANE('',#939);
#841=PLANE('',#940);
#842=PLANE('',#941);
#843=PLANE('',#942);
#844=PLANE('',#943);
#845=PLANE('',#944);
#846=PLANE('',#945);
#847=PLANE('',#946);
#848=PLANE('',#947);
#849=PLANE('',#948);
#850=PLANE('',#949);
#851=PLANE('',#950);
#852=PLANE('',#951);
#853=PLANE('',#952);
#854=PLANE('',#953);
#855=PLANE('',#954);
#856=PLANE('',#955);
#857=PLANE('',#956);
#858=PLANE('',#959);
#859=PLANE('',#960);
#860=ADVANCED_FACE('',(#766),#818,.F.);
#861=ADVANCED_FACE('',(#767),#819,.T.);
#862=ADVANCED_FACE('',(#768),#820,.F.);
#863=ADVANCED_FACE('',(#769),#821,.F.);
#864=ADVANCED_FACE('',(#770),#822,.F.);
#865=ADVANCED_FACE('',(#771),#823,.T.);
#866=ADVANCED_FACE('',(#772),#824,.F.);
#867=ADVANCED_FACE('',(#773),#825,.F.);
#868=ADVANCED_FACE('',(#774),#826,.T.);
#869=ADVANCED_FACE('',(#775),#827,.T.);
#870=ADVANCED_FACE('',(#776),#828,.F.);
#871=ADVANCED_FACE('',(#777),#829,.F.);
#872=ADVANCED_FACE('',(#778),#830,.T.);
#873=ADVANCED_FACE('',(#779),#831,.T.);
#874=ADVANCED_FACE('',(#780),#832,.F.);
#875=ADVANCED_FACE('',(#781),#833,.F.);
#876=ADVANCED_FACE('',(#782),#834,.T.);
#877=ADVANCED_FACE('',(#783),#835,.T.);
#878=ADVANCED_FACE('',(#784),#836,.T.);
#879=ADVANCED_FACE('',(#785),#837,.F.);
#880=ADVANCED_FACE('',(#786),#838,.T.);
#881=ADVANCED_FACE('',(#787),#839,.F.);
#882=ADVANCED_FACE('',(#788),#840,.T.);
#883=ADVANCED_FACE('',(#789),#841,.T.);
#884=ADVANCED_FACE('',(#790),#842,.T.);
#885=ADVANCED_FACE('',(#791),#843,.T.);
#886=ADVANCED_FACE('',(#792),#844,.T.);
#887=ADVANCED_FACE('',(#793),#845,.F.);
#888=ADVANCED_FACE('',(#794),#846,.T.);
#889=ADVANCED_FACE('',(#795),#847,.T.);
#890=ADVANCED_FACE('',(#796),#848,.T.);
#891=ADVANCED_FACE('',(#797),#849,.F.);
#892=ADVANCED_FACE('',(#798),#850,.F.);
#893=ADVANCED_FACE('',(#799),#851,.T.);
#894=ADVANCED_FACE('',(#800),#852,.T.);
#895=ADVANCED_FACE('',(#801),#853,.F.);
#896=ADVANCED_FACE('',(#802),#854,.F.);
#897=ADVANCED_FACE('',(#803),#855,.F.);
#898=ADVANCED_FACE('',(#804),#856,.F.);
#899=ADVANCED_FACE('',(#805,#806,#807,#808),#857,.T.);
#900=ADVANCED_FACE('',(#809),#858,.F.);
#901=ADVANCED_FACE('',(#810,#811,#812,#813),#859,.F.);
#902=ADVANCED_FACE('',(#814,#815),#12,.F.);
#903=ADVANCED_FACE('',(#816,#817),#13,.F.);
#904=CLOSED_SHELL('',(#860,#861,#862,#863,#864,#865,#866,#867,#868,#869,
#870,#871,#872,#873,#874,#875,#876,#877,#878,#879,#880,#881,#882,#883,#884,
#885,#886,#887,#888,#889,#890,#891,#892,#893,#894,#895,#896,#897,#898,#899,
#900,#901,#902,#903));
#905=STYLED_ITEM('',(#906),#913);
#906=PRESENTATION_STYLE_ASSIGNMENT((#907));
#907=SURFACE_STYLE_USAGE(.BOTH.,#908);
#908=SURFACE_SIDE_STYLE('',(#909));
#909=SURFACE_STYLE_FILL_AREA(#910);
#910=FILL_AREA_STYLE('',(#911));
#911=FILL_AREA_STYLE_COLOUR('',#912);
#912=DRAUGHTING_PRE_DEFINED_COLOUR('black');
#913=MANIFOLD_SOLID_BREP('Part 132',#904);
#914=SHAPE_DEFINITION_REPRESENTATION(#1442,#915);
#915=SHAPE_REPRESENTATION('Part 132',(#916),#1437);
#916=AXIS2_PLACEMENT_3D('',#1183,#965,#966);
#917=AXIS2_PLACEMENT_3D('',#1184,#967,#968);
#918=AXIS2_PLACEMENT_3D('',#1193,#973,#974);
#919=AXIS2_PLACEMENT_3D('',#1199,#978,#979);
#920=AXIS2_PLACEMENT_3D('',#1205,#983,#984);
#921=AXIS2_PLACEMENT_3D('',#1211,#988,#989);
#922=AXIS2_PLACEMENT_3D('',#1217,#993,#994);
#923=AXIS2_PLACEMENT_3D('',#1223,#998,#999);
#924=AXIS2_PLACEMENT_3D('',#1229,#1003,#1004);
#925=AXIS2_PLACEMENT_3D('',#1235,#1008,#1009);
#926=AXIS2_PLACEMENT_3D('',#1241,#1013,#1014);
#927=AXIS2_PLACEMENT_3D('',#1247,#1018,#1019);
#928=AXIS2_PLACEMENT_3D('',#1253,#1023,#1024);
#929=AXIS2_PLACEMENT_3D('',#1259,#1028,#1029);
#930=AXIS2_PLACEMENT_3D('',#1265,#1033,#1034);
#931=AXIS2_PLACEMENT_3D('',#1271,#1038,#1039);
#932=AXIS2_PLACEMENT_3D('',#1277,#1043,#1044);
#933=AXIS2_PLACEMENT_3D('',#1283,#1048,#1049);
#934=AXIS2_PLACEMENT_3D('',#1289,#1053,#1054);
#935=AXIS2_PLACEMENT_3D('',#1295,#1058,#1059);
#936=AXIS2_PLACEMENT_3D('',#1301,#1063,#1064);
#937=AXIS2_PLACEMENT_3D('',#1307,#1068,#1069);
#938=AXIS2_PLACEMENT_3D('',#1313,#1073,#1074);
#939=AXIS2_PLACEMENT_3D('',#1319,#1078,#1079);
#940=AXIS2_PLACEMENT_3D('',#1325,#1083,#1084);
#941=AXIS2_PLACEMENT_3D('',#1331,#1088,#1089);
#942=AXIS2_PLACEMENT_3D('',#1337,#1093,#1094);
#943=AXIS2_PLACEMENT_3D('',#1343,#1098,#1099);
#944=AXIS2_PLACEMENT_3D('',#1349,#1103,#1104);
#945=AXIS2_PLACEMENT_3D('',#1355,#1108,#1109);
#946=AXIS2_PLACEMENT_3D('',#1361,#1113,#1114);
#947=AXIS2_PLACEMENT_3D('',#1367,#1118,#1119);
#948=AXIS2_PLACEMENT_3D('',#1373,#1123,#1124);
#949=AXIS2_PLACEMENT_3D('',#1379,#1128,#1129);
#950=AXIS2_PLACEMENT_3D('',#1385,#1133,#1134);
#951=AXIS2_PLACEMENT_3D('',#1391,#1138,#1139);
#952=AXIS2_PLACEMENT_3D('',#1397,#1143,#1144);
#953=AXIS2_PLACEMENT_3D('',#1400,#1147,#1148);
#954=AXIS2_PLACEMENT_3D('',#1409,#1153,#1154);
#955=AXIS2_PLACEMENT_3D('',#1415,#1158,#1159);
#956=AXIS2_PLACEMENT_3D('',#1421,#1163,#1164);
#957=AXIS2_PLACEMENT_3D('',#1422,#1165,#1166);
#958=AXIS2_PLACEMENT_3D('',#1424,#1167,#1168);
#959=AXIS2_PLACEMENT_3D('',#1427,#1170,#1171);
#960=AXIS2_PLACEMENT_3D('',#1429,#1173,#1174);
#961=AXIS2_PLACEMENT_3D('',#1430,#1175,#1176);
#962=AXIS2_PLACEMENT_3D('',#1432,#1177,#1178);
#963=AXIS2_PLACEMENT_3D('',#1434,#1179,#1180);
#964=AXIS2_PLACEMENT_3D('',#1435,#1181,#1182);
#965=DIRECTION('',(0.,0.,1.));
#966=DIRECTION('',(1.,0.,0.));
#967=DIRECTION('',(0.,0.,1.));
#968=DIRECTION('',(1.,0.,0.));
#969=DIRECTION('',(-2.1350442781253E-16,-1.,0.));
#970=DIRECTION('',(1.,-2.1350442781253E-16,0.));
#971=DIRECTION('',(-2.1350442781253E-16,-1.,0.));
#972=DIRECTION('',(1.,-2.1350442781253E-16,0.));
#973=DIRECTION('',(1.,0.,0.));
#974=DIRECTION('',(0.,0.,-1.));
#975=DIRECTION('',(0.,0.,1.));
#976=DIRECTION('',(0.,1.,0.));
#977=DIRECTION('',(0.,0.,1.));
#978=DIRECTION('',(0.,0.,-1.));
#979=DIRECTION('',(1.,0.,0.));
#980=DIRECTION('',(1.,0.,0.));
#981=DIRECTION('',(0.,-1.,0.));
#982=DIRECTION('',(1.,0.,0.));
#983=DIRECTION('',(-1.,0.,0.));
#984=DIRECTION('',(0.,0.,1.));
#985=DIRECTION('',(0.,0.,-1.));
#986=DIRECTION('',(0.,0.,-1.));
#987=DIRECTION('',(0.,-1.,0.));
#988=DIRECTION('',(0.,0.,-1.));
#989=DIRECTION('',(-1.,0.,0.));
#990=DIRECTION('',(1.,0.,0.));
#991=DIRECTION('',(1.,0.,0.));
#992=DIRECTION('',(0.,-1.,0.));
#993=DIRECTION('',(-1.,0.,0.));
#994=DIRECTION('',(0.,0.,1.));
#995=DIRECTION('',(0.,0.,-1.));
#996=DIRECTION('',(0.,0.,-1.));
#997=DIRECTION('',(0.,-1.,0.));
#998=DIRECTION('',(0.,0.,-1.));
#999=DIRECTION('',(1.,0.,0.));
#1000=DIRECTION('',(1.,0.,0.));
#1001=DIRECTION('',(0.,1.,0.));
#1002=DIRECTION('',(1.,0.,0.));
#1003=DIRECTION('',(1.,0.,0.));
#1004=DIRECTION('',(0.,0.,-1.));
#1005=DIRECTION('',(0.,0.,1.));
#1006=DIRECTION('',(-2.1350442781253E-16,-1.,0.));
#1007=DIRECTION('',(0.,0.,1.));
#1008=DIRECTION('',(0.,0.,-1.));
#1009=DIRECTION('',(-1.,0.,0.));
#1010=DIRECTION('',(-1.,2.1350442781253E-16,0.));
#1011=DIRECTION('',(-2.1350442781253E-16,-1.,0.));
#1012=DIRECTION('',(-1.,2.1350442781253E-16,0.));
#1013=DIRECTION('',(-1.,2.1350442781253E-16,0.));
#1014=DIRECTION('',(-2.1350442781253E-16,-1.,0.));
#1015=DIRECTION('',(-2.1350442781253E-16,-1.,0.));
#1016=DIRECTION('',(0.,0.,1.));
#1017=DIRECTION('',(0.,0.,1.));
#1018=DIRECTION('',(0.,0.,-1.));
#1019=DIRECTION('',(-1.,0.,0.));
#1020=DIRECTION('',(-2.1350442781253E-16,-1.,0.));
#1021=DIRECTION('',(-1.,2.1350442781253E-16,0.));
#1022=DIRECTION('',(-1.,2.1350442781253E-16,0.));
#1023=DIRECTION('',(1.,0.,0.));
#1024=DIRECTION('',(0.,0.,-1.));
#1025=DIRECTION('',(0.,0.,1.));
#1026=DIRECTION('',(-2.1350442781253E-16,-1.,0.));
#1027=DIRECTION('',(0.,0.,1.));
#1028=DIRECTION('',(0.,0.,-1.));
#1029=DIRECTION('',(-1.,0.,0.));
#1030=DIRECTION('',(-1.,2.1350442781253E-16,0.));
#1031=DIRECTION('',(-2.1350442781253E-16,-1.,0.));
#1032=DIRECTION('',(-1.,2.1350442781253E-16,0.));
#1033=DIRECTION('',(-1.,2.1350442781253E-16,0.));
#1034=DIRECTION('',(-2.1350442781253E-16,-1.,0.));
#1035=DIRECTION('',(0.,0.,1.));
#1036=DIRECTION('',(-2.1350442781253E-16,-1.,0.));
#1037=DIRECTION('',(0.,0.,-1.));
#1038=DIRECTION('',(0.,0.,-1.));
#1039=DIRECTION('',(-1.,0.,0.));
#1040=DIRECTION('',(-2.1350442781253E-16,-1.,0.));
#1041=DIRECTION('',(-1.,2.1350442781253E-16,0.));
#1042=DIRECTION('',(-1.,2.1350442781253E-16,0.));
#1043=DIRECTION('',(1.,0.,0.));
#1044=DIRECTION('',(0.,0.,-1.));
#1045=DIRECTION('',(0.,0.,1.));
#1046=DIRECTION('',(0.,-1.,0.));
#1047=DIRECTION('',(0.,0.,1.));
#1048=DIRECTION('',(0.,0.,-1.));
#1049=DIRECTION('',(1.,0.,0.));
#1050=DIRECTION('',(1.,0.,0.));
#1051=DIRECTION('',(0.,1.,0.));
#1052=DIRECTION('',(-1.,0.,0.));
#1053=DIRECTION('',(-1.,0.,0.));
#1054=DIRECTION('',(0.,0.,1.));
#1055=DIRECTION('',(0.,0.,-1.));
#1056=DIRECTION('',(0.,1.,0.));
#1057=DIRECTION('',(0.,0.,-1.));
#1058=DIRECTION('',(0.,0.,-1.));
#1059=DIRECTION('',(1.,0.,0.));
#1060=DIRECTION('',(1.,0.,0.));
#1061=DIRECTION('',(1.,0.,0.));
#1062=DIRECTION('',(0.,1.,0.));
#1063=DIRECTION('',(-1.,0.,0.));
#1064=DIRECTION('',(0.,0.,1.));
#1065=DIRECTION('',(0.,1.,0.));
#1066=DIRECTION('',(0.,0.,-1.));
#1067=DIRECTION('',(0.,0.,-1.));
#1068=DIRECTION('',(0.,0.,-1.));
#1069=DIRECTION('',(1.,0.,0.));
#1070=DIRECTION('',(1.,0.,0.));
#1071=DIRECTION('',(0.,-1.,0.));
#1072=DIRECTION('',(-1.,0.,0.));
#1073=DIRECTION('',(1.,0.,0.));
#1074=DIRECTION('',(0.,0.,-1.));
#1075=DIRECTION('',(0.,-1.,0.));
#1076=DIRECTION('',(0.,0.,-1.));
#1077=DIRECTION('',(0.,0.,1.));
#1078=DIRECTION('',(0.,0.,-1.));
#1079=DIRECTION('',(1.,0.,0.));
#1080=DIRECTION('',(1.,0.,0.));
#1081=DIRECTION('',(0.,-1.,0.));
#1082=DIRECTION('',(1.,0.,0.));
#1083=DIRECTION('',(1.,0.,0.));
#1084=DIRECTION('',(0.,0.,-1.));
#1085=DIRECTION('',(0.,0.,1.));
#1086=DIRECTION('',(0.,-1.,0.));
#1087=DIRECTION('',(0.,0.,-1.));
#1088=DIRECTION('',(0.,0.,-1.));
#1089=DIRECTION('',(1.,0.,0.));
#1090=DIRECTION('',(1.,0.,0.));
#1091=DIRECTION('',(0.,1.,0.));
#1092=DIRECTION('',(-1.,0.,0.));
#1093=DIRECTION('',(-1.,0.,0.));
#1094=DIRECTION('',(0.,0.,1.));
#1095=DIRECTION('',(0.,0.,-1.));
#1096=DIRECTION('',(0.,1.,0.));
#1097=DIRECTION('',(0.,0.,-1.));
#1098=DIRECTION('',(0.,0.,-1.));
#1099=DIRECTION('',(1.,0.,0.));
#1100=DIRECTION('',(0.,1.,0.));
#1101=DIRECTION('',(1.,0.,0.));
#1102=DIRECTION('',(1.,0.,0.));
#1103=DIRECTION('',(-1.,0.,0.));
#1104=DIRECTION('',(0.,0.,1.));
#1105=DIRECTION('',(0.,1.,0.));
#1106=DIRECTION('',(0.,0.,-1.));
#1107=DIRECTION('',(0.,0.,-1.));
#1108=DIRECTION('',(0.,0.,-1.));
#1109=DIRECTION('',(1.,0.,0.));
#1110=DIRECTION('',(1.,0.,0.));
#1111=DIRECTION('',(0.,-1.,0.));
#1112=DIRECTION('',(-1.,0.,0.));
#1113=DIRECTION('',(1.,0.,0.));
#1114=DIRECTION('',(0.,0.,-1.));
#1115=DIRECTION('',(0.,0.,1.));
#1116=DIRECTION('',(-2.1350442781253E-16,-1.,0.));
#1117=DIRECTION('',(0.,0.,1.));
#1118=DIRECTION('',(0.,0.,1.));
#1119=DIRECTION('',(1.,0.,0.));
#1120=DIRECTION('',(1.,-2.1350442781253E-16,0.));
#1121=DIRECTION('',(-2.1350442781253E-16,-1.,0.));
#1122=DIRECTION('',(1.,-2.1350442781253E-16,0.));
#1123=DIRECTION('',(-1.,2.1350442781253E-16,0.));
#1124=DIRECTION('',(-2.1350442781253E-16,-1.,0.));
#1125=DIRECTION('',(-2.1350442781253E-16,-1.,0.));
#1126=DIRECTION('',(0.,0.,-1.));
#1127=DIRECTION('',(0.,0.,1.));
#1128=DIRECTION('',(0.,0.,1.));
#1129=DIRECTION('',(1.,0.,0.));
#1130=DIRECTION('',(-2.1350442781253E-16,-1.,0.));
#1131=DIRECTION('',(1.,-2.1350442781253E-16,0.));
#1132=DIRECTION('',(1.,-2.1350442781253E-16,0.));
#1133=DIRECTION('',(1.,0.,0.));
#1134=DIRECTION('',(0.,0.,-1.));
#1135=DIRECTION('',(0.,0.,1.));
#1136=DIRECTION('',(-2.1350442781253E-16,-1.,0.));
#1137=DIRECTION('',(0.,0.,1.));
#1138=DIRECTION('',(0.,0.,1.));
#1139=DIRECTION('',(1.,0.,0.));
#1140=DIRECTION('',(1.,-2.1350442781253E-16,0.));
#1141=DIRECTION('',(-2.1350442781253E-16,-1.,0.));
#1142=DIRECTION('',(1.,-2.1350442781253E-16,0.));
#1143=DIRECTION('',(-1.,2.1350442781253E-16,0.));
#1144=DIRECTION('',(-2.1350442781253E-16,-1.,0.));
#1145=DIRECTION('',(0.,0.,1.));
#1146=DIRECTION('',(0.,0.,1.));
#1147=DIRECTION('',(-1.,0.,0.));
#1148=DIRECTION('',(0.,0.,1.));
#1149=DIRECTION('',(0.,-1.,0.));
#1150=DIRECTION('',(0.,0.,-1.));
#1151=DIRECTION('',(0.,-1.,0.));
#1152=DIRECTION('',(0.,0.,-1.));
#1153=DIRECTION('',(0.,0.,1.));
#1154=DIRECTION('',(1.,0.,0.));
#1155=DIRECTION('',(0.,-1.,0.));
#1156=DIRECTION('',(-1.,0.,0.));
#1157=DIRECTION('',(-1.,0.,0.));
#1158=DIRECTION('',(1.,0.,0.));
#1159=DIRECTION('',(0.,0.,-1.));
#1160=DIRECTION('',(0.,-1.,0.));
#1161=DIRECTION('',(0.,0.,1.));
#1162=DIRECTION('',(0.,0.,1.));
#1163=DIRECTION('',(0.,-1.,0.));
#1164=DIRECTION('',(0.,0.,-1.));
#1165=DIRECTION('',(0.,-1.,0.));
#1166=DIRECTION('',(0.,0.,-1.));
#1167=DIRECTION('',(0.,-1.,0.));
#1168=DIRECTION('',(0.,0.,-1.));
#1169=DIRECTION('',(1.,0.,0.));
#1170=DIRECTION('',(0.,0.,-1.));
#1171=DIRECTION('',(-1.,0.,0.));
#1172=DIRECTION('',(1.,0.,0.));
#1173=DIRECTION('',(0.,-1.,0.));
#1174=DIRECTION('',(0.,0.,-1.));
#1175=DIRECTION('',(0.,-1.,0.));
#1176=DIRECTION('',(0.,0.,-1.));
#1177=DIRECTION('',(0.,-1.,0.));
#1178=DIRECTION('',(0.,0.,-1.));
#1179=DIRECTION('',(-3.85185988877447E-34,1.,6.93889390390723E-18));
#1180=DIRECTION('',(0.,-6.93889390390723E-18,1.));
#1181=DIRECTION('',(-3.85185988877447E-34,1.,6.93889390390723E-18));
#1182=DIRECTION('',(0.,-6.93889390390723E-18,1.));
#1183=CARTESIAN_POINT('',(0.,0.,0.));
#1184=CARTESIAN_POINT('',(0.065,-0.1165,-0.00525));
#1185=CARTESIAN_POINT('',(0.068,-0.1165,-0.00525));
#1186=CARTESIAN_POINT('',(0.068,-0.115,-0.00525));
#1187=CARTESIAN_POINT('',(0.068,-0.118,-0.00525));
#1188=CARTESIAN_POINT('',(0.065,-0.118,-0.00525));
#1189=CARTESIAN_POINT('',(0.065,-0.118,-0.00525));
#1190=CARTESIAN_POINT('',(0.065,-0.1165,-0.00525));
#1191=CARTESIAN_POINT('',(0.065,-0.115,-0.00525));
#1192=CARTESIAN_POINT('',(0.065,-0.115,-0.00525));
#1193=CARTESIAN_POINT('',(0.068,-0.11,-0.05));
#1194=CARTESIAN_POINT('',(0.068,-0.115,-0.05));
#1195=CARTESIAN_POINT('',(0.068,-0.115,0.));
#1196=CARTESIAN_POINT('',(0.068,-0.11,0.));
#1197=CARTESIAN_POINT('',(0.068,-0.118,0.));
#1198=CARTESIAN_POINT('',(0.068,-0.118,-0.05));
#1199=CARTESIAN_POINT('',(0.,-0.0915,0.));
#1200=CARTESIAN_POINT('',(0.,-0.115,0.));
#1201=CARTESIAN_POINT('',(-0.02,-0.115,0.));
#1202=CARTESIAN_POINT('',(-0.02,-0.115,0.));
#1203=CARTESIAN_POINT('',(-0.02,-0.118,0.));
#1204=CARTESIAN_POINT('',(-1.38777878078145E-17,-0.118,0.));
#1205=CARTESIAN_POINT('',(-0.02,-0.115,0.0015));
#1206=CARTESIAN_POINT('',(-0.02,-0.118,0.0015));
#1207=CARTESIAN_POINT('',(-0.02,-0.118,0.003));
#1208=CARTESIAN_POINT('',(-0.02,-0.115,0.0015));
#1209=CARTESIAN_POINT('',(-0.02,-0.115,0.003));
#1210=CARTESIAN_POINT('',(-0.02,-0.115,0.003));
#1211=CARTESIAN_POINT('',(-1.38777878078145E-17,-0.115,0.003));
#1212=CARTESIAN_POINT('',(-1.38777878078145E-17,-0.118,0.003));
#1213=CARTESIAN_POINT('',(-0.04,-0.118,0.003));
#1214=CARTESIAN_POINT('',(-1.38777878078145E-17,-0.115,0.003));
#1215=CARTESIAN_POINT('',(-0.04,-0.115,0.003));
#1216=CARTESIAN_POINT('',(-0.04,-0.115,0.003));
#1217=CARTESIAN_POINT('',(-0.04,-0.115,0.0015));
#1218=CARTESIAN_POINT('',(-0.04,-0.118,0.0015));
#1219=CARTESIAN_POINT('',(-0.04,-0.118,0.));
#1220=CARTESIAN_POINT('',(-0.04,-0.115,0.0015));
#1221=CARTESIAN_POINT('',(-0.04,-0.115,0.));
#1222=CARTESIAN_POINT('',(-0.04,-0.115,0.));
#1223=CARTESIAN_POINT('',(0.,-0.0915,0.));
#1224=CARTESIAN_POINT('',(0.,-0.115,0.));
#1225=CARTESIAN_POINT('',(-0.068,-0.115,0.));
#1226=CARTESIAN_POINT('',(-0.068,-0.11,0.));
#1227=CARTESIAN_POINT('',(-0.068,-0.118,0.));
#1228=CARTESIAN_POINT('',(-1.38777878078145E-17,-0.118,0.));
#1229=CARTESIAN_POINT('',(-0.068,-0.11,-0.05));
#1230=CARTESIAN_POINT('',(-0.068,-0.115,-0.05));
#1231=CARTESIAN_POINT('',(-0.068,-0.115,-0.00525));
#1232=CARTESIAN_POINT('',(-0.068,-0.1165,-0.00525));
#1233=CARTESIAN_POINT('',(-0.068,-0.118,-0.00525));
#1234=CARTESIAN_POINT('',(-0.068,-0.118,-0.05));
#1235=CARTESIAN_POINT('',(-0.065,-0.1165,-0.00525));
#1236=CARTESIAN_POINT('',(-0.065,-0.115,-0.00525));
#1237=CARTESIAN_POINT('',(-0.065,-0.115,-0.00525));
#1238=CARTESIAN_POINT('',(-0.065,-0.1165,-0.00525));
#1239=CARTESIAN_POINT('',(-0.065,-0.118,-0.00525));
#1240=CARTESIAN_POINT('',(-0.065,-0.118,-0.00525));
#1241=CARTESIAN_POINT('',(-0.065,-0.025,-0.0335));
#1242=CARTESIAN_POINT('',(-0.065,-0.1165,-0.02525));
#1243=CARTESIAN_POINT('',(-0.065,-0.115,-0.02525));
#1244=CARTESIAN_POINT('',(-0.065,-0.118,-0.02525));
#1245=CARTESIAN_POINT('',(-0.065,-0.118,-0.02025));
#1246=CARTESIAN_POINT('',(-0.065,-0.115,-0.05));
#1247=CARTESIAN_POINT('',(-0.065,-0.1165,-0.02525));
#1248=CARTESIAN_POINT('',(-0.068,-0.1165,-0.02525));
#1249=CARTESIAN_POINT('',(-0.068,-0.115,-0.02525));
#1250=CARTESIAN_POINT('',(-0.068,-0.118,-0.02525));
#1251=CARTESIAN_POINT('',(-0.065,-0.118,-0.02525));
#1252=CARTESIAN_POINT('',(-0.065,-0.115,-0.02525));
#1253=CARTESIAN_POINT('',(-0.068,-0.11,-0.05));
#1254=CARTESIAN_POINT('',(-0.068,-0.115,-0.05));
#1255=CARTESIAN_POINT('',(-0.068,-0.115,-0.04175));
#1256=CARTESIAN_POINT('',(-0.068,-0.1165,-0.04175));
#1257=CARTESIAN_POINT('',(-0.068,-0.118,-0.04175));
#1258=CARTESIAN_POINT('',(-0.068,-0.118,-0.05));
#1259=CARTESIAN_POINT('',(-0.065,-0.1165,-0.04175));
#1260=CARTESIAN_POINT('',(-0.065,-0.115,-0.04175));
#1261=CARTESIAN_POINT('',(-0.065,-0.115,-0.04175));
#1262=CARTESIAN_POINT('',(-0.065,-0.1165,-0.04175));
#1263=CARTESIAN_POINT('',(-0.065,-0.118,-0.04175));
#1264=CARTESIAN_POINT('',(-0.065,-0.118,-0.04175));
#1265=CARTESIAN_POINT('',(-0.065,-0.025,-0.0335));
#1266=CARTESIAN_POINT('',(-0.065,-0.115,-0.05));
#1267=CARTESIAN_POINT('',(-0.065,-0.115,-0.06175));
#1268=CARTESIAN_POINT('',(-0.065,-0.1165,-0.06175));
#1269=CARTESIAN_POINT('',(-0.065,-0.118,-0.06175));
#1270=CARTESIAN_POINT('',(-0.065,-0.118,-0.05675));
#1271=CARTESIAN_POINT('',(-0.065,-0.1165,-0.06175));
#1272=CARTESIAN_POINT('',(-0.068,-0.1165,-0.06175));
#1273=CARTESIAN_POINT('',(-0.068,-0.115,-0.06175));
#1274=CARTESIAN_POINT('',(-0.068,-0.118,-0.06175));
#1275=CARTESIAN_POINT('',(-0.065,-0.118,-0.06175));
#1276=CARTESIAN_POINT('',(-0.065,-0.115,-0.06175));
#1277=CARTESIAN_POINT('',(-0.068,-0.11,-0.05));
#1278=CARTESIAN_POINT('',(-0.068,-0.115,-0.05));
#1279=CARTESIAN_POINT('',(-0.068,-0.115,-0.067));
#1280=CARTESIAN_POINT('',(-0.068,-0.025,-0.067));
#1281=CARTESIAN_POINT('',(-0.068,-0.118,-0.067));
#1282=CARTESIAN_POINT('',(-0.068,-0.118,-0.05));
#1283=CARTESIAN_POINT('',(0.,-0.025,-0.067));
#1284=CARTESIAN_POINT('',(0.,-0.115,-0.067));
#1285=CARTESIAN_POINT('',(-0.052,-0.115,-0.067));
#1286=CARTESIAN_POINT('',(-0.052,-0.115,-0.067));
#1287=CARTESIAN_POINT('',(-0.052,-0.118,-0.067));
#1288=CARTESIAN_POINT('',(0.,-0.118,-0.067));
#1289=CARTESIAN_POINT('',(-0.052,-0.115,-0.067));
#1290=CARTESIAN_POINT('',(-0.052,-0.115,-0.05));
#1291=CARTESIAN_POINT('',(-0.052,-0.115,-0.07));
#1292=CARTESIAN_POINT('',(-0.052,-0.115,-0.07));
#1293=CARTESIAN_POINT('',(-0.052,-0.118,-0.07));
#1294=CARTESIAN_POINT('',(-0.052,-0.118,-0.067));
#1295=CARTESIAN_POINT('',(0.,-0.0915,-0.07));
#1296=CARTESIAN_POINT('',(-1.38777878078145E-17,-0.118,-0.07));
#1297=CARTESIAN_POINT('',(-0.032,-0.118,-0.07));
#1298=CARTESIAN_POINT('',(0.,-0.115,-0.07));
#1299=CARTESIAN_POINT('',(-0.032,-0.115,-0.07));
#1300=CARTESIAN_POINT('',(-0.032,-0.115,-0.07));
#1301=CARTESIAN_POINT('',(-0.032,-0.115,-0.067));
#1302=CARTESIAN_POINT('',(-0.032,-0.115,-0.067));
#1303=CARTESIAN_POINT('',(-0.032,-0.118,-0.067));
#1304=CARTESIAN_POINT('',(-0.032,-0.115,-0.067));
#1305=CARTESIAN_POINT('',(-0.032,-0.118,-0.067));
#1306=CARTESIAN_POINT('',(-0.032,-0.115,-0.05));
#1307=CARTESIAN_POINT('',(0.,-0.025,-0.067));
#1308=CARTESIAN_POINT('',(0.,-0.115,-0.067));
#1309=CARTESIAN_POINT('',(-0.01,-0.115,-0.067));
#1310=CARTESIAN_POINT('',(-0.01,-0.115,-0.067));
#1311=CARTESIAN_POINT('',(-0.01,-0.118,-0.067));
#1312=CARTESIAN_POINT('',(0.,-0.118,-0.067));
#1313=CARTESIAN_POINT('',(-0.01,-0.115,-0.067));
#1314=CARTESIAN_POINT('',(-0.01,-0.115,-0.07));
#1315=CARTESIAN_POINT('',(-0.01,-0.115,-0.07));
#1316=CARTESIAN_POINT('',(-0.01,-0.118,-0.07));
#1317=CARTESIAN_POINT('',(-0.01,-0.118,-0.067));
#1318=CARTESIAN_POINT('',(-0.01,-0.115,-0.05));
#1319=CARTESIAN_POINT('',(0.,-0.0915,-0.07));
#1320=CARTESIAN_POINT('',(0.,-0.115,-0.07));
#1321=CARTESIAN_POINT('',(0.01,-0.115,-0.07));
#1322=CARTESIAN_POINT('',(0.01,-0.115,-0.07));
#1323=CARTESIAN_POINT('',(0.01,-0.118,-0.07));
#1324=CARTESIAN_POINT('',(-1.38777878078145E-17,-0.118,-0.07));
#1325=CARTESIAN_POINT('',(0.01,-0.115,-0.067));
#1326=CARTESIAN_POINT('',(0.01,-0.115,-0.05));
#1327=CARTESIAN_POINT('',(0.01,-0.115,-0.067));
#1328=CARTESIAN_POINT('',(0.01,-0.115,-0.067));
#1329=CARTESIAN_POINT('',(0.01,-0.118,-0.067));
#1330=CARTESIAN_POINT('',(0.01,-0.118,-0.067));
#1331=CARTESIAN_POINT('',(0.,-0.025,-0.067));
#1332=CARTESIAN_POINT('',(0.,-0.115,-0.067));
#1333=CARTESIAN_POINT('',(0.032,-0.115,-0.067));
#1334=CARTESIAN_POINT('',(0.032,-0.115,-0.067));
#1335=CARTESIAN_POINT('',(0.032,-0.118,-0.067));
#1336=CARTESIAN_POINT('',(0.,-0.118,-0.067));
#1337=CARTESIAN_POINT('',(0.032,-0.115,-0.067));
#1338=CARTESIAN_POINT('',(0.032,-0.115,-0.05));
#1339=CARTESIAN_POINT('',(0.032,-0.115,-0.07));
#1340=CARTESIAN_POINT('',(0.032,-0.115,-0.07));
#1341=CARTESIAN_POINT('',(0.032,-0.118,-0.07));
#1342=CARTESIAN_POINT('',(0.032,-0.118,-0.067));
#1343=CARTESIAN_POINT('',(0.,-0.0915,-0.07));
#1344=CARTESIAN_POINT('',(0.052,-0.115,-0.07));
#1345=CARTESIAN_POINT('',(0.052,-0.118,-0.07));
#1346=CARTESIAN_POINT('',(0.052,-0.115,-0.07));
#1347=CARTESIAN_POINT('',(-1.38777878078145E-17,-0.118,-0.07));
#1348=CARTESIAN_POINT('',(0.,-0.115,-0.07));
#1349=CARTESIAN_POINT('',(0.052,-0.115,-0.067));
#1350=CARTESIAN_POINT('',(0.052,-0.115,-0.067));
#1351=CARTESIAN_POINT('',(0.052,-0.118,-0.067));
#1352=CARTESIAN_POINT('',(0.052,-0.115,-0.067));
#1353=CARTESIAN_POINT('',(0.052,-0.118,-0.067));
#1354=CARTESIAN_POINT('',(0.052,-0.115,-0.05));
#1355=CARTESIAN_POINT('',(0.,-0.025,-0.067));
#1356=CARTESIAN_POINT('',(0.,-0.115,-0.067));
#1357=CARTESIAN_POINT('',(0.068,-0.115,-0.067));
#1358=CARTESIAN_POINT('',(0.068,-0.025,-0.067));
#1359=CARTESIAN_POINT('',(0.068,-0.118,-0.067));
#1360=CARTESIAN_POINT('',(0.,-0.118,-0.067));
#1361=CARTESIAN_POINT('',(0.068,-0.11,-0.05));
#1362=CARTESIAN_POINT('',(0.068,-0.115,-0.05));
#1363=CARTESIAN_POINT('',(0.068,-0.115,-0.06175));
#1364=CARTESIAN_POINT('',(0.068,-0.1165,-0.06175));
#1365=CARTESIAN_POINT('',(0.068,-0.118,-0.06175));
#1366=CARTESIAN_POINT('',(0.068,-0.118,-0.05));
#1367=CARTESIAN_POINT('',(0.065,-0.1165,-0.06175));
#1368=CARTESIAN_POINT('',(0.065,-0.115,-0.06175));
#1369=CARTESIAN_POINT('',(0.065,-0.115,-0.06175));
#1370=CARTESIAN_POINT('',(0.065,-0.1165,-0.06175));
#1371=CARTESIAN_POINT('',(0.065,-0.118,-0.06175));
#1372=CARTESIAN_POINT('',(0.065,-0.118,-0.06175));
#1373=CARTESIAN_POINT('',(0.065,9.62964972193618E-35,-0.05));
#1374=CARTESIAN_POINT('',(0.065,-0.1165,-0.04175));
#1375=CARTESIAN_POINT('',(0.065,-0.115,-0.04175));
#1376=CARTESIAN_POINT('',(0.065,-0.118,-0.04175));
#1377=CARTESIAN_POINT('',(0.065,-0.118,-0.05675));
#1378=CARTESIAN_POINT('',(0.065,-0.115,-0.05));
#1379=CARTESIAN_POINT('',(0.065,-0.1165,-0.04175));
#1380=CARTESIAN_POINT('',(0.068,-0.1165,-0.04175));
#1381=CARTESIAN_POINT('',(0.068,-0.115,-0.04175));
#1382=CARTESIAN_POINT('',(0.068,-0.118,-0.04175));
#1383=CARTESIAN_POINT('',(0.065,-0.118,-0.04175));
#1384=CARTESIAN_POINT('',(0.065,-0.115,-0.04175));
#1385=CARTESIAN_POINT('',(0.068,-0.11,-0.05));
#1386=CARTESIAN_POINT('',(0.068,-0.115,-0.05));
#1387=CARTESIAN_POINT('',(0.068,-0.115,-0.02525));
#1388=CARTESIAN_POINT('',(0.068,-0.1165,-0.02525));
#1389=CARTESIAN_POINT('',(0.068,-0.118,-0.02525));
#1390=CARTESIAN_POINT('',(0.068,-0.118,-0.05));
#1391=CARTESIAN_POINT('',(0.065,-0.1165,-0.02525));
#1392=CARTESIAN_POINT('',(0.065,-0.115,-0.02525));
#1393=CARTESIAN_POINT('',(0.065,-0.115,-0.02525));
#1394=CARTESIAN_POINT('',(0.065,-0.1165,-0.02525));
#1395=CARTESIAN_POINT('',(0.065,-0.118,-0.02525));
#1396=CARTESIAN_POINT('',(0.065,-0.118,-0.02525));
#1397=CARTESIAN_POINT('',(0.065,9.62964972193618E-35,-0.05));
#1398=CARTESIAN_POINT('',(0.065,-0.115,-0.05));
#1399=CARTESIAN_POINT('',(0.065,-0.118,-0.02025));
#1400=CARTESIAN_POINT('',(-0.0566804587859144,-0.093,-0.0257901959659675));
#1401=CARTESIAN_POINT('',(-0.0566804587859144,-0.093,-0.00430534988113411));
#1402=CARTESIAN_POINT('',(-0.0566804587859144,-0.115,-0.00430534988113411));
#1403=CARTESIAN_POINT('',(-0.0566804587859144,-0.118,-0.00430534988113411));
#1404=CARTESIAN_POINT('',(-0.0566804587859144,-0.118,-0.0257901959659675));
#1405=CARTESIAN_POINT('',(-0.0566804587859144,-0.118,-0.0472750420508008));
#1406=CARTESIAN_POINT('',(-0.0566804587859144,-0.093,-0.0472750420508008));
#1407=CARTESIAN_POINT('',(-0.0566804587859144,-0.115,-0.0472750420508008));
#1408=CARTESIAN_POINT('',(-0.0566804587859144,-0.115,-0.05));
#1409=CARTESIAN_POINT('',(-0.0553402293929572,-0.093,-0.00430534988113411));
#1410=CARTESIAN_POINT('',(0.0450024479396568,-0.093,-0.00430534988113411));
#1411=CARTESIAN_POINT('',(0.0450024479396568,-0.115,-0.00430534988113411));
#1412=CARTESIAN_POINT('',(0.0450024479396568,-0.118,-0.00430534988113411));
#1413=CARTESIAN_POINT('',(-0.0553402293929572,-0.118,-0.00430534988113411));
#1414=CARTESIAN_POINT('',(0.,-0.115,-0.00430534988113411));
#1415=CARTESIAN_POINT('',(0.0450024479396568,-0.093,-0.0257901959659675));
#1416=CARTESIAN_POINT('',(0.0450024479396568,-0.093,-0.0472750420508008));
#1417=CARTESIAN_POINT('',(0.0450024479396568,-0.115,-0.0472750420508008));
#1418=CARTESIAN_POINT('',(0.0450024479396568,-0.118,-0.0472750420508008));
#1419=CARTESIAN_POINT('',(0.0450024479396568,-0.118,-0.0257901959659675));
#1420=CARTESIAN_POINT('',(0.0450024479396568,-0.115,-0.05));
#1421=CARTESIAN_POINT('',(-1.38777878078145E-17,-0.118,-0.05));
#1422=CARTESIAN_POINT('',(0.05555,-0.118,-0.05793));
#1423=CARTESIAN_POINT('',(0.05555,-0.118,-0.06068));
#1424=CARTESIAN_POINT('',(-0.05556,-0.118,-0.05793));
#1425=CARTESIAN_POINT('',(-0.05556,-0.118,-0.06068));
#1426=CARTESIAN_POINT('',(-0.00449877603017162,-0.118,-0.0472750420508008));
#1427=CARTESIAN_POINT('',(-0.00449877603017162,-0.093,-0.0472750420508008));
#1428=CARTESIAN_POINT('',(0.,-0.115,-0.0472750420508008));
#1429=CARTESIAN_POINT('',(0.,-0.115,-0.05));
#1430=CARTESIAN_POINT('',(0.05555,-0.115,-0.05793));
#1431=CARTESIAN_POINT('',(0.05555,-0.115,-0.06068));
#1432=CARTESIAN_POINT('',(-0.05556,-0.115,-0.05793));
#1433=CARTESIAN_POINT('',(-0.05556,-0.115,-0.06068));
#1434=CARTESIAN_POINT('',(-0.05556,-0.139,-0.05793));
#1435=CARTESIAN_POINT('',(0.05555,-0.139,-0.05793));
#1436=MECHANICAL_DESIGN_GEOMETRIC_PRESENTATION_REPRESENTATION('',(#905),
#1437);
#1437=(
GEOMETRIC_REPRESENTATION_CONTEXT(3)
GLOBAL_UNCERTAINTY_ASSIGNED_CONTEXT((#1438))
GLOBAL_UNIT_ASSIGNED_CONTEXT((#1441,#1440,#1439))
REPRESENTATION_CONTEXT('Part 132','TOP_LEVEL_ASSEMBLY_PART')
);
#1438=UNCERTAINTY_MEASURE_WITH_UNIT(LENGTH_MEASURE(1.E-8),#1441,
'DISTANCE_ACCURACY_VALUE','Maximum Tolerance applied to model');
#1439=(
NAMED_UNIT(*)
SI_UNIT($,.STERADIAN.)
SOLID_ANGLE_UNIT()
);
#1440=(
NAMED_UNIT(*)
PLANE_ANGLE_UNIT()
SI_UNIT($,.RADIAN.)
);
#1441=(
LENGTH_UNIT()
NAMED_UNIT(*)
SI_UNIT($,.METRE.)
);
#1442=PRODUCT_DEFINITION_SHAPE('','',#1443);
#1443=PRODUCT_DEFINITION('','',#1445,#1444);
#1444=PRODUCT_DEFINITION_CONTEXT('',#1451,'design');
#1445=PRODUCT_DEFINITION_FORMATION_WITH_SPECIFIED_SOURCE('','',#1447,
 .NOT_KNOWN.);
#1446=PRODUCT_RELATED_PRODUCT_CATEGORY('','',(#1447));
#1447=PRODUCT('Part 132','Part 132','Part 132',(#1449));
#1448=PRODUCT_CATEGORY('','');
#1449=PRODUCT_CONTEXT('',#1451,'mechanical');
#1450=APPLICATION_PROTOCOL_DEFINITION('international standard',
'ap242_managed_model_based_3d_engineering',2020,#1451);
#1451=APPLICATION_CONTEXT('managed model based 3d engineering');
ENDSEC;
END-ISO-10303-21;
