ISO-10303-21;
HEADER;
/* Generated by software containing ST-Developer
 * from STEP Tools, Inc. (www.steptools.com) 
 */
/* OPTION: using custom renumber hook */

FILE_DESCRIPTION(
/* description */ ('STEP AP242 Edition 2',
'CAx-IF Rec.Pracs.---Representation and Presentation of Product Manufa
cturing Information (PMI)---4.0---2014-10-13',
'CAx-IF Rec.Pracs.---3D Tessellated Geometry---0.4---2014-09-14','2;1',
'CAx-IF Rec.Pracs.---User Defined Attributes---1.5---2016-08-15'),
/* implementation_level */ '2;1');

FILE_NAME(
/* name */ 'v2 - Part 120',
/* time_stamp */ '2026-07-31T04:42:52Z',
/* author */ (''),
/* organization */ (''),
/* preprocessor_version */ 'ST-DEVELOPER v20',
/* originating_system */ 'ONSHAPE BY PTC INC, 1.218',
/* authorisation */ '  ');

FILE_SCHEMA (('AP242_MANAGED_MODEL_BASED_3D_ENGINEERING_MIM_LF { 1 0 10303 442 3 1 4 }'));
ENDSEC;

DATA;
#10=SHAPE_REPRESENTATION_RELATIONSHIP('','',#705,#11);
#11=ADVANCED_BREP_SHAPE_REPRESENTATION('',(#703),#1111);
#12=CYLINDRICAL_SURFACE('',#742,0.00275);
#13=CYLINDRICAL_SURFACE('',#743,0.00275);
#14=CYLINDRICAL_SURFACE('',#744,0.00275);
#15=CYLINDRICAL_SURFACE('',#745,0.00275);
#16=CIRCLE('',#709,0.00275);
#17=CIRCLE('',#710,0.00275);
#18=CIRCLE('',#711,0.00275);
#19=CIRCLE('',#712,0.00275);
#20=CIRCLE('',#714,0.00275);
#21=CIRCLE('',#715,0.00275);
#22=CIRCLE('',#716,0.00275);
#23=CIRCLE('',#717,0.00275);
#24=ORIENTED_EDGE('',*,*,#208,.F.);
#25=ORIENTED_EDGE('',*,*,#209,.T.);
#26=ORIENTED_EDGE('',*,*,#210,.F.);
#27=ORIENTED_EDGE('',*,*,#211,.F.);
#28=ORIENTED_EDGE('',*,*,#212,.T.);
#29=ORIENTED_EDGE('',*,*,#213,.T.);
#30=ORIENTED_EDGE('',*,*,#214,.T.);
#31=ORIENTED_EDGE('',*,*,#215,.T.);
#32=ORIENTED_EDGE('',*,*,#216,.F.);
#33=ORIENTED_EDGE('',*,*,#217,.T.);
#34=ORIENTED_EDGE('',*,*,#218,.T.);
#35=ORIENTED_EDGE('',*,*,#219,.F.);
#36=ORIENTED_EDGE('',*,*,#220,.F.);
#37=ORIENTED_EDGE('',*,*,#221,.T.);
#38=ORIENTED_EDGE('',*,*,#222,.T.);
#39=ORIENTED_EDGE('',*,*,#223,.F.);
#40=ORIENTED_EDGE('',*,*,#224,.F.);
#41=ORIENTED_EDGE('',*,*,#225,.T.);
#42=ORIENTED_EDGE('',*,*,#226,.T.);
#43=ORIENTED_EDGE('',*,*,#227,.F.);
#44=ORIENTED_EDGE('',*,*,#228,.T.);
#45=ORIENTED_EDGE('',*,*,#229,.F.);
#46=ORIENTED_EDGE('',*,*,#230,.F.);
#47=ORIENTED_EDGE('',*,*,#231,.F.);
#48=ORIENTED_EDGE('',*,*,#232,.F.);
#49=ORIENTED_EDGE('',*,*,#233,.F.);
#50=ORIENTED_EDGE('',*,*,#234,.T.);
#51=ORIENTED_EDGE('',*,*,#235,.T.);
#52=ORIENTED_EDGE('',*,*,#236,.F.);
#53=ORIENTED_EDGE('',*,*,#237,.F.);
#54=ORIENTED_EDGE('',*,*,#238,.T.);
#55=ORIENTED_EDGE('',*,*,#239,.T.);
#56=ORIENTED_EDGE('',*,*,#240,.F.);
#57=ORIENTED_EDGE('',*,*,#241,.T.);
#58=ORIENTED_EDGE('',*,*,#242,.T.);
#59=ORIENTED_EDGE('',*,*,#208,.T.);
#60=ORIENTED_EDGE('',*,*,#243,.F.);
#61=ORIENTED_EDGE('',*,*,#210,.T.);
#62=ORIENTED_EDGE('',*,*,#244,.T.);
#63=ORIENTED_EDGE('',*,*,#245,.T.);
#64=ORIENTED_EDGE('',*,*,#246,.F.);
#65=ORIENTED_EDGE('',*,*,#247,.F.);
#66=ORIENTED_EDGE('',*,*,#248,.F.);
#67=ORIENTED_EDGE('',*,*,#249,.T.);
#68=ORIENTED_EDGE('',*,*,#250,.T.);
#69=ORIENTED_EDGE('',*,*,#251,.F.);
#70=ORIENTED_EDGE('',*,*,#252,.T.);
#71=ORIENTED_EDGE('',*,*,#253,.T.);
#72=ORIENTED_EDGE('',*,*,#254,.T.);
#73=ORIENTED_EDGE('',*,*,#255,.T.);
#74=ORIENTED_EDGE('',*,*,#256,.T.);
#75=ORIENTED_EDGE('',*,*,#257,.T.);
#76=ORIENTED_EDGE('',*,*,#258,.F.);
#77=ORIENTED_EDGE('',*,*,#259,.T.);
#78=ORIENTED_EDGE('',*,*,#260,.F.);
#79=ORIENTED_EDGE('',*,*,#261,.F.);
#80=ORIENTED_EDGE('',*,*,#262,.F.);
#81=ORIENTED_EDGE('',*,*,#263,.T.);
#82=ORIENTED_EDGE('',*,*,#264,.F.);
#83=ORIENTED_EDGE('',*,*,#265,.F.);
#84=ORIENTED_EDGE('',*,*,#266,.T.);
#85=ORIENTED_EDGE('',*,*,#267,.T.);
#86=ORIENTED_EDGE('',*,*,#268,.F.);
#87=ORIENTED_EDGE('',*,*,#269,.F.);
#88=ORIENTED_EDGE('',*,*,#270,.T.);
#89=ORIENTED_EDGE('',*,*,#271,.F.);
#90=ORIENTED_EDGE('',*,*,#272,.F.);
#91=ORIENTED_EDGE('',*,*,#273,.F.);
#92=ORIENTED_EDGE('',*,*,#250,.F.);
#93=ORIENTED_EDGE('',*,*,#274,.T.);
#94=ORIENTED_EDGE('',*,*,#236,.T.);
#95=ORIENTED_EDGE('',*,*,#275,.F.);
#96=ORIENTED_EDGE('',*,*,#254,.F.);
#97=ORIENTED_EDGE('',*,*,#276,.T.);
#98=ORIENTED_EDGE('',*,*,#232,.T.);
#99=ORIENTED_EDGE('',*,*,#277,.F.);
#100=ORIENTED_EDGE('',*,*,#278,.F.);
#101=ORIENTED_EDGE('',*,*,#264,.T.);
#102=ORIENTED_EDGE('',*,*,#279,.T.);
#103=ORIENTED_EDGE('',*,*,#222,.F.);
#104=ORIENTED_EDGE('',*,*,#280,.F.);
#105=ORIENTED_EDGE('',*,*,#260,.T.);
#106=ORIENTED_EDGE('',*,*,#281,.T.);
#107=ORIENTED_EDGE('',*,*,#226,.F.);
#108=ORIENTED_EDGE('',*,*,#282,.F.);
#109=ORIENTED_EDGE('',*,*,#227,.T.);
#110=ORIENTED_EDGE('',*,*,#281,.F.);
#111=ORIENTED_EDGE('',*,*,#259,.F.);
#112=ORIENTED_EDGE('',*,*,#283,.F.);
#113=ORIENTED_EDGE('',*,*,#270,.F.);
#114=ORIENTED_EDGE('',*,*,#284,.T.);
#115=ORIENTED_EDGE('',*,*,#216,.T.);
#116=ORIENTED_EDGE('',*,*,#268,.T.);
#117=ORIENTED_EDGE('',*,*,#285,.T.);
#118=ORIENTED_EDGE('',*,*,#218,.F.);
#119=ORIENTED_EDGE('',*,*,#286,.F.);
#120=ORIENTED_EDGE('',*,*,#217,.F.);
#121=ORIENTED_EDGE('',*,*,#284,.F.);
#122=ORIENTED_EDGE('',*,*,#269,.T.);
#123=ORIENTED_EDGE('',*,*,#286,.T.);
#124=ORIENTED_EDGE('',*,*,#231,.T.);
#125=ORIENTED_EDGE('',*,*,#287,.T.);
#126=ORIENTED_EDGE('',*,*,#255,.F.);
#127=ORIENTED_EDGE('',*,*,#277,.T.);
#128=ORIENTED_EDGE('',*,*,#256,.F.);
#129=ORIENTED_EDGE('',*,*,#287,.F.);
#130=ORIENTED_EDGE('',*,*,#230,.T.);
#131=ORIENTED_EDGE('',*,*,#288,.T.);
#132=ORIENTED_EDGE('',*,*,#257,.F.);
#133=ORIENTED_EDGE('',*,*,#288,.F.);
#134=ORIENTED_EDGE('',*,*,#229,.T.);
#135=ORIENTED_EDGE('',*,*,#289,.T.);
#136=ORIENTED_EDGE('',*,*,#258,.T.);
#137=ORIENTED_EDGE('',*,*,#289,.F.);
#138=ORIENTED_EDGE('',*,*,#228,.F.);
#139=ORIENTED_EDGE('',*,*,#282,.T.);
#140=ORIENTED_EDGE('',*,*,#279,.F.);
#141=ORIENTED_EDGE('',*,*,#263,.F.);
#142=ORIENTED_EDGE('',*,*,#290,.T.);
#143=ORIENTED_EDGE('',*,*,#223,.T.);
#144=ORIENTED_EDGE('',*,*,#280,.T.);
#145=ORIENTED_EDGE('',*,*,#225,.F.);
#146=ORIENTED_EDGE('',*,*,#291,.F.);
#147=ORIENTED_EDGE('',*,*,#261,.T.);
#148=ORIENTED_EDGE('',*,*,#290,.F.);
#149=ORIENTED_EDGE('',*,*,#262,.T.);
#150=ORIENTED_EDGE('',*,*,#291,.T.);
#151=ORIENTED_EDGE('',*,*,#224,.T.);
#152=ORIENTED_EDGE('',*,*,#285,.F.);
#153=ORIENTED_EDGE('',*,*,#267,.F.);
#154=ORIENTED_EDGE('',*,*,#292,.T.);
#155=ORIENTED_EDGE('',*,*,#219,.T.);
#156=ORIENTED_EDGE('',*,*,#278,.T.);
#157=ORIENTED_EDGE('',*,*,#221,.F.);
#158=ORIENTED_EDGE('',*,*,#293,.F.);
#159=ORIENTED_EDGE('',*,*,#265,.T.);
#160=ORIENTED_EDGE('',*,*,#292,.F.);
#161=ORIENTED_EDGE('',*,*,#266,.F.);
#162=ORIENTED_EDGE('',*,*,#293,.T.);
#163=ORIENTED_EDGE('',*,*,#220,.T.);
#164=ORIENTED_EDGE('',*,*,#275,.T.);
#165=ORIENTED_EDGE('',*,*,#235,.F.);
#166=ORIENTED_EDGE('',*,*,#294,.F.);
#167=ORIENTED_EDGE('',*,*,#251,.T.);
#168=ORIENTED_EDGE('',*,*,#276,.F.);
#169=ORIENTED_EDGE('',*,*,#253,.F.);
#170=ORIENTED_EDGE('',*,*,#295,.T.);
#171=ORIENTED_EDGE('',*,*,#233,.T.);
#172=ORIENTED_EDGE('',*,*,#252,.F.);
#173=ORIENTED_EDGE('',*,*,#294,.T.);
#174=ORIENTED_EDGE('',*,*,#234,.F.);
#175=ORIENTED_EDGE('',*,*,#295,.F.);
#176=ORIENTED_EDGE('',*,*,#283,.T.);
#177=ORIENTED_EDGE('',*,*,#215,.F.);
#178=ORIENTED_EDGE('',*,*,#296,.F.);
#179=ORIENTED_EDGE('',*,*,#271,.T.);
#180=ORIENTED_EDGE('',*,*,#274,.F.);
#181=ORIENTED_EDGE('',*,*,#249,.F.);
#182=ORIENTED_EDGE('',*,*,#297,.T.);
#183=ORIENTED_EDGE('',*,*,#237,.T.);
#184=ORIENTED_EDGE('',*,*,#248,.T.);
#185=ORIENTED_EDGE('',*,*,#296,.T.);
#186=ORIENTED_EDGE('',*,*,#214,.F.);
#187=ORIENTED_EDGE('',*,*,#297,.F.);
#188=ORIENTED_EDGE('',*,*,#213,.F.);
#189=ORIENTED_EDGE('',*,*,#247,.T.);
#190=ORIENTED_EDGE('',*,*,#238,.F.);
#191=ORIENTED_EDGE('',*,*,#272,.T.);
#192=ORIENTED_EDGE('',*,*,#212,.F.);
#193=ORIENTED_EDGE('',*,*,#246,.T.);
#194=ORIENTED_EDGE('',*,*,#239,.F.);
#195=ORIENTED_EDGE('',*,*,#273,.T.);
#196=ORIENTED_EDGE('',*,*,#298,.F.);
#197=ORIENTED_EDGE('',*,*,#241,.F.);
#198=ORIENTED_EDGE('',*,*,#299,.T.);
#199=ORIENTED_EDGE('',*,*,#245,.F.);
#200=ORIENTED_EDGE('',*,*,#240,.T.);
#201=ORIENTED_EDGE('',*,*,#211,.T.);
#202=ORIENTED_EDGE('',*,*,#243,.T.);
#203=ORIENTED_EDGE('',*,*,#299,.F.);
#204=ORIENTED_EDGE('',*,*,#298,.T.);
#205=ORIENTED_EDGE('',*,*,#244,.F.);
#206=ORIENTED_EDGE('',*,*,#209,.F.);
#207=ORIENTED_EDGE('',*,*,#242,.F.);
#208=EDGE_CURVE('',#300,#301,#364,.T.);
#209=EDGE_CURVE('',#300,#302,#365,.T.);
#210=EDGE_CURVE('',#303,#302,#366,.T.);
#211=EDGE_CURVE('',#301,#303,#367,.T.);
#212=EDGE_CURVE('',#304,#304,#16,.F.);
#213=EDGE_CURVE('',#305,#305,#17,.F.);
#214=EDGE_CURVE('',#306,#307,#368,.T.);
#215=EDGE_CURVE('',#307,#308,#369,.T.);
#216=EDGE_CURVE('',#309,#308,#370,.T.);
#217=EDGE_CURVE('',#309,#310,#371,.T.);
#218=EDGE_CURVE('',#310,#311,#372,.T.);
#219=EDGE_CURVE('',#312,#311,#373,.T.);
#220=EDGE_CURVE('',#313,#312,#374,.T.);
#221=EDGE_CURVE('',#313,#314,#375,.T.);
#222=EDGE_CURVE('',#314,#315,#376,.T.);
#223=EDGE_CURVE('',#316,#315,#377,.T.);
#224=EDGE_CURVE('',#317,#316,#378,.T.);
#225=EDGE_CURVE('',#317,#318,#379,.T.);
#226=EDGE_CURVE('',#318,#319,#380,.T.);
#227=EDGE_CURVE('',#320,#319,#381,.T.);
#228=EDGE_CURVE('',#320,#321,#382,.T.);
#229=EDGE_CURVE('',#322,#321,#383,.T.);
#230=EDGE_CURVE('',#323,#322,#384,.T.);
#231=EDGE_CURVE('',#324,#323,#385,.T.);
#232=EDGE_CURVE('',#325,#324,#386,.T.);
#233=EDGE_CURVE('',#326,#325,#387,.T.);
#234=EDGE_CURVE('',#326,#327,#388,.T.);
#235=EDGE_CURVE('',#327,#328,#389,.T.);
#236=EDGE_CURVE('',#329,#328,#390,.T.);
#237=EDGE_CURVE('',#306,#329,#391,.T.);
#238=EDGE_CURVE('',#330,#330,#18,.F.);
#239=EDGE_CURVE('',#331,#331,#19,.F.);
#240=EDGE_CURVE('',#332,#301,#392,.T.);
#241=EDGE_CURVE('',#332,#333,#393,.T.);
#242=EDGE_CURVE('',#333,#300,#394,.T.);
#243=EDGE_CURVE('',#303,#334,#395,.T.);
#244=EDGE_CURVE('',#302,#335,#396,.T.);
#245=EDGE_CURVE('',#335,#334,#397,.T.);
#246=EDGE_CURVE('',#336,#336,#20,.F.);
#247=EDGE_CURVE('',#337,#337,#21,.F.);
#248=EDGE_CURVE('',#338,#339,#398,.T.);
#249=EDGE_CURVE('',#338,#340,#399,.T.);
#250=EDGE_CURVE('',#340,#341,#400,.T.);
#251=EDGE_CURVE('',#342,#341,#401,.T.);
#252=EDGE_CURVE('',#342,#343,#402,.T.);
#253=EDGE_CURVE('',#343,#344,#403,.T.);
#254=EDGE_CURVE('',#344,#345,#404,.T.);
#255=EDGE_CURVE('',#345,#346,#405,.T.);
#256=EDGE_CURVE('',#346,#347,#406,.T.);
#257=EDGE_CURVE('',#347,#348,#407,.T.);
#258=EDGE_CURVE('',#349,#348,#408,.T.);
#259=EDGE_CURVE('',#349,#350,#409,.T.);
#260=EDGE_CURVE('',#351,#350,#410,.T.);
#261=EDGE_CURVE('',#352,#351,#411,.T.);
#262=EDGE_CURVE('',#353,#352,#412,.T.);
#263=EDGE_CURVE('',#353,#354,#413,.T.);
#264=EDGE_CURVE('',#355,#354,#414,.T.);
#265=EDGE_CURVE('',#356,#355,#415,.T.);
#266=EDGE_CURVE('',#356,#357,#416,.T.);
#267=EDGE_CURVE('',#357,#358,#417,.T.);
#268=EDGE_CURVE('',#359,#358,#418,.T.);
#269=EDGE_CURVE('',#360,#359,#419,.T.);
#270=EDGE_CURVE('',#360,#361,#420,.T.);
#271=EDGE_CURVE('',#339,#361,#421,.T.);
#272=EDGE_CURVE('',#362,#362,#22,.F.);
#273=EDGE_CURVE('',#363,#363,#23,.F.);
#274=EDGE_CURVE('',#340,#329,#422,.T.);
#275=EDGE_CURVE('',#341,#328,#423,.T.);
#276=EDGE_CURVE('',#344,#325,#424,.T.);
#277=EDGE_CURVE('',#345,#324,#425,.T.);
#278=EDGE_CURVE('',#355,#314,#426,.T.);
#279=EDGE_CURVE('',#354,#315,#427,.T.);
#280=EDGE_CURVE('',#351,#318,#428,.T.);
#281=EDGE_CURVE('',#350,#319,#429,.T.);
#282=EDGE_CURVE('',#320,#349,#430,.T.);
#283=EDGE_CURVE('',#361,#308,#431,.T.);
#284=EDGE_CURVE('',#360,#309,#432,.T.);
#285=EDGE_CURVE('',#358,#311,#433,.T.);
#286=EDGE_CURVE('',#359,#310,#434,.T.);
#287=EDGE_CURVE('',#323,#346,#435,.T.);
#288=EDGE_CURVE('',#322,#347,#436,.T.);
#289=EDGE_CURVE('',#321,#348,#437,.T.);
#290=EDGE_CURVE('',#353,#316,#438,.T.);
#291=EDGE_CURVE('',#352,#317,#439,.T.);
#292=EDGE_CURVE('',#357,#312,#440,.T.);
#293=EDGE_CURVE('',#356,#313,#441,.T.);
#294=EDGE_CURVE('',#342,#327,#442,.T.);
#295=EDGE_CURVE('',#343,#326,#443,.T.);
#296=EDGE_CURVE('',#339,#307,#444,.T.);
#297=EDGE_CURVE('',#338,#306,#445,.T.);
#298=EDGE_CURVE('',#333,#335,#446,.T.);
#299=EDGE_CURVE('',#332,#334,#447,.T.);
#300=VERTEX_POINT('',#922);
#301=VERTEX_POINT('',#923);
#302=VERTEX_POINT('',#925);
#303=VERTEX_POINT('',#927);
#304=VERTEX_POINT('',#931);
#305=VERTEX_POINT('',#933);
#306=VERTEX_POINT('',#935);
#307=VERTEX_POINT('',#936);
#308=VERTEX_POINT('',#938);
#309=VERTEX_POINT('',#940);
#310=VERTEX_POINT('',#942);
#311=VERTEX_POINT('',#944);
#312=VERTEX_POINT('',#946);
#313=VERTEX_POINT('',#948);
#314=VERTEX_POINT('',#950);
#315=VERTEX_POINT('',#952);
#316=VERTEX_POINT('',#954);
#317=VERTEX_POINT('',#956);
#318=VERTEX_POINT('',#958);
#319=VERTEX_POINT('',#960);
#320=VERTEX_POINT('',#962);
#321=VERTEX_POINT('',#964);
#322=VERTEX_POINT('',#966);
#323=VERTEX_POINT('',#968);
#324=VERTEX_POINT('',#970);
#325=VERTEX_POINT('',#972);
#326=VERTEX_POINT('',#974);
#327=VERTEX_POINT('',#976);
#328=VERTEX_POINT('',#978);
#329=VERTEX_POINT('',#980);
#330=VERTEX_POINT('',#983);
#331=VERTEX_POINT('',#985);
#332=VERTEX_POINT('',#987);
#333=VERTEX_POINT('',#989);
#334=VERTEX_POINT('',#993);
#335=VERTEX_POINT('',#995);
#336=VERTEX_POINT('',#998);
#337=VERTEX_POINT('',#1000);
#338=VERTEX_POINT('',#1002);
#339=VERTEX_POINT('',#1003);
#340=VERTEX_POINT('',#1005);
#341=VERTEX_POINT('',#1007);
#342=VERTEX_POINT('',#1009);
#343=VERTEX_POINT('',#1011);
#344=VERTEX_POINT('',#1013);
#345=VERTEX_POINT('',#1015);
#346=VERTEX_POINT('',#1017);
#347=VERTEX_POINT('',#1019);
#348=VERTEX_POINT('',#1021);
#349=VERTEX_POINT('',#1023);
#350=VERTEX_POINT('',#1025);
#351=VERTEX_POINT('',#1027);
#352=VERTEX_POINT('',#1029);
#353=VERTEX_POINT('',#1031);
#354=VERTEX_POINT('',#1033);
#355=VERTEX_POINT('',#1035);
#356=VERTEX_POINT('',#1037);
#357=VERTEX_POINT('',#1039);
#358=VERTEX_POINT('',#1041);
#359=VERTEX_POINT('',#1043);
#360=VERTEX_POINT('',#1045);
#361=VERTEX_POINT('',#1047);
#362=VERTEX_POINT('',#1050);
#363=VERTEX_POINT('',#1052);
#364=LINE('',#921,#448);
#365=LINE('',#924,#449);
#366=LINE('',#926,#450);
#367=LINE('',#928,#451);
#368=LINE('',#934,#452);
#369=LINE('',#937,#453);
#370=LINE('',#939,#454);
#371=LINE('',#941,#455);
#372=LINE('',#943,#456);
#373=LINE('',#945,#457);
#374=LINE('',#947,#458);
#375=LINE('',#949,#459);
#376=LINE('',#951,#460);
#377=LINE('',#953,#461);
#378=LINE('',#955,#462);
#379=LINE('',#957,#463);
#380=LINE('',#959,#464);
#381=LINE('',#961,#465);
#382=LINE('',#963,#466);
#383=LINE('',#965,#467);
#384=LINE('',#967,#468);
#385=LINE('',#969,#469);
#386=LINE('',#971,#470);
#387=LINE('',#973,#471);
#388=LINE('',#975,#472);
#389=LINE('',#977,#473);
#390=LINE('',#979,#474);
#391=LINE('',#981,#475);
#392=LINE('',#986,#476);
#393=LINE('',#988,#477);
#394=LINE('',#990,#478);
#395=LINE('',#992,#479);
#396=LINE('',#994,#480);
#397=LINE('',#996,#481);
#398=LINE('',#1001,#482);
#399=LINE('',#1004,#483);
#400=LINE('',#1006,#484);
#401=LINE('',#1008,#485);
#402=LINE('',#1010,#486);
#403=LINE('',#1012,#487);
#404=LINE('',#1014,#488);
#405=LINE('',#1016,#489);
#406=LINE('',#1018,#490);
#407=LINE('',#1020,#491);
#408=LINE('',#1022,#492);
#409=LINE('',#1024,#493);
#410=LINE('',#1026,#494);
#411=LINE('',#1028,#495);
#412=LINE('',#1030,#496);
#413=LINE('',#1032,#497);
#414=LINE('',#1034,#498);
#415=LINE('',#1036,#499);
#416=LINE('',#1038,#500);
#417=LINE('',#1040,#501);
#418=LINE('',#1042,#502);
#419=LINE('',#1044,#503);
#420=LINE('',#1046,#504);
#421=LINE('',#1048,#505);
#422=LINE('',#1054,#506);
#423=LINE('',#1055,#507);
#424=LINE('',#1057,#508);
#425=LINE('',#1058,#509);
#426=LINE('',#1060,#510);
#427=LINE('',#1061,#511);
#428=LINE('',#1063,#512);
#429=LINE('',#1064,#513);
#430=LINE('',#1066,#514);
#431=LINE('',#1068,#515);
#432=LINE('',#1069,#516);
#433=LINE('',#1071,#517);
#434=LINE('',#1072,#518);
#435=LINE('',#1075,#519);
#436=LINE('',#1077,#520);
#437=LINE('',#1079,#521);
#438=LINE('',#1082,#522);
#439=LINE('',#1084,#523);
#440=LINE('',#1087,#524);
#441=LINE('',#1089,#525);
#442=LINE('',#1092,#526);
#443=LINE('',#1094,#527);
#444=LINE('',#1097,#528);
#445=LINE('',#1099,#529);
#446=LINE('',#1106,#530);
#447=LINE('',#1107,#531);
#448=VECTOR('',#753,1.);
#449=VECTOR('',#754,1.);
#450=VECTOR('',#755,1.);
#451=VECTOR('',#756,1.);
#452=VECTOR('',#763,1.);
#453=VECTOR('',#764,1.);
#454=VECTOR('',#765,1.);
#455=VECTOR('',#766,1.);
#456=VECTOR('',#767,1.);
#457=VECTOR('',#768,1.);
#458=VECTOR('',#769,1.);
#459=VECTOR('',#770,1.);
#460=VECTOR('',#771,1.);
#461=VECTOR('',#772,1.);
#462=VECTOR('',#773,1.);
#463=VECTOR('',#774,1.);
#464=VECTOR('',#775,1.);
#465=VECTOR('',#776,1.);
#466=VECTOR('',#777,1.);
#467=VECTOR('',#778,1.);
#468=VECTOR('',#779,1.);
#469=VECTOR('',#780,1.);
#470=VECTOR('',#781,1.);
#471=VECTOR('',#782,1.);
#472=VECTOR('',#783,1.);
#473=VECTOR('',#784,1.);
#474=VECTOR('',#785,1.);
#475=VECTOR('',#786,1.);
#476=VECTOR('',#791,1.);
#477=VECTOR('',#792,1.);
#478=VECTOR('',#793,1.);
#479=VECTOR('',#796,1.);
#480=VECTOR('',#797,1.);
#481=VECTOR('',#798,1.);
#482=VECTOR('',#803,1.);
#483=VECTOR('',#804,1.);
#484=VECTOR('',#805,1.);
#485=VECTOR('',#806,1.);
#486=VECTOR('',#807,1.);
#487=VECTOR('',#808,1.);
#488=VECTOR('',#809,1.);
#489=VECTOR('',#810,1.);
#490=VECTOR('',#811,1.);
#491=VECTOR('',#812,1.);
#492=VECTOR('',#813,1.);
#493=VECTOR('',#814,1.);
#494=VECTOR('',#815,1.);
#495=VECTOR('',#816,1.);
#496=VECTOR('',#817,1.);
#497=VECTOR('',#818,1.);
#498=VECTOR('',#819,1.);
#499=VECTOR('',#820,1.);
#500=VECTOR('',#821,1.);
#501=VECTOR('',#822,1.);
#502=VECTOR('',#823,1.);
#503=VECTOR('',#824,1.);
#504=VECTOR('',#825,1.);
#505=VECTOR('',#826,1.);
#506=VECTOR('',#833,1.);
#507=VECTOR('',#834,1.);
#508=VECTOR('',#837,1.);
#509=VECTOR('',#838,1.);
#510=VECTOR('',#841,1.);
#511=VECTOR('',#842,1.);
#512=VECTOR('',#845,1.);
#513=VECTOR('',#846,1.);
#514=VECTOR('',#849,1.);
#515=VECTOR('',#852,1.);
#516=VECTOR('',#853,1.);
#517=VECTOR('',#856,1.);
#518=VECTOR('',#857,1.);
#519=VECTOR('',#862,1.);
#520=VECTOR('',#865,1.);
#521=VECTOR('',#868,1.);
#522=VECTOR('',#873,1.);
#523=VECTOR('',#876,1.);
#524=VECTOR('',#881,1.);
#525=VECTOR('',#884,1.);
#526=VECTOR('',#889,1.);
#527=VECTOR('',#892,1.);
#528=VECTOR('',#897,1.);
#529=VECTOR('',#900,1.);
#530=VECTOR('',#913,1.);
#531=VECTOR('',#914,1.);
#532=EDGE_LOOP('',(#24,#25,#26,#27));
#533=EDGE_LOOP('',(#28));
#534=EDGE_LOOP('',(#29));
#535=EDGE_LOOP('',(#30,#31,#32,#33,#34,#35,#36,#37,#38,#39,#40,#41,#42,
#43,#44,#45,#46,#47,#48,#49,#50,#51,#52,#53));
#536=EDGE_LOOP('',(#54));
#537=EDGE_LOOP('',(#55));
#538=EDGE_LOOP('',(#56,#57,#58,#59));
#539=EDGE_LOOP('',(#60,#61,#62,#63));
#540=EDGE_LOOP('',(#64));
#541=EDGE_LOOP('',(#65));
#542=EDGE_LOOP('',(#66,#67,#68,#69,#70,#71,#72,#73,#74,#75,#76,#77,#78,
#79,#80,#81,#82,#83,#84,#85,#86,#87,#88,#89));
#543=EDGE_LOOP('',(#90));
#544=EDGE_LOOP('',(#91));
#545=EDGE_LOOP('',(#92,#93,#94,#95));
#546=EDGE_LOOP('',(#96,#97,#98,#99));
#547=EDGE_LOOP('',(#100,#101,#102,#103));
#548=EDGE_LOOP('',(#104,#105,#106,#107));
#549=EDGE_LOOP('',(#108,#109,#110,#111));
#550=EDGE_LOOP('',(#112,#113,#114,#115));
#551=EDGE_LOOP('',(#116,#117,#118,#119));
#552=EDGE_LOOP('',(#120,#121,#122,#123));
#553=EDGE_LOOP('',(#124,#125,#126,#127));
#554=EDGE_LOOP('',(#128,#129,#130,#131));
#555=EDGE_LOOP('',(#132,#133,#134,#135));
#556=EDGE_LOOP('',(#136,#137,#138,#139));
#557=EDGE_LOOP('',(#140,#141,#142,#143));
#558=EDGE_LOOP('',(#144,#145,#146,#147));
#559=EDGE_LOOP('',(#148,#149,#150,#151));
#560=EDGE_LOOP('',(#152,#153,#154,#155));
#561=EDGE_LOOP('',(#156,#157,#158,#159));
#562=EDGE_LOOP('',(#160,#161,#162,#163));
#563=EDGE_LOOP('',(#164,#165,#166,#167));
#564=EDGE_LOOP('',(#168,#169,#170,#171));
#565=EDGE_LOOP('',(#172,#173,#174,#175));
#566=EDGE_LOOP('',(#176,#177,#178,#179));
#567=EDGE_LOOP('',(#180,#181,#182,#183));
#568=EDGE_LOOP('',(#184,#185,#186,#187));
#569=EDGE_LOOP('',(#188));
#570=EDGE_LOOP('',(#189));
#571=EDGE_LOOP('',(#190));
#572=EDGE_LOOP('',(#191));
#573=EDGE_LOOP('',(#192));
#574=EDGE_LOOP('',(#193));
#575=EDGE_LOOP('',(#194));
#576=EDGE_LOOP('',(#195));
#577=EDGE_LOOP('',(#196,#197,#198,#199));
#578=EDGE_LOOP('',(#200,#201,#202,#203));
#579=EDGE_LOOP('',(#204,#205,#206,#207));
#580=FACE_BOUND('',#532,.T.);
#581=FACE_BOUND('',#533,.T.);
#582=FACE_BOUND('',#534,.T.);
#583=FACE_BOUND('',#535,.T.);
#584=FACE_BOUND('',#536,.T.);
#585=FACE_BOUND('',#537,.T.);
#586=FACE_BOUND('',#538,.T.);
#587=FACE_BOUND('',#539,.T.);
#588=FACE_BOUND('',#540,.T.);
#589=FACE_BOUND('',#541,.T.);
#590=FACE_BOUND('',#542,.T.);
#591=FACE_BOUND('',#543,.T.);
#592=FACE_BOUND('',#544,.T.);
#593=FACE_BOUND('',#545,.T.);
#594=FACE_BOUND('',#546,.T.);
#595=FACE_BOUND('',#547,.T.);
#596=FACE_BOUND('',#548,.T.);
#597=FACE_BOUND('',#549,.T.);
#598=FACE_BOUND('',#550,.T.);
#599=FACE_BOUND('',#551,.T.);
#600=FACE_BOUND('',#552,.T.);
#601=FACE_BOUND('',#553,.T.);
#602=FACE_BOUND('',#554,.T.);
#603=FACE_BOUND('',#555,.T.);
#604=FACE_BOUND('',#556,.T.);
#605=FACE_BOUND('',#557,.T.);
#606=FACE_BOUND('',#558,.T.);
#607=FACE_BOUND('',#559,.T.);
#608=FACE_BOUND('',#560,.T.);
#609=FACE_BOUND('',#561,.T.);
#610=FACE_BOUND('',#562,.T.);
#611=FACE_BOUND('',#563,.T.);
#612=FACE_BOUND('',#564,.T.);
#613=FACE_BOUND('',#565,.T.);
#614=FACE_BOUND('',#566,.T.);
#615=FACE_BOUND('',#567,.T.);
#616=FACE_BOUND('',#568,.T.);
#617=FACE_BOUND('',#569,.T.);
#618=FACE_BOUND('',#570,.T.);
#619=FACE_BOUND('',#571,.T.);
#620=FACE_BOUND('',#572,.T.);
#621=FACE_BOUND('',#573,.T.);
#622=FACE_BOUND('',#574,.T.);
#623=FACE_BOUND('',#575,.T.);
#624=FACE_BOUND('',#576,.T.);
#625=FACE_BOUND('',#577,.T.);
#626=FACE_BOUND('',#578,.T.);
#627=FACE_BOUND('',#579,.T.);
#628=PLANE('',#707);
#629=PLANE('',#708);
#630=PLANE('',#713);
#631=PLANE('',#718);
#632=PLANE('',#719);
#633=PLANE('',#720);
#634=PLANE('',#721);
#635=PLANE('',#722);
#636=PLANE('',#723);
#637=PLANE('',#724);
#638=PLANE('',#725);
#639=PLANE('',#726);
#640=PLANE('',#727);
#641=PLANE('',#728);
#642=PLANE('',#729);
#643=PLANE('',#730);
#644=PLANE('',#731);
#645=PLANE('',#732);
#646=PLANE('',#733);
#647=PLANE('',#734);
#648=PLANE('',#735);
#649=PLANE('',#736);
#650=PLANE('',#737);
#651=PLANE('',#738);
#652=PLANE('',#739);
#653=PLANE('',#740);
#654=PLANE('',#741);
#655=PLANE('',#746);
#656=PLANE('',#747);
#657=PLANE('',#748);
#658=ADVANCED_FACE('',(#580),#628,.T.);
#659=ADVANCED_FACE('',(#581,#582,#583,#584,#585,#586),#629,.T.);
#660=ADVANCED_FACE('',(#587,#588,#589,#590,#591,#592),#630,.F.);
#661=ADVANCED_FACE('',(#593),#631,.T.);
#662=ADVANCED_FACE('',(#594),#632,.T.);
#663=ADVANCED_FACE('',(#595),#633,.F.);
#664=ADVANCED_FACE('',(#596),#634,.F.);
#665=ADVANCED_FACE('',(#597),#635,.F.);
#666=ADVANCED_FACE('',(#598),#636,.T.);
#667=ADVANCED_FACE('',(#599),#637,.F.);
#668=ADVANCED_FACE('',(#600),#638,.T.);
#669=ADVANCED_FACE('',(#601),#639,.F.);
#670=ADVANCED_FACE('',(#602),#640,.T.);
#671=ADVANCED_FACE('',(#603),#641,.T.);
#672=ADVANCED_FACE('',(#604),#642,.F.);
#673=ADVANCED_FACE('',(#605),#643,.T.);
#674=ADVANCED_FACE('',(#606),#644,.F.);
#675=ADVANCED_FACE('',(#607),#645,.T.);
#676=ADVANCED_FACE('',(#608),#646,.T.);
#677=ADVANCED_FACE('',(#609),#647,.F.);
#678=ADVANCED_FACE('',(#610),#648,.T.);
#679=ADVANCED_FACE('',(#611),#649,.F.);
#680=ADVANCED_FACE('',(#612),#650,.T.);
#681=ADVANCED_FACE('',(#613),#651,.T.);
#682=ADVANCED_FACE('',(#614),#652,.F.);
#683=ADVANCED_FACE('',(#615),#653,.T.);
#684=ADVANCED_FACE('',(#616),#654,.T.);
#685=ADVANCED_FACE('',(#617,#618),#12,.F.);
#686=ADVANCED_FACE('',(#619,#620),#13,.F.);
#687=ADVANCED_FACE('',(#621,#622),#14,.F.);
#688=ADVANCED_FACE('',(#623,#624),#15,.F.);
#689=ADVANCED_FACE('',(#625),#655,.T.);
#690=ADVANCED_FACE('',(#626),#656,.F.);
#691=ADVANCED_FACE('',(#627),#657,.T.);
#692=CLOSED_SHELL('',(#658,#659,#660,#661,#662,#663,#664,#665,#666,#667,
#668,#669,#670,#671,#672,#673,#674,#675,#676,#677,#678,#679,#680,#681,#682,
#683,#684,#685,#686,#687,#688,#689,#690,#691));
#693=STYLED_ITEM('',(#694),#703);
#694=PRESENTATION_STYLE_ASSIGNMENT((#695));
#695=SURFACE_STYLE_USAGE(.BOTH.,#696);
#696=SURFACE_SIDE_STYLE('',(#699,#697));
#697=SURFACE_STYLE_RENDERING_WITH_PROPERTIES(.CONSTANT_SHADING.,#702,(#698));
#698=SURFACE_STYLE_TRANSPARENT(0.2);
#699=SURFACE_STYLE_FILL_AREA(#700);
#700=FILL_AREA_STYLE('',(#701));
#701=FILL_AREA_STYLE_COLOUR('',#702);
#702=COLOUR_RGB('',0.917647058823529,0.917647058823529,0.917647058823529);
#703=MANIFOLD_SOLID_BREP('Part 120',#692);
#704=SHAPE_DEFINITION_REPRESENTATION(#1116,#705);
#705=SHAPE_REPRESENTATION('Part 120',(#706),#1111);
#706=AXIS2_PLACEMENT_3D('',#919,#749,#750);
#707=AXIS2_PLACEMENT_3D('',#920,#751,#752);
#708=AXIS2_PLACEMENT_3D('',#929,#757,#758);
#709=AXIS2_PLACEMENT_3D('',#930,#759,#760);
#710=AXIS2_PLACEMENT_3D('',#932,#761,#762);
#711=AXIS2_PLACEMENT_3D('',#982,#787,#788);
#712=AXIS2_PLACEMENT_3D('',#984,#789,#790);
#713=AXIS2_PLACEMENT_3D('',#991,#794,#795);
#714=AXIS2_PLACEMENT_3D('',#997,#799,#800);
#715=AXIS2_PLACEMENT_3D('',#999,#801,#802);
#716=AXIS2_PLACEMENT_3D('',#1049,#827,#828);
#717=AXIS2_PLACEMENT_3D('',#1051,#829,#830);
#718=AXIS2_PLACEMENT_3D('',#1053,#831,#832);
#719=AXIS2_PLACEMENT_3D('',#1056,#835,#836);
#720=AXIS2_PLACEMENT_3D('',#1059,#839,#840);
#721=AXIS2_PLACEMENT_3D('',#1062,#843,#844);
#722=AXIS2_PLACEMENT_3D('',#1065,#847,#848);
#723=AXIS2_PLACEMENT_3D('',#1067,#850,#851);
#724=AXIS2_PLACEMENT_3D('',#1070,#854,#855);
#725=AXIS2_PLACEMENT_3D('',#1073,#858,#859);
#726=AXIS2_PLACEMENT_3D('',#1074,#860,#861);
#727=AXIS2_PLACEMENT_3D('',#1076,#863,#864);
#728=AXIS2_PLACEMENT_3D('',#1078,#866,#867);
#729=AXIS2_PLACEMENT_3D('',#1080,#869,#870);
#730=AXIS2_PLACEMENT_3D('',#1081,#871,#872);
#731=AXIS2_PLACEMENT_3D('',#1083,#874,#875);
#732=AXIS2_PLACEMENT_3D('',#1085,#877,#878);
#733=AXIS2_PLACEMENT_3D('',#1086,#879,#880);
#734=AXIS2_PLACEMENT_3D('',#1088,#882,#883);
#735=AXIS2_PLACEMENT_3D('',#1090,#885,#886);
#736=AXIS2_PLACEMENT_3D('',#1091,#887,#888);
#737=AXIS2_PLACEMENT_3D('',#1093,#890,#891);
#738=AXIS2_PLACEMENT_3D('',#1095,#893,#894);
#739=AXIS2_PLACEMENT_3D('',#1096,#895,#896);
#740=AXIS2_PLACEMENT_3D('',#1098,#898,#899);
#741=AXIS2_PLACEMENT_3D('',#1100,#901,#902);
#742=AXIS2_PLACEMENT_3D('',#1101,#903,#904);
#743=AXIS2_PLACEMENT_3D('',#1102,#905,#906);
#744=AXIS2_PLACEMENT_3D('',#1103,#907,#908);
#745=AXIS2_PLACEMENT_3D('',#1104,#909,#910);
#746=AXIS2_PLACEMENT_3D('',#1105,#911,#912);
#747=AXIS2_PLACEMENT_3D('',#1108,#915,#916);
#748=AXIS2_PLACEMENT_3D('',#1109,#917,#918);
#749=DIRECTION('',(0.,0.,1.));
#750=DIRECTION('',(1.,0.,0.));
#751=DIRECTION('',(0.,4.12538399725545E-17,-1.));
#752=DIRECTION('',(0.,1.,4.12538399725545E-17));
#753=DIRECTION('',(-1.,0.,0.));
#754=DIRECTION('',(-1.49683209447853E-17,-1.,-4.12538399725545E-17));
#755=DIRECTION('',(1.,0.,0.));
#756=DIRECTION('',(-1.49683209447853E-17,-1.,-4.12538399725545E-17));
#757=DIRECTION('',(0.,1.,0.));
#758=DIRECTION('',(0.,0.,1.));
#759=DIRECTION('',(0.,1.,0.));
#760=DIRECTION('',(0.,0.,1.));
#761=DIRECTION('',(0.,1.,0.));
#762=DIRECTION('',(0.,0.,1.));
#763=DIRECTION('',(0.,0.,1.));
#764=DIRECTION('',(-1.,0.,0.));
#765=DIRECTION('',(0.,0.,-1.));
#766=DIRECTION('',(1.,0.,0.));
#767=DIRECTION('',(0.,0.,-1.));
#768=DIRECTION('',(1.,0.,0.));
#769=DIRECTION('',(0.,0.,1.));
#770=DIRECTION('',(1.,0.,0.));
#771=DIRECTION('',(0.,0.,-1.));
#772=DIRECTION('',(1.,0.,0.));
#773=DIRECTION('',(0.,0.,1.));
#774=DIRECTION('',(1.,0.,0.));
#775=DIRECTION('',(0.,0.,-1.));
#776=DIRECTION('',(1.,0.,0.));
#777=DIRECTION('',(0.,0.,-1.));
#778=DIRECTION('',(1.,0.,0.));
#779=DIRECTION('',(0.,0.,-1.));
#780=DIRECTION('',(1.,0.,0.));
#781=DIRECTION('',(0.,0.,-1.));
#782=DIRECTION('',(-1.,0.,0.));
#783=DIRECTION('',(0.,0.,1.));
#784=DIRECTION('',(-1.,0.,0.));
#785=DIRECTION('',(0.,0.,-1.));
#786=DIRECTION('',(-1.,0.,0.));
#787=DIRECTION('',(0.,1.,0.));
#788=DIRECTION('',(0.,0.,1.));
#789=DIRECTION('',(0.,1.,0.));
#790=DIRECTION('',(0.,0.,1.));
#791=DIRECTION('',(0.,0.,1.));
#792=DIRECTION('',(1.,0.,0.));
#793=DIRECTION('',(0.,0.,1.));
#794=DIRECTION('',(0.,1.,0.));
#795=DIRECTION('',(0.,0.,1.));
#796=DIRECTION('',(0.,0.,-1.));
#797=DIRECTION('',(0.,0.,-1.));
#798=DIRECTION('',(-1.,0.,0.));
#799=DIRECTION('',(0.,1.,0.));
#800=DIRECTION('',(0.,0.,1.));
#801=DIRECTION('',(0.,1.,0.));
#802=DIRECTION('',(0.,0.,1.));
#803=DIRECTION('',(0.,0.,1.));
#804=DIRECTION('',(-1.,0.,0.));
#805=DIRECTION('',(0.,0.,-1.));
#806=DIRECTION('',(-1.,0.,0.));
#807=DIRECTION('',(0.,0.,-1.));
#808=DIRECTION('',(-1.,0.,0.));
#809=DIRECTION('',(0.,0.,-1.));
#810=DIRECTION('',(1.,0.,0.));
#811=DIRECTION('',(0.,0.,-1.));
#812=DIRECTION('',(1.,0.,0.));
#813=DIRECTION('',(0.,0.,-1.));
#814=DIRECTION('',(1.,0.,0.));
#815=DIRECTION('',(0.,0.,-1.));
#816=DIRECTION('',(1.,0.,0.));
#817=DIRECTION('',(0.,0.,-1.));
#818=DIRECTION('',(1.,0.,0.));
#819=DIRECTION('',(0.,0.,-1.));
#820=DIRECTION('',(1.,0.,0.));
#821=DIRECTION('',(0.,0.,1.));
#822=DIRECTION('',(1.,0.,0.));
#823=DIRECTION('',(0.,0.,-1.));
#824=DIRECTION('',(1.,0.,0.));
#825=DIRECTION('',(0.,0.,-1.));
#826=DIRECTION('',(-1.,0.,0.));
#827=DIRECTION('',(0.,1.,0.));
#828=DIRECTION('',(0.,0.,1.));
#829=DIRECTION('',(0.,1.,0.));
#830=DIRECTION('',(0.,0.,1.));
#831=DIRECTION('',(-1.,0.,0.));
#832=DIRECTION('',(0.,0.,1.));
#833=DIRECTION('',(0.,1.,0.));
#834=DIRECTION('',(0.,1.,0.));
#835=DIRECTION('',(-1.,0.,0.));
#836=DIRECTION('',(0.,0.,1.));
#837=DIRECTION('',(0.,1.,0.));
#838=DIRECTION('',(0.,1.,0.));
#839=DIRECTION('',(-1.,0.,0.));
#840=DIRECTION('',(0.,0.,1.));
#841=DIRECTION('',(0.,1.,0.));
#842=DIRECTION('',(0.,1.,0.));
#843=DIRECTION('',(-1.,0.,0.));
#844=DIRECTION('',(0.,0.,1.));
#845=DIRECTION('',(0.,1.,0.));
#846=DIRECTION('',(0.,1.,0.));
#847=DIRECTION('',(0.,0.,1.));
#848=DIRECTION('',(1.,0.,0.));
#849=DIRECTION('',(0.,-1.,0.));
#850=DIRECTION('',(-1.,0.,0.));
#851=DIRECTION('',(0.,0.,1.));
#852=DIRECTION('',(0.,1.,0.));
#853=DIRECTION('',(0.,1.,0.));
#854=DIRECTION('',(-1.,0.,0.));
#855=DIRECTION('',(0.,0.,1.));
#856=DIRECTION('',(0.,1.,0.));
#857=DIRECTION('',(0.,1.,0.));
#858=DIRECTION('',(0.,0.,1.));
#859=DIRECTION('',(1.,0.,0.));
#860=DIRECTION('',(0.,0.,1.));
#861=DIRECTION('',(1.,0.,0.));
#862=DIRECTION('',(0.,-1.,0.));
#863=DIRECTION('',(-1.,0.,0.));
#864=DIRECTION('',(0.,0.,1.));
#865=DIRECTION('',(0.,-1.,0.));
#866=DIRECTION('',(0.,0.,-1.));
#867=DIRECTION('',(-1.,0.,0.));
#868=DIRECTION('',(0.,-1.,0.));
#869=DIRECTION('',(-1.,0.,0.));
#870=DIRECTION('',(0.,0.,1.));
#871=DIRECTION('',(0.,0.,-1.));
#872=DIRECTION('',(-1.,0.,0.));
#873=DIRECTION('',(0.,1.,0.));
#874=DIRECTION('',(0.,0.,-1.));
#875=DIRECTION('',(-1.,0.,0.));
#876=DIRECTION('',(0.,1.,0.));
#877=DIRECTION('',(1.,0.,0.));
#878=DIRECTION('',(0.,1.,0.));
#879=DIRECTION('',(0.,0.,-1.));
#880=DIRECTION('',(-1.,0.,0.));
#881=DIRECTION('',(0.,1.,0.));
#882=DIRECTION('',(0.,0.,-1.));
#883=DIRECTION('',(-1.,0.,0.));
#884=DIRECTION('',(0.,1.,0.));
#885=DIRECTION('',(1.,0.,0.));
#886=DIRECTION('',(0.,1.,0.));
#887=DIRECTION('',(0.,0.,1.));
#888=DIRECTION('',(1.,0.,0.));
#889=DIRECTION('',(0.,1.,0.));
#890=DIRECTION('',(0.,0.,1.));
#891=DIRECTION('',(1.,0.,0.));
#892=DIRECTION('',(0.,1.,0.));
#893=DIRECTION('',(-1.,0.,0.));
#894=DIRECTION('',(0.,0.,1.));
#895=DIRECTION('',(0.,0.,1.));
#896=DIRECTION('',(1.,0.,0.));
#897=DIRECTION('',(0.,1.,0.));
#898=DIRECTION('',(0.,0.,1.));
#899=DIRECTION('',(1.,0.,0.));
#900=DIRECTION('',(0.,1.,0.));
#901=DIRECTION('',(-1.,0.,0.));
#902=DIRECTION('',(0.,0.,1.));
#903=DIRECTION('',(5.20417042793042E-18,1.,1.38777878078145E-17));
#904=DIRECTION('',(0.,-1.38777878078145E-17,1.));
#905=DIRECTION('',(5.20417042793042E-18,1.,1.38777878078145E-17));
#906=DIRECTION('',(0.,-1.38777878078145E-17,1.));
#907=DIRECTION('',(5.20417042793042E-18,1.,1.38777878078145E-17));
#908=DIRECTION('',(0.,-1.38777878078145E-17,1.));
#909=DIRECTION('',(5.20417042793042E-18,1.,1.38777878078145E-17));
#910=DIRECTION('',(0.,-1.38777878078145E-17,1.));
#911=DIRECTION('',(0.,-4.12538399725545E-17,1.));
#912=DIRECTION('',(0.,-1.,-4.12538399725545E-17));
#913=DIRECTION('',(-1.49683209447853E-17,-1.,-4.12538399725545E-17));
#914=DIRECTION('',(-1.49683209447853E-17,-1.,-4.12538399725545E-17));
#915=DIRECTION('',(-1.,1.49683209447853E-17,0.));
#916=DIRECTION('',(-1.49683209447853E-17,-1.,0.));
#917=DIRECTION('',(-1.,1.49683209447853E-17,0.));
#918=DIRECTION('',(-1.49683209447853E-17,-1.,0.));
#919=CARTESIAN_POINT('',(0.,0.,0.));
#920=CARTESIAN_POINT('',(0.04235,-0.090976,0.0157793165486187));
#921=CARTESIAN_POINT('',(-1.38777878078145E-17,-0.115,0.0157793165486187));
#922=CARTESIAN_POINT('',(0.0453061761487901,-0.115,0.0157793165486187));
#923=CARTESIAN_POINT('',(0.0358938238512099,-0.115,0.0157793165486187));
#924=CARTESIAN_POINT('',(0.0453061761487901,-0.090976,0.0157793165486187));
#925=CARTESIAN_POINT('',(0.0453061761487901,-0.118,0.0157793165486187));
#926=CARTESIAN_POINT('',(-1.38777878078145E-17,-0.118,0.0157793165486187));
#927=CARTESIAN_POINT('',(0.0358938238512099,-0.118,0.0157793165486187));
#928=CARTESIAN_POINT('',(0.0358938238512099,-0.090976,0.0157793165486187));
#929=CARTESIAN_POINT('',(-1.38777878078145E-17,-0.115,0.143));
#930=CARTESIAN_POINT('',(0.01745,-0.115,0.00757));
#931=CARTESIAN_POINT('',(0.01745,-0.115,0.01032));
#932=CARTESIAN_POINT('',(0.05555,-0.115,0.01));
#933=CARTESIAN_POINT('',(0.05555,-0.115,0.01275));
#934=CARTESIAN_POINT('',(-0.065,-0.115,0.003));
#935=CARTESIAN_POINT('',(-0.065,-0.115,0.093));
#936=CARTESIAN_POINT('',(-0.065,-0.115,0.113));
#937=CARTESIAN_POINT('',(-0.065,-0.115,0.113));
#938=CARTESIAN_POINT('',(-0.068,-0.115,0.113));
#939=CARTESIAN_POINT('',(-0.068,-0.115,0.143));
#940=CARTESIAN_POINT('',(-0.068,-0.115,0.143));
#941=CARTESIAN_POINT('',(-1.38777878078145E-17,-0.115,0.143));
#942=CARTESIAN_POINT('',(0.068,-0.115,0.143));
#943=CARTESIAN_POINT('',(0.068,-0.115,0.143));
#944=CARTESIAN_POINT('',(0.068,-0.115,0.113));
#945=CARTESIAN_POINT('',(0.065,-0.115,0.113));
#946=CARTESIAN_POINT('',(0.065,-0.115,0.113));
#947=CARTESIAN_POINT('',(0.065,-0.115,0.003));
#948=CARTESIAN_POINT('',(0.065,-0.115,0.093));
#949=CARTESIAN_POINT('',(0.065,-0.115,0.093));
#950=CARTESIAN_POINT('',(0.068,-0.115,0.093));
#951=CARTESIAN_POINT('',(0.068,-0.115,0.143));
#952=CARTESIAN_POINT('',(0.068,-0.115,0.053));
#953=CARTESIAN_POINT('',(0.065,-0.115,0.053));
#954=CARTESIAN_POINT('',(0.065,-0.115,0.053));
#955=CARTESIAN_POINT('',(0.065,-0.115,0.003));
#956=CARTESIAN_POINT('',(0.065,-0.115,0.033));
#957=CARTESIAN_POINT('',(0.065,-0.115,0.033));
#958=CARTESIAN_POINT('',(0.068,-0.115,0.033));
#959=CARTESIAN_POINT('',(0.068,-0.115,0.143));
#960=CARTESIAN_POINT('',(0.068,-0.115,0.003));
#961=CARTESIAN_POINT('',(-1.38777878078145E-17,-0.115,0.003));
#962=CARTESIAN_POINT('',(0.04,-0.115,0.003));
#963=CARTESIAN_POINT('',(0.04,-0.115,0.0015));
#964=CARTESIAN_POINT('',(0.04,-0.115,0.));
#965=CARTESIAN_POINT('',(0.03,-0.115,0.));
#966=CARTESIAN_POINT('',(0.02,-0.115,0.));
#967=CARTESIAN_POINT('',(0.02,-0.115,0.0015));
#968=CARTESIAN_POINT('',(0.02,-0.115,0.003));
#969=CARTESIAN_POINT('',(-1.38777878078145E-17,-0.115,0.003));
#970=CARTESIAN_POINT('',(-0.068,-0.115,0.003));
#971=CARTESIAN_POINT('',(-0.068,-0.115,0.143));
#972=CARTESIAN_POINT('',(-0.068,-0.115,0.033));
#973=CARTESIAN_POINT('',(-0.065,-0.115,0.033));
#974=CARTESIAN_POINT('',(-0.065,-0.115,0.033));
#975=CARTESIAN_POINT('',(-0.065,-0.115,0.003));
#976=CARTESIAN_POINT('',(-0.065,-0.115,0.053));
#977=CARTESIAN_POINT('',(-0.065,-0.115,0.053));
#978=CARTESIAN_POINT('',(-0.068,-0.115,0.053));
#979=CARTESIAN_POINT('',(-0.068,-0.115,0.143));
#980=CARTESIAN_POINT('',(-0.068,-0.115,0.093));
#981=CARTESIAN_POINT('',(-0.065,-0.115,0.093));
#982=CARTESIAN_POINT('',(-0.04055,-0.115,0.00757));
#983=CARTESIAN_POINT('',(-0.04055,-0.115,0.01032));
#984=CARTESIAN_POINT('',(-0.05556,-0.115,0.01));
#985=CARTESIAN_POINT('',(-0.05556,-0.115,0.01275));
#986=CARTESIAN_POINT('',(0.0358938238512099,-0.115,0.143));
#987=CARTESIAN_POINT('',(0.0358938238512099,-0.115,0.00903091732481706));
#988=CARTESIAN_POINT('',(-1.38777878078145E-17,-0.115,0.00903091732481706));
#989=CARTESIAN_POINT('',(0.0453061761487901,-0.115,0.00903091732481706));
#990=CARTESIAN_POINT('',(0.0453061761487901,-0.115,0.143));
#991=CARTESIAN_POINT('',(-1.38777878078145E-17,-0.118,0.143));
#992=CARTESIAN_POINT('',(0.0358938238512099,-0.118,0.143));
#993=CARTESIAN_POINT('',(0.0358938238512099,-0.118,0.00903091732481705));
#994=CARTESIAN_POINT('',(0.0453061761487901,-0.118,0.143));
#995=CARTESIAN_POINT('',(0.0453061761487901,-0.118,0.00903091732481705));
#996=CARTESIAN_POINT('',(-1.38777878078145E-17,-0.118,0.00903091732481706));
#997=CARTESIAN_POINT('',(0.01745,-0.118,0.00757));
#998=CARTESIAN_POINT('',(0.01745,-0.118,0.01032));
#999=CARTESIAN_POINT('',(0.05555,-0.118,0.01));
#1000=CARTESIAN_POINT('',(0.05555,-0.118,0.01275));
#1001=CARTESIAN_POINT('',(-0.065,-0.118,0.103));
#1002=CARTESIAN_POINT('',(-0.065,-0.118,0.093));
#1003=CARTESIAN_POINT('',(-0.065,-0.118,0.113));
#1004=CARTESIAN_POINT('',(-0.065,-0.118,0.093));
#1005=CARTESIAN_POINT('',(-0.068,-0.118,0.093));
#1006=CARTESIAN_POINT('',(-0.068,-0.118,0.143));
#1007=CARTESIAN_POINT('',(-0.068,-0.118,0.053));
#1008=CARTESIAN_POINT('',(-0.065,-0.118,0.053));
#1009=CARTESIAN_POINT('',(-0.065,-0.118,0.053));
#1010=CARTESIAN_POINT('',(-0.065,-0.118,0.043));
#1011=CARTESIAN_POINT('',(-0.065,-0.118,0.033));
#1012=CARTESIAN_POINT('',(-0.065,-0.118,0.033));
#1013=CARTESIAN_POINT('',(-0.068,-0.118,0.033));
#1014=CARTESIAN_POINT('',(-0.068,-0.118,0.143));
#1015=CARTESIAN_POINT('',(-0.068,-0.118,0.003));
#1016=CARTESIAN_POINT('',(-1.38777878078145E-17,-0.118,0.003));
#1017=CARTESIAN_POINT('',(0.02,-0.118,0.003));
#1018=CARTESIAN_POINT('',(0.02,-0.118,0.0015));
#1019=CARTESIAN_POINT('',(0.02,-0.118,0.));
#1020=CARTESIAN_POINT('',(0.03,-0.118,0.));
#1021=CARTESIAN_POINT('',(0.04,-0.118,0.));
#1022=CARTESIAN_POINT('',(0.04,-0.118,0.0015));
#1023=CARTESIAN_POINT('',(0.04,-0.118,0.003));
#1024=CARTESIAN_POINT('',(-1.38777878078145E-17,-0.118,0.003));
#1025=CARTESIAN_POINT('',(0.068,-0.118,0.003));
#1026=CARTESIAN_POINT('',(0.068,-0.118,0.143));
#1027=CARTESIAN_POINT('',(0.068,-0.118,0.033));
#1028=CARTESIAN_POINT('',(0.065,-0.118,0.033));
#1029=CARTESIAN_POINT('',(0.065,-0.118,0.033));
#1030=CARTESIAN_POINT('',(0.065,-0.118,0.043));
#1031=CARTESIAN_POINT('',(0.065,-0.118,0.053));
#1032=CARTESIAN_POINT('',(0.065,-0.118,0.053));
#1033=CARTESIAN_POINT('',(0.068,-0.118,0.053));
#1034=CARTESIAN_POINT('',(0.068,-0.118,0.143));
#1035=CARTESIAN_POINT('',(0.068,-0.118,0.093));
#1036=CARTESIAN_POINT('',(0.065,-0.118,0.093));
#1037=CARTESIAN_POINT('',(0.065,-0.118,0.093));
#1038=CARTESIAN_POINT('',(0.065,-0.118,0.103));
#1039=CARTESIAN_POINT('',(0.065,-0.118,0.113));
#1040=CARTESIAN_POINT('',(0.065,-0.118,0.113));
#1041=CARTESIAN_POINT('',(0.068,-0.118,0.113));
#1042=CARTESIAN_POINT('',(0.068,-0.118,0.143));
#1043=CARTESIAN_POINT('',(0.068,-0.118,0.143));
#1044=CARTESIAN_POINT('',(-1.38777878078145E-17,-0.118,0.143));
#1045=CARTESIAN_POINT('',(-0.068,-0.118,0.143));
#1046=CARTESIAN_POINT('',(-0.068,-0.118,0.143));
#1047=CARTESIAN_POINT('',(-0.068,-0.118,0.113));
#1048=CARTESIAN_POINT('',(-0.065,-0.118,0.113));
#1049=CARTESIAN_POINT('',(-0.04055,-0.118,0.00757));
#1050=CARTESIAN_POINT('',(-0.04055,-0.118,0.01032));
#1051=CARTESIAN_POINT('',(-0.05556,-0.118,0.01));
#1052=CARTESIAN_POINT('',(-0.05556,-0.118,0.01275));
#1053=CARTESIAN_POINT('',(-0.068,-0.11,0.143));
#1054=CARTESIAN_POINT('',(-0.068,-0.1165,0.093));
#1055=CARTESIAN_POINT('',(-0.068,-0.1165,0.053));
#1056=CARTESIAN_POINT('',(-0.068,-0.11,0.143));
#1057=CARTESIAN_POINT('',(-0.068,-0.1165,0.033));
#1058=CARTESIAN_POINT('',(-0.068,-0.11,0.003));
#1059=CARTESIAN_POINT('',(0.068,-0.11,0.143));
#1060=CARTESIAN_POINT('',(0.068,-0.1165,0.093));
#1061=CARTESIAN_POINT('',(0.068,-0.1165,0.053));
#1062=CARTESIAN_POINT('',(0.068,-0.11,0.143));
#1063=CARTESIAN_POINT('',(0.068,-0.1165,0.033));
#1064=CARTESIAN_POINT('',(0.068,-0.11,0.003));
#1065=CARTESIAN_POINT('',(-1.38777878078145E-17,-0.0915,0.003));
#1066=CARTESIAN_POINT('',(0.04,-0.115,0.003));
#1067=CARTESIAN_POINT('',(-0.068,-0.11,0.143));
#1068=CARTESIAN_POINT('',(-0.068,-0.1165,0.113));
#1069=CARTESIAN_POINT('',(-0.068,-0.11,0.143));
#1070=CARTESIAN_POINT('',(0.068,-0.11,0.143));
#1071=CARTESIAN_POINT('',(0.068,-0.1165,0.113));
#1072=CARTESIAN_POINT('',(0.068,-0.11,0.143));
#1073=CARTESIAN_POINT('',(-1.38777878078145E-17,-0.0915,0.143));
#1074=CARTESIAN_POINT('',(-1.38777878078145E-17,-0.0915,0.003));
#1075=CARTESIAN_POINT('',(0.02,-0.115,0.003));
#1076=CARTESIAN_POINT('',(0.02,-0.115,0.0015));
#1077=CARTESIAN_POINT('',(0.02,-0.115,0.));
#1078=CARTESIAN_POINT('',(0.03,-0.115,0.));
#1079=CARTESIAN_POINT('',(0.04,-0.115,0.));
#1080=CARTESIAN_POINT('',(0.04,-0.115,0.0015));
#1081=CARTESIAN_POINT('',(0.065,-0.1165,0.053));
#1082=CARTESIAN_POINT('',(0.065,-0.1165,0.053));
#1083=CARTESIAN_POINT('',(0.065,-0.1165,0.033));
#1084=CARTESIAN_POINT('',(0.065,-0.1165,0.033));
#1085=CARTESIAN_POINT('',(0.065,-0.025,0.0715));
#1086=CARTESIAN_POINT('',(0.065,-0.1165,0.113));
#1087=CARTESIAN_POINT('',(0.065,-0.1165,0.113));
#1088=CARTESIAN_POINT('',(0.065,-0.1165,0.093));
#1089=CARTESIAN_POINT('',(0.065,-0.1165,0.093));
#1090=CARTESIAN_POINT('',(0.065,-0.025,0.0715));
#1091=CARTESIAN_POINT('',(-0.065,-0.1165,0.053));
#1092=CARTESIAN_POINT('',(-0.065,-0.1165,0.053));
#1093=CARTESIAN_POINT('',(-0.065,-0.1165,0.033));
#1094=CARTESIAN_POINT('',(-0.065,-0.1165,0.033));
#1095=CARTESIAN_POINT('',(-0.065,-0.11,0.143));
#1096=CARTESIAN_POINT('',(-0.065,-0.1165,0.113));
#1097=CARTESIAN_POINT('',(-0.065,-0.1165,0.113));
#1098=CARTESIAN_POINT('',(-0.065,-0.1165,0.093));
#1099=CARTESIAN_POINT('',(-0.065,-0.1165,0.093));
#1100=CARTESIAN_POINT('',(-0.065,-0.11,0.143));
#1101=CARTESIAN_POINT('',(0.05555,-0.139,0.01));
#1102=CARTESIAN_POINT('',(-0.04055,-0.139,0.00757));
#1103=CARTESIAN_POINT('',(0.01745,-0.139,0.00757));
#1104=CARTESIAN_POINT('',(-0.05556,-0.139,0.01));
#1105=CARTESIAN_POINT('',(0.04235,-0.090976,0.00903091732481706));
#1106=CARTESIAN_POINT('',(0.0453061761487901,-0.090976,0.00903091732481706));
#1107=CARTESIAN_POINT('',(0.0358938238512099,-0.090976,0.00903091732481706));
#1108=CARTESIAN_POINT('',(0.0358938238512099,-0.090976,0.0097178003880992));
#1109=CARTESIAN_POINT('',(0.0453061761487901,-0.090976,0.013092));
#1110=MECHANICAL_DESIGN_GEOMETRIC_PRESENTATION_REPRESENTATION('',(#693),
#1111);
#1111=(
GEOMETRIC_REPRESENTATION_CONTEXT(3)
GLOBAL_UNCERTAINTY_ASSIGNED_CONTEXT((#1112))
GLOBAL_UNIT_ASSIGNED_CONTEXT((#1115,#1114,#1113))
REPRESENTATION_CONTEXT('Part 120','TOP_LEVEL_ASSEMBLY_PART')
);
#1112=UNCERTAINTY_MEASURE_WITH_UNIT(LENGTH_MEASURE(1.E-8),#1115,
'DISTANCE_ACCURACY_VALUE','Maximum Tolerance applied to model');
#1113=(
NAMED_UNIT(*)
SI_UNIT($,.STERADIAN.)
SOLID_ANGLE_UNIT()
);
#1114=(
NAMED_UNIT(*)
PLANE_ANGLE_UNIT()
SI_UNIT($,.RADIAN.)
);
#1115=(
LENGTH_UNIT()
NAMED_UNIT(*)
SI_UNIT($,.METRE.)
);
#1116=PRODUCT_DEFINITION_SHAPE('','',#1117);
#1117=PRODUCT_DEFINITION('','',#1119,#1118);
#1118=PRODUCT_DEFINITION_CONTEXT('',#1125,'design');
#1119=PRODUCT_DEFINITION_FORMATION_WITH_SPECIFIED_SOURCE('','',#1121,
 .NOT_KNOWN.);
#1120=PRODUCT_RELATED_PRODUCT_CATEGORY('','',(#1121));
#1121=PRODUCT('Part 120','Part 120','Part 120',(#1123));
#1122=PRODUCT_CATEGORY('','');
#1123=PRODUCT_CONTEXT('',#1125,'mechanical');
#1124=APPLICATION_PROTOCOL_DEFINITION('international standard',
'ap242_managed_model_based_3d_engineering',2020,#1125);
#1125=APPLICATION_CONTEXT('managed model based 3d engineering');
ENDSEC;
END-ISO-10303-21;
