ISO-10303-21;
HEADER;
/* Generated by software containing ST-Developer
 * from STEP Tools, Inc. (www.steptools.com) 
 */
/* OPTION: using custom renumber hook */

FILE_DESCRIPTION(
/* description */ ('STEP AP242 Edition 2',
'CAx-IF Rec.Pracs.---Representation and Presentation of Product Manufa
cturing Information (PMI)---4.0---2014-10-13',
'CAx-IF Rec.Pracs.---3D Tessellated Geometry---0.4---2014-09-14','2;1',
'CAx-IF Rec.Pracs.---User Defined Attributes---1.5---2016-08-15'),
/* implementation_level */ '2;1');

FILE_NAME(
/* name */ 'v2 - Part 14',
/* time_stamp */ '2026-07-31T04:39:51Z',
/* author */ (''),
/* organization */ (''),
/* preprocessor_version */ 'ST-DEVELOPER v20',
/* originating_system */ 'ONSHAPE BY PTC INC, 1.218',
/* authorisation */ '  ');

FILE_SCHEMA (('AP242_MANAGED_MODEL_BASED_3D_ENGINEERING_MIM_LF { 1 0 10303 442 3 1 4 }'));
ENDSEC;

DATA;
#10=SHAPE_REPRESENTATION_RELATIONSHIP('','',#159,#11);
#11=ADVANCED_BREP_SHAPE_REPRESENTATION('',(#157),#245);
#12=ORIENTED_EDGE('',*,*,#48,.F.);
#13=ORIENTED_EDGE('',*,*,#49,.F.);
#14=ORIENTED_EDGE('',*,*,#50,.T.);
#15=ORIENTED_EDGE('',*,*,#51,.T.);
#16=ORIENTED_EDGE('',*,*,#52,.T.);
#17=ORIENTED_EDGE('',*,*,#53,.F.);
#18=ORIENTED_EDGE('',*,*,#54,.F.);
#19=ORIENTED_EDGE('',*,*,#55,.T.);
#20=ORIENTED_EDGE('',*,*,#56,.T.);
#21=ORIENTED_EDGE('',*,*,#57,.F.);
#22=ORIENTED_EDGE('',*,*,#58,.F.);
#23=ORIENTED_EDGE('',*,*,#53,.T.);
#24=ORIENTED_EDGE('',*,*,#59,.F.);
#25=ORIENTED_EDGE('',*,*,#50,.F.);
#26=ORIENTED_EDGE('',*,*,#60,.T.);
#27=ORIENTED_EDGE('',*,*,#57,.T.);
#28=ORIENTED_EDGE('',*,*,#49,.T.);
#29=ORIENTED_EDGE('',*,*,#61,.F.);
#30=ORIENTED_EDGE('',*,*,#62,.F.);
#31=ORIENTED_EDGE('',*,*,#54,.T.);
#32=ORIENTED_EDGE('',*,*,#58,.T.);
#33=ORIENTED_EDGE('',*,*,#60,.F.);
#34=ORIENTED_EDGE('',*,*,#51,.F.);
#35=ORIENTED_EDGE('',*,*,#59,.T.);
#36=ORIENTED_EDGE('',*,*,#56,.F.);
#37=ORIENTED_EDGE('',*,*,#52,.F.);
#38=ORIENTED_EDGE('',*,*,#63,.T.);
#39=ORIENTED_EDGE('',*,*,#64,.T.);
#40=ORIENTED_EDGE('',*,*,#48,.T.);
#41=ORIENTED_EDGE('',*,*,#64,.F.);
#42=ORIENTED_EDGE('',*,*,#65,.F.);
#43=ORIENTED_EDGE('',*,*,#61,.T.);
#44=ORIENTED_EDGE('',*,*,#55,.F.);
#45=ORIENTED_EDGE('',*,*,#62,.T.);
#46=ORIENTED_EDGE('',*,*,#65,.T.);
#47=ORIENTED_EDGE('',*,*,#63,.F.);
#48=EDGE_CURVE('',#66,#67,#78,.T.);
#49=EDGE_CURVE('',#68,#66,#79,.T.);
#50=EDGE_CURVE('',#68,#69,#80,.T.);
#51=EDGE_CURVE('',#69,#67,#81,.T.);
#52=EDGE_CURVE('',#70,#71,#82,.T.);
#53=EDGE_CURVE('',#72,#71,#83,.T.);
#54=EDGE_CURVE('',#73,#72,#84,.T.);
#55=EDGE_CURVE('',#73,#70,#85,.T.);
#56=EDGE_CURVE('',#71,#74,#86,.T.);
#57=EDGE_CURVE('',#75,#74,#87,.T.);
#58=EDGE_CURVE('',#72,#75,#88,.T.);
#59=EDGE_CURVE('',#69,#74,#89,.T.);
#60=EDGE_CURVE('',#68,#75,#90,.T.);
#61=EDGE_CURVE('',#76,#66,#91,.T.);
#62=EDGE_CURVE('',#73,#76,#92,.T.);
#63=EDGE_CURVE('',#70,#77,#93,.T.);
#64=EDGE_CURVE('',#77,#67,#94,.T.);
#65=EDGE_CURVE('',#76,#77,#95,.T.);
#66=VERTEX_POINT('',#208);
#67=VERTEX_POINT('',#209);
#68=VERTEX_POINT('',#211);
#69=VERTEX_POINT('',#213);
#70=VERTEX_POINT('',#217);
#71=VERTEX_POINT('',#218);
#72=VERTEX_POINT('',#220);
#73=VERTEX_POINT('',#222);
#74=VERTEX_POINT('',#226);
#75=VERTEX_POINT('',#228);
#76=VERTEX_POINT('',#235);
#77=VERTEX_POINT('',#239);
#78=LINE('',#207,#96);
#79=LINE('',#210,#97);
#80=LINE('',#212,#98);
#81=LINE('',#214,#99);
#82=LINE('',#216,#100);
#83=LINE('',#219,#101);
#84=LINE('',#221,#102);
#85=LINE('',#223,#103);
#86=LINE('',#225,#104);
#87=LINE('',#227,#105);
#88=LINE('',#229,#106);
#89=LINE('',#231,#107);
#90=LINE('',#232,#108);
#91=LINE('',#234,#109);
#92=LINE('',#236,#110);
#93=LINE('',#238,#111);
#94=LINE('',#240,#112);
#95=LINE('',#242,#113);
#96=VECTOR('',#173,1.);
#97=VECTOR('',#174,1.);
#98=VECTOR('',#175,1.);
#99=VECTOR('',#176,1.);
#100=VECTOR('',#179,1.);
#101=VECTOR('',#180,1.);
#102=VECTOR('',#181,1.);
#103=VECTOR('',#182,1.);
#104=VECTOR('',#185,1.);
#105=VECTOR('',#186,1.);
#106=VECTOR('',#187,1.);
#107=VECTOR('',#190,1.);
#108=VECTOR('',#191,1.);
#109=VECTOR('',#194,1.);
#110=VECTOR('',#195,1.);
#111=VECTOR('',#198,1.);
#112=VECTOR('',#199,1.);
#113=VECTOR('',#202,1.);
#114=EDGE_LOOP('',(#12,#13,#14,#15));
#115=EDGE_LOOP('',(#16,#17,#18,#19));
#116=EDGE_LOOP('',(#20,#21,#22,#23));
#117=EDGE_LOOP('',(#24,#25,#26,#27));
#118=EDGE_LOOP('',(#28,#29,#30,#31,#32,#33));
#119=EDGE_LOOP('',(#34,#35,#36,#37,#38,#39));
#120=EDGE_LOOP('',(#40,#41,#42,#43));
#121=EDGE_LOOP('',(#44,#45,#46,#47));
#122=FACE_BOUND('',#114,.T.);
#123=FACE_BOUND('',#115,.T.);
#124=FACE_BOUND('',#116,.T.);
#125=FACE_BOUND('',#117,.T.);
#126=FACE_BOUND('',#118,.T.);
#127=FACE_BOUND('',#119,.T.);
#128=FACE_BOUND('',#120,.T.);
#129=FACE_BOUND('',#121,.T.);
#130=PLANE('',#161);
#131=PLANE('',#162);
#132=PLANE('',#163);
#133=PLANE('',#164);
#134=PLANE('',#165);
#135=PLANE('',#166);
#136=PLANE('',#167);
#137=PLANE('',#168);
#138=ADVANCED_FACE('',(#122),#130,.F.);
#139=ADVANCED_FACE('',(#123),#131,.F.);
#140=ADVANCED_FACE('',(#124),#132,.F.);
#141=ADVANCED_FACE('',(#125),#133,.T.);
#142=ADVANCED_FACE('',(#126),#134,.T.);
#143=ADVANCED_FACE('',(#127),#135,.F.);
#144=ADVANCED_FACE('',(#128),#136,.F.);
#145=ADVANCED_FACE('',(#129),#137,.T.);
#146=CLOSED_SHELL('',(#138,#139,#140,#141,#142,#143,#144,#145));
#147=STYLED_ITEM('',(#148),#157);
#148=PRESENTATION_STYLE_ASSIGNMENT((#149));
#149=SURFACE_STYLE_USAGE(.BOTH.,#150);
#150=SURFACE_SIDE_STYLE('',(#153,#151));
#151=SURFACE_STYLE_RENDERING_WITH_PROPERTIES(.CONSTANT_SHADING.,#156,(#152));
#152=SURFACE_STYLE_TRANSPARENT(0.2);
#153=SURFACE_STYLE_FILL_AREA(#154);
#154=FILL_AREA_STYLE('',(#155));
#155=FILL_AREA_STYLE_COLOUR('',#156);
#156=COLOUR_RGB('',0.917647058823529,0.917647058823529,0.917647058823529);
#157=MANIFOLD_SOLID_BREP('Part 14',#146);
#158=SHAPE_DEFINITION_REPRESENTATION(#250,#159);
#159=SHAPE_REPRESENTATION('Part 14',(#160),#245);
#160=AXIS2_PLACEMENT_3D('',#205,#169,#170);
#161=AXIS2_PLACEMENT_3D('',#206,#171,#172);
#162=AXIS2_PLACEMENT_3D('',#215,#177,#178);
#163=AXIS2_PLACEMENT_3D('',#224,#183,#184);
#164=AXIS2_PLACEMENT_3D('',#230,#188,#189);
#165=AXIS2_PLACEMENT_3D('',#233,#192,#193);
#166=AXIS2_PLACEMENT_3D('',#237,#196,#197);
#167=AXIS2_PLACEMENT_3D('',#241,#200,#201);
#168=AXIS2_PLACEMENT_3D('',#243,#203,#204);
#169=DIRECTION('',(0.,0.,1.));
#170=DIRECTION('',(1.,0.,0.));
#171=DIRECTION('',(0.,0.,-1.));
#172=DIRECTION('',(-1.,0.,0.));
#173=DIRECTION('',(0.,-1.,0.));
#174=DIRECTION('',(1.,0.,0.));
#175=DIRECTION('',(0.,-1.,0.));
#176=DIRECTION('',(1.,0.,0.));
#177=DIRECTION('',(-1.,0.,0.));
#178=DIRECTION('',(0.,0.,1.));
#179=DIRECTION('',(0.,0.,-1.));
#180=DIRECTION('',(0.,-1.,0.));
#181=DIRECTION('',(0.,0.,-1.));
#182=DIRECTION('',(0.,-1.,0.));
#183=DIRECTION('',(0.,0.,1.));
#184=DIRECTION('',(1.,0.,0.));
#185=DIRECTION('',(-1.,0.,0.));
#186=DIRECTION('',(0.,-1.,0.));
#187=DIRECTION('',(-1.,0.,0.));
#188=DIRECTION('',(-1.,0.,0.));
#189=DIRECTION('',(0.,0.,1.));
#190=DIRECTION('',(0.,0.,-1.));
#191=DIRECTION('',(0.,0.,-1.));
#192=DIRECTION('',(0.,1.,0.));
#193=DIRECTION('',(-1.,0.,0.));
#194=DIRECTION('',(0.,0.,-1.));
#195=DIRECTION('',(-1.,0.,0.));
#196=DIRECTION('',(0.,1.,0.));
#197=DIRECTION('',(-1.,0.,0.));
#198=DIRECTION('',(-1.,0.,0.));
#199=DIRECTION('',(0.,0.,-1.));
#200=DIRECTION('',(1.,0.,0.));
#201=DIRECTION('',(0.,0.,-1.));
#202=DIRECTION('',(0.,-1.,0.));
#203=DIRECTION('',(0.,0.,1.));
#204=DIRECTION('',(1.,0.,0.));
#205=CARTESIAN_POINT('',(0.,0.,0.));
#206=CARTESIAN_POINT('',(-1.38777878078145E-17,-0.112,0.143));
#207=CARTESIAN_POINT('',(0.06,-0.1135,0.143));
#208=CARTESIAN_POINT('',(0.06,-0.112,0.143));
#209=CARTESIAN_POINT('',(0.06,-0.115,0.143));
#210=CARTESIAN_POINT('',(-1.38777878078145E-17,-0.112,0.143));
#211=CARTESIAN_POINT('',(0.055,-0.112,0.143));
#212=CARTESIAN_POINT('',(0.055,-0.112,0.143));
#213=CARTESIAN_POINT('',(0.055,-0.115,0.143));
#214=CARTESIAN_POINT('',(-1.38777878078145E-17,-0.115,0.143));
#215=CARTESIAN_POINT('',(0.065,-0.112,0.138));
#216=CARTESIAN_POINT('',(0.065,-0.115,0.138));
#217=CARTESIAN_POINT('',(0.065,-0.115,0.146));
#218=CARTESIAN_POINT('',(0.065,-0.115,0.133));
#219=CARTESIAN_POINT('',(0.065,-0.112,0.133));
#220=CARTESIAN_POINT('',(0.065,-0.112,0.133));
#221=CARTESIAN_POINT('',(0.065,-0.112,0.138));
#222=CARTESIAN_POINT('',(0.065,-0.112,0.146));
#223=CARTESIAN_POINT('',(0.065,-0.1135,0.146));
#224=CARTESIAN_POINT('',(0.06,-0.112,0.133));
#225=CARTESIAN_POINT('',(0.06,-0.115,0.133));
#226=CARTESIAN_POINT('',(0.055,-0.115,0.133));
#227=CARTESIAN_POINT('',(0.055,-0.112,0.133));
#228=CARTESIAN_POINT('',(0.055,-0.112,0.133));
#229=CARTESIAN_POINT('',(0.06,-0.112,0.133));
#230=CARTESIAN_POINT('',(0.055,-0.112,0.138));
#231=CARTESIAN_POINT('',(0.055,-0.115,0.138));
#232=CARTESIAN_POINT('',(0.055,-0.112,0.138));
#233=CARTESIAN_POINT('',(-1.38777878078145E-17,-0.112,0.073));
#234=CARTESIAN_POINT('',(0.06,-0.112,0.146));
#235=CARTESIAN_POINT('',(0.06,-0.112,0.146));
#236=CARTESIAN_POINT('',(0.0625,-0.112,0.146));
#237=CARTESIAN_POINT('',(-1.38777878078145E-17,-0.115,0.073));
#238=CARTESIAN_POINT('',(0.0625,-0.115,0.146));
#239=CARTESIAN_POINT('',(0.06,-0.115,0.146));
#240=CARTESIAN_POINT('',(0.06,-0.115,0.146));
#241=CARTESIAN_POINT('',(0.06,-0.1135,0.146));
#242=CARTESIAN_POINT('',(0.06,-0.1135,0.146));
#243=CARTESIAN_POINT('',(1.38777878078145E-17,-0.025,0.146));
#244=MECHANICAL_DESIGN_GEOMETRIC_PRESENTATION_REPRESENTATION('',(#147),
#245);
#245=(
GEOMETRIC_REPRESENTATION_CONTEXT(3)
GLOBAL_UNCERTAINTY_ASSIGNED_CONTEXT((#246))
GLOBAL_UNIT_ASSIGNED_CONTEXT((#249,#248,#247))
REPRESENTATION_CONTEXT('Part 14','TOP_LEVEL_ASSEMBLY_PART')
);
#246=UNCERTAINTY_MEASURE_WITH_UNIT(LENGTH_MEASURE(1.E-8),#249,
'DISTANCE_ACCURACY_VALUE','Maximum Tolerance applied to model');
#247=(
NAMED_UNIT(*)
SI_UNIT($,.STERADIAN.)
SOLID_ANGLE_UNIT()
);
#248=(
NAMED_UNIT(*)
PLANE_ANGLE_UNIT()
SI_UNIT($,.RADIAN.)
);
#249=(
LENGTH_UNIT()
NAMED_UNIT(*)
SI_UNIT($,.METRE.)
);
#250=PRODUCT_DEFINITION_SHAPE('','',#251);
#251=PRODUCT_DEFINITION('','',#253,#252);
#252=PRODUCT_DEFINITION_CONTEXT('',#259,'design');
#253=PRODUCT_DEFINITION_FORMATION_WITH_SPECIFIED_SOURCE('','',#255,
 .NOT_KNOWN.);
#254=PRODUCT_RELATED_PRODUCT_CATEGORY('','',(#255));
#255=PRODUCT('Part 14','Part 14','Part 14',(#257));
#256=PRODUCT_CATEGORY('','');
#257=PRODUCT_CONTEXT('',#259,'mechanical');
#258=APPLICATION_PROTOCOL_DEFINITION('international standard',
'ap242_managed_model_based_3d_engineering',2020,#259);
#259=APPLICATION_CONTEXT('managed model based 3d engineering');
ENDSEC;
END-ISO-10303-21;
