ISO-10303-21;
HEADER;
/* Generated by software containing ST-Developer
 * from STEP Tools, Inc. (www.steptools.com) 
 */
/* OPTION: using custom renumber hook */

FILE_DESCRIPTION(
/* description */ ('STEP AP242 Edition 2',
'CAx-IF Rec.Pracs.---Representation and Presentation of Product Manufa
cturing Information (PMI)---4.0---2014-10-13',
'CAx-IF Rec.Pracs.---3D Tessellated Geometry---0.4---2014-09-14','2;1',
'CAx-IF Rec.Pracs.---User Defined Attributes---1.5---2016-08-15'),
/* implementation_level */ '2;1');

FILE_NAME(
/* name */ 'v2 - Part 1',
/* time_stamp */ '2026-07-31T04:31:16Z',
/* author */ (''),
/* organization */ (''),
/* preprocessor_version */ 'ST-DEVELOPER v20',
/* originating_system */ 'ONSHAPE BY PTC INC, 1.218',
/* authorisation */ '  ');

FILE_SCHEMA (('AP242_MANAGED_MODEL_BASED_3D_ENGINEERING_MIM_LF { 1 0 10303 442 3 1 4 }'));
ENDSEC;

DATA;
#10=SHAPE_REPRESENTATION_RELATIONSHIP('','',#470,#11);
#11=ADVANCED_BREP_SHAPE_REPRESENTATION('',(#468),#795);
#12=CYLINDRICAL_SURFACE('',#476,0.006);
#13=CYLINDRICAL_SURFACE('',#487,0.06);
#14=CYLINDRICAL_SURFACE('',#498,0.03);
#15=CYLINDRICAL_SURFACE('',#502,0.03);
#16=CYLINDRICAL_SURFACE('',#506,0.03);
#17=CYLINDRICAL_SURFACE('',#510,0.03);
#18=CYLINDRICAL_SURFACE('',#515,0.00275);
#19=CYLINDRICAL_SURFACE('',#517,0.00275);
#20=LINE('',#668,#60);
#21=LINE('',#672,#61);
#22=LINE('',#677,#62);
#23=LINE('',#682,#63);
#24=LINE('',#686,#64);
#25=LINE('',#691,#65);
#26=LINE('',#695,#66);
#27=LINE('',#700,#67);
#28=LINE('',#706,#68);
#29=LINE('',#710,#69);
#30=LINE('',#711,#70);
#31=LINE('',#715,#71);
#32=LINE('',#716,#72);
#33=LINE('',#720,#73);
#34=LINE('',#724,#74);
#35=LINE('',#728,#75);
#36=LINE('',#731,#76);
#37=LINE('',#735,#77);
#38=LINE('',#737,#78);
#39=LINE('',#739,#79);
#40=LINE('',#741,#80);
#41=LINE('',#745,#81);
#42=LINE('',#747,#82);
#43=LINE('',#749,#83);
#44=LINE('',#751,#84);
#45=LINE('',#755,#85);
#46=LINE('',#757,#86);
#47=LINE('',#759,#87);
#48=LINE('',#761,#88);
#49=LINE('',#765,#89);
#50=LINE('',#767,#90);
#51=LINE('',#769,#91);
#52=LINE('',#771,#92);
#53=LINE('',#775,#93);
#54=LINE('',#778,#94);
#55=LINE('',#780,#95);
#56=LINE('',#782,#96);
#57=LINE('',#784,#97);
#58=LINE('',#790,#98);
#59=LINE('',#792,#99);
#60=VECTOR('',#529,1.);
#61=VECTOR('',#532,1.);
#62=VECTOR('',#539,1.);
#63=VECTOR('',#542,1.);
#64=VECTOR('',#547,1.);
#65=VECTOR('',#550,1.);
#66=VECTOR('',#555,1.);
#67=VECTOR('',#558,1.);
#68=VECTOR('',#565,1.);
#69=VECTOR('',#568,1.);
#70=VECTOR('',#569,1.);
#71=VECTOR('',#572,1.);
#72=VECTOR('',#573,1.);
#73=VECTOR('',#576,1.);
#74=VECTOR('',#579,1.);
#75=VECTOR('',#582,1.);
#76=VECTOR('',#587,1.);
#77=VECTOR('',#590,1.);
#78=VECTOR('',#593,1.);
#79=VECTOR('',#594,1.);
#80=VECTOR('',#597,1.);
#81=VECTOR('',#602,1.);
#82=VECTOR('',#605,1.);
#83=VECTOR('',#606,1.);
#84=VECTOR('',#609,1.);
#85=VECTOR('',#614,1.);
#86=VECTOR('',#617,1.);
#87=VECTOR('',#618,1.);
#88=VECTOR('',#621,1.);
#89=VECTOR('',#626,1.);
#90=VECTOR('',#629,1.);
#91=VECTOR('',#630,1.);
#92=VECTOR('',#633,1.);
#93=VECTOR('',#638,1.);
#94=VECTOR('',#643,1.);
#95=VECTOR('',#644,1.);
#96=VECTOR('',#645,1.);
#97=VECTOR('',#648,1.);
#98=VECTOR('',#655,1.);
#99=VECTOR('',#658,1.);
#100=ORIENTED_EDGE('',*,*,#226,.T.);
#101=ORIENTED_EDGE('',*,*,#227,.T.);
#102=ORIENTED_EDGE('',*,*,#228,.F.);
#103=ORIENTED_EDGE('',*,*,#229,.T.);
#104=ORIENTED_EDGE('',*,*,#230,.F.);
#105=ORIENTED_EDGE('',*,*,#226,.F.);
#106=ORIENTED_EDGE('',*,*,#231,.T.);
#107=ORIENTED_EDGE('',*,*,#232,.F.);
#108=ORIENTED_EDGE('',*,*,#233,.F.);
#109=ORIENTED_EDGE('',*,*,#234,.F.);
#110=ORIENTED_EDGE('',*,*,#235,.F.);
#111=ORIENTED_EDGE('',*,*,#236,.F.);
#112=ORIENTED_EDGE('',*,*,#237,.F.);
#113=ORIENTED_EDGE('',*,*,#238,.T.);
#114=ORIENTED_EDGE('',*,*,#239,.F.);
#115=ORIENTED_EDGE('',*,*,#240,.F.);
#116=ORIENTED_EDGE('',*,*,#241,.F.);
#117=ORIENTED_EDGE('',*,*,#242,.F.);
#118=ORIENTED_EDGE('',*,*,#243,.F.);
#119=ORIENTED_EDGE('',*,*,#244,.F.);
#120=ORIENTED_EDGE('',*,*,#239,.T.);
#121=ORIENTED_EDGE('',*,*,#245,.F.);
#122=ORIENTED_EDGE('',*,*,#246,.T.);
#123=ORIENTED_EDGE('',*,*,#247,.T.);
#124=ORIENTED_EDGE('',*,*,#243,.T.);
#125=ORIENTED_EDGE('',*,*,#248,.F.);
#126=ORIENTED_EDGE('',*,*,#249,.T.);
#127=ORIENTED_EDGE('',*,*,#250,.T.);
#128=ORIENTED_EDGE('',*,*,#235,.T.);
#129=ORIENTED_EDGE('',*,*,#251,.F.);
#130=ORIENTED_EDGE('',*,*,#252,.T.);
#131=ORIENTED_EDGE('',*,*,#253,.T.);
#132=ORIENTED_EDGE('',*,*,#254,.T.);
#133=ORIENTED_EDGE('',*,*,#255,.F.);
#134=ORIENTED_EDGE('',*,*,#256,.T.);
#135=ORIENTED_EDGE('',*,*,#257,.T.);
#136=ORIENTED_EDGE('',*,*,#244,.T.);
#137=ORIENTED_EDGE('',*,*,#254,.F.);
#138=ORIENTED_EDGE('',*,*,#258,.T.);
#139=ORIENTED_EDGE('',*,*,#259,.F.);
#140=ORIENTED_EDGE('',*,*,#260,.F.);
#141=ORIENTED_EDGE('',*,*,#242,.T.);
#142=ORIENTED_EDGE('',*,*,#261,.F.);
#143=ORIENTED_EDGE('',*,*,#262,.F.);
#144=ORIENTED_EDGE('',*,*,#248,.T.);
#145=ORIENTED_EDGE('',*,*,#241,.T.);
#146=ORIENTED_EDGE('',*,*,#263,.F.);
#147=ORIENTED_EDGE('',*,*,#264,.F.);
#148=ORIENTED_EDGE('',*,*,#261,.T.);
#149=ORIENTED_EDGE('',*,*,#240,.T.);
#150=ORIENTED_EDGE('',*,*,#247,.F.);
#151=ORIENTED_EDGE('',*,*,#265,.F.);
#152=ORIENTED_EDGE('',*,*,#263,.T.);
#153=ORIENTED_EDGE('',*,*,#238,.F.);
#154=ORIENTED_EDGE('',*,*,#266,.F.);
#155=ORIENTED_EDGE('',*,*,#267,.T.);
#156=ORIENTED_EDGE('',*,*,#245,.T.);
#157=ORIENTED_EDGE('',*,*,#237,.T.);
#158=ORIENTED_EDGE('',*,*,#268,.F.);
#159=ORIENTED_EDGE('',*,*,#269,.F.);
#160=ORIENTED_EDGE('',*,*,#266,.T.);
#161=ORIENTED_EDGE('',*,*,#236,.T.);
#162=ORIENTED_EDGE('',*,*,#257,.F.);
#163=ORIENTED_EDGE('',*,*,#270,.F.);
#164=ORIENTED_EDGE('',*,*,#268,.T.);
#165=ORIENTED_EDGE('',*,*,#260,.T.);
#166=ORIENTED_EDGE('',*,*,#271,.F.);
#167=ORIENTED_EDGE('',*,*,#272,.F.);
#168=ORIENTED_EDGE('',*,*,#255,.T.);
#169=ORIENTED_EDGE('',*,*,#259,.T.);
#170=ORIENTED_EDGE('',*,*,#273,.F.);
#171=ORIENTED_EDGE('',*,*,#274,.F.);
#172=ORIENTED_EDGE('',*,*,#271,.T.);
#173=ORIENTED_EDGE('',*,*,#258,.F.);
#174=ORIENTED_EDGE('',*,*,#253,.F.);
#175=ORIENTED_EDGE('',*,*,#275,.T.);
#176=ORIENTED_EDGE('',*,*,#273,.T.);
#177=ORIENTED_EDGE('',*,*,#234,.T.);
#178=ORIENTED_EDGE('',*,*,#276,.F.);
#179=ORIENTED_EDGE('',*,*,#277,.F.);
#180=ORIENTED_EDGE('',*,*,#251,.T.);
#181=ORIENTED_EDGE('',*,*,#233,.T.);
#182=ORIENTED_EDGE('',*,*,#278,.F.);
#183=ORIENTED_EDGE('',*,*,#279,.F.);
#184=ORIENTED_EDGE('',*,*,#276,.T.);
#185=ORIENTED_EDGE('',*,*,#232,.T.);
#186=ORIENTED_EDGE('',*,*,#250,.F.);
#187=ORIENTED_EDGE('',*,*,#280,.F.);
#188=ORIENTED_EDGE('',*,*,#278,.T.);
#189=ORIENTED_EDGE('',*,*,#231,.F.);
#190=ORIENTED_EDGE('',*,*,#249,.F.);
#191=ORIENTED_EDGE('',*,*,#262,.T.);
#192=ORIENTED_EDGE('',*,*,#264,.T.);
#193=ORIENTED_EDGE('',*,*,#265,.T.);
#194=ORIENTED_EDGE('',*,*,#246,.F.);
#195=ORIENTED_EDGE('',*,*,#267,.F.);
#196=ORIENTED_EDGE('',*,*,#269,.T.);
#197=ORIENTED_EDGE('',*,*,#270,.T.);
#198=ORIENTED_EDGE('',*,*,#256,.F.);
#199=ORIENTED_EDGE('',*,*,#272,.T.);
#200=ORIENTED_EDGE('',*,*,#274,.T.);
#201=ORIENTED_EDGE('',*,*,#275,.F.);
#202=ORIENTED_EDGE('',*,*,#252,.F.);
#203=ORIENTED_EDGE('',*,*,#277,.T.);
#204=ORIENTED_EDGE('',*,*,#279,.T.);
#205=ORIENTED_EDGE('',*,*,#280,.T.);
#206=ORIENTED_EDGE('',*,*,#228,.T.);
#207=ORIENTED_EDGE('',*,*,#281,.F.);
#208=ORIENTED_EDGE('',*,*,#282,.F.);
#209=ORIENTED_EDGE('',*,*,#283,.T.);
#210=ORIENTED_EDGE('',*,*,#227,.F.);
#211=ORIENTED_EDGE('',*,*,#284,.F.);
#212=ORIENTED_EDGE('',*,*,#285,.T.);
#213=ORIENTED_EDGE('',*,*,#281,.T.);
#214=ORIENTED_EDGE('',*,*,#229,.F.);
#215=ORIENTED_EDGE('',*,*,#283,.F.);
#216=ORIENTED_EDGE('',*,*,#286,.T.);
#217=ORIENTED_EDGE('',*,*,#287,.T.);
#218=ORIENTED_EDGE('',*,*,#230,.T.);
#219=ORIENTED_EDGE('',*,*,#287,.F.);
#220=ORIENTED_EDGE('',*,*,#288,.F.);
#221=ORIENTED_EDGE('',*,*,#284,.T.);
#222=ORIENTED_EDGE('',*,*,#282,.T.);
#223=ORIENTED_EDGE('',*,*,#285,.F.);
#224=ORIENTED_EDGE('',*,*,#288,.T.);
#225=ORIENTED_EDGE('',*,*,#286,.F.);
#226=EDGE_CURVE('',#289,#289,#332,.T.);
#227=EDGE_CURVE('NONE',#290,#291,#333,.F.);
#228=EDGE_CURVE('NONE',#292,#291,#20,.T.);
#229=EDGE_CURVE('NONE',#292,#293,#334,.F.);
#230=EDGE_CURVE('NONE',#290,#293,#21,.F.);
#231=EDGE_CURVE('',#294,#294,#335,.T.);
#232=EDGE_CURVE('',#295,#296,#22,.T.);
#233=EDGE_CURVE('',#297,#295,#336,.T.);
#234=EDGE_CURVE('',#298,#297,#23,.T.);
#235=EDGE_CURVE('',#296,#298,#337,.T.);
#236=EDGE_CURVE('',#299,#300,#24,.T.);
#237=EDGE_CURVE('',#301,#299,#338,.T.);
#238=EDGE_CURVE('',#301,#302,#25,.T.);
#239=EDGE_CURVE('',#300,#302,#339,.T.);
#240=EDGE_CURVE('',#303,#304,#26,.T.);
#241=EDGE_CURVE('',#305,#303,#340,.T.);
#242=EDGE_CURVE('',#306,#305,#27,.T.);
#243=EDGE_CURVE('',#304,#306,#341,.T.);
#244=EDGE_CURVE('',#307,#307,#342,.T.);
#245=EDGE_CURVE('',#308,#302,#28,.T.);
#246=EDGE_CURVE('',#308,#309,#343,.T.);
#247=EDGE_CURVE('',#309,#304,#29,.T.);
#248=EDGE_CURVE('',#310,#306,#30,.T.);
#249=EDGE_CURVE('',#310,#311,#344,.T.);
#250=EDGE_CURVE('',#311,#296,#31,.T.);
#251=EDGE_CURVE('',#312,#298,#32,.T.);
#252=EDGE_CURVE('',#312,#313,#345,.T.);
#253=EDGE_CURVE('',#313,#314,#33,.T.);
#254=EDGE_CURVE('',#314,#315,#346,.T.);
#255=EDGE_CURVE('',#316,#315,#34,.T.);
#256=EDGE_CURVE('',#316,#317,#347,.T.);
#257=EDGE_CURVE('',#317,#300,#35,.T.);
#258=EDGE_CURVE('',#314,#318,#36,.T.);
#259=EDGE_CURVE('',#319,#318,#348,.T.);
#260=EDGE_CURVE('',#315,#319,#37,.T.);
#261=EDGE_CURVE('',#320,#305,#38,.T.);
#262=EDGE_CURVE('',#310,#320,#39,.T.);
#263=EDGE_CURVE('',#321,#303,#40,.T.);
#264=EDGE_CURVE('',#320,#321,#349,.T.);
#265=EDGE_CURVE('',#321,#309,#41,.T.);
#266=EDGE_CURVE('',#322,#301,#42,.T.);
#267=EDGE_CURVE('',#322,#308,#43,.T.);
#268=EDGE_CURVE('',#323,#299,#44,.T.);
#269=EDGE_CURVE('',#322,#323,#350,.T.);
#270=EDGE_CURVE('',#323,#317,#45,.T.);
#271=EDGE_CURVE('',#324,#319,#46,.T.);
#272=EDGE_CURVE('',#316,#324,#47,.T.);
#273=EDGE_CURVE('',#325,#318,#48,.T.);
#274=EDGE_CURVE('',#324,#325,#351,.T.);
#275=EDGE_CURVE('',#313,#325,#49,.T.);
#276=EDGE_CURVE('',#326,#297,#50,.T.);
#277=EDGE_CURVE('',#312,#326,#51,.T.);
#278=EDGE_CURVE('',#327,#295,#52,.T.);
#279=EDGE_CURVE('',#326,#327,#352,.T.);
#280=EDGE_CURVE('',#327,#311,#53,.T.);
#281=EDGE_CURVE('',#328,#291,#54,.T.);
#282=EDGE_CURVE('NONE',#329,#328,#55,.T.);
#283=EDGE_CURVE('',#329,#292,#56,.T.);
#284=EDGE_CURVE('',#330,#290,#57,.T.);
#285=EDGE_CURVE('NONE',#330,#328,#353,.F.);
#286=EDGE_CURVE('NONE',#329,#331,#354,.F.);
#287=EDGE_CURVE('',#331,#293,#58,.T.);
#288=EDGE_CURVE('NONE',#330,#331,#59,.F.);
#289=VERTEX_POINT('',#664);
#290=VERTEX_POINT('',#666);
#291=VERTEX_POINT('',#667);
#292=VERTEX_POINT('',#669);
#293=VERTEX_POINT('',#671);
#294=VERTEX_POINT('',#675);
#295=VERTEX_POINT('',#678);
#296=VERTEX_POINT('',#679);
#297=VERTEX_POINT('',#681);
#298=VERTEX_POINT('',#683);
#299=VERTEX_POINT('',#687);
#300=VERTEX_POINT('',#688);
#301=VERTEX_POINT('',#690);
#302=VERTEX_POINT('',#692);
#303=VERTEX_POINT('',#696);
#304=VERTEX_POINT('',#697);
#305=VERTEX_POINT('',#699);
#306=VERTEX_POINT('',#701);
#307=VERTEX_POINT('',#705);
#308=VERTEX_POINT('',#707);
#309=VERTEX_POINT('',#709);
#310=VERTEX_POINT('',#712);
#311=VERTEX_POINT('',#714);
#312=VERTEX_POINT('',#717);
#313=VERTEX_POINT('',#719);
#314=VERTEX_POINT('',#721);
#315=VERTEX_POINT('',#723);
#316=VERTEX_POINT('',#725);
#317=VERTEX_POINT('',#727);
#318=VERTEX_POINT('',#732);
#319=VERTEX_POINT('',#734);
#320=VERTEX_POINT('',#738);
#321=VERTEX_POINT('',#742);
#322=VERTEX_POINT('',#748);
#323=VERTEX_POINT('',#752);
#324=VERTEX_POINT('',#758);
#325=VERTEX_POINT('',#762);
#326=VERTEX_POINT('',#768);
#327=VERTEX_POINT('',#772);
#328=VERTEX_POINT('',#779);
#329=VERTEX_POINT('',#781);
#330=VERTEX_POINT('',#785);
#331=VERTEX_POINT('',#789);
#332=CIRCLE('',#473,0.006);
#333=CIRCLE('',#474,0.00275);
#334=CIRCLE('',#475,0.00275);
#335=CIRCLE('',#477,0.006);
#336=CIRCLE('',#479,0.03);
#337=CIRCLE('',#480,0.06);
#338=CIRCLE('',#482,0.03);
#339=CIRCLE('',#483,0.06);
#340=CIRCLE('',#485,0.03);
#341=CIRCLE('',#486,0.06);
#342=CIRCLE('',#488,0.06);
#343=CIRCLE('',#489,0.06);
#344=CIRCLE('',#490,0.06);
#345=CIRCLE('',#491,0.06);
#346=CIRCLE('',#492,0.06);
#347=CIRCLE('',#493,0.06);
#348=CIRCLE('',#496,0.03);
#349=CIRCLE('',#499,0.03);
#350=CIRCLE('',#503,0.03);
#351=CIRCLE('',#507,0.03);
#352=CIRCLE('',#511,0.03);
#353=CIRCLE('',#516,0.00275);
#354=CIRCLE('',#518,0.00275);
#355=EDGE_LOOP('',(#100));
#356=EDGE_LOOP('',(#101,#102,#103,#104));
#357=EDGE_LOOP('',(#105));
#358=EDGE_LOOP('',(#106));
#359=EDGE_LOOP('',(#107,#108,#109,#110));
#360=EDGE_LOOP('',(#111,#112,#113,#114));
#361=EDGE_LOOP('',(#115,#116,#117,#118));
#362=EDGE_LOOP('',(#119));
#363=EDGE_LOOP('',(#120,#121,#122,#123,#124,#125,#126,#127,#128,#129,#130,
#131,#132,#133,#134,#135));
#364=EDGE_LOOP('',(#136));
#365=EDGE_LOOP('',(#137,#138,#139,#140));
#366=EDGE_LOOP('',(#141,#142,#143,#144));
#367=EDGE_LOOP('',(#145,#146,#147,#148));
#368=EDGE_LOOP('',(#149,#150,#151,#152));
#369=EDGE_LOOP('',(#153,#154,#155,#156));
#370=EDGE_LOOP('',(#157,#158,#159,#160));
#371=EDGE_LOOP('',(#161,#162,#163,#164));
#372=EDGE_LOOP('',(#165,#166,#167,#168));
#373=EDGE_LOOP('',(#169,#170,#171,#172));
#374=EDGE_LOOP('',(#173,#174,#175,#176));
#375=EDGE_LOOP('',(#177,#178,#179,#180));
#376=EDGE_LOOP('',(#181,#182,#183,#184));
#377=EDGE_LOOP('',(#185,#186,#187,#188));
#378=EDGE_LOOP('',(#189));
#379=EDGE_LOOP('',(#190,#191,#192,#193,#194,#195,#196,#197,#198,#199,#200,
#201,#202,#203,#204,#205));
#380=EDGE_LOOP('',(#206,#207,#208,#209));
#381=EDGE_LOOP('',(#210,#211,#212,#213));
#382=EDGE_LOOP('',(#214,#215,#216,#217));
#383=EDGE_LOOP('',(#218,#219,#220,#221));
#384=EDGE_LOOP('',(#222,#223,#224,#225));
#385=FACE_BOUND('',#355,.T.);
#386=FACE_BOUND('',#356,.T.);
#387=FACE_BOUND('',#357,.T.);
#388=FACE_BOUND('',#358,.T.);
#389=FACE_BOUND('',#359,.T.);
#390=FACE_BOUND('',#360,.T.);
#391=FACE_BOUND('',#361,.T.);
#392=FACE_BOUND('',#362,.T.);
#393=FACE_BOUND('',#363,.T.);
#394=FACE_BOUND('',#364,.T.);
#395=FACE_BOUND('',#365,.T.);
#396=FACE_BOUND('',#366,.T.);
#397=FACE_BOUND('',#367,.T.);
#398=FACE_BOUND('',#368,.T.);
#399=FACE_BOUND('',#369,.T.);
#400=FACE_BOUND('',#370,.T.);
#401=FACE_BOUND('',#371,.T.);
#402=FACE_BOUND('',#372,.T.);
#403=FACE_BOUND('',#373,.T.);
#404=FACE_BOUND('',#374,.T.);
#405=FACE_BOUND('',#375,.T.);
#406=FACE_BOUND('',#376,.T.);
#407=FACE_BOUND('',#377,.T.);
#408=FACE_BOUND('',#378,.T.);
#409=FACE_BOUND('',#379,.T.);
#410=FACE_BOUND('',#380,.T.);
#411=FACE_BOUND('',#381,.T.);
#412=FACE_BOUND('',#382,.T.);
#413=FACE_BOUND('',#383,.T.);
#414=FACE_BOUND('',#384,.T.);
#415=PLANE('',#472);
#416=PLANE('',#478);
#417=PLANE('',#481);
#418=PLANE('',#484);
#419=PLANE('',#494);
#420=PLANE('',#495);
#421=PLANE('',#497);
#422=PLANE('',#500);
#423=PLANE('',#501);
#424=PLANE('',#504);
#425=PLANE('',#505);
#426=PLANE('',#508);
#427=PLANE('',#509);
#428=PLANE('',#512);
#429=PLANE('',#513);
#430=PLANE('',#514);
#431=PLANE('',#519);
#432=PLANE('',#520);
#433=ADVANCED_FACE('',(#385,#386),#415,.T.);
#434=ADVANCED_FACE('',(#387,#388),#12,.T.);
#435=ADVANCED_FACE('',(#389),#416,.F.);
#436=ADVANCED_FACE('',(#390),#417,.F.);
#437=ADVANCED_FACE('',(#391),#418,.F.);
#438=ADVANCED_FACE('',(#392,#393),#13,.T.);
#439=ADVANCED_FACE('',(#394),#419,.T.);
#440=ADVANCED_FACE('',(#395),#420,.F.);
#441=ADVANCED_FACE('',(#396),#421,.F.);
#442=ADVANCED_FACE('',(#397),#14,.T.);
#443=ADVANCED_FACE('',(#398),#422,.F.);
#444=ADVANCED_FACE('',(#399),#423,.T.);
#445=ADVANCED_FACE('',(#400),#15,.T.);
#446=ADVANCED_FACE('',(#401),#424,.F.);
#447=ADVANCED_FACE('',(#402),#425,.F.);
#448=ADVANCED_FACE('',(#403),#16,.T.);
#449=ADVANCED_FACE('',(#404),#426,.T.);
#450=ADVANCED_FACE('',(#405),#427,.F.);
#451=ADVANCED_FACE('',(#406),#17,.T.);
#452=ADVANCED_FACE('',(#407),#428,.F.);
#453=ADVANCED_FACE('',(#408,#409),#429,.T.);
#454=ADVANCED_FACE('',(#410),#430,.F.);
#455=ADVANCED_FACE('',(#411),#18,.F.);
#456=ADVANCED_FACE('',(#412),#19,.F.);
#457=ADVANCED_FACE('',(#413),#431,.F.);
#458=ADVANCED_FACE('',(#414),#432,.F.);
#459=CLOSED_SHELL('',(#433,#434,#435,#436,#437,#438,#439,#440,#441,#442,
#443,#444,#445,#446,#447,#448,#449,#450,#451,#452,#453,#454,#455,#456,#457,
#458));
#460=STYLED_ITEM('',(#461),#468);
#461=PRESENTATION_STYLE_ASSIGNMENT((#462));
#462=SURFACE_STYLE_USAGE(.BOTH.,#463);
#463=SURFACE_SIDE_STYLE('',(#464));
#464=SURFACE_STYLE_FILL_AREA(#465);
#465=FILL_AREA_STYLE('',(#466));
#466=FILL_AREA_STYLE_COLOUR('',#467);
#467=COLOUR_RGB('',0.498039215686275,0.498039215686275,0.498039215686275);
#468=MANIFOLD_SOLID_BREP('Part 1',#459);
#469=SHAPE_DEFINITION_REPRESENTATION(#800,#470);
#470=SHAPE_REPRESENTATION('Part 1',(#471),#795);
#471=AXIS2_PLACEMENT_3D('',#661,#521,#522);
#472=AXIS2_PLACEMENT_3D('',#662,#523,#524);
#473=AXIS2_PLACEMENT_3D('',#663,#525,#526);
#474=AXIS2_PLACEMENT_3D('',#665,#527,#528);
#475=AXIS2_PLACEMENT_3D('',#670,#530,#531);
#476=AXIS2_PLACEMENT_3D('',#673,#533,#534);
#477=AXIS2_PLACEMENT_3D('',#674,#535,#536);
#478=AXIS2_PLACEMENT_3D('',#676,#537,#538);
#479=AXIS2_PLACEMENT_3D('',#680,#540,#541);
#480=AXIS2_PLACEMENT_3D('',#684,#543,#544);
#481=AXIS2_PLACEMENT_3D('',#685,#545,#546);
#482=AXIS2_PLACEMENT_3D('',#689,#548,#549);
#483=AXIS2_PLACEMENT_3D('',#693,#551,#552);
#484=AXIS2_PLACEMENT_3D('',#694,#553,#554);
#485=AXIS2_PLACEMENT_3D('',#698,#556,#557);
#486=AXIS2_PLACEMENT_3D('',#702,#559,#560);
#487=AXIS2_PLACEMENT_3D('',#703,#561,#562);
#488=AXIS2_PLACEMENT_3D('',#704,#563,#564);
#489=AXIS2_PLACEMENT_3D('',#708,#566,#567);
#490=AXIS2_PLACEMENT_3D('',#713,#570,#571);
#491=AXIS2_PLACEMENT_3D('',#718,#574,#575);
#492=AXIS2_PLACEMENT_3D('',#722,#577,#578);
#493=AXIS2_PLACEMENT_3D('',#726,#580,#581);
#494=AXIS2_PLACEMENT_3D('',#729,#583,#584);
#495=AXIS2_PLACEMENT_3D('',#730,#585,#586);
#496=AXIS2_PLACEMENT_3D('',#733,#588,#589);
#497=AXIS2_PLACEMENT_3D('',#736,#591,#592);
#498=AXIS2_PLACEMENT_3D('',#740,#595,#596);
#499=AXIS2_PLACEMENT_3D('',#743,#598,#599);
#500=AXIS2_PLACEMENT_3D('',#744,#600,#601);
#501=AXIS2_PLACEMENT_3D('',#746,#603,#604);
#502=AXIS2_PLACEMENT_3D('',#750,#607,#608);
#503=AXIS2_PLACEMENT_3D('',#753,#610,#611);
#504=AXIS2_PLACEMENT_3D('',#754,#612,#613);
#505=AXIS2_PLACEMENT_3D('',#756,#615,#616);
#506=AXIS2_PLACEMENT_3D('',#760,#619,#620);
#507=AXIS2_PLACEMENT_3D('',#763,#622,#623);
#508=AXIS2_PLACEMENT_3D('',#764,#624,#625);
#509=AXIS2_PLACEMENT_3D('',#766,#627,#628);
#510=AXIS2_PLACEMENT_3D('',#770,#631,#632);
#511=AXIS2_PLACEMENT_3D('',#773,#634,#635);
#512=AXIS2_PLACEMENT_3D('',#774,#636,#637);
#513=AXIS2_PLACEMENT_3D('',#776,#639,#640);
#514=AXIS2_PLACEMENT_3D('',#777,#641,#642);
#515=AXIS2_PLACEMENT_3D('',#783,#646,#647);
#516=AXIS2_PLACEMENT_3D('',#786,#649,#650);
#517=AXIS2_PLACEMENT_3D('',#787,#651,#652);
#518=AXIS2_PLACEMENT_3D('',#788,#653,#654);
#519=AXIS2_PLACEMENT_3D('',#791,#656,#657);
#520=AXIS2_PLACEMENT_3D('',#793,#659,#660);
#521=DIRECTION('',(0.,0.,1.));
#522=DIRECTION('',(1.,0.,0.));
#523=DIRECTION('',(0.,0.,-1.));
#524=DIRECTION('',(1.,0.,0.));
#525=DIRECTION('',(0.,0.,-1.));
#526=DIRECTION('',(-1.,0.,0.));
#527=DIRECTION('',(0.,0.,-1.));
#528=DIRECTION('',(-1.,0.,0.));
#529=DIRECTION('',(0.,1.,0.));
#530=DIRECTION('',(0.,0.,-1.));
#531=DIRECTION('',(-1.,0.,0.));
#532=DIRECTION('',(-1.37311291800758E-16,1.,0.));
#533=DIRECTION('',(0.,0.,1.));
#534=DIRECTION('',(1.,0.,0.));
#535=DIRECTION('',(0.,0.,-1.));
#536=DIRECTION('',(-1.,0.,0.));
#537=DIRECTION('',(0.,0.,1.));
#538=DIRECTION('',(1.,0.,0.));
#539=DIRECTION('',(-1.,-2.8691169422668E-17,0.));
#540=DIRECTION('',(0.,0.,-1.));
#541=DIRECTION('',(-1.,0.,0.));
#542=DIRECTION('',(0.,1.,0.));
#543=DIRECTION('',(0.,0.,1.));
#544=DIRECTION('',(1.,0.,0.));
#545=DIRECTION('',(0.,0.,1.));
#546=DIRECTION('',(1.,0.,0.));
#547=DIRECTION('',(1.,0.,0.));
#548=DIRECTION('',(0.,0.,-1.));
#549=DIRECTION('',(-1.,0.,0.));
#550=DIRECTION('',(0.,1.,0.));
#551=DIRECTION('',(0.,0.,1.));
#552=DIRECTION('',(1.,0.,0.));
#553=DIRECTION('',(0.,0.,1.));
#554=DIRECTION('',(1.,0.,0.));
#555=DIRECTION('',(0.,1.,0.));
#556=DIRECTION('',(0.,0.,-1.));
#557=DIRECTION('',(-1.,0.,0.));
#558=DIRECTION('',(1.,0.,0.));
#559=DIRECTION('',(0.,0.,1.));
#560=DIRECTION('',(1.,0.,0.));
#561=DIRECTION('',(0.,0.,-1.));
#562=DIRECTION('',(-1.,0.,0.));
#563=DIRECTION('',(0.,0.,1.));
#564=DIRECTION('',(1.,0.,0.));
#565=DIRECTION('',(0.,0.,1.));
#566=DIRECTION('',(0.,0.,1.));
#567=DIRECTION('',(1.,0.,0.));
#568=DIRECTION('',(0.,0.,1.));
#569=DIRECTION('',(0.,0.,1.));
#570=DIRECTION('',(0.,0.,1.));
#571=DIRECTION('',(1.,0.,0.));
#572=DIRECTION('',(0.,0.,1.));
#573=DIRECTION('',(0.,0.,1.));
#574=DIRECTION('',(0.,0.,1.));
#575=DIRECTION('',(1.,0.,0.));
#576=DIRECTION('',(0.,0.,1.));
#577=DIRECTION('',(0.,0.,1.));
#578=DIRECTION('',(1.,0.,0.));
#579=DIRECTION('',(0.,0.,1.));
#580=DIRECTION('',(0.,0.,1.));
#581=DIRECTION('',(1.,0.,0.));
#582=DIRECTION('',(0.,0.,1.));
#583=DIRECTION('',(0.,0.,1.));
#584=DIRECTION('',(1.,0.,0.));
#585=DIRECTION('',(0.,0.,1.));
#586=DIRECTION('',(1.,0.,0.));
#587=DIRECTION('',(0.,1.,0.));
#588=DIRECTION('',(0.,0.,-1.));
#589=DIRECTION('',(-1.,0.,0.));
#590=DIRECTION('',(-1.,-2.8691169422668E-17,0.));
#591=DIRECTION('',(0.,-1.,0.));
#592=DIRECTION('',(0.,0.,-1.));
#593=DIRECTION('',(0.,0.,1.));
#594=DIRECTION('',(1.,0.,0.));
#595=DIRECTION('',(0.,0.,1.));
#596=DIRECTION('',(1.,0.,0.));
#597=DIRECTION('',(0.,0.,1.));
#598=DIRECTION('',(0.,0.,-1.));
#599=DIRECTION('',(-1.,0.,0.));
#600=DIRECTION('',(1.,0.,0.));
#601=DIRECTION('',(0.,0.,-1.));
#602=DIRECTION('',(0.,1.,0.));
#603=DIRECTION('',(1.,0.,0.));
#604=DIRECTION('',(0.,0.,-1.));
#605=DIRECTION('',(0.,0.,1.));
#606=DIRECTION('',(0.,1.,0.));
#607=DIRECTION('',(0.,0.,1.));
#608=DIRECTION('',(1.,0.,0.));
#609=DIRECTION('',(0.,0.,1.));
#610=DIRECTION('',(0.,0.,-1.));
#611=DIRECTION('',(-1.,0.,0.));
#612=DIRECTION('',(0.,-1.,0.));
#613=DIRECTION('',(0.,0.,-1.));
#614=DIRECTION('',(1.,0.,0.));
#615=DIRECTION('',(-2.8691169422668E-17,1.,0.));
#616=DIRECTION('',(-1.,-2.8691169422668E-17,0.));
#617=DIRECTION('',(0.,0.,1.));
#618=DIRECTION('',(-1.,-2.8691169422668E-17,0.));
#619=DIRECTION('',(0.,0.,1.));
#620=DIRECTION('',(1.,0.,0.));
#621=DIRECTION('',(0.,0.,1.));
#622=DIRECTION('',(0.,0.,-1.));
#623=DIRECTION('',(-1.,0.,0.));
#624=DIRECTION('',(1.,0.,0.));
#625=DIRECTION('',(0.,0.,-1.));
#626=DIRECTION('',(0.,1.,0.));
#627=DIRECTION('',(1.,0.,0.));
#628=DIRECTION('',(0.,0.,-1.));
#629=DIRECTION('',(0.,0.,1.));
#630=DIRECTION('',(0.,1.,0.));
#631=DIRECTION('',(0.,0.,1.));
#632=DIRECTION('',(1.,0.,0.));
#633=DIRECTION('',(0.,0.,1.));
#634=DIRECTION('',(0.,0.,-1.));
#635=DIRECTION('',(-1.,0.,0.));
#636=DIRECTION('',(-2.8691169422668E-17,1.,0.));
#637=DIRECTION('',(-1.,-2.8691169422668E-17,0.));
#638=DIRECTION('',(-1.,-2.8691169422668E-17,0.));
#639=DIRECTION('',(0.,0.,-1.));
#640=DIRECTION('',(1.,0.,0.));
#641=DIRECTION('',(-1.,0.,0.));
#642=DIRECTION('',(0.,0.,1.));
#643=DIRECTION('',(0.,0.,-1.));
#644=DIRECTION('',(0.,1.,0.));
#645=DIRECTION('',(0.,0.,-1.));
#646=DIRECTION('',(0.,0.,-1.));
#647=DIRECTION('',(-1.,0.,0.));
#648=DIRECTION('',(0.,0.,-1.));
#649=DIRECTION('',(0.,0.,-1.));
#650=DIRECTION('',(-1.,0.,0.));
#651=DIRECTION('',(0.,0.,-1.));
#652=DIRECTION('',(-1.,0.,0.));
#653=DIRECTION('',(0.,0.,-1.));
#654=DIRECTION('',(-1.,0.,0.));
#655=DIRECTION('',(0.,0.,-1.));
#656=DIRECTION('',(1.,1.37311291800758E-16,0.));
#657=DIRECTION('',(-1.37311291800758E-16,1.,0.));
#658=DIRECTION('',(-1.37311291800758E-16,1.,0.));
#659=DIRECTION('',(0.,0.,1.));
#660=DIRECTION('',(0.,-1.,0.));
#661=CARTESIAN_POINT('',(0.,0.,0.));
#662=CARTESIAN_POINT('',(0.,0.,-0.006));
#663=CARTESIAN_POINT('',(0.,-3.67394039744206E-19,-0.006));
#664=CARTESIAN_POINT('',(-0.006,-3.67394039744206E-19,-0.006));
#665=CARTESIAN_POINT('',(0.,0.,-0.006));
#666=CARTESIAN_POINT('',(0.002125,0.00174553000547112,-0.006));
#667=CARTESIAN_POINT('',(-0.002125,0.00174553000547112,-0.006));
#668=CARTESIAN_POINT('',(-0.002125,0.0031836194773671,-0.006));
#669=CARTESIAN_POINT('',(-0.002125,-0.00174553000547112,-0.006));
#670=CARTESIAN_POINT('',(0.,0.,-0.006));
#671=CARTESIAN_POINT('',(0.002125,-0.00174553000547112,-0.006));
#672=CARTESIAN_POINT('',(0.002125,0.0031836194773671,-0.006));
#673=CARTESIAN_POINT('',(0.,-3.67394039744206E-19,-0.006));
#674=CARTESIAN_POINT('',(0.,-3.67394039744206E-19,-0.003));
#675=CARTESIAN_POINT('',(-0.006,-3.67394039744206E-19,-0.003));
#676=CARTESIAN_POINT('',(0.,0.,0.));
#677=CARTESIAN_POINT('',(-0.0446561993966117,-0.0052293445648595,0.));
#678=CARTESIAN_POINT('',(-0.0295407169077186,-0.00522934456485949,0.));
#679=CARTESIAN_POINT('',(-0.0597716818855047,-0.0052293445648595,0.));
#680=CARTESIAN_POINT('',(1.7347234759768E-18,-6.50521303491303E-18,0.));
#681=CARTESIAN_POINT('',(-0.00522934456485948,-0.0295407169077186,0.));
#682=CARTESIAN_POINT('',(-0.00522934456485949,-0.0446561993966117,0.));
#683=CARTESIAN_POINT('',(-0.00522934456485949,-0.0597716818855047,0.));
#684=CARTESIAN_POINT('',(0.,3.67394039744206E-18,0.));
#685=CARTESIAN_POINT('',(0.,0.,0.));
#686=CARTESIAN_POINT('',(0.0446561993966117,0.0052293445648595,0.));
#687=CARTESIAN_POINT('',(0.0295407169077186,0.0052293445648595,0.));
#688=CARTESIAN_POINT('',(0.0597716818855047,0.0052293445648595,0.));
#689=CARTESIAN_POINT('',(-9.54097911787244E-18,3.90312782094781E-18,0.));
#690=CARTESIAN_POINT('',(0.00522934456485949,0.0295407169077186,0.));
#691=CARTESIAN_POINT('',(0.00522934456485949,0.0446561993966117,0.));
#692=CARTESIAN_POINT('',(0.00522934456485949,0.0597716818855047,0.));
#693=CARTESIAN_POINT('',(0.,3.67394039744206E-18,0.));
#694=CARTESIAN_POINT('',(0.,0.,0.));
#695=CARTESIAN_POINT('',(-0.00522934456485949,0.0446561993966117,0.));
#696=CARTESIAN_POINT('',(-0.00522934456485949,0.0295407169077186,0.));
#697=CARTESIAN_POINT('',(-0.00522934456485949,0.0597716818855047,0.));
#698=CARTESIAN_POINT('',(8.23993651088983E-18,-1.3010426069826E-18,0.));
#699=CARTESIAN_POINT('',(-0.0295407169077186,0.00522934456485953,0.));
#700=CARTESIAN_POINT('',(-0.0446561993966117,0.0052293445648595,0.));
#701=CARTESIAN_POINT('',(-0.0597716818855047,0.0052293445648595,0.));
#702=CARTESIAN_POINT('',(0.,3.67394039744206E-18,0.));
#703=CARTESIAN_POINT('',(0.,3.67394039744206E-18,0.003));
#704=CARTESIAN_POINT('',(0.,3.67394039744206E-18,0.003));
#705=CARTESIAN_POINT('',(0.06,3.67394039744206E-18,0.003));
#706=CARTESIAN_POINT('',(0.00522934456485949,0.0597716818855047,-0.003));
#707=CARTESIAN_POINT('',(0.00522934456485949,0.0597716818855047,-0.003));
#708=CARTESIAN_POINT('',(0.,3.67394039744206E-18,-0.003));
#709=CARTESIAN_POINT('',(-0.00522934456485949,0.0597716818855047,-0.003));
#710=CARTESIAN_POINT('',(-0.00522934456485949,0.0597716818855047,-0.003));
#711=CARTESIAN_POINT('',(-0.0597716818855047,0.0052293445648595,-0.003));
#712=CARTESIAN_POINT('',(-0.0597716818855047,0.0052293445648595,-0.003));
#713=CARTESIAN_POINT('',(0.,3.67394039744206E-18,-0.003));
#714=CARTESIAN_POINT('',(-0.0597716818855047,-0.0052293445648595,-0.003));
#715=CARTESIAN_POINT('',(-0.0597716818855047,-0.0052293445648595,-0.003));
#716=CARTESIAN_POINT('',(-0.00522934456485949,-0.0597716818855047,-0.003));
#717=CARTESIAN_POINT('',(-0.00522934456485949,-0.0597716818855047,-0.003));
#718=CARTESIAN_POINT('',(0.,3.67394039744206E-18,-0.003));
#719=CARTESIAN_POINT('',(0.00522934456485949,-0.0597716818855047,-0.003));
#720=CARTESIAN_POINT('',(0.00522934456485949,-0.0597716818855047,-0.003));
#721=CARTESIAN_POINT('',(0.00522934456485949,-0.0597716818855047,0.));
#722=CARTESIAN_POINT('',(0.,3.67394039744206E-18,0.));
#723=CARTESIAN_POINT('',(0.0597716818855047,-0.0052293445648595,0.));
#724=CARTESIAN_POINT('',(0.0597716818855047,-0.0052293445648595,-0.003));
#725=CARTESIAN_POINT('',(0.0597716818855047,-0.0052293445648595,-0.003));
#726=CARTESIAN_POINT('',(0.,3.67394039744206E-18,-0.003));
#727=CARTESIAN_POINT('',(0.0597716818855047,0.0052293445648595,-0.003));
#728=CARTESIAN_POINT('',(0.0597716818855047,0.0052293445648595,-0.003));
#729=CARTESIAN_POINT('',(0.,0.,0.003));
#730=CARTESIAN_POINT('',(0.,0.,0.));
#731=CARTESIAN_POINT('',(0.00522934456485949,-0.0446561993966117,0.));
#732=CARTESIAN_POINT('',(0.0052293445648595,-0.0295407169077186,0.));
#733=CARTESIAN_POINT('',(-5.63785129692462E-18,0.,0.));
#734=CARTESIAN_POINT('',(0.0295407169077186,-0.0052293445648595,0.));
#735=CARTESIAN_POINT('',(0.0446561993966117,-0.0052293445648595,0.));
#736=CARTESIAN_POINT('',(-0.0446561993966117,0.0052293445648595,-0.003));
#737=CARTESIAN_POINT('',(-0.0295407169077186,0.00522934456485953,-0.003));
#738=CARTESIAN_POINT('',(-0.0295407169077186,0.00522934456485953,-0.003));
#739=CARTESIAN_POINT('',(-0.0446561993966117,0.0052293445648595,-0.003));
#740=CARTESIAN_POINT('',(8.23993651088983E-18,-1.3010426069826E-18,-0.003));
#741=CARTESIAN_POINT('',(-0.00522934456485949,0.0295407169077186,-0.003));
#742=CARTESIAN_POINT('',(-0.00522934456485949,0.0295407169077186,-0.003));
#743=CARTESIAN_POINT('',(8.23993651088983E-18,-1.3010426069826E-18,-0.003));
#744=CARTESIAN_POINT('',(-0.00522934456485949,0.0446561993966117,-0.003));
#745=CARTESIAN_POINT('',(-0.00522934456485949,0.0446561993966117,-0.003));
#746=CARTESIAN_POINT('',(0.00522934456485949,0.0446561993966117,-0.003));
#747=CARTESIAN_POINT('',(0.00522934456485949,0.0295407169077186,-0.003));
#748=CARTESIAN_POINT('',(0.00522934456485949,0.0295407169077186,-0.003));
#749=CARTESIAN_POINT('',(0.00522934456485949,0.0446561993966117,-0.003));
#750=CARTESIAN_POINT('',(-9.54097911787244E-18,3.90312782094781E-18,-0.003));
#751=CARTESIAN_POINT('',(0.0295407169077186,0.0052293445648595,-0.003));
#752=CARTESIAN_POINT('',(0.0295407169077186,0.0052293445648595,-0.003));
#753=CARTESIAN_POINT('',(-9.54097911787244E-18,3.90312782094781E-18,-0.003));
#754=CARTESIAN_POINT('',(0.0446561993966117,0.0052293445648595,-0.003));
#755=CARTESIAN_POINT('',(0.0446561993966117,0.0052293445648595,-0.003));
#756=CARTESIAN_POINT('',(0.0446561993966117,-0.0052293445648595,-0.003));
#757=CARTESIAN_POINT('',(0.0295407169077186,-0.0052293445648595,-0.003));
#758=CARTESIAN_POINT('',(0.0295407169077186,-0.0052293445648595,-0.003));
#759=CARTESIAN_POINT('',(0.0446561993966117,-0.0052293445648595,-0.003));
#760=CARTESIAN_POINT('',(-5.63785129692462E-18,0.,-0.003));
#761=CARTESIAN_POINT('',(0.0052293445648595,-0.0295407169077186,-0.003));
#762=CARTESIAN_POINT('',(0.0052293445648595,-0.0295407169077186,-0.003));
#763=CARTESIAN_POINT('',(-5.63785129692462E-18,0.,-0.003));
#764=CARTESIAN_POINT('',(0.00522934456485949,-0.0446561993966117,-0.003));
#765=CARTESIAN_POINT('',(0.00522934456485949,-0.0446561993966117,-0.003));
#766=CARTESIAN_POINT('',(-0.00522934456485949,-0.0446561993966117,-0.003));
#767=CARTESIAN_POINT('',(-0.00522934456485947,-0.0295407169077186,-0.003));
#768=CARTESIAN_POINT('',(-0.00522934456485947,-0.0295407169077186,-0.003));
#769=CARTESIAN_POINT('',(-0.00522934456485949,-0.0446561993966117,-0.003));
#770=CARTESIAN_POINT('',(1.7347234759768E-18,-6.50521303491303E-18,-0.003));
#771=CARTESIAN_POINT('',(-0.0295407169077186,-0.00522934456485949,-0.003));
#772=CARTESIAN_POINT('',(-0.0295407169077186,-0.00522934456485949,-0.003));
#773=CARTESIAN_POINT('',(1.7347234759768E-18,-6.50521303491303E-18,-0.003));
#774=CARTESIAN_POINT('',(-0.0446561993966117,-0.0052293445648595,-0.003));
#775=CARTESIAN_POINT('',(-0.0446561993966117,-0.0052293445648595,-0.003));
#776=CARTESIAN_POINT('',(0.,0.,-0.003));
#777=CARTESIAN_POINT('',(-0.002125,0.0031836194773671,0.));
#778=CARTESIAN_POINT('',(-0.002125,0.00174553000547112,0.));
#779=CARTESIAN_POINT('',(-0.002125,0.00174553000547112,0.));
#780=CARTESIAN_POINT('',(-0.002125,0.0031836194773671,0.));
#781=CARTESIAN_POINT('',(-0.002125,-0.00174553000547112,0.));
#782=CARTESIAN_POINT('',(-0.002125,-0.00174553000547112,0.));
#783=CARTESIAN_POINT('',(0.,0.,0.));
#784=CARTESIAN_POINT('',(0.002125,0.00174553000547112,0.));
#785=CARTESIAN_POINT('',(0.002125,0.00174553000547112,0.));
#786=CARTESIAN_POINT('',(0.,0.,0.));
#787=CARTESIAN_POINT('',(0.,0.,0.));
#788=CARTESIAN_POINT('',(0.,0.,0.));
#789=CARTESIAN_POINT('',(0.002125,-0.00174553000547112,0.));
#790=CARTESIAN_POINT('',(0.002125,-0.00174553000547112,0.));
#791=CARTESIAN_POINT('',(0.002125,0.0031836194773671,0.));
#792=CARTESIAN_POINT('',(0.002125,0.0031836194773671,0.));
#793=CARTESIAN_POINT('',(0.,0.,0.));
#794=MECHANICAL_DESIGN_GEOMETRIC_PRESENTATION_REPRESENTATION('',(#460),
#795);
#795=(
GEOMETRIC_REPRESENTATION_CONTEXT(3)
GLOBAL_UNCERTAINTY_ASSIGNED_CONTEXT((#796))
GLOBAL_UNIT_ASSIGNED_CONTEXT((#799,#798,#797))
REPRESENTATION_CONTEXT('Part 1','TOP_LEVEL_ASSEMBLY_PART')
);
#796=UNCERTAINTY_MEASURE_WITH_UNIT(LENGTH_MEASURE(1.E-8),#799,
'DISTANCE_ACCURACY_VALUE','Maximum Tolerance applied to model');
#797=(
NAMED_UNIT(*)
SI_UNIT($,.STERADIAN.)
SOLID_ANGLE_UNIT()
);
#798=(
NAMED_UNIT(*)
PLANE_ANGLE_UNIT()
SI_UNIT($,.RADIAN.)
);
#799=(
LENGTH_UNIT()
NAMED_UNIT(*)
SI_UNIT($,.METRE.)
);
#800=PRODUCT_DEFINITION_SHAPE('','',#801);
#801=PRODUCT_DEFINITION('','',#803,#802);
#802=PRODUCT_DEFINITION_CONTEXT('',#809,'design');
#803=PRODUCT_DEFINITION_FORMATION_WITH_SPECIFIED_SOURCE('','',#805,
 .NOT_KNOWN.);
#804=PRODUCT_RELATED_PRODUCT_CATEGORY('','',(#805));
#805=PRODUCT('Part 1','Part 1','Part 1',(#807));
#806=PRODUCT_CATEGORY('','');
#807=PRODUCT_CONTEXT('',#809,'mechanical');
#808=APPLICATION_PROTOCOL_DEFINITION('international standard',
'ap242_managed_model_based_3d_engineering',2020,#809);
#809=APPLICATION_CONTEXT('managed model based 3d engineering');
ENDSEC;
END-ISO-10303-21;
