ISO-10303-21;
HEADER;
/* Generated by software containing ST-Developer
 * from STEP Tools, Inc. (www.steptools.com) 
 */
/* OPTION: using custom renumber hook */

FILE_DESCRIPTION(
/* description */ ('STEP AP242 Edition 2',
'CAx-IF Rec.Pracs.---Representation and Presentation of Product Manufa
cturing Information (PMI)---4.0---2014-10-13',
'CAx-IF Rec.Pracs.---3D Tessellated Geometry---0.4---2014-09-14','2;1',
'CAx-IF Rec.Pracs.---User Defined Attributes---1.5---2016-08-15'),
/* implementation_level */ '2;1');

FILE_NAME(
/* name */ 'v2 - Part 17',
/* time_stamp */ '2026-07-31T04:41:04Z',
/* author */ (''),
/* organization */ (''),
/* preprocessor_version */ 'ST-DEVELOPER v20',
/* originating_system */ 'ONSHAPE BY PTC INC, 1.218',
/* authorisation */ '  ');

FILE_SCHEMA (('AP242_MANAGED_MODEL_BASED_3D_ENGINEERING_MIM_LF { 1 0 10303 442 3 1 4 }'));
ENDSEC;

DATA;
#10=SHAPE_REPRESENTATION_RELATIONSHIP('','',#537,#11);
#11=ADVANCED_BREP_SHAPE_REPRESENTATION('',(#535),#839);
#12=ORIENTED_EDGE('',*,*,#156,.F.);
#13=ORIENTED_EDGE('',*,*,#157,.F.);
#14=ORIENTED_EDGE('',*,*,#158,.T.);
#15=ORIENTED_EDGE('',*,*,#159,.T.);
#16=ORIENTED_EDGE('',*,*,#160,.F.);
#17=ORIENTED_EDGE('',*,*,#161,.F.);
#18=ORIENTED_EDGE('',*,*,#162,.F.);
#19=ORIENTED_EDGE('',*,*,#163,.T.);
#20=ORIENTED_EDGE('',*,*,#164,.T.);
#21=ORIENTED_EDGE('',*,*,#165,.T.);
#22=ORIENTED_EDGE('',*,*,#166,.F.);
#23=ORIENTED_EDGE('',*,*,#167,.F.);
#24=ORIENTED_EDGE('',*,*,#168,.T.);
#25=ORIENTED_EDGE('',*,*,#169,.T.);
#26=ORIENTED_EDGE('',*,*,#170,.F.);
#27=ORIENTED_EDGE('',*,*,#171,.T.);
#28=ORIENTED_EDGE('',*,*,#172,.T.);
#29=ORIENTED_EDGE('',*,*,#173,.T.);
#30=ORIENTED_EDGE('',*,*,#174,.F.);
#31=ORIENTED_EDGE('',*,*,#162,.T.);
#32=ORIENTED_EDGE('',*,*,#174,.T.);
#33=ORIENTED_EDGE('',*,*,#175,.T.);
#34=ORIENTED_EDGE('',*,*,#176,.T.);
#35=ORIENTED_EDGE('',*,*,#177,.F.);
#36=ORIENTED_EDGE('',*,*,#178,.T.);
#37=ORIENTED_EDGE('',*,*,#170,.T.);
#38=ORIENTED_EDGE('',*,*,#179,.T.);
#39=ORIENTED_EDGE('',*,*,#180,.F.);
#40=ORIENTED_EDGE('',*,*,#181,.F.);
#41=ORIENTED_EDGE('',*,*,#166,.T.);
#42=ORIENTED_EDGE('',*,*,#182,.F.);
#43=ORIENTED_EDGE('',*,*,#183,.T.);
#44=ORIENTED_EDGE('',*,*,#184,.F.);
#45=ORIENTED_EDGE('',*,*,#185,.T.);
#46=ORIENTED_EDGE('',*,*,#186,.F.);
#47=ORIENTED_EDGE('',*,*,#187,.F.);
#48=ORIENTED_EDGE('',*,*,#188,.F.);
#49=ORIENTED_EDGE('',*,*,#189,.F.);
#50=ORIENTED_EDGE('',*,*,#190,.T.);
#51=ORIENTED_EDGE('',*,*,#159,.F.);
#52=ORIENTED_EDGE('',*,*,#191,.F.);
#53=ORIENTED_EDGE('',*,*,#192,.T.);
#54=ORIENTED_EDGE('',*,*,#193,.T.);
#55=ORIENTED_EDGE('',*,*,#163,.F.);
#56=ORIENTED_EDGE('',*,*,#168,.F.);
#57=ORIENTED_EDGE('',*,*,#194,.F.);
#58=ORIENTED_EDGE('',*,*,#195,.T.);
#59=ORIENTED_EDGE('',*,*,#196,.F.);
#60=ORIENTED_EDGE('',*,*,#197,.F.);
#61=ORIENTED_EDGE('',*,*,#172,.F.);
#62=ORIENTED_EDGE('',*,*,#161,.T.);
#63=ORIENTED_EDGE('',*,*,#198,.F.);
#64=ORIENTED_EDGE('',*,*,#199,.F.);
#65=ORIENTED_EDGE('',*,*,#200,.T.);
#66=ORIENTED_EDGE('',*,*,#157,.T.);
#67=ORIENTED_EDGE('',*,*,#201,.F.);
#68=ORIENTED_EDGE('',*,*,#202,.T.);
#69=ORIENTED_EDGE('',*,*,#203,.T.);
#70=ORIENTED_EDGE('',*,*,#204,.T.);
#71=ORIENTED_EDGE('',*,*,#205,.T.);
#72=ORIENTED_EDGE('',*,*,#206,.F.);
#73=ORIENTED_EDGE('',*,*,#207,.T.);
#74=ORIENTED_EDGE('',*,*,#208,.F.);
#75=ORIENTED_EDGE('',*,*,#209,.T.);
#76=ORIENTED_EDGE('',*,*,#164,.F.);
#77=ORIENTED_EDGE('',*,*,#210,.T.);
#78=ORIENTED_EDGE('',*,*,#211,.T.);
#79=ORIENTED_EDGE('',*,*,#212,.F.);
#80=ORIENTED_EDGE('',*,*,#204,.F.);
#81=ORIENTED_EDGE('',*,*,#213,.T.);
#82=ORIENTED_EDGE('',*,*,#187,.T.);
#83=ORIENTED_EDGE('',*,*,#214,.T.);
#84=ORIENTED_EDGE('',*,*,#215,.F.);
#85=ORIENTED_EDGE('',*,*,#194,.T.);
#86=ORIENTED_EDGE('',*,*,#171,.F.);
#87=ORIENTED_EDGE('',*,*,#178,.F.);
#88=ORIENTED_EDGE('',*,*,#186,.T.);
#89=ORIENTED_EDGE('',*,*,#216,.T.);
#90=ORIENTED_EDGE('',*,*,#205,.F.);
#91=ORIENTED_EDGE('',*,*,#214,.F.);
#92=ORIENTED_EDGE('',*,*,#217,.F.);
#93=ORIENTED_EDGE('',*,*,#206,.T.);
#94=ORIENTED_EDGE('',*,*,#216,.F.);
#95=ORIENTED_EDGE('',*,*,#185,.F.);
#96=ORIENTED_EDGE('',*,*,#175,.F.);
#97=ORIENTED_EDGE('',*,*,#173,.F.);
#98=ORIENTED_EDGE('',*,*,#197,.T.);
#99=ORIENTED_EDGE('',*,*,#218,.T.);
#100=ORIENTED_EDGE('',*,*,#176,.F.);
#101=ORIENTED_EDGE('',*,*,#218,.F.);
#102=ORIENTED_EDGE('',*,*,#196,.T.);
#103=ORIENTED_EDGE('',*,*,#219,.T.);
#104=ORIENTED_EDGE('',*,*,#177,.T.);
#105=ORIENTED_EDGE('',*,*,#219,.F.);
#106=ORIENTED_EDGE('',*,*,#195,.F.);
#107=ORIENTED_EDGE('',*,*,#215,.T.);
#108=ORIENTED_EDGE('',*,*,#181,.T.);
#109=ORIENTED_EDGE('',*,*,#220,.F.);
#110=ORIENTED_EDGE('',*,*,#210,.F.);
#111=ORIENTED_EDGE('',*,*,#167,.T.);
#112=ORIENTED_EDGE('',*,*,#179,.F.);
#113=ORIENTED_EDGE('',*,*,#169,.F.);
#114=ORIENTED_EDGE('',*,*,#212,.T.);
#115=ORIENTED_EDGE('',*,*,#221,.T.);
#116=ORIENTED_EDGE('',*,*,#180,.T.);
#117=ORIENTED_EDGE('',*,*,#221,.F.);
#118=ORIENTED_EDGE('',*,*,#211,.F.);
#119=ORIENTED_EDGE('',*,*,#220,.T.);
#120=ORIENTED_EDGE('',*,*,#184,.T.);
#121=ORIENTED_EDGE('',*,*,#222,.F.);
#122=ORIENTED_EDGE('',*,*,#207,.F.);
#123=ORIENTED_EDGE('',*,*,#217,.T.);
#124=ORIENTED_EDGE('',*,*,#182,.T.);
#125=ORIENTED_EDGE('',*,*,#165,.F.);
#126=ORIENTED_EDGE('',*,*,#209,.F.);
#127=ORIENTED_EDGE('',*,*,#223,.T.);
#128=ORIENTED_EDGE('',*,*,#183,.F.);
#129=ORIENTED_EDGE('',*,*,#223,.F.);
#130=ORIENTED_EDGE('',*,*,#208,.T.);
#131=ORIENTED_EDGE('',*,*,#222,.T.);
#132=ORIENTED_EDGE('',*,*,#191,.T.);
#133=ORIENTED_EDGE('',*,*,#158,.F.);
#134=ORIENTED_EDGE('',*,*,#200,.F.);
#135=ORIENTED_EDGE('',*,*,#224,.T.);
#136=ORIENTED_EDGE('',*,*,#192,.F.);
#137=ORIENTED_EDGE('',*,*,#224,.F.);
#138=ORIENTED_EDGE('',*,*,#199,.T.);
#139=ORIENTED_EDGE('',*,*,#225,.T.);
#140=ORIENTED_EDGE('',*,*,#193,.F.);
#141=ORIENTED_EDGE('',*,*,#225,.F.);
#142=ORIENTED_EDGE('',*,*,#198,.T.);
#143=ORIENTED_EDGE('',*,*,#160,.T.);
#144=ORIENTED_EDGE('',*,*,#188,.T.);
#145=ORIENTED_EDGE('',*,*,#213,.F.);
#146=ORIENTED_EDGE('',*,*,#203,.F.);
#147=ORIENTED_EDGE('',*,*,#226,.T.);
#148=ORIENTED_EDGE('',*,*,#189,.T.);
#149=ORIENTED_EDGE('',*,*,#226,.F.);
#150=ORIENTED_EDGE('',*,*,#202,.F.);
#151=ORIENTED_EDGE('',*,*,#227,.T.);
#152=ORIENTED_EDGE('',*,*,#190,.F.);
#153=ORIENTED_EDGE('',*,*,#227,.F.);
#154=ORIENTED_EDGE('',*,*,#201,.T.);
#155=ORIENTED_EDGE('',*,*,#156,.T.);
#156=EDGE_CURVE('',#228,#229,#276,.T.);
#157=EDGE_CURVE('',#230,#228,#277,.T.);
#158=EDGE_CURVE('',#230,#231,#278,.T.);
#159=EDGE_CURVE('',#231,#229,#279,.T.);
#160=EDGE_CURVE('',#232,#233,#280,.T.);
#161=EDGE_CURVE('',#234,#232,#281,.T.);
#162=EDGE_CURVE('',#235,#234,#282,.T.);
#163=EDGE_CURVE('',#235,#233,#283,.T.);
#164=EDGE_CURVE('',#236,#237,#284,.T.);
#165=EDGE_CURVE('',#237,#238,#285,.T.);
#166=EDGE_CURVE('',#239,#238,#286,.T.);
#167=EDGE_CURVE('',#236,#239,#287,.T.);
#168=EDGE_CURVE('',#240,#241,#288,.T.);
#169=EDGE_CURVE('',#241,#242,#289,.T.);
#170=EDGE_CURVE('',#243,#242,#290,.T.);
#171=EDGE_CURVE('',#243,#240,#291,.T.);
#172=EDGE_CURVE('',#234,#244,#292,.T.);
#173=EDGE_CURVE('',#244,#245,#293,.T.);
#174=EDGE_CURVE('',#235,#245,#294,.T.);
#175=EDGE_CURVE('',#245,#246,#295,.T.);
#176=EDGE_CURVE('',#246,#247,#296,.T.);
#177=EDGE_CURVE('',#248,#247,#297,.T.);
#178=EDGE_CURVE('',#248,#243,#298,.T.);
#179=EDGE_CURVE('',#242,#249,#299,.T.);
#180=EDGE_CURVE('',#250,#249,#300,.T.);
#181=EDGE_CURVE('',#239,#250,#301,.T.);
#182=EDGE_CURVE('',#251,#238,#302,.T.);
#183=EDGE_CURVE('',#251,#252,#303,.T.);
#184=EDGE_CURVE('',#253,#252,#304,.T.);
#185=EDGE_CURVE('',#253,#254,#305,.T.);
#186=EDGE_CURVE('',#255,#254,#306,.T.);
#187=EDGE_CURVE('',#256,#255,#307,.T.);
#188=EDGE_CURVE('',#257,#256,#308,.T.);
#189=EDGE_CURVE('',#258,#257,#309,.T.);
#190=EDGE_CURVE('',#258,#229,#310,.T.);
#191=EDGE_CURVE('',#259,#231,#311,.T.);
#192=EDGE_CURVE('',#259,#260,#312,.T.);
#193=EDGE_CURVE('',#260,#233,#313,.T.);
#194=EDGE_CURVE('',#261,#240,#314,.T.);
#195=EDGE_CURVE('',#261,#262,#315,.T.);
#196=EDGE_CURVE('',#263,#262,#316,.T.);
#197=EDGE_CURVE('',#244,#263,#317,.T.);
#198=EDGE_CURVE('',#264,#232,#318,.T.);
#199=EDGE_CURVE('',#265,#264,#319,.T.);
#200=EDGE_CURVE('',#265,#230,#320,.T.);
#201=EDGE_CURVE('',#266,#228,#321,.T.);
#202=EDGE_CURVE('',#266,#267,#322,.T.);
#203=EDGE_CURVE('',#267,#268,#323,.T.);
#204=EDGE_CURVE('',#268,#269,#324,.T.);
#205=EDGE_CURVE('',#269,#270,#325,.T.);
#206=EDGE_CURVE('',#271,#270,#326,.T.);
#207=EDGE_CURVE('',#271,#272,#327,.T.);
#208=EDGE_CURVE('',#273,#272,#328,.T.);
#209=EDGE_CURVE('',#273,#237,#329,.T.);
#210=EDGE_CURVE('',#236,#274,#330,.T.);
#211=EDGE_CURVE('',#274,#275,#331,.T.);
#212=EDGE_CURVE('',#241,#275,#332,.T.);
#213=EDGE_CURVE('',#268,#256,#333,.T.);
#214=EDGE_CURVE('',#255,#269,#334,.T.);
#215=EDGE_CURVE('',#261,#248,#335,.T.);
#216=EDGE_CURVE('',#254,#270,#336,.T.);
#217=EDGE_CURVE('',#271,#253,#337,.T.);
#218=EDGE_CURVE('',#263,#246,#338,.T.);
#219=EDGE_CURVE('',#262,#247,#339,.T.);
#220=EDGE_CURVE('',#274,#250,#340,.T.);
#221=EDGE_CURVE('',#275,#249,#341,.T.);
#222=EDGE_CURVE('',#272,#252,#342,.T.);
#223=EDGE_CURVE('',#273,#251,#343,.T.);
#224=EDGE_CURVE('',#265,#259,#344,.T.);
#225=EDGE_CURVE('',#264,#260,#345,.T.);
#226=EDGE_CURVE('',#267,#257,#346,.T.);
#227=EDGE_CURVE('',#266,#258,#347,.T.);
#228=VERTEX_POINT('',#694);
#229=VERTEX_POINT('',#695);
#230=VERTEX_POINT('',#697);
#231=VERTEX_POINT('',#699);
#232=VERTEX_POINT('',#703);
#233=VERTEX_POINT('',#704);
#234=VERTEX_POINT('',#706);
#235=VERTEX_POINT('',#708);
#236=VERTEX_POINT('',#712);
#237=VERTEX_POINT('',#713);
#238=VERTEX_POINT('',#715);
#239=VERTEX_POINT('',#717);
#240=VERTEX_POINT('',#721);
#241=VERTEX_POINT('',#722);
#242=VERTEX_POINT('',#724);
#243=VERTEX_POINT('',#726);
#244=VERTEX_POINT('',#730);
#245=VERTEX_POINT('',#732);
#246=VERTEX_POINT('',#736);
#247=VERTEX_POINT('',#738);
#248=VERTEX_POINT('',#740);
#249=VERTEX_POINT('',#743);
#250=VERTEX_POINT('',#745);
#251=VERTEX_POINT('',#748);
#252=VERTEX_POINT('',#750);
#253=VERTEX_POINT('',#752);
#254=VERTEX_POINT('',#754);
#255=VERTEX_POINT('',#756);
#256=VERTEX_POINT('',#758);
#257=VERTEX_POINT('',#760);
#258=VERTEX_POINT('',#762);
#259=VERTEX_POINT('',#765);
#260=VERTEX_POINT('',#767);
#261=VERTEX_POINT('',#771);
#262=VERTEX_POINT('',#773);
#263=VERTEX_POINT('',#775);
#264=VERTEX_POINT('',#778);
#265=VERTEX_POINT('',#780);
#266=VERTEX_POINT('',#783);
#267=VERTEX_POINT('',#785);
#268=VERTEX_POINT('',#787);
#269=VERTEX_POINT('',#789);
#270=VERTEX_POINT('',#791);
#271=VERTEX_POINT('',#793);
#272=VERTEX_POINT('',#795);
#273=VERTEX_POINT('',#797);
#274=VERTEX_POINT('',#800);
#275=VERTEX_POINT('',#802);
#276=LINE('',#693,#348);
#277=LINE('',#696,#349);
#278=LINE('',#698,#350);
#279=LINE('',#700,#351);
#280=LINE('',#702,#352);
#281=LINE('',#705,#353);
#282=LINE('',#707,#354);
#283=LINE('',#709,#355);
#284=LINE('',#711,#356);
#285=LINE('',#714,#357);
#286=LINE('',#716,#358);
#287=LINE('',#718,#359);
#288=LINE('',#720,#360);
#289=LINE('',#723,#361);
#290=LINE('',#725,#362);
#291=LINE('',#727,#363);
#292=LINE('',#729,#364);
#293=LINE('',#731,#365);
#294=LINE('',#733,#366);
#295=LINE('',#735,#367);
#296=LINE('',#737,#368);
#297=LINE('',#739,#369);
#298=LINE('',#741,#370);
#299=LINE('',#742,#371);
#300=LINE('',#744,#372);
#301=LINE('',#746,#373);
#302=LINE('',#747,#374);
#303=LINE('',#749,#375);
#304=LINE('',#751,#376);
#305=LINE('',#753,#377);
#306=LINE('',#755,#378);
#307=LINE('',#757,#379);
#308=LINE('',#759,#380);
#309=LINE('',#761,#381);
#310=LINE('',#763,#382);
#311=LINE('',#764,#383);
#312=LINE('',#766,#384);
#313=LINE('',#768,#385);
#314=LINE('',#770,#386);
#315=LINE('',#772,#387);
#316=LINE('',#774,#388);
#317=LINE('',#776,#389);
#318=LINE('',#777,#390);
#319=LINE('',#779,#391);
#320=LINE('',#781,#392);
#321=LINE('',#782,#393);
#322=LINE('',#784,#394);
#323=LINE('',#786,#395);
#324=LINE('',#788,#396);
#325=LINE('',#790,#397);
#326=LINE('',#792,#398);
#327=LINE('',#794,#399);
#328=LINE('',#796,#400);
#329=LINE('',#798,#401);
#330=LINE('',#799,#402);
#331=LINE('',#801,#403);
#332=LINE('',#803,#404);
#333=LINE('',#805,#405);
#334=LINE('',#806,#406);
#335=LINE('',#808,#407);
#336=LINE('',#810,#408);
#337=LINE('',#812,#409);
#338=LINE('',#814,#410);
#339=LINE('',#816,#411);
#340=LINE('',#819,#412);
#341=LINE('',#821,#413);
#342=LINE('',#824,#414);
#343=LINE('',#826,#415);
#344=LINE('',#829,#416);
#345=LINE('',#831,#417);
#346=LINE('',#834,#418);
#347=LINE('',#836,#419);
#348=VECTOR('',#569,1.);
#349=VECTOR('',#570,1.);
#350=VECTOR('',#571,1.);
#351=VECTOR('',#572,1.);
#352=VECTOR('',#575,1.);
#353=VECTOR('',#576,1.);
#354=VECTOR('',#577,1.);
#355=VECTOR('',#578,1.);
#356=VECTOR('',#581,1.);
#357=VECTOR('',#582,1.);
#358=VECTOR('',#583,1.);
#359=VECTOR('',#584,1.);
#360=VECTOR('',#587,1.);
#361=VECTOR('',#588,1.);
#362=VECTOR('',#589,1.);
#363=VECTOR('',#590,1.);
#364=VECTOR('',#593,1.);
#365=VECTOR('',#594,1.);
#366=VECTOR('',#595,1.);
#367=VECTOR('',#598,1.);
#368=VECTOR('',#599,1.);
#369=VECTOR('',#600,1.);
#370=VECTOR('',#601,1.);
#371=VECTOR('',#602,1.);
#372=VECTOR('',#603,1.);
#373=VECTOR('',#604,1.);
#374=VECTOR('',#605,1.);
#375=VECTOR('',#606,1.);
#376=VECTOR('',#607,1.);
#377=VECTOR('',#608,1.);
#378=VECTOR('',#609,1.);
#379=VECTOR('',#610,1.);
#380=VECTOR('',#611,1.);
#381=VECTOR('',#612,1.);
#382=VECTOR('',#613,1.);
#383=VECTOR('',#614,1.);
#384=VECTOR('',#615,1.);
#385=VECTOR('',#616,1.);
#386=VECTOR('',#619,1.);
#387=VECTOR('',#620,1.);
#388=VECTOR('',#621,1.);
#389=VECTOR('',#622,1.);
#390=VECTOR('',#623,1.);
#391=VECTOR('',#624,1.);
#392=VECTOR('',#625,1.);
#393=VECTOR('',#626,1.);
#394=VECTOR('',#627,1.);
#395=VECTOR('',#628,1.);
#396=VECTOR('',#629,1.);
#397=VECTOR('',#630,1.);
#398=VECTOR('',#631,1.);
#399=VECTOR('',#632,1.);
#400=VECTOR('',#633,1.);
#401=VECTOR('',#634,1.);
#402=VECTOR('',#635,1.);
#403=VECTOR('',#636,1.);
#404=VECTOR('',#637,1.);
#405=VECTOR('',#640,1.);
#406=VECTOR('',#641,1.);
#407=VECTOR('',#644,1.);
#408=VECTOR('',#647,1.);
#409=VECTOR('',#650,1.);
#410=VECTOR('',#653,1.);
#411=VECTOR('',#656,1.);
#412=VECTOR('',#661,1.);
#413=VECTOR('',#664,1.);
#414=VECTOR('',#669,1.);
#415=VECTOR('',#672,1.);
#416=VECTOR('',#677,1.);
#417=VECTOR('',#680,1.);
#418=VECTOR('',#685,1.);
#419=VECTOR('',#688,1.);
#420=EDGE_LOOP('',(#12,#13,#14,#15));
#421=EDGE_LOOP('',(#16,#17,#18,#19));
#422=EDGE_LOOP('',(#20,#21,#22,#23));
#423=EDGE_LOOP('',(#24,#25,#26,#27));
#424=EDGE_LOOP('',(#28,#29,#30,#31));
#425=EDGE_LOOP('',(#32,#33,#34,#35,#36,#37,#38,#39,#40,#41,#42,#43,#44,
#45,#46,#47,#48,#49,#50,#51,#52,#53,#54,#55));
#426=EDGE_LOOP('',(#56,#57,#58,#59,#60,#61,#62,#63,#64,#65,#66,#67,#68,
#69,#70,#71,#72,#73,#74,#75,#76,#77,#78,#79));
#427=EDGE_LOOP('',(#80,#81,#82,#83));
#428=EDGE_LOOP('',(#84,#85,#86,#87));
#429=EDGE_LOOP('',(#88,#89,#90,#91));
#430=EDGE_LOOP('',(#92,#93,#94,#95));
#431=EDGE_LOOP('',(#96,#97,#98,#99));
#432=EDGE_LOOP('',(#100,#101,#102,#103));
#433=EDGE_LOOP('',(#104,#105,#106,#107));
#434=EDGE_LOOP('',(#108,#109,#110,#111));
#435=EDGE_LOOP('',(#112,#113,#114,#115));
#436=EDGE_LOOP('',(#116,#117,#118,#119));
#437=EDGE_LOOP('',(#120,#121,#122,#123));
#438=EDGE_LOOP('',(#124,#125,#126,#127));
#439=EDGE_LOOP('',(#128,#129,#130,#131));
#440=EDGE_LOOP('',(#132,#133,#134,#135));
#441=EDGE_LOOP('',(#136,#137,#138,#139));
#442=EDGE_LOOP('',(#140,#141,#142,#143));
#443=EDGE_LOOP('',(#144,#145,#146,#147));
#444=EDGE_LOOP('',(#148,#149,#150,#151));
#445=EDGE_LOOP('',(#152,#153,#154,#155));
#446=FACE_BOUND('',#420,.T.);
#447=FACE_BOUND('',#421,.T.);
#448=FACE_BOUND('',#422,.T.);
#449=FACE_BOUND('',#423,.T.);
#450=FACE_BOUND('',#424,.T.);
#451=FACE_BOUND('',#425,.T.);
#452=FACE_BOUND('',#426,.T.);
#453=FACE_BOUND('',#427,.T.);
#454=FACE_BOUND('',#428,.T.);
#455=FACE_BOUND('',#429,.T.);
#456=FACE_BOUND('',#430,.T.);
#457=FACE_BOUND('',#431,.T.);
#458=FACE_BOUND('',#432,.T.);
#459=FACE_BOUND('',#433,.T.);
#460=FACE_BOUND('',#434,.T.);
#461=FACE_BOUND('',#435,.T.);
#462=FACE_BOUND('',#436,.T.);
#463=FACE_BOUND('',#437,.T.);
#464=FACE_BOUND('',#438,.T.);
#465=FACE_BOUND('',#439,.T.);
#466=FACE_BOUND('',#440,.T.);
#467=FACE_BOUND('',#441,.T.);
#468=FACE_BOUND('',#442,.T.);
#469=FACE_BOUND('',#443,.T.);
#470=FACE_BOUND('',#444,.T.);
#471=FACE_BOUND('',#445,.T.);
#472=PLANE('',#539);
#473=PLANE('',#540);
#474=PLANE('',#541);
#475=PLANE('',#542);
#476=PLANE('',#543);
#477=PLANE('',#544);
#478=PLANE('',#545);
#479=PLANE('',#546);
#480=PLANE('',#547);
#481=PLANE('',#548);
#482=PLANE('',#549);
#483=PLANE('',#550);
#484=PLANE('',#551);
#485=PLANE('',#552);
#486=PLANE('',#553);
#487=PLANE('',#554);
#488=PLANE('',#555);
#489=PLANE('',#556);
#490=PLANE('',#557);
#491=PLANE('',#558);
#492=PLANE('',#559);
#493=PLANE('',#560);
#494=PLANE('',#561);
#495=PLANE('',#562);
#496=PLANE('',#563);
#497=PLANE('',#564);
#498=ADVANCED_FACE('',(#446),#472,.F.);
#499=ADVANCED_FACE('',(#447),#473,.F.);
#500=ADVANCED_FACE('',(#448),#474,.T.);
#501=ADVANCED_FACE('',(#449),#475,.T.);
#502=ADVANCED_FACE('',(#450),#476,.T.);
#503=ADVANCED_FACE('',(#451),#477,.T.);
#504=ADVANCED_FACE('',(#452),#478,.F.);
#505=ADVANCED_FACE('',(#453),#479,.F.);
#506=ADVANCED_FACE('',(#454),#480,.T.);
#507=ADVANCED_FACE('',(#455),#481,.F.);
#508=ADVANCED_FACE('',(#456),#482,.T.);
#509=ADVANCED_FACE('',(#457),#483,.T.);
#510=ADVANCED_FACE('',(#458),#484,.T.);
#511=ADVANCED_FACE('',(#459),#485,.F.);
#512=ADVANCED_FACE('',(#460),#486,.F.);
#513=ADVANCED_FACE('',(#461),#487,.T.);
#514=ADVANCED_FACE('',(#462),#488,.F.);
#515=ADVANCED_FACE('',(#463),#489,.F.);
#516=ADVANCED_FACE('',(#464),#490,.F.);
#517=ADVANCED_FACE('',(#465),#491,.T.);
#518=ADVANCED_FACE('',(#466),#492,.F.);
#519=ADVANCED_FACE('',(#467),#493,.T.);
#520=ADVANCED_FACE('',(#468),#494,.T.);
#521=ADVANCED_FACE('',(#469),#495,.F.);
#522=ADVANCED_FACE('',(#470),#496,.F.);
#523=ADVANCED_FACE('',(#471),#497,.T.);
#524=CLOSED_SHELL('',(#498,#499,#500,#501,#502,#503,#504,#505,#506,#507,
#508,#509,#510,#511,#512,#513,#514,#515,#516,#517,#518,#519,#520,#521,#522,
#523));
#525=STYLED_ITEM('',(#526),#535);
#526=PRESENTATION_STYLE_ASSIGNMENT((#527));
#527=SURFACE_STYLE_USAGE(.BOTH.,#528);
#528=SURFACE_SIDE_STYLE('',(#531,#529));
#529=SURFACE_STYLE_RENDERING_WITH_PROPERTIES(.CONSTANT_SHADING.,#534,(#530));
#530=SURFACE_STYLE_TRANSPARENT(0.2);
#531=SURFACE_STYLE_FILL_AREA(#532);
#532=FILL_AREA_STYLE('',(#533));
#533=FILL_AREA_STYLE_COLOUR('',#534);
#534=COLOUR_RGB('',0.917647058823529,0.917647058823529,0.917647058823529);
#535=MANIFOLD_SOLID_BREP('Part 17',#524);
#536=SHAPE_DEFINITION_REPRESENTATION(#844,#537);
#537=SHAPE_REPRESENTATION('Part 17',(#538),#839);
#538=AXIS2_PLACEMENT_3D('',#691,#565,#566);
#539=AXIS2_PLACEMENT_3D('',#692,#567,#568);
#540=AXIS2_PLACEMENT_3D('',#701,#573,#574);
#541=AXIS2_PLACEMENT_3D('',#710,#579,#580);
#542=AXIS2_PLACEMENT_3D('',#719,#585,#586);
#543=AXIS2_PLACEMENT_3D('',#728,#591,#592);
#544=AXIS2_PLACEMENT_3D('',#734,#596,#597);
#545=AXIS2_PLACEMENT_3D('',#769,#617,#618);
#546=AXIS2_PLACEMENT_3D('',#804,#638,#639);
#547=AXIS2_PLACEMENT_3D('',#807,#642,#643);
#548=AXIS2_PLACEMENT_3D('',#809,#645,#646);
#549=AXIS2_PLACEMENT_3D('',#811,#648,#649);
#550=AXIS2_PLACEMENT_3D('',#813,#651,#652);
#551=AXIS2_PLACEMENT_3D('',#815,#654,#655);
#552=AXIS2_PLACEMENT_3D('',#817,#657,#658);
#553=AXIS2_PLACEMENT_3D('',#818,#659,#660);
#554=AXIS2_PLACEMENT_3D('',#820,#662,#663);
#555=AXIS2_PLACEMENT_3D('',#822,#665,#666);
#556=AXIS2_PLACEMENT_3D('',#823,#667,#668);
#557=AXIS2_PLACEMENT_3D('',#825,#670,#671);
#558=AXIS2_PLACEMENT_3D('',#827,#673,#674);
#559=AXIS2_PLACEMENT_3D('',#828,#675,#676);
#560=AXIS2_PLACEMENT_3D('',#830,#678,#679);
#561=AXIS2_PLACEMENT_3D('',#832,#681,#682);
#562=AXIS2_PLACEMENT_3D('',#833,#683,#684);
#563=AXIS2_PLACEMENT_3D('',#835,#686,#687);
#564=AXIS2_PLACEMENT_3D('',#837,#689,#690);
#565=DIRECTION('',(0.,0.,1.));
#566=DIRECTION('',(1.,0.,0.));
#567=DIRECTION('',(0.,1.,0.));
#568=DIRECTION('',(0.,0.,1.));
#569=DIRECTION('',(1.,0.,0.));
#570=DIRECTION('',(0.,0.,1.));
#571=DIRECTION('',(1.,0.,0.));
#572=DIRECTION('',(0.,0.,1.));
#573=DIRECTION('',(0.,1.,0.));
#574=DIRECTION('',(0.,0.,1.));
#575=DIRECTION('',(1.,0.,0.));
#576=DIRECTION('',(0.,0.,1.));
#577=DIRECTION('',(-1.,0.,0.));
#578=DIRECTION('',(0.,0.,1.));
#579=DIRECTION('',(0.,1.,0.));
#580=DIRECTION('',(0.,0.,1.));
#581=DIRECTION('',(0.,0.,1.));
#582=DIRECTION('',(1.,0.,0.));
#583=DIRECTION('',(0.,0.,1.));
#584=DIRECTION('',(1.,0.,0.));
#585=DIRECTION('',(0.,1.,0.));
#586=DIRECTION('',(0.,0.,1.));
#587=DIRECTION('',(0.,0.,1.));
#588=DIRECTION('',(1.,0.,0.));
#589=DIRECTION('',(0.,0.,1.));
#590=DIRECTION('',(-1.,0.,0.));
#591=DIRECTION('',(0.,0.,-1.));
#592=DIRECTION('',(1.,0.,0.));
#593=DIRECTION('',(0.,1.,0.));
#594=DIRECTION('',(1.,-2.1350442781253E-16,0.));
#595=DIRECTION('',(0.,1.,0.));
#596=DIRECTION('',(1.,0.,0.));
#597=DIRECTION('',(0.,0.,-1.));
#598=DIRECTION('',(-1.2345704771713E-31,-5.78241158658936E-16,-1.));
#599=DIRECTION('',(2.1350442781253E-16,1.,0.));
#600=DIRECTION('',(0.,0.,-1.));
#601=DIRECTION('',(0.,1.,0.));
#602=DIRECTION('',(0.,1.,0.));
#603=DIRECTION('',(0.,0.,-1.));
#604=DIRECTION('',(0.,1.,0.));
#605=DIRECTION('',(0.,-1.,0.));
#606=DIRECTION('',(0.,0.,1.));
#607=DIRECTION('',(0.,1.,0.));
#608=DIRECTION('',(0.,0.,1.));
#609=DIRECTION('',(0.,1.,0.));
#610=DIRECTION('',(0.,0.,1.));
#611=DIRECTION('',(0.,1.,0.));
#612=DIRECTION('',(0.,0.,1.));
#613=DIRECTION('',(0.,1.,0.));
#614=DIRECTION('',(0.,1.,0.));
#615=DIRECTION('',(0.,0.,-1.));
#616=DIRECTION('',(0.,1.,0.));
#617=DIRECTION('',(1.,0.,0.));
#618=DIRECTION('',(0.,0.,-1.));
#619=DIRECTION('',(0.,1.,0.));
#620=DIRECTION('',(0.,0.,-1.));
#621=DIRECTION('',(2.1350442781253E-16,1.,0.));
#622=DIRECTION('',(-1.2345704771713E-31,-5.78241158658936E-16,-1.));
#623=DIRECTION('',(0.,1.,0.));
#624=DIRECTION('',(0.,0.,-1.));
#625=DIRECTION('',(0.,1.,0.));
#626=DIRECTION('',(0.,1.,0.));
#627=DIRECTION('',(0.,0.,1.));
#628=DIRECTION('',(0.,1.,0.));
#629=DIRECTION('',(0.,0.,1.));
#630=DIRECTION('',(0.,1.,0.));
#631=DIRECTION('',(0.,0.,1.));
#632=DIRECTION('',(0.,1.,0.));
#633=DIRECTION('',(0.,0.,1.));
#634=DIRECTION('',(0.,-1.,0.));
#635=DIRECTION('',(0.,1.,0.));
#636=DIRECTION('',(0.,0.,-1.));
#637=DIRECTION('',(0.,1.,0.));
#638=DIRECTION('',(0.,1.,0.));
#639=DIRECTION('',(0.,0.,1.));
#640=DIRECTION('',(1.,0.,0.));
#641=DIRECTION('',(-1.,0.,0.));
#642=DIRECTION('',(0.,0.,-1.));
#643=DIRECTION('',(1.,0.,0.));
#644=DIRECTION('',(1.,-2.1350442781253E-16,0.));
#645=DIRECTION('',(0.,0.,-1.));
#646=DIRECTION('',(1.,0.,0.));
#647=DIRECTION('',(-1.,0.,0.));
#648=DIRECTION('',(0.,1.,0.));
#649=DIRECTION('',(0.,0.,1.));
#650=DIRECTION('',(1.,0.,0.));
#651=DIRECTION('',(-2.1350442781253E-16,-1.,5.78241158658936E-16));
#652=DIRECTION('',(0.,-5.78241158658936E-16,-1.));
#653=DIRECTION('',(1.,-2.1350442781253E-16,0.));
#654=DIRECTION('',(0.,0.,-1.));
#655=DIRECTION('',(-1.,0.,0.));
#656=DIRECTION('',(1.,-2.1350442781253E-16,0.));
#657=DIRECTION('',(-2.1350442781253E-16,-1.,0.));
#658=DIRECTION('',(1.,-2.1350442781253E-16,0.));
#659=DIRECTION('',(0.,0.,-1.));
#660=DIRECTION('',(-1.,0.,0.));
#661=DIRECTION('',(1.,0.,0.));
#662=DIRECTION('',(0.,0.,-1.));
#663=DIRECTION('',(-1.,0.,0.));
#664=DIRECTION('',(1.,0.,0.));
#665=DIRECTION('',(0.,-1.,0.));
#666=DIRECTION('',(0.,0.,-1.));
#667=DIRECTION('',(0.,0.,-1.));
#668=DIRECTION('',(-1.,0.,0.));
#669=DIRECTION('',(1.,0.,0.));
#670=DIRECTION('',(0.,0.,1.));
#671=DIRECTION('',(1.,0.,0.));
#672=DIRECTION('',(1.,0.,0.));
#673=DIRECTION('',(0.,1.,0.));
#674=DIRECTION('',(0.,0.,1.));
#675=DIRECTION('',(0.,0.,-1.));
#676=DIRECTION('',(-1.,0.,0.));
#677=DIRECTION('',(1.,0.,0.));
#678=DIRECTION('',(0.,-1.,0.));
#679=DIRECTION('',(0.,0.,-1.));
#680=DIRECTION('',(1.,0.,0.));
#681=DIRECTION('',(0.,0.,-1.));
#682=DIRECTION('',(-1.,0.,0.));
#683=DIRECTION('',(0.,0.,-1.));
#684=DIRECTION('',(-1.,0.,0.));
#685=DIRECTION('',(1.,0.,0.));
#686=DIRECTION('',(0.,1.,0.));
#687=DIRECTION('',(0.,0.,1.));
#688=DIRECTION('',(1.,0.,0.));
#689=DIRECTION('',(0.,0.,-1.));
#690=DIRECTION('',(-1.,0.,0.));
#691=CARTESIAN_POINT('',(0.,0.,0.));
#692=CARTESIAN_POINT('',(0.0665,-0.115,0.003));
#693=CARTESIAN_POINT('',(0.065,-0.115,0.093));
#694=CARTESIAN_POINT('',(0.065,-0.115,0.093));
#695=CARTESIAN_POINT('',(0.068,-0.115,0.093));
#696=CARTESIAN_POINT('',(0.065,-0.115,0.003));
#697=CARTESIAN_POINT('',(0.065,-0.115,0.053));
#698=CARTESIAN_POINT('',(0.065,-0.115,0.053));
#699=CARTESIAN_POINT('',(0.068,-0.115,0.053));
#700=CARTESIAN_POINT('',(0.068,-0.115,0.003));
#701=CARTESIAN_POINT('',(0.0665,-0.115,0.003));
#702=CARTESIAN_POINT('',(0.065,-0.115,0.033));
#703=CARTESIAN_POINT('',(0.065,-0.115,0.033));
#704=CARTESIAN_POINT('',(0.068,-0.115,0.033));
#705=CARTESIAN_POINT('',(0.065,-0.115,0.003));
#706=CARTESIAN_POINT('',(0.065,-0.115,0.003));
#707=CARTESIAN_POINT('',(0.0665,-0.115,0.003));
#708=CARTESIAN_POINT('',(0.068,-0.115,0.003));
#709=CARTESIAN_POINT('',(0.068,-0.115,0.003));
#710=CARTESIAN_POINT('',(0.,0.065,0.003));
#711=CARTESIAN_POINT('',(0.065,0.065,0.003));
#712=CARTESIAN_POINT('',(0.065,0.065,0.053));
#713=CARTESIAN_POINT('',(0.065,0.065,0.093));
#714=CARTESIAN_POINT('',(0.065,0.065,0.093));
#715=CARTESIAN_POINT('',(0.068,0.065,0.093));
#716=CARTESIAN_POINT('',(0.068,0.065,0.003));
#717=CARTESIAN_POINT('',(0.068,0.065,0.053));
#718=CARTESIAN_POINT('',(0.065,0.065,0.053));
#719=CARTESIAN_POINT('',(0.,0.065,0.003));
#720=CARTESIAN_POINT('',(0.065,0.065,0.003));
#721=CARTESIAN_POINT('',(0.065,0.065,0.003));
#722=CARTESIAN_POINT('',(0.065,0.065,0.033));
#723=CARTESIAN_POINT('',(0.065,0.065,0.033));
#724=CARTESIAN_POINT('',(0.068,0.065,0.033));
#725=CARTESIAN_POINT('',(0.068,0.065,0.003));
#726=CARTESIAN_POINT('',(0.068,0.065,0.003));
#727=CARTESIAN_POINT('',(0.,0.065,0.003));
#728=CARTESIAN_POINT('',(-1.38777878078145E-17,-0.025,0.003));
#729=CARTESIAN_POINT('',(0.065,-0.0235,0.003));
#730=CARTESIAN_POINT('',(0.065,-0.005,0.003));
#731=CARTESIAN_POINT('',(0.065,-0.005,0.003));
#732=CARTESIAN_POINT('',(0.068,-0.00500000000000006,0.003));
#733=CARTESIAN_POINT('',(0.068,-0.11,0.003));
#734=CARTESIAN_POINT('',(0.068,-0.11,0.003));
#735=CARTESIAN_POINT('',(0.068,-0.005,0.0015));
#736=CARTESIAN_POINT('',(0.068,-0.005,0.));
#737=CARTESIAN_POINT('',(0.068,0.015,0.));
#738=CARTESIAN_POINT('',(0.068,0.035,0.));
#739=CARTESIAN_POINT('',(0.068,0.035,0.0015));
#740=CARTESIAN_POINT('',(0.068,0.035,0.003));
#741=CARTESIAN_POINT('',(0.068,-0.11,0.003));
#742=CARTESIAN_POINT('',(0.068,0.0665,0.033));
#743=CARTESIAN_POINT('',(0.068,0.068,0.033));
#744=CARTESIAN_POINT('',(0.068,0.068,0.043));
#745=CARTESIAN_POINT('',(0.068,0.068,0.053));
#746=CARTESIAN_POINT('',(0.068,0.0665,0.053));
#747=CARTESIAN_POINT('',(0.068,0.0665,0.093));
#748=CARTESIAN_POINT('',(0.068,0.068,0.093));
#749=CARTESIAN_POINT('',(0.068,0.068,0.103));
#750=CARTESIAN_POINT('',(0.068,0.068,0.113));
#751=CARTESIAN_POINT('',(0.068,0.0665,0.113));
#752=CARTESIAN_POINT('',(0.068,0.065,0.113));
#753=CARTESIAN_POINT('',(0.068,0.065,0.003));
#754=CARTESIAN_POINT('',(0.068,0.065,0.143));
#755=CARTESIAN_POINT('',(0.068,-0.11,0.143));
#756=CARTESIAN_POINT('',(0.068,-0.115,0.143));
#757=CARTESIAN_POINT('',(0.068,-0.115,0.003));
#758=CARTESIAN_POINT('',(0.068,-0.115,0.113));
#759=CARTESIAN_POINT('',(0.068,-0.1165,0.113));
#760=CARTESIAN_POINT('',(0.068,-0.118,0.113));
#761=CARTESIAN_POINT('',(0.068,-0.118,0.103));
#762=CARTESIAN_POINT('',(0.068,-0.118,0.093));
#763=CARTESIAN_POINT('',(0.068,-0.1165,0.093));
#764=CARTESIAN_POINT('',(0.068,-0.1165,0.053));
#765=CARTESIAN_POINT('',(0.068,-0.118,0.053));
#766=CARTESIAN_POINT('',(0.068,-0.118,0.043));
#767=CARTESIAN_POINT('',(0.068,-0.118,0.033));
#768=CARTESIAN_POINT('',(0.068,-0.1165,0.033));
#769=CARTESIAN_POINT('',(0.065,-0.0235,0.003));
#770=CARTESIAN_POINT('',(0.065,-0.0235,0.003));
#771=CARTESIAN_POINT('',(0.065,0.035,0.003));
#772=CARTESIAN_POINT('',(0.065,0.035,0.0015));
#773=CARTESIAN_POINT('',(0.065,0.035,0.));
#774=CARTESIAN_POINT('',(0.065,0.015,0.));
#775=CARTESIAN_POINT('',(0.065,-0.005,0.));
#776=CARTESIAN_POINT('',(0.065,-0.005,0.0015));
#777=CARTESIAN_POINT('',(0.065,-0.1165,0.033));
#778=CARTESIAN_POINT('',(0.065,-0.118,0.033));
#779=CARTESIAN_POINT('',(0.065,-0.118,0.043));
#780=CARTESIAN_POINT('',(0.065,-0.118,0.053));
#781=CARTESIAN_POINT('',(0.065,-0.1165,0.053));
#782=CARTESIAN_POINT('',(0.065,-0.1165,0.093));
#783=CARTESIAN_POINT('',(0.065,-0.118,0.093));
#784=CARTESIAN_POINT('',(0.065,-0.118,0.103));
#785=CARTESIAN_POINT('',(0.065,-0.118,0.113));
#786=CARTESIAN_POINT('',(0.065,-0.1165,0.113));
#787=CARTESIAN_POINT('',(0.065,-0.115,0.113));
#788=CARTESIAN_POINT('',(0.065,-0.115,0.003));
#789=CARTESIAN_POINT('',(0.065,-0.115,0.143));
#790=CARTESIAN_POINT('',(0.065,-0.0235,0.143));
#791=CARTESIAN_POINT('',(0.065,0.065,0.143));
#792=CARTESIAN_POINT('',(0.065,0.065,0.003));
#793=CARTESIAN_POINT('',(0.065,0.065,0.113));
#794=CARTESIAN_POINT('',(0.065,0.0665,0.113));
#795=CARTESIAN_POINT('',(0.065,0.068,0.113));
#796=CARTESIAN_POINT('',(0.065,0.068,0.103));
#797=CARTESIAN_POINT('',(0.065,0.068,0.093));
#798=CARTESIAN_POINT('',(0.065,0.0665,0.093));
#799=CARTESIAN_POINT('',(0.065,0.0665,0.053));
#800=CARTESIAN_POINT('',(0.065,0.068,0.053));
#801=CARTESIAN_POINT('',(0.065,0.068,0.043));
#802=CARTESIAN_POINT('',(0.065,0.068,0.033));
#803=CARTESIAN_POINT('',(0.065,0.0665,0.033));
#804=CARTESIAN_POINT('',(0.0665,-0.115,0.003));
#805=CARTESIAN_POINT('',(0.065,-0.115,0.113));
#806=CARTESIAN_POINT('',(0.0665,-0.115,0.143));
#807=CARTESIAN_POINT('',(-1.38777878078145E-17,-0.025,0.003));
#808=CARTESIAN_POINT('',(0.065,0.035,0.003));
#809=CARTESIAN_POINT('',(-1.38777878078145E-17,-0.025,0.143));
#810=CARTESIAN_POINT('',(0.,0.065,0.143));
#811=CARTESIAN_POINT('',(0.,0.065,0.003));
#812=CARTESIAN_POINT('',(0.065,0.065,0.113));
#813=CARTESIAN_POINT('',(0.065,-0.005,0.0015));
#814=CARTESIAN_POINT('',(0.065,-0.005,0.));
#815=CARTESIAN_POINT('',(0.065,0.015,0.));
#816=CARTESIAN_POINT('',(0.065,0.035,0.));
#817=CARTESIAN_POINT('',(0.065,0.035,0.0015));
#818=CARTESIAN_POINT('',(0.065,0.0665,0.053));
#819=CARTESIAN_POINT('',(0.065,0.068,0.053));
#820=CARTESIAN_POINT('',(0.065,0.0665,0.033));
#821=CARTESIAN_POINT('',(0.065,0.068,0.033));
#822=CARTESIAN_POINT('',(0.065,0.068,0.043));
#823=CARTESIAN_POINT('',(0.065,0.0665,0.113));
#824=CARTESIAN_POINT('',(0.065,0.068,0.113));
#825=CARTESIAN_POINT('',(0.065,0.0665,0.093));
#826=CARTESIAN_POINT('',(0.065,0.068,0.093));
#827=CARTESIAN_POINT('',(0.065,0.068,0.103));
#828=CARTESIAN_POINT('',(0.065,-0.1165,0.053));
#829=CARTESIAN_POINT('',(0.065,-0.118,0.053));
#830=CARTESIAN_POINT('',(0.065,-0.118,0.043));
#831=CARTESIAN_POINT('',(0.065,-0.118,0.033));
#832=CARTESIAN_POINT('',(0.065,-0.1165,0.033));
#833=CARTESIAN_POINT('',(0.065,-0.1165,0.113));
#834=CARTESIAN_POINT('',(0.065,-0.118,0.113));
#835=CARTESIAN_POINT('',(0.065,-0.118,0.103));
#836=CARTESIAN_POINT('',(0.065,-0.118,0.093));
#837=CARTESIAN_POINT('',(0.065,-0.1165,0.093));
#838=MECHANICAL_DESIGN_GEOMETRIC_PRESENTATION_REPRESENTATION('',(#525),
#839);
#839=(
GEOMETRIC_REPRESENTATION_CONTEXT(3)
GLOBAL_UNCERTAINTY_ASSIGNED_CONTEXT((#840))
GLOBAL_UNIT_ASSIGNED_CONTEXT((#843,#842,#841))
REPRESENTATION_CONTEXT('Part 17','TOP_LEVEL_ASSEMBLY_PART')
);
#840=UNCERTAINTY_MEASURE_WITH_UNIT(LENGTH_MEASURE(1.E-8),#843,
'DISTANCE_ACCURACY_VALUE','Maximum Tolerance applied to model');
#841=(
NAMED_UNIT(*)
SI_UNIT($,.STERADIAN.)
SOLID_ANGLE_UNIT()
);
#842=(
NAMED_UNIT(*)
PLANE_ANGLE_UNIT()
SI_UNIT($,.RADIAN.)
);
#843=(
LENGTH_UNIT()
NAMED_UNIT(*)
SI_UNIT($,.METRE.)
);
#844=PRODUCT_DEFINITION_SHAPE('','',#845);
#845=PRODUCT_DEFINITION('','',#847,#846);
#846=PRODUCT_DEFINITION_CONTEXT('',#853,'design');
#847=PRODUCT_DEFINITION_FORMATION_WITH_SPECIFIED_SOURCE('','',#849,
 .NOT_KNOWN.);
#848=PRODUCT_RELATED_PRODUCT_CATEGORY('','',(#849));
#849=PRODUCT('Part 17','Part 17','Part 17',(#851));
#850=PRODUCT_CATEGORY('','');
#851=PRODUCT_CONTEXT('',#853,'mechanical');
#852=APPLICATION_PROTOCOL_DEFINITION('international standard',
'ap242_managed_model_based_3d_engineering',2020,#853);
#853=APPLICATION_CONTEXT('managed model based 3d engineering');
ENDSEC;
END-ISO-10303-21;
