ISO-10303-21;
HEADER;
/* Generated by software containing ST-Developer
 * from STEP Tools, Inc. (www.steptools.com) 
 */
/* OPTION: using custom renumber hook */

FILE_DESCRIPTION(
/* description */ ('STEP AP242 Edition 2',
'CAx-IF Rec.Pracs.---Representation and Presentation of Product Manufa
cturing Information (PMI)---4.0---2014-10-13',
'CAx-IF Rec.Pracs.---3D Tessellated Geometry---0.4---2014-09-14','2;1',
'CAx-IF Rec.Pracs.---User Defined Attributes---1.5---2016-08-15'),
/* implementation_level */ '2;1');

FILE_NAME(
/* name */ 'v2 - Part 3',
/* time_stamp */ '2026-07-31T04:32:57Z',
/* author */ (''),
/* organization */ (''),
/* preprocessor_version */ 'ST-DEVELOPER v20',
/* originating_system */ 'ONSHAPE BY PTC INC, 1.218',
/* authorisation */ '  ');

FILE_SCHEMA (('AP242_MANAGED_MODEL_BASED_3D_ENGINEERING_MIM_LF { 1 0 10303 442 3 1 4 }'));
ENDSEC;

DATA;
#10=SHAPE_REPRESENTATION_RELATIONSHIP('','',#1059,#11);
#11=ADVANCED_BREP_SHAPE_REPRESENTATION('',(#1057),#1679);
#12=CYLINDRICAL_SURFACE('',#1089,0.00100000000000002);
#13=CYLINDRICAL_SURFACE('',#1091,0.001);
#14=CYLINDRICAL_SURFACE('',#1093,0.001);
#15=CYLINDRICAL_SURFACE('',#1095,0.001);
#16=CYLINDRICAL_SURFACE('',#1119,0.0605);
#17=LINE('',#1386,#153);
#18=LINE('',#1391,#154);
#19=LINE('',#1395,#155);
#20=LINE('',#1399,#156);
#21=LINE('',#1402,#157);
#22=LINE('',#1405,#158);
#23=LINE('',#1407,#159);
#24=LINE('',#1409,#160);
#25=LINE('',#1411,#161);
#26=LINE('',#1413,#162);
#27=LINE('',#1415,#163);
#28=LINE('',#1417,#164);
#29=LINE('',#1419,#165);
#30=LINE('',#1421,#166);
#31=LINE('',#1423,#167);
#32=LINE('',#1425,#168);
#33=LINE('',#1427,#169);
#34=LINE('',#1429,#170);
#35=LINE('',#1431,#171);
#36=LINE('',#1433,#172);
#37=LINE('',#1435,#173);
#38=LINE('',#1437,#174);
#39=LINE('',#1439,#175);
#40=LINE('',#1441,#176);
#41=LINE('',#1443,#177);
#42=LINE('',#1445,#178);
#43=LINE('',#1447,#179);
#44=LINE('',#1449,#180);
#45=LINE('',#1451,#181);
#46=LINE('',#1453,#182);
#47=LINE('',#1455,#183);
#48=LINE('',#1457,#184);
#49=LINE('',#1459,#185);
#50=LINE('',#1461,#186);
#51=LINE('',#1463,#187);
#52=LINE('',#1465,#188);
#53=LINE('',#1467,#189);
#54=LINE('',#1469,#190);
#55=LINE('',#1471,#191);
#56=LINE('',#1473,#192);
#57=LINE('',#1474,#193);
#58=LINE('',#1477,#194);
#59=LINE('',#1479,#195);
#60=LINE('',#1481,#196);
#61=LINE('',#1486,#197);
#62=LINE('',#1490,#198);
#63=LINE('',#1494,#199);
#64=LINE('',#1498,#200);
#65=LINE('',#1499,#201);
#66=LINE('',#1502,#202);
#67=LINE('',#1504,#203);
#68=LINE('',#1506,#204);
#69=LINE('',#1508,#205);
#70=LINE('',#1510,#206);
#71=LINE('',#1512,#207);
#72=LINE('',#1514,#208);
#73=LINE('',#1516,#209);
#74=LINE('',#1518,#210);
#75=LINE('',#1520,#211);
#76=LINE('',#1522,#212);
#77=LINE('',#1524,#213);
#78=LINE('',#1526,#214);
#79=LINE('',#1528,#215);
#80=LINE('',#1530,#216);
#81=LINE('',#1532,#217);
#82=LINE('',#1534,#218);
#83=LINE('',#1536,#219);
#84=LINE('',#1538,#220);
#85=LINE('',#1540,#221);
#86=LINE('',#1542,#222);
#87=LINE('',#1544,#223);
#88=LINE('',#1546,#224);
#89=LINE('',#1548,#225);
#90=LINE('',#1550,#226);
#91=LINE('',#1552,#227);
#92=LINE('',#1554,#228);
#93=LINE('',#1556,#229);
#94=LINE('',#1558,#230);
#95=LINE('',#1560,#231);
#96=LINE('',#1562,#232);
#97=LINE('',#1564,#233);
#98=LINE('',#1566,#234);
#99=LINE('',#1568,#235);
#100=LINE('',#1570,#236);
#101=LINE('',#1573,#237);
#102=LINE('',#1576,#238);
#103=LINE('',#1578,#239);
#104=LINE('',#1580,#240);
#105=LINE('',#1582,#241);
#106=LINE('',#1583,#242);
#107=LINE('',#1585,#243);
#108=LINE('',#1586,#244);
#109=LINE('',#1588,#245);
#110=LINE('',#1590,#246);
#111=LINE('',#1591,#247);
#112=LINE('',#1593,#248);
#113=LINE('',#1595,#249);
#114=LINE('',#1597,#250);
#115=LINE('',#1600,#251);
#116=LINE('',#1602,#252);
#117=LINE('',#1605,#253);
#118=LINE('',#1607,#254);
#119=LINE('',#1609,#255);
#120=LINE('',#1611,#256);
#121=LINE('',#1613,#257);
#122=LINE('',#1614,#258);
#123=LINE('',#1616,#259);
#124=LINE('',#1618,#260);
#125=LINE('',#1620,#261);
#126=LINE('',#1622,#262);
#127=LINE('',#1624,#263);
#128=LINE('',#1626,#264);
#129=LINE('',#1629,#265);
#130=LINE('',#1630,#266);
#131=LINE('',#1632,#267);
#132=LINE('',#1633,#268);
#133=LINE('',#1635,#269);
#134=LINE('',#1636,#270);
#135=LINE('',#1638,#271);
#136=LINE('',#1639,#272);
#137=LINE('',#1641,#273);
#138=LINE('',#1642,#274);
#139=LINE('',#1644,#275);
#140=LINE('',#1645,#276);
#141=LINE('',#1647,#277);
#142=LINE('',#1648,#278);
#143=LINE('',#1650,#279);
#144=LINE('',#1652,#280);
#145=LINE('',#1654,#281);
#146=LINE('',#1656,#282);
#147=LINE('',#1659,#283);
#148=LINE('',#1661,#284);
#149=LINE('',#1664,#285);
#150=LINE('',#1666,#286);
#151=LINE('',#1670,#287);
#152=LINE('',#1672,#288);
#153=VECTOR('',#1128,1.);
#154=VECTOR('',#1131,1.);
#155=VECTOR('',#1134,1.);
#156=VECTOR('',#1137,1.);
#157=VECTOR('',#1140,1.);
#158=VECTOR('',#1141,1.);
#159=VECTOR('',#1142,1.);
#160=VECTOR('',#1143,1.);
#161=VECTOR('',#1144,1.);
#162=VECTOR('',#1145,1.);
#163=VECTOR('',#1146,1.);
#164=VECTOR('',#1147,1.);
#165=VECTOR('',#1148,1.);
#166=VECTOR('',#1149,1.);
#167=VECTOR('',#1150,1.);
#168=VECTOR('',#1151,1.);
#169=VECTOR('',#1152,1.);
#170=VECTOR('',#1153,1.);
#171=VECTOR('',#1154,1.);
#172=VECTOR('',#1155,1.);
#173=VECTOR('',#1156,1.);
#174=VECTOR('',#1157,1.);
#175=VECTOR('',#1158,1.);
#176=VECTOR('',#1159,1.);
#177=VECTOR('',#1160,1.);
#178=VECTOR('',#1161,1.);
#179=VECTOR('',#1162,1.);
#180=VECTOR('',#1163,1.);
#181=VECTOR('',#1164,1.);
#182=VECTOR('',#1165,1.);
#183=VECTOR('',#1166,1.);
#184=VECTOR('',#1167,1.);
#185=VECTOR('',#1168,1.);
#186=VECTOR('',#1169,1.);
#187=VECTOR('',#1170,1.);
#188=VECTOR('',#1171,1.);
#189=VECTOR('',#1172,1.);
#190=VECTOR('',#1173,1.);
#191=VECTOR('',#1174,1.);
#192=VECTOR('',#1175,1.);
#193=VECTOR('',#1176,1.);
#194=VECTOR('',#1177,1.);
#195=VECTOR('',#1178,1.);
#196=VECTOR('',#1179,1.);
#197=VECTOR('',#1184,1.);
#198=VECTOR('',#1187,1.);
#199=VECTOR('',#1190,1.);
#200=VECTOR('',#1193,1.);
#201=VECTOR('',#1194,1.);
#202=VECTOR('',#1195,1.);
#203=VECTOR('',#1196,1.);
#204=VECTOR('',#1197,1.);
#205=VECTOR('',#1198,1.);
#206=VECTOR('',#1199,1.);
#207=VECTOR('',#1200,1.);
#208=VECTOR('',#1201,1.);
#209=VECTOR('',#1202,1.);
#210=VECTOR('',#1203,1.);
#211=VECTOR('',#1204,1.);
#212=VECTOR('',#1205,1.);
#213=VECTOR('',#1206,1.);
#214=VECTOR('',#1207,1.);
#215=VECTOR('',#1208,1.);
#216=VECTOR('',#1209,1.);
#217=VECTOR('',#1210,1.);
#218=VECTOR('',#1211,1.);
#219=VECTOR('',#1212,1.);
#220=VECTOR('',#1213,1.);
#221=VECTOR('',#1214,1.);
#222=VECTOR('',#1215,1.);
#223=VECTOR('',#1216,1.);
#224=VECTOR('',#1217,1.);
#225=VECTOR('',#1218,1.);
#226=VECTOR('',#1219,1.);
#227=VECTOR('',#1220,1.);
#228=VECTOR('',#1221,1.);
#229=VECTOR('',#1222,1.);
#230=VECTOR('',#1223,1.);
#231=VECTOR('',#1224,1.);
#232=VECTOR('',#1225,1.);
#233=VECTOR('',#1226,1.);
#234=VECTOR('',#1227,1.);
#235=VECTOR('',#1228,1.);
#236=VECTOR('',#1229,1.);
#237=VECTOR('',#1232,1.);
#238=VECTOR('',#1233,1.);
#239=VECTOR('',#1234,1.);
#240=VECTOR('',#1235,1.);
#241=VECTOR('',#1238,1.);
#242=VECTOR('',#1239,1.);
#243=VECTOR('',#1242,1.);
#244=VECTOR('',#1243,1.);
#245=VECTOR('',#1246,1.);
#246=VECTOR('',#1249,1.);
#247=VECTOR('',#1250,1.);
#248=VECTOR('',#1253,1.);
#249=VECTOR('',#1256,1.);
#250=VECTOR('',#1259,1.);
#251=VECTOR('',#1264,1.);
#252=VECTOR('',#1267,1.);
#253=VECTOR('',#1272,1.);
#254=VECTOR('',#1275,1.);
#255=VECTOR('',#1278,1.);
#256=VECTOR('',#1281,1.);
#257=VECTOR('',#1284,1.);
#258=VECTOR('',#1285,1.);
#259=VECTOR('',#1288,1.);
#260=VECTOR('',#1291,1.);
#261=VECTOR('',#1294,1.);
#262=VECTOR('',#1297,1.);
#263=VECTOR('',#1300,1.);
#264=VECTOR('',#1303,1.);
#265=VECTOR('',#1308,1.);
#266=VECTOR('',#1309,1.);
#267=VECTOR('',#1312,1.);
#268=VECTOR('',#1313,1.);
#269=VECTOR('',#1316,1.);
#270=VECTOR('',#1317,1.);
#271=VECTOR('',#1320,1.);
#272=VECTOR('',#1321,1.);
#273=VECTOR('',#1324,1.);
#274=VECTOR('',#1325,1.);
#275=VECTOR('',#1328,1.);
#276=VECTOR('',#1329,1.);
#277=VECTOR('',#1332,1.);
#278=VECTOR('',#1333,1.);
#279=VECTOR('',#1336,1.);
#280=VECTOR('',#1339,1.);
#281=VECTOR('',#1342,1.);
#282=VECTOR('',#1345,1.);
#283=VECTOR('',#1350,1.);
#284=VECTOR('',#1353,1.);
#285=VECTOR('',#1358,1.);
#286=VECTOR('',#1361,1.);
#287=VECTOR('',#1368,1.);
#288=VECTOR('',#1371,1.);
#289=ORIENTED_EDGE('',*,*,#581,.T.);
#290=ORIENTED_EDGE('',*,*,#582,.F.);
#291=ORIENTED_EDGE('',*,*,#583,.T.);
#292=ORIENTED_EDGE('',*,*,#584,.F.);
#293=ORIENTED_EDGE('',*,*,#585,.T.);
#294=ORIENTED_EDGE('',*,*,#586,.T.);
#295=ORIENTED_EDGE('',*,*,#587,.T.);
#296=ORIENTED_EDGE('',*,*,#588,.T.);
#297=ORIENTED_EDGE('',*,*,#589,.T.);
#298=ORIENTED_EDGE('',*,*,#590,.F.);
#299=ORIENTED_EDGE('',*,*,#591,.T.);
#300=ORIENTED_EDGE('',*,*,#592,.T.);
#301=ORIENTED_EDGE('',*,*,#593,.F.);
#302=ORIENTED_EDGE('',*,*,#594,.F.);
#303=ORIENTED_EDGE('',*,*,#595,.F.);
#304=ORIENTED_EDGE('',*,*,#596,.F.);
#305=ORIENTED_EDGE('',*,*,#597,.T.);
#306=ORIENTED_EDGE('',*,*,#598,.F.);
#307=ORIENTED_EDGE('',*,*,#599,.F.);
#308=ORIENTED_EDGE('',*,*,#600,.T.);
#309=ORIENTED_EDGE('',*,*,#601,.T.);
#310=ORIENTED_EDGE('',*,*,#602,.F.);
#311=ORIENTED_EDGE('',*,*,#603,.T.);
#312=ORIENTED_EDGE('',*,*,#604,.F.);
#313=ORIENTED_EDGE('',*,*,#605,.F.);
#314=ORIENTED_EDGE('',*,*,#606,.T.);
#315=ORIENTED_EDGE('',*,*,#607,.F.);
#316=ORIENTED_EDGE('',*,*,#608,.F.);
#317=ORIENTED_EDGE('',*,*,#609,.T.);
#318=ORIENTED_EDGE('',*,*,#610,.T.);
#319=ORIENTED_EDGE('',*,*,#611,.F.);
#320=ORIENTED_EDGE('',*,*,#612,.T.);
#321=ORIENTED_EDGE('',*,*,#613,.F.);
#322=ORIENTED_EDGE('',*,*,#614,.F.);
#323=ORIENTED_EDGE('',*,*,#615,.T.);
#324=ORIENTED_EDGE('',*,*,#616,.T.);
#325=ORIENTED_EDGE('',*,*,#617,.F.);
#326=ORIENTED_EDGE('',*,*,#618,.T.);
#327=ORIENTED_EDGE('',*,*,#619,.T.);
#328=ORIENTED_EDGE('',*,*,#620,.T.);
#329=ORIENTED_EDGE('',*,*,#621,.T.);
#330=ORIENTED_EDGE('',*,*,#622,.F.);
#331=ORIENTED_EDGE('',*,*,#623,.F.);
#332=ORIENTED_EDGE('',*,*,#624,.T.);
#333=ORIENTED_EDGE('',*,*,#625,.T.);
#334=ORIENTED_EDGE('',*,*,#626,.F.);
#335=ORIENTED_EDGE('',*,*,#627,.T.);
#336=ORIENTED_EDGE('',*,*,#628,.T.);
#337=ORIENTED_EDGE('',*,*,#629,.F.);
#338=ORIENTED_EDGE('',*,*,#630,.F.);
#339=ORIENTED_EDGE('',*,*,#631,.T.);
#340=ORIENTED_EDGE('',*,*,#632,.F.);
#341=ORIENTED_EDGE('',*,*,#633,.F.);
#342=ORIENTED_EDGE('',*,*,#634,.F.);
#343=ORIENTED_EDGE('',*,*,#635,.F.);
#344=ORIENTED_EDGE('',*,*,#636,.F.);
#345=ORIENTED_EDGE('',*,*,#637,.T.);
#346=ORIENTED_EDGE('',*,*,#638,.F.);
#347=ORIENTED_EDGE('',*,*,#639,.T.);
#348=ORIENTED_EDGE('',*,*,#640,.T.);
#349=ORIENTED_EDGE('',*,*,#641,.F.);
#350=ORIENTED_EDGE('',*,*,#642,.T.);
#351=ORIENTED_EDGE('',*,*,#643,.F.);
#352=ORIENTED_EDGE('',*,*,#644,.T.);
#353=ORIENTED_EDGE('',*,*,#645,.T.);
#354=ORIENTED_EDGE('',*,*,#646,.T.);
#355=ORIENTED_EDGE('',*,*,#647,.F.);
#356=ORIENTED_EDGE('',*,*,#648,.T.);
#357=ORIENTED_EDGE('',*,*,#649,.T.);
#358=ORIENTED_EDGE('',*,*,#650,.T.);
#359=ORIENTED_EDGE('',*,*,#651,.T.);
#360=ORIENTED_EDGE('',*,*,#652,.F.);
#361=ORIENTED_EDGE('',*,*,#653,.F.);
#362=ORIENTED_EDGE('',*,*,#654,.T.);
#363=ORIENTED_EDGE('',*,*,#655,.F.);
#364=ORIENTED_EDGE('',*,*,#656,.F.);
#365=ORIENTED_EDGE('',*,*,#657,.F.);
#366=ORIENTED_EDGE('',*,*,#658,.T.);
#367=ORIENTED_EDGE('',*,*,#659,.F.);
#368=ORIENTED_EDGE('',*,*,#660,.F.);
#369=ORIENTED_EDGE('',*,*,#661,.F.);
#370=ORIENTED_EDGE('',*,*,#662,.F.);
#371=ORIENTED_EDGE('',*,*,#663,.T.);
#372=ORIENTED_EDGE('',*,*,#664,.F.);
#373=ORIENTED_EDGE('',*,*,#665,.F.);
#374=ORIENTED_EDGE('',*,*,#666,.F.);
#375=ORIENTED_EDGE('',*,*,#667,.T.);
#376=ORIENTED_EDGE('',*,*,#668,.F.);
#377=ORIENTED_EDGE('',*,*,#669,.T.);
#378=ORIENTED_EDGE('',*,*,#670,.F.);
#379=ORIENTED_EDGE('',*,*,#671,.T.);
#380=ORIENTED_EDGE('',*,*,#672,.T.);
#381=ORIENTED_EDGE('',*,*,#673,.T.);
#382=ORIENTED_EDGE('',*,*,#674,.F.);
#383=ORIENTED_EDGE('',*,*,#675,.F.);
#384=ORIENTED_EDGE('',*,*,#676,.T.);
#385=ORIENTED_EDGE('',*,*,#677,.T.);
#386=ORIENTED_EDGE('',*,*,#678,.F.);
#387=ORIENTED_EDGE('',*,*,#679,.F.);
#388=ORIENTED_EDGE('',*,*,#646,.F.);
#389=ORIENTED_EDGE('',*,*,#680,.T.);
#390=ORIENTED_EDGE('',*,*,#598,.T.);
#391=ORIENTED_EDGE('',*,*,#681,.F.);
#392=ORIENTED_EDGE('',*,*,#642,.F.);
#393=ORIENTED_EDGE('',*,*,#682,.T.);
#394=ORIENTED_EDGE('',*,*,#602,.T.);
#395=ORIENTED_EDGE('',*,*,#641,.T.);
#396=ORIENTED_EDGE('',*,*,#683,.T.);
#397=ORIENTED_EDGE('',*,*,#603,.F.);
#398=ORIENTED_EDGE('',*,*,#682,.F.);
#399=ORIENTED_EDGE('',*,*,#684,.F.);
#400=ORIENTED_EDGE('',*,*,#651,.F.);
#401=ORIENTED_EDGE('',*,*,#685,.T.);
#402=ORIENTED_EDGE('',*,*,#593,.T.);
#403=ORIENTED_EDGE('',*,*,#650,.F.);
#404=ORIENTED_EDGE('',*,*,#686,.T.);
#405=ORIENTED_EDGE('',*,*,#594,.T.);
#406=ORIENTED_EDGE('',*,*,#685,.F.);
#407=ORIENTED_EDGE('',*,*,#680,.F.);
#408=ORIENTED_EDGE('',*,*,#645,.F.);
#409=ORIENTED_EDGE('',*,*,#687,.T.);
#410=ORIENTED_EDGE('',*,*,#599,.T.);
#411=ORIENTED_EDGE('',*,*,#681,.T.);
#412=ORIENTED_EDGE('',*,*,#601,.F.);
#413=ORIENTED_EDGE('',*,*,#688,.F.);
#414=ORIENTED_EDGE('',*,*,#643,.T.);
#415=ORIENTED_EDGE('',*,*,#687,.F.);
#416=ORIENTED_EDGE('',*,*,#644,.F.);
#417=ORIENTED_EDGE('',*,*,#688,.T.);
#418=ORIENTED_EDGE('',*,*,#600,.F.);
#419=ORIENTED_EDGE('',*,*,#679,.T.);
#420=ORIENTED_EDGE('',*,*,#597,.F.);
#421=ORIENTED_EDGE('',*,*,#689,.F.);
#422=ORIENTED_EDGE('',*,*,#647,.T.);
#423=ORIENTED_EDGE('',*,*,#686,.F.);
#424=ORIENTED_EDGE('',*,*,#649,.F.);
#425=ORIENTED_EDGE('',*,*,#690,.T.);
#426=ORIENTED_EDGE('',*,*,#595,.T.);
#427=ORIENTED_EDGE('',*,*,#648,.F.);
#428=ORIENTED_EDGE('',*,*,#689,.T.);
#429=ORIENTED_EDGE('',*,*,#596,.T.);
#430=ORIENTED_EDGE('',*,*,#690,.F.);
#431=ORIENTED_EDGE('',*,*,#683,.F.);
#432=ORIENTED_EDGE('',*,*,#640,.F.);
#433=ORIENTED_EDGE('',*,*,#691,.T.);
#434=ORIENTED_EDGE('',*,*,#604,.T.);
#435=ORIENTED_EDGE('',*,*,#605,.T.);
#436=ORIENTED_EDGE('',*,*,#691,.F.);
#437=ORIENTED_EDGE('',*,*,#639,.F.);
#438=ORIENTED_EDGE('',*,*,#692,.T.);
#439=ORIENTED_EDGE('',*,*,#684,.T.);
#440=ORIENTED_EDGE('',*,*,#592,.F.);
#441=ORIENTED_EDGE('',*,*,#693,.F.);
#442=ORIENTED_EDGE('',*,*,#652,.T.);
#443=ORIENTED_EDGE('',*,*,#653,.T.);
#444=ORIENTED_EDGE('',*,*,#693,.T.);
#445=ORIENTED_EDGE('',*,*,#591,.F.);
#446=ORIENTED_EDGE('',*,*,#694,.F.);
#447=ORIENTED_EDGE('',*,*,#582,.T.);
#448=ORIENTED_EDGE('',*,*,#695,.T.);
#449=ORIENTED_EDGE('',*,*,#631,.F.);
#450=ORIENTED_EDGE('',*,*,#696,.F.);
#451=ORIENTED_EDGE('',*,*,#696,.T.);
#452=ORIENTED_EDGE('',*,*,#630,.T.);
#453=ORIENTED_EDGE('',*,*,#697,.F.);
#454=ORIENTED_EDGE('',*,*,#583,.F.);
#455=ORIENTED_EDGE('',*,*,#584,.T.);
#456=ORIENTED_EDGE('',*,*,#697,.T.);
#457=ORIENTED_EDGE('',*,*,#637,.F.);
#458=ORIENTED_EDGE('',*,*,#698,.F.);
#459=ORIENTED_EDGE('',*,*,#698,.T.);
#460=ORIENTED_EDGE('',*,*,#636,.T.);
#461=ORIENTED_EDGE('',*,*,#699,.F.);
#462=ORIENTED_EDGE('',*,*,#585,.F.);
#463=ORIENTED_EDGE('',*,*,#699,.T.);
#464=ORIENTED_EDGE('',*,*,#635,.T.);
#465=ORIENTED_EDGE('',*,*,#700,.F.);
#466=ORIENTED_EDGE('',*,*,#586,.F.);
#467=ORIENTED_EDGE('',*,*,#700,.T.);
#468=ORIENTED_EDGE('',*,*,#634,.T.);
#469=ORIENTED_EDGE('',*,*,#701,.F.);
#470=ORIENTED_EDGE('',*,*,#587,.F.);
#471=ORIENTED_EDGE('',*,*,#701,.T.);
#472=ORIENTED_EDGE('',*,*,#633,.T.);
#473=ORIENTED_EDGE('',*,*,#702,.F.);
#474=ORIENTED_EDGE('',*,*,#588,.F.);
#475=ORIENTED_EDGE('',*,*,#702,.T.);
#476=ORIENTED_EDGE('',*,*,#632,.T.);
#477=ORIENTED_EDGE('',*,*,#695,.F.);
#478=ORIENTED_EDGE('',*,*,#589,.F.);
#479=ORIENTED_EDGE('',*,*,#626,.T.);
#480=ORIENTED_EDGE('',*,*,#703,.T.);
#481=ORIENTED_EDGE('',*,*,#676,.F.);
#482=ORIENTED_EDGE('',*,*,#704,.F.);
#483=ORIENTED_EDGE('',*,*,#628,.F.);
#484=ORIENTED_EDGE('',*,*,#705,.T.);
#485=ORIENTED_EDGE('',*,*,#678,.T.);
#486=ORIENTED_EDGE('',*,*,#706,.F.);
#487=ORIENTED_EDGE('',*,*,#655,.T.);
#488=ORIENTED_EDGE('',*,*,#707,.T.);
#489=ORIENTED_EDGE('',*,*,#625,.F.);
#490=ORIENTED_EDGE('',*,*,#708,.F.);
#491=ORIENTED_EDGE('',*,*,#659,.T.);
#492=ORIENTED_EDGE('',*,*,#709,.T.);
#493=ORIENTED_EDGE('',*,*,#621,.F.);
#494=ORIENTED_EDGE('',*,*,#710,.F.);
#495=ORIENTED_EDGE('',*,*,#711,.F.);
#496=ORIENTED_EDGE('',*,*,#669,.F.);
#497=ORIENTED_EDGE('',*,*,#712,.T.);
#498=ORIENTED_EDGE('',*,*,#611,.T.);
#499=ORIENTED_EDGE('',*,*,#673,.F.);
#500=ORIENTED_EDGE('',*,*,#713,.T.);
#501=ORIENTED_EDGE('',*,*,#607,.T.);
#502=ORIENTED_EDGE('',*,*,#714,.F.);
#503=ORIENTED_EDGE('',*,*,#664,.T.);
#504=ORIENTED_EDGE('',*,*,#715,.T.);
#505=ORIENTED_EDGE('',*,*,#616,.F.);
#506=ORIENTED_EDGE('',*,*,#716,.F.);
#507=ORIENTED_EDGE('',*,*,#668,.T.);
#508=ORIENTED_EDGE('',*,*,#717,.T.);
#509=ORIENTED_EDGE('',*,*,#612,.F.);
#510=ORIENTED_EDGE('',*,*,#712,.F.);
#511=ORIENTED_EDGE('',*,*,#718,.F.);
#512=ORIENTED_EDGE('',*,*,#660,.T.);
#513=ORIENTED_EDGE('',*,*,#710,.T.);
#514=ORIENTED_EDGE('',*,*,#620,.F.);
#515=ORIENTED_EDGE('',*,*,#716,.T.);
#516=ORIENTED_EDGE('',*,*,#615,.F.);
#517=ORIENTED_EDGE('',*,*,#719,.F.);
#518=ORIENTED_EDGE('',*,*,#665,.T.);
#519=ORIENTED_EDGE('',*,*,#717,.F.);
#520=ORIENTED_EDGE('',*,*,#667,.F.);
#521=ORIENTED_EDGE('',*,*,#720,.T.);
#522=ORIENTED_EDGE('',*,*,#613,.T.);
#523=ORIENTED_EDGE('',*,*,#666,.T.);
#524=ORIENTED_EDGE('',*,*,#719,.T.);
#525=ORIENTED_EDGE('',*,*,#614,.T.);
#526=ORIENTED_EDGE('',*,*,#720,.F.);
#527=ORIENTED_EDGE('',*,*,#715,.F.);
#528=ORIENTED_EDGE('',*,*,#663,.F.);
#529=ORIENTED_EDGE('',*,*,#721,.T.);
#530=ORIENTED_EDGE('',*,*,#617,.T.);
#531=ORIENTED_EDGE('',*,*,#718,.T.);
#532=ORIENTED_EDGE('',*,*,#619,.F.);
#533=ORIENTED_EDGE('',*,*,#722,.F.);
#534=ORIENTED_EDGE('',*,*,#661,.T.);
#535=ORIENTED_EDGE('',*,*,#721,.F.);
#536=ORIENTED_EDGE('',*,*,#662,.T.);
#537=ORIENTED_EDGE('',*,*,#722,.T.);
#538=ORIENTED_EDGE('',*,*,#618,.F.);
#539=ORIENTED_EDGE('',*,*,#713,.F.);
#540=ORIENTED_EDGE('',*,*,#672,.F.);
#541=ORIENTED_EDGE('',*,*,#723,.T.);
#542=ORIENTED_EDGE('',*,*,#608,.T.);
#543=ORIENTED_EDGE('',*,*,#711,.T.);
#544=ORIENTED_EDGE('',*,*,#610,.F.);
#545=ORIENTED_EDGE('',*,*,#724,.F.);
#546=ORIENTED_EDGE('',*,*,#670,.T.);
#547=ORIENTED_EDGE('',*,*,#723,.F.);
#548=ORIENTED_EDGE('',*,*,#671,.F.);
#549=ORIENTED_EDGE('',*,*,#724,.T.);
#550=ORIENTED_EDGE('',*,*,#609,.F.);
#551=ORIENTED_EDGE('',*,*,#714,.T.);
#552=ORIENTED_EDGE('',*,*,#606,.F.);
#553=ORIENTED_EDGE('',*,*,#692,.F.);
#554=ORIENTED_EDGE('',*,*,#638,.T.);
#555=ORIENTED_EDGE('',*,*,#708,.T.);
#556=ORIENTED_EDGE('',*,*,#624,.F.);
#557=ORIENTED_EDGE('',*,*,#725,.F.);
#558=ORIENTED_EDGE('',*,*,#656,.T.);
#559=ORIENTED_EDGE('',*,*,#709,.F.);
#560=ORIENTED_EDGE('',*,*,#658,.F.);
#561=ORIENTED_EDGE('',*,*,#726,.T.);
#562=ORIENTED_EDGE('',*,*,#622,.T.);
#563=ORIENTED_EDGE('',*,*,#657,.T.);
#564=ORIENTED_EDGE('',*,*,#725,.T.);
#565=ORIENTED_EDGE('',*,*,#623,.T.);
#566=ORIENTED_EDGE('',*,*,#726,.F.);
#567=ORIENTED_EDGE('',*,*,#707,.F.);
#568=ORIENTED_EDGE('',*,*,#654,.F.);
#569=ORIENTED_EDGE('',*,*,#694,.T.);
#570=ORIENTED_EDGE('',*,*,#590,.T.);
#571=ORIENTED_EDGE('',*,*,#674,.T.);
#572=ORIENTED_EDGE('',*,*,#581,.F.);
#573=ORIENTED_EDGE('',*,*,#629,.T.);
#574=ORIENTED_EDGE('',*,*,#706,.T.);
#575=ORIENTED_EDGE('',*,*,#677,.F.);
#576=ORIENTED_EDGE('',*,*,#703,.F.);
#577=ORIENTED_EDGE('',*,*,#704,.T.);
#578=ORIENTED_EDGE('',*,*,#675,.T.);
#579=ORIENTED_EDGE('',*,*,#705,.F.);
#580=ORIENTED_EDGE('',*,*,#627,.F.);
#581=EDGE_CURVE('',#727,#727,#825,.F.);
#582=EDGE_CURVE('',#728,#729,#17,.T.);
#583=EDGE_CURVE('',#728,#730,#826,.T.);
#584=EDGE_CURVE('',#731,#730,#18,.T.);
#585=EDGE_CURVE('',#731,#732,#827,.T.);
#586=EDGE_CURVE('',#732,#733,#19,.T.);
#587=EDGE_CURVE('',#733,#734,#828,.T.);
#588=EDGE_CURVE('',#734,#735,#20,.T.);
#589=EDGE_CURVE('',#735,#729,#829,.T.);
#590=EDGE_CURVE('',#736,#737,#21,.T.);
#591=EDGE_CURVE('',#736,#738,#22,.T.);
#592=EDGE_CURVE('',#738,#739,#23,.T.);
#593=EDGE_CURVE('',#740,#739,#24,.T.);
#594=EDGE_CURVE('',#741,#740,#25,.T.);
#595=EDGE_CURVE('',#742,#741,#26,.T.);
#596=EDGE_CURVE('',#743,#742,#27,.T.);
#597=EDGE_CURVE('',#743,#744,#28,.T.);
#598=EDGE_CURVE('',#745,#744,#29,.T.);
#599=EDGE_CURVE('',#746,#745,#30,.T.);
#600=EDGE_CURVE('',#746,#747,#31,.T.);
#601=EDGE_CURVE('',#747,#748,#32,.T.);
#602=EDGE_CURVE('',#749,#748,#33,.T.);
#603=EDGE_CURVE('',#749,#750,#34,.T.);
#604=EDGE_CURVE('',#751,#750,#35,.T.);
#605=EDGE_CURVE('',#752,#751,#36,.T.);
#606=EDGE_CURVE('',#752,#753,#37,.T.);
#607=EDGE_CURVE('',#754,#753,#38,.T.);
#608=EDGE_CURVE('',#755,#754,#39,.T.);
#609=EDGE_CURVE('',#755,#756,#40,.T.);
#610=EDGE_CURVE('',#756,#757,#41,.T.);
#611=EDGE_CURVE('',#758,#757,#42,.T.);
#612=EDGE_CURVE('',#758,#759,#43,.T.);
#613=EDGE_CURVE('',#760,#759,#44,.T.);
#614=EDGE_CURVE('',#761,#760,#45,.T.);
#615=EDGE_CURVE('',#761,#762,#46,.T.);
#616=EDGE_CURVE('',#762,#763,#47,.T.);
#617=EDGE_CURVE('',#764,#763,#48,.T.);
#618=EDGE_CURVE('',#764,#765,#49,.T.);
#619=EDGE_CURVE('',#765,#766,#50,.T.);
#620=EDGE_CURVE('',#766,#767,#51,.T.);
#621=EDGE_CURVE('',#767,#768,#52,.T.);
#622=EDGE_CURVE('',#769,#768,#53,.T.);
#623=EDGE_CURVE('',#770,#769,#54,.T.);
#624=EDGE_CURVE('',#770,#771,#55,.T.);
#625=EDGE_CURVE('',#771,#737,#56,.T.);
#626=EDGE_CURVE('',#772,#773,#57,.T.);
#627=EDGE_CURVE('',#772,#774,#58,.T.);
#628=EDGE_CURVE('',#774,#775,#59,.T.);
#629=EDGE_CURVE('',#773,#775,#60,.T.);
#630=EDGE_CURVE('',#776,#777,#830,.T.);
#631=EDGE_CURVE('',#776,#778,#61,.T.);
#632=EDGE_CURVE('',#779,#778,#831,.T.);
#633=EDGE_CURVE('',#780,#779,#62,.T.);
#634=EDGE_CURVE('',#781,#780,#832,.T.);
#635=EDGE_CURVE('',#782,#781,#63,.T.);
#636=EDGE_CURVE('',#783,#782,#833,.T.);
#637=EDGE_CURVE('',#783,#777,#64,.T.);
#638=EDGE_CURVE('',#784,#785,#65,.T.);
#639=EDGE_CURVE('',#784,#786,#66,.T.);
#640=EDGE_CURVE('',#786,#787,#67,.T.);
#641=EDGE_CURVE('',#788,#787,#68,.T.);
#642=EDGE_CURVE('',#788,#789,#69,.T.);
#643=EDGE_CURVE('',#790,#789,#70,.T.);
#644=EDGE_CURVE('',#790,#791,#71,.T.);
#645=EDGE_CURVE('',#791,#792,#72,.T.);
#646=EDGE_CURVE('',#792,#793,#73,.T.);
#647=EDGE_CURVE('',#794,#793,#74,.T.);
#648=EDGE_CURVE('',#794,#795,#75,.T.);
#649=EDGE_CURVE('',#795,#796,#76,.T.);
#650=EDGE_CURVE('',#796,#797,#77,.T.);
#651=EDGE_CURVE('',#797,#798,#78,.T.);
#652=EDGE_CURVE('',#799,#798,#79,.T.);
#653=EDGE_CURVE('',#800,#799,#80,.T.);
#654=EDGE_CURVE('',#800,#801,#81,.T.);
#655=EDGE_CURVE('',#802,#801,#82,.T.);
#656=EDGE_CURVE('',#803,#802,#83,.T.);
#657=EDGE_CURVE('',#804,#803,#84,.T.);
#658=EDGE_CURVE('',#804,#805,#85,.T.);
#659=EDGE_CURVE('',#806,#805,#86,.T.);
#660=EDGE_CURVE('',#807,#806,#87,.T.);
#661=EDGE_CURVE('',#808,#807,#88,.T.);
#662=EDGE_CURVE('',#809,#808,#89,.T.);
#663=EDGE_CURVE('',#809,#810,#90,.T.);
#664=EDGE_CURVE('',#811,#810,#91,.T.);
#665=EDGE_CURVE('',#812,#811,#92,.T.);
#666=EDGE_CURVE('',#813,#812,#93,.T.);
#667=EDGE_CURVE('',#813,#814,#94,.T.);
#668=EDGE_CURVE('',#815,#814,#95,.T.);
#669=EDGE_CURVE('',#815,#816,#96,.T.);
#670=EDGE_CURVE('',#817,#816,#97,.T.);
#671=EDGE_CURVE('',#817,#818,#98,.T.);
#672=EDGE_CURVE('',#818,#819,#99,.T.);
#673=EDGE_CURVE('',#819,#785,#100,.T.);
#674=EDGE_CURVE('',#820,#820,#834,.F.);
#675=EDGE_CURVE('',#821,#822,#101,.T.);
#676=EDGE_CURVE('',#821,#823,#102,.T.);
#677=EDGE_CURVE('',#823,#824,#103,.T.);
#678=EDGE_CURVE('',#822,#824,#104,.T.);
#679=EDGE_CURVE('',#793,#744,#105,.T.);
#680=EDGE_CURVE('',#792,#745,#106,.T.);
#681=EDGE_CURVE('',#789,#748,#107,.T.);
#682=EDGE_CURVE('',#788,#749,#108,.T.);
#683=EDGE_CURVE('',#787,#750,#109,.T.);
#684=EDGE_CURVE('',#798,#739,#110,.T.);
#685=EDGE_CURVE('',#797,#740,#111,.T.);
#686=EDGE_CURVE('',#796,#741,#112,.T.);
#687=EDGE_CURVE('',#791,#746,#113,.T.);
#688=EDGE_CURVE('',#790,#747,#114,.T.);
#689=EDGE_CURVE('',#794,#743,#115,.T.);
#690=EDGE_CURVE('',#795,#742,#116,.T.);
#691=EDGE_CURVE('',#786,#751,#117,.T.);
#692=EDGE_CURVE('',#784,#752,#118,.T.);
#693=EDGE_CURVE('',#799,#738,#119,.T.);
#694=EDGE_CURVE('',#800,#736,#120,.T.);
#695=EDGE_CURVE('',#729,#778,#121,.T.);
#696=EDGE_CURVE('',#728,#776,#122,.T.);
#697=EDGE_CURVE('',#730,#777,#123,.T.);
#698=EDGE_CURVE('',#731,#783,#124,.T.);
#699=EDGE_CURVE('',#732,#782,#125,.T.);
#700=EDGE_CURVE('',#733,#781,#126,.T.);
#701=EDGE_CURVE('',#734,#780,#127,.T.);
#702=EDGE_CURVE('',#735,#779,#128,.T.);
#703=EDGE_CURVE('',#773,#823,#129,.T.);
#704=EDGE_CURVE('',#772,#821,#130,.T.);
#705=EDGE_CURVE('',#774,#822,#131,.T.);
#706=EDGE_CURVE('',#775,#824,#132,.T.);
#707=EDGE_CURVE('',#801,#737,#133,.T.);
#708=EDGE_CURVE('',#802,#771,#134,.T.);
#709=EDGE_CURVE('',#805,#768,#135,.T.);
#710=EDGE_CURVE('',#806,#767,#136,.T.);
#711=EDGE_CURVE('',#816,#757,#137,.T.);
#712=EDGE_CURVE('',#815,#758,#138,.T.);
#713=EDGE_CURVE('',#819,#754,#139,.T.);
#714=EDGE_CURVE('',#785,#753,#140,.T.);
#715=EDGE_CURVE('',#810,#763,#141,.T.);
#716=EDGE_CURVE('',#811,#762,#142,.T.);
#717=EDGE_CURVE('',#814,#759,#143,.T.);
#718=EDGE_CURVE('',#807,#766,#144,.T.);
#719=EDGE_CURVE('',#812,#761,#145,.T.);
#720=EDGE_CURVE('',#813,#760,#146,.T.);
#721=EDGE_CURVE('',#809,#764,#147,.T.);
#722=EDGE_CURVE('',#808,#765,#148,.T.);
#723=EDGE_CURVE('',#818,#755,#149,.T.);
#724=EDGE_CURVE('',#817,#756,#150,.T.);
#725=EDGE_CURVE('',#803,#770,#151,.T.);
#726=EDGE_CURVE('',#804,#769,#152,.T.);
#727=VERTEX_POINT('',#1385);
#728=VERTEX_POINT('',#1387);
#729=VERTEX_POINT('',#1388);
#730=VERTEX_POINT('',#1390);
#731=VERTEX_POINT('',#1392);
#732=VERTEX_POINT('',#1394);
#733=VERTEX_POINT('',#1396);
#734=VERTEX_POINT('',#1398);
#735=VERTEX_POINT('',#1400);
#736=VERTEX_POINT('',#1403);
#737=VERTEX_POINT('',#1404);
#738=VERTEX_POINT('',#1406);
#739=VERTEX_POINT('',#1408);
#740=VERTEX_POINT('',#1410);
#741=VERTEX_POINT('',#1412);
#742=VERTEX_POINT('',#1414);
#743=VERTEX_POINT('',#1416);
#744=VERTEX_POINT('',#1418);
#745=VERTEX_POINT('',#1420);
#746=VERTEX_POINT('',#1422);
#747=VERTEX_POINT('',#1424);
#748=VERTEX_POINT('',#1426);
#749=VERTEX_POINT('',#1428);
#750=VERTEX_POINT('',#1430);
#751=VERTEX_POINT('',#1432);
#752=VERTEX_POINT('',#1434);
#753=VERTEX_POINT('',#1436);
#754=VERTEX_POINT('',#1438);
#755=VERTEX_POINT('',#1440);
#756=VERTEX_POINT('',#1442);
#757=VERTEX_POINT('',#1444);
#758=VERTEX_POINT('',#1446);
#759=VERTEX_POINT('',#1448);
#760=VERTEX_POINT('',#1450);
#761=VERTEX_POINT('',#1452);
#762=VERTEX_POINT('',#1454);
#763=VERTEX_POINT('',#1456);
#764=VERTEX_POINT('',#1458);
#765=VERTEX_POINT('',#1460);
#766=VERTEX_POINT('',#1462);
#767=VERTEX_POINT('',#1464);
#768=VERTEX_POINT('',#1466);
#769=VERTEX_POINT('',#1468);
#770=VERTEX_POINT('',#1470);
#771=VERTEX_POINT('',#1472);
#772=VERTEX_POINT('',#1475);
#773=VERTEX_POINT('',#1476);
#774=VERTEX_POINT('',#1478);
#775=VERTEX_POINT('',#1480);
#776=VERTEX_POINT('',#1484);
#777=VERTEX_POINT('',#1485);
#778=VERTEX_POINT('',#1487);
#779=VERTEX_POINT('',#1489);
#780=VERTEX_POINT('',#1491);
#781=VERTEX_POINT('',#1493);
#782=VERTEX_POINT('',#1495);
#783=VERTEX_POINT('',#1497);
#784=VERTEX_POINT('',#1500);
#785=VERTEX_POINT('',#1501);
#786=VERTEX_POINT('',#1503);
#787=VERTEX_POINT('',#1505);
#788=VERTEX_POINT('',#1507);
#789=VERTEX_POINT('',#1509);
#790=VERTEX_POINT('',#1511);
#791=VERTEX_POINT('',#1513);
#792=VERTEX_POINT('',#1515);
#793=VERTEX_POINT('',#1517);
#794=VERTEX_POINT('',#1519);
#795=VERTEX_POINT('',#1521);
#796=VERTEX_POINT('',#1523);
#797=VERTEX_POINT('',#1525);
#798=VERTEX_POINT('',#1527);
#799=VERTEX_POINT('',#1529);
#800=VERTEX_POINT('',#1531);
#801=VERTEX_POINT('',#1533);
#802=VERTEX_POINT('',#1535);
#803=VERTEX_POINT('',#1537);
#804=VERTEX_POINT('',#1539);
#805=VERTEX_POINT('',#1541);
#806=VERTEX_POINT('',#1543);
#807=VERTEX_POINT('',#1545);
#808=VERTEX_POINT('',#1547);
#809=VERTEX_POINT('',#1549);
#810=VERTEX_POINT('',#1551);
#811=VERTEX_POINT('',#1553);
#812=VERTEX_POINT('',#1555);
#813=VERTEX_POINT('',#1557);
#814=VERTEX_POINT('',#1559);
#815=VERTEX_POINT('',#1561);
#816=VERTEX_POINT('',#1563);
#817=VERTEX_POINT('',#1565);
#818=VERTEX_POINT('',#1567);
#819=VERTEX_POINT('',#1569);
#820=VERTEX_POINT('',#1572);
#821=VERTEX_POINT('',#1574);
#822=VERTEX_POINT('',#1575);
#823=VERTEX_POINT('',#1577);
#824=VERTEX_POINT('',#1579);
#825=CIRCLE('',#1062,0.0605);
#826=CIRCLE('',#1063,0.00100000000000002);
#827=CIRCLE('',#1064,0.001);
#828=CIRCLE('',#1065,0.001);
#829=CIRCLE('',#1066,0.001);
#830=CIRCLE('',#1068,0.00100000000000002);
#831=CIRCLE('',#1069,0.001);
#832=CIRCLE('',#1070,0.001);
#833=CIRCLE('',#1071,0.001);
#834=CIRCLE('',#1072,0.0605);
#835=EDGE_LOOP('',(#289));
#836=EDGE_LOOP('',(#290,#291,#292,#293,#294,#295,#296,#297));
#837=EDGE_LOOP('',(#298,#299,#300,#301,#302,#303,#304,#305,#306,#307,#308,
#309,#310,#311,#312,#313,#314,#315,#316,#317,#318,#319,#320,#321,#322,#323,
#324,#325,#326,#327,#328,#329,#330,#331,#332,#333));
#838=EDGE_LOOP('',(#334,#335,#336,#337));
#839=EDGE_LOOP('',(#338,#339,#340,#341,#342,#343,#344,#345));
#840=EDGE_LOOP('',(#346,#347,#348,#349,#350,#351,#352,#353,#354,#355,#356,
#357,#358,#359,#360,#361,#362,#363,#364,#365,#366,#367,#368,#369,#370,#371,
#372,#373,#374,#375,#376,#377,#378,#379,#380,#381));
#841=EDGE_LOOP('',(#382));
#842=EDGE_LOOP('',(#383,#384,#385,#386));
#843=EDGE_LOOP('',(#387,#388,#389,#390));
#844=EDGE_LOOP('',(#391,#392,#393,#394));
#845=EDGE_LOOP('',(#395,#396,#397,#398));
#846=EDGE_LOOP('',(#399,#400,#401,#402));
#847=EDGE_LOOP('',(#403,#404,#405,#406));
#848=EDGE_LOOP('',(#407,#408,#409,#410));
#849=EDGE_LOOP('',(#411,#412,#413,#414));
#850=EDGE_LOOP('',(#415,#416,#417,#418));
#851=EDGE_LOOP('',(#419,#420,#421,#422));
#852=EDGE_LOOP('',(#423,#424,#425,#426));
#853=EDGE_LOOP('',(#427,#428,#429,#430));
#854=EDGE_LOOP('',(#431,#432,#433,#434));
#855=EDGE_LOOP('',(#435,#436,#437,#438));
#856=EDGE_LOOP('',(#439,#440,#441,#442));
#857=EDGE_LOOP('',(#443,#444,#445,#446));
#858=EDGE_LOOP('',(#447,#448,#449,#450));
#859=EDGE_LOOP('',(#451,#452,#453,#454));
#860=EDGE_LOOP('',(#455,#456,#457,#458));
#861=EDGE_LOOP('',(#459,#460,#461,#462));
#862=EDGE_LOOP('',(#463,#464,#465,#466));
#863=EDGE_LOOP('',(#467,#468,#469,#470));
#864=EDGE_LOOP('',(#471,#472,#473,#474));
#865=EDGE_LOOP('',(#475,#476,#477,#478));
#866=EDGE_LOOP('',(#479,#480,#481,#482));
#867=EDGE_LOOP('',(#483,#484,#485,#486));
#868=EDGE_LOOP('',(#487,#488,#489,#490));
#869=EDGE_LOOP('',(#491,#492,#493,#494));
#870=EDGE_LOOP('',(#495,#496,#497,#498));
#871=EDGE_LOOP('',(#499,#500,#501,#502));
#872=EDGE_LOOP('',(#503,#504,#505,#506));
#873=EDGE_LOOP('',(#507,#508,#509,#510));
#874=EDGE_LOOP('',(#511,#512,#513,#514));
#875=EDGE_LOOP('',(#515,#516,#517,#518));
#876=EDGE_LOOP('',(#519,#520,#521,#522));
#877=EDGE_LOOP('',(#523,#524,#525,#526));
#878=EDGE_LOOP('',(#527,#528,#529,#530));
#879=EDGE_LOOP('',(#531,#532,#533,#534));
#880=EDGE_LOOP('',(#535,#536,#537,#538));
#881=EDGE_LOOP('',(#539,#540,#541,#542));
#882=EDGE_LOOP('',(#543,#544,#545,#546));
#883=EDGE_LOOP('',(#547,#548,#549,#550));
#884=EDGE_LOOP('',(#551,#552,#553,#554));
#885=EDGE_LOOP('',(#555,#556,#557,#558));
#886=EDGE_LOOP('',(#559,#560,#561,#562));
#887=EDGE_LOOP('',(#563,#564,#565,#566));
#888=EDGE_LOOP('',(#567,#568,#569,#570));
#889=EDGE_LOOP('',(#571));
#890=EDGE_LOOP('',(#572));
#891=EDGE_LOOP('',(#573,#574,#575,#576));
#892=EDGE_LOOP('',(#577,#578,#579,#580));
#893=FACE_BOUND('',#835,.T.);
#894=FACE_BOUND('',#836,.T.);
#895=FACE_BOUND('',#837,.T.);
#896=FACE_BOUND('',#838,.T.);
#897=FACE_BOUND('',#839,.T.);
#898=FACE_BOUND('',#840,.T.);
#899=FACE_BOUND('',#841,.T.);
#900=FACE_BOUND('',#842,.T.);
#901=FACE_BOUND('',#843,.T.);
#902=FACE_BOUND('',#844,.T.);
#903=FACE_BOUND('',#845,.T.);
#904=FACE_BOUND('',#846,.T.);
#905=FACE_BOUND('',#847,.T.);
#906=FACE_BOUND('',#848,.T.);
#907=FACE_BOUND('',#849,.T.);
#908=FACE_BOUND('',#850,.T.);
#909=FACE_BOUND('',#851,.T.);
#910=FACE_BOUND('',#852,.T.);
#911=FACE_BOUND('',#853,.T.);
#912=FACE_BOUND('',#854,.T.);
#913=FACE_BOUND('',#855,.T.);
#914=FACE_BOUND('',#856,.T.);
#915=FACE_BOUND('',#857,.T.);
#916=FACE_BOUND('',#858,.T.);
#917=FACE_BOUND('',#859,.T.);
#918=FACE_BOUND('',#860,.T.);
#919=FACE_BOUND('',#861,.T.);
#920=FACE_BOUND('',#862,.T.);
#921=FACE_BOUND('',#863,.T.);
#922=FACE_BOUND('',#864,.T.);
#923=FACE_BOUND('',#865,.T.);
#924=FACE_BOUND('',#866,.T.);
#925=FACE_BOUND('',#867,.T.);
#926=FACE_BOUND('',#868,.T.);
#927=FACE_BOUND('',#869,.T.);
#928=FACE_BOUND('',#870,.T.);
#929=FACE_BOUND('',#871,.T.);
#930=FACE_BOUND('',#872,.T.);
#931=FACE_BOUND('',#873,.T.);
#932=FACE_BOUND('',#874,.T.);
#933=FACE_BOUND('',#875,.T.);
#934=FACE_BOUND('',#876,.T.);
#935=FACE_BOUND('',#877,.T.);
#936=FACE_BOUND('',#878,.T.);
#937=FACE_BOUND('',#879,.T.);
#938=FACE_BOUND('',#880,.T.);
#939=FACE_BOUND('',#881,.T.);
#940=FACE_BOUND('',#882,.T.);
#941=FACE_BOUND('',#883,.T.);
#942=FACE_BOUND('',#884,.T.);
#943=FACE_BOUND('',#885,.T.);
#944=FACE_BOUND('',#886,.T.);
#945=FACE_BOUND('',#887,.T.);
#946=FACE_BOUND('',#888,.T.);
#947=FACE_BOUND('',#889,.T.);
#948=FACE_BOUND('',#890,.T.);
#949=FACE_BOUND('',#891,.T.);
#950=FACE_BOUND('',#892,.T.);
#951=PLANE('',#1061);
#952=PLANE('',#1067);
#953=PLANE('',#1073);
#954=PLANE('',#1074);
#955=PLANE('',#1075);
#956=PLANE('',#1076);
#957=PLANE('',#1077);
#958=PLANE('',#1078);
#959=PLANE('',#1079);
#960=PLANE('',#1080);
#961=PLANE('',#1081);
#962=PLANE('',#1082);
#963=PLANE('',#1083);
#964=PLANE('',#1084);
#965=PLANE('',#1085);
#966=PLANE('',#1086);
#967=PLANE('',#1087);
#968=PLANE('',#1088);
#969=PLANE('',#1090);
#970=PLANE('',#1092);
#971=PLANE('',#1094);
#972=PLANE('',#1096);
#973=PLANE('',#1097);
#974=PLANE('',#1098);
#975=PLANE('',#1099);
#976=PLANE('',#1100);
#977=PLANE('',#1101);
#978=PLANE('',#1102);
#979=PLANE('',#1103);
#980=PLANE('',#1104);
#981=PLANE('',#1105);
#982=PLANE('',#1106);
#983=PLANE('',#1107);
#984=PLANE('',#1108);
#985=PLANE('',#1109);
#986=PLANE('',#1110);
#987=PLANE('',#1111);
#988=PLANE('',#1112);
#989=PLANE('',#1113);
#990=PLANE('',#1114);
#991=PLANE('',#1115);
#992=PLANE('',#1116);
#993=PLANE('',#1117);
#994=PLANE('',#1118);
#995=PLANE('',#1120);
#996=PLANE('',#1121);
#997=ADVANCED_FACE('',(#893,#894,#895,#896),#951,.F.);
#998=ADVANCED_FACE('',(#897,#898,#899,#900),#952,.T.);
#999=ADVANCED_FACE('',(#901),#953,.F.);
#1000=ADVANCED_FACE('',(#902),#954,.F.);
#1001=ADVANCED_FACE('',(#903),#955,.F.);
#1002=ADVANCED_FACE('',(#904),#956,.T.);
#1003=ADVANCED_FACE('',(#905),#957,.F.);
#1004=ADVANCED_FACE('',(#906),#958,.T.);
#1005=ADVANCED_FACE('',(#907),#959,.F.);
#1006=ADVANCED_FACE('',(#908),#960,.T.);
#1007=ADVANCED_FACE('',(#909),#961,.F.);
#1008=ADVANCED_FACE('',(#910),#962,.T.);
#1009=ADVANCED_FACE('',(#911),#963,.T.);
#1010=ADVANCED_FACE('',(#912),#964,.T.);
#1011=ADVANCED_FACE('',(#913),#965,.T.);
#1012=ADVANCED_FACE('',(#914),#966,.F.);
#1013=ADVANCED_FACE('',(#915),#967,.T.);
#1014=ADVANCED_FACE('',(#916),#968,.T.);
#1015=ADVANCED_FACE('',(#917),#12,.F.);
#1016=ADVANCED_FACE('',(#918),#969,.T.);
#1017=ADVANCED_FACE('',(#919),#13,.F.);
#1018=ADVANCED_FACE('',(#920),#970,.F.);
#1019=ADVANCED_FACE('',(#921),#14,.F.);
#1020=ADVANCED_FACE('',(#922),#971,.F.);
#1021=ADVANCED_FACE('',(#923),#15,.F.);
#1022=ADVANCED_FACE('',(#924),#972,.T.);
#1023=ADVANCED_FACE('',(#925),#973,.F.);
#1024=ADVANCED_FACE('',(#926),#974,.T.);
#1025=ADVANCED_FACE('',(#927),#975,.T.);
#1026=ADVANCED_FACE('',(#928),#976,.F.);
#1027=ADVANCED_FACE('',(#929),#977,.F.);
#1028=ADVANCED_FACE('',(#930),#978,.T.);
#1029=ADVANCED_FACE('',(#931),#979,.T.);
#1030=ADVANCED_FACE('',(#932),#980,.T.);
#1031=ADVANCED_FACE('',(#933),#981,.F.);
#1032=ADVANCED_FACE('',(#934),#982,.T.);
#1033=ADVANCED_FACE('',(#935),#983,.T.);
#1034=ADVANCED_FACE('',(#936),#984,.T.);
#1035=ADVANCED_FACE('',(#937),#985,.F.);
#1036=ADVANCED_FACE('',(#938),#986,.T.);
#1037=ADVANCED_FACE('',(#939),#987,.T.);
#1038=ADVANCED_FACE('',(#940),#988,.F.);
#1039=ADVANCED_FACE('',(#941),#989,.T.);
#1040=ADVANCED_FACE('',(#942),#990,.F.);
#1041=ADVANCED_FACE('',(#943),#991,.F.);
#1042=ADVANCED_FACE('',(#944),#992,.T.);
#1043=ADVANCED_FACE('',(#945),#993,.T.);
#1044=ADVANCED_FACE('',(#946),#994,.T.);
#1045=ADVANCED_FACE('',(#947,#948),#16,.F.);
#1046=ADVANCED_FACE('',(#949),#995,.T.);
#1047=ADVANCED_FACE('',(#950),#996,.F.);
#1048=CLOSED_SHELL('',(#997,#998,#999,#1000,#1001,#1002,#1003,#1004,#1005,
#1006,#1007,#1008,#1009,#1010,#1011,#1012,#1013,#1014,#1015,#1016,#1017,
#1018,#1019,#1020,#1021,#1022,#1023,#1024,#1025,#1026,#1027,#1028,#1029,
#1030,#1031,#1032,#1033,#1034,#1035,#1036,#1037,#1038,#1039,#1040,#1041,
#1042,#1043,#1044,#1045,#1046,#1047));
#1049=STYLED_ITEM('',(#1050),#1057);
#1050=PRESENTATION_STYLE_ASSIGNMENT((#1051));
#1051=SURFACE_STYLE_USAGE(.BOTH.,#1052);
#1052=SURFACE_SIDE_STYLE('',(#1053));
#1053=SURFACE_STYLE_FILL_AREA(#1054);
#1054=FILL_AREA_STYLE('',(#1055));
#1055=FILL_AREA_STYLE_COLOUR('',#1056);
#1056=COLOUR_RGB('',0.498039215686275,0.498039215686275,0.498039215686275);
#1057=MANIFOLD_SOLID_BREP('Part 3',#1048);
#1058=SHAPE_DEFINITION_REPRESENTATION(#1684,#1059);
#1059=SHAPE_REPRESENTATION('Part 3',(#1060),#1679);
#1060=AXIS2_PLACEMENT_3D('',#1382,#1122,#1123);
#1061=AXIS2_PLACEMENT_3D('',#1383,#1124,#1125);
#1062=AXIS2_PLACEMENT_3D('',#1384,#1126,#1127);
#1063=AXIS2_PLACEMENT_3D('',#1389,#1129,#1130);
#1064=AXIS2_PLACEMENT_3D('',#1393,#1132,#1133);
#1065=AXIS2_PLACEMENT_3D('',#1397,#1135,#1136);
#1066=AXIS2_PLACEMENT_3D('',#1401,#1138,#1139);
#1067=AXIS2_PLACEMENT_3D('',#1482,#1180,#1181);
#1068=AXIS2_PLACEMENT_3D('',#1483,#1182,#1183);
#1069=AXIS2_PLACEMENT_3D('',#1488,#1185,#1186);
#1070=AXIS2_PLACEMENT_3D('',#1492,#1188,#1189);
#1071=AXIS2_PLACEMENT_3D('',#1496,#1191,#1192);
#1072=AXIS2_PLACEMENT_3D('',#1571,#1230,#1231);
#1073=AXIS2_PLACEMENT_3D('',#1581,#1236,#1237);
#1074=AXIS2_PLACEMENT_3D('',#1584,#1240,#1241);
#1075=AXIS2_PLACEMENT_3D('',#1587,#1244,#1245);
#1076=AXIS2_PLACEMENT_3D('',#1589,#1247,#1248);
#1077=AXIS2_PLACEMENT_3D('',#1592,#1251,#1252);
#1078=AXIS2_PLACEMENT_3D('',#1594,#1254,#1255);
#1079=AXIS2_PLACEMENT_3D('',#1596,#1257,#1258);
#1080=AXIS2_PLACEMENT_3D('',#1598,#1260,#1261);
#1081=AXIS2_PLACEMENT_3D('',#1599,#1262,#1263);
#1082=AXIS2_PLACEMENT_3D('',#1601,#1265,#1266);
#1083=AXIS2_PLACEMENT_3D('',#1603,#1268,#1269);
#1084=AXIS2_PLACEMENT_3D('',#1604,#1270,#1271);
#1085=AXIS2_PLACEMENT_3D('',#1606,#1273,#1274);
#1086=AXIS2_PLACEMENT_3D('',#1608,#1276,#1277);
#1087=AXIS2_PLACEMENT_3D('',#1610,#1279,#1280);
#1088=AXIS2_PLACEMENT_3D('',#1612,#1282,#1283);
#1089=AXIS2_PLACEMENT_3D('',#1615,#1286,#1287);
#1090=AXIS2_PLACEMENT_3D('',#1617,#1289,#1290);
#1091=AXIS2_PLACEMENT_3D('',#1619,#1292,#1293);
#1092=AXIS2_PLACEMENT_3D('',#1621,#1295,#1296);
#1093=AXIS2_PLACEMENT_3D('',#1623,#1298,#1299);
#1094=AXIS2_PLACEMENT_3D('',#1625,#1301,#1302);
#1095=AXIS2_PLACEMENT_3D('',#1627,#1304,#1305);
#1096=AXIS2_PLACEMENT_3D('',#1628,#1306,#1307);
#1097=AXIS2_PLACEMENT_3D('',#1631,#1310,#1311);
#1098=AXIS2_PLACEMENT_3D('',#1634,#1314,#1315);
#1099=AXIS2_PLACEMENT_3D('',#1637,#1318,#1319);
#1100=AXIS2_PLACEMENT_3D('',#1640,#1322,#1323);
#1101=AXIS2_PLACEMENT_3D('',#1643,#1326,#1327);
#1102=AXIS2_PLACEMENT_3D('',#1646,#1330,#1331);
#1103=AXIS2_PLACEMENT_3D('',#1649,#1334,#1335);
#1104=AXIS2_PLACEMENT_3D('',#1651,#1337,#1338);
#1105=AXIS2_PLACEMENT_3D('',#1653,#1340,#1341);
#1106=AXIS2_PLACEMENT_3D('',#1655,#1343,#1344);
#1107=AXIS2_PLACEMENT_3D('',#1657,#1346,#1347);
#1108=AXIS2_PLACEMENT_3D('',#1658,#1348,#1349);
#1109=AXIS2_PLACEMENT_3D('',#1660,#1351,#1352);
#1110=AXIS2_PLACEMENT_3D('',#1662,#1354,#1355);
#1111=AXIS2_PLACEMENT_3D('',#1663,#1356,#1357);
#1112=AXIS2_PLACEMENT_3D('',#1665,#1359,#1360);
#1113=AXIS2_PLACEMENT_3D('',#1667,#1362,#1363);
#1114=AXIS2_PLACEMENT_3D('',#1668,#1364,#1365);
#1115=AXIS2_PLACEMENT_3D('',#1669,#1366,#1367);
#1116=AXIS2_PLACEMENT_3D('',#1671,#1369,#1370);
#1117=AXIS2_PLACEMENT_3D('',#1673,#1372,#1373);
#1118=AXIS2_PLACEMENT_3D('',#1674,#1374,#1375);
#1119=AXIS2_PLACEMENT_3D('',#1675,#1376,#1377);
#1120=AXIS2_PLACEMENT_3D('',#1676,#1378,#1379);
#1121=AXIS2_PLACEMENT_3D('',#1677,#1380,#1381);
#1122=DIRECTION('',(0.,0.,1.));
#1123=DIRECTION('',(1.,0.,0.));
#1124=DIRECTION('',(0.,0.,1.));
#1125=DIRECTION('',(1.,0.,0.));
#1126=DIRECTION('',(0.,0.,-1.));
#1127=DIRECTION('',(-1.,0.,0.));
#1128=DIRECTION('',(0.,1.,0.));
#1129=DIRECTION('',(0.,0.,1.));
#1130=DIRECTION('',(1.,0.,0.));
#1131=DIRECTION('',(-1.,0.,0.));
#1132=DIRECTION('',(0.,0.,1.));
#1133=DIRECTION('',(1.,0.,0.));
#1134=DIRECTION('',(0.,1.,0.));
#1135=DIRECTION('',(0.,0.,1.));
#1136=DIRECTION('',(1.,0.,0.));
#1137=DIRECTION('',(-1.,0.,0.));
#1138=DIRECTION('',(0.,0.,1.));
#1139=DIRECTION('',(1.,0.,0.));
#1140=DIRECTION('',(1.,-2.1350442781253E-16,0.));
#1141=DIRECTION('',(-2.1350442781253E-16,-1.,0.));
#1142=DIRECTION('',(1.,-2.1350442781253E-16,0.));
#1143=DIRECTION('',(0.,1.,0.));
#1144=DIRECTION('',(1.,0.,0.));
#1145=DIRECTION('',(0.,-1.,0.));
#1146=DIRECTION('',(1.,0.,0.));
#1147=DIRECTION('',(0.,-1.,0.));
#1148=DIRECTION('',(1.,0.,0.));
#1149=DIRECTION('',(0.,-1.,0.));
#1150=DIRECTION('',(-1.,0.,0.));
#1151=DIRECTION('',(0.,-1.,0.));
#1152=DIRECTION('',(1.,0.,0.));
#1153=DIRECTION('',(0.,1.,0.));
#1154=DIRECTION('',(-1.,2.1350442781253E-16,0.));
#1155=DIRECTION('',(-2.1350442781253E-16,-1.,0.));
#1156=DIRECTION('',(-1.,2.1350442781253E-16,0.));
#1157=DIRECTION('',(-2.1350442781253E-16,-1.,0.));
#1158=DIRECTION('',(-1.,2.1350442781253E-16,0.));
#1159=DIRECTION('',(2.1350442781253E-16,1.,0.));
#1160=DIRECTION('',(-1.,2.1350442781253E-16,0.));
#1161=DIRECTION('',(-2.1350442781253E-16,-1.,0.));
#1162=DIRECTION('',(1.,0.,0.));
#1163=DIRECTION('',(0.,1.,0.));
#1164=DIRECTION('',(-1.,0.,0.));
#1165=DIRECTION('',(0.,1.,0.));
#1166=DIRECTION('',(1.,0.,0.));
#1167=DIRECTION('',(0.,1.,0.));
#1168=DIRECTION('',(1.,0.,0.));
#1169=DIRECTION('',(0.,1.,0.));
#1170=DIRECTION('',(1.,0.,0.));
#1171=DIRECTION('',(-2.1350442781253E-16,-1.,0.));
#1172=DIRECTION('',(1.,-2.1350442781253E-16,0.));
#1173=DIRECTION('',(2.1350442781253E-16,1.,0.));
#1174=DIRECTION('',(1.,-2.1350442781253E-16,0.));
#1175=DIRECTION('',(-2.1350442781253E-16,-1.,0.));
#1176=DIRECTION('',(0.,1.,0.));
#1177=DIRECTION('',(1.,0.,0.));
#1178=DIRECTION('',(0.,1.,0.));
#1179=DIRECTION('',(1.,0.,0.));
#1180=DIRECTION('',(0.,0.,1.));
#1181=DIRECTION('',(1.,0.,0.));
#1182=DIRECTION('',(0.,0.,1.));
#1183=DIRECTION('',(1.,0.,0.));
#1184=DIRECTION('',(0.,1.,0.));
#1185=DIRECTION('',(0.,0.,1.));
#1186=DIRECTION('',(1.,0.,0.));
#1187=DIRECTION('',(-1.,0.,0.));
#1188=DIRECTION('',(0.,0.,1.));
#1189=DIRECTION('',(1.,0.,0.));
#1190=DIRECTION('',(0.,1.,0.));
#1191=DIRECTION('',(0.,0.,1.));
#1192=DIRECTION('',(1.,0.,0.));
#1193=DIRECTION('',(-1.,0.,0.));
#1194=DIRECTION('',(-1.,2.1350442781253E-16,0.));
#1195=DIRECTION('',(-2.1350442781253E-16,-1.,0.));
#1196=DIRECTION('',(-1.,2.1350442781253E-16,0.));
#1197=DIRECTION('',(0.,1.,0.));
#1198=DIRECTION('',(1.,0.,0.));
#1199=DIRECTION('',(0.,-1.,0.));
#1200=DIRECTION('',(1.,0.,0.));
#1201=DIRECTION('',(0.,-1.,0.));
#1202=DIRECTION('',(1.,0.,0.));
#1203=DIRECTION('',(0.,-1.,0.));
#1204=DIRECTION('',(1.,0.,0.));
#1205=DIRECTION('',(0.,-1.,0.));
#1206=DIRECTION('',(1.,0.,0.));
#1207=DIRECTION('',(0.,1.,0.));
#1208=DIRECTION('',(1.,-2.1350442781253E-16,0.));
#1209=DIRECTION('',(-2.1350442781253E-16,-1.,0.));
#1210=DIRECTION('',(1.,-2.1350442781253E-16,0.));
#1211=DIRECTION('',(-2.1350442781253E-16,-1.,0.));
#1212=DIRECTION('',(1.,-2.1350442781253E-16,0.));
#1213=DIRECTION('',(-2.1350442781253E-16,-1.,0.));
#1214=DIRECTION('',(1.,-2.1350442781253E-16,0.));
#1215=DIRECTION('',(-2.1350442781253E-16,-1.,0.));
#1216=DIRECTION('',(1.,0.,0.));
#1217=DIRECTION('',(0.,1.,0.));
#1218=DIRECTION('',(1.,0.,0.));
#1219=DIRECTION('',(0.,1.,0.));
#1220=DIRECTION('',(1.,0.,0.));
#1221=DIRECTION('',(0.,1.,0.));
#1222=DIRECTION('',(1.,0.,0.));
#1223=DIRECTION('',(0.,1.,0.));
#1224=DIRECTION('',(1.,0.,0.));
#1225=DIRECTION('',(-2.1350442781253E-16,-1.,0.));
#1226=DIRECTION('',(-1.,2.1350442781253E-16,0.));
#1227=DIRECTION('',(-2.1350442781253E-16,-1.,0.));
#1228=DIRECTION('',(-1.,2.1350442781253E-16,0.));
#1229=DIRECTION('',(-2.1350442781253E-16,-1.,0.));
#1230=DIRECTION('',(0.,0.,-1.));
#1231=DIRECTION('',(-1.,0.,0.));
#1232=DIRECTION('',(1.,0.,0.));
#1233=DIRECTION('',(0.,1.,0.));
#1234=DIRECTION('',(1.,0.,0.));
#1235=DIRECTION('',(0.,1.,0.));
#1236=DIRECTION('',(0.,1.,0.));
#1237=DIRECTION('',(0.,0.,1.));
#1238=DIRECTION('',(0.,0.,-1.));
#1239=DIRECTION('',(0.,0.,-1.));
#1240=DIRECTION('',(0.,1.,0.));
#1241=DIRECTION('',(0.,0.,1.));
#1242=DIRECTION('',(0.,0.,-1.));
#1243=DIRECTION('',(0.,0.,-1.));
#1244=DIRECTION('',(1.,0.,0.));
#1245=DIRECTION('',(0.,0.,-1.));
#1246=DIRECTION('',(0.,0.,-1.));
#1247=DIRECTION('',(1.,0.,0.));
#1248=DIRECTION('',(0.,0.,-1.));
#1249=DIRECTION('',(0.,0.,-1.));
#1250=DIRECTION('',(0.,0.,-1.));
#1251=DIRECTION('',(0.,1.,0.));
#1252=DIRECTION('',(0.,0.,1.));
#1253=DIRECTION('',(0.,0.,-1.));
#1254=DIRECTION('',(-1.,0.,0.));
#1255=DIRECTION('',(0.,0.,1.));
#1256=DIRECTION('',(0.,0.,-1.));
#1257=DIRECTION('',(-1.,0.,0.));
#1258=DIRECTION('',(0.,0.,1.));
#1259=DIRECTION('',(0.,0.,-1.));
#1260=DIRECTION('',(0.,-1.,0.));
#1261=DIRECTION('',(1.,0.,0.));
#1262=DIRECTION('',(-1.,0.,0.));
#1263=DIRECTION('',(0.,0.,1.));
#1264=DIRECTION('',(0.,0.,-1.));
#1265=DIRECTION('',(-1.,0.,0.));
#1266=DIRECTION('',(0.,0.,1.));
#1267=DIRECTION('',(0.,0.,-1.));
#1268=DIRECTION('',(0.,-1.,0.));
#1269=DIRECTION('',(1.,0.,0.));
#1270=DIRECTION('',(2.1350442781253E-16,1.,0.));
#1271=DIRECTION('',(-1.,2.1350442781253E-16,0.));
#1272=DIRECTION('',(0.,0.,-1.));
#1273=DIRECTION('',(-1.,2.1350442781253E-16,0.));
#1274=DIRECTION('',(-2.1350442781253E-16,-1.,0.));
#1275=DIRECTION('',(0.,0.,-1.));
#1276=DIRECTION('',(-2.1350442781253E-16,-1.,0.));
#1277=DIRECTION('',(1.,-2.1350442781253E-16,0.));
#1278=DIRECTION('',(0.,0.,-1.));
#1279=DIRECTION('',(1.,-2.1350442781253E-16,0.));
#1280=DIRECTION('',(2.1350442781253E-16,1.,0.));
#1281=DIRECTION('',(0.,0.,-1.));
#1282=DIRECTION('',(1.,0.,0.));
#1283=DIRECTION('',(0.,0.,-1.));
#1284=DIRECTION('',(0.,0.,1.));
#1285=DIRECTION('',(0.,0.,1.));
#1286=DIRECTION('',(0.,0.,1.));
#1287=DIRECTION('',(1.,0.,0.));
#1288=DIRECTION('',(0.,0.,1.));
#1289=DIRECTION('',(0.,1.,0.));
#1290=DIRECTION('',(0.,0.,1.));
#1291=DIRECTION('',(0.,0.,1.));
#1292=DIRECTION('',(0.,0.,1.));
#1293=DIRECTION('',(1.,0.,0.));
#1294=DIRECTION('',(0.,0.,1.));
#1295=DIRECTION('',(1.,0.,0.));
#1296=DIRECTION('',(0.,0.,-1.));
#1297=DIRECTION('',(0.,0.,1.));
#1298=DIRECTION('',(0.,0.,1.));
#1299=DIRECTION('',(1.,0.,0.));
#1300=DIRECTION('',(0.,0.,1.));
#1301=DIRECTION('',(0.,1.,0.));
#1302=DIRECTION('',(0.,0.,1.));
#1303=DIRECTION('',(0.,0.,1.));
#1304=DIRECTION('',(0.,0.,1.));
#1305=DIRECTION('',(1.,0.,0.));
#1306=DIRECTION('',(1.,0.,0.));
#1307=DIRECTION('',(0.,0.,-1.));
#1308=DIRECTION('',(0.,0.,1.));
#1309=DIRECTION('',(0.,0.,1.));
#1310=DIRECTION('',(1.,0.,0.));
#1311=DIRECTION('',(0.,0.,-1.));
#1312=DIRECTION('',(0.,0.,1.));
#1313=DIRECTION('',(0.,0.,1.));
#1314=DIRECTION('',(1.,-2.1350442781253E-16,0.));
#1315=DIRECTION('',(2.1350442781253E-16,1.,0.));
#1316=DIRECTION('',(0.,0.,-1.));
#1317=DIRECTION('',(-1.2345704771713E-31,-5.78241158658936E-16,-1.));
#1318=DIRECTION('',(1.,-2.1350442781253E-16,0.));
#1319=DIRECTION('',(2.1350442781253E-16,1.,0.));
#1320=DIRECTION('',(0.,0.,-1.));
#1321=DIRECTION('',(0.,0.,-1.));
#1322=DIRECTION('',(1.,-2.1350442781253E-16,0.));
#1323=DIRECTION('',(2.1350442781253E-16,1.,0.));
#1324=DIRECTION('',(0.,0.,-1.));
#1325=DIRECTION('',(0.,0.,-1.));
#1326=DIRECTION('',(1.,-2.1350442781253E-16,0.));
#1327=DIRECTION('',(2.1350442781253E-16,1.,0.));
#1328=DIRECTION('',(-1.2345704771713E-31,-5.78241158658936E-16,-1.));
#1329=DIRECTION('',(0.,0.,-1.));
#1330=DIRECTION('',(0.,1.,0.));
#1331=DIRECTION('',(0.,0.,1.));
#1332=DIRECTION('',(0.,0.,-1.));
#1333=DIRECTION('',(0.,0.,-1.));
#1334=DIRECTION('',(0.,1.,0.));
#1335=DIRECTION('',(0.,0.,1.));
#1336=DIRECTION('',(0.,0.,-1.));
#1337=DIRECTION('',(0.,1.,0.));
#1338=DIRECTION('',(0.,0.,1.));
#1339=DIRECTION('',(0.,0.,-1.));
#1340=DIRECTION('',(1.,0.,0.));
#1341=DIRECTION('',(0.,0.,-1.));
#1342=DIRECTION('',(0.,0.,-1.));
#1343=DIRECTION('',(1.,0.,0.));
#1344=DIRECTION('',(0.,0.,-1.));
#1345=DIRECTION('',(0.,0.,-1.));
#1346=DIRECTION('',(0.,1.,0.));
#1347=DIRECTION('',(0.,0.,1.));
#1348=DIRECTION('',(1.,0.,0.));
#1349=DIRECTION('',(0.,0.,-1.));
#1350=DIRECTION('',(0.,0.,-1.));
#1351=DIRECTION('',(1.,0.,0.));
#1352=DIRECTION('',(0.,0.,-1.));
#1353=DIRECTION('',(0.,0.,-1.));
#1354=DIRECTION('',(0.,1.,0.));
#1355=DIRECTION('',(0.,0.,1.));
#1356=DIRECTION('',(2.1350442781253E-16,1.,-5.78241158658936E-16));
#1357=DIRECTION('',(0.,5.78241158658936E-16,1.));
#1358=DIRECTION('',(-1.2345704771713E-31,-5.78241158658936E-16,-1.));
#1359=DIRECTION('',(2.1350442781253E-16,1.,0.));
#1360=DIRECTION('',(-1.,2.1350442781253E-16,0.));
#1361=DIRECTION('',(0.,0.,-1.));
#1362=DIRECTION('',(-1.,2.1350442781253E-16,0.));
#1363=DIRECTION('',(-2.1350442781253E-16,-1.,0.));
#1364=DIRECTION('',(2.1350442781253E-16,1.,0.));
#1365=DIRECTION('',(-1.,2.1350442781253E-16,0.));
#1366=DIRECTION('',(-2.1350442781253E-16,-1.,5.78241158658936E-16));
#1367=DIRECTION('',(0.,-5.78241158658936E-16,-1.));
#1368=DIRECTION('',(-1.2345704771713E-31,-5.78241158658936E-16,-1.));
#1369=DIRECTION('',(-2.1350442781253E-16,-1.,0.));
#1370=DIRECTION('',(1.,-2.1350442781253E-16,0.));
#1371=DIRECTION('',(0.,0.,-1.));
#1372=DIRECTION('',(1.,-2.1350442781253E-16,0.));
#1373=DIRECTION('',(2.1350442781253E-16,1.,0.));
#1374=DIRECTION('',(-2.1350442781253E-16,-1.,0.));
#1375=DIRECTION('',(1.,-2.1350442781253E-16,0.));
#1376=DIRECTION('',(0.,0.,-1.));
#1377=DIRECTION('',(-1.,0.,0.));
#1378=DIRECTION('',(0.,-1.,0.));
#1379=DIRECTION('',(0.,0.,-1.));
#1380=DIRECTION('',(0.,-1.,0.));
#1381=DIRECTION('',(0.,0.,-1.));
#1382=CARTESIAN_POINT('',(0.,0.,0.));
#1383=CARTESIAN_POINT('',(-1.38777878078145E-17,-0.11,0.));
#1384=CARTESIAN_POINT('',(0.,3.67394039744206E-18,0.));
#1385=CARTESIAN_POINT('',(-0.0605,3.67394039744206E-18,0.));
#1386=CARTESIAN_POINT('',(-0.0622996709163999,-0.11,0.));
#1387=CARTESIAN_POINT('',(-0.0622996709163999,-0.109138086895767,0.));
#1388=CARTESIAN_POINT('',(-0.0622996709163999,-0.0971380868957667,0.));
#1389=CARTESIAN_POINT('',(-0.0612996709163999,-0.109138086895767,0.));
#1390=CARTESIAN_POINT('',(-0.0612996709163999,-0.110138086895767,0.));
#1391=CARTESIAN_POINT('',(-1.38777878078145E-17,-0.110138086895767,0.));
#1392=CARTESIAN_POINT('',(-0.0592996709163999,-0.110138086895767,0.));
#1393=CARTESIAN_POINT('',(-0.0592996709163999,-0.109138086895767,0.));
#1394=CARTESIAN_POINT('',(-0.0582996709163999,-0.109138086895767,0.));
#1395=CARTESIAN_POINT('',(-0.0582996709163999,-0.11,0.));
#1396=CARTESIAN_POINT('',(-0.0582996709163999,-0.0971380868957667,0.));
#1397=CARTESIAN_POINT('',(-0.0592996709163999,-0.0971380868957667,0.));
#1398=CARTESIAN_POINT('',(-0.0592996709163999,-0.0961380868957667,0.));
#1399=CARTESIAN_POINT('',(-1.38777878078145E-17,-0.0961380868957667,0.));
#1400=CARTESIAN_POINT('',(-0.0612996709163999,-0.0961380868957667,0.));
#1401=CARTESIAN_POINT('',(-0.0612996709163999,-0.0971380868957668,0.));
#1402=CARTESIAN_POINT('',(0.065,-0.045,0.));
#1403=CARTESIAN_POINT('',(0.065,-0.045,0.));
#1404=CARTESIAN_POINT('',(0.068,-0.045,0.));
#1405=CARTESIAN_POINT('',(0.065,-0.065,0.));
#1406=CARTESIAN_POINT('',(0.065,-0.085,0.));
#1407=CARTESIAN_POINT('',(0.065,-0.085,0.));
#1408=CARTESIAN_POINT('',(0.068,-0.085,0.));
#1409=CARTESIAN_POINT('',(0.068,-0.11,0.));
#1410=CARTESIAN_POINT('',(0.068,-0.118,0.));
#1411=CARTESIAN_POINT('',(-1.38777878078145E-17,-0.118,0.));
#1412=CARTESIAN_POINT('',(0.04,-0.118,0.));
#1413=CARTESIAN_POINT('',(0.04,-0.115,0.));
#1414=CARTESIAN_POINT('',(0.04,-0.115,0.));
#1415=CARTESIAN_POINT('',(0.03,-0.115,0.));
#1416=CARTESIAN_POINT('',(0.02,-0.115,0.));
#1417=CARTESIAN_POINT('',(0.02,-0.115,0.));
#1418=CARTESIAN_POINT('',(0.02,-0.118,0.));
#1419=CARTESIAN_POINT('',(-1.38777878078145E-17,-0.118,0.));
#1420=CARTESIAN_POINT('',(-0.02,-0.118,0.));
#1421=CARTESIAN_POINT('',(-0.02,-0.115,0.));
#1422=CARTESIAN_POINT('',(-0.02,-0.115,0.));
#1423=CARTESIAN_POINT('',(-0.03,-0.115,0.));
#1424=CARTESIAN_POINT('',(-0.04,-0.115,0.));
#1425=CARTESIAN_POINT('',(-0.04,-0.115,0.));
#1426=CARTESIAN_POINT('',(-0.04,-0.118,0.));
#1427=CARTESIAN_POINT('',(-1.38777878078145E-17,-0.118,0.));
#1428=CARTESIAN_POINT('',(-0.068,-0.118,0.));
#1429=CARTESIAN_POINT('',(-0.068,-0.11,0.));
#1430=CARTESIAN_POINT('',(-0.068,-0.085,0.));
#1431=CARTESIAN_POINT('',(-0.065,-0.085,0.));
#1432=CARTESIAN_POINT('',(-0.065,-0.085,0.));
#1433=CARTESIAN_POINT('',(-0.065,-0.065,0.));
#1434=CARTESIAN_POINT('',(-0.065,-0.045,0.));
#1435=CARTESIAN_POINT('',(-0.065,-0.045,0.));
#1436=CARTESIAN_POINT('',(-0.068,-0.045,0.));
#1437=CARTESIAN_POINT('',(-0.068,6.4051328343759E-19,0.));
#1438=CARTESIAN_POINT('',(-0.068,-0.005,0.));
#1439=CARTESIAN_POINT('',(-0.065,-0.005,0.));
#1440=CARTESIAN_POINT('',(-0.065,-0.005,0.));
#1441=CARTESIAN_POINT('',(-0.065,0.015,0.));
#1442=CARTESIAN_POINT('',(-0.065,0.035,0.));
#1443=CARTESIAN_POINT('',(-0.065,0.035,0.));
#1444=CARTESIAN_POINT('',(-0.068,0.035,0.));
#1445=CARTESIAN_POINT('',(-0.068,6.4051328343759E-19,0.));
#1446=CARTESIAN_POINT('',(-0.068,0.068,0.));
#1447=CARTESIAN_POINT('',(1.38777878078145E-17,0.068,0.));
#1448=CARTESIAN_POINT('',(-0.04,0.068,0.));
#1449=CARTESIAN_POINT('',(-0.04,0.065,0.));
#1450=CARTESIAN_POINT('',(-0.04,0.065,0.));
#1451=CARTESIAN_POINT('',(-0.03,0.065,0.));
#1452=CARTESIAN_POINT('',(-0.02,0.065,0.));
#1453=CARTESIAN_POINT('',(-0.02,0.065,0.));
#1454=CARTESIAN_POINT('',(-0.02,0.068,0.));
#1455=CARTESIAN_POINT('',(1.38777878078145E-17,0.068,0.));
#1456=CARTESIAN_POINT('',(0.02,0.068,0.));
#1457=CARTESIAN_POINT('',(0.02,0.065,0.));
#1458=CARTESIAN_POINT('',(0.02,0.065,0.));
#1459=CARTESIAN_POINT('',(0.03,0.065,0.));
#1460=CARTESIAN_POINT('',(0.04,0.065,0.));
#1461=CARTESIAN_POINT('',(0.04,0.065,0.));
#1462=CARTESIAN_POINT('',(0.04,0.068,0.));
#1463=CARTESIAN_POINT('',(1.38777878078145E-17,0.068,0.));
#1464=CARTESIAN_POINT('',(0.068,0.068,0.));
#1465=CARTESIAN_POINT('',(0.068,-6.4051328343759E-19,0.));
#1466=CARTESIAN_POINT('',(0.068,0.035,0.));
#1467=CARTESIAN_POINT('',(0.065,0.035,0.));
#1468=CARTESIAN_POINT('',(0.065,0.035,0.));
#1469=CARTESIAN_POINT('',(0.065,0.015,0.));
#1470=CARTESIAN_POINT('',(0.065,-0.005,0.));
#1471=CARTESIAN_POINT('',(0.065,-0.005,0.));
#1472=CARTESIAN_POINT('',(0.068,-0.005,0.));
#1473=CARTESIAN_POINT('',(0.068,-6.4051328343759E-19,0.));
#1474=CARTESIAN_POINT('',(0.038,-0.11,0.));
#1475=CARTESIAN_POINT('',(0.038,-0.11,0.));
#1476=CARTESIAN_POINT('',(0.038,-0.062,0.));
#1477=CARTESIAN_POINT('',(-1.38777878078145E-17,-0.11,0.));
#1478=CARTESIAN_POINT('',(0.052,-0.11,0.));
#1479=CARTESIAN_POINT('',(0.052,-0.11,0.));
#1480=CARTESIAN_POINT('',(0.052,-0.062,0.));
#1481=CARTESIAN_POINT('',(0.,-0.062,0.));
#1482=CARTESIAN_POINT('',(-1.38777878078145E-17,-0.11,0.003));
#1483=CARTESIAN_POINT('',(-0.0612996709163999,-0.109138086895767,0.003));
#1484=CARTESIAN_POINT('',(-0.0622996709163999,-0.109138086895767,0.003));
#1485=CARTESIAN_POINT('',(-0.0612996709163999,-0.110138086895767,0.003));
#1486=CARTESIAN_POINT('',(-0.0622996709163999,-0.103138086895767,0.003));
#1487=CARTESIAN_POINT('',(-0.0622996709163999,-0.0971380868957667,0.003));
#1488=CARTESIAN_POINT('',(-0.0612996709163999,-0.0971380868957668,0.003));
#1489=CARTESIAN_POINT('',(-0.0612996709163999,-0.0961380868957667,0.003));
#1490=CARTESIAN_POINT('',(-0.0602996709163999,-0.0961380868957667,0.003));
#1491=CARTESIAN_POINT('',(-0.0592996709163999,-0.0961380868957667,0.003));
#1492=CARTESIAN_POINT('',(-0.0592996709163999,-0.0971380868957667,0.003));
#1493=CARTESIAN_POINT('',(-0.0582996709163999,-0.0971380868957667,0.003));
#1494=CARTESIAN_POINT('',(-0.0582996709163999,-0.103138086895767,0.003));
#1495=CARTESIAN_POINT('',(-0.0582996709163999,-0.109138086895767,0.003));
#1496=CARTESIAN_POINT('',(-0.0592996709163999,-0.109138086895767,0.003));
#1497=CARTESIAN_POINT('',(-0.0592996709163999,-0.110138086895767,0.003));
#1498=CARTESIAN_POINT('',(-0.0602996709163999,-0.110138086895767,0.003));
#1499=CARTESIAN_POINT('',(-0.065,-0.045,0.003));
#1500=CARTESIAN_POINT('',(-0.065,-0.045,0.003));
#1501=CARTESIAN_POINT('',(-0.068,-0.045,0.003));
#1502=CARTESIAN_POINT('',(-0.065,-9.62964972193618E-35,0.003));
#1503=CARTESIAN_POINT('',(-0.065,-0.085,0.003));
#1504=CARTESIAN_POINT('',(-0.065,-0.085,0.003));
#1505=CARTESIAN_POINT('',(-0.068,-0.085,0.003));
#1506=CARTESIAN_POINT('',(-0.068,-0.11,0.003));
#1507=CARTESIAN_POINT('',(-0.068,-0.118,0.003));
#1508=CARTESIAN_POINT('',(-1.38777878078145E-17,-0.118,0.003));
#1509=CARTESIAN_POINT('',(-0.04,-0.118,0.003));
#1510=CARTESIAN_POINT('',(-0.04,-0.115,0.003));
#1511=CARTESIAN_POINT('',(-0.04,-0.115,0.003));
#1512=CARTESIAN_POINT('',(-1.38777878078145E-17,-0.115,0.003));
#1513=CARTESIAN_POINT('',(-0.02,-0.115,0.003));
#1514=CARTESIAN_POINT('',(-0.02,-0.115,0.003));
#1515=CARTESIAN_POINT('',(-0.02,-0.118,0.003));
#1516=CARTESIAN_POINT('',(-1.38777878078145E-17,-0.118,0.003));
#1517=CARTESIAN_POINT('',(0.02,-0.118,0.003));
#1518=CARTESIAN_POINT('',(0.02,-0.115,0.003));
#1519=CARTESIAN_POINT('',(0.02,-0.115,0.003));
#1520=CARTESIAN_POINT('',(-1.38777878078145E-17,-0.115,0.003));
#1521=CARTESIAN_POINT('',(0.04,-0.115,0.003));
#1522=CARTESIAN_POINT('',(0.04,-0.115,0.003));
#1523=CARTESIAN_POINT('',(0.04,-0.118,0.003));
#1524=CARTESIAN_POINT('',(-1.38777878078145E-17,-0.118,0.003));
#1525=CARTESIAN_POINT('',(0.068,-0.118,0.003));
#1526=CARTESIAN_POINT('',(0.068,-0.11,0.003));
#1527=CARTESIAN_POINT('',(0.068,-0.085,0.003));
#1528=CARTESIAN_POINT('',(0.065,-0.085,0.003));
#1529=CARTESIAN_POINT('',(0.065,-0.085,0.003));
#1530=CARTESIAN_POINT('',(0.065,-2.77555756156289E-17,0.003));
#1531=CARTESIAN_POINT('',(0.065,-0.045,0.003));
#1532=CARTESIAN_POINT('',(0.065,-0.045,0.003));
#1533=CARTESIAN_POINT('',(0.068,-0.045,0.003));
#1534=CARTESIAN_POINT('',(0.068,-6.4051328343759E-19,0.003));
#1535=CARTESIAN_POINT('',(0.068,-0.005,0.003));
#1536=CARTESIAN_POINT('',(0.065,-0.005,0.003));
#1537=CARTESIAN_POINT('',(0.065,-0.005,0.003));
#1538=CARTESIAN_POINT('',(0.065,-2.77555756156289E-17,0.003));
#1539=CARTESIAN_POINT('',(0.065,0.035,0.003));
#1540=CARTESIAN_POINT('',(0.065,0.035,0.003));
#1541=CARTESIAN_POINT('',(0.068,0.035,0.003));
#1542=CARTESIAN_POINT('',(0.068,-6.4051328343759E-19,0.003));
#1543=CARTESIAN_POINT('',(0.068,0.068,0.003));
#1544=CARTESIAN_POINT('',(1.38777878078145E-17,0.068,0.003));
#1545=CARTESIAN_POINT('',(0.04,0.068,0.003));
#1546=CARTESIAN_POINT('',(0.04,0.065,0.003));
#1547=CARTESIAN_POINT('',(0.04,0.065,0.003));
#1548=CARTESIAN_POINT('',(-1.38777878078145E-17,0.065,0.003));
#1549=CARTESIAN_POINT('',(0.02,0.065,0.003));
#1550=CARTESIAN_POINT('',(0.02,0.065,0.003));
#1551=CARTESIAN_POINT('',(0.02,0.068,0.003));
#1552=CARTESIAN_POINT('',(1.38777878078145E-17,0.068,0.003));
#1553=CARTESIAN_POINT('',(-0.02,0.068,0.003));
#1554=CARTESIAN_POINT('',(-0.02,0.065,0.003));
#1555=CARTESIAN_POINT('',(-0.02,0.065,0.003));
#1556=CARTESIAN_POINT('',(-1.38777878078145E-17,0.065,0.003));
#1557=CARTESIAN_POINT('',(-0.04,0.065,0.003));
#1558=CARTESIAN_POINT('',(-0.04,0.065,0.003));
#1559=CARTESIAN_POINT('',(-0.04,0.068,0.003));
#1560=CARTESIAN_POINT('',(1.38777878078145E-17,0.068,0.003));
#1561=CARTESIAN_POINT('',(-0.068,0.068,0.003));
#1562=CARTESIAN_POINT('',(-0.068,6.4051328343759E-19,0.003));
#1563=CARTESIAN_POINT('',(-0.068,0.035,0.003));
#1564=CARTESIAN_POINT('',(-0.065,0.035,0.003));
#1565=CARTESIAN_POINT('',(-0.065,0.035,0.003));
#1566=CARTESIAN_POINT('',(-0.065,-9.62964972193618E-35,0.003));
#1567=CARTESIAN_POINT('',(-0.065,-0.005,0.003));
#1568=CARTESIAN_POINT('',(-0.065,-0.005,0.003));
#1569=CARTESIAN_POINT('',(-0.068,-0.005,0.003));
#1570=CARTESIAN_POINT('',(-0.068,6.4051328343759E-19,0.003));
#1571=CARTESIAN_POINT('',(0.,3.67394039744206E-18,0.003));
#1572=CARTESIAN_POINT('',(-0.0605,3.67394039744206E-18,0.003));
#1573=CARTESIAN_POINT('',(-1.38777878078145E-17,-0.11,0.003));
#1574=CARTESIAN_POINT('',(0.038,-0.11,0.003));
#1575=CARTESIAN_POINT('',(0.052,-0.11,0.003));
#1576=CARTESIAN_POINT('',(0.038,-0.11,0.003));
#1577=CARTESIAN_POINT('',(0.038,-0.062,0.003));
#1578=CARTESIAN_POINT('',(0.,-0.062,0.003));
#1579=CARTESIAN_POINT('',(0.052,-0.062,0.003));
#1580=CARTESIAN_POINT('',(0.052,-0.11,0.003));
#1581=CARTESIAN_POINT('',(-1.38777878078145E-17,-0.118,0.003));
#1582=CARTESIAN_POINT('',(0.02,-0.118,0.0015));
#1583=CARTESIAN_POINT('',(-0.02,-0.118,0.0015));
#1584=CARTESIAN_POINT('',(-1.38777878078145E-17,-0.118,0.003));
#1585=CARTESIAN_POINT('',(-0.04,-0.118,0.0015));
#1586=CARTESIAN_POINT('',(-0.068,-0.118,0.003));
#1587=CARTESIAN_POINT('',(-0.068,-0.11,0.003));
#1588=CARTESIAN_POINT('',(-0.068,-0.085,0.0015));
#1589=CARTESIAN_POINT('',(0.068,-0.11,0.003));
#1590=CARTESIAN_POINT('',(0.068,-0.085,0.0015));
#1591=CARTESIAN_POINT('',(0.068,-0.118,0.003));
#1592=CARTESIAN_POINT('',(-1.38777878078145E-17,-0.118,0.003));
#1593=CARTESIAN_POINT('',(0.04,-0.118,0.0015));
#1594=CARTESIAN_POINT('',(-0.02,-0.115,0.0015));
#1595=CARTESIAN_POINT('',(-0.02,-0.115,0.0015));
#1596=CARTESIAN_POINT('',(-0.04,-0.115,0.0015));
#1597=CARTESIAN_POINT('',(-0.04,-0.115,0.0015));
#1598=CARTESIAN_POINT('',(-1.38777878078145E-17,-0.115,0.0715));
#1599=CARTESIAN_POINT('',(0.02,-0.115,0.0015));
#1600=CARTESIAN_POINT('',(0.02,-0.115,0.0015));
#1601=CARTESIAN_POINT('',(0.04,-0.115,0.0015));
#1602=CARTESIAN_POINT('',(0.04,-0.115,0.0015));
#1603=CARTESIAN_POINT('',(-1.38777878078145E-17,-0.115,0.0715));
#1604=CARTESIAN_POINT('',(-0.065,-0.085,0.0015));
#1605=CARTESIAN_POINT('',(-0.065,-0.085,0.0015));
#1606=CARTESIAN_POINT('',(-0.065,-0.025,0.0715));
#1607=CARTESIAN_POINT('',(-0.065,-0.045,0.0015));
#1608=CARTESIAN_POINT('',(0.065,-0.085,0.0015));
#1609=CARTESIAN_POINT('',(0.065,-0.085,0.0015));
#1610=CARTESIAN_POINT('',(0.065,0.,0.003));
#1611=CARTESIAN_POINT('',(0.065,-0.045,0.0015));
#1612=CARTESIAN_POINT('',(-0.0622996709163999,-0.103138086895767,-0.022));
#1613=CARTESIAN_POINT('',(-0.0622996709163999,-0.0971380868957667,-0.022));
#1614=CARTESIAN_POINT('',(-0.0622996709163999,-0.109138086895767,-0.022));
#1615=CARTESIAN_POINT('',(-0.0612996709163999,-0.109138086895767,-0.022));
#1616=CARTESIAN_POINT('',(-0.0612996709163999,-0.110138086895767,-0.022));
#1617=CARTESIAN_POINT('',(-0.0602996709163999,-0.110138086895767,-0.022));
#1618=CARTESIAN_POINT('',(-0.0592996709163999,-0.110138086895767,-0.022));
#1619=CARTESIAN_POINT('',(-0.0592996709163999,-0.109138086895767,-0.022));
#1620=CARTESIAN_POINT('',(-0.0582996709163999,-0.109138086895767,-0.022));
#1621=CARTESIAN_POINT('',(-0.0582996709163999,-0.103138086895767,-0.022));
#1622=CARTESIAN_POINT('',(-0.0582996709163999,-0.0971380868957667,-0.022));
#1623=CARTESIAN_POINT('',(-0.0592996709163999,-0.0971380868957667,-0.022));
#1624=CARTESIAN_POINT('',(-0.0592996709163999,-0.0961380868957667,-0.022));
#1625=CARTESIAN_POINT('',(-0.0602996709163999,-0.0961380868957667,-0.022));
#1626=CARTESIAN_POINT('',(-0.0612996709163999,-0.0961380868957667,-0.022));
#1627=CARTESIAN_POINT('',(-0.0612996709163999,-0.0971380868957668,-0.022));
#1628=CARTESIAN_POINT('',(0.038,-0.062,-0.067002));
#1629=CARTESIAN_POINT('',(0.038,-0.062,-0.067002));
#1630=CARTESIAN_POINT('',(0.038,-0.11,-0.067002));
#1631=CARTESIAN_POINT('',(0.052,-0.062,-0.067002));
#1632=CARTESIAN_POINT('',(0.052,-0.11,-0.067002));
#1633=CARTESIAN_POINT('',(0.052,-0.062,-0.067002));
#1634=CARTESIAN_POINT('',(0.068,-6.4051328343759E-19,0.003));
#1635=CARTESIAN_POINT('',(0.068,-0.045,0.0015));
#1636=CARTESIAN_POINT('',(0.068,-0.005,0.0015));
#1637=CARTESIAN_POINT('',(0.068,-6.4051328343759E-19,0.003));
#1638=CARTESIAN_POINT('',(0.068,0.035,0.0015));
#1639=CARTESIAN_POINT('',(0.068,0.068,0.003));
#1640=CARTESIAN_POINT('',(-0.068,6.4051328343759E-19,0.003));
#1641=CARTESIAN_POINT('',(-0.068,0.035,0.0015));
#1642=CARTESIAN_POINT('',(-0.068,0.068,0.003));
#1643=CARTESIAN_POINT('',(-0.068,6.4051328343759E-19,0.003));
#1644=CARTESIAN_POINT('',(-0.068,-0.005,0.0015));
#1645=CARTESIAN_POINT('',(-0.068,-0.045,0.0015));
#1646=CARTESIAN_POINT('',(1.38777878078145E-17,0.068,0.003));
#1647=CARTESIAN_POINT('',(0.02,0.068,0.0015));
#1648=CARTESIAN_POINT('',(-0.02,0.068,0.0015));
#1649=CARTESIAN_POINT('',(1.38777878078145E-17,0.068,0.003));
#1650=CARTESIAN_POINT('',(-0.04,0.068,0.0015));
#1651=CARTESIAN_POINT('',(1.38777878078145E-17,0.068,0.003));
#1652=CARTESIAN_POINT('',(0.04,0.068,0.0015));
#1653=CARTESIAN_POINT('',(-0.02,0.065,0.0015));
#1654=CARTESIAN_POINT('',(-0.02,0.065,0.0015));
#1655=CARTESIAN_POINT('',(-0.04,0.065,0.0015));
#1656=CARTESIAN_POINT('',(-0.04,0.065,0.0015));
#1657=CARTESIAN_POINT('',(1.38777878078145E-17,0.065,0.003));
#1658=CARTESIAN_POINT('',(0.02,0.065,0.0015));
#1659=CARTESIAN_POINT('',(0.02,0.065,0.0015));
#1660=CARTESIAN_POINT('',(0.04,0.065,0.0015));
#1661=CARTESIAN_POINT('',(0.04,0.065,0.0015));
#1662=CARTESIAN_POINT('',(1.38777878078145E-17,0.065,0.003));
#1663=CARTESIAN_POINT('',(-0.065,-0.005,0.0015));
#1664=CARTESIAN_POINT('',(-0.065,-0.005,0.0015));
#1665=CARTESIAN_POINT('',(-0.065,0.035,0.0015));
#1666=CARTESIAN_POINT('',(-0.065,0.035,0.0015));
#1667=CARTESIAN_POINT('',(-0.065,-0.025,0.0715));
#1668=CARTESIAN_POINT('',(-0.065,-0.045,0.0015));
#1669=CARTESIAN_POINT('',(0.065,-0.005,0.0015));
#1670=CARTESIAN_POINT('',(0.065,-0.005,0.0015));
#1671=CARTESIAN_POINT('',(0.065,0.035,0.0015));
#1672=CARTESIAN_POINT('',(0.065,0.035,0.0015));
#1673=CARTESIAN_POINT('',(0.065,0.,0.003));
#1674=CARTESIAN_POINT('',(0.065,-0.045,0.0015));
#1675=CARTESIAN_POINT('',(0.,3.67394039744206E-18,0.003));
#1676=CARTESIAN_POINT('',(0.051,-0.062,-0.067002));
#1677=CARTESIAN_POINT('',(0.051,-0.11,-0.067002));
#1678=MECHANICAL_DESIGN_GEOMETRIC_PRESENTATION_REPRESENTATION('',(#1049),
#1679);
#1679=(
GEOMETRIC_REPRESENTATION_CONTEXT(3)
GLOBAL_UNCERTAINTY_ASSIGNED_CONTEXT((#1680))
GLOBAL_UNIT_ASSIGNED_CONTEXT((#1683,#1682,#1681))
REPRESENTATION_CONTEXT('Part 3','TOP_LEVEL_ASSEMBLY_PART')
);
#1680=UNCERTAINTY_MEASURE_WITH_UNIT(LENGTH_MEASURE(1.E-8),#1683,
'DISTANCE_ACCURACY_VALUE','Maximum Tolerance applied to model');
#1681=(
NAMED_UNIT(*)
SI_UNIT($,.STERADIAN.)
SOLID_ANGLE_UNIT()
);
#1682=(
NAMED_UNIT(*)
PLANE_ANGLE_UNIT()
SI_UNIT($,.RADIAN.)
);
#1683=(
LENGTH_UNIT()
NAMED_UNIT(*)
SI_UNIT($,.METRE.)
);
#1684=PRODUCT_DEFINITION_SHAPE('','',#1685);
#1685=PRODUCT_DEFINITION('','',#1687,#1686);
#1686=PRODUCT_DEFINITION_CONTEXT('',#1693,'design');
#1687=PRODUCT_DEFINITION_FORMATION_WITH_SPECIFIED_SOURCE('','',#1689,
 .NOT_KNOWN.);
#1688=PRODUCT_RELATED_PRODUCT_CATEGORY('','',(#1689));
#1689=PRODUCT('Part 3','Part 3','Part 3',(#1691));
#1690=PRODUCT_CATEGORY('','');
#1691=PRODUCT_CONTEXT('',#1693,'mechanical');
#1692=APPLICATION_PROTOCOL_DEFINITION('international standard',
'ap242_managed_model_based_3d_engineering',2020,#1693);
#1693=APPLICATION_CONTEXT('managed model based 3d engineering');
ENDSEC;
END-ISO-10303-21;
