ISO-10303-21;
HEADER;
/* Generated by software containing ST-Developer
 * from STEP Tools, Inc. (www.steptools.com) 
 */
/* OPTION: using custom renumber hook */

FILE_DESCRIPTION(
/* description */ ('STEP AP242 Edition 2',
'CAx-IF Rec.Pracs.---Representation and Presentation of Product Manufa
cturing Information (PMI)---4.0---2014-10-13',
'CAx-IF Rec.Pracs.---3D Tessellated Geometry---0.4---2014-09-14','2;1',
'CAx-IF Rec.Pracs.---User Defined Attributes---1.5---2016-08-15'),
/* implementation_level */ '2;1');

FILE_NAME(
/* name */ 'v2 - Part 16',
/* time_stamp */ '2026-07-31T04:40:32Z',
/* author */ (''),
/* organization */ (''),
/* preprocessor_version */ 'ST-DEVELOPER v20',
/* originating_system */ 'ONSHAPE BY PTC INC, 1.218',
/* authorisation */ '  ');

FILE_SCHEMA (('AP242_MANAGED_MODEL_BASED_3D_ENGINEERING_MIM_LF { 1 0 10303 442 3 1 4 }'));
ENDSEC;

DATA;
#10=SHAPE_REPRESENTATION_RELATIONSHIP('','',#797,#11);
#11=ADVANCED_BREP_SHAPE_REPRESENTATION('',(#795),#1275);
#12=CYLINDRICAL_SURFACE('',#845,0.001);
#13=CYLINDRICAL_SURFACE('',#846,0.001);
#14=CYLINDRICAL_SURFACE('',#847,0.001);
#15=CYLINDRICAL_SURFACE('',#848,0.001);
#16=CYLINDRICAL_SURFACE('',#849,0.001);
#17=CYLINDRICAL_SURFACE('',#850,0.001);
#18=CYLINDRICAL_SURFACE('',#851,0.001);
#19=CYLINDRICAL_SURFACE('',#852,0.001);
#20=CIRCLE('',#800,0.001);
#21=CIRCLE('',#801,0.001);
#22=CIRCLE('',#802,0.001);
#23=CIRCLE('',#803,0.001);
#24=CIRCLE('',#804,0.001);
#25=CIRCLE('',#805,0.001);
#26=CIRCLE('',#806,0.001);
#27=CIRCLE('',#807,0.001);
#28=CIRCLE('',#809,0.001);
#29=CIRCLE('',#810,0.001);
#30=CIRCLE('',#811,0.001);
#31=CIRCLE('',#812,0.001);
#32=CIRCLE('',#813,0.001);
#33=CIRCLE('',#814,0.001);
#34=CIRCLE('',#815,0.001);
#35=CIRCLE('',#816,0.001);
#36=ORIENTED_EDGE('',*,*,#252,.F.);
#37=ORIENTED_EDGE('',*,*,#253,.T.);
#38=ORIENTED_EDGE('',*,*,#254,.T.);
#39=ORIENTED_EDGE('',*,*,#255,.T.);
#40=ORIENTED_EDGE('',*,*,#256,.T.);
#41=ORIENTED_EDGE('',*,*,#257,.T.);
#42=ORIENTED_EDGE('',*,*,#258,.T.);
#43=ORIENTED_EDGE('',*,*,#259,.T.);
#44=ORIENTED_EDGE('',*,*,#260,.T.);
#45=ORIENTED_EDGE('',*,*,#261,.T.);
#46=ORIENTED_EDGE('',*,*,#262,.F.);
#47=ORIENTED_EDGE('',*,*,#263,.T.);
#48=ORIENTED_EDGE('',*,*,#264,.T.);
#49=ORIENTED_EDGE('',*,*,#265,.T.);
#50=ORIENTED_EDGE('',*,*,#266,.F.);
#51=ORIENTED_EDGE('',*,*,#267,.F.);
#52=ORIENTED_EDGE('',*,*,#268,.F.);
#53=ORIENTED_EDGE('',*,*,#269,.T.);
#54=ORIENTED_EDGE('',*,*,#270,.T.);
#55=ORIENTED_EDGE('',*,*,#271,.F.);
#56=ORIENTED_EDGE('',*,*,#272,.F.);
#57=ORIENTED_EDGE('',*,*,#273,.T.);
#58=ORIENTED_EDGE('',*,*,#274,.T.);
#59=ORIENTED_EDGE('',*,*,#275,.F.);
#60=ORIENTED_EDGE('',*,*,#276,.F.);
#61=ORIENTED_EDGE('',*,*,#277,.T.);
#62=ORIENTED_EDGE('',*,*,#278,.T.);
#63=ORIENTED_EDGE('',*,*,#279,.F.);
#64=ORIENTED_EDGE('',*,*,#280,.F.);
#65=ORIENTED_EDGE('',*,*,#281,.T.);
#66=ORIENTED_EDGE('',*,*,#282,.T.);
#67=ORIENTED_EDGE('',*,*,#283,.T.);
#68=ORIENTED_EDGE('',*,*,#284,.T.);
#69=ORIENTED_EDGE('',*,*,#285,.T.);
#70=ORIENTED_EDGE('',*,*,#286,.F.);
#71=ORIENTED_EDGE('',*,*,#287,.T.);
#72=ORIENTED_EDGE('',*,*,#288,.F.);
#73=ORIENTED_EDGE('',*,*,#289,.T.);
#74=ORIENTED_EDGE('',*,*,#290,.T.);
#75=ORIENTED_EDGE('',*,*,#291,.T.);
#76=ORIENTED_EDGE('',*,*,#292,.F.);
#77=ORIENTED_EDGE('',*,*,#293,.T.);
#78=ORIENTED_EDGE('',*,*,#294,.F.);
#79=ORIENTED_EDGE('',*,*,#295,.T.);
#80=ORIENTED_EDGE('',*,*,#296,.F.);
#81=ORIENTED_EDGE('',*,*,#297,.T.);
#82=ORIENTED_EDGE('',*,*,#298,.T.);
#83=ORIENTED_EDGE('',*,*,#299,.F.);
#84=ORIENTED_EDGE('',*,*,#300,.F.);
#85=ORIENTED_EDGE('',*,*,#301,.T.);
#86=ORIENTED_EDGE('',*,*,#302,.T.);
#87=ORIENTED_EDGE('',*,*,#303,.F.);
#88=ORIENTED_EDGE('',*,*,#304,.F.);
#89=ORIENTED_EDGE('',*,*,#305,.F.);
#90=ORIENTED_EDGE('',*,*,#306,.T.);
#91=ORIENTED_EDGE('',*,*,#307,.F.);
#92=ORIENTED_EDGE('',*,*,#308,.F.);
#93=ORIENTED_EDGE('',*,*,#309,.F.);
#94=ORIENTED_EDGE('',*,*,#310,.T.);
#95=ORIENTED_EDGE('',*,*,#311,.T.);
#96=ORIENTED_EDGE('',*,*,#312,.F.);
#97=ORIENTED_EDGE('',*,*,#313,.T.);
#98=ORIENTED_EDGE('',*,*,#314,.T.);
#99=ORIENTED_EDGE('',*,*,#315,.F.);
#100=ORIENTED_EDGE('',*,*,#316,.F.);
#101=ORIENTED_EDGE('',*,*,#317,.T.);
#102=ORIENTED_EDGE('',*,*,#318,.F.);
#103=ORIENTED_EDGE('',*,*,#319,.T.);
#104=ORIENTED_EDGE('',*,*,#320,.T.);
#105=ORIENTED_EDGE('',*,*,#321,.T.);
#106=ORIENTED_EDGE('',*,*,#322,.T.);
#107=ORIENTED_EDGE('',*,*,#323,.T.);
#108=ORIENTED_EDGE('',*,*,#304,.T.);
#109=ORIENTED_EDGE('',*,*,#324,.F.);
#110=ORIENTED_EDGE('',*,*,#260,.F.);
#111=ORIENTED_EDGE('',*,*,#325,.T.);
#112=ORIENTED_EDGE('',*,*,#307,.T.);
#113=ORIENTED_EDGE('',*,*,#326,.F.);
#114=ORIENTED_EDGE('',*,*,#261,.F.);
#115=ORIENTED_EDGE('',*,*,#324,.T.);
#116=ORIENTED_EDGE('',*,*,#306,.F.);
#117=ORIENTED_EDGE('',*,*,#327,.F.);
#118=ORIENTED_EDGE('',*,*,#262,.T.);
#119=ORIENTED_EDGE('',*,*,#326,.T.);
#120=ORIENTED_EDGE('',*,*,#305,.T.);
#121=ORIENTED_EDGE('',*,*,#325,.F.);
#122=ORIENTED_EDGE('',*,*,#263,.F.);
#123=ORIENTED_EDGE('',*,*,#327,.T.);
#124=ORIENTED_EDGE('',*,*,#265,.F.);
#125=ORIENTED_EDGE('',*,*,#328,.F.);
#126=ORIENTED_EDGE('',*,*,#308,.T.);
#127=ORIENTED_EDGE('',*,*,#329,.T.);
#128=ORIENTED_EDGE('',*,*,#264,.F.);
#129=ORIENTED_EDGE('',*,*,#330,.F.);
#130=ORIENTED_EDGE('',*,*,#309,.T.);
#131=ORIENTED_EDGE('',*,*,#328,.T.);
#132=ORIENTED_EDGE('',*,*,#267,.T.);
#133=ORIENTED_EDGE('',*,*,#331,.F.);
#134=ORIENTED_EDGE('',*,*,#310,.F.);
#135=ORIENTED_EDGE('',*,*,#330,.T.);
#136=ORIENTED_EDGE('',*,*,#266,.T.);
#137=ORIENTED_EDGE('',*,*,#329,.F.);
#138=ORIENTED_EDGE('',*,*,#311,.F.);
#139=ORIENTED_EDGE('',*,*,#331,.T.);
#140=ORIENTED_EDGE('',*,*,#269,.F.);
#141=ORIENTED_EDGE('',*,*,#332,.F.);
#142=ORIENTED_EDGE('',*,*,#300,.T.);
#143=ORIENTED_EDGE('',*,*,#333,.T.);
#144=ORIENTED_EDGE('',*,*,#268,.T.);
#145=ORIENTED_EDGE('',*,*,#334,.F.);
#146=ORIENTED_EDGE('',*,*,#301,.F.);
#147=ORIENTED_EDGE('',*,*,#332,.T.);
#148=ORIENTED_EDGE('',*,*,#271,.T.);
#149=ORIENTED_EDGE('',*,*,#335,.F.);
#150=ORIENTED_EDGE('',*,*,#302,.F.);
#151=ORIENTED_EDGE('',*,*,#334,.T.);
#152=ORIENTED_EDGE('',*,*,#270,.F.);
#153=ORIENTED_EDGE('',*,*,#333,.F.);
#154=ORIENTED_EDGE('',*,*,#303,.T.);
#155=ORIENTED_EDGE('',*,*,#335,.T.);
#156=ORIENTED_EDGE('',*,*,#273,.F.);
#157=ORIENTED_EDGE('',*,*,#336,.F.);
#158=ORIENTED_EDGE('',*,*,#312,.T.);
#159=ORIENTED_EDGE('',*,*,#337,.T.);
#160=ORIENTED_EDGE('',*,*,#272,.T.);
#161=ORIENTED_EDGE('',*,*,#338,.F.);
#162=ORIENTED_EDGE('',*,*,#313,.F.);
#163=ORIENTED_EDGE('',*,*,#336,.T.);
#164=ORIENTED_EDGE('',*,*,#275,.T.);
#165=ORIENTED_EDGE('',*,*,#339,.F.);
#166=ORIENTED_EDGE('',*,*,#314,.F.);
#167=ORIENTED_EDGE('',*,*,#338,.T.);
#168=ORIENTED_EDGE('',*,*,#274,.F.);
#169=ORIENTED_EDGE('',*,*,#337,.F.);
#170=ORIENTED_EDGE('',*,*,#315,.T.);
#171=ORIENTED_EDGE('',*,*,#339,.T.);
#172=ORIENTED_EDGE('',*,*,#277,.F.);
#173=ORIENTED_EDGE('',*,*,#340,.F.);
#174=ORIENTED_EDGE('',*,*,#296,.T.);
#175=ORIENTED_EDGE('',*,*,#341,.T.);
#176=ORIENTED_EDGE('',*,*,#276,.T.);
#177=ORIENTED_EDGE('',*,*,#342,.F.);
#178=ORIENTED_EDGE('',*,*,#297,.F.);
#179=ORIENTED_EDGE('',*,*,#340,.T.);
#180=ORIENTED_EDGE('',*,*,#279,.T.);
#181=ORIENTED_EDGE('',*,*,#343,.F.);
#182=ORIENTED_EDGE('',*,*,#298,.F.);
#183=ORIENTED_EDGE('',*,*,#342,.T.);
#184=ORIENTED_EDGE('',*,*,#278,.F.);
#185=ORIENTED_EDGE('',*,*,#341,.F.);
#186=ORIENTED_EDGE('',*,*,#299,.T.);
#187=ORIENTED_EDGE('',*,*,#343,.T.);
#188=ORIENTED_EDGE('',*,*,#284,.F.);
#189=ORIENTED_EDGE('',*,*,#344,.T.);
#190=ORIENTED_EDGE('',*,*,#316,.T.);
#191=ORIENTED_EDGE('',*,*,#345,.T.);
#192=ORIENTED_EDGE('',*,*,#318,.T.);
#193=ORIENTED_EDGE('',*,*,#346,.T.);
#194=ORIENTED_EDGE('',*,*,#282,.F.);
#195=ORIENTED_EDGE('',*,*,#347,.T.);
#196=ORIENTED_EDGE('',*,*,#320,.F.);
#197=ORIENTED_EDGE('',*,*,#348,.T.);
#198=ORIENTED_EDGE('',*,*,#280,.T.);
#199=ORIENTED_EDGE('',*,*,#349,.T.);
#200=ORIENTED_EDGE('',*,*,#286,.T.);
#201=ORIENTED_EDGE('',*,*,#350,.T.);
#202=ORIENTED_EDGE('',*,*,#322,.F.);
#203=ORIENTED_EDGE('',*,*,#351,.T.);
#204=ORIENTED_EDGE('',*,*,#290,.F.);
#205=ORIENTED_EDGE('',*,*,#352,.T.);
#206=ORIENTED_EDGE('',*,*,#252,.T.);
#207=ORIENTED_EDGE('',*,*,#353,.T.);
#208=ORIENTED_EDGE('',*,*,#292,.T.);
#209=ORIENTED_EDGE('',*,*,#354,.T.);
#210=ORIENTED_EDGE('',*,*,#258,.F.);
#211=ORIENTED_EDGE('',*,*,#355,.T.);
#212=ORIENTED_EDGE('',*,*,#294,.T.);
#213=ORIENTED_EDGE('',*,*,#356,.T.);
#214=ORIENTED_EDGE('',*,*,#256,.F.);
#215=ORIENTED_EDGE('',*,*,#357,.T.);
#216=ORIENTED_EDGE('',*,*,#254,.F.);
#217=ORIENTED_EDGE('',*,*,#358,.T.);
#218=ORIENTED_EDGE('',*,*,#288,.T.);
#219=ORIENTED_EDGE('',*,*,#359,.T.);
#220=ORIENTED_EDGE('',*,*,#289,.F.);
#221=ORIENTED_EDGE('',*,*,#358,.F.);
#222=ORIENTED_EDGE('',*,*,#253,.F.);
#223=ORIENTED_EDGE('',*,*,#352,.F.);
#224=ORIENTED_EDGE('',*,*,#291,.F.);
#225=ORIENTED_EDGE('',*,*,#353,.F.);
#226=ORIENTED_EDGE('',*,*,#259,.F.);
#227=ORIENTED_EDGE('',*,*,#354,.F.);
#228=ORIENTED_EDGE('',*,*,#293,.F.);
#229=ORIENTED_EDGE('',*,*,#355,.F.);
#230=ORIENTED_EDGE('',*,*,#257,.F.);
#231=ORIENTED_EDGE('',*,*,#356,.F.);
#232=ORIENTED_EDGE('',*,*,#295,.F.);
#233=ORIENTED_EDGE('',*,*,#357,.F.);
#234=ORIENTED_EDGE('',*,*,#255,.F.);
#235=ORIENTED_EDGE('',*,*,#359,.F.);
#236=ORIENTED_EDGE('',*,*,#317,.F.);
#237=ORIENTED_EDGE('',*,*,#344,.F.);
#238=ORIENTED_EDGE('',*,*,#283,.F.);
#239=ORIENTED_EDGE('',*,*,#346,.F.);
#240=ORIENTED_EDGE('',*,*,#319,.F.);
#241=ORIENTED_EDGE('',*,*,#347,.F.);
#242=ORIENTED_EDGE('',*,*,#281,.F.);
#243=ORIENTED_EDGE('',*,*,#348,.F.);
#244=ORIENTED_EDGE('',*,*,#323,.F.);
#245=ORIENTED_EDGE('',*,*,#350,.F.);
#246=ORIENTED_EDGE('',*,*,#285,.F.);
#247=ORIENTED_EDGE('',*,*,#345,.F.);
#248=ORIENTED_EDGE('',*,*,#321,.F.);
#249=ORIENTED_EDGE('',*,*,#349,.F.);
#250=ORIENTED_EDGE('',*,*,#287,.F.);
#251=ORIENTED_EDGE('',*,*,#351,.F.);
#252=EDGE_CURVE('',#360,#361,#432,.T.);
#253=EDGE_CURVE('',#360,#362,#20,.F.);
#254=EDGE_CURVE('',#362,#363,#433,.T.);
#255=EDGE_CURVE('',#363,#364,#21,.F.);
#256=EDGE_CURVE('',#364,#365,#434,.T.);
#257=EDGE_CURVE('',#365,#366,#22,.F.);
#258=EDGE_CURVE('',#366,#367,#435,.T.);
#259=EDGE_CURVE('',#367,#361,#23,.F.);
#260=EDGE_CURVE('',#368,#369,#436,.T.);
#261=EDGE_CURVE('',#369,#370,#437,.T.);
#262=EDGE_CURVE('',#371,#370,#438,.T.);
#263=EDGE_CURVE('',#371,#368,#439,.T.);
#264=EDGE_CURVE('',#372,#373,#440,.T.);
#265=EDGE_CURVE('',#373,#374,#441,.T.);
#266=EDGE_CURVE('',#375,#374,#442,.T.);
#267=EDGE_CURVE('',#372,#375,#443,.T.);
#268=EDGE_CURVE('',#376,#377,#444,.T.);
#269=EDGE_CURVE('',#376,#378,#445,.T.);
#270=EDGE_CURVE('',#378,#379,#446,.T.);
#271=EDGE_CURVE('',#377,#379,#447,.T.);
#272=EDGE_CURVE('',#380,#381,#448,.T.);
#273=EDGE_CURVE('',#380,#382,#449,.T.);
#274=EDGE_CURVE('',#382,#383,#450,.T.);
#275=EDGE_CURVE('',#381,#383,#451,.T.);
#276=EDGE_CURVE('',#384,#385,#452,.T.);
#277=EDGE_CURVE('',#384,#386,#453,.T.);
#278=EDGE_CURVE('',#386,#387,#454,.T.);
#279=EDGE_CURVE('',#385,#387,#455,.T.);
#280=EDGE_CURVE('',#388,#389,#456,.T.);
#281=EDGE_CURVE('',#388,#390,#24,.F.);
#282=EDGE_CURVE('',#390,#391,#457,.T.);
#283=EDGE_CURVE('',#391,#392,#25,.F.);
#284=EDGE_CURVE('',#392,#393,#458,.T.);
#285=EDGE_CURVE('',#393,#394,#26,.F.);
#286=EDGE_CURVE('',#395,#394,#459,.T.);
#287=EDGE_CURVE('',#395,#389,#27,.F.);
#288=EDGE_CURVE('',#396,#397,#460,.T.);
#289=EDGE_CURVE('',#396,#398,#28,.T.);
#290=EDGE_CURVE('',#398,#399,#461,.T.);
#291=EDGE_CURVE('',#399,#400,#29,.T.);
#292=EDGE_CURVE('',#401,#400,#462,.T.);
#293=EDGE_CURVE('',#401,#402,#30,.T.);
#294=EDGE_CURVE('',#403,#402,#463,.T.);
#295=EDGE_CURVE('',#403,#397,#31,.T.);
#296=EDGE_CURVE('',#404,#405,#464,.T.);
#297=EDGE_CURVE('',#404,#406,#465,.T.);
#298=EDGE_CURVE('',#406,#407,#466,.T.);
#299=EDGE_CURVE('',#405,#407,#467,.T.);
#300=EDGE_CURVE('',#408,#409,#468,.T.);
#301=EDGE_CURVE('',#408,#410,#469,.T.);
#302=EDGE_CURVE('',#410,#411,#470,.T.);
#303=EDGE_CURVE('',#409,#411,#471,.T.);
#304=EDGE_CURVE('',#412,#413,#472,.T.);
#305=EDGE_CURVE('',#414,#412,#473,.T.);
#306=EDGE_CURVE('',#414,#415,#474,.T.);
#307=EDGE_CURVE('',#413,#415,#475,.T.);
#308=EDGE_CURVE('',#416,#417,#476,.T.);
#309=EDGE_CURVE('',#418,#416,#477,.T.);
#310=EDGE_CURVE('',#418,#419,#478,.T.);
#311=EDGE_CURVE('',#419,#417,#479,.T.);
#312=EDGE_CURVE('',#420,#421,#480,.T.);
#313=EDGE_CURVE('',#420,#422,#481,.T.);
#314=EDGE_CURVE('',#422,#423,#482,.T.);
#315=EDGE_CURVE('',#421,#423,#483,.T.);
#316=EDGE_CURVE('',#424,#425,#484,.T.);
#317=EDGE_CURVE('',#424,#426,#32,.T.);
#318=EDGE_CURVE('',#427,#426,#485,.T.);
#319=EDGE_CURVE('',#427,#428,#33,.T.);
#320=EDGE_CURVE('',#428,#429,#486,.T.);
#321=EDGE_CURVE('',#429,#430,#34,.T.);
#322=EDGE_CURVE('',#430,#431,#487,.T.);
#323=EDGE_CURVE('',#431,#425,#35,.T.);
#324=EDGE_CURVE('',#369,#413,#488,.T.);
#325=EDGE_CURVE('',#368,#412,#489,.T.);
#326=EDGE_CURVE('',#370,#415,#490,.T.);
#327=EDGE_CURVE('',#371,#414,#491,.T.);
#328=EDGE_CURVE('',#416,#373,#492,.T.);
#329=EDGE_CURVE('',#417,#374,#493,.T.);
#330=EDGE_CURVE('',#418,#372,#494,.T.);
#331=EDGE_CURVE('',#419,#375,#495,.T.);
#332=EDGE_CURVE('',#408,#376,#496,.T.);
#333=EDGE_CURVE('',#409,#378,#497,.T.);
#334=EDGE_CURVE('',#410,#377,#498,.T.);
#335=EDGE_CURVE('',#411,#379,#499,.T.);
#336=EDGE_CURVE('',#420,#380,#500,.T.);
#337=EDGE_CURVE('',#421,#382,#501,.T.);
#338=EDGE_CURVE('',#422,#381,#502,.T.);
#339=EDGE_CURVE('',#423,#383,#503,.T.);
#340=EDGE_CURVE('',#404,#384,#504,.T.);
#341=EDGE_CURVE('',#405,#386,#505,.T.);
#342=EDGE_CURVE('',#406,#385,#506,.T.);
#343=EDGE_CURVE('',#407,#387,#507,.T.);
#344=EDGE_CURVE('',#392,#424,#508,.F.);
#345=EDGE_CURVE('',#425,#393,#509,.T.);
#346=EDGE_CURVE('',#426,#391,#510,.T.);
#347=EDGE_CURVE('',#390,#427,#511,.F.);
#348=EDGE_CURVE('',#428,#388,#512,.T.);
#349=EDGE_CURVE('',#389,#429,#513,.F.);
#350=EDGE_CURVE('',#394,#431,#514,.F.);
#351=EDGE_CURVE('',#430,#395,#515,.T.);
#352=EDGE_CURVE('',#398,#360,#516,.T.);
#353=EDGE_CURVE('',#361,#399,#517,.F.);
#354=EDGE_CURVE('',#400,#367,#518,.T.);
#355=EDGE_CURVE('',#366,#401,#519,.F.);
#356=EDGE_CURVE('',#402,#365,#520,.T.);
#357=EDGE_CURVE('',#364,#403,#521,.F.);
#358=EDGE_CURVE('',#362,#396,#522,.F.);
#359=EDGE_CURVE('',#397,#363,#523,.T.);
#360=VERTEX_POINT('',#1058);
#361=VERTEX_POINT('',#1059);
#362=VERTEX_POINT('',#1061);
#363=VERTEX_POINT('',#1063);
#364=VERTEX_POINT('',#1065);
#365=VERTEX_POINT('',#1067);
#366=VERTEX_POINT('',#1069);
#367=VERTEX_POINT('',#1071);
#368=VERTEX_POINT('',#1074);
#369=VERTEX_POINT('',#1075);
#370=VERTEX_POINT('',#1077);
#371=VERTEX_POINT('',#1079);
#372=VERTEX_POINT('',#1082);
#373=VERTEX_POINT('',#1083);
#374=VERTEX_POINT('',#1085);
#375=VERTEX_POINT('',#1087);
#376=VERTEX_POINT('',#1090);
#377=VERTEX_POINT('',#1091);
#378=VERTEX_POINT('',#1093);
#379=VERTEX_POINT('',#1095);
#380=VERTEX_POINT('',#1098);
#381=VERTEX_POINT('',#1099);
#382=VERTEX_POINT('',#1101);
#383=VERTEX_POINT('',#1103);
#384=VERTEX_POINT('',#1106);
#385=VERTEX_POINT('',#1107);
#386=VERTEX_POINT('',#1109);
#387=VERTEX_POINT('',#1111);
#388=VERTEX_POINT('',#1114);
#389=VERTEX_POINT('',#1115);
#390=VERTEX_POINT('',#1117);
#391=VERTEX_POINT('',#1119);
#392=VERTEX_POINT('',#1121);
#393=VERTEX_POINT('',#1123);
#394=VERTEX_POINT('',#1125);
#395=VERTEX_POINT('',#1127);
#396=VERTEX_POINT('',#1131);
#397=VERTEX_POINT('',#1132);
#398=VERTEX_POINT('',#1134);
#399=VERTEX_POINT('',#1136);
#400=VERTEX_POINT('',#1138);
#401=VERTEX_POINT('',#1140);
#402=VERTEX_POINT('',#1142);
#403=VERTEX_POINT('',#1144);
#404=VERTEX_POINT('',#1147);
#405=VERTEX_POINT('',#1148);
#406=VERTEX_POINT('',#1150);
#407=VERTEX_POINT('',#1152);
#408=VERTEX_POINT('',#1155);
#409=VERTEX_POINT('',#1156);
#410=VERTEX_POINT('',#1158);
#411=VERTEX_POINT('',#1160);
#412=VERTEX_POINT('',#1163);
#413=VERTEX_POINT('',#1164);
#414=VERTEX_POINT('',#1166);
#415=VERTEX_POINT('',#1168);
#416=VERTEX_POINT('',#1171);
#417=VERTEX_POINT('',#1172);
#418=VERTEX_POINT('',#1174);
#419=VERTEX_POINT('',#1176);
#420=VERTEX_POINT('',#1179);
#421=VERTEX_POINT('',#1180);
#422=VERTEX_POINT('',#1182);
#423=VERTEX_POINT('',#1184);
#424=VERTEX_POINT('',#1187);
#425=VERTEX_POINT('',#1188);
#426=VERTEX_POINT('',#1190);
#427=VERTEX_POINT('',#1192);
#428=VERTEX_POINT('',#1194);
#429=VERTEX_POINT('',#1196);
#430=VERTEX_POINT('',#1198);
#431=VERTEX_POINT('',#1200);
#432=LINE('',#1057,#524);
#433=LINE('',#1062,#525);
#434=LINE('',#1066,#526);
#435=LINE('',#1070,#527);
#436=LINE('',#1073,#528);
#437=LINE('',#1076,#529);
#438=LINE('',#1078,#530);
#439=LINE('',#1080,#531);
#440=LINE('',#1081,#532);
#441=LINE('',#1084,#533);
#442=LINE('',#1086,#534);
#443=LINE('',#1088,#535);
#444=LINE('',#1089,#536);
#445=LINE('',#1092,#537);
#446=LINE('',#1094,#538);
#447=LINE('',#1096,#539);
#448=LINE('',#1097,#540);
#449=LINE('',#1100,#541);
#450=LINE('',#1102,#542);
#451=LINE('',#1104,#543);
#452=LINE('',#1105,#544);
#453=LINE('',#1108,#545);
#454=LINE('',#1110,#546);
#455=LINE('',#1112,#547);
#456=LINE('',#1113,#548);
#457=LINE('',#1118,#549);
#458=LINE('',#1122,#550);
#459=LINE('',#1126,#551);
#460=LINE('',#1130,#552);
#461=LINE('',#1135,#553);
#462=LINE('',#1139,#554);
#463=LINE('',#1143,#555);
#464=LINE('',#1146,#556);
#465=LINE('',#1149,#557);
#466=LINE('',#1151,#558);
#467=LINE('',#1153,#559);
#468=LINE('',#1154,#560);
#469=LINE('',#1157,#561);
#470=LINE('',#1159,#562);
#471=LINE('',#1161,#563);
#472=LINE('',#1162,#564);
#473=LINE('',#1165,#565);
#474=LINE('',#1167,#566);
#475=LINE('',#1169,#567);
#476=LINE('',#1170,#568);
#477=LINE('',#1173,#569);
#478=LINE('',#1175,#570);
#479=LINE('',#1177,#571);
#480=LINE('',#1178,#572);
#481=LINE('',#1181,#573);
#482=LINE('',#1183,#574);
#483=LINE('',#1185,#575);
#484=LINE('',#1186,#576);
#485=LINE('',#1191,#577);
#486=LINE('',#1195,#578);
#487=LINE('',#1199,#579);
#488=LINE('',#1203,#580);
#489=LINE('',#1204,#581);
#490=LINE('',#1206,#582);
#491=LINE('',#1208,#583);
#492=LINE('',#1211,#584);
#493=LINE('',#1212,#585);
#494=LINE('',#1214,#586);
#495=LINE('',#1216,#587);
#496=LINE('',#1219,#588);
#497=LINE('',#1220,#589);
#498=LINE('',#1222,#590);
#499=LINE('',#1224,#591);
#500=LINE('',#1227,#592);
#501=LINE('',#1228,#593);
#502=LINE('',#1230,#594);
#503=LINE('',#1232,#595);
#504=LINE('',#1235,#596);
#505=LINE('',#1236,#597);
#506=LINE('',#1238,#598);
#507=LINE('',#1240,#599);
#508=LINE('',#1243,#600);
#509=LINE('',#1244,#601);
#510=LINE('',#1246,#602);
#511=LINE('',#1247,#603);
#512=LINE('',#1249,#604);
#513=LINE('',#1250,#605);
#514=LINE('',#1252,#606);
#515=LINE('',#1253,#607);
#516=LINE('',#1255,#608);
#517=LINE('',#1256,#609);
#518=LINE('',#1258,#610);
#519=LINE('',#1259,#611);
#520=LINE('',#1261,#612);
#521=LINE('',#1262,#613);
#522=LINE('',#1264,#614);
#523=LINE('',#1265,#615);
#524=VECTOR('',#857,1.);
#525=VECTOR('',#860,1.);
#526=VECTOR('',#863,1.);
#527=VECTOR('',#866,1.);
#528=VECTOR('',#869,1.);
#529=VECTOR('',#870,1.);
#530=VECTOR('',#871,1.);
#531=VECTOR('',#872,1.);
#532=VECTOR('',#873,1.);
#533=VECTOR('',#874,1.);
#534=VECTOR('',#875,1.);
#535=VECTOR('',#876,1.);
#536=VECTOR('',#877,1.);
#537=VECTOR('',#878,1.);
#538=VECTOR('',#879,1.);
#539=VECTOR('',#880,1.);
#540=VECTOR('',#881,1.);
#541=VECTOR('',#882,1.);
#542=VECTOR('',#883,1.);
#543=VECTOR('',#884,1.);
#544=VECTOR('',#885,1.);
#545=VECTOR('',#886,1.);
#546=VECTOR('',#887,1.);
#547=VECTOR('',#888,1.);
#548=VECTOR('',#889,1.);
#549=VECTOR('',#892,1.);
#550=VECTOR('',#895,1.);
#551=VECTOR('',#898,1.);
#552=VECTOR('',#903,1.);
#553=VECTOR('',#906,1.);
#554=VECTOR('',#909,1.);
#555=VECTOR('',#912,1.);
#556=VECTOR('',#915,1.);
#557=VECTOR('',#916,1.);
#558=VECTOR('',#917,1.);
#559=VECTOR('',#918,1.);
#560=VECTOR('',#919,1.);
#561=VECTOR('',#920,1.);
#562=VECTOR('',#921,1.);
#563=VECTOR('',#922,1.);
#564=VECTOR('',#923,1.);
#565=VECTOR('',#924,1.);
#566=VECTOR('',#925,1.);
#567=VECTOR('',#926,1.);
#568=VECTOR('',#927,1.);
#569=VECTOR('',#928,1.);
#570=VECTOR('',#929,1.);
#571=VECTOR('',#930,1.);
#572=VECTOR('',#931,1.);
#573=VECTOR('',#932,1.);
#574=VECTOR('',#933,1.);
#575=VECTOR('',#934,1.);
#576=VECTOR('',#935,1.);
#577=VECTOR('',#938,1.);
#578=VECTOR('',#941,1.);
#579=VECTOR('',#944,1.);
#580=VECTOR('',#949,1.);
#581=VECTOR('',#950,1.);
#582=VECTOR('',#953,1.);
#583=VECTOR('',#956,1.);
#584=VECTOR('',#961,1.);
#585=VECTOR('',#962,1.);
#586=VECTOR('',#965,1.);
#587=VECTOR('',#968,1.);
#588=VECTOR('',#973,1.);
#589=VECTOR('',#974,1.);
#590=VECTOR('',#977,1.);
#591=VECTOR('',#980,1.);
#592=VECTOR('',#985,1.);
#593=VECTOR('',#986,1.);
#594=VECTOR('',#989,1.);
#595=VECTOR('',#992,1.);
#596=VECTOR('',#997,1.);
#597=VECTOR('',#998,1.);
#598=VECTOR('',#1001,1.);
#599=VECTOR('',#1004,1.);
#600=VECTOR('',#1009,1.);
#601=VECTOR('',#1010,1.);
#602=VECTOR('',#1013,1.);
#603=VECTOR('',#1014,1.);
#604=VECTOR('',#1017,1.);
#605=VECTOR('',#1018,1.);
#606=VECTOR('',#1021,1.);
#607=VECTOR('',#1022,1.);
#608=VECTOR('',#1025,1.);
#609=VECTOR('',#1026,1.);
#610=VECTOR('',#1029,1.);
#611=VECTOR('',#1030,1.);
#612=VECTOR('',#1033,1.);
#613=VECTOR('',#1034,1.);
#614=VECTOR('',#1037,1.);
#615=VECTOR('',#1038,1.);
#616=EDGE_LOOP('',(#36,#37,#38,#39,#40,#41,#42,#43));
#617=EDGE_LOOP('',(#44,#45,#46,#47));
#618=EDGE_LOOP('',(#48,#49,#50,#51));
#619=EDGE_LOOP('',(#52,#53,#54,#55));
#620=EDGE_LOOP('',(#56,#57,#58,#59));
#621=EDGE_LOOP('',(#60,#61,#62,#63));
#622=EDGE_LOOP('',(#64,#65,#66,#67,#68,#69,#70,#71));
#623=EDGE_LOOP('',(#72,#73,#74,#75,#76,#77,#78,#79));
#624=EDGE_LOOP('',(#80,#81,#82,#83));
#625=EDGE_LOOP('',(#84,#85,#86,#87));
#626=EDGE_LOOP('',(#88,#89,#90,#91));
#627=EDGE_LOOP('',(#92,#93,#94,#95));
#628=EDGE_LOOP('',(#96,#97,#98,#99));
#629=EDGE_LOOP('',(#100,#101,#102,#103,#104,#105,#106,#107));
#630=EDGE_LOOP('',(#108,#109,#110,#111));
#631=EDGE_LOOP('',(#112,#113,#114,#115));
#632=EDGE_LOOP('',(#116,#117,#118,#119));
#633=EDGE_LOOP('',(#120,#121,#122,#123));
#634=EDGE_LOOP('',(#124,#125,#126,#127));
#635=EDGE_LOOP('',(#128,#129,#130,#131));
#636=EDGE_LOOP('',(#132,#133,#134,#135));
#637=EDGE_LOOP('',(#136,#137,#138,#139));
#638=EDGE_LOOP('',(#140,#141,#142,#143));
#639=EDGE_LOOP('',(#144,#145,#146,#147));
#640=EDGE_LOOP('',(#148,#149,#150,#151));
#641=EDGE_LOOP('',(#152,#153,#154,#155));
#642=EDGE_LOOP('',(#156,#157,#158,#159));
#643=EDGE_LOOP('',(#160,#161,#162,#163));
#644=EDGE_LOOP('',(#164,#165,#166,#167));
#645=EDGE_LOOP('',(#168,#169,#170,#171));
#646=EDGE_LOOP('',(#172,#173,#174,#175));
#647=EDGE_LOOP('',(#176,#177,#178,#179));
#648=EDGE_LOOP('',(#180,#181,#182,#183));
#649=EDGE_LOOP('',(#184,#185,#186,#187));
#650=EDGE_LOOP('',(#188,#189,#190,#191));
#651=EDGE_LOOP('',(#192,#193,#194,#195));
#652=EDGE_LOOP('',(#196,#197,#198,#199));
#653=EDGE_LOOP('',(#200,#201,#202,#203));
#654=EDGE_LOOP('',(#204,#205,#206,#207));
#655=EDGE_LOOP('',(#208,#209,#210,#211));
#656=EDGE_LOOP('',(#212,#213,#214,#215));
#657=EDGE_LOOP('',(#216,#217,#218,#219));
#658=EDGE_LOOP('',(#220,#221,#222,#223));
#659=EDGE_LOOP('',(#224,#225,#226,#227));
#660=EDGE_LOOP('',(#228,#229,#230,#231));
#661=EDGE_LOOP('',(#232,#233,#234,#235));
#662=EDGE_LOOP('',(#236,#237,#238,#239));
#663=EDGE_LOOP('',(#240,#241,#242,#243));
#664=EDGE_LOOP('',(#244,#245,#246,#247));
#665=EDGE_LOOP('',(#248,#249,#250,#251));
#666=FACE_BOUND('',#616,.T.);
#667=FACE_BOUND('',#617,.T.);
#668=FACE_BOUND('',#618,.T.);
#669=FACE_BOUND('',#619,.T.);
#670=FACE_BOUND('',#620,.T.);
#671=FACE_BOUND('',#621,.T.);
#672=FACE_BOUND('',#622,.T.);
#673=FACE_BOUND('',#623,.T.);
#674=FACE_BOUND('',#624,.T.);
#675=FACE_BOUND('',#625,.T.);
#676=FACE_BOUND('',#626,.T.);
#677=FACE_BOUND('',#627,.T.);
#678=FACE_BOUND('',#628,.T.);
#679=FACE_BOUND('',#629,.T.);
#680=FACE_BOUND('',#630,.T.);
#681=FACE_BOUND('',#631,.T.);
#682=FACE_BOUND('',#632,.T.);
#683=FACE_BOUND('',#633,.T.);
#684=FACE_BOUND('',#634,.T.);
#685=FACE_BOUND('',#635,.T.);
#686=FACE_BOUND('',#636,.T.);
#687=FACE_BOUND('',#637,.T.);
#688=FACE_BOUND('',#638,.T.);
#689=FACE_BOUND('',#639,.T.);
#690=FACE_BOUND('',#640,.T.);
#691=FACE_BOUND('',#641,.T.);
#692=FACE_BOUND('',#642,.T.);
#693=FACE_BOUND('',#643,.T.);
#694=FACE_BOUND('',#644,.T.);
#695=FACE_BOUND('',#645,.T.);
#696=FACE_BOUND('',#646,.T.);
#697=FACE_BOUND('',#647,.T.);
#698=FACE_BOUND('',#648,.T.);
#699=FACE_BOUND('',#649,.T.);
#700=FACE_BOUND('',#650,.T.);
#701=FACE_BOUND('',#651,.T.);
#702=FACE_BOUND('',#652,.T.);
#703=FACE_BOUND('',#653,.T.);
#704=FACE_BOUND('',#654,.T.);
#705=FACE_BOUND('',#655,.T.);
#706=FACE_BOUND('',#656,.T.);
#707=FACE_BOUND('',#657,.T.);
#708=FACE_BOUND('',#658,.T.);
#709=FACE_BOUND('',#659,.T.);
#710=FACE_BOUND('',#660,.T.);
#711=FACE_BOUND('',#661,.T.);
#712=FACE_BOUND('',#662,.T.);
#713=FACE_BOUND('',#663,.T.);
#714=FACE_BOUND('',#664,.T.);
#715=FACE_BOUND('',#665,.T.);
#716=PLANE('',#799);
#717=PLANE('',#808);
#718=PLANE('',#817);
#719=PLANE('',#818);
#720=PLANE('',#819);
#721=PLANE('',#820);
#722=PLANE('',#821);
#723=PLANE('',#822);
#724=PLANE('',#823);
#725=PLANE('',#824);
#726=PLANE('',#825);
#727=PLANE('',#826);
#728=PLANE('',#827);
#729=PLANE('',#828);
#730=PLANE('',#829);
#731=PLANE('',#830);
#732=PLANE('',#831);
#733=PLANE('',#832);
#734=PLANE('',#833);
#735=PLANE('',#834);
#736=PLANE('',#835);
#737=PLANE('',#836);
#738=PLANE('',#837);
#739=PLANE('',#838);
#740=PLANE('',#839);
#741=PLANE('',#840);
#742=PLANE('',#841);
#743=PLANE('',#842);
#744=PLANE('',#843);
#745=PLANE('',#844);
#746=ADVANCED_FACE('',(#666,#667,#668,#669,#670,#671,#672),#716,.T.);
#747=ADVANCED_FACE('',(#673,#674,#675,#676,#677,#678,#679),#717,.F.);
#748=ADVANCED_FACE('',(#680),#718,.F.);
#749=ADVANCED_FACE('',(#681),#719,.F.);
#750=ADVANCED_FACE('',(#682),#720,.T.);
#751=ADVANCED_FACE('',(#683),#721,.F.);
#752=ADVANCED_FACE('',(#684),#722,.T.);
#753=ADVANCED_FACE('',(#685),#723,.T.);
#754=ADVANCED_FACE('',(#686),#724,.F.);
#755=ADVANCED_FACE('',(#687),#725,.F.);
#756=ADVANCED_FACE('',(#688),#726,.T.);
#757=ADVANCED_FACE('',(#689),#727,.F.);
#758=ADVANCED_FACE('',(#690),#728,.F.);
#759=ADVANCED_FACE('',(#691),#729,.T.);
#760=ADVANCED_FACE('',(#692),#730,.T.);
#761=ADVANCED_FACE('',(#693),#731,.F.);
#762=ADVANCED_FACE('',(#694),#732,.F.);
#763=ADVANCED_FACE('',(#695),#733,.T.);
#764=ADVANCED_FACE('',(#696),#734,.T.);
#765=ADVANCED_FACE('',(#697),#735,.F.);
#766=ADVANCED_FACE('',(#698),#736,.F.);
#767=ADVANCED_FACE('',(#699),#737,.T.);
#768=ADVANCED_FACE('',(#700),#738,.T.);
#769=ADVANCED_FACE('',(#701),#739,.T.);
#770=ADVANCED_FACE('',(#702),#740,.F.);
#771=ADVANCED_FACE('',(#703),#741,.F.);
#772=ADVANCED_FACE('',(#704),#742,.F.);
#773=ADVANCED_FACE('',(#705),#743,.T.);
#774=ADVANCED_FACE('',(#706),#744,.T.);
#775=ADVANCED_FACE('',(#707),#745,.T.);
#776=ADVANCED_FACE('',(#708),#12,.F.);
#777=ADVANCED_FACE('',(#709),#13,.F.);
#778=ADVANCED_FACE('',(#710),#14,.F.);
#779=ADVANCED_FACE('',(#711),#15,.F.);
#780=ADVANCED_FACE('',(#712),#16,.F.);
#781=ADVANCED_FACE('',(#713),#17,.F.);
#782=ADVANCED_FACE('',(#714),#18,.F.);
#783=ADVANCED_FACE('',(#715),#19,.F.);
#784=CLOSED_SHELL('',(#746,#747,#748,#749,#750,#751,#752,#753,#754,#755,
#756,#757,#758,#759,#760,#761,#762,#763,#764,#765,#766,#767,#768,#769,#770,
#771,#772,#773,#774,#775,#776,#777,#778,#779,#780,#781,#782,#783));
#785=STYLED_ITEM('',(#786),#795);
#786=PRESENTATION_STYLE_ASSIGNMENT((#787));
#787=SURFACE_STYLE_USAGE(.BOTH.,#788);
#788=SURFACE_SIDE_STYLE('',(#791,#789));
#789=SURFACE_STYLE_RENDERING_WITH_PROPERTIES(.CONSTANT_SHADING.,#794,(#790));
#790=SURFACE_STYLE_TRANSPARENT(0.2);
#791=SURFACE_STYLE_FILL_AREA(#792);
#792=FILL_AREA_STYLE('',(#793));
#793=FILL_AREA_STYLE_COLOUR('',#794);
#794=COLOUR_RGB('',0.917647058823529,0.917647058823529,0.917647058823529);
#795=MANIFOLD_SOLID_BREP('Part 16',#784);
#796=SHAPE_DEFINITION_REPRESENTATION(#1280,#797);
#797=SHAPE_REPRESENTATION('Part 16',(#798),#1275);
#798=AXIS2_PLACEMENT_3D('',#1055,#853,#854);
#799=AXIS2_PLACEMENT_3D('',#1056,#855,#856);
#800=AXIS2_PLACEMENT_3D('',#1060,#858,#859);
#801=AXIS2_PLACEMENT_3D('',#1064,#861,#862);
#802=AXIS2_PLACEMENT_3D('',#1068,#864,#865);
#803=AXIS2_PLACEMENT_3D('',#1072,#867,#868);
#804=AXIS2_PLACEMENT_3D('',#1116,#890,#891);
#805=AXIS2_PLACEMENT_3D('',#1120,#893,#894);
#806=AXIS2_PLACEMENT_3D('',#1124,#896,#897);
#807=AXIS2_PLACEMENT_3D('',#1128,#899,#900);
#808=AXIS2_PLACEMENT_3D('',#1129,#901,#902);
#809=AXIS2_PLACEMENT_3D('',#1133,#904,#905);
#810=AXIS2_PLACEMENT_3D('',#1137,#907,#908);
#811=AXIS2_PLACEMENT_3D('',#1141,#910,#911);
#812=AXIS2_PLACEMENT_3D('',#1145,#913,#914);
#813=AXIS2_PLACEMENT_3D('',#1189,#936,#937);
#814=AXIS2_PLACEMENT_3D('',#1193,#939,#940);
#815=AXIS2_PLACEMENT_3D('',#1197,#942,#943);
#816=AXIS2_PLACEMENT_3D('',#1201,#945,#946);
#817=AXIS2_PLACEMENT_3D('',#1202,#947,#948);
#818=AXIS2_PLACEMENT_3D('',#1205,#951,#952);
#819=AXIS2_PLACEMENT_3D('',#1207,#954,#955);
#820=AXIS2_PLACEMENT_3D('',#1209,#957,#958);
#821=AXIS2_PLACEMENT_3D('',#1210,#959,#960);
#822=AXIS2_PLACEMENT_3D('',#1213,#963,#964);
#823=AXIS2_PLACEMENT_3D('',#1215,#966,#967);
#824=AXIS2_PLACEMENT_3D('',#1217,#969,#970);
#825=AXIS2_PLACEMENT_3D('',#1218,#971,#972);
#826=AXIS2_PLACEMENT_3D('',#1221,#975,#976);
#827=AXIS2_PLACEMENT_3D('',#1223,#978,#979);
#828=AXIS2_PLACEMENT_3D('',#1225,#981,#982);
#829=AXIS2_PLACEMENT_3D('',#1226,#983,#984);
#830=AXIS2_PLACEMENT_3D('',#1229,#987,#988);
#831=AXIS2_PLACEMENT_3D('',#1231,#990,#991);
#832=AXIS2_PLACEMENT_3D('',#1233,#993,#994);
#833=AXIS2_PLACEMENT_3D('',#1234,#995,#996);
#834=AXIS2_PLACEMENT_3D('',#1237,#999,#1000);
#835=AXIS2_PLACEMENT_3D('',#1239,#1002,#1003);
#836=AXIS2_PLACEMENT_3D('',#1241,#1005,#1006);
#837=AXIS2_PLACEMENT_3D('',#1242,#1007,#1008);
#838=AXIS2_PLACEMENT_3D('',#1245,#1011,#1012);
#839=AXIS2_PLACEMENT_3D('',#1248,#1015,#1016);
#840=AXIS2_PLACEMENT_3D('',#1251,#1019,#1020);
#841=AXIS2_PLACEMENT_3D('',#1254,#1023,#1024);
#842=AXIS2_PLACEMENT_3D('',#1257,#1027,#1028);
#843=AXIS2_PLACEMENT_3D('',#1260,#1031,#1032);
#844=AXIS2_PLACEMENT_3D('',#1263,#1035,#1036);
#845=AXIS2_PLACEMENT_3D('',#1266,#1039,#1040);
#846=AXIS2_PLACEMENT_3D('',#1267,#1041,#1042);
#847=AXIS2_PLACEMENT_3D('',#1268,#1043,#1044);
#848=AXIS2_PLACEMENT_3D('',#1269,#1045,#1046);
#849=AXIS2_PLACEMENT_3D('',#1270,#1047,#1048);
#850=AXIS2_PLACEMENT_3D('',#1271,#1049,#1050);
#851=AXIS2_PLACEMENT_3D('',#1272,#1051,#1052);
#852=AXIS2_PLACEMENT_3D('',#1273,#1053,#1054);
#853=DIRECTION('',(0.,0.,1.));
#854=DIRECTION('',(1.,0.,0.));
#855=DIRECTION('',(0.,0.,1.));
#856=DIRECTION('',(1.,0.,0.));
#857=DIRECTION('',(1.,0.,0.));
#858=DIRECTION('',(0.,0.,1.));
#859=DIRECTION('',(1.,0.,0.));
#860=DIRECTION('',(0.,1.,0.));
#861=DIRECTION('',(0.,0.,1.));
#862=DIRECTION('',(1.,0.,0.));
#863=DIRECTION('',(1.,0.,0.));
#864=DIRECTION('',(0.,0.,1.));
#865=DIRECTION('',(1.,0.,0.));
#866=DIRECTION('',(0.,-1.,0.));
#867=DIRECTION('',(0.,0.,1.));
#868=DIRECTION('',(1.,0.,0.));
#869=DIRECTION('',(0.,1.,0.));
#870=DIRECTION('',(-1.,0.,0.));
#871=DIRECTION('',(0.,1.,0.));
#872=DIRECTION('',(1.,0.,0.));
#873=DIRECTION('',(1.,0.,0.));
#874=DIRECTION('',(0.,-1.,0.));
#875=DIRECTION('',(1.,0.,0.));
#876=DIRECTION('',(0.,-1.,0.));
#877=DIRECTION('',(-1.,0.,0.));
#878=DIRECTION('',(0.,-1.,0.));
#879=DIRECTION('',(-1.,0.,0.));
#880=DIRECTION('',(0.,-1.,0.));
#881=DIRECTION('',(-1.,0.,0.));
#882=DIRECTION('',(0.,-1.,0.));
#883=DIRECTION('',(-1.,0.,0.));
#884=DIRECTION('',(0.,-1.,0.));
#885=DIRECTION('',(0.,-1.,0.));
#886=DIRECTION('',(1.,0.,0.));
#887=DIRECTION('',(0.,-1.,0.));
#888=DIRECTION('',(1.,0.,0.));
#889=DIRECTION('',(0.,1.,0.));
#890=DIRECTION('',(0.,0.,1.));
#891=DIRECTION('',(1.,0.,0.));
#892=DIRECTION('',(-1.,0.,0.));
#893=DIRECTION('',(0.,0.,1.));
#894=DIRECTION('',(1.,0.,0.));
#895=DIRECTION('',(4.62592926927147E-16,1.,0.));
#896=DIRECTION('',(0.,0.,1.));
#897=DIRECTION('',(1.,0.,0.));
#898=DIRECTION('',(-1.,0.,0.));
#899=DIRECTION('',(0.,0.,1.));
#900=DIRECTION('',(1.,0.,0.));
#901=DIRECTION('',(0.,0.,1.));
#902=DIRECTION('',(1.,0.,0.));
#903=DIRECTION('',(0.,1.,0.));
#904=DIRECTION('',(0.,0.,1.));
#905=DIRECTION('',(1.,0.,0.));
#906=DIRECTION('',(1.,0.,0.));
#907=DIRECTION('',(0.,0.,1.));
#908=DIRECTION('',(1.,0.,0.));
#909=DIRECTION('',(0.,-1.,0.));
#910=DIRECTION('',(0.,0.,1.));
#911=DIRECTION('',(1.,0.,0.));
#912=DIRECTION('',(1.,0.,0.));
#913=DIRECTION('',(0.,0.,1.));
#914=DIRECTION('',(1.,0.,0.));
#915=DIRECTION('',(1.,0.,0.));
#916=DIRECTION('',(0.,-1.,0.));
#917=DIRECTION('',(1.,0.,0.));
#918=DIRECTION('',(0.,-1.,0.));
#919=DIRECTION('',(0.,-1.,0.));
#920=DIRECTION('',(-1.,0.,0.));
#921=DIRECTION('',(0.,-1.,0.));
#922=DIRECTION('',(-1.,0.,0.));
#923=DIRECTION('',(0.,1.,0.));
#924=DIRECTION('',(1.,0.,0.));
#925=DIRECTION('',(0.,1.,0.));
#926=DIRECTION('',(-1.,0.,0.));
#927=DIRECTION('',(0.,-1.,0.));
#928=DIRECTION('',(1.,0.,0.));
#929=DIRECTION('',(0.,-1.,0.));
#930=DIRECTION('',(1.,0.,0.));
#931=DIRECTION('',(0.,-1.,0.));
#932=DIRECTION('',(-1.,0.,0.));
#933=DIRECTION('',(0.,-1.,0.));
#934=DIRECTION('',(-1.,0.,0.));
#935=DIRECTION('',(4.62592926927147E-16,1.,0.));
#936=DIRECTION('',(0.,0.,1.));
#937=DIRECTION('',(1.,0.,0.));
#938=DIRECTION('',(-1.,0.,0.));
#939=DIRECTION('',(0.,0.,1.));
#940=DIRECTION('',(1.,0.,0.));
#941=DIRECTION('',(0.,1.,0.));
#942=DIRECTION('',(0.,0.,1.));
#943=DIRECTION('',(1.,0.,0.));
#944=DIRECTION('',(-1.,0.,0.));
#945=DIRECTION('',(0.,0.,1.));
#946=DIRECTION('',(1.,0.,0.));
#947=DIRECTION('',(-1.,0.,0.));
#948=DIRECTION('',(0.,0.,1.));
#949=DIRECTION('',(0.,0.,-1.));
#950=DIRECTION('',(0.,0.,-1.));
#951=DIRECTION('',(0.,-1.,0.));
#952=DIRECTION('',(0.,0.,-1.));
#953=DIRECTION('',(0.,0.,-1.));
#954=DIRECTION('',(-1.,0.,0.));
#955=DIRECTION('',(0.,0.,1.));
#956=DIRECTION('',(0.,0.,-1.));
#957=DIRECTION('',(0.,1.,0.));
#958=DIRECTION('',(0.,0.,1.));
#959=DIRECTION('',(-1.,0.,0.));
#960=DIRECTION('',(0.,0.,1.));
#961=DIRECTION('',(0.,0.,1.));
#962=DIRECTION('',(0.,0.,1.));
#963=DIRECTION('',(0.,-1.,0.));
#964=DIRECTION('',(0.,0.,-1.));
#965=DIRECTION('',(0.,0.,1.));
#966=DIRECTION('',(-1.,0.,0.));
#967=DIRECTION('',(0.,0.,1.));
#968=DIRECTION('',(0.,0.,1.));
#969=DIRECTION('',(0.,-1.,0.));
#970=DIRECTION('',(0.,0.,-1.));
#971=DIRECTION('',(-1.,0.,0.));
#972=DIRECTION('',(0.,0.,1.));
#973=DIRECTION('',(0.,0.,1.));
#974=DIRECTION('',(0.,0.,1.));
#975=DIRECTION('',(0.,1.,0.));
#976=DIRECTION('',(0.,0.,1.));
#977=DIRECTION('',(0.,0.,1.));
#978=DIRECTION('',(-1.,0.,0.));
#979=DIRECTION('',(0.,0.,1.));
#980=DIRECTION('',(0.,0.,1.));
#981=DIRECTION('',(0.,1.,0.));
#982=DIRECTION('',(0.,0.,1.));
#983=DIRECTION('',(-1.,0.,0.));
#984=DIRECTION('',(0.,0.,1.));
#985=DIRECTION('',(0.,0.,1.));
#986=DIRECTION('',(0.,0.,1.));
#987=DIRECTION('',(0.,1.,0.));
#988=DIRECTION('',(0.,0.,1.));
#989=DIRECTION('',(0.,0.,1.));
#990=DIRECTION('',(-1.,0.,0.));
#991=DIRECTION('',(0.,0.,1.));
#992=DIRECTION('',(0.,0.,1.));
#993=DIRECTION('',(0.,1.,0.));
#994=DIRECTION('',(0.,0.,1.));
#995=DIRECTION('',(0.,-1.,0.));
#996=DIRECTION('',(0.,0.,-1.));
#997=DIRECTION('',(0.,0.,1.));
#998=DIRECTION('',(0.,0.,1.));
#999=DIRECTION('',(-1.,0.,0.));
#1000=DIRECTION('',(0.,0.,1.));
#1001=DIRECTION('',(0.,0.,1.));
#1002=DIRECTION('',(0.,-1.,0.));
#1003=DIRECTION('',(0.,0.,-1.));
#1004=DIRECTION('',(0.,0.,1.));
#1005=DIRECTION('',(-1.,0.,0.));
#1006=DIRECTION('',(0.,0.,1.));
#1007=DIRECTION('',(1.,-4.62592926927147E-16,0.));
#1008=DIRECTION('',(4.62592926927147E-16,1.,0.));
#1009=DIRECTION('',(0.,0.,1.));
#1010=DIRECTION('',(0.,0.,1.));
#1011=DIRECTION('',(0.,1.,0.));
#1012=DIRECTION('',(0.,0.,1.));
#1013=DIRECTION('',(0.,0.,1.));
#1014=DIRECTION('',(0.,0.,1.));
#1015=DIRECTION('',(1.,0.,0.));
#1016=DIRECTION('',(0.,0.,-1.));
#1017=DIRECTION('',(0.,0.,1.));
#1018=DIRECTION('',(0.,0.,1.));
#1019=DIRECTION('',(0.,1.,0.));
#1020=DIRECTION('',(0.,0.,1.));
#1021=DIRECTION('',(0.,0.,1.));
#1022=DIRECTION('',(0.,0.,1.));
#1023=DIRECTION('',(0.,-1.,0.));
#1024=DIRECTION('',(0.,0.,-1.));
#1025=DIRECTION('',(0.,0.,1.));
#1026=DIRECTION('',(0.,0.,1.));
#1027=DIRECTION('',(-1.,0.,0.));
#1028=DIRECTION('',(0.,0.,1.));
#1029=DIRECTION('',(0.,0.,1.));
#1030=DIRECTION('',(0.,0.,1.));
#1031=DIRECTION('',(0.,-1.,0.));
#1032=DIRECTION('',(0.,0.,-1.));
#1033=DIRECTION('',(0.,0.,1.));
#1034=DIRECTION('',(0.,0.,1.));
#1035=DIRECTION('',(1.,0.,0.));
#1036=DIRECTION('',(0.,0.,-1.));
#1037=DIRECTION('',(0.,0.,1.));
#1038=DIRECTION('',(0.,0.,1.));
#1039=DIRECTION('',(0.,0.,1.));
#1040=DIRECTION('',(1.,0.,0.));
#1041=DIRECTION('',(0.,0.,1.));
#1042=DIRECTION('',(1.,0.,0.));
#1043=DIRECTION('',(0.,0.,-1.));
#1044=DIRECTION('',(-1.,0.,0.));
#1045=DIRECTION('',(0.,0.,-1.));
#1046=DIRECTION('',(-1.,0.,0.));
#1047=DIRECTION('',(0.,0.,-1.));
#1048=DIRECTION('',(-1.,0.,0.));
#1049=DIRECTION('',(0.,0.,1.));
#1050=DIRECTION('',(1.,0.,0.));
#1051=DIRECTION('',(0.,0.,1.));
#1052=DIRECTION('',(1.,0.,0.));
#1053=DIRECTION('',(0.,0.,-1.));
#1054=DIRECTION('',(-1.,0.,0.));
#1055=CARTESIAN_POINT('',(0.,0.,0.));
#1056=CARTESIAN_POINT('',(-1.38777878078145E-17,-0.025,0.146));
#1057=CARTESIAN_POINT('',(-0.0605,-0.04,0.146));
#1058=CARTESIAN_POINT('',(-0.062,-0.04,0.146));
#1059=CARTESIAN_POINT('',(-0.059,-0.04,0.146));
#1060=CARTESIAN_POINT('',(-0.062,-0.039,0.146));
#1061=CARTESIAN_POINT('',(-0.063,-0.039,0.146));
#1062=CARTESIAN_POINT('',(-0.063,-0.0125,0.146));
#1063=CARTESIAN_POINT('',(-0.063,-0.011,0.146));
#1064=CARTESIAN_POINT('',(-0.062,-0.011,0.146));
#1065=CARTESIAN_POINT('',(-0.062,-0.01,0.146));
#1066=CARTESIAN_POINT('',(-0.0605,-0.01,0.146));
#1067=CARTESIAN_POINT('',(-0.059,-0.01,0.146));
#1068=CARTESIAN_POINT('',(-0.059,-0.011,0.146));
#1069=CARTESIAN_POINT('',(-0.058,-0.011,0.146));
#1070=CARTESIAN_POINT('',(-0.058,-0.02,0.146));
#1071=CARTESIAN_POINT('',(-0.058,-0.039,0.146));
#1072=CARTESIAN_POINT('',(-0.059,-0.039,0.146));
#1073=CARTESIAN_POINT('',(0.068,-0.11,0.146));
#1074=CARTESIAN_POINT('',(0.068,-0.118,0.146));
#1075=CARTESIAN_POINT('',(0.068,0.068,0.146));
#1076=CARTESIAN_POINT('',(0.,0.068,0.146));
#1077=CARTESIAN_POINT('',(-0.068,0.068,0.146));
#1078=CARTESIAN_POINT('',(-0.068,-0.11,0.146));
#1079=CARTESIAN_POINT('',(-0.068,-0.118,0.146));
#1080=CARTESIAN_POINT('',(-1.38777878078145E-17,-0.118,0.146));
#1081=CARTESIAN_POINT('',(-1.38777878078145E-17,-0.112,0.146));
#1082=CARTESIAN_POINT('',(-0.065,-0.112,0.146));
#1083=CARTESIAN_POINT('',(-0.06,-0.112,0.146));
#1084=CARTESIAN_POINT('',(-0.06,-0.1135,0.146));
#1085=CARTESIAN_POINT('',(-0.06,-0.115,0.146));
#1086=CARTESIAN_POINT('',(-1.38777878078145E-17,-0.115,0.146));
#1087=CARTESIAN_POINT('',(-0.065,-0.115,0.146));
#1088=CARTESIAN_POINT('',(-0.065,-0.112,0.146));
#1089=CARTESIAN_POINT('',(0.0625,-0.112,0.146));
#1090=CARTESIAN_POINT('',(0.065,-0.112,0.146));
#1091=CARTESIAN_POINT('',(0.06,-0.112,0.146));
#1092=CARTESIAN_POINT('',(0.065,-0.1135,0.146));
#1093=CARTESIAN_POINT('',(0.065,-0.115,0.146));
#1094=CARTESIAN_POINT('',(0.0625,-0.115,0.146));
#1095=CARTESIAN_POINT('',(0.06,-0.115,0.146));
#1096=CARTESIAN_POINT('',(0.06,-0.1135,0.146));
#1097=CARTESIAN_POINT('',(0.0625,0.065,0.146));
#1098=CARTESIAN_POINT('',(0.065,0.065,0.146));
#1099=CARTESIAN_POINT('',(0.06,0.065,0.146));
#1100=CARTESIAN_POINT('',(0.065,0.0635,0.146));
#1101=CARTESIAN_POINT('',(0.065,0.062,0.146));
#1102=CARTESIAN_POINT('',(0.0625,0.062,0.146));
#1103=CARTESIAN_POINT('',(0.06,0.062,0.146));
#1104=CARTESIAN_POINT('',(0.06,0.0635,0.146));
#1105=CARTESIAN_POINT('',(-0.065,0.0635,0.146));
#1106=CARTESIAN_POINT('',(-0.065,0.065,0.146));
#1107=CARTESIAN_POINT('',(-0.065,0.062,0.146));
#1108=CARTESIAN_POINT('',(-0.0625,0.065,0.146));
#1109=CARTESIAN_POINT('',(-0.06,0.065,0.146));
#1110=CARTESIAN_POINT('',(-0.06,0.0635,0.146));
#1111=CARTESIAN_POINT('',(-0.06,0.062,0.146));
#1112=CARTESIAN_POINT('',(-0.0625,0.062,0.146));
#1113=CARTESIAN_POINT('',(0.063,-0.02,0.146));
#1114=CARTESIAN_POINT('',(0.063,-0.039,0.146));
#1115=CARTESIAN_POINT('',(0.063,-0.011,0.146));
#1116=CARTESIAN_POINT('',(0.062,-0.039,0.146));
#1117=CARTESIAN_POINT('',(0.062,-0.04,0.146));
#1118=CARTESIAN_POINT('',(0.0605,-0.04,0.146));
#1119=CARTESIAN_POINT('',(0.059,-0.04,0.146));
#1120=CARTESIAN_POINT('',(0.059,-0.039,0.146));
#1121=CARTESIAN_POINT('',(0.058,-0.039,0.146));
#1122=CARTESIAN_POINT('',(0.058,-0.0175,0.146));
#1123=CARTESIAN_POINT('',(0.058,-0.011,0.146));
#1124=CARTESIAN_POINT('',(0.059,-0.011,0.146));
#1125=CARTESIAN_POINT('',(0.059,-0.01,0.146));
#1126=CARTESIAN_POINT('',(0.0605,-0.01,0.146));
#1127=CARTESIAN_POINT('',(0.062,-0.01,0.146));
#1128=CARTESIAN_POINT('',(0.062,-0.011,0.146));
#1129=CARTESIAN_POINT('',(-1.38777878078145E-17,-0.025,0.143));
#1130=CARTESIAN_POINT('',(-0.063,-0.025,0.143));
#1131=CARTESIAN_POINT('',(-0.063,-0.039,0.143));
#1132=CARTESIAN_POINT('',(-0.063,-0.011,0.143));
#1133=CARTESIAN_POINT('',(-0.062,-0.039,0.143));
#1134=CARTESIAN_POINT('',(-0.062,-0.04,0.143));
#1135=CARTESIAN_POINT('',(-1.38777878078145E-17,-0.04,0.143));
#1136=CARTESIAN_POINT('',(-0.059,-0.04,0.143));
#1137=CARTESIAN_POINT('',(-0.059,-0.039,0.143));
#1138=CARTESIAN_POINT('',(-0.058,-0.039,0.143));
#1139=CARTESIAN_POINT('',(-0.058,-0.025,0.143));
#1140=CARTESIAN_POINT('',(-0.058,-0.011,0.143));
#1141=CARTESIAN_POINT('',(-0.059,-0.011,0.143));
#1142=CARTESIAN_POINT('',(-0.059,-0.01,0.143));
#1143=CARTESIAN_POINT('',(-1.38777878078145E-17,-0.01,0.143));
#1144=CARTESIAN_POINT('',(-0.062,-0.01,0.143));
#1145=CARTESIAN_POINT('',(-0.062,-0.011,0.143));
#1146=CARTESIAN_POINT('',(-0.0625,0.065,0.143));
#1147=CARTESIAN_POINT('',(-0.065,0.065,0.143));
#1148=CARTESIAN_POINT('',(-0.06,0.065,0.143));
#1149=CARTESIAN_POINT('',(-0.065,0.0635,0.143));
#1150=CARTESIAN_POINT('',(-0.065,0.062,0.143));
#1151=CARTESIAN_POINT('',(-0.0625,0.062,0.143));
#1152=CARTESIAN_POINT('',(-0.06,0.062,0.143));
#1153=CARTESIAN_POINT('',(-0.06,0.0635,0.143));
#1154=CARTESIAN_POINT('',(0.065,-0.1135,0.143));
#1155=CARTESIAN_POINT('',(0.065,-0.112,0.143));
#1156=CARTESIAN_POINT('',(0.065,-0.115,0.143));
#1157=CARTESIAN_POINT('',(0.0625,-0.112,0.143));
#1158=CARTESIAN_POINT('',(0.06,-0.112,0.143));
#1159=CARTESIAN_POINT('',(0.06,-0.1135,0.143));
#1160=CARTESIAN_POINT('',(0.06,-0.115,0.143));
#1161=CARTESIAN_POINT('',(0.0625,-0.115,0.143));
#1162=CARTESIAN_POINT('',(0.068,-0.11,0.143));
#1163=CARTESIAN_POINT('',(0.068,-0.118,0.143));
#1164=CARTESIAN_POINT('',(0.068,0.068,0.143));
#1165=CARTESIAN_POINT('',(-1.38777878078145E-17,-0.118,0.143));
#1166=CARTESIAN_POINT('',(-0.068,-0.118,0.143));
#1167=CARTESIAN_POINT('',(-0.068,-0.11,0.143));
#1168=CARTESIAN_POINT('',(-0.068,0.068,0.143));
#1169=CARTESIAN_POINT('',(0.,0.068,0.143));
#1170=CARTESIAN_POINT('',(-0.06,-0.1135,0.143));
#1171=CARTESIAN_POINT('',(-0.06,-0.112,0.143));
#1172=CARTESIAN_POINT('',(-0.06,-0.115,0.143));
#1173=CARTESIAN_POINT('',(-1.38777878078145E-17,-0.112,0.143));
#1174=CARTESIAN_POINT('',(-0.065,-0.112,0.143));
#1175=CARTESIAN_POINT('',(-0.065,-0.112,0.143));
#1176=CARTESIAN_POINT('',(-0.065,-0.115,0.143));
#1177=CARTESIAN_POINT('',(-1.38777878078145E-17,-0.115,0.143));
#1178=CARTESIAN_POINT('',(0.065,0.0635,0.143));
#1179=CARTESIAN_POINT('',(0.065,0.065,0.143));
#1180=CARTESIAN_POINT('',(0.065,0.062,0.143));
#1181=CARTESIAN_POINT('',(0.0625,0.065,0.143));
#1182=CARTESIAN_POINT('',(0.06,0.065,0.143));
#1183=CARTESIAN_POINT('',(0.06,0.0635,0.143));
#1184=CARTESIAN_POINT('',(0.06,0.062,0.143));
#1185=CARTESIAN_POINT('',(0.0625,0.062,0.143));
#1186=CARTESIAN_POINT('',(0.058,-0.025,0.143));
#1187=CARTESIAN_POINT('',(0.058,-0.039,0.143));
#1188=CARTESIAN_POINT('',(0.058,-0.011,0.143));
#1189=CARTESIAN_POINT('',(0.059,-0.039,0.143));
#1190=CARTESIAN_POINT('',(0.059,-0.04,0.143));
#1191=CARTESIAN_POINT('',(-1.38777878078145E-17,-0.04,0.143));
#1192=CARTESIAN_POINT('',(0.062,-0.04,0.143));
#1193=CARTESIAN_POINT('',(0.062,-0.039,0.143));
#1194=CARTESIAN_POINT('',(0.063,-0.039,0.143));
#1195=CARTESIAN_POINT('',(0.063,-0.025,0.143));
#1196=CARTESIAN_POINT('',(0.063,-0.011,0.143));
#1197=CARTESIAN_POINT('',(0.062,-0.011,0.143));
#1198=CARTESIAN_POINT('',(0.062,-0.01,0.143));
#1199=CARTESIAN_POINT('',(-1.38777878078145E-17,-0.01,0.143));
#1200=CARTESIAN_POINT('',(0.059,-0.01,0.143));
#1201=CARTESIAN_POINT('',(0.059,-0.011,0.143));
#1202=CARTESIAN_POINT('',(0.068,-0.11,0.146));
#1203=CARTESIAN_POINT('',(0.068,0.068,0.146));
#1204=CARTESIAN_POINT('',(0.068,-0.118,0.146));
#1205=CARTESIAN_POINT('',(0.,0.068,0.146));
#1206=CARTESIAN_POINT('',(-0.068,0.068,0.146));
#1207=CARTESIAN_POINT('',(-0.068,-0.11,0.146));
#1208=CARTESIAN_POINT('',(-0.068,-0.118,0.146));
#1209=CARTESIAN_POINT('',(-1.38777878078145E-17,-0.118,0.146));
#1210=CARTESIAN_POINT('',(-0.06,-0.1135,0.143));
#1211=CARTESIAN_POINT('',(-0.06,-0.112,0.143));
#1212=CARTESIAN_POINT('',(-0.06,-0.115,0.143));
#1213=CARTESIAN_POINT('',(-1.38777878078145E-17,-0.112,0.143));
#1214=CARTESIAN_POINT('',(-0.065,-0.112,0.143));
#1215=CARTESIAN_POINT('',(-0.065,-0.112,0.143));
#1216=CARTESIAN_POINT('',(-0.065,-0.115,0.143));
#1217=CARTESIAN_POINT('',(-1.38777878078145E-17,-0.115,0.143));
#1218=CARTESIAN_POINT('',(0.065,-0.1135,0.143));
#1219=CARTESIAN_POINT('',(0.065,-0.112,0.143));
#1220=CARTESIAN_POINT('',(0.065,-0.115,0.143));
#1221=CARTESIAN_POINT('',(0.0625,-0.112,0.143));
#1222=CARTESIAN_POINT('',(0.06,-0.112,0.143));
#1223=CARTESIAN_POINT('',(0.06,-0.1135,0.143));
#1224=CARTESIAN_POINT('',(0.06,-0.115,0.143));
#1225=CARTESIAN_POINT('',(0.0625,-0.115,0.143));
#1226=CARTESIAN_POINT('',(0.065,0.0635,0.143));
#1227=CARTESIAN_POINT('',(0.065,0.065,0.143));
#1228=CARTESIAN_POINT('',(0.065,0.062,0.143));
#1229=CARTESIAN_POINT('',(0.0625,0.065,0.143));
#1230=CARTESIAN_POINT('',(0.06,0.065,0.143));
#1231=CARTESIAN_POINT('',(0.06,0.0635,0.143));
#1232=CARTESIAN_POINT('',(0.06,0.062,0.143));
#1233=CARTESIAN_POINT('',(0.0625,0.062,0.143));
#1234=CARTESIAN_POINT('',(-0.0625,0.065,0.143));
#1235=CARTESIAN_POINT('',(-0.065,0.065,0.143));
#1236=CARTESIAN_POINT('',(-0.06,0.065,0.143));
#1237=CARTESIAN_POINT('',(-0.065,0.0635,0.143));
#1238=CARTESIAN_POINT('',(-0.065,0.062,0.143));
#1239=CARTESIAN_POINT('',(-0.0625,0.062,0.143));
#1240=CARTESIAN_POINT('',(-0.06,0.062,0.143));
#1241=CARTESIAN_POINT('',(-0.06,0.0635,0.143));
#1242=CARTESIAN_POINT('',(0.058,-0.0175,0.121));
#1243=CARTESIAN_POINT('',(0.058,-0.039,0.143));
#1244=CARTESIAN_POINT('',(0.058,-0.011,0.121));
#1245=CARTESIAN_POINT('',(0.0605,-0.04,0.121));
#1246=CARTESIAN_POINT('',(0.059,-0.04,0.146));
#1247=CARTESIAN_POINT('',(0.062,-0.04,0.121));
#1248=CARTESIAN_POINT('',(0.063,-0.02,0.121));
#1249=CARTESIAN_POINT('',(0.063,-0.039,0.121));
#1250=CARTESIAN_POINT('',(0.063,-0.011,0.143));
#1251=CARTESIAN_POINT('',(0.0605,-0.01,0.121));
#1252=CARTESIAN_POINT('',(0.059,-0.01,0.121));
#1253=CARTESIAN_POINT('',(0.062,-0.01,0.146));
#1254=CARTESIAN_POINT('',(-0.0605,-0.04,0.121));
#1255=CARTESIAN_POINT('',(-0.062,-0.04,0.121));
#1256=CARTESIAN_POINT('',(-0.059,-0.04,0.121));
#1257=CARTESIAN_POINT('',(-0.058,-0.02,0.121));
#1258=CARTESIAN_POINT('',(-0.058,-0.039,0.121));
#1259=CARTESIAN_POINT('',(-0.058,-0.011,0.143));
#1260=CARTESIAN_POINT('',(-0.0605,-0.01,0.121));
#1261=CARTESIAN_POINT('',(-0.059,-0.01,0.146));
#1262=CARTESIAN_POINT('',(-0.062,-0.01,0.143));
#1263=CARTESIAN_POINT('',(-0.063,-0.0125,0.121));
#1264=CARTESIAN_POINT('',(-0.063,-0.039,0.121));
#1265=CARTESIAN_POINT('',(-0.063,-0.011,0.146));
#1266=CARTESIAN_POINT('',(-0.062,-0.039,0.121));
#1267=CARTESIAN_POINT('',(-0.059,-0.039,0.121));
#1268=CARTESIAN_POINT('',(-0.059,-0.011,0.121));
#1269=CARTESIAN_POINT('',(-0.062,-0.011,0.121));
#1270=CARTESIAN_POINT('',(0.059,-0.039,0.121));
#1271=CARTESIAN_POINT('',(0.062,-0.039,0.121));
#1272=CARTESIAN_POINT('',(0.059,-0.011,0.121));
#1273=CARTESIAN_POINT('',(0.062,-0.011,0.121));
#1274=MECHANICAL_DESIGN_GEOMETRIC_PRESENTATION_REPRESENTATION('',(#785),
#1275);
#1275=(
GEOMETRIC_REPRESENTATION_CONTEXT(3)
GLOBAL_UNCERTAINTY_ASSIGNED_CONTEXT((#1276))
GLOBAL_UNIT_ASSIGNED_CONTEXT((#1279,#1278,#1277))
REPRESENTATION_CONTEXT('Part 16','TOP_LEVEL_ASSEMBLY_PART')
);
#1276=UNCERTAINTY_MEASURE_WITH_UNIT(LENGTH_MEASURE(1.E-8),#1279,
'DISTANCE_ACCURACY_VALUE','Maximum Tolerance applied to model');
#1277=(
NAMED_UNIT(*)
SI_UNIT($,.STERADIAN.)
SOLID_ANGLE_UNIT()
);
#1278=(
NAMED_UNIT(*)
PLANE_ANGLE_UNIT()
SI_UNIT($,.RADIAN.)
);
#1279=(
LENGTH_UNIT()
NAMED_UNIT(*)
SI_UNIT($,.METRE.)
);
#1280=PRODUCT_DEFINITION_SHAPE('','',#1281);
#1281=PRODUCT_DEFINITION('','',#1283,#1282);
#1282=PRODUCT_DEFINITION_CONTEXT('',#1289,'design');
#1283=PRODUCT_DEFINITION_FORMATION_WITH_SPECIFIED_SOURCE('','',#1285,
 .NOT_KNOWN.);
#1284=PRODUCT_RELATED_PRODUCT_CATEGORY('','',(#1285));
#1285=PRODUCT('Part 16','Part 16','Part 16',(#1287));
#1286=PRODUCT_CATEGORY('','');
#1287=PRODUCT_CONTEXT('',#1289,'mechanical');
#1288=APPLICATION_PROTOCOL_DEFINITION('international standard',
'ap242_managed_model_based_3d_engineering',2020,#1289);
#1289=APPLICATION_CONTEXT('managed model based 3d engineering');
ENDSEC;
END-ISO-10303-21;
